<?xml version="1.0" encoding="utf-8"?>
<!-- Generator: Adobe Illustrator 22.0.1, SVG Export Plug-In . SVG Version: 6.00 Build 0)  -->
<svg version="1.1" xmlns="http://www.w3.org/2000/svg" xmlns:xlink="http://www.w3.org/1999/xlink" x="0px" y="0px" width="300px"
	 height="142.29px" viewBox="0 0 300 142.29" enable-background="new 0 0 300 142.29" xml:space="preserve">
<g id="Layer_1">
	<g>
		<path fill="#ECEFEF" d="M169.74,4.59c3.46,0,6.27,2.81,6.27,6.27v6.96H105.6v-6.96c0-3.46,2.81-6.27,6.27-6.27H169.74z"/>
		<rect x="102.18" y="20.13" fill="#989FA1" width="77.26" height="0.86"/>
		<rect x="130.56" y="11.24" fill="#989FA1" width="24.44" height="0.86"/>
		<polygon fill="#989FA1" points="189.62,114.38 112.88,114.38 112.88,37.63 115.43,37.63 115.43,38.49 113.73,38.49 113.73,113.52 
			188.77,113.52 188.77,111.37 189.62,111.37 		"/>
		<polygon fill="#989FA1" points="193.37,110.48 116.62,110.48 116.62,33.73 120.44,33.73 120.44,34.59 117.48,34.59 117.48,109.62 
			192.52,109.62 192.52,106.6 193.37,106.6 		"/>
		<path fill="#989FA1" d="M198.25,105.63H121.5V28.88h76.75V105.63z M122.36,104.77h75.04V29.74h-75.04V104.77z"/>
		<rect x="126.81" y="34.16" fill="#EEE679" width="66.13" height="66.13"/>
		<g>
			<path fill="#697374" d="M139.02,64.46c1.62,0,2.76,1.18,2.76,2.79c0,1.61-1.14,2.79-2.76,2.79c-1.62,0-2.76-1.18-2.76-2.79
				C136.26,65.64,137.4,64.46,139.02,64.46z M139.02,65.3c-1.09,0-1.79,0.83-1.79,1.95c0,1.11,0.7,1.95,1.79,1.95
				c1.08,0,1.79-0.84,1.79-1.95C140.81,66.14,140.1,65.3,139.02,65.3z"/>
			<path fill="#697374" d="M144.58,67.93h-0.94v2.02h-0.95v-5.4h2.37c1.07,0,1.76,0.7,1.76,1.69c0,0.96-0.63,1.48-1.28,1.59
				l1.32,2.12h-1.09L144.58,67.93z M144.93,65.38h-1.29v1.72h1.29c0.53,0,0.92-0.34,0.92-0.86S145.47,65.38,144.93,65.38z"/>
			<path fill="#697374" d="M147.77,64.55h2.01c1.68,0,2.82,1.12,2.82,2.7c0,1.59-1.14,2.69-2.82,2.69h-2.01V64.55z M149.78,69.12
				c1.17,0,1.85-0.84,1.85-1.86c0-1.04-0.65-1.87-1.85-1.87h-1.06v3.73H149.78z"/>
			<path fill="#697374" d="M153.52,64.55h3.7v0.83h-2.75v1.4h2.7v0.83h-2.7v1.5h2.75v0.83h-3.7V64.55z"/>
			<path fill="#697374" d="M160.07,67.93h-0.94v2.02h-0.95v-5.4h2.37c1.07,0,1.76,0.7,1.76,1.69c0,0.96-0.63,1.48-1.28,1.59
				l1.32,2.12h-1.09L160.07,67.93z M160.43,65.38h-1.29v1.72h1.29c0.53,0,0.92-0.34,0.92-0.86S160.96,65.38,160.43,65.38z"/>
			<path fill="#697374" d="M167.21,68.54h-0.83l-0.47,1.41h-0.65l0.47-1.41h-0.81l0.18-0.56h0.83l0.48-1.46h-0.83l0.17-0.55h0.85
				l0.47-1.42h0.65l-0.47,1.42h0.82l0.47-1.42h0.65l-0.48,1.42h0.82l-0.16,0.55h-0.84l-0.49,1.46h0.85l-0.17,0.56h-0.87l-0.47,1.41
				h-0.65L167.21,68.54z M167.06,66.53l-0.48,1.46h0.81l0.49-1.46H167.06z"/>
			<path fill="#697374" d="M170.38,68.55c0.35,0.4,0.92,0.66,1.5,0.66c0.71,0,1.12-0.32,1.12-0.83c0-0.53-0.43-0.76-1.2-0.76
				c-0.23,0-0.54,0-0.62,0.01v-0.85c0.1,0.01,0.41,0.01,0.62,0.01c0.63,0,1.11-0.22,1.11-0.71c0-0.5-0.49-0.76-1.09-0.76
				c-0.55,0-1,0.21-1.39,0.6l-0.49-0.59c0.41-0.49,1.07-0.85,1.97-0.85c1.17,0,1.95,0.55,1.95,1.46c0,0.72-0.62,1.14-1.17,1.24
				c0.53,0.05,1.25,0.48,1.25,1.31c0,0.91-0.78,1.57-2.03,1.57c-0.96,0-1.68-0.39-2.04-0.87L170.38,68.55z"/>
			<path fill="#697374" d="M177.12,68.73h-2.57v-0.76l2.22-3.42h1.3v3.34h0.72v0.83h-0.72v1.22h-0.95V68.73z M175.48,67.89h1.64
				V65.4L175.48,67.89z"/>
			<path fill="#697374" d="M180.57,67.17c-0.61-0.19-1.12-0.59-1.12-1.28c0-1,1.02-1.42,1.98-1.42c0.95,0,1.98,0.42,1.98,1.42
				c0,0.69-0.53,1.08-1.13,1.28c0.66,0.22,1.21,0.71,1.21,1.4c0,0.96-0.96,1.48-2.06,1.48c-1.11,0-2.07-0.51-2.07-1.48
				C179.36,67.88,179.91,67.38,180.57,67.17z M181.43,67.59c-0.34,0.04-1.12,0.29-1.12,0.85c0,0.47,0.5,0.76,1.12,0.76
				c0.6,0,1.11-0.29,1.11-0.76C182.54,67.89,181.76,67.63,181.43,67.59z M181.43,65.31c-0.59,0-1.03,0.27-1.03,0.72
				c0,0.51,0.7,0.7,1.03,0.76c0.33-0.06,1.02-0.25,1.02-0.76C182.45,65.58,182,65.31,181.43,65.31z"/>
		</g>
		<path fill="#989FA1" d="M169.74,141.04h-57.87c-5.58,0-10.12-4.54-10.12-10.12v-10.81h78.11v10.81
			C179.87,136.5,175.32,141.04,169.74,141.04z M102.61,120.97v9.95c0,5.11,4.16,9.27,9.27,9.27h57.87c5.11,0,9.27-4.16,9.27-9.27
			v-9.95H102.61z"/>
		<path fill="#ECEFEF" d="M111.87,137.19c-3.46,0-6.27-2.81-6.27-6.27v-6.96h70.42v6.96c0,3.46-2.81,6.27-6.27,6.27H111.87z"/>
		<path fill="#989FA1" d="M102.61,120.54h-0.86V11.17c0-5.58,4.54-10.12,10.12-10.12h57.87c5.58,0,10.12,4.54,10.12,10.12v14.91
			h-0.86V11.17c0-5.11-4.16-9.27-9.27-9.27h-57.87c-5.11,0-9.27,4.16-9.27,9.27V120.54z"/>
		<rect x="179.01" y="117.46" fill="#989FA1" width="0.86" height="3.08"/>
		<g>
			<circle fill="#FFFFFF" cx="140.55" cy="130.17" r="2.59"/>
			<path fill="#989FA1" d="M140.55,133.19c-1.67,0-3.02-1.35-3.02-3.02s1.35-3.02,3.02-3.02s3.02,1.35,3.02,3.02
				S142.22,133.19,140.55,133.19z M140.55,128c-1.19,0-2.16,0.97-2.16,2.16s0.97,2.16,2.16,2.16s2.16-0.97,2.16-2.16
				S141.75,128,140.55,128z"/>
		</g>
	</g>
</g>
<g id="Layer_2">
</g>
<g id="Layer_3">
</g>
<g id="Layer_4">
</g>
<g id="Layer_5">
</g>
<g id="Layer_6">
</g>
</svg>
