<?xml version="1.0" encoding="utf-8"?>
<!-- Generator: Adobe Illustrator 22.0.1, SVG Export Plug-In . SVG Version: 6.00 Build 0)  -->
<svg version="1.1" xmlns="http://www.w3.org/2000/svg" xmlns:xlink="http://www.w3.org/1999/xlink" x="0px" y="0px" width="300px"
	 height="141.83px" viewBox="0 0 300 141.83" enable-background="new 0 0 300 141.83" xml:space="preserve">
<g id="Layer_1">
	<g>
		<rect x="133.04" y="23.55" fill="#EEE679" width="27.32" height="90.79"/>
		<g>
			<rect x="169.68" y="40.41" fill="#FFFFFF" width="27.32" height="73.92"/>
			<path fill="#989FA1" d="M197.43,114.76h-28.18V39.99h28.18V114.76z M170.11,113.91h26.47V40.84h-26.47V113.91z"/>
		</g>
		
			<rect x="149.85" y="68.02" transform="matrix(-1.836970e-16 1 -1 -1.836970e-16 260.7149 -105.9677)" fill="#ECEFEF" width="66.98" height="18.7"/>
		<g>
			<rect x="205.59" y="1.17" fill="#FFFFFF" width="27.32" height="113.15"/>
			<path fill="#989FA1" d="M233.34,114.75h-28.18V0.74h28.18V114.75z M206.02,113.9h26.47V1.6h-26.47V113.9z"/>
		</g>
		
			<rect x="166.15" y="48.4" transform="matrix(-1.836970e-16 1 -1 -1.836970e-16 276.9995 -161.5044)" fill="#ECEFEF" width="106.21" height="18.7"/>
		<g>
			<g>
				
					<rect x="84.17" y="90.72" transform="matrix(0.7071 0.7071 -0.7071 0.7071 109.2724 -29.2874)" fill="#FFFFFF" width="11.64" height="53.07"/>
				<path fill="#989FA1" d="M75.34,140.74l-8.84-8.84l38.13-38.13l8.84,8.84L75.34,140.74z M67.71,131.91l7.63,7.63l36.93-36.92
					l-7.63-7.63L67.71,131.91z"/>
			</g>
			
				<rect x="66.19" y="114.18" transform="matrix(-0.7071 0.7071 -0.7071 -0.7071 236.5363 136.5433)" fill="#ECEFEF" width="47.6" height="6.16"/>
			<g>
				<circle fill="#FFFFFF" cx="124.73" cy="82.71" r="36.98"/>
				<path fill="#989FA1" d="M124.73,120.12c-9.99,0-19.38-3.89-26.45-10.96c-14.58-14.58-14.58-38.32,0-52.9
					c7.06-7.06,16.46-10.96,26.45-10.96s19.39,3.89,26.45,10.96c14.58,14.58,14.58,38.32,0,52.9
					C144.12,116.23,134.72,120.12,124.73,120.12z M124.73,46.16c-9.76,0-18.94,3.8-25.85,10.71c-14.25,14.25-14.25,37.44,0,51.69
					c6.9,6.9,16.08,10.71,25.85,10.71c9.76,0,18.94-3.8,25.85-10.71c14.25-14.25,14.25-37.44,0-51.69
					C143.67,49.96,134.5,46.16,124.73,46.16z"/>
			</g>
			<circle fill="#ECEFEF" cx="124.73" cy="82.71" r="31.06"/>
			<g>
				<g>
					<path fill="#989FA1" d="M126.23,95.17v3.34h-2.27v-3.31c-3.79-0.22-6.65-1.78-8.51-3.9l1.86-2.34
						c1.45,1.64,3.71,3.16,6.65,3.46V83.4c-3.79-1-7.73-2.3-7.73-6.87c0-3.86,3.27-6.57,7.73-6.87v-3.38h2.27v3.46
						c3.08,0.26,5.53,1.48,7.32,3.38l-1.86,2.27c-1.45-1.64-3.38-2.53-5.46-2.82v8.06c3.83,1.08,7.87,2.49,7.87,7.36
						C134.11,91.31,131.99,94.77,126.23,95.17z M123.96,80.02v-7.58c-2.67,0.15-4.53,1.71-4.53,3.9
						C119.43,78.46,121.48,79.31,123.96,80.02z M130.95,88.23c0-2.53-2.15-3.46-4.72-4.23v8.4
						C129.8,92.09,130.95,89.94,130.95,88.23z"/>
				</g>
			</g>
		</g>
	</g>
</g>
<g id="Layer_2">
</g>
<g id="Layer_3">
</g>
<g id="Layer_4">
</g>
<g id="Layer_5">
</g>
<g id="Layer_6">
</g>
</svg>
