<?xml version="1.0" encoding="utf-8"?>
<!-- Generator: Adobe Illustrator 22.0.1, SVG Export Plug-In . SVG Version: 6.00 Build 0)  -->
<svg version="1.1" xmlns="http://www.w3.org/2000/svg" xmlns:xlink="http://www.w3.org/1999/xlink" x="0px" y="0px" width="300px"
	 height="143px" viewBox="0 0 300 143" enable-background="new 0 0 300 143" xml:space="preserve">
<g id="Layer_1">
	<g>
		<g>
			<path fill="#989FA1" d="M68.38,56.79l11.72-16.74c0.26-0.38,0.66-0.62,1.11-0.7c0.45-0.08,0.9,0.02,1.28,0.28l11.5,8.06
				c0.77,0.54,0.96,1.61,0.42,2.38l-2.03,2.9l-2.15-4.37c-0.56-1.13-1.94-1.61-3.08-1.05L68.38,56.79z M81.51,40.08
				c-0.06,0-0.11,0-0.17,0.01c-0.25,0.04-0.47,0.19-0.62,0.4L70.67,54.83l16.16-7.95c1.51-0.74,3.34-0.12,4.08,1.39l1.59,3.23
				l1.3-1.86c0.3-0.43,0.2-1.03-0.24-1.34l-11.5-8.06C81.9,40.14,81.71,40.08,81.51,40.08z"/>
			<path fill="#989FA1" d="M72.79,74.55c-0.19,0-0.37-0.03-0.55-0.09c-0.43-0.15-0.78-0.46-0.98-0.87l-6.2-12.6
				c-0.42-0.85-0.07-1.87,0.78-2.29l21.58-10.61c0.85-0.41,1.87-0.07,2.29,0.78l6.2,12.6c0.42,0.85,0.07,1.87-0.78,2.29L73.55,74.37
				C73.31,74.49,73.05,74.55,72.79,74.55z M88.18,48.66c-0.14,0-0.29,0.03-0.42,0.1L66.17,59.37c-0.48,0.23-0.67,0.81-0.44,1.29
				l6.2,12.6c0.23,0.47,0.81,0.67,1.29,0.44L94.8,63.09c0.48-0.23,0.67-0.81,0.44-1.29l-6.2-12.6
				C88.87,48.86,88.53,48.66,88.18,48.66z"/>
			<path fill="#989FA1" d="M73.41,71.39c-0.07,0-0.14-0.01-0.21-0.04c-0.16-0.05-0.29-0.17-0.37-0.32l-0.65-1.33
				c-0.08-0.15-0.09-0.33-0.03-0.49c0.06-0.16,0.17-0.29,0.33-0.37l18.75-9.22c0.15-0.08,0.33-0.09,0.49-0.03
				c0.16,0.05,0.29,0.17,0.37,0.32l0.66,1.33c0.16,0.32,0.02,0.7-0.29,0.86l-18.75,9.22C73.6,71.37,73.51,71.39,73.41,71.39z
				 M72.9,69.46l0.56,1.14l18.56-9.12l-0.56-1.14L72.9,69.46z M92.06,61.58C92.06,61.58,92.06,61.58,92.06,61.58L92.06,61.58z"/>
			<path fill="#989FA1" d="M86.89,61.31l-0.92-1.87l4.57-2.25l0.92,1.87L86.89,61.31z M86.97,59.78l0.26,0.53l3.22-1.58l-0.26-0.53
				L86.97,59.78z"/>
			<path fill="#989FA1" d="M83.24,58.85c-0.39,0-0.76-0.21-0.94-0.58l-1.13-2.29c-0.25-0.52-0.04-1.14,0.48-1.4l5.18-2.55
				c0.52-0.25,1.14-0.04,1.4,0.48l1.13,2.29c0.25,0.52,0.04,1.14-0.48,1.4l-5.18,2.55C83.55,58.82,83.4,58.85,83.24,58.85z
				 M81.85,55.65l1.13,2.29c0.07,0.14,0.25,0.2,0.39,0.13l5.18-2.54c0.15-0.07,0.21-0.25,0.13-0.39l-1.13-2.29
				c-0.07-0.14-0.25-0.2-0.39-0.13l-5.18,2.54C81.84,55.33,81.78,55.5,81.85,55.65L81.85,55.65z"/>
			<path fill="#989FA1" d="M81.89,63.76l-0.92-1.87l4.57-2.25l0.92,1.87L81.89,63.76z M82.1,62.5l0.13,0.26l3.22-1.58l-0.26-0.53
				l-3.22,1.58L82.1,62.5z"/>
		</g>
		<g>
			<path fill="#989FA1" d="M76.59,22.47c-0.01,0-0.03,0-0.04,0c-0.47-0.01-0.92-0.21-1.24-0.55h0l-8.91-9.33
				c-0.68-0.71-0.65-1.84,0.06-2.51l6.13-5.85c0.71-0.68,1.84-0.65,2.51,0.06L84,13.62c0.68,0.71,0.65,1.84-0.06,2.51l-6.13,5.85
				C77.48,22.3,77.05,22.47,76.59,22.47z M75.84,21.4c0.19,0.2,0.44,0.31,0.72,0.32c0.25,0.02,0.53-0.09,0.73-0.28l6.13-5.85
				c0.41-0.39,0.42-1.04,0.03-1.45L74.55,4.8c-0.39-0.41-1.04-0.43-1.45-0.03l-6.13,5.85c-0.41,0.39-0.43,1.04-0.03,1.45L75.84,21.4
				z"/>
			
				<rect x="77.78" y="2.52" transform="matrix(0.7234 -0.6904 0.6904 0.7234 14.4369 56.8386)" fill="#989FA1" width="0.75" height="15.76"/>
			
				<rect x="75.5" y="4.7" transform="matrix(0.7234 -0.6904 0.6904 0.7234 12.3032 55.8663)" fill="#989FA1" width="0.75" height="15.76"/>
			
				<rect x="77.68" y="13.71" transform="matrix(0.9659 -0.259 0.259 0.9659 -0.9346 21.07)" fill="#989FA1" width="3.6" height="0.75"/>
			
				<rect x="78.67" y="14.76" transform="matrix(0.9706 -0.2407 0.2407 0.9706 -1.2756 19.8173)" fill="#989FA1" width="3.64" height="0.75"/>
			
				<rect x="70.71" y="8.35" transform="matrix(0.7234 -0.6904 0.6904 0.7234 12.0789 52.1121)" fill="#989FA1" width="0.75" height="5.25"/>
			
				<rect x="68.94" y="9.59" transform="matrix(0.7232 -0.6906 0.6906 0.7232 11.5653 50.9224)" fill="#989FA1" width="0.75" height="2.89"/>
		</g>
		<g>
			<path fill="#989FA1" d="M112.03,140.32c-0.79,0-1.51-0.53-1.72-1.33l-4.05-15.41c-0.12-0.46-0.06-0.94,0.18-1.35
				c0.24-0.41,0.62-0.7,1.08-0.82l22.53-5.92c0.95-0.25,1.92,0.32,2.17,1.27l4.05,15.41c0.12,0.46,0.06,0.94-0.18,1.35
				s-0.62,0.7-1.08,0.82l-22.53,5.92C112.33,140.3,112.18,140.32,112.03,140.32z M130.51,116.18c-0.09,0-0.17,0.01-0.26,0.03
				l-22.53,5.92c-0.27,0.07-0.49,0.24-0.63,0.48c-0.14,0.24-0.18,0.51-0.11,0.78l4.05,15.41c0.14,0.55,0.71,0.87,1.26,0.73
				l22.53-5.92c0.27-0.07,0.49-0.24,0.63-0.48c0.14-0.24,0.18-0.51,0.11-0.78l-4.05-15.41
				C131.38,116.49,130.96,116.18,130.51,116.18z"/>
			
				<rect x="106.63" y="121.03" transform="matrix(0.9672 -0.2542 0.2542 0.9672 -26.926 34.4161)" fill="#989FA1" width="26.19" height="0.75"/>
			
				<rect x="107.96" y="126.1" transform="matrix(0.9672 -0.2542 0.2542 0.9672 -28.1697 34.9209)" fill="#989FA1" width="26.19" height="0.75"/>
			<polygon fill="#989FA1" points="125.78,125.42 125.05,125.24 126.49,119.44 127.22,119.62 			"/>
			<polygon fill="#989FA1" points="128.05,124.83 127.32,124.64 128.89,118.8 129.61,119 			"/>
			
				<rect x="110.51" y="131.78" transform="matrix(0.9672 -0.2542 0.2542 0.9672 -29.8176 33.5376)" fill="#989FA1" width="8.73" height="0.75"/>
			
				<rect x="111.13" y="134.39" transform="matrix(0.9672 -0.2542 0.2542 0.9672 -30.5251 33.2816)" fill="#989FA1" width="4.8" height="0.75"/>
		</g>
		<g>
			<path fill="#989FA1" d="M228.08,66.48c-0.13,0-0.27-0.01-0.4-0.05h0l-7.07-1.63c-0.46-0.11-0.86-0.39-1.11-0.79
				c-0.25-0.4-0.33-0.88-0.22-1.34l0.99-4.31c0.22-0.96,1.18-1.56,2.13-1.33l7.07,1.63c0.46,0.11,0.86,0.39,1.11,0.79
				c0.25,0.4,0.33,0.88,0.22,1.34l-0.99,4.31C229.62,65.92,228.89,66.48,228.08,66.48z M227.85,65.7c0.56,0.13,1.11-0.22,1.23-0.77
				l0.99-4.31c0.06-0.27,0.02-0.54-0.13-0.78c-0.15-0.23-0.37-0.39-0.64-0.46l-7.07-1.63c-0.55-0.12-1.1,0.22-1.23,0.77l-0.99,4.31
				c-0.06,0.27-0.02,0.54,0.13,0.78c0.15,0.23,0.37,0.4,0.64,0.46L227.85,65.7L227.85,65.7z"/>
			
				<rect x="225.3" y="54.2" transform="matrix(0.2247 -0.9744 0.9744 0.2247 117.2277 265.8307)" fill="#989FA1" width="0.75" height="10.1"/>
			
				<rect x="224.84" y="56.16" transform="matrix(0.2248 -0.9744 0.9744 0.2248 114.9408 266.9052)" fill="#989FA1" width="0.75" height="10.1"/>
			<polygon fill="#989FA1" points="227.19,61.86 226.63,61.36 228.17,59.64 228.73,60.13 			"/>
			
				<rect x="227.42" y="60.58" transform="matrix(0.6793 -0.7339 0.7339 0.6793 28.5829 187.3108)" fill="#989FA1" width="2.33" height="0.75"/>
			
				<rect x="221.71" y="60.36" transform="matrix(0.2248 -0.9744 0.9744 0.2248 111.7016 264.5011)" fill="#989FA1" width="0.75" height="3.37"/>
			
				<rect x="220.79" y="61.77" transform="matrix(0.2247 -0.9744 0.9744 0.2247 110.3764 264.1161)" fill="#989FA1" width="0.75" height="1.85"/>
		</g>
		<g>
			<path fill="#989FA1" d="M155.67,27.95l-0.21-0.72l20.2-5.89c0.34-0.1,0.54-0.46,0.44-0.8l-5.31-18.2
				c-0.1-0.34-0.46-0.54-0.8-0.44L142.2,10c-0.34,0.1-0.54,0.46-0.44,0.8l2.58,8.83l-0.72,0.21l-2.58-8.83
				c-0.21-0.74,0.21-1.51,0.95-1.73l27.8-8.1c0.74-0.21,1.51,0.21,1.73,0.95l5.31,18.2c0.21,0.74-0.21,1.51-0.95,1.73L155.67,27.95z
				"/>
			
				<rect x="141.19" y="7.62" transform="matrix(0.9601 -0.2797 0.2797 0.9601 4.0185 44.1453)" fill="#989FA1" width="30.99" height="0.75"/>
			
				<rect x="142.45" y="11.94" transform="matrix(0.9601 -0.2797 0.2797 0.9601 2.8606 44.6699)" fill="#989FA1" width="30.99" height="0.75"/>
			
				<rect x="156.34" y="22.45" transform="matrix(0.9601 -0.2797 0.2797 0.9601 0.0485 45.9926)" fill="#989FA1" width="9.69" height="0.75"/>
			<path fill="#989FA1" d="M149.16,30.93c-1,0-1.98-0.25-2.88-0.74c-1.41-0.77-2.43-2.05-2.88-3.59c-0.93-3.18,0.91-6.53,4.09-7.46
				c3.19-0.93,6.53,0.91,7.46,4.09v0c0.45,1.54,0.27,3.17-0.5,4.58c-0.77,1.41-2.05,2.43-3.59,2.88
				C150.29,30.85,149.72,30.93,149.16,30.93z M149.16,19.65c-0.49,0-0.98,0.07-1.47,0.21c-2.79,0.81-4.39,3.74-3.58,6.53
				c0.39,1.35,1.29,2.47,2.52,3.14c1.23,0.68,2.66,0.83,4.01,0.44c1.35-0.39,2.47-1.29,3.14-2.52c0.68-1.23,0.83-2.66,0.44-4.01
				C153.55,21.14,151.44,19.65,149.16,19.65z"/>
			<polygon fill="#989FA1" points="149.18,27.71 146.56,25.97 146.98,25.34 148.84,26.58 150.56,22.51 151.25,22.8 			"/>
		</g>
		<path fill="#989FA1" d="M201.91,109.79h-88.8V45.63h88.8V109.79z M113.86,109.04h87.3V46.38h-87.3V109.04z"/>
		
			<rect x="129.87" y="37.75" transform="matrix(-1.836970e-16 1 -1 -1.836970e-16 235.2236 -79.7957)" fill="#ECEFEF" width="55.29" height="79.93"/>
		<g>
			<rect x="146.78" y="68.12" fill="#FFFFFF" width="46.37" height="32.06"/>
			<path fill="#989FA1" d="M193.52,100.55h-47.12V67.74h47.12V100.55z M147.16,99.8h45.62V68.49h-45.62V99.8z"/>
		</g>
		<g>
			<rect x="121.56" y="78.85" fill="#FFFFFF" width="19.76" height="30.53"/>
			<path fill="#989FA1" d="M141.7,109.75h-20.51V78.47h20.51V109.75z M121.94,109h19.01V79.22h-19.01V109z"/>
		</g>
		<path fill="#EEE679" d="M116.06,61.73c4.68,0,8.47-3.98,8.47-8.89c0,4.91,3.79,8.89,8.47,8.89s8.47-3.98,8.47-8.89
			c0,4.91,3.79,8.89,8.47,8.89c4.68,0,8.47-3.98,8.47-8.89c0,4.91,3.79,8.89,8.47,8.89c4.68,0,8.47-3.98,8.47-8.89
			c0,4.91,3.79,8.89,8.47,8.89s8.47-3.98,8.47-8.89c0,4.91,1.67,8.89,6.35,8.89s8.47-3.1,8.47-8.01V51.5l-9.37-16.44h-78.46
			L107.59,51.5v2.22C107.59,58.64,112.55,61.73,116.06,61.73z"/>
		<g>
			<g>
				<path fill="#989FA1" d="M222.22,137.18l-6.25-3.14l0.15-0.33c0.71-1.56,0.07-3.4-1.47-4.17c-1.55-0.78-3.4-0.2-4.24,1.3
					l-0.17,0.32l-4.27-2.15l7.67-15.25l16.24,8.18L222.22,137.18z M216.94,133.69l4.95,2.49l6.99-13.9l-14.9-7.5l-7,13.91l2.97,1.5
					c1.1-1.63,3.24-2.21,5.03-1.31C216.78,129.78,217.59,131.84,216.94,133.69z"/>
				
					<rect x="209.03" y="118.67" transform="matrix(0.893 0.45 -0.45 0.893 77.4344 -81.3606)" fill="#FFFFFF" width="1.67" height="7.07"/>
				<path fill="#989FA1" d="M231.81,142l-2.29-1.15l0.15-0.33c0.7-1.56,0.06-3.39-1.47-4.16c-1.54-0.77-3.4-0.2-4.23,1.29
					l-0.17,0.31l-2.25-1.13l5.69-11.32l5.28,2.65l1.33,4.98l1.32,2.16L231.81,142z M230.49,140.5l0.99,0.5l2.84-5.64l-1.17-1.95
					l-1.26-4.71l-4.31-2.17l-5.02,9.98l0.95,0.48c1.1-1.62,3.24-2.19,5.02-1.3C230.32,136.6,231.13,138.65,230.49,140.5z"/>
				<path fill="#989FA1" d="M213.21,134.86c-0.38,0-0.76-0.09-1.11-0.26c-0.59-0.29-1.03-0.8-1.23-1.43
					c-0.21-0.62-0.16-1.29,0.14-1.88l0.06-0.11c0.65-1.14,2.07-1.58,3.25-0.99c1.18,0.6,1.68,2,1.15,3.2
					c-0.02,0.04-0.03,0.08-0.06,0.12c-0.3,0.59-0.8,1.02-1.43,1.23C213.73,134.82,213.47,134.86,213.21,134.86z M213.21,130.68
					c-0.6,0-1.18,0.31-1.49,0.87c-0.25,0.49-0.28,0.95-0.14,1.39c0.14,0.43,0.45,0.79,0.86,0.99c0.41,0.21,0.88,0.24,1.31,0.1
					c0.43-0.14,0.79-0.45,0.99-0.86l0.04-0.08c0.37-0.84,0.02-1.81-0.79-2.22C213.74,130.74,213.47,130.68,213.21,130.68z"/>
				<path fill="#989FA1" d="M226.76,141.68c-0.38,0-0.76-0.09-1.11-0.26c-0.59-0.29-1.03-0.8-1.23-1.43
					c-0.21-0.62-0.16-1.29,0.14-1.88l0.06-0.11c0.65-1.14,2.08-1.57,3.24-0.98c1.17,0.59,1.68,1.99,1.16,3.18l-0.06,0.13
					c-0.3,0.59-0.8,1.03-1.43,1.23C227.28,141.64,227.02,141.68,226.76,141.68z M226.76,137.5c-0.6,0-1.17,0.31-1.49,0.86
					l-0.05,0.09c-0.2,0.41-0.24,0.87-0.09,1.31c0.14,0.43,0.45,0.79,0.86,0.99c0.41,0.21,0.87,0.24,1.31,0.1
					c0.43-0.14,0.79-0.45,0.99-0.86l0.04-0.09c0.36-0.83,0.01-1.8-0.8-2.21C227.28,137.56,227.02,137.5,226.76,137.5z"/>
				
					<rect x="208.73" y="114.66" transform="matrix(0.45 -0.893 0.893 0.45 8.6596 252.2464)" fill="#989FA1" width="0.75" height="8.87"/>
				
					<rect x="206.53" y="119.02" transform="matrix(0.45 -0.893 0.893 0.45 3.5493 252.6837)" fill="#989FA1" width="0.75" height="8.87"/>
				
					<rect x="209.04" y="117.55" transform="matrix(0.4499 -0.8931 0.8931 0.4499 6.2496 254.1261)" fill="#989FA1" width="0.75" height="8.87"/>
			</g>
			<g>
				<circle fill="#FFFFFF" cx="214.07" cy="113.77" r="4.23"/>
				<path fill="#989FA1" d="M214.07,118.37c-0.71,0-1.41-0.17-2.06-0.49c-2.27-1.14-3.19-3.91-2.05-6.18c0.55-1.1,1.5-1.92,2.67-2.3
					c1.17-0.39,2.42-0.29,3.51,0.26c2.27,1.14,3.19,3.91,2.05,6.18c-0.55,1.1-1.5,1.92-2.67,2.3
					C215.04,118.29,214.55,118.37,214.07,118.37z M214.07,109.91c-0.41,0-0.82,0.07-1.21,0.2c-0.98,0.32-1.77,1.01-2.23,1.93
					c-0.95,1.9-0.19,4.22,1.71,5.17c1.9,0.95,4.22,0.19,5.17-1.71c0.46-0.92,0.54-1.96,0.21-2.94c-0.32-0.98-1.01-1.77-1.93-2.23
					C215.26,110.05,214.67,109.91,214.07,109.91z"/>
			</g>
			<polygon fill="#989FA1" points="214.24,114.27 212.01,113.15 212.35,112.48 213.91,113.26 214.69,111.71 215.36,112.05 			"/>
		</g>
		<g>
			<g>
				<path fill="#989FA1" d="M216.52,23.91l-6.58-8.72l9.27-7l6.58,8.71l-3.7,2.8l-0.23-0.28c-0.63-0.77-1.75-0.9-2.54-0.3
					c-0.8,0.61-0.97,1.72-0.41,2.54l0.21,0.3L216.52,23.91z M210.99,15.34l5.68,7.52l1.45-1.09c-0.56-1.11-0.27-2.47,0.75-3.25
					c1.03-0.77,2.42-0.68,3.33,0.16l2.55-1.92l-5.68-7.51L210.99,15.34z"/>
				
					<rect x="213.3" y="17.46" transform="matrix(0.7983 -0.6022 0.6022 0.7983 31.2782 132.7261)" fill="#FFFFFF" width="1.04" height="4.41"/>
				<path fill="#989FA1" d="M225.2,17.36l-4.93-6.53l3.1-2.34l3.19,0.63l1.63-0.15l2.95,3.9L229.64,14l-0.23-0.28
					c-0.63-0.76-1.75-0.9-2.54-0.3c-0.8,0.6-0.97,1.71-0.41,2.53l0.2,0.29L225.2,17.36z M221.32,10.98l4.03,5.33l0.32-0.24
					c-0.56-1.1-0.26-2.47,0.75-3.24c1.02-0.77,2.42-0.68,3.33,0.15l0.34-0.26l-2.24-2.97l-1.32,0.12l-2.97-0.59L221.32,10.98z"/>
				<path fill="#989FA1" d="M220.44,21.81c-0.06,0-0.11,0-0.17-0.01c-0.32-0.04-0.6-0.21-0.8-0.47c-0.4-0.58-0.28-1.31,0.23-1.69
					c0.52-0.39,1.24-0.31,1.66,0.19l0.04,0.05c0.4,0.53,0.3,1.29-0.24,1.7C220.95,21.72,220.7,21.81,220.44,21.81z M220.44,20.13
					c-0.1,0-0.19,0.03-0.28,0.09c-0.2,0.15-0.24,0.42-0.1,0.63c0.09,0.12,0.2,0.18,0.32,0.2c0.12,0.02,0.24-0.02,0.34-0.09
					c0.2-0.15,0.24-0.44,0.09-0.65l0,0l0.3-0.22l-0.32,0.21C220.7,20.19,220.57,20.13,220.44,20.13z"/>
				<path fill="#989FA1" d="M227.99,16.11c-0.06,0-0.11,0-0.17-0.01c-0.32-0.04-0.6-0.21-0.8-0.47c-0.4-0.59-0.28-1.31,0.24-1.69
					c0.51-0.39,1.24-0.31,1.65,0.18l0.04,0.05c0.4,0.53,0.3,1.29-0.24,1.7C228.5,16.03,228.25,16.11,227.99,16.11z M227.99,14.44
					c-0.1,0-0.19,0.03-0.28,0.09c-0.2,0.15-0.24,0.42-0.11,0.62c0.09,0.12,0.2,0.18,0.32,0.2c0.12,0.02,0.24-0.02,0.34-0.09
					c0.2-0.15,0.24-0.44,0.09-0.65l0.3-0.23l-0.32,0.2C228.25,14.49,228.12,14.44,227.99,14.44z"/>
				<polygon fill="#989FA1" points="209.88,21.19 209.43,20.59 213.85,17.26 214.3,17.86 				"/>
				
					<rect x="210.94" y="21.29" transform="matrix(0.7984 -0.6021 0.6021 0.7984 30.0332 133.0318)" fill="#989FA1" width="5.53" height="0.75"/>
				<polygon fill="#989FA1" points="211.59,21.81 211.14,21.21 215.56,17.88 216.01,18.48 				"/>
			</g>
			<g>
				<circle fill="#FFFFFF" cx="210.26" cy="14.98" r="2.64"/>
				<path fill="#989FA1" d="M210.26,17.99c-0.91,0-1.81-0.41-2.41-1.19c-0.48-0.64-0.69-1.43-0.58-2.23c0.11-0.8,0.52-1.5,1.17-1.99
					c0.64-0.49,1.43-0.69,2.23-0.58c0.8,0.11,1.5,0.53,1.99,1.17c0.48,0.64,0.69,1.43,0.58,2.23c-0.11,0.8-0.52,1.5-1.17,1.99
					C211.53,17.79,210.89,17.99,210.26,17.99z M210.25,12.72c-0.49,0-0.96,0.16-1.36,0.46c-0.48,0.36-0.79,0.89-0.88,1.49
					c-0.08,0.6,0.07,1.19,0.44,1.67c0.75,1,2.17,1.19,3.17,0.44c0.48-0.36,0.79-0.89,0.88-1.49c0.08-0.6-0.07-1.19-0.44-1.67
					c-0.36-0.48-0.89-0.79-1.49-0.88C210.46,12.73,210.36,12.72,210.25,12.72z"/>
			</g>
			<polygon fill="#989FA1" points="209.43,16.08 208.98,15.48 209.73,14.91 209.16,14.16 209.76,13.7 210.78,15.05 			"/>
		</g>
		<g>
			<g>
				<path fill="#989FA1" d="M78.31,113.48l-5.27-9.57l10.18-5.61l5.27,9.56l-4.06,2.24l-0.19-0.31c-0.51-0.85-1.6-1.14-2.47-0.67
					c-0.88,0.49-1.21,1.56-0.76,2.45l0.16,0.32L78.31,113.48z M74.06,104.21l4.55,8.25l1.59-0.88c-0.4-1.17,0.09-2.49,1.21-3.11
					c1.13-0.62,2.5-0.33,3.28,0.63l2.79-1.54l-4.55-8.25L74.06,104.21z"/>
				
					<rect x="75.72" y="106.68" transform="matrix(0.8762 -0.482 0.482 0.8762 -43.0403 50.23)" fill="#FFFFFF" width="1.04" height="4.41"/>
				<path fill="#989FA1" d="M87.83,108.23l-3.95-7.16l3.41-1.88l3.07,1.08l1.63,0.09l2.36,4.28l-1.64,0.9l-0.19-0.31
					c-0.51-0.85-1.6-1.13-2.47-0.66c-0.87,0.48-1.21,1.56-0.77,2.44l0.16,0.32L87.83,108.23z M84.9,101.36l3.23,5.85l0.35-0.19
					c-0.39-1.17,0.09-2.48,1.21-3.1c1.12-0.61,2.49-0.33,3.27,0.63l0.37-0.21l-1.8-3.26L90.16,101l-2.81-0.99L84.9,101.36z"/>
				<path fill="#989FA1" d="M82.66,112.17c-0.13,0-0.27-0.02-0.4-0.06c-0.36-0.1-0.67-0.35-0.85-0.68c-0.36-0.74-0.1-1.56,0.56-1.93
					c0.67-0.36,1.5-0.15,1.89,0.49l0.04,0.06c0.18,0.33,0.23,0.72,0.12,1.08s-0.35,0.67-0.68,0.85
					C83.13,112.11,82.9,112.17,82.66,112.17z M82.66,110.08c-0.11,0-0.22,0.03-0.32,0.08c-0.31,0.17-0.44,0.56-0.28,0.88
					c0.1,0.19,0.24,0.3,0.42,0.35c0.17,0.05,0.35,0.03,0.51-0.06c0.16-0.09,0.27-0.23,0.32-0.4c0.05-0.17,0.03-0.35-0.06-0.51
					l0.33-0.18l-0.35,0.15C83.1,110.2,82.88,110.08,82.66,110.08z"/>
				<path fill="#989FA1" d="M90.95,107.62c-0.13,0-0.27-0.02-0.4-0.06c-0.36-0.1-0.67-0.35-0.85-0.68c-0.36-0.75-0.1-1.56,0.56-1.93
					c0.66-0.36,1.49-0.15,1.89,0.49l0.04,0.07c0.18,0.33,0.23,0.72,0.12,1.08c-0.11,0.36-0.35,0.67-0.68,0.85
					C91.42,107.56,91.18,107.62,90.95,107.62z M90.94,105.53c-0.11,0-0.22,0.03-0.32,0.08c-0.31,0.17-0.43,0.56-0.28,0.88
					c0.1,0.19,0.25,0.31,0.42,0.36c0.17,0.05,0.35,0.03,0.51-0.06c0.16-0.09,0.27-0.23,0.32-0.4c0.05-0.17,0.03-0.35-0.06-0.51
					l0-0.01l0.33-0.17l-0.35,0.15C91.39,105.64,91.17,105.53,90.94,105.53z"/>
				
					<rect x="71.61" y="107.8" transform="matrix(0.876 -0.4823 0.4823 0.876 -42.9524 49.2857)" fill="#989FA1" width="5.53" height="0.75"/>
				
					<rect x="73.08" y="110.47" transform="matrix(0.876 -0.4823 0.4823 0.876 -44.0585 50.3256)" fill="#989FA1" width="5.53" height="0.75"/>
				
					<rect x="73.21" y="108.66" transform="matrix(0.876 -0.4823 0.4823 0.876 -43.1685 50.1641)" fill="#989FA1" width="5.53" height="0.75"/>
			</g>
			<g>
				<circle fill="#FFFFFF" cx="73.39" cy="103.74" r="2.64"/>
				<path fill="#989FA1" d="M73.39,106.75c-1.06,0-2.09-0.56-2.64-1.55c-0.39-0.7-0.48-1.52-0.26-2.29c0.22-0.77,0.73-1.41,1.44-1.8
					c0.7-0.39,1.52-0.48,2.29-0.26c0.77,0.22,1.41,0.73,1.8,1.44c0.39,0.7,0.48,1.52,0.26,2.29s-0.73,1.41-1.44,1.8
					C74.38,106.63,73.88,106.75,73.39,106.75z M73.38,101.48c-0.38,0-0.75,0.1-1.09,0.28c-0.53,0.29-0.91,0.77-1.08,1.35
					c-0.17,0.58-0.1,1.19,0.19,1.72c0.6,1.09,1.98,1.49,3.07,0.89c1.09-0.6,1.49-1.98,0.89-3.07h0c-0.29-0.53-0.77-0.91-1.35-1.08
					C73.81,101.51,73.59,101.48,73.38,101.48z"/>
			</g>
			<polygon fill="#989FA1" points="72.41,104.71 72.05,104.05 72.88,103.6 72.42,102.77 73.08,102.41 73.89,103.89 			"/>
		</g>
	</g>
</g>
<g id="Layer_2">
</g>
<g id="Layer_3">
</g>
<g id="Layer_4">
</g>
<g id="Layer_5">
</g>
<g id="Layer_6">
</g>
</svg>
