<?xml version="1.0" encoding="utf-8"?>
<!-- Generator: Adobe Illustrator 22.0.1, SVG Export Plug-In . SVG Version: 6.00 Build 0)  -->
<svg version="1.1" id="Layer_1" xmlns="http://www.w3.org/2000/svg" xmlns:xlink="http://www.w3.org/1999/xlink" x="0px" y="0px"
	 width="300px" height="147.7px" viewBox="0 0 300 147.7" style="enable-background:new 0 0 300 147.7;" xml:space="preserve">
<style type="text/css">
	.st0{fill:#989FA1;}
	.st1{fill:#FFFFFF;}
	.st2{fill:#ECEFEF;}
	.st3{fill:#EEE679;}
</style>
<g id="Layer_1_1_">
	<g>
		<g>
			<path class="st0" d="M229,123.7H54.6c-3.6,0-6.6-3-6.6-6.6V7.3c0-3.6,3-6.6,6.6-6.6H229c3.6,0,6.6,3,6.6,6.6v109.8
				C235.6,120.7,232.7,123.7,229,123.7z M54.6,1.5c-3.2,0-5.8,2.6-5.8,5.8v109.8c0,3.2,2.6,5.8,5.8,5.8H229c3.2,0,5.8-2.6,5.8-5.8
				V7.3c0-3.2-2.6-5.8-5.8-5.8H54.6z"/>
		</g>
		<g>
			<rect x="48.3" y="28.2" class="st1" width="186.9" height="35.2"/>
			<path class="st0" d="M235.6,63.8H48V27.8h187.6L235.6,63.8L235.6,63.8z M48.7,63h186.1V28.6H48.7V63z"/>
		</g>
		<rect x="52.5" y="32.3" class="st2" width="178.6" height="26.9"/>
		<g>
			<rect x="75" y="1.1" class="st1" width="35.2" height="122.1"/>
			<path class="st0" d="M110.6,123.6h-36V0.8h36V123.6z M75.3,122.8h34.5V1.5H75.3V122.8z"/>
		</g>
		<rect x="79.1" y="5.3" class="st2" width="26.9" height="113.8"/>
		<g>
			<path class="st3" d="M249,96.2l-16.9-9.8c-1.5-0.8-3.9-0.8-5.4,0l-16.9,9.8c-1.5,0.9-2.7,2.9-2.7,4.7v19.5c0,1.7,1.2,3.8,2.7,4.7
				l16.9,9.8c1.5,0.9,3.9,0.9,5.4,0L249,125c1.5-0.8,2.7-2.9,2.7-4.7v-19.5C251.7,99.1,250.5,97,249,96.2z M244.4,106.7h-1.8v-3
				c0-2.3-1.8-3-5.1-3h-0.2c-8.1,0-7.4-3-7.6-4.2h-0.1c-0.2,1.1,0.5,4.2-7.6,4.2h-0.2c-3.4,0-5.1,0.7-5.1,3v2.3l27.7,8v0.4h0v2.9
				c0,3.3-1.6,5.1-6.9,5.1h-0.3c-4.1,0-6.7,0.9-6.7,4.2h-1.8c0-3.3-2.6-4.2-6.7-4.2h-0.3c-5.3,0-6.9-1.8-6.9-5.1v-2.9h1.8v3
				c0,2.3,1.8,3,5.1,3h0.2c8.1,0,7.4,3,7.6,4.2h0.1c0.2-1.1-0.5-4.2,7.6-4.2h0.2c3.4,0,5.1-0.7,5.1-3v-1.7l-27.7-8v-3.9
				c0-3.3,1.6-5.1,6.9-5.1h0.3c4.1,0,6.7-0.9,6.7-4.2h1.8c0,3.3,2.6,4.2,6.7,4.2h0.3c5.3,0,6.9,1.8,6.9,5.1L244.4,106.7L244.4,106.7
				z"/>
			<path class="st1" d="M242.7,106.7v-3c0-2.3-1.8-3-5.1-3h-0.2c-8.1,0-7.4-3-7.6-4.2h-0.1c-0.2,1.1,0.5,4.2-7.6,4.2h-0.2
				c-3.4,0-5.1,0.7-5.1,3v2.3l27.7,8v0.4h0v2.9c0,3.3-1.6,5.1-6.9,5.1h-0.3c-4.1,0-6.7,0.9-6.7,4.2h-1.8c0-3.3-2.6-4.2-6.7-4.2h-0.3
				c-5.3,0-6.9-1.8-6.9-5.1v-2.9h1.8v3c0,2.3,1.8,3,5.1,3h0.2c8.1,0,7.4,3,7.6,4.2h0.1c0.2-1.1-0.5-4.2,7.6-4.2h0.2
				c3.4,0,5.1-0.7,5.1-3v-1.7l-27.7-8v-3.9c0-3.3,1.6-5.1,6.9-5.1h0.3c4.1,0,6.7-0.9,6.7-4.2h1.8c0,3.3,2.6,4.2,6.7,4.2h0.3
				c5.3,0,6.9,1.8,6.9,5.1v2.9L242.7,106.7L242.7,106.7z"/>
		</g>
		<g>
			<polygon class="st1" points="117.7,146.2 92.9,128.4 67,146.2 67,51 117.7,51 			"/>
			<path class="st0" d="M118.1,147l-25.2-18.1l-26.3,18V50.6h51.5C118.1,50.6,118.1,147,118.1,147z M67.4,51.3v94.2L92.9,128
				l0.2,0.1l24.3,17.4V51.3H67.4z"/>
		</g>
		<polygon class="st2" points="71.1,55.1 113.6,55.1 113.6,138.2 92.9,123.4 71.1,138.4 		"/>
		<g>
			<g>
				<polygon class="st1" points="131,45.4 127,48.6 130.4,52.5 125.9,54.9 128.4,59.4 123.6,60.9 125.3,65.7 120.2,66.3 121,71.4 
					115.9,71.1 115.7,76.2 110.8,74.9 109.7,79.9 105.1,77.8 103.1,82.5 98.9,79.5 96.1,83.8 92.5,80.1 89,83.8 86.2,79.5 82,82.5 
					80,77.8 75.3,79.9 74.3,74.9 69.3,76.2 69.2,71.1 64.1,71.4 64.9,66.3 59.8,65.7 61.5,60.9 56.6,59.4 59.2,54.9 54.7,52.5 
					58,48.6 54,45.4 58,42.2 54.7,38.4 59.2,36 56.6,31.5 61.5,30 59.8,25.2 64.9,24.5 64.1,19.5 69.2,19.8 69.3,14.7 74.3,16 
					75.3,10.9 80,13.1 82,8.4 86.2,11.4 89,7.1 92.5,10.8 96.1,7.1 98.9,11.4 103.1,8.4 105.1,13.1 109.7,10.9 110.8,16 115.7,14.7 
					115.9,19.8 121,19.5 120.2,24.5 125.3,25.2 123.6,30 128.4,31.5 125.9,36 130.4,38.4 127,42.2 				"/>
			</g>
			<path class="st0" d="M88.9,84.4L86.1,80l-4.2,3l-2-4.8l-4.7,2.2L74,75.4l-5.1,1.3l-0.1-5.2l-5.2,0.3l0.8-5.1L59.3,66l1.8-4.9
				l-5-1.5l2.6-4.5l-4.6-2.5l3.4-3.9l-4.1-3.2l4.1-3.2l-3.4-3.9l4.6-2.5L56,31.3l5-1.6l-1.8-4.9l5.2-0.6l-0.8-5.1l5.2,0.3l0.1-5.2
				l5.1,1.3l1.1-5.1l4.7,2.2l2-4.8l4.2,3l2.9-4.3l3.6,3.8l3.6-3.8l2.9,4.3l4.2-3l2,4.8l4.7-2.2l1.1,5.1l5.1-1.3l0.1,5.2l5.2-0.3
				l-0.8,5.1l5.2,0.6l-1.8,4.9l5,1.6l-2.6,4.5l4.6,2.5l-3.4,3.9l4.1,3.2l-4.1,3.2l3.4,3.9l-4.6,2.5l2.6,4.5l-5,1.6l1.8,4.9l-5.2,0.6
				l0.8,5.1l-5.2-0.3l-0.1,5.2l-5-1.3l-1.1,5.1l-4.7-2.2l-2,4.8L99,80l-2.9,4.3l-3.6-3.8L88.9,84.4z M92.5,79.6l3.5,3.6l2.8-4.2
				l4.1,2.9l1.9-4.7l4.6,2.1l1.1-4.9l4.9,1.2l0.1-5.1l5,0.3l-0.8-5l5-0.6l-1.7-4.8l4.8-1.5l-2.5-4.4l4.5-2.4l-3.3-3.8l3.9-3.2
				l-3.9-3.2l3.3-3.8l-4.5-2.4l2.5-4.4l-4.8-1.5l1.7-4.8l-5-0.6l0.8-5l-5,0.3l-0.1-5.1l-4.9,1.2l-1.1-4.9l-4.6,2.1l-1.9-4.7
				l-4.1,2.9L96,7.7l-3.5,3.6L89,7.7l-2.8,4.2L82.1,9l-1.9,4.7l-4.6-2.1l-1.1,4.9l-4.9-1.2l-0.1,5.1l-5-0.3l0.8,5l-5,0.6l1.7,4.8
				l-4.8,1.5l2.5,4.4l-4.5,2.4l3.3,3.8l-3.9,3.2l3.9,3.2l-3.3,3.8l4.5,2.4l-2.5,4.4l4.8,1.5l-1.7,4.8l5,0.6l-0.8,5l5-0.3l0.1,5.1
				l4.9-1.2l1.1,4.9l4.6-2.1l1.9,4.7l4.1-2.9l2.8,4.2L92.5,79.6z"/>
		</g>
		<g>
			<polygon class="st2" points="92.5,78.8 89.8,74.8 86.4,78.2 84.5,73.8 80.5,76.5 79.4,71.8 75,73.8 74.8,69 70.1,70.1 70.8,65.3 
				65.9,65.5 67.5,61 62.7,60.3 65,56.1 60.5,54.6 63.5,50.9 59.3,48.5 63,45.4 59.3,42.4 63.5,40 60.5,36.3 65,34.8 62.7,30.6 
				67.5,29.9 65.9,25.4 70.8,25.6 70.1,20.8 74.8,21.9 75,17.1 79.4,19 80.5,14.4 84.5,17.1 86.4,12.7 89.8,16.1 92.5,12.1 
				95.2,16.1 98.7,12.7 100.6,17.1 104.6,14.4 105.7,19 110.1,17.1 110.3,21.9 115,20.8 114.3,25.6 119.1,25.4 117.6,29.9 
				122.4,30.6 120,34.8 124.6,36.3 121.5,40 125.7,42.4 122,45.4 125.7,48.5 121.5,50.9 124.6,54.6 120,56.1 122.4,60.3 117.6,61 
				119.1,65.5 114.3,65.3 115,70.1 110.3,69 110.1,73.8 105.7,71.8 104.6,76.5 100.6,73.8 98.7,78.2 95.2,74.8 			"/>
		</g>
		<g>
			<path class="st0" d="M75.4,35.4c0-3.3,2.4-5.5,5.4-5.5c1.9,0,3.2,0.8,4.1,2l-1,0.7c-0.7-0.9-1.8-1.5-3.1-1.5
				c-2.3,0-4.1,1.8-4.1,4.3c0,2.5,1.8,4.3,4.1,4.3c1.3,0,2.3-0.6,2.8-1.1v-2.1h-3.6v-1.2H85v3.8c-1,1.1-2.4,1.8-4.2,1.8
				C77.8,40.9,75.4,38.7,75.4,35.4z"/>
			<path class="st0" d="M87.9,40.7V30.1h1.3v10.6L87.9,40.7L87.9,40.7z"/>
			<path class="st0" d="M92.5,40.7V30.1h6.9v1.2h-5.6v3.4h5.5v1.2h-5.5v4.8L92.5,40.7L92.5,40.7z"/>
			<path class="st0" d="M104.6,40.7v-9.4h-3.3v-1.2h8v1.2h-3.3v9.4H104.6z"/>
			<path class="st0" d="M70.9,54.4c0-3.2,2.4-5.5,5.4-5.5c1.9,0,3.2,0.9,4,2.1l-1.1,0.6c-0.6-0.9-1.7-1.5-2.9-1.5
				c-2.3,0-4.1,1.8-4.1,4.3c0,2.5,1.8,4.3,4.1,4.3c1.2,0,2.3-0.7,2.9-1.5l1.1,0.6c-0.9,1.2-2.2,2.1-4,2.1
				C73.3,59.9,70.9,57.7,70.9,54.4z"/>
			<path class="st0" d="M90.3,59.7l-0.9-2.4h-5.2l-0.9,2.4h-1.5L86,49.1h1.6l4.2,10.5H90.3z M86.8,50.5l-2.2,5.7H89L86.8,50.5z"/>
			<path class="st0" d="M100.1,59.7l-2.7-4.2h-2.1v4.2H94V49.1h4.2c1.9,0,3.3,1.2,3.3,3.2c0,1.9-1.3,2.9-2.8,3.1l2.8,4.3L100.1,59.7
				L100.1,59.7z M100.2,52.3c0-1.2-0.9-2-2.1-2h-2.8v4h2.8C99.3,54.3,100.2,53.5,100.2,52.3z"/>
			<path class="st0" d="M104.4,59.7V49.1h3.6c3.3,0,5.4,2.3,5.4,5.3c0,3-2.1,5.3-5.4,5.3C108,59.7,104.4,59.7,104.4,59.7z
				 M112.1,54.4c0-2.3-1.4-4.1-4.1-4.1h-2.3v8.2h2.3C110.6,58.5,112.1,56.7,112.1,54.4z"/>
		</g>
	</g>
</g>
<g id="Layer_2_1_">
</g>
<g id="Layer_3">
</g>
<g id="Layer_4">
</g>
<g id="Layer_5">
</g>
<g id="Layer_6">
</g>
</svg>
