<?xml version="1.0" encoding="utf-8"?>
<!-- Generator: Adobe Illustrator 22.0.1, SVG Export Plug-In . SVG Version: 6.00 Build 0)  -->
<svg version="1.1" xmlns="http://www.w3.org/2000/svg" xmlns:xlink="http://www.w3.org/1999/xlink" x="0px" y="0px" width="300px"
	 height="151.67px" viewBox="0 0 300 151.67" enable-background="new 0 0 300 151.67" xml:space="preserve">
<g id="Layer_1">
	<g>
		<g>
			<path fill="#989FA1" d="M156.28,44.8h-12.55V34.69h12.55V44.8z M144.48,44.05h11.05v-8.62h-11.05V44.05z"/>
			<path fill="#989FA1" d="M165.47,35.44h-30.93V25.32h30.93V35.44z M135.29,34.69h29.43v-8.62h-29.43V34.69z"/>
			<g>
				<circle fill="#FFFFFF" cx="150" cy="80.38" r="38.51"/>
				<path fill="#989FA1" d="M150,119.26c-21.44,0-38.88-17.44-38.88-38.88S128.56,41.5,150,41.5s38.88,17.44,38.88,38.88
					S171.44,119.26,150,119.26z M150,42.25c-21.03,0-38.13,17.11-38.13,38.13s17.11,38.13,38.13,38.13s38.13-17.11,38.13-38.13
					S171.03,42.25,150,42.25z"/>
			</g>
			<circle fill="#ECEFEF" cx="149.99" cy="80.39" r="32.79"/>
			<polygon fill="#989FA1" points="125.16,94.14 124.81,93.48 149.63,80.15 149.63,51.37 150.38,51.37 150.38,80.6 150.18,80.71 			
				"/>
			<g>
				<circle fill="#ECEFEF" cx="149.99" cy="80.39" r="4.06"/>
				<path fill="#989FA1" d="M149.99,84.82c-2.45,0-4.44-1.99-4.44-4.44s1.99-4.44,4.44-4.44c2.45,0,4.44,1.99,4.44,4.44
					S152.44,84.82,149.99,84.82z M149.99,76.7c-2.03,0-3.69,1.65-3.69,3.69s1.65,3.69,3.69,3.69c2.03,0,3.69-1.65,3.69-3.69
					S152.03,76.7,149.99,76.7z"/>
			</g>
		</g>
		<path fill="#989FA1" d="M75.76,68.42l-0.75-0.07c2.63-26.16,18.28-48.67,41.87-60.21c37.29-18.25,82.5-2.76,100.78,34.52
			l-0.67,0.33c-18.1-36.91-62.86-52.24-99.78-34.18C93.86,20.24,78.36,42.53,75.76,68.42z"/>
		<path fill="#989FA1" d="M150.13,151.18c-27.88,0-54.72-15.51-67.8-42.18l0.67-0.33c18.1,36.91,62.86,52.24,99.78,34.18
			c23.35-11.43,38.85-33.71,41.46-59.61l0.75,0.07c-2.63,26.16-18.28,48.67-41.87,60.21C172.5,148.72,161.23,151.18,150.13,151.18z"
			/>
		<polygon fill="#989FA1" points="217.53,43.38 207.82,39.96 208.07,39.25 217.07,42.43 220.25,33.42 220.96,33.67 		"/>
		<polygon fill="#989FA1" points="79.75,118.24 79.04,117.99 82.47,108.28 92.18,111.71 91.93,112.41 82.93,109.23 		"/>
	</g>
</g>
<g id="Layer_2">
</g>
<g id="Layer_3">
</g>
<g id="Layer_4">
</g>
<g id="Layer_5">
</g>
<g id="Layer_6">
</g>
</svg>
