<?xml version="1.0" encoding="utf-8"?>
<!-- Generator: Adobe Illustrator 22.0.1, SVG Export Plug-In . SVG Version: 6.00 Build 0)  -->
<svg version="1.1" xmlns="http://www.w3.org/2000/svg" xmlns:xlink="http://www.w3.org/1999/xlink" x="0px" y="0px" width="300px"
	 height="81px" viewBox="0 0 300 81" enable-background="new 0 0 300 81" xml:space="preserve">
<g id="Layer_1">
	<g>
		<g>
			<circle fill="#ECEFEF" cx="260.47" cy="38.94" r="32.19"/>
			<path fill="#989FA1" d="M260.47,76.85c-20.9,0-37.9-17-37.9-37.9c0-20.9,17-37.9,37.9-37.9c20.9,0,37.9,17,37.9,37.9
				C298.38,59.84,281.37,76.85,260.47,76.85z M260.47,1.79c-20.49,0-37.15,16.67-37.15,37.15c0,20.49,16.67,37.15,37.15,37.15
				s37.15-16.67,37.15-37.15C297.62,18.46,280.96,1.79,260.47,1.79z"/>
		</g>
		<g>
			<g>
				<path fill="#989FA1" d="M247.86,39.75c0-2.42,1.8-4.06,4.12-4.06c1.58,0,2.56,0.81,3.14,1.75l-1.16,0.61
					c-0.38-0.66-1.14-1.14-1.98-1.14c-1.55,0-2.71,1.18-2.71,2.83c0,1.64,1.15,2.84,2.71,2.84c0.84,0,1.6-0.49,1.98-1.14l1.18,0.59
					c-0.6,0.94-1.58,1.78-3.15,1.78C249.66,43.81,247.86,42.17,247.86,39.75z"/>
				<path fill="#989FA1" d="M263.59,43.67v-6.06l-2.4,6.06h-0.59l-2.41-6.06v6.06h-1.38v-7.85h1.94l2.14,5.39l2.13-5.39h1.94v7.85
					H263.59z"/>
				<path fill="#989FA1" d="M266.72,42.57l0.78-1.07c0.53,0.58,1.39,1.09,2.48,1.09c1.13,0,1.56-0.55,1.56-1.08
					c0-1.65-4.56-0.62-4.56-3.51c0-1.31,1.13-2.31,2.86-2.31c1.21,0,2.21,0.4,2.93,1.11l-0.78,1.02c-0.62-0.62-1.46-0.91-2.28-0.91
					c-0.8,0-1.32,0.4-1.32,0.98c0,1.47,4.56,0.56,4.56,3.48c0,1.31-0.93,2.44-3.04,2.44C268.47,43.81,267.42,43.29,266.72,42.57z"/>
			</g>
		</g>
		<path fill="#989FA1" d="M152.69,45.42h-14.55c-2.22,0-4.03-1.81-4.03-4.03v-4.8c0-2.22,1.81-4.03,4.03-4.03h14.55
			c2.22,0,4.03,1.81,4.03,4.03v4.8C156.72,43.61,154.91,45.42,152.69,45.42z M138.14,33.3c-1.81,0-3.28,1.47-3.28,3.28v4.8
			c0,1.81,1.47,3.28,3.28,3.28h14.55c1.81,0,3.28-1.47,3.28-3.28v-4.8c0-1.81-1.47-3.28-3.28-3.28H138.14z"/>
		<path fill="#989FA1" d="M202.63,45.42h-14.55c-2.22,0-4.03-1.81-4.03-4.03v-4.8c0-2.22,1.81-4.03,4.03-4.03h14.55
			c2.22,0,4.03,1.81,4.03,4.03v4.8C206.67,43.61,204.86,45.42,202.63,45.42z M188.09,33.3c-1.81,0-3.28,1.47-3.28,3.28v4.8
			c0,1.81,1.47,3.28,3.28,3.28h14.55c1.81,0,3.28-1.47,3.28-3.28v-4.8c0-1.81-1.47-3.28-3.28-3.28H188.09z"/>
		<g>
			<path fill="#989FA1" d="M164.11,45.42h-3.51c-2.55,0-4.63-2.08-4.63-4.63v-3.61c0-2.55,2.08-4.63,4.63-4.63h3.51v0.75h-3.51
				c-2.14,0-3.88,1.74-3.88,3.88v3.61c0,2.14,1.74,3.88,3.88,3.88h3.51V45.42z"/>
			<path fill="#989FA1" d="M180.18,45.42h-3.51v-0.75h3.51c2.14,0,3.88-1.74,3.88-3.88v-3.61c0-2.14-1.74-3.88-3.88-3.88h-3.51
				v-0.75h3.51c2.55,0,4.63,2.08,4.63,4.63v3.61C184.8,43.34,182.73,45.42,180.18,45.42z"/>
		</g>
		<rect x="170.04" y="24.25" fill="#989FA1" width="0.75" height="4.46"/>
		
			<rect x="172.29" y="27.85" transform="matrix(0.7078 -0.7065 0.7065 0.7078 31.064 131.54)" fill="#989FA1" width="4.46" height="0.75"/>
		
			<rect x="165.94" y="25.99" transform="matrix(0.7071 -0.7071 0.7071 0.7071 28.7619 125.879)" fill="#989FA1" width="0.75" height="4.46"/>
		<rect x="170.04" y="49.26" fill="#989FA1" width="0.75" height="4.46"/>
		
			<rect x="174.15" y="47.51" transform="matrix(0.7071 -0.7071 0.7071 0.7071 15.9459 137.981)" fill="#989FA1" width="0.75" height="4.46"/>
		
			<rect x="164.09" y="49.37" transform="matrix(0.7078 -0.7065 0.7065 0.7078 13.4639 132.0334)" fill="#989FA1" width="4.46" height="0.75"/>
		<g>
			<g>
				<rect id="Screen_6_" x="17.82" y="10.05" fill="#EEE679" width="96.95" height="60.59"/>
				<path fill="#989FA1" d="M115.15,71.01h-97.7V9.67h97.7V71.01z M18.2,70.26h96.2V10.42H18.2V70.26z"/>
				<path fill="#989FA1" d="M114.1,79.96H18.5c-11.26,0-16.45-2.54-16.66-2.65l-0.21-0.1v-1.48h129.34v1.48l-0.21,0.1
					C130.55,77.41,125.36,79.96,114.1,79.96z M2.38,76.73c1.07,0.46,6.29,2.48,16.12,2.48h95.6c9.83,0,15.05-2.01,16.12-2.48v-0.25
					H2.38V76.73z"/>
				<path fill="#989FA1" d="M66.3,8.61c-0.55,0-1-0.45-1-1s0.45-1,1-1s1,0.45,1,1S66.85,8.61,66.3,8.61z M66.3,7.35
					c-0.14,0-0.25,0.11-0.25,0.25c0,0.28,0.51,0.28,0.51,0C66.55,7.46,66.44,7.35,66.3,7.35z"/>
				<path fill="#989FA1" d="M77.4,78.08H55.19c-0.95,0-1.72-0.77-1.72-1.72v-0.63h25.65v0.63C79.12,77.31,78.35,78.08,77.4,78.08z
					 M54.23,76.48c0.06,0.48,0.47,0.85,0.96,0.85H77.4c0.49,0,0.9-0.37,0.96-0.85H54.23z"/>
				<path fill="#989FA1" d="M120.51,76.47H12.02V8.36c0-2.22,1.81-4.03,4.03-4.03h100.43c2.22,0,4.03,1.81,4.03,4.03V76.47z
					 M12.77,75.72h107V8.36c0-1.81-1.47-3.28-3.28-3.28H16.05c-1.81,0-3.28,1.47-3.28,3.28V75.72z"/>
			</g>
		</g>
		<g>
			<path fill="#FFFFFF" stroke="#FFFFFF" stroke-width="0.5" stroke-miterlimit="10" d="M74.61,46.12H57.5l1.89-4.38l-5.11-12.77
				h-3.75c-0.21,0-0.38-0.17-0.38-0.38s0.17-0.38,0.38-0.38h4.26l5.41,13.53l-1.56,3.62h15.97c0.21,0,0.38,0.17,0.38,0.38
				S74.82,46.12,74.61,46.12z"/>
			<path fill="#FFFFFF" stroke="#FFFFFF" stroke-width="0.5" stroke-miterlimit="10" d="M59.55,42.14l-4.22-10.62h23.32l-2.09,9.29
				L59.55,42.14z M56.43,32.27l3.61,9.08l15.9-1.24l1.77-7.83H56.43z"/>
			<path fill="#FFFFFF" stroke="#FFFFFF" stroke-width="0.5" stroke-miterlimit="10" d="M61.75,53.11c-1.56,0-2.83-1.27-2.83-2.83
				s1.27-2.83,2.83-2.83s2.83,1.27,2.83,2.83S63.32,53.11,61.75,53.11z M61.75,48.2c-1.15,0-2.08,0.93-2.08,2.08
				s0.93,2.08,2.08,2.08s2.08-0.93,2.08-2.08S62.9,48.2,61.75,48.2z"/>
			<path fill="#FFFFFF" stroke="#FFFFFF" stroke-width="0.5" stroke-miterlimit="10" d="M71.02,53.11c-1.56,0-2.83-1.27-2.83-2.83
				s1.27-2.83,2.83-2.83s2.83,1.27,2.83,2.83S72.58,53.11,71.02,53.11z M71.02,48.2c-1.15,0-2.08,0.93-2.08,2.08
				s0.93,2.08,2.08,2.08s2.08-0.93,2.08-2.08S72.17,48.2,71.02,48.2z"/>
			
				<rect x="63.82" y="31.98" fill="#FFFFFF" stroke="#FFFFFF" stroke-width="0.5" stroke-miterlimit="10" width="0.75" height="9.38"/>
			
				<rect x="70.92" y="31.89" fill="#FFFFFF" stroke="#FFFFFF" stroke-width="0.5" stroke-miterlimit="10" width="0.75" height="8.9"/>
			
				<rect x="57.88" y="36.01" transform="matrix(0.9994 -0.0342 0.0342 0.9994 -1.2036 2.3264)" fill="#FFFFFF" stroke="#FFFFFF" stroke-width="0.5" stroke-miterlimit="10" width="19.21" height="0.75"/>
		</g>
	</g>
</g>
<g id="Layer_2">
</g>
<g id="Layer_3">
</g>
<g id="Layer_4">
</g>
<g id="Layer_5">
</g>
<g id="Layer_6">
</g>
</svg>
