<?xml version="1.0" encoding="utf-8"?>
<!-- Generator: Adobe Illustrator 22.0.1, SVG Export Plug-In . SVG Version: 6.00 Build 0)  -->
<svg version="1.1" xmlns="http://www.w3.org/2000/svg" xmlns:xlink="http://www.w3.org/1999/xlink" x="0px" y="0px" width="300px"
	 height="124.83px" viewBox="0 0 300 124.83" enable-background="new 0 0 300 124.83" xml:space="preserve">
<g id="Layer_1">
	<g>
		<g>
			<g>
				<g>
					<rect x="54.12" y="8.6" fill="#ECEFEF" width="153.96" height="95.21"/>
					<path fill="#989FA1" d="M208.46,104.19H53.74V8.23h154.71V104.19z M54.49,103.44h153.21V8.98H54.49V103.44z"/>
				</g>
			</g>
			<g>
				<path fill="#FFFFFF" d="M208.08,8.6H54.11V3.48c0-1.14,0.92-2.07,2.07-2.07h149.84c1.14,0,2.07,0.92,2.07,2.07V8.6z"/>
				<path fill="#989FA1" d="M208.46,8.98H53.74v-5.5c0-1.34,1.09-2.44,2.44-2.44h149.84c1.35,0,2.44,1.09,2.44,2.44V8.98z
					 M54.49,8.23h153.22V3.48c0-0.93-0.76-1.69-1.69-1.69H56.18c-0.93,0-1.69,0.76-1.69,1.69V8.23z"/>
			</g>
			<path fill="#989FA1" d="M203.23,6.22c-0.67,0-1.21-0.54-1.21-1.21s0.54-1.21,1.21-1.21c0.67,0,1.21,0.54,1.21,1.21
				S203.9,6.22,203.23,6.22z M203.23,4.55c-0.25,0-0.46,0.21-0.46,0.46c0,0.25,0.21,0.46,0.46,0.46c0.25,0,0.46-0.21,0.46-0.46
				C203.69,4.76,203.49,4.55,203.23,4.55z"/>
			<path fill="#989FA1" d="M199.45,6.22c-0.67,0-1.21-0.54-1.21-1.21s0.54-1.21,1.21-1.21s1.21,0.54,1.21,1.21
				S200.12,6.22,199.45,6.22z M199.45,4.55c-0.25,0-0.46,0.21-0.46,0.46c0,0.25,0.21,0.46,0.46,0.46s0.46-0.21,0.46-0.46
				C199.91,4.76,199.71,4.55,199.45,4.55z"/>
			<path fill="#989FA1" d="M195.67,6.22c-0.67,0-1.21-0.54-1.21-1.21S195,3.8,195.67,3.8s1.21,0.54,1.21,1.21
				S196.34,6.22,195.67,6.22z M195.67,4.55c-0.25,0-0.46,0.21-0.46,0.46c0,0.25,0.21,0.46,0.46,0.46s0.46-0.21,0.46-0.46
				C196.13,4.76,195.92,4.55,195.67,4.55z"/>
		</g>
		<g>
			<g>
				<g>
					<g>
						<g>
							<rect x="91.92" y="28.21" fill="#ECEFEF" width="153.96" height="95.21"/>
							<path fill="#989FA1" d="M246.26,123.79H91.54V27.83h154.71V123.79z M92.29,123.04h153.21V28.58H92.29V123.04z"/>
						</g>
					</g>
					<g>
						<path fill="#FFFFFF" d="M245.89,28.21H91.92v-5.12c0-1.14,0.92-2.07,2.07-2.07h149.84c1.14,0,2.07,0.92,2.07,2.07V28.21z"/>
						<path fill="#989FA1" d="M246.26,28.58H91.54v-5.5c0-1.35,1.09-2.44,2.44-2.44h149.84c1.35,0,2.44,1.09,2.44,2.44V28.58z
							 M92.29,27.83h153.22v-4.75c0-0.93-0.76-1.69-1.69-1.69H93.98c-0.93,0-1.69,0.76-1.69,1.69V27.83z"/>
					</g>
					<path fill="#989FA1" d="M241.04,25.82c-0.67,0-1.21-0.54-1.21-1.21s0.54-1.21,1.21-1.21c0.67,0,1.21,0.54,1.21,1.21
						S241.7,25.82,241.04,25.82z M241.04,24.16c-0.25,0-0.46,0.21-0.46,0.46s0.21,0.46,0.46,0.46c0.25,0,0.46-0.21,0.46-0.46
						S241.29,24.16,241.04,24.16z"/>
					<path fill="#989FA1" d="M237.25,25.82c-0.67,0-1.21-0.54-1.21-1.21s0.54-1.21,1.21-1.21c0.67,0,1.21,0.54,1.21,1.21
						S237.92,25.82,237.25,25.82z M237.25,24.16c-0.25,0-0.46,0.21-0.46,0.46s0.21,0.46,0.46,0.46c0.25,0,0.46-0.21,0.46-0.46
						S237.51,24.16,237.25,24.16z"/>
					<path fill="#989FA1" d="M233.47,25.82c-0.67,0-1.21-0.54-1.21-1.21s0.54-1.21,1.21-1.21c0.67,0,1.21,0.54,1.21,1.21
						S234.14,25.82,233.47,25.82z M233.47,24.16c-0.25,0-0.46,0.21-0.46,0.46s0.21,0.46,0.46,0.46c0.25,0,0.46-0.21,0.46-0.46
						S233.73,24.16,233.47,24.16z"/>
					<g>
						<path fill="#FFFFFF" d="M235.82,123.4H101.98V50.86c0-0.57,0.46-1.02,1.02-1.02H234.8c0.57,0,1.02,0.46,1.02,1.02V123.4z"/>
						<path fill="#989FA1" d="M236.2,123.78H101.61V50.86c0-0.77,0.63-1.4,1.4-1.4H234.8c0.77,0,1.4,0.63,1.4,1.4V123.78z
							 M102.36,123.03h133.09V50.86c0-0.36-0.29-0.65-0.65-0.65H103.01c-0.36,0-0.65,0.29-0.65,0.65V123.03z"/>
					</g>
					<g>
						<path fill="#FFFFFF" d="M123.01,43.65h-20.12c-0.6,0-1.08-0.48-1.08-1.08v-5.58c0-0.59,0.48-1.08,1.08-1.08h20.12
							c0.59,0,1.08,0.48,1.08,1.08v5.58C124.09,43.16,123.6,43.65,123.01,43.65z"/>
						<path fill="#989FA1" d="M123.01,44.02h-20.12c-0.8,0-1.45-0.65-1.45-1.45v-5.58c0-0.8,0.65-1.45,1.45-1.45h20.12
							c0.8,0,1.45,0.65,1.45,1.45v5.58C124.46,43.37,123.81,44.02,123.01,44.02z M102.89,36.29c-0.39,0-0.7,0.32-0.7,0.7v5.58
							c0,0.39,0.32,0.7,0.7,0.7h20.12c0.39,0,0.7-0.32,0.7-0.7v-5.58c0-0.39-0.31-0.7-0.7-0.7H102.89z"/>
					</g>
					<rect x="171.02" y="40.48" fill="#989FA1" width="13.61" height="0.75"/>
					<rect x="187.93" y="40.48" fill="#989FA1" width="13.61" height="0.75"/>
					<rect x="204.84" y="40.48" fill="#989FA1" width="13.61" height="0.75"/>
					<rect x="221.75" y="40.48" fill="#989FA1" width="13.61" height="0.75"/>
					<path fill="#EEE679" d="M188.8,72.75l-17.18-9.92c-1.5-0.87-3.95-0.87-5.45,0L149,72.75c-1.5,0.87-2.73,2.99-2.73,4.72v19.83
						c0,1.73,1.23,3.86,2.73,4.72l17.17,9.91c1.5,0.87,3.95,0.87,5.45,0l17.18-9.91c1.5-0.87,2.73-2.99,2.73-4.72V77.47
						C191.53,75.74,190.3,73.62,188.8,72.75z M184.17,83.43h-1.78V80.4c0-2.31-1.78-3.03-5.22-3.03h-0.16
						c-8.25,0-7.52-3.09-7.75-4.21h-0.12c-0.24,1.13,0.55,4.21-7.69,4.21h-0.22c-3.44,0-5.22,0.71-5.22,3.03v2.33l28.15,8.14v0.46
						h0.01v2.91c0,3.32-1.6,5.16-7,5.16h-0.28c-4.21,0-6.8,0.89-6.8,4.21h-1.78c0-3.32-2.59-4.21-6.8-4.21h-0.28
						c-5.4,0-7-1.84-7-5.16v-2.91h1.78v3.03c0,2.31,1.78,3.03,5.22,3.03h0.16c8.25,0,7.52,3.09,7.75,4.21h0.12
						c0.24-1.13-0.55-4.21,7.69-4.21h0.22c3.44,0,5.22-0.71,5.22-3.03v-1.74l-28.16-8.14v-1.05h0v-2.91c0-3.32,1.6-5.16,7-5.16h0.28
						c4.21,0,6.8-0.89,6.8-4.21h1.78c0,3.32,2.59,4.21,6.8,4.21h0.28c5.4,0,7,1.84,7,5.16V83.43z"/>
				</g>
				<rect x="91.53" y="59.63" fill="#ECEFEF" width="1" height="23.42"/>
				<rect x="101.69" y="59.62" fill="#FFFFFF" width="3.7" height="23.43"/>
				<rect x="101.04" y="59.62" fill="#ECEFEF" width="1.32" height="23.43"/>
			</g>
			<rect x="90.88" y="59.39" fill="#ECEFEF" width="1" height="23.42"/>
			<rect x="101.46" y="59.38" fill="#FFFFFF" width="3.7" height="23.43"/>
			<rect x="100.82" y="59.38" fill="#ECEFEF" width="1.32" height="23.43"/>
			<g>
				<polygon fill="#989FA1" points="110.1,71.51 70.56,71.51 70.56,53.11 71.31,53.11 71.31,70.76 110.1,70.76 				"/>
				<polygon fill="#989FA1" points="75.11,57.65 70.92,53.38 66.66,57.57 66.13,57.03 70.93,52.32 75.64,57.12 				"/>
			</g>
		</g>
	</g>
</g>
<g id="Layer_2">
</g>
<g id="Layer_3">
</g>
<g id="Layer_4">
</g>
<g id="Layer_5">
</g>
<g id="Layer_6">
</g>
</svg>
