<?xml version="1.0" encoding="utf-8"?>
<!-- Generator: Adobe Illustrator 22.0.1, SVG Export Plug-In . SVG Version: 6.00 Build 0)  -->
<svg version="1.1" xmlns="http://www.w3.org/2000/svg" xmlns:xlink="http://www.w3.org/1999/xlink" x="0px" y="0px" width="300px"
	 height="124.33px" viewBox="0 0 300 124.33" enable-background="new 0 0 300 124.33" xml:space="preserve">
<g id="Layer_1">
	<g>
		<polygon fill="#989FA1" points="239,57.08 238.99,56.33 246.66,56.25 246.58,48.59 247.33,48.58 247.42,56.99 		"/>
		<g>
			<path fill="#989FA1" d="M226.38,123.54H73.06v-0.38c0-20.29,7.86-39.41,22.12-53.85c12.51-12.7,29.14-20.67,46.82-22.43
				c0.92-0.08,1.83-0.16,2.76-0.21c0.6-0.05,1.2-0.08,1.83-0.1c0.5-0.02,1.01-0.03,1.52-0.03c0.16-0.02,0.36-0.02,0.55-0.02
				c0.68-0.03,1.4-0.03,2.11,0c0.17,0,0.38,0,0.57,0.02c0.46-0.01,0.98,0.01,1.49,0.03c0.62,0.02,1.23,0.05,1.84,0.1
				c0.92,0.05,1.83,0.13,2.74,0.21c17.67,1.77,34.32,9.74,46.89,22.47c14.24,14.42,22.08,33.54,22.08,53.82V123.54z M73.81,122.79
				h151.82c-0.1-19.94-7.85-38.72-21.86-52.92c-12.45-12.6-28.94-20.5-46.43-22.25c-0.9-0.08-1.8-0.16-2.72-0.21
				c-0.6-0.05-1.2-0.08-1.81-0.1c-0.5-0.02-1-0.03-1.5-0.03c-0.2-0.02-0.38-0.02-0.55-0.02c-0.36-0.02-0.7-0.02-1.05-0.02
				c-0.35,0-0.68,0-1.02,0.02c-0.18,0-0.37,0-0.53,0.02c-0.53,0-1.03,0.02-1.53,0.03c-0.61,0.02-1.21,0.05-1.8,0.1
				c-0.93,0.05-1.83,0.13-2.74,0.21c-17.5,1.75-33.97,9.64-46.36,22.21C81.68,84.05,73.91,102.84,73.81,122.79z"/>
			<path fill="#ECEFEF" d="M214.91,123.09v0.08H83.15v-0.08c0-19.11,8.14-36.33,21.14-48.36c6.07-5.63,13.22-10.12,21.09-13.14
				c5.5-2.13,11.37-3.52,17.49-4.09c2.03-0.19,4.09-0.29,6.17-0.29c2.56,0,5.09,0.15,7.58,0.44c6.54,0.75,12.77,2.45,18.58,4.96
				c7.09,3.07,13.55,7.35,19.08,12.59C206.97,87.2,214.91,104.22,214.91,123.09z"/>
			<path fill="#989FA1" d="M170.74,123.17v-0.08c0-12.85-1.79-26.1-5.33-39.38c-2.36-8.86-5.43-17.58-9.15-25.92
				c-2.19-4.89-4.08-8.51-5.29-10.69l-0.05-0.18l0.39-0.01l0.31-0.17c1.21,2.19,3.12,5.84,5.32,10.75
				c3.73,8.38,6.82,17.13,9.19,26.03c3.55,13.34,5.35,26.65,5.35,39.57L170.74,123.17z"/>
			<path fill="#989FA1" d="M206.42,123.17v-0.08c0-15.49-5.88-30.76-17.49-45.4c-3.97-5-8.68-9.98-13.99-14.8
				c-7.97-7.2-15.55-12.41-20.5-15.52l-0.16-0.1l0.42-0.62l0.14,0.1c4.97,3.12,12.59,8.36,20.6,15.59
				c5.34,4.85,10.08,9.86,14.08,14.89c11.71,14.78,17.65,30.21,17.65,45.87L206.42,123.17z"/>
			<path fill="#989FA1" d="M127.93,123.17v-0.08c0-12.96,1.81-26.28,5.37-39.6c2.38-8.96,5.49-17.76,9.23-26.14
				c2.35-5.24,4.3-8.9,5.26-10.61l0.31,0.17l0.39-0.01V47l-0.05,0.1c-0.95,1.7-2.89,5.33-5.23,10.55
				c-3.73,8.35-6.82,17.11-9.19,26.03c-3.54,13.26-5.34,26.52-5.34,39.41L127.93,123.17z"/>
			<path fill="#989FA1" d="M92.25,123.17v-0.08c0-15.69,5.96-31.14,17.7-45.9c4.35-5.47,9.46-10.81,15.18-15.88
				c7.68-6.77,14.82-11.66,19.45-14.57l0.07-0.05l0.48,0.58l-0.14,0.1c-4.62,2.91-11.73,7.78-19.37,14.51
				c-5.69,5.04-10.77,10.35-15.09,15.79C98.9,92.28,93,107.57,93,123.09L92.25,123.17z"/>
			<path fill="#989FA1" d="M149.8,85.04c-21.14,0-39.5-5.1-54.57-15.17l0.42-0.62c14.95,9.98,33.16,15.04,54.15,15.04
				c20.96,0,39.14-5.04,54.03-14.99l0.42,0.62C189.23,79.96,170.91,85.04,149.8,85.04z"/>
			<rect x="73.44" y="122.79" fill="#989FA1" width="152.57" height="0.75"/>
		</g>
		<g>
			<g>
				<path fill="#FFFFFF" d="M272.1,67.89c8.47,5.73,10.7,17.24,4.97,25.71c-5.73,8.47-17.24,10.7-25.71,4.97
					c-8.47-5.73-10.7-17.24-4.97-25.71C252.12,64.39,263.63,62.16,272.1,67.89z"/>
				<path fill="#989FA1" d="M261.69,102.12c-3.73,0-7.38-1.11-10.54-3.25c-4.18-2.83-7.01-7.11-7.97-12.06
					c-0.96-4.95,0.07-9.98,2.9-14.16c2.83-4.18,7.11-7.01,12.06-7.97c4.95-0.96,9.98,0.07,14.16,2.9c4.18,2.83,7.01,7.11,7.97,12.06
					c0.96,4.95-0.07,9.98-2.9,14.16c-2.83,4.18-7.11,7.01-12.06,7.97C264.11,102.01,262.89,102.12,261.69,102.12z M261.77,65.08
					c-1.16,0-2.32,0.11-3.48,0.33c-4.76,0.92-8.87,3.64-11.58,7.65c-2.71,4.01-3.7,8.84-2.78,13.6c0.92,4.76,3.64,8.87,7.65,11.58
					c4.01,2.71,8.84,3.7,13.6,2.78c4.76-0.92,8.87-3.64,11.58-7.65c2.71-4.01,3.7-8.84,2.78-13.6c-0.92-4.76-3.64-8.87-7.65-11.58
					l0,0C268.85,66.15,265.35,65.08,261.77,65.08z"/>
			</g>
			<path fill="#ECEFEF" d="M270.69,69.97c7.32,4.95,9.25,14.9,4.3,22.22c-4.95,7.32-14.9,9.25-22.22,4.3
				c-7.32-4.95-9.25-14.9-4.3-22.22C253.42,66.94,263.37,65.02,270.69,69.97z"/>
		</g>
		<g>
			<path fill="#FFFFFF" d="M211.75,6.62c7.23,7.23,7.23,18.95,0,26.18c-7.23,7.23-18.95,7.23-26.18,0c-7.23-7.23-7.23-18.95,0-26.18
				C192.79-0.61,204.52-0.61,211.75,6.62z"/>
			<path fill="#989FA1" d="M198.65,38.6c-5.04,0-9.79-1.97-13.36-5.53c-3.57-3.57-5.53-8.31-5.53-13.36c0-5.05,1.97-9.79,5.53-13.36
				c3.57-3.57,8.31-5.53,13.36-5.53c5.05,0,9.79,1.96,13.36,5.53l0,0l0,0c3.57,3.57,5.53,8.31,5.53,13.36
				c0,5.04-1.97,9.79-5.53,13.36C208.44,36.64,203.7,38.6,198.65,38.6z M198.65,1.57c-4.84,0-9.4,1.89-12.83,5.31
				c-3.43,3.43-5.31,7.98-5.31,12.83c0,4.84,1.89,9.4,5.31,12.83c3.42,3.43,7.98,5.31,12.83,5.31c4.85,0,9.4-1.89,12.83-5.31
				c3.43-3.43,5.31-7.98,5.31-12.83c0-4.85-1.89-9.4-5.31-12.83l0,0C208.06,3.46,203.5,1.57,198.65,1.57z"/>
		</g>
		<path fill="#ECEFEF" d="M209.97,8.4c6.25,6.25,6.25,16.38,0,22.63c-6.25,6.25-16.38,6.25-22.63,0c-6.25-6.25-6.25-16.38,0-22.63
			C193.59,2.14,203.72,2.14,209.97,8.4z"/>
		<path fill="#EEE679" d="M114.09,6.59c7.23,7.23,7.23,18.95,0,26.18c-7.23,7.23-18.95,7.23-26.18,0c-7.23-7.23-7.23-18.95,0-26.18
			C95.14-0.64,106.86-0.64,114.09,6.59z"/>
		<g>
			<path fill="#FFFFFF" d="M272.1,67.89c8.47,5.73,10.7,17.24,4.97,25.71c-5.73,8.47-17.24,10.7-25.71,4.97
				c-8.47-5.73-10.7-17.24-4.97-25.71C252.12,64.39,263.63,62.16,272.1,67.89z"/>
			<path fill="#989FA1" d="M261.69,102.12c-3.73,0-7.38-1.11-10.54-3.25c-4.18-2.83-7.01-7.11-7.97-12.06
				c-0.96-4.95,0.07-9.98,2.9-14.16c2.83-4.18,7.11-7.01,12.06-7.97c4.95-0.96,9.98,0.07,14.16,2.9c4.18,2.83,7.01,7.11,7.97,12.06
				c0.96,4.95-0.07,9.98-2.9,14.16c-2.83,4.18-7.11,7.01-12.06,7.97C264.11,102.01,262.89,102.12,261.69,102.12z M261.77,65.08
				c-1.16,0-2.32,0.11-3.48,0.33c-4.76,0.92-8.87,3.64-11.58,7.65c-2.71,4.01-3.7,8.84-2.78,13.6c0.92,4.76,3.64,8.87,7.65,11.58
				c4.01,2.71,8.84,3.7,13.6,2.78c4.76-0.92,8.87-3.64,11.58-7.65c2.71-4.01,3.7-8.84,2.78-13.6c-0.92-4.76-3.64-8.87-7.65-11.58
				l0,0C268.85,66.15,265.35,65.08,261.77,65.08z"/>
		</g>
		<path fill="#ECEFEF" d="M270.69,69.97c7.32,4.95,9.25,14.9,4.3,22.22c-4.95,7.32-14.9,9.25-22.22,4.3
			c-7.32-4.95-9.25-14.9-4.3-22.22C253.42,66.94,263.37,65.02,270.69,69.97z"/>
		<g>
			<path fill="#FFFFFF" d="M27.9,68.78c-8.47,5.73-10.7,17.24-4.97,25.71c5.73,8.47,17.24,10.7,25.71,4.97
				c8.47-5.73,10.7-17.24,4.97-25.71C47.88,65.28,36.37,63.05,27.9,68.78z"/>
			<path fill="#989FA1" d="M38.31,103.01c-1.2,0-2.42-0.12-3.62-0.35c-4.95-0.96-9.24-3.79-12.06-7.97
				c-2.83-4.18-3.86-9.21-2.9-14.16c0.96-4.95,3.79-9.24,7.97-12.06c4.18-2.83,9.21-3.86,14.16-2.9c4.95,0.96,9.24,3.79,12.06,7.97
				c2.83,4.18,3.86,9.21,2.9,14.16c-0.96,4.95-3.79,9.24-7.97,12.06C45.69,101.9,42.04,103.01,38.31,103.01z M38.24,65.97
				c-3.58,0-7.09,1.07-10.12,3.12l0,0c-4.01,2.71-6.73,6.83-7.65,11.58c-0.92,4.76,0.07,9.59,2.78,13.6
				c2.71,4.01,6.83,6.73,11.58,7.65c4.75,0.92,9.59-0.07,13.6-2.78c4.01-2.71,6.73-6.83,7.65-11.58c0.92-4.76-0.07-9.59-2.78-13.6
				c-2.71-4.01-6.83-6.73-11.58-7.65C40.55,66.08,39.39,65.97,38.24,65.97z"/>
		</g>
		<path fill="#ECEFEF" d="M29.31,70.86c-7.32,4.95-9.25,14.9-4.3,22.22c4.95,7.32,14.9,9.25,22.22,4.3
			c7.32-4.95,9.25-14.9,4.3-22.22C46.58,67.83,36.63,65.91,29.31,70.86z"/>
		<path fill="#989FA1" d="M246.78,56.88c-6.99-6.99-14.72-13.22-22.99-18.53l0.4-0.63c8.32,5.33,16.09,11.6,23.12,18.63l0.11,0.11
			v0.16l-0.38,0.01L246.78,56.88z"/>
		<polygon fill="#989FA1" points="72.68,44.55 72.36,36.9 64.7,37.22 64.67,36.47 73.07,36.11 73.43,44.52 		"/>
		<path fill="#989FA1" d="M55.2,60.33l-0.64-0.38c5.07-8.49,11.09-16.46,17.88-23.7l0.1-0.11l0.15-0.01l0.02,0.38l0.27,0.25
			C66.22,43.96,60.24,51.89,55.2,60.33z"/>
		<polygon fill="#989FA1" points="158.76,19.06 158.29,18.47 164.29,13.7 159.52,7.7 160.11,7.23 165.35,13.82 		"/>
		<path fill="#989FA1" d="M164.77,14.12c-9.81-1.22-19.74-1.39-29.53-0.49l-0.07-0.75c9.84-0.9,19.83-0.73,29.69,0.5l0.15,0.02
			l0.1,0.12l-0.3,0.24L164.77,14.12z"/>
		<g>
			<path fill="#FFFFFF" d="M100.54,25.38c-1.78-0.11-3.14-0.85-4.03-1.85l0.88-1.13c0.67,0.79,1.75,1.5,3.14,1.66v-4.29
				c-1.8-0.49-3.65-1.09-3.65-3.27c0-1.82,1.54-3.11,3.65-3.27v-1.61h1.08v1.62c1.46,0.12,2.63,0.72,3.5,1.62l-0.88,1.08
				c-0.71-0.78-1.62-1.22-2.61-1.36v3.85c1.82,0.51,3.76,1.18,3.76,3.5c0,1.59-1.02,3.25-3.76,3.44v1.57h-1.08V25.38z M100.54,18.16
				v-3.6c-1.25,0.09-2.14,0.83-2.14,1.85C98.41,17.38,99.34,17.81,100.54,18.16z M101.62,20.05v4.02c1.68-0.18,2.24-1.18,2.24-2.03
				C103.86,20.9,102.86,20.42,101.62,20.05z"/>
		</g>
		<g>
			<path fill="#989FA1" d="M194.43,19.53h1.85c-0.64-0.74-1.36-1.5-1.36-2.79c0-1.96,1.82-3.48,3.95-3.48
				c1.61,0,2.91,0.72,3.57,1.98l-1.18,0.71c-0.3-0.76-1.17-1.45-2.24-1.45c-1.34,0-2.51,0.85-2.51,2.26c0,1.29,0.81,1.96,1.41,2.77
				h2.65v0.95h-2.15c0.07,0.23,0.12,0.48,0.12,0.76c0,1.08-0.62,1.82-1.34,2.33c0.26-0.09,0.6-0.16,0.92-0.16
				c1.13,0,1.62,0.72,2.61,0.72c0.78,0,1.45-0.39,1.68-0.71l0.64,1.18c-0.5,0.48-1.27,0.83-2.38,0.83c-1.59,0-1.84-0.81-3.16-0.81
				c-0.6,0-1.34,0.32-2.08,0.71l-0.51-1.11c1.5-0.65,2.33-1.62,2.33-2.68c0-0.39-0.11-0.74-0.26-1.06h-2.54V19.53z"/>
		</g>
		<g>
			<path fill="#989FA1" d="M37.54,89.62v-2.15h-4.41v-0.94h4.41v-1.89h-4.41v-0.92h3.78l-4.01-5.88h1.71l3.65,5.47l3.66-5.47h1.71
				l-4.01,5.88h3.8v0.92h-4.41v1.89h4.41v0.94h-4.41v2.15H37.54z"/>
		</g>
		<g>
			<path fill="#989FA1" d="M257.09,84.55h-0.95v-0.92h0.78c-0.02-0.25-0.04-0.51-0.04-0.78s0.02-0.55,0.04-0.81h-0.78v-0.94h0.97
				c0.71-2.65,3.02-4.34,5.83-4.34c2.08,0,3.53,0.99,4.47,2.33l-1.22,0.69c-0.67-1.01-1.91-1.71-3.25-1.71
				c-2.01,0-3.64,1.18-4.27,3.04h5.33v0.94h-5.54c-0.04,0.26-0.05,0.53-0.05,0.81c0,0.26,0.02,0.53,0.05,0.78h5.54v0.92h-5.33
				c0.62,1.87,2.26,3.09,4.27,3.09c1.34,0,2.58-0.72,3.25-1.71l1.24,0.67c-0.99,1.36-2.4,2.35-4.48,2.35
				C260.09,88.95,257.78,87.23,257.09,84.55z"/>
		</g>
	</g>
</g>
<g id="Layer_2">
</g>
<g id="Layer_3">
</g>
<g id="Layer_4">
</g>
<g id="Layer_5">
</g>
<g id="Layer_6">
</g>
</svg>
