<?xml version="1.0" encoding="utf-8"?>
<!-- Generator: Adobe Illustrator 22.0.1, SVG Export Plug-In . SVG Version: 6.00 Build 0)  -->
<svg version="1.1" xmlns="http://www.w3.org/2000/svg" xmlns:xlink="http://www.w3.org/1999/xlink" x="0px" y="0px" width="300px"
	 height="120.75px" viewBox="0 0 300 120.75" enable-background="new 0 0 300 120.75" xml:space="preserve">
<g id="Layer_1">
	<g>
		<path fill="#989FA1" d="M89.6,92.38l-3.03-7.99h-6.91l-3.03,7.99l-0.3-0.05c-2.96-0.47-5.87-1.25-8.65-2.31l-0.28-0.11l1.37-8.44
			l-5.98-3.45l-6.62,5.4l-0.24-0.19c-2.32-1.88-4.45-4.01-6.33-6.32l-0.19-0.24l5.41-6.62l-3.46-5.98l-8.46,1.37l-0.11-0.28
			c-1.07-2.77-1.84-5.67-2.31-8.63l-0.05-0.3l8.01-3.04v-6.91l-8.01-3.04l0.05-0.3c0.46-2.94,1.23-5.85,2.3-8.63l0.11-0.29
			l8.47,1.37l3.46-5.98l-5.43-6.65l0.19-0.24c1.88-2.32,4-4.45,6.31-6.33l0.24-0.19l6.65,5.43l5.98-3.45L67.4,9.5l0.28-0.11
			c2.79-1.07,5.69-1.85,8.63-2.31l0.3-0.05l3.05,8.04h6.91l3.05-8.04l0.3,0.05c2.91,0.45,5.82,1.23,8.63,2.3l0.29,0.11l-1.38,8.49
			l5.98,3.45l6.65-5.43l0.24,0.19c2.32,1.89,4.45,4.02,6.32,6.33l0.19,0.24l-5.43,6.65l3.45,5.98l8.47-1.37l0.11,0.29
			c1.07,2.79,1.84,5.69,2.3,8.63l0.05,0.3l-8.01,3.04v6.91l8.01,3.04l-0.05,0.3c-0.47,2.96-1.25,5.86-2.31,8.63l-0.11,0.28
			l-8.46-1.37l-3.45,5.98l5.4,6.62l-0.19,0.24c-1.9,2.33-4.03,4.46-6.33,6.32l-0.24,0.19l-6.62-5.4l-5.98,3.45l1.37,8.44l-0.28,0.11
			c-2.78,1.07-5.69,1.84-8.65,2.31L89.6,92.38z M79.14,83.65h7.94l3,7.9c2.7-0.45,5.36-1.16,7.91-2.12l-1.36-8.35l6.88-3.97
			l6.54,5.34c2.09-1.72,4.04-3.66,5.79-5.78l-5.34-6.55l3.97-6.88l8.36,1.36c0.96-2.54,1.67-5.19,2.11-7.9l-7.92-3.01v-7.94
			l7.93-3.01c-0.44-2.69-1.15-5.34-2.1-7.9l-8.38,1.36l-3.97-6.88l5.37-6.57c-1.73-2.1-3.67-4.04-5.78-5.79l-6.57,5.37l-6.88-3.97
			L98,9.98c-2.58-0.96-5.23-1.67-7.89-2.11l-3.02,7.95h-7.94l-3.02-7.95c-2.68,0.44-5.34,1.15-7.89,2.11l1.37,8.4l-6.88,3.97
			l-6.58-5.37c-2.1,1.74-4.04,3.68-5.78,5.79l5.37,6.58l-3.98,6.88l-8.38-1.36c-0.96,2.56-1.66,5.21-2.1,7.9l7.93,3.01v7.94
			l-7.92,3.01c0.45,2.7,1.16,5.35,2.11,7.9l8.36-1.36l3.98,6.88l-5.35,6.55c1.73,2.1,3.68,4.05,5.79,5.78l6.54-5.34l6.88,3.97
			l-1.36,8.35c2.55,0.96,5.21,1.67,7.91,2.12L79.14,83.65z"/>
		<path fill="#ECEFEF" d="M88.45,81.68H77.78l-2.89,7.63c-1.5-0.31-2.99-0.71-4.44-1.19l1.31-8.06l-9.23-5.33L56.2,79.9
			c-1.15-1.02-2.23-2.11-3.25-3.25l5.17-6.33l-5.34-9.23L44.7,62.4c-0.48-1.45-0.88-2.93-1.19-4.43l7.65-2.91V44.4l-7.66-2.91
			c0.31-1.5,0.7-2.98,1.18-4.43l8.1,1.31l5.33-9.23l-5.19-6.35c1.02-1.14,2.1-2.23,3.24-3.25l6.35,5.19l9.23-5.33l-1.32-8.12
			c1.45-0.48,2.93-0.87,4.42-1.18l2.92,7.69h10.66l2.92-7.69c1.49,0.31,2.97,0.7,4.42,1.18l-1.32,8.12l9.23,5.33l6.35-5.19
			c1.14,1.02,2.23,2.11,3.25,3.25l-5.19,6.35l5.33,9.23l8.1-1.31c0.48,1.45,0.87,2.93,1.18,4.43l-7.66,2.91v10.66l7.65,2.91
			c-0.31,1.5-0.71,2.98-1.19,4.43l-8.08-1.31l-5.33,9.23l5.16,6.33c-1.03,1.15-2.11,2.23-3.25,3.25l-6.32-5.16l-9.23,5.33l1.31,8.06
			c-1.45,0.48-2.94,0.88-4.44,1.19L88.45,81.68z"/>
		<path fill="#989FA1" d="M223.37,86.67l-3.03-7.98h-6.91l-3.03,7.98l-0.3-0.05c-2.96-0.47-5.87-1.24-8.65-2.31l-0.28-0.11
			l1.37-8.44l-5.98-3.45l-6.62,5.4l-0.24-0.19c-2.32-1.88-4.45-4.01-6.33-6.32l-0.19-0.24l5.41-6.62l-3.46-5.98l-8.46,1.37
			l-0.11-0.28c-1.07-2.77-1.84-5.68-2.31-8.63l-0.05-0.3l8.01-3.04v-6.91l-8.01-3.04l0.05-0.3c0.46-2.94,1.23-5.85,2.3-8.63
			l0.11-0.29l8.47,1.37l3.46-5.98l-5.43-6.65l0.19-0.24c1.88-2.32,4-4.44,6.31-6.33l0.24-0.19l6.66,5.43l5.98-3.45l-1.38-8.49
			l0.28-0.11c2.79-1.07,5.69-1.85,8.63-2.31l0.3-0.05l3.05,8.04h6.91l3.05-8.04l0.3,0.05c2.92,0.46,5.82,1.23,8.63,2.31l0.29,0.11
			l-1.38,8.49l5.98,3.45l6.65-5.43l0.24,0.19c2.32,1.89,4.45,4.02,6.32,6.33l0.19,0.24l-5.43,6.65l3.45,5.98l8.47-1.37l0.11,0.29
			c1.07,2.79,1.84,5.7,2.3,8.63l0.05,0.3l-8.01,3.04v6.91l8.01,3.04l-0.05,0.3c-0.47,2.96-1.25,5.86-2.31,8.63l-0.11,0.28
			l-8.46-1.37l-3.45,5.98l5.4,6.62l-0.19,0.24c-1.9,2.34-4.03,4.46-6.33,6.32l-0.24,0.19l-6.62-5.4l-5.98,3.45l1.37,8.44l-0.28,0.11
			c-2.78,1.07-5.69,1.85-8.64,2.31L223.37,86.67z M202.02,83.72c2.55,0.96,5.21,1.67,7.91,2.12l3-7.9h7.94l3,7.9
			c2.7-0.45,5.36-1.16,7.91-2.12l-1.36-8.35l6.88-3.97l6.54,5.34c2.09-1.71,4.03-3.66,5.79-5.78l-5.34-6.55l3.97-6.88l8.36,1.36
			c0.96-2.54,1.67-5.2,2.12-7.9l-7.92-3.01v-7.94l7.93-3.01c-0.44-2.68-1.15-5.34-2.1-7.9l-8.38,1.36l-3.97-6.88l5.37-6.57
			c-1.73-2.1-3.67-4.04-5.78-5.79l-6.57,5.37l-6.88-3.97l1.36-8.4c-2.57-0.96-5.22-1.67-7.89-2.11l-3.02,7.95h-7.94l-3.02-7.95
			c-2.69,0.44-5.34,1.15-7.89,2.11l1.37,8.4l-6.88,3.97l-6.58-5.37c-2.1,1.74-4.04,3.68-5.78,5.79l5.37,6.58l-3.97,6.88l-8.38-1.36
			c-0.96,2.56-1.66,5.21-2.1,7.9l7.93,3.01v7.94L175.05,51c0.45,2.7,1.16,5.35,2.11,7.9l8.36-1.36l3.97,6.88l-5.35,6.55
			c1.73,2.1,3.68,4.05,5.79,5.78l6.55-5.34l6.88,3.97L202.02,83.72z"/>
		<path fill="#ECEFEF" d="M222.22,75.97h-10.66l-2.89,7.63c-1.5-0.31-2.99-0.71-4.44-1.19l1.31-8.06l-9.23-5.33l-6.32,5.16
			c-1.15-1.02-2.23-2.11-3.25-3.25l5.17-6.33l-5.34-9.23l-8.08,1.31c-0.48-1.45-0.88-2.93-1.19-4.43l7.65-2.91V38.69l-7.66-2.91
			c0.31-1.5,0.7-2.98,1.18-4.43l8.1,1.31l5.33-9.23l-5.19-6.35c1.02-1.14,2.1-2.23,3.24-3.25l6.35,5.19l9.23-5.33l-1.32-8.12
			c1.45-0.48,2.93-0.87,4.42-1.18l2.92,7.69h10.66l2.92-7.69c1.49,0.31,2.97,0.7,4.42,1.18l-1.32,8.12l9.23,5.33l6.35-5.19
			c1.14,1.02,2.23,2.11,3.25,3.25l-5.19,6.35l5.33,9.23l8.1-1.31c0.48,1.45,0.87,2.93,1.18,4.43l-7.66,2.91v10.66l7.65,2.91
			c-0.31,1.5-0.71,2.98-1.19,4.43l-8.08-1.31l-5.33,9.23l5.16,6.33c-1.03,1.15-2.11,2.23-3.25,3.25l-6.32-5.16l-9.23,5.33l1.31,8.06
			c-1.45,0.48-2.94,0.88-4.44,1.19L222.22,75.97z"/>
		<path fill="#989FA1" d="M151.14,119.39c-0.13,0-0.27,0-0.4,0l-0.3,0l-1.3-6.64l-5.28-0.9l-3.43,5.83l-0.29-0.1
			c-2.25-0.76-4.42-1.75-6.45-2.96l-0.26-0.16l2.19-6.41l-4.12-3.42l-5.88,3.34l-0.2-0.23c-1.57-1.78-2.95-3.72-4.11-5.78
			l-0.15-0.27l5.1-4.45l-1.86-5.02l-6.79-0.05l-0.06-0.3c-0.47-2.3-0.69-4.68-0.66-7.05l0-0.31l6.66-1.31l0.9-5.28l-5.85-3.44
			l0.1-0.29c0.75-2.24,1.74-4.4,2.95-6.44l0.16-0.26l6.44,2.2l3.42-4.12l-3.35-5.91l0.23-0.2c1.78-1.56,3.72-2.94,5.78-4.1
			l0.27-0.15l4.47,5.13l5.02-1.86l0.05-6.81l0.3-0.06c2.31-0.47,4.68-0.69,7.05-0.66l0.3,0l1.32,6.68l5.28,0.9l3.45-5.87l0.29,0.1
			c2.22,0.74,4.39,1.74,6.44,2.95l0.26,0.16l-2.2,6.45l4.12,3.42l5.91-3.36l0.2,0.23c1.56,1.78,2.94,3.73,4.1,5.78l0.15,0.27
			l-5.12,4.47l1.86,5.02l6.8,0.05l0.06,0.3c0.46,2.32,0.68,4.69,0.65,7.05l0,0.3l-6.66,1.31l-0.9,5.28l5.85,3.44l-0.1,0.29
			c-0.76,2.25-1.75,4.42-2.96,6.44l-0.16,0.26l-6.42-2.2l-3.42,4.12l3.34,5.89l-0.23,0.2c-1.79,1.57-3.74,2.95-5.78,4.1l-0.27,0.15
			l-4.45-5.1l-5.02,1.86l-0.05,6.77l-0.3,0.06C155.62,119.16,153.38,119.39,151.14,119.39z M151.05,118.64
			c2.11,0.03,4.24-0.19,6.3-0.59l0.05-6.68l5.99-2.22l4.39,5.03c1.82-1.04,3.55-2.27,5.16-3.66l-3.29-5.81l4.08-4.92l6.33,2.17
			c1.05-1.81,1.94-3.74,2.64-5.75l-5.77-3.39l1.07-6.3l6.57-1.29c0.01-2.11-0.19-4.22-0.58-6.29l-6.71-0.05l-2.22-5.99l5.05-4.41
			c-1.05-1.82-2.28-3.56-3.66-5.16l-5.83,3.31l-4.92-4.08l2.17-6.36c-1.84-1.07-3.77-1.95-5.74-2.63l-3.4,5.79l-6.3-1.07l-1.3-6.59
			c-2.15,0-4.22,0.19-6.29,0.58L144.8,59l-5.99,2.22l-4.41-5.05c-1.82,1.05-3.55,2.28-5.15,3.66l3.31,5.83l-4.08,4.92l-6.34-2.17
			c-1.06,1.83-1.94,3.76-2.63,5.75l5.77,3.39l-1.07,6.3l-6.57,1.29c0,2.12,0.19,4.23,0.59,6.29l6.69,0.05l2.22,5.99l-5.03,4.39
			c1.05,1.83,2.28,3.56,3.67,5.16l5.8-3.29l4.92,4.08l-2.16,6.32c1.82,1.06,3.75,1.94,5.75,2.64l3.38-5.75l6.3,1.07L151.05,118.64z"
			/>
		<path fill="#ECEFEF" d="M151.02,110.8l-8.31-1.41l-3.27,5.57c-1.13-0.44-2.24-0.95-3.31-1.51l2.09-6.11l-6.49-5.38l-5.62,3.19
			c-0.76-0.95-1.46-1.94-2.11-2.96l4.87-4.25l-2.94-7.91l-6.48-0.05c-0.18-1.19-0.29-2.4-0.34-3.61l6.35-1.25l1.41-8.31l-5.59-3.28
			c0.44-1.13,0.94-2.23,1.51-3.3l6.14,2.1l5.38-6.49l-3.2-5.64c0.95-0.76,1.94-1.46,2.96-2.1l4.27,4.89l7.91-2.93l0.05-6.5
			c1.19-0.18,2.4-0.29,3.61-0.34l1.26,6.38l8.31,1.41l3.3-5.61c1.12,0.44,2.22,0.94,3.29,1.51l-2.1,6.15l6.49,5.38l5.64-3.2
			c0.76,0.95,1.46,1.94,2.1,2.96l-4.89,4.26l2.93,7.91l6.49,0.05c0.18,1.2,0.29,2.4,0.33,3.61l-6.36,1.25l-1.41,8.31l5.58,3.28
			c-0.44,1.13-0.95,2.23-1.51,3.3l-6.13-2.1l-5.38,6.49l3.18,5.62c-0.95,0.76-1.94,1.46-2.96,2.1l-4.24-4.86l-7.91,2.93l-0.05,6.46
			c-1.2,0.18-2.41,0.29-3.62,0.34L151.02,110.8z"/>
		<g>
			<path fill="#989FA1" d="M84.58,60.15v2.73h-2.43v-2.7c-3.16-0.24-5.46-1.49-7.07-3.19l1.97-2.73c1.18,1.24,2.91,2.37,5.1,2.7
				V51.1c-3.12-0.79-6.43-1.94-6.43-5.89c0-3.09,2.52-5.55,6.43-5.89v-2.79h2.43v2.85c2.49,0.24,4.52,1.21,6.1,2.73l-2.03,2.64
				c-1.12-1.12-2.55-1.82-4.07-2.12v5.22c3.16,0.85,6.55,2.03,6.55,6.1C91.14,57.05,89.13,59.72,84.58,60.15z M82.16,47.22v-4.73
				c-1.73,0.18-2.79,1.12-2.79,2.49C79.37,46.16,80.55,46.77,82.16,47.22z M87.53,54.29c0-1.4-1.24-2.03-2.94-2.55v5.22
				C86.68,56.66,87.53,55.44,87.53,54.29z"/>
		</g>
		<g>
			<g>
				<g>
					<path fill="#989FA1" d="M202.68,40.65l0.97-1.18c0.64,0.76,1.53,1.16,2.6,1.16c1.24,0,1.99-0.76,1.99-1.72
						c0-1.03-0.76-1.72-1.95-1.72c-0.81,0-1.5,0.25-2.12,0.83l-1.21-0.35v-5.41h6.35v1.5h-4.65v2.79c0.48-0.45,1.26-0.83,2.2-0.83
						c1.64,0,3.11,1.13,3.11,3.13c0,2.01-1.54,3.29-3.71,3.29C204.61,42.15,203.46,41.57,202.68,40.65z"/>
					<path fill="#989FA1" d="M211.91,37.13c0-2.44,1.15-5,3.88-5c2.72,0,3.87,2.56,3.87,5c0,2.43-1.15,5.02-3.87,5.02
						C213.06,42.15,211.91,39.56,211.91,37.13z M217.93,37.13c0-1.86-0.55-3.49-2.14-3.49s-2.15,1.63-2.15,3.49
						c0,1.85,0.57,3.5,2.15,3.5C217.36,40.64,217.93,38.98,217.93,37.13z"/>
					<path fill="#989FA1" d="M221.41,34.55c0-1.37,0.97-2.41,2.41-2.41c1.45,0,2.41,1.05,2.41,2.41c0,1.35-0.96,2.4-2.41,2.4
						C222.39,36.95,221.41,35.9,221.41,34.55z M225.12,34.55c0-0.86-0.54-1.45-1.29-1.45c-0.74,0-1.28,0.6-1.28,1.45
						c0,0.84,0.54,1.42,1.28,1.42C224.58,35.97,225.12,35.39,225.12,34.55z M222.88,41.98l6.19-9.7h0.99l-6.21,9.7H222.88z
						 M226.63,39.75c0-1.37,0.97-2.41,2.41-2.41c1.44,0,2.41,1.05,2.41,2.41c0,1.35-0.97,2.4-2.41,2.4
						C227.61,42.15,226.63,41.1,226.63,39.75z M230.34,39.75c0-0.86-0.54-1.45-1.29-1.45c-0.76,0-1.29,0.6-1.29,1.45
						c0,0.84,0.54,1.42,1.29,1.42C229.8,41.18,230.34,40.59,230.34,39.75z"/>
				</g>
			</g>
			<g>
				<g>
					<path fill="#989FA1" d="M203.05,52.24c0-2.89,2.05-5.02,4.96-5.02c2.89,0,4.96,2.12,4.96,5.02c0,2.89-2.07,5.02-4.96,5.02
						C205.1,57.26,203.05,55.13,203.05,52.24z M211.22,52.24c0-2.01-1.27-3.5-3.21-3.5c-1.96,0-3.21,1.5-3.21,3.5
						c0,1.99,1.25,3.5,3.21,3.5C209.96,55.75,211.22,54.23,211.22,52.24z"/>
					<path fill="#989FA1" d="M215.33,57.08v-9.7h6.65v1.5h-4.94v2.5h4.84v1.5h-4.84v4.2H215.33z"/>
					<path fill="#989FA1" d="M224.24,57.08v-9.7h6.65v1.5h-4.94v2.5h4.84v1.5h-4.84v4.2H224.24z"/>
				</g>
			</g>
		</g>
		<g>
			<g>
				<path fill="#FFFFFF" d="M149.58,84.08c0,0-2.98-5.65-1.49-10.24c0.05-0.15,0.1-0.29,0.15-0.43l13.33,5.13
					c-0.06,0.14-0.11,0.28-0.18,0.42c-1.96,4.41-7.97,6.6-7.97,6.6s3.53,5.02,1.38,10.61l-13.36-5.14
					C143.6,85.43,149.58,84.08,149.58,84.08z"/>
				<path fill="#989FA1" d="M155.02,96.66l-14.06-5.41l0.13-0.35c1.88-4.87,6.48-6.61,7.95-7.06c-0.67-1.42-2.62-6.11-1.3-10.12
					c0.05-0.15,0.1-0.3,0.16-0.45l0.13-0.35l14.03,5.4l-0.13,0.35c-0.06,0.15-0.12,0.3-0.19,0.44c-1.71,3.85-6.31,6.02-7.75,6.62
					c0.8,1.32,3.04,5.69,1.17,10.57L155.02,96.66z M141.93,90.82l12.65,4.87c1.78-5.21-1.43-9.86-1.46-9.91l-0.28-0.4l0.46-0.17
					c0.06-0.02,5.88-2.19,7.76-6.4c0.01-0.02,0.02-0.04,0.03-0.05l-12.61-4.86c0,0.02-0.01,0.03-0.02,0.05
					c-1.44,4.39,1.43,9.9,1.46,9.96l0.23,0.43l-0.48,0.11C149.61,84.46,144.1,85.77,141.93,90.82z"/>
			</g>
			<path fill="#989FA1" d="M144.24,89.97c1.3-1.4,5.95-1.77,5.95-1.77s3.27,3.39,3.24,5.31L144.24,89.97z M149.75,78.06
				c0.35,2.68,1.58,5.06,1.59,5.09l0.46,0.89l0.94-0.35c0.04-0.01,2.54-0.96,4.59-2.71L149.75,78.06z"/>
			
				<rect x="154.56" y="67.22" transform="matrix(0.3593 -0.9332 0.9332 0.3593 28.3684 193.2723)" fill="#989FA1" width="0.75" height="17.51"/>
			
				<rect x="147.77" y="84.86" transform="matrix(0.3593 -0.9332 0.9332 0.3593 7.5592 198.237)" fill="#989FA1" width="0.75" height="17.51"/>
		</g>
	</g>
</g>
<g id="Layer_2">
</g>
<g id="Layer_3">
</g>
<g id="Layer_4">
</g>
<g id="Layer_5">
</g>
<g id="Layer_6">
</g>
</svg>
