<?xml version="1.0" encoding="utf-8"?>
<!-- Generator: Adobe Illustrator 22.0.1, SVG Export Plug-In . SVG Version: 6.00 Build 0)  -->
<svg version="1.1" xmlns="http://www.w3.org/2000/svg" xmlns:xlink="http://www.w3.org/1999/xlink" x="0px" y="0px" width="300px"
	 height="132.33px" viewBox="0 0 300 132.33" enable-background="new 0 0 300 132.33" xml:space="preserve">
<g id="Layer_1">
	<g>
		<path fill="#989FA1" d="M68.45,124.61c-0.58-17.94,3.75-35.75,12.54-51.51l0.65,0.37c-8.72,15.64-13.03,33.32-12.44,51.12
			L68.45,124.61z"/>
		<polygon fill="#989FA1" points="84.52,85.99 81.16,73.72 68.9,77.07 68.7,76.35 81.69,72.8 85.24,85.79 		"/>
		<path fill="#989FA1" d="M226.28,65.53c-12.16-13.15-27.63-22.72-44.73-27.7l0.21-0.72c17.23,5.01,32.82,14.66,45.07,27.91
			L226.28,65.53z"/>
		<polygon fill="#989FA1" points="226.9,65.78 213.45,65.13 213.49,64.38 226.19,65 226.81,52.3 227.56,52.33 		"/>
		<g>
			<path fill="#989FA1" d="M233.62,131.54H94.64v-0.38c0-18.39,7.12-35.73,20.05-48.81c11.34-11.51,26.42-18.73,42.44-20.33
				c0.86-0.08,1.67-0.15,2.5-0.19c0.54-0.04,1.09-0.07,1.66-0.09c0.46-0.01,0.92-0.03,1.38-0.03c0.14-0.01,0.33-0.01,0.5-0.01
				c0.61-0.03,1.27-0.03,1.91,0c0.16,0,0.34,0,0.52,0.02c0.41,0.01,0.88,0.01,1.34,0.03c0.56,0.02,1.11,0.04,1.67,0.09
				c0.82,0.04,1.64,0.12,2.46,0.19c16.05,1.6,31.14,8.84,42.54,20.37c12.9,13.07,20.01,30.4,20.01,48.78V131.54z M95.39,130.79
				h137.47c-0.1-18.05-7.12-35.04-19.79-47.88c-11.27-11.41-26.21-18.56-42.04-20.15c-0.83-0.07-1.64-0.15-2.47-0.19
				c-0.55-0.04-1.08-0.07-1.64-0.09c-0.45-0.01-0.91-0.03-1.36-0.03c-0.18-0.02-0.36-0.02-0.5-0.01c-0.33-0.01-0.64,0-0.96-0.01
				c-0.31,0-0.61,0-0.92,0.01c-0.17,0-0.33,0-0.48,0.01c-0.49,0-0.94,0.02-1.39,0.03c-0.55,0.01-1.09,0.04-1.63,0.09
				c-0.83,0.04-1.64,0.12-2.44,0.19c-15.89,1.59-30.8,8.73-42.02,20.12C102.53,95.74,95.49,112.74,95.39,130.79z"/>
			<path fill="#ECEFEF" d="M223.19,131.09v0.07H103.82v-0.07c0-17.31,7.38-32.91,19.15-43.82c5.5-5.1,11.98-9.17,19.11-11.91
				c4.98-1.93,10.3-3.19,15.85-3.7c1.84-0.18,3.7-0.26,5.59-0.26c2.32,0,4.62,0.13,6.86,0.4c5.92,0.68,11.57,2.22,16.83,4.5
				c6.42,2.78,12.27,6.66,17.29,11.41C216,98.58,223.19,114,223.19,131.09z"/>
			<path fill="#989FA1" d="M183.14,131.17v-0.07c0-11.64-1.62-23.64-4.82-35.66c-2.13-8.02-4.92-15.92-8.29-23.48
				c-1.98-4.43-3.7-7.71-4.79-9.69l-0.05-0.18l0.39-0.01l0.31-0.17c1.1,1.99,2.83,5.29,4.82,9.74c3.38,7.59,6.18,15.53,8.33,23.59
				c3.22,12.08,4.85,24.15,4.85,35.86L183.14,131.17z"/>
			<path fill="#989FA1" d="M215.47,131.17v-0.07c0-14.02-5.33-27.86-15.84-41.11c-3.6-4.53-7.86-9.04-12.67-13.4
				c-7.21-6.52-14.08-11.24-18.57-14.06l-0.14-0.09l0.41-0.63l0.1,0.06c4.54,2.85,11.45,7.6,18.71,14.16
				c4.84,4.39,9.13,8.93,12.76,13.49c10.62,13.39,16,27.38,16,41.58L215.47,131.17z"/>
			<path fill="#989FA1" d="M144.35,131.17v-0.07c0-11.74,1.64-23.81,4.86-35.89c2.16-8.12,4.97-16.09,8.37-23.69
				c2.12-4.74,3.9-8.06,4.76-9.61l0.31,0.18l0.39-0.01v0.1l-0.05,0.1c-0.86,1.54-2.62,4.84-4.73,9.55
				c-3.38,7.56-6.18,15.5-8.33,23.58c-3.21,12.01-4.84,24.02-4.84,35.69L144.35,131.17z"/>
			<path fill="#989FA1" d="M112.03,131.17v-0.07c0-14.22,5.4-28.22,16.04-41.61c3.94-4.96,8.57-9.8,13.76-14.39
				c6.96-6.13,13.43-10.57,17.63-13.21l0.54,0.54l-0.14,0.09c-4.18,2.62-10.61,7.03-17.53,13.13c-5.15,4.56-9.75,9.37-13.67,14.3
				c-10.54,13.25-15.88,27.09-15.88,41.14L112.03,131.17z"/>
			<path fill="#989FA1" d="M164.2,96.66c-19.16,0-35.8-4.62-49.46-13.75l0.42-0.62c13.53,9.04,30.03,13.62,49.04,13.62
				c18.98,0,35.45-4.57,48.93-13.58l0.42,0.62C199.94,92.05,183.33,96.66,164.2,96.66z"/>
			<rect x="95.02" y="130.79" fill="#989FA1" width="138.22" height="0.75"/>
		</g>
		<g>
			<path fill="#989FA1" d="M129.29,12.81l-4.11-12.12L77.77,16.76l4.96,14.62l0.71-0.24l-4.72-13.91l45.99-15.58l14.59,42.96
				l-16.07,5.46c-2.13-5.04-7.76-7.59-13.02-5.82c-5.22,1.78-8.13,7.23-6.76,12.53L93.3,60.22l-3.44-10.14l-0.71,0.25l3.56,10.49
				l0.12,0.36l11.54-3.92l-0.1-0.35c-1.49-5.01,1.23-10.26,6.22-11.96c4.96-1.67,10.3,0.84,12.17,5.72l0.13,0.34l17.46-5.93
				L129.29,12.81z"/>
			<path fill="#989FA1" d="M139.55,45.32l-0.12-0.35l-10.96-32.27l14.89-5.05l12.5,7.09l6.68,1.56L169,35.32l-5.58,1.89l-0.13-0.34
				c-1.88-4.85-7.22-7.35-12.16-5.69c-4.97,1.7-7.69,6.93-6.22,11.93l0.1,0.35L139.55,45.32z M129.42,13.16l10.6,31.21l4.07-1.38
				c-1.35-5.28,1.56-10.72,6.77-12.49c5.24-1.76,10.87,0.78,13,5.79l4.19-1.42l-6.09-17.93l-6.43-1.52l-12.26-6.95L129.42,13.16z"/>
			<path fill="#ECEFEF" d="M82.48,19.08l40.39-13.69l12.69,37.37l-10.94,3.71c-3.33-4.8-9.51-6.99-15.31-5.04
				c-5.83,1.99-9.41,7.5-9.13,13.34l-5.02,1.7L82.48,19.08z"/>
			<path fill="#989FA1" d="M113.58,62.22c-1.22,0-2.43-0.28-3.55-0.83c-1.93-0.95-3.38-2.6-4.07-4.64c-0.04-0.13-0.09-0.27-0.12-0.4
				c-1.17-4.12,1.1-8.43,5.15-9.81c4.09-1.37,8.51,0.67,10.09,4.65c0.05,0.13,0.1,0.26,0.14,0.39l0,0
				c1.43,4.21-0.83,8.79-5.04,10.22C115.33,62.07,114.46,62.22,113.58,62.22z M113.6,46.84c-0.77,0-1.56,0.12-2.33,0.38
				c-3.7,1.26-5.76,5.17-4.7,8.91c0.03,0.12,0.07,0.24,0.11,0.36c0.63,1.85,1.94,3.35,3.69,4.21c1.75,0.86,3.73,0.99,5.58,0.36
				c3.82-1.29,5.87-5.45,4.57-9.27l0,0c-0.04-0.12-0.08-0.24-0.13-0.36C119.25,48.6,116.51,46.84,113.6,46.84z"/>
			<path fill="#ECEFEF" d="M115.46,59.68c-3.04,1.03-6.35-0.61-7.38-3.65c-0.03-0.09-0.06-0.19-0.09-0.28
				c-0.85-2.99,0.79-6.11,3.73-7.11l0.02-0.01c2.94-0.99,6.13,0.49,7.28,3.37c0.04,0.1,0.07,0.19,0.1,0.29
				c0.5,1.48,0.4,3.06-0.29,4.45c-0.69,1.4-1.88,2.44-3.36,2.94L115.46,59.68z"/>
			<path fill="#ECEFEF" d="M156.16,45.9c-3.04,1.03-6.35-0.61-7.38-3.65c-0.03-0.09-0.06-0.19-0.09-0.28
				c-0.85-2.99,0.79-6.11,3.73-7.11l0.02-0.01c2.94-0.99,6.13,0.49,7.28,3.37c0.04,0.1,0.07,0.19,0.1,0.29
				c0.5,1.48,0.4,3.06-0.29,4.45c-0.69,1.4-1.88,2.44-3.36,2.94L156.16,45.9z"/>
			<path fill="#989FA1" d="M154.22,48.46c-1.22,0-2.43-0.28-3.55-0.83c-1.93-0.95-3.38-2.6-4.07-4.64
				c-0.05-0.15-0.09-0.29-0.13-0.44c-1.14-4.11,1.13-8.4,5.16-9.78c4.07-1.37,8.48,0.66,10.07,4.61c0.06,0.14,0.11,0.29,0.16,0.43
				l0,0c1.43,4.21-0.83,8.79-5.04,10.22C155.97,48.32,155.09,48.46,154.22,48.46z M154.23,33.09c-0.77,0-1.56,0.12-2.33,0.38
				c-3.69,1.26-5.74,5.15-4.71,8.88c0.04,0.13,0.08,0.27,0.12,0.4c0.63,1.85,1.94,3.35,3.69,4.21c1.75,0.86,3.73,0.99,5.58,0.36
				c3.82-1.29,5.87-5.45,4.57-9.27l0,0c-0.04-0.13-0.09-0.27-0.15-0.39C159.87,34.83,157.13,33.09,154.23,33.09z"/>
			
				<rect x="66.09" y="35.66" transform="matrix(0.9472 -0.3205 0.3205 0.9472 -7.401 27.1087)" fill="#989FA1" width="25.1" height="0.75"/>
			
				<rect x="70.53" y="48.76" transform="matrix(0.9472 -0.3205 0.3205 0.9472 -11.3663 29.2212)" fill="#989FA1" width="25.1" height="0.75"/>
			
				<rect x="72.56" y="40.77" transform="matrix(0.9472 -0.3205 0.3205 0.9472 -8.6991 29.45)" fill="#989FA1" width="25.1" height="0.75"/>
		</g>
	</g>
</g>
<g id="Layer_2">
</g>
<g id="Layer_3">
</g>
<g id="Layer_4">
</g>
<g id="Layer_5">
</g>
<g id="Layer_6">
</g>
</svg>
