<?xml version="1.0" encoding="utf-8"?>
<!-- Generator: Adobe Illustrator 22.0.1, SVG Export Plug-In . SVG Version: 6.00 Build 0)  -->
<svg version="1.1" xmlns="http://www.w3.org/2000/svg" xmlns:xlink="http://www.w3.org/1999/xlink" x="0px" y="0px" width="300px"
	 height="126px" viewBox="0 0 300 126" enable-background="new 0 0 300 126" xml:space="preserve">
<g id="Layer_1">
	<path fill="#ECEFEF" d="M20.99,53.39c-9.43,0-14.51-3.28-14.51-4.62V22.92c0-1.34,5.08-4.62,14.51-4.62
		c9.43,0,14.51,3.28,14.51,4.62v25.85C35.5,50.11,30.41,53.39,20.99,53.39z"/>
	<path fill="#ECEFEF" d="M262.99,53.39c-9.43,0-14.51-3.28-14.51-4.62V22.92c0-1.34,5.08-4.62,14.51-4.62
		c9.43,0,14.51,3.28,14.51,4.62v25.85C277.5,50.11,272.41,53.39,262.99,53.39z"/>
	<g>
		<polygon fill="#989FA1" points="262.86,93.47 215.96,93.47 215.96,92.72 262.11,92.72 262.11,83.32 262.86,83.32 		"/>
		<polygon fill="#989FA1" points="64.84,93.47 20.05,93.47 20.05,83.32 20.8,83.32 20.8,92.72 64.84,92.72 		"/>
		<g>
			<g>
				<rect id="Screen_3_" x="83.59" y="42.97" fill="#EEE679" width="113.33" height="70.83"/>
				<path fill="#989FA1" d="M197.29,114.17H83.21V42.59h114.08V114.17z M83.96,113.42h112.58V43.34H83.96V113.42z"/>
				<path fill="#989FA1" d="M196.13,124.63H84.38c-13.14,0-19.2-2.97-19.45-3.09l-0.21-0.1v-1.62h151.07v1.62l-0.21,0.1
					C215.33,121.66,209.28,124.63,196.13,124.63z M65.47,120.96c1.17,0.51,7.28,2.92,18.91,2.92h111.76
					c11.63,0,17.74-2.41,18.91-2.92v-0.4H65.47V120.96z"/>
				<path fill="#989FA1" d="M140.25,41.22c-0.61,0-1.11-0.5-1.11-1.11s0.5-1.11,1.11-1.11s1.11,0.5,1.11,1.11
					S140.87,41.22,140.25,41.22z M140.25,39.76c-0.2,0-0.36,0.16-0.36,0.36c0,0.2,0.16,0.36,0.36,0.36c0.2,0,0.36-0.16,0.36-0.36
					C140.61,39.92,140.45,39.76,140.25,39.76z"/>
				<path fill="#989FA1" d="M153.24,122.43h-25.97c-1.07,0-1.94-0.87-1.94-1.94v-0.68h29.85v0.68
					C155.18,121.56,154.31,122.43,153.24,122.43z M126.08,120.56c0.04,0.62,0.56,1.12,1.19,1.12h25.97c0.63,0,1.15-0.5,1.19-1.12
					H126.08z"/>
				<path fill="#989FA1" d="M203.57,120.55H76.87V41c0-2.57,2.09-4.65,4.65-4.65h117.39c2.57,0,4.65,2.09,4.65,4.65V120.55z
					 M77.62,119.8h125.2V41c0-2.15-1.75-3.9-3.9-3.9H81.52c-2.15,0-3.9,1.75-3.9,3.9V119.8z"/>
			</g>
		</g>
		<g>
			<path fill="#989FA1" d="M262.48,31.83c-10.03,0-17.89-3.51-17.89-7.99s7.86-7.99,17.89-7.99s17.89,3.51,17.89,7.99
				S272.51,31.83,262.48,31.83z M262.48,16.6c-9.45,0-17.14,3.25-17.14,7.24s7.69,7.24,17.14,7.24s17.14-3.25,17.14-7.24
				S271.93,16.6,262.48,16.6z"/>
			<g>
				<path fill="#989FA1" d="M262.48,40.45c-10.03,0-17.89-3.51-17.89-7.99h0.75c0,3.99,7.69,7.24,17.14,7.24s17.14-3.25,17.14-7.24
					h0.75C280.37,36.94,272.51,40.45,262.48,40.45z"/>
				<path fill="#989FA1" d="M262.48,49.07c-10.03,0-17.89-3.51-17.89-7.99h0.75c0,3.99,7.69,7.24,17.14,7.24s17.14-3.25,17.14-7.24
					h0.75C280.37,45.56,272.51,49.07,262.48,49.07z"/>
				<path fill="#989FA1" d="M262.48,57.69c-10.03,0-17.89-3.51-17.89-7.99V23.84h0.75c0,3.99,7.69,7.24,17.14,7.24
					s17.14-3.25,17.14-7.24h0.75V49.7C280.37,54.18,272.51,57.69,262.48,57.69z M245.34,26.18V49.7c0,3.99,7.69,7.24,17.14,7.24
					s17.14-3.25,17.14-7.24V26.18c-2.19,3.31-8.94,5.65-17.14,5.65S247.53,29.49,245.34,26.18z"/>
				<path fill="#989FA1" d="M248.97,33.98c-0.84,0-1.52-0.68-1.52-1.52c0-0.84,0.68-1.52,1.52-1.52c0.84,0,1.52,0.68,1.52,1.52
					C250.49,33.3,249.81,33.98,248.97,33.98z M248.97,31.69c-0.43,0-0.77,0.35-0.77,0.77s0.35,0.77,0.77,0.77
					c0.43,0,0.77-0.35,0.77-0.77S249.39,31.69,248.97,31.69z"/>
				<path fill="#989FA1" d="M248.97,42.6c-0.84,0-1.52-0.68-1.52-1.52c0-0.84,0.68-1.52,1.52-1.52c0.84,0,1.52,0.68,1.52,1.52
					C250.49,41.92,249.81,42.6,248.97,42.6z M248.97,40.31c-0.43,0-0.77,0.35-0.77,0.77s0.35,0.77,0.77,0.77
					c0.43,0,0.77-0.35,0.77-0.77S249.39,40.31,248.97,40.31z"/>
				<path fill="#989FA1" d="M248.97,51.22c-0.84,0-1.52-0.68-1.52-1.52s0.68-1.52,1.52-1.52c0.84,0,1.52,0.68,1.52,1.52
					S249.81,51.22,248.97,51.22z M248.97,48.93c-0.43,0-0.77,0.35-0.77,0.77s0.35,0.77,0.77,0.77c0.43,0,0.77-0.35,0.77-0.77
					S249.39,48.93,248.97,48.93z"/>
			</g>
		</g>
		<g>
			<g>
				<path fill="#989FA1" d="M262.48,71.16c-9.32,0-18.08-3.63-24.67-10.22c-6.59-6.59-10.22-15.35-10.22-24.67
					c0-9.32,3.63-18.08,10.22-24.67c6.59-6.59,15.35-10.22,24.67-10.22s18.08,3.63,24.67,10.22l0,0
					c6.59,6.59,10.22,15.35,10.22,24.67c0,9.32-3.63,18.08-10.22,24.67C280.56,67.53,271.8,71.16,262.48,71.16z M262.48,2.13
					c-9.12,0-17.69,3.55-24.14,10c-6.45,6.45-10,15.02-10,24.14c0,9.12,3.55,17.69,10,24.14c6.45,6.45,15.02,10,24.14,10
					s17.69-3.55,24.14-10c6.45-6.45,10-15.02,10-24.14c0-9.12-3.55-17.69-10-24.14l0,0C280.18,5.68,271.6,2.13,262.48,2.13z"/>
			</g>
			
				<rect x="262.11" y="1.75" transform="matrix(0.7071 -0.7071 0.7071 0.7071 51.2348 196.227)" fill="#989FA1" width="0.75" height="69.04"/>
		</g>
		<g>
			<path fill="#989FA1" d="M20.51,31.55c-10.03,0-17.89-3.51-17.89-7.99s7.86-7.99,17.89-7.99s17.89,3.51,17.89,7.99
				S30.54,31.55,20.51,31.55z M20.51,16.31c-9.45,0-17.14,3.25-17.14,7.24s7.69,7.24,17.14,7.24s17.14-3.25,17.14-7.24
				S29.96,16.31,20.51,16.31z"/>
			<g>
				<path fill="#989FA1" d="M20.51,40.17c-10.03,0-17.89-3.51-17.89-7.99h0.75c0,3.99,7.69,7.24,17.14,7.24s17.14-3.25,17.14-7.24
					h0.75C38.4,36.65,30.54,40.17,20.51,40.17z"/>
				<path fill="#989FA1" d="M20.51,48.79c-10.03,0-17.89-3.51-17.89-7.99h0.75c0,3.99,7.69,7.24,17.14,7.24s17.14-3.25,17.14-7.24
					h0.75C38.4,45.27,30.54,48.79,20.51,48.79z"/>
				<path fill="#989FA1" d="M20.51,57.4c-10.03,0-17.89-3.51-17.89-7.99V23.55h0.75c0,3.99,7.69,7.24,17.14,7.24
					s17.14-3.25,17.14-7.24h0.75v25.86C38.4,53.89,30.54,57.4,20.51,57.4z M3.38,25.89v23.52c0,3.99,7.69,7.24,17.14,7.24
					s17.14-3.25,17.14-7.24V25.89c-2.19,3.31-8.94,5.65-17.14,5.65S5.56,29.2,3.38,25.89z"/>
				<path fill="#989FA1" d="M7,33.69c-0.84,0-1.52-0.68-1.52-1.52c0-0.84,0.68-1.52,1.52-1.52s1.52,0.68,1.52,1.52
					C8.52,33.01,7.84,33.69,7,33.69z M7,31.4c-0.43,0-0.77,0.35-0.77,0.77S6.57,32.94,7,32.94s0.77-0.35,0.77-0.77S7.42,31.4,7,31.4
					z"/>
				<path fill="#989FA1" d="M7,42.31c-0.84,0-1.52-0.68-1.52-1.52c0-0.84,0.68-1.52,1.52-1.52s1.52,0.68,1.52,1.52
					C8.52,41.63,7.84,42.31,7,42.31z M7,40.02c-0.43,0-0.77,0.35-0.77,0.77S6.57,41.56,7,41.56s0.77-0.35,0.77-0.77
					S7.42,40.02,7,40.02z"/>
				<path fill="#989FA1" d="M7,50.93c-0.84,0-1.52-0.68-1.52-1.52c0-0.84,0.68-1.52,1.52-1.52s1.52,0.68,1.52,1.52
					C8.52,50.25,7.84,50.93,7,50.93z M7,48.64c-0.43,0-0.77,0.35-0.77,0.77S6.57,50.18,7,50.18s0.77-0.35,0.77-0.77
					S7.42,48.64,7,48.64z"/>
			</g>
		</g>
		<g>
			<path fill="#FFFFFF" stroke="#FFFFFF" stroke-width="0.5" stroke-miterlimit="10" d="M149.98,85.08h-19.91l2.18-5.06l-6-14.99
				h-4.43c-0.21,0-0.38-0.17-0.38-0.38s0.17-0.38,0.38-0.38h4.93l6.3,15.75l-1.85,4.3h18.77c0.21,0,0.38,0.17,0.38,0.38
				S150.18,85.08,149.98,85.08z"/>
			<path fill="#FFFFFF" stroke="#FFFFFF" stroke-width="0.5" stroke-miterlimit="10" d="M132.41,80.42l-4.88-12.28h27.09
				l-2.42,10.74L132.41,80.42z M128.63,68.88l4.27,10.74l18.68-1.46l2.09-9.28H128.63z"/>
			<path fill="#FFFFFF" stroke="#FFFFFF" stroke-width="0.5" stroke-miterlimit="10" d="M134.94,93.24c-1.79,0-3.24-1.46-3.24-3.24
				s1.46-3.24,3.24-3.24s3.24,1.46,3.24,3.24S136.73,93.24,134.94,93.24z M134.94,87.5c-1.38,0-2.49,1.12-2.49,2.49
				s1.12,2.49,2.49,2.49s2.49-1.12,2.49-2.49S136.32,87.5,134.94,87.5z"/>
			<path fill="#FFFFFF" stroke="#FFFFFF" stroke-width="0.5" stroke-miterlimit="10" d="M145.77,93.24c-1.79,0-3.24-1.46-3.24-3.24
				s1.46-3.24,3.24-3.24s3.24,1.46,3.24,3.24S147.56,93.24,145.77,93.24z M145.77,87.5c-1.38,0-2.49,1.12-2.49,2.49
				s1.12,2.49,2.49,2.49s2.49-1.12,2.49-2.49S147.15,87.5,145.77,87.5z"/>
			
				<rect x="137.42" y="68.61" fill="#FFFFFF" stroke="#FFFFFF" stroke-width="0.5" stroke-miterlimit="10" width="0.75" height="10.97"/>
			
				<rect x="145.72" y="68.51" fill="#FFFFFF" stroke="#FFFFFF" stroke-width="0.5" stroke-miterlimit="10" width="0.75" height="10.4"/>
			
				<rect x="130.41" y="73.39" transform="matrix(0.9994 -0.0342 0.0342 0.9994 -2.437 4.8814)" fill="#FFFFFF" stroke="#FFFFFF" stroke-width="0.5" stroke-miterlimit="10" width="22.46" height="0.75"/>
		</g>
	</g>
</g>
<g id="Layer_2">
</g>
<g id="Layer_3">
</g>
<g id="Layer_4">
</g>
<g id="Layer_5">
</g>
<g id="Layer_6">
</g>
</svg>
