<?xml version="1.0" encoding="utf-8"?>
<!-- Generator: Adobe Illustrator 22.0.1, SVG Export Plug-In . SVG Version: 6.00 Build 0)  -->
<svg version="1.1" xmlns="http://www.w3.org/2000/svg" xmlns:xlink="http://www.w3.org/1999/xlink" x="0px" y="0px" width="300px"
	 height="122.83px" viewBox="0 0 300 122.83" enable-background="new 0 0 300 122.83" xml:space="preserve">
<g id="Layer_1">
	<g>
		<g>
			<path fill="#B7B7B7" d="M136.08,87.79v16.19c0,0-1.6-3.01-4.75-4.5c1.38-3.5,0.85-8.94-4.62-11.8
				c-6.19-3.24-12.94,0.5-14.24,4.56c-6.1-2.68-13.26-2.91-18.74-1.27c-8.48,2.54-11.43,6.79-12.98,10.13
				c-8.06-0.22-11.19,3.98-11.72,4.8c-0.01-0.17-0.02-0.34-0.02-0.51v-17.6c0-3.48,2.85-6.33,6.33-6.33h54.41
				C133.23,81.46,136.08,84.31,136.08,87.79z"/>
			<polygon fill="#B7B7B7" points="80.1,110.68 80.1,112.37 76.64,112.37 76.64,121.24 74.76,121.24 74.76,112.37 71.34,112.37 
				71.34,110.68 			"/>
			<path fill="#B7B7B7" d="M85.88,117.28c-0.03-0.87,0.04-3-1.63-3.62c-0.96-0.35-1.87-0.52-4.07,0.16l0.44,1.44
				c0,0,3.03-1.31,3.4,0.92c-2.51-0.28-4.76,0.59-4.64,2.87c0.14,2.51,2.32,2.38,2.5,2.39c0.18,0.01,1.73,0.13,2.34-1.03
				c0.09,1.03,1.58,1.4,2.23,0.41C85.63,120.36,85.92,118.33,85.88,117.28z M82.64,119.97c-1.84,0.01-1.39-1.49-1.39-1.49
				s0.35-1.32,2.75-0.83C84,117.65,84.48,119.96,82.64,119.97z"/>
			<polygon fill="#B7B7B7" points="94.86,121.23 92.69,121.23 90.85,118.7 89.01,121.23 86.84,121.23 89.8,117.26 87.15,113.61 
				89.16,113.61 90.85,115.86 92.54,113.61 94.55,113.61 91.89,117.26 			"/>
			<path fill="#B7B7B7" d="M102.55,118.76c-0.55,0.74-1.4,1.03-2.27,1.03c-1.65,0-2.99-1.69-2.99-3.78c0-2.09,1.34-3.78,2.99-3.78
				c0.71,0,1.51,0.07,2.02,0.59c0.01,0.01,0.03,0.03,0.04,0.04l0.79-1.57c-0.79-0.65-1.86-0.7-2.92-0.7c-2.66,0-4.81,2.04-4.81,5.47
				c0,3.72,2.12,5.4,4.78,5.35c1.37-0.03,2.46-0.44,3.25-1.16L102.55,118.76z"/>
			<path fill="#B7B7B7" d="M105.32,110.69l1.78-0.44v8.77c0,0.4,0.08,0.8,0.27,1.16c0.14,0.27,0.32,0.48,0.53,0.38
				c-0.02,0.45-0.61,0.83-1.37,0.83s-1.22-0.75-1.25-1.17C105.27,119.76,105.36,110.65,105.32,110.69z"/>
			<path fill="#B7B7B7" d="M112.5,113.41c-2.54,0-3.66,1.75-3.66,3.98c0,2.23,1.25,3.96,3.71,3.96c2.41,0,3.62-1.73,3.62-3.96
				C116.16,115.16,115.04,113.41,112.5,113.41z M112.47,119.99c-1.07,0-1.94-1.16-1.94-2.6c0-1.44,0.87-2.6,1.94-2.6
				c1.07,0,1.94,1.16,1.94,2.6C114.41,118.83,113.54,119.99,112.47,119.99z"/>
			<path fill="#B7B7B7" d="M117.76,113.56h1.69v4.94c0,0.28,0.05,0.55,0.18,0.8c0.2,0.41,0.67,0.73,1.53,0.65
				c0.29-0.03,0.51-0.15,0.7-0.23c0.54-0.25,0.88-0.79,0.88-1.38l0-4.74h1.72v7.68h-1.75v-0.69c0,0-1.16,0.84-2.61,0.81
				c-1.23-0.03-1.93-0.66-2.24-1.68c-0.1-0.31-0.13-0.64-0.13-0.96C117.74,117.13,117.76,113.56,117.76,113.56z"/>
			<path fill="#B7B7B7" d="M131.3,110.72l-0.02,3.04c0,0-0.89-0.33-1.81-0.33c-0.92,0-3.48,0.73-3.51,3.9
				c-0.03,3.17,2.01,4.14,3.42,4.12c1.41-0.02,1.92-0.73,1.92-0.73v0.59h1.78v-11.08L131.3,110.72z M131.3,119.46
				c0,0-0.59,0.47-1.62,0.42c-1.03-0.05-1.92-0.98-1.89-2.65c0.03-1.67,1.29-2.31,2.06-2.32c0.76-0.02,1.45,0.55,1.45,0.55V119.46z"
				/>
		</g>
		<g>
			<path fill="#B7B7B7" d="M164.45,102.6c0,1.04,0.96,1.87,2.13,1.87c1.17,0,2.13-0.83,2.13-1.87s-0.96-1.87-2.13-1.87
				C165.41,100.73,164.45,101.58,164.45,102.6z M165.65,102.6c0-0.47,0.44-0.83,0.96-0.83c0.52,0,0.96,0.36,0.96,0.83
				s-0.44,0.83-0.96,0.83C166.06,103.45,165.65,103.06,165.65,102.6z M168.71,107.29c0,1.04,0.96,1.87,2.13,1.87
				c1.17,0,2.13-0.83,2.13-1.87c0-1.04-0.96-1.87-2.13-1.87C169.64,105.42,168.71,106.25,168.71,107.29z M169.87,107.29
				c0-0.47,0.44-0.83,0.96-0.83c0.52,0,0.96,0.39,0.96,0.83c0,0.47-0.44,0.83-0.96,0.83C170.29,108.15,169.87,107.76,169.87,107.29z
				"/>
			<path fill="#B7B7B7" d="M175.66,100.05c0-0.47-0.62-0.65-1.01-0.36c-3.89,2.98-7.81,5.97-11.7,8.95v-4.25v-3.14
				c0-0.6,0.05-1.09,0.57-1.53c0.18-0.16,0.44-0.23,0.65-0.31c0.05-0.03,0.54-0.1,0.31-0.08h0.05c1.14,0.36,2.7,0.54,4.18,0.54
				c2.85,0,5.91-0.65,5.91-2.08v-1.97c0-1.43-3.06-2.08-5.91-2.08s-5.91,0.65-5.91,2.08v1.95c0,0.34,0.16,0.62,0.47,0.88
				c-0.42,0.21-0.78,0.49-1.06,0.86c-0.73,0.91-0.42,2.49-0.42,3.55v6.72c0,0.47,0.62,0.65,1.01,0.36c3.89-2.98,7.81-5.97,11.7-8.95
				v6.56c0,0.52,0.1,1.12-0.1,1.61c-0.26,0.73-1.3,1.19-2.02,1.45c-2.54,0.88-5.63,0.78-8.07-0.31c-0.67-0.31-1.25,0.65-0.6,0.88
				c2.7,1.01,5.14,1.14,8.09,0.65c1.5-0.26,3.76-1.32,3.84-2.96C175.79,106.07,175.66,103.06,175.66,100.05z M168.71,94.79
				c3.11,0,4.75,0.78,4.75,1.04c0,0.26-1.63,1.04-4.75,1.04s-4.75-0.78-4.75-1.04C163.96,95.57,165.59,94.79,168.71,94.79z
				 M163.96,97.15c1.14,0.52,2.98,0.78,4.75,0.78s3.61-0.26,4.75-0.78v0.65c0,0.26-1.63,1.04-4.75,1.04s-4.75-0.78-4.75-1.04V97.15z
				 M181.96,97.87h-4.85v-1.79h11.65v1.79h-4.85v12.5h-1.95V97.87z"/>
			<path fill="#B7B7B7" d="M191.64,109.18c-0.36,0.49-0.8,0.88-1.4,1.12c-0.57,0.23-1.17,0.36-1.79,0.36
				c-0.39,0-0.78-0.05-1.17-0.16c-0.39-0.1-0.73-0.29-1.06-0.54c-0.31-0.26-0.57-0.57-0.78-0.96s-0.29-0.88-0.29-1.45
				c0-1.06,0.36-1.92,1.06-2.57c0.7-0.65,1.74-0.96,3.09-0.96c0.21,0,0.44,0,0.7,0.03c0.23,0.03,0.47,0.03,0.7,0.05
				c0.21,0.03,0.42,0.03,0.57,0.05s0.29,0.03,0.34,0.05v-0.36c0-0.75-0.21-1.27-0.65-1.61c-0.42-0.31-1.01-0.49-1.74-0.49
				s-1.3,0.1-1.71,0.31c-0.42,0.21-0.78,0.42-1.06,0.62l-0.86-1.3c0.16-0.13,0.36-0.29,0.6-0.44c0.23-0.13,0.49-0.29,0.8-0.39
				c0.31-0.13,0.67-0.23,1.06-0.31c0.39-0.08,0.86-0.13,1.35-0.13c1.22,0,2.18,0.31,2.88,0.93c0.7,0.62,1.04,1.5,1.04,2.65v5.81
				c0,0.34,0,0.65,0.03,0.88h-1.71V109.18z M191.64,105.66c-0.05-0.03-0.16-0.03-0.31-0.05c-0.16-0.03-0.34-0.05-0.54-0.05
				c-0.21-0.03-0.42-0.03-0.65-0.05s-0.47-0.03-0.67-0.03c-0.52,0-0.93,0.05-1.25,0.18c-0.31,0.13-0.57,0.29-0.75,0.49
				c-0.18,0.18-0.31,0.42-0.36,0.65c-0.08,0.23-0.1,0.47-0.1,0.67c0,0.54,0.18,0.96,0.52,1.25c0.36,0.29,0.83,0.42,1.45,0.42
				c0.36,0,0.67-0.05,1.01-0.18c0.31-0.13,0.6-0.31,0.83-0.52c0.23-0.21,0.44-0.47,0.6-0.75s0.23-0.57,0.23-0.88V105.66z
				 M198.43,105.24l-3.4-4.82h2.28l2.28,3.29l2.23-3.29h2.02l-3.29,4.67l3.76,5.29h-2.28l-2.62-3.76l-2.57,3.76h-2.08L198.43,105.24
				z"/>
			<path fill="#B7B7B7" d="M206.16,107.5c0.39,0.47,0.78,0.8,1.19,1.04c0.39,0.21,0.88,0.31,1.43,0.31c0.34,0,0.62-0.05,0.91-0.16
				c0.29-0.1,0.52-0.29,0.75-0.49c0.21-0.23,0.39-0.52,0.52-0.88s0.18-0.78,0.18-1.3v-9.93h1.95v10.09c0,0.83-0.1,1.53-0.34,2.1
				c-0.23,0.57-0.54,1.04-0.93,1.43c-0.39,0.36-0.83,0.62-1.35,0.8c-0.52,0.16-1.06,0.26-1.63,0.26c-1.01,0-1.82-0.18-2.46-0.54
				s-1.17-0.83-1.58-1.43L206.16,107.5L206.16,107.5z M220.72,109.18c-0.36,0.49-0.8,0.88-1.4,1.12c-0.57,0.23-1.17,0.36-1.76,0.36
				c-0.39,0-0.78-0.05-1.17-0.16c-0.39-0.1-0.73-0.29-1.06-0.54c-0.31-0.26-0.57-0.57-0.78-0.96c-0.21-0.39-0.29-0.88-0.29-1.45
				c0-1.06,0.36-1.92,1.06-2.57c0.7-0.65,1.74-0.96,3.09-0.96c0.21,0,0.44,0,0.7,0.03c0.23,0.03,0.47,0.03,0.7,0.05
				c0.21,0.03,0.42,0.03,0.57,0.05s0.29,0.03,0.34,0.05v-0.36c0-0.75-0.21-1.27-0.65-1.61c-0.42-0.31-1.01-0.49-1.74-0.49
				s-1.3,0.1-1.71,0.31c-0.42,0.21-0.78,0.42-1.06,0.62l-0.86-1.3c0.16-0.13,0.36-0.29,0.6-0.44c0.23-0.13,0.49-0.29,0.8-0.39
				c0.31-0.13,0.67-0.23,1.06-0.31c0.39-0.08,0.86-0.13,1.35-0.13c1.22,0,2.18,0.31,2.88,0.93c0.7,0.62,1.04,1.5,1.04,2.65v5.81
				c0,0.34,0,0.65,0.03,0.88h-1.71L220.72,109.18z M220.72,105.66c-0.05-0.03-0.16-0.03-0.31-0.05c-0.16-0.03-0.34-0.05-0.54-0.05
				c-0.21-0.03-0.42-0.03-0.65-0.05c-0.23-0.03-0.47-0.03-0.67-0.03c-0.52,0-0.93,0.05-1.25,0.18c-0.31,0.13-0.57,0.29-0.75,0.49
				c-0.18,0.18-0.31,0.42-0.36,0.65c-0.08,0.23-0.1,0.47-0.1,0.67c0,0.54,0.18,0.96,0.52,1.25c0.36,0.29,0.83,0.42,1.45,0.42
				c0.36,0,0.67-0.05,1.01-0.18c0.31-0.13,0.6-0.31,0.83-0.52c0.23-0.21,0.44-0.47,0.6-0.75s0.23-0.57,0.23-0.88V105.66z
				 M223.96,110.38v-9c0-0.31,0-0.65-0.03-0.96h1.74l0.05,1.61c0.1-0.18,0.26-0.36,0.42-0.57c0.18-0.21,0.39-0.39,0.65-0.57
				c0.26-0.18,0.54-0.31,0.88-0.44c0.34-0.13,0.7-0.18,1.14-0.18c0.21,0,0.39,0.03,0.57,0.05s0.34,0.08,0.47,0.13l-0.42,1.79
				c-0.23-0.1-0.54-0.16-0.93-0.16c-0.39,0-0.75,0.08-1.09,0.23c-0.34,0.16-0.62,0.36-0.86,0.65s-0.44,0.6-0.57,0.99
				c-0.13,0.36-0.21,0.75-0.21,1.17v5.24h-1.82L223.96,110.38z"/>
		</g>
		<g>
			<circle fill="#FFFFFF" cx="150.03" cy="29.04" r="27.67"/>
			<path fill="#989FA1" d="M150.03,57.09c-15.47,0-28.05-12.58-28.05-28.05s12.58-28.05,28.05-28.05s28.05,12.58,28.05,28.05
				S165.5,57.09,150.03,57.09z M150.03,1.74c-15.05,0-27.3,12.25-27.3,27.3s12.25,27.3,27.3,27.3s27.3-12.25,27.3-27.3
				S165.09,1.74,150.03,1.74z"/>
		</g>
		<path fill="#ECEFEF" d="M150.03,53.08C136.78,53.08,126,42.3,126,29.04c0-13.25,10.78-24.04,24.04-24.04
			c13.25,0,24.04,10.78,24.04,24.04C174.07,42.3,163.29,53.08,150.03,53.08z"/>
		<polygon fill="#989FA1" points="144.74,40.07 135.4,30.72 136.81,29.31 144.74,37.24 163.26,18.73 164.67,20.14 		"/>
		<rect x="149.59" y="56.76" fill="#989FA1" width="0.75" height="8.09"/>
		<rect x="243.3" y="64.84" fill="#989FA1" width="0.75" height="11.5"/>
		<polygon fill="#989FA1" points="56.7,76.34 55.95,76.34 55.95,64.47 243.67,64.47 243.67,65.22 56.7,65.22 		"/>
	</g>
</g>
<g id="Layer_2">
</g>
<g id="Layer_3">
</g>
<g id="Layer_4">
</g>
<g id="Layer_5">
</g>
<g id="Layer_6">
</g>
</svg>
