<?xml version="1.0" encoding="utf-8"?>
<!-- Generator: Adobe Illustrator 22.0.1, SVG Export Plug-In . SVG Version: 6.00 Build 0)  -->
<svg version="1.1" xmlns="http://www.w3.org/2000/svg" xmlns:xlink="http://www.w3.org/1999/xlink" x="0px" y="0px" width="300px"
	 height="155.04px" viewBox="0 0 300 155.04" enable-background="new 0 0 300 155.04" xml:space="preserve">
<g id="Layer_1">
	<g>
		<g>
			<g>
				<polygon fill="#989FA1" points="248.65,42.04 243.2,37.07 243.71,36.51 248.61,40.99 253.08,36.09 253.63,36.59 				"/>
				<path fill="#989FA1" d="M249.01,40.97h-0.75c0-19.18-15.6-34.78-34.78-34.78V5.44C233.07,5.44,249.01,21.38,249.01,40.97z"/>
			</g>
			<g>
				<polygon fill="#989FA1" points="218.03,154.3 212.58,149.32 217.56,143.87 218.11,144.37 213.64,149.27 218.54,153.74 				"/>
				<path fill="#989FA1" d="M213.65,149.67v-0.75c19.18,0,34.78-15.6,34.78-34.78h0.75C249.18,133.73,233.24,149.67,213.65,149.67z"
					/>
			</g>
			<g>
				<polygon fill="#989FA1" points="46.92,118.91 46.37,118.4 51.35,112.95 56.8,117.93 56.29,118.49 51.39,114.01 				"/>
				<path fill="#989FA1" d="M86.52,149.55c-19.59,0-35.53-15.94-35.53-35.53h0.75c0,19.18,15.6,34.78,34.78,34.78V149.55z"/>
			</g>
			<g>
				<polygon fill="#989FA1" points="82.86,11.17 82.3,10.66 86.78,5.77 81.88,1.29 82.38,0.74 87.84,5.72 				"/>
				<path fill="#989FA1" d="M51.98,40.89h-0.75c0-19.59,15.94-35.53,35.53-35.53v0.75C67.59,6.12,51.98,21.72,51.98,40.89z"/>
			</g>
		</g>
		<g>
			<g>
				<g>
					<g>
						<rect x="68.5" y="31.03" fill="#ECEFEF" width="161.86" height="100.09"/>
						<path fill="#989FA1" d="M230.74,131.49H68.13V30.65h162.61V131.49z M68.88,130.74h161.11V31.4H68.88V130.74z"/>
					</g>
				</g>
				<g>
					<path fill="#FFFFFF" d="M230.37,31.02H68.5v-5.38c0-1.2,0.97-2.17,2.17-2.17H228.2c1.2,0,2.17,0.97,2.17,2.17V31.02z"/>
					<path fill="#989FA1" d="M230.74,31.4H68.12v-5.76c0-1.4,1.14-2.55,2.55-2.55H228.2c1.4,0,2.55,1.14,2.55,2.55V31.4z
						 M68.87,30.65h161.12v-5.01c0-0.99-0.81-1.8-1.8-1.8H70.67c-0.99,0-1.8,0.81-1.8,1.8V30.65z"/>
				</g>
				<path fill="#989FA1" d="M225.27,28.5c-0.69,0-1.25-0.56-1.25-1.25s0.56-1.25,1.25-1.25s1.25,0.56,1.25,1.25
					S225.96,28.5,225.27,28.5z M225.27,26.75c-0.28,0-0.5,0.23-0.5,0.5s0.23,0.5,0.5,0.5s0.5-0.23,0.5-0.5
					S225.55,26.75,225.27,26.75z"/>
				<path fill="#989FA1" d="M221.29,28.5c-0.69,0-1.25-0.56-1.25-1.25S220.6,26,221.29,26s1.25,0.56,1.25,1.25
					S221.98,28.5,221.29,28.5z M221.29,26.75c-0.28,0-0.5,0.23-0.5,0.5s0.23,0.5,0.5,0.5s0.5-0.23,0.5-0.5
					S221.57,26.75,221.29,26.75z"/>
				<path fill="#989FA1" d="M217.32,28.5c-0.69,0-1.25-0.56-1.25-1.25s0.56-1.25,1.25-1.25s1.25,0.56,1.25,1.25
					S218.01,28.5,217.32,28.5z M217.32,26.75c-0.28,0-0.5,0.23-0.5,0.5s0.23,0.5,0.5,0.5s0.5-0.23,0.5-0.5
					S217.59,26.75,217.32,26.75z"/>
				<g>
					<path fill="#FFFFFF" d="M219.79,131.1H79.08V54.84c0-0.59,0.48-1.08,1.08-1.08h138.55c0.59,0,1.08,0.48,1.08,1.08V131.1z"/>
					<path fill="#989FA1" d="M220.16,131.48H78.71V54.84c0-0.8,0.65-1.45,1.45-1.45h138.55c0.8,0,1.45,0.65,1.45,1.45V131.48z
						 M79.46,130.73h139.96V54.84c0-0.39-0.31-0.7-0.7-0.7H80.16c-0.39,0-0.7,0.32-0.7,0.7V130.73z"/>
				</g>
				<g>
					<path fill="#FFFFFF" d="M101.19,47.26H80.03c-0.63,0-1.13-0.51-1.13-1.13v-5.87c0-0.63,0.51-1.13,1.13-1.13h21.16
						c0.63,0,1.13,0.51,1.13,1.13v5.87C102.32,46.75,101.81,47.26,101.19,47.26z"/>
					<path fill="#989FA1" d="M101.19,47.63H80.03c-0.83,0-1.51-0.68-1.51-1.51v-5.87c0-0.83,0.68-1.51,1.51-1.51h21.16
						c0.83,0,1.51,0.68,1.51,1.51v5.87C102.7,46.95,102.02,47.63,101.19,47.63z M80.03,39.5c-0.42,0-0.76,0.34-0.76,0.76v5.87
						c0,0.42,0.34,0.76,0.76,0.76h21.16c0.42,0,0.76-0.34,0.76-0.76v-5.87c0-0.42-0.34-0.76-0.76-0.76H80.03z"/>
				</g>
				<rect x="151.66" y="43.94" fill="#989FA1" width="14.31" height="0.75"/>
				<rect x="169.44" y="43.94" fill="#989FA1" width="14.31" height="0.75"/>
				<rect x="187.21" y="43.94" fill="#989FA1" width="14.31" height="0.75"/>
				<rect x="204.99" y="43.94" fill="#989FA1" width="14.31" height="0.75"/>
				<path fill="#EEE679" d="M170.36,77.85L152.3,67.43c-1.58-0.91-4.16-0.91-5.73,0l-18.06,10.43c-1.58,0.91-2.87,3.15-2.87,4.97
					v20.85c0,1.82,1.29,4.06,2.87,4.97l18.06,10.42c1.58,0.91,4.16,0.91,5.73,0l18.06-10.42c1.58-0.91,2.87-3.15,2.87-4.97V82.82
					C173.23,81,171.94,78.76,170.36,77.85z M165.49,89.08h-1.87V85.9c0-2.43-1.87-3.18-5.49-3.18h-0.17c-8.67,0-7.9-3.24-8.15-4.43
					h-0.13c-0.25,1.18,0.58,4.43-8.09,4.43h-0.23c-3.62,0-5.49,0.75-5.49,3.18v2.45l29.6,8.56v0.48h0.01v3.06
					c0,3.49-1.68,5.43-7.36,5.43h-0.29c-4.43,0-7.15,0.94-7.15,4.43h-1.87c0-3.49-2.72-4.43-7.15-4.43h-0.29
					c-5.68,0-7.36-1.93-7.36-5.43v-3.06h1.87v3.18c0,2.43,1.87,3.18,5.49,3.18h0.17c8.67,0,7.9,3.24,8.15,4.43h0.13
					c0.25-1.19-0.58-4.43,8.09-4.43h0.23c3.62,0,5.49-0.75,5.49-3.18v-1.83l-29.6-8.56v-1.1h0v-3.06c0-3.49,1.68-5.43,7.36-5.43
					h0.29c4.43,0,7.15-0.94,7.15-4.43h1.87c0,3.49,2.72,4.43,7.15,4.43h0.29c5.68,0,7.36,1.93,7.36,5.43V89.08z"/>
			</g>
		</g>
		<path fill="#EEE679" d="M170.47,77.94l-18.06-10.43c-1.58-0.91-4.16-0.91-5.73,0l-18.06,10.43c-1.58,0.91-2.87,3.15-2.87,4.97
			v20.85c0,1.82,1.29,4.06,2.87,4.97l18.06,10.42c1.58,0.91,4.16,0.91,5.73,0l18.06-10.42c1.58-0.91,2.87-3.15,2.87-4.97V82.91
			C173.33,81.09,172.04,78.85,170.47,77.94z M165.6,89.17h-1.87v-3.18c0-2.43-1.87-3.18-5.49-3.18h-0.17c-8.67,0-7.9-3.24-8.15-4.43
			h-0.13c-0.25,1.18,0.58,4.43-8.09,4.43h-0.23c-3.62,0-5.49,0.75-5.49,3.18v2.45l29.6,8.56v0.48h0.01v3.06
			c0,3.49-1.68,5.43-7.36,5.43h-0.29c-4.43,0-7.15,0.94-7.15,4.43h-1.87c0-3.49-2.72-4.43-7.15-4.43h-0.29
			c-5.68,0-7.36-1.93-7.36-5.43v-3.06h1.87v3.18c0,2.43,1.87,3.18,5.49,3.18h0.17c8.67,0,7.9,3.24,8.15,4.43h0.13
			c0.25-1.19-0.58-4.43,8.09-4.43h0.23c3.62,0,5.49-0.75,5.49-3.18v-1.83l-29.6-8.56v-1.1h0v-3.06c0-3.49,1.68-5.43,7.36-5.43h0.29
			c4.43,0,7.15-0.94,7.15-4.43h1.87c0,3.49,2.72,4.43,7.15,4.43h0.29c5.68,0,7.36,1.93,7.36,5.43V89.17z"/>
	</g>
</g>
<g id="Layer_2">
</g>
<g id="Layer_3">
</g>
<g id="Layer_4">
</g>
<g id="Layer_5">
</g>
<g id="Layer_6">
</g>
</svg>
