<?xml version="1.0" encoding="utf-8"?>
<!-- Generator: Adobe Illustrator 22.0.1, SVG Export Plug-In . SVG Version: 6.00 Build 0)  -->
<svg version="1.1" xmlns="http://www.w3.org/2000/svg" xmlns:xlink="http://www.w3.org/1999/xlink" x="0px" y="0px" width="300px"
	 height="152.67px" viewBox="0 0 300 152.67" enable-background="new 0 0 300 152.67" xml:space="preserve">
<g id="Layer_1">
	<g>
		<g>
			<g>
				<polygon fill="#FFFFFF" points="194.36,150.45 149.7,124.6 105.64,150.45 105.64,1.58 194.36,1.58 				"/>
				<path fill="#989FA1" d="M105.23,151.17v-150h89.54v150l-45.07-26.08L105.23,151.17z M149.7,124.13l0.21,0.12l44.05,25.49V1.99
					h-87.91v147.75L149.7,124.13z"/>
			</g>
			<polygon fill="#ECEFEF" points="149.68,117.02 112.19,139.01 112.19,8.13 187.81,8.13 187.81,139.09 			"/>
		</g>
		<g>
			<path fill="#989FA1" d="M123.82,88.72v-1.28c6.18-4.99,10.32-8.53,10.32-12.04c0-2.62-2.15-3.71-4.14-3.71
				c-2.26,0-4.01,0.98-4.99,2.37l-1.06-0.98c1.28-1.74,3.49-2.81,6.05-2.81c2.67,0,5.72,1.52,5.72,5.12c0,4-4.22,7.65-9.48,11.91
				h9.56v1.42H123.82z"/>
			<path fill="#989FA1" d="M141.53,86.08l1.04-1.04c1.17,1.66,2.75,2.59,5.1,2.59c2.64,0,4.55-1.91,4.55-4.39
				c0-2.75-1.91-4.44-4.52-4.44c-1.66,0-3.08,0.54-4.41,1.77l-1.17-0.49v-9.54h10.49v1.42h-8.94v7.11c0.9-0.87,2.45-1.69,4.33-1.69
				c3.05,0,5.8,2.02,5.8,5.8c0,3.62-2.78,5.86-6.13,5.86C144.64,89.05,142.78,87.87,141.53,86.08z"/>
			<path fill="#989FA1" d="M157.65,74.77c0-2.56,1.74-4.49,4.25-4.49c2.53,0,4.28,1.93,4.28,4.49c0,2.53-1.74,4.44-4.28,4.44
				C159.4,79.21,157.65,77.3,157.65,74.77z M164.93,74.77c0-1.91-1.23-3.43-3.02-3.43c-1.77,0-3,1.53-3,3.43
				c0,1.83,1.23,3.38,3,3.38C163.7,78.15,164.93,76.6,164.93,74.77z M160.22,88.72l11.61-18.17h1.25l-11.63,18.17H160.22z
				 M166.89,84.6c0-2.56,1.77-4.49,4.28-4.49s4.28,1.93,4.28,4.49c0,2.53-1.77,4.44-4.28,4.44S166.89,87.14,166.89,84.6z
				 M174.16,84.6c0-1.88-1.2-3.43-3-3.43c-1.8,0-3.02,1.55-3.02,3.43c0,1.85,1.23,3.38,3.02,3.38
				C172.97,87.98,174.16,86.46,174.16,84.6z"/>
		</g>
		<g>
			<path fill="#989FA1" d="M133.31,102.36c0-3.43,2.34-6.01,5.77-6.01c3.43,0,5.79,2.58,5.79,6.01c0,3.43-2.35,6.01-5.79,6.01
				C135.65,108.37,133.31,105.79,133.31,102.36z M143.37,102.36c0-2.72-1.69-4.72-4.29-4.72c-2.61,0-4.27,2-4.27,4.72
				c0,2.7,1.66,4.72,4.27,4.72C141.68,107.08,143.37,105.06,143.37,102.36z"/>
			<path fill="#989FA1" d="M147.99,108.16V96.53h7.62v1.29h-6.17v3.75h6.05v1.29h-6.05v5.3H147.99z"/>
			<path fill="#989FA1" d="M158.46,108.16V96.53h7.62v1.29h-6.17v3.75h6.05v1.29h-6.05v5.3H158.46z"/>
		</g>
		<g>
			<g>
				<rect x="147.38" y="20.95" fill="#FFFFFF" width="5.24" height="4.16"/>
				<path fill="#989FA1" d="M153.03,25.52h-6.06v-4.98h6.06V25.52z M147.79,24.7h4.42v-3.34h-4.42V24.7z"/>
			</g>
			<g>
				<rect x="143.3" y="16.79" fill="#FFFFFF" width="13.4" height="4.16"/>
				<path fill="#989FA1" d="M157.11,21.36h-14.22v-4.98h14.22V21.36z M143.71,20.54h12.58V17.2h-12.58V20.54z"/>
			</g>
			<g>
				<circle fill="#FFFFFF" cx="150" cy="41.07" r="17.1"/>
				<path fill="#989FA1" d="M150,58.58c-9.65,0-17.51-7.85-17.51-17.51s7.85-17.51,17.51-17.51c9.65,0,17.51,7.85,17.51,17.51
					S159.65,58.58,150,58.58z M150,24.39c-9.2,0-16.69,7.49-16.69,16.69S140.8,57.76,150,57.76s16.69-7.49,16.69-16.69
					S159.2,24.39,150,24.39z"/>
			</g>
			<circle fill="#ECEFEF" cx="150" cy="41.08" r="14.56"/>
			<polygon fill="#989FA1" points="139.09,47.4 138.7,46.68 149.59,40.83 149.59,28.19 150.41,28.19 150.41,41.32 			"/>
			<g>
				<circle fill="#ECEFEF" cx="150" cy="41.08" r="1.8"/>
				<path fill="#989FA1" d="M150,43.29c-1.22,0-2.21-0.99-2.21-2.21s0.99-2.21,2.21-2.21s2.21,0.99,2.21,2.21
					S151.22,43.29,150,43.29z M150,39.68c-0.77,0-1.39,0.62-1.39,1.39c0,0.77,0.62,1.39,1.39,1.39s1.39-0.62,1.39-1.39
					C151.39,40.31,150.77,39.68,150,39.68z"/>
			</g>
		</g>
	</g>
</g>
<g id="Layer_2">
</g>
<g id="Layer_3">
</g>
<g id="Layer_4">
</g>
<g id="Layer_5">
</g>
<g id="Layer_6">
</g>
</svg>
