<?xml version="1.0" encoding="utf-8"?>
<!-- Generator: Adobe Illustrator 22.0.1, SVG Export Plug-In . SVG Version: 6.00 Build 0)  -->
<svg version="1.1" xmlns="http://www.w3.org/2000/svg" xmlns:xlink="http://www.w3.org/1999/xlink" x="0px" y="0px" width="300px"
	 height="125px" viewBox="0 0 300 125" enable-background="new 0 0 300 125" xml:space="preserve">
<g id="Layer_1">
	<g>
		<path fill="#989FA1" d="M192.23,29.44L192.2,1.13L80.54,1.17l0.02,34.26h0.75L81.29,1.92l110.17-0.05l0.1,103.02l-39.09,0.03
			c-0.67-12.22-10.72-21.76-23.1-21.79c-12.31,0.04-22.34,9.6-22.99,21.83l-25.03,0.03l-0.01-24.56h-0.75l0.01,24.93v0.38l26.5-0.03
			l0.01-0.36c0.46-12,10.24-21.43,22.34-21.47c12.02,0.03,21.81,9.44,22.29,21.43l0.01,0.36l40.56-0.03L192.23,29.44z"/>
		<path fill="#989FA1" d="M191.56,105.64v-0.38l-0.07-76.2l34.69-0.03l21.44,24.01l12.95,8.05l0.04,44.49l-12.33,0.01l-0.02-0.36
			c-0.51-11.95-10.3-21.33-22.28-21.35c-12.06,0.03-21.84,9.43-22.34,21.38l-0.02,0.36L191.56,105.64z M192.23,29.81l0.07,75.08
			l10.58-0.01c0.69-12.19,10.72-21.71,22.99-21.74c12.34,0.02,22.38,9.53,23.09,21.71l10.87-0.01l-0.04-43.32l-12.72-7.93
			l-21.25-23.8L192.23,29.81z"/>
		<path fill="#ECEFEF" d="M88.41,9.04L184.33,9l0.09,88.77l-25.98,0.02c-3.63-12.64-15.23-21.76-28.98-21.79
			c-13.86,0.04-25.47,9.18-29.08,21.84l-11.92,0.01L88.41,9.04z"/>
		<path fill="#989FA1" d="M129.41,123.88c-4.71,0-9.13-1.83-12.46-5.15c-3.34-3.33-5.18-7.77-5.18-12.49c0-0.31,0.01-0.61,0.02-0.92
			c0.47-9.37,8.2-16.73,17.59-16.76c9.46,0.02,17.19,7.37,17.68,16.73c0.02,0.3,0.02,0.61,0.02,0.92l0,0
			c0,4.72-1.83,9.16-5.16,12.49c-3.33,3.34-7.76,5.18-12.48,5.18C129.43,123.88,129.42,123.88,129.41,123.88z M129.45,89.3
			c-9.05,0.02-16.46,7.07-16.91,16.05c-0.02,0.3-0.02,0.59-0.02,0.88c0,4.52,1.77,8.77,4.96,11.96c3.2,3.19,7.45,4.9,11.96,4.93
			c4.52,0,8.77-1.76,11.96-4.96c3.19-3.19,4.94-7.44,4.94-11.96l0,0c0-0.29-0.01-0.58-0.02-0.88
			C145.85,96.36,138.44,89.32,129.45,89.3z"/>
		<path fill="#ECEFEF" d="M129.41,119.33c-7.22,0-13.1-5.88-13.1-13.1c0-0.22,0-0.44,0.02-0.66c0.35-6.98,6.09-12.45,13.07-12.47
			h0.05c6.97,0.01,12.72,5.47,13.08,12.42c0.01,0.24,0.02,0.46,0.02,0.68c0,3.51-1.36,6.81-3.83,9.28
			c-2.47,2.48-5.76,3.84-9.27,3.84H129.41z"/>
		<path fill="#ECEFEF" d="M226.08,119.33c-7.22,0-13.1-5.88-13.1-13.1c0-0.22,0-0.44,0.02-0.66c0.35-6.98,6.09-12.45,13.07-12.47
			h0.05c6.97,0.01,12.72,5.47,13.08,12.42c0.01,0.24,0.02,0.46,0.02,0.68c0,3.51-1.36,6.81-3.83,9.28
			c-2.47,2.48-5.76,3.84-9.27,3.84H226.08z"/>
		<path fill="#989FA1" d="M225.92,123.88c-4.71,0-9.13-1.83-12.46-5.15c-3.34-3.33-5.18-7.77-5.18-12.49c0-0.33,0.01-0.67,0.03-1
			c0.51-9.33,8.24-16.65,17.59-16.67c9.41,0.02,17.14,7.33,17.67,16.64c0.02,0.33,0.03,0.67,0.03,1.01l0,0
			c0,4.72-1.83,9.16-5.16,12.49c-3.33,3.34-7.76,5.18-12.48,5.18C225.94,123.88,225.93,123.88,225.92,123.88z M225.96,89.3
			c-9.01,0.02-16.41,7.03-16.9,15.96c-0.02,0.32-0.03,0.64-0.03,0.96c0,4.52,1.77,8.77,4.96,11.96c3.19,3.18,7.43,4.93,11.93,4.93
			c0.01,0,0.02,0,0.03,0c4.52,0,8.77-1.76,11.96-4.96c3.19-3.19,4.94-7.44,4.94-11.96l0,0c0-0.32-0.01-0.65-0.03-0.96
			C242.31,96.32,234.9,89.32,225.96,89.3z"/>
		<rect x="39.78" y="42.03" fill="#989FA1" width="56.46" height="0.75"/>
		<rect x="39.78" y="73.15" fill="#989FA1" width="56.46" height="0.75"/>
		<rect x="49.87" y="57.59" fill="#989FA1" width="56.46" height="0.75"/>
		<g>
			<g>
				<path fill="#989FA1" d="M113.27,50.86V37.68h8.64v1.46h-7v4.25h6.86v1.46h-6.86v6.01H113.27z"/>
				<path fill="#989FA1" d="M132.78,50.86l-3.34-5.24h-2.65v5.24h-1.64V37.68h5.3c2.41,0,4.15,1.54,4.15,3.97
					c0,2.37-1.64,3.67-3.44,3.83l3.56,5.38H132.78z M132.89,41.66c0-1.5-1.09-2.51-2.65-2.51h-3.46v5.04h3.46
					C131.81,44.18,132.89,43.14,132.89,41.66z"/>
				<path fill="#989FA1" d="M138.17,50.86V37.68h8.64v1.46h-7v4.25h6.86v1.46h-6.86v4.54h7v1.46H138.17z"/>
				<path fill="#989FA1" d="M150.41,50.86V37.68h8.64v1.46h-7v4.25h6.86v1.46h-6.86v4.54h7v1.46H150.41z"/>
			</g>
		</g>
	</g>
</g>
<g id="Layer_2">
</g>
<g id="Layer_3">
</g>
<g id="Layer_4">
</g>
<g id="Layer_5">
</g>
<g id="Layer_6">
</g>
</svg>
