<svg xmlns="http://www.w3.org/2000/svg" preserveAspectRatio="xMidYMid" width="55" height="53" viewBox="0 0 55 53"><defs><style>.cls-1 { fill: #b6bcbd; fill-rule: evenodd; }</style></defs><path d="M52.678 31.565c-.694.924-1.35 1.797-1.617 2.623-.28.886-.27 2.018-.25 3.215.03 1.87.05 3.8-1.06 5.333-1.12 1.547-2.97 2.118-4.75 2.67-1.13.35-2.2.68-2.936 1.218-.72.527-1.355 1.436-2.026 2.4-1.03 1.476-2.196 3.15-4.033 3.748-.46.15-.964.228-1.493.228-1.284 0-2.57-.44-3.816-.865-1.15-.392-2.23-.762-3.19-.762s-2.04.37-3.19.762c-1.244.425-2.53.865-3.816.865-.53 0-1.032-.077-1.495-.228-1.838-.6-3.005-2.272-4.034-3.75-.67-.962-1.305-1.87-2.025-2.398-.734-.537-1.803-.867-2.934-1.217-1.787-.553-3.634-1.124-4.755-2.67-1.11-1.533-1.083-3.465-1.057-5.333.016-1.198.03-2.33-.255-3.216-.27-.826-.925-1.7-1.62-2.622C1.233 30.116 0 28.476 0 26.5s1.233-3.617 2.322-5.066c.694-.924 1.35-1.796 1.617-2.622.28-.886.27-2.018.25-3.216-.03-1.868-.05-3.8 1.06-5.332C6.37 8.717 8.22 8.146 10 7.594c1.13-.35 2.2-.68 2.935-1.22.72-.525 1.354-1.435 2.025-2.397C15.995 2.5 17.162.827 19 .227c.463-.15.966-.227 1.495-.227 1.285 0 2.572.44 3.817.865 1.147.392 2.23.762 3.188.762.958 0 2.04-.37 3.188-.762C31.933.44 33.22 0 34.504 0c.53 0 1.033.076 1.495.227 1.83.6 3 2.273 4.03 3.75.67.962 1.3 1.872 2.02 2.4.735.536 1.803.866 2.935 1.216 1.785.553 3.633 1.124 4.754 2.67 1.11 1.533 1.084 3.465 1.06 5.333-.018 1.198-.03 2.33.253 3.215.268.83.924 1.7 1.618 2.63C53.766 22.88 55 24.53 55 26.5s-1.234 3.617-2.322 5.065zm-1.91-8.684c-.78-1.04-1.59-2.11-1.982-3.32-.408-1.263-.39-2.65-.37-3.99.02-1.543.04-3-.6-3.886-.654-.9-2.05-1.332-3.527-1.79-1.27-.39-2.58-.797-3.64-1.57-1.05-.762-1.83-1.88-2.58-2.963-.896-1.28-1.74-2.49-2.816-2.843-.227-.073-.475-.108-.757-.108-.888 0-1.936.357-3.046.735-1.28.44-2.604.89-3.957.89-1.355 0-2.68-.45-3.96-.89-1.11-.38-2.157-.735-3.046-.735-.28 0-.53.035-.754.11-1.078.35-1.92 1.56-2.815 2.842-.753 1.08-1.533 2.2-2.576 2.964-1.06.773-2.37 1.18-3.64 1.57-1.477.458-2.872.89-3.525 1.79-.64.886-.62 2.343-.6 3.886.02 1.34.036 2.726-.37 3.99-.39 1.21-1.2 2.286-1.98 3.327-.95 1.26-1.84 2.45-1.84 3.62s.89 2.36 1.84 3.62c.78 1.04 1.59 2.115 1.98 3.325.41 1.264.39 2.65.37 3.99-.02 1.544-.04 3 .6 3.886.655.9 2.05 1.333 3.528 1.79 1.27.39 2.58.798 3.64 1.57 1.04.763 1.82 1.88 2.573 2.964.894 1.28 1.738 2.49 2.814 2.842.225.075.473.11.754.11.89 0 1.937-.358 3.046-.737 1.282-.436 2.606-.888 3.96-.888 1.353 0 2.678.452 3.958.89 1.11.378 2.158.736 3.046.736.28 0 .53-.038.756-.11 1.077-.35 1.92-1.56 2.814-2.844.754-1.08 1.534-2.2 2.577-2.962 1.06-.773 2.37-1.18 3.64-1.57 1.477-.458 2.873-.89 3.525-1.79.642-.885.622-2.343.6-3.887-.017-1.34-.036-2.725.372-3.99.392-1.21 1.2-2.285 1.983-3.326.946-1.26 1.84-2.45 1.84-3.62s-.894-2.36-1.84-3.62zm-4.7 9.68c-.21.65-.198 1.51-.186 2.42.02 1.425.04 3.042-.873 4.304-.93 1.275-2.47 1.753-3.84 2.175-.86.264-1.67.514-2.205.906-.523.384-1.004 1.07-1.51 1.8-.826 1.185-1.76 2.524-3.27 3.018-.39.126-.808.19-1.247.19-1.043 0-2.065-.35-3.053-.687-.87-.3-1.69-.58-2.39-.58s-1.522.28-2.393.58c-.988.337-2.01.686-3.052.686-.44 0-.858-.064-1.244-.19-1.51-.493-2.446-1.833-3.27-3.015-.51-.73-.99-1.417-1.51-1.8-.54-.392-1.348-.642-2.206-.907-1.364-.42-2.91-.9-3.833-2.174-.913-1.262-.89-2.88-.87-4.305.01-.907.023-1.765-.186-2.412-.193-.6-.69-1.264-1.216-1.96-.87-1.16-1.86-2.477-1.86-4.1 0-1.627.986-2.94 1.857-4.1.527-.7 1.024-1.36 1.218-1.96.21-.647.198-1.505.186-2.414-.02-1.425-.044-3.042.87-4.304.926-1.274 2.47-1.75 3.835-2.174.86-.265 1.667-.515 2.203-.907.52-.385 1-1.07 1.51-1.8.824-1.186 1.76-2.526 3.27-3.02.387-.126.806-.19 1.245-.19 1.042 0 2.063.35 3.05.687.87.3 1.69.58 2.393.58.7 0 1.52-.28 2.39-.58.99-.336 2.01-.685 3.054-.685.44 0 .858.065 1.245.19 1.512.494 2.446 1.834 3.27 3.016.51.73.99 1.417 1.512 1.8.536.39 1.346.642 2.203.907 1.364.422 2.91.9 3.834 2.175.913 1.262.89 2.88.87 4.304-.01.91-.023 1.767.186 2.413.194.6.69 1.26 1.216 1.96.87 1.16 1.86 2.477 1.86 4.1 0 1.627-.99 2.94-1.86 4.1-.527.7-1.023 1.36-1.217 1.96zm-.694-8.71c-.62-.822-1.264-1.68-1.58-2.66-.333-1.024-.318-2.124-.303-3.19.02-1.152.04-2.242-.41-2.86-.453-.626-1.5-.95-2.6-1.29-1.008-.31-2.05-.634-2.908-1.26-.846-.62-1.465-1.508-2.064-2.367-.667-.96-1.298-1.862-2.05-2.11-.15-.046-.315-.07-.505-.07-.647 0-1.442.27-2.282.56-1.015.346-2.066.705-3.162.705s-2.146-.358-3.162-.705c-.84-.29-1.635-.56-2.28-.56-.19 0-.358.024-.507.072-.753.248-1.384 1.15-2.05 2.11-.6.86-1.22 1.748-2.066 2.367-.857.626-1.9.95-2.905 1.26-1.106.34-2.15.664-2.605 1.29-.445.617-.43 1.707-.415 2.86.014 1.064.03 2.164-.302 3.188-.318.983-.96 1.838-1.582 2.665-.707.944-1.375 1.83-1.375 2.654 0 .82.67 1.71 1.377 2.65.62.826 1.265 1.68 1.58 2.664.334 1.024.32 2.124.304 3.188-.016 1.155-.03 2.244.416 2.86.454.628 1.5.95 2.603 1.293 1.003.31 2.045.63 2.902 1.26.847.62 1.466 1.505 2.065 2.364.668.957 1.3 1.862 2.05 2.11.15.046.316.07.506.07.647 0 1.44-.27 2.282-.56 1.016-.347 2.067-.706 3.163-.706 1.097 0 2.148.36 3.163.706.84.287 1.636.56 2.283.56.19 0 .356-.026.505-.074.75-.246 1.38-1.15 2.05-2.11.6-.858 1.22-1.746 2.062-2.365.858-.625 1.9-.95 2.907-1.26 1.1-.34 2.145-.663 2.6-1.29.446-.618.432-1.707.416-2.86-.014-1.065-.03-2.165.302-3.19.316-.983.96-1.84 1.58-2.665.71-.942 1.376-1.83 1.376-2.652 0-.82-.667-1.71-1.375-2.65zM33.146 36.73c-2.502 0-4.537-2.046-4.537-4.56 0-2.51 2.03-4.555 4.53-4.555 2.5 0 4.536 2.044 4.536 4.556 0 2.52-2.036 4.56-4.537 4.56zm0-6.714c-1.183 0-2.146.967-2.146 2.155 0 1.19.963 2.16 2.146 2.16 1.183 0 2.145-.965 2.145-2.153 0-1.187-.96-2.154-2.14-2.154zm-12.55 5.117c-.234.234-.54.352-.846.352-.306 0-.612-.118-.845-.352-.467-.47-.467-1.23 0-1.698l15.5-15.566c.466-.47 1.223-.47 1.69 0 .467.47.467 1.23 0 1.69l-15.5 15.567zm1.258-9.746c-2.502 0-4.537-2.044-4.537-4.556s2.035-4.55 4.537-4.55c2.5 0 4.537 2.044 4.537 4.557s-2.03 4.557-4.53 4.557zm0-6.71c-1.183 0-2.146.965-2.146 2.154 0 1.19.963 2.16 2.146 2.16 1.183 0 2.145-.965 2.145-2.153 0-1.19-.97-2.154-2.15-2.154z" class="cls-1"/></svg>