<?xml version="1.0" encoding="utf-8"?>
<!-- Generator: Adobe Illustrator 22.0.1, SVG Export Plug-In . SVG Version: 6.00 Build 0)  -->
<svg version="1.1" xmlns="http://www.w3.org/2000/svg" xmlns:xlink="http://www.w3.org/1999/xlink" x="0px" y="0px" width="300px"
	 height="125px" viewBox="0 0 300 125" enable-background="new 0 0 300 125" xml:space="preserve">
<g id="Layer_1">
	<g>
		<path fill="#989FA1" d="M132.94,123.87c-0.68,0-1.36,0-2.03-0.01c-22.35-0.14-36.98-9.33-37.13-9.42l-0.18-0.11l0-0.21l1.43-72.5
			L76.53,54.86L59.69,30l0.28-0.22c1.5-1.18,37.11-28.9,56.43-28.66l0.16,0l0.11,0.11c2.47,2.59,5.08,4.71,7.77,6.32
			c5.3,3.15,11.62,3.15,16.92,0c2.69-1.6,5.3-3.73,7.77-6.32l0.11-0.11l0.16,0c0.08,0,0.17,0,0.25,0
			c19.41,0,54.68,27.48,56.18,28.66l0.28,0.22l-16.84,24.86l-18.5-13.23l2.43,72.7l-0.19,0.11c-0.15,0.09-15.64,9.28-37.99,9.42
			C134.31,123.87,133.62,123.87,132.94,123.87z M94.36,113.92c1.72,1.04,15.75,9.07,36.55,9.2c1.34,0.01,2.7,0.01,4.08,0
			c20.81-0.13,35.59-8.16,37.42-9.2l-2.47-73.78l19.11,13.67l16.01-23.64c-3.41-2.63-37.17-28.28-55.44-28.28c-0.03,0-0.05,0-0.08,0
			c-2.48,2.59-5.11,4.72-7.82,6.33c-5.54,3.3-12.15,3.3-17.68,0c-2.71-1.61-5.34-3.74-7.82-6.33c-0.03,0-0.05,0-0.08,0
			c-18.27,0-52.04,25.66-55.44,28.28L76.72,53.8l19.1-13.66L94.36,113.92z"/>
		<path fill="#ECEFEF" d="M132.94,118.7c-0.67,0-1.34,0-2-0.01c-16.18-0.1-27.91-5.11-32.58-7.5l1.56-79.24L77.66,47.88L66.37,31.21
			C78,22.62,101.22,7.37,114.77,6.36c2.37,2.3,4.86,4.23,7.42,5.76c3.29,1.96,6.98,2.99,10.69,2.99c3.71,0,7.41-1.03,10.69-2.99
			c2.56-1.53,5.05-3.46,7.42-5.76c13.55,1.01,36.77,16.26,48.4,24.85l-11.29,16.67l-22.39-16.01l2.65,79.28
			c-4.95,2.4-17.28,7.45-33.39,7.55C134.29,118.69,133.61,118.7,132.94,118.7z"/>
		<polygon fill="#EEE679" points="239.8,29.6 239.8,92.51 175.92,92.51 154.31,61.18 175.92,29.6 		"/>
		<circle fill="#FFFFFF" cx="168.48" cy="61.06" r="3.6"/>
		<g>
			<path fill="#FFFFFF" d="M189.03,51.89c0-4.56,3.25-8.06,8.06-8.06c4.85,0,8.06,3.49,8.06,8.06c0,4.51-3.2,8.01-8.06,8.01
				C192.28,59.9,189.03,56.4,189.03,51.89z M201.4,51.89c0-2.86-1.8-4.85-4.32-4.85c-2.47,0-4.27,1.99-4.27,4.85
				c0,2.82,1.8,4.76,4.27,4.76C199.61,56.65,201.4,54.7,201.4,51.89z M193.93,76.69l20.68-32.37h3.3l-20.73,32.37H193.93z
				 M206.45,69.26c0-4.56,3.25-8.06,8.06-8.06c4.8,0,8.06,3.5,8.06,8.06c0,4.51-3.25,8.01-8.06,8.01
				C209.7,77.27,206.45,73.78,206.45,69.26z M218.83,69.26c0-2.86-1.8-4.85-4.32-4.85c-2.52,0-4.32,1.99-4.32,4.85
				c0,2.82,1.8,4.76,4.32,4.76C217.03,74.02,218.83,72.08,218.83,69.26z"/>
		</g>
	</g>
</g>
<g id="Layer_2">
</g>
<g id="Layer_3">
</g>
<g id="Layer_4">
</g>
<g id="Layer_5">
</g>
<g id="Layer_6">
</g>
</svg>
