<?xml version="1.0" encoding="utf-8"?>
<!-- Generator: Adobe Illustrator 22.0.1, SVG Export Plug-In . SVG Version: 6.00 Build 0)  -->
<svg version="1.1" xmlns="http://www.w3.org/2000/svg" xmlns:xlink="http://www.w3.org/1999/xlink" x="0px" y="0px" width="300px"
	 height="153.5px" viewBox="0 0 300 153.5" enable-background="new 0 0 300 153.5" xml:space="preserve">
<g id="Layer_1">
	<g>
		<g>
			<g>
				<path fill="#FFFFFF" d="M165.11,36.32c-3.53-3.26-8.62-5.28-14.92-5.28c-13.12,0-21.19,8.08-21.19,18.04v21.24h41.59V49.08
					C170.59,44.1,168.63,39.59,165.11,36.32z M164.29,61.39H135.3V49.08c0-6.48,5.12-11.75,14.89-11.75c8.07,0,14.1,5.27,14.1,11.75
					V61.39z"/>
				<path fill="#989FA1" d="M170.96,70.7h-42.34V49.08c0-10.84,8.87-18.42,21.57-18.42c6.12,0,11.36,1.86,15.17,5.38v0
					c3.61,3.35,5.6,7.98,5.6,13.03V70.7z M129.37,69.95h40.84V49.08c0-4.84-1.9-9.27-5.36-12.49c-3.67-3.39-8.74-5.18-14.67-5.18
					c-12.26,0-20.82,7.26-20.82,17.67V69.95z M164.66,61.76h-29.74V49.08c0-7.37,5.99-12.12,15.27-12.12
					c8.12,0,14.47,5.33,14.47,12.12V61.76z M135.67,61.01h28.24V49.08c0-6.38-6.03-11.38-13.72-11.38
					c-8.82,0-14.52,4.46-14.52,11.38V61.01z"/>
			</g>
			<path fill="#989FA1" d="M164.66,64.39h-29.74v-3.38h29.74V64.39z M135.67,63.64h28.24v-1.88h-28.24V63.64z"/>
			<g>
				<path fill="#FFFFFF" d="M183.02,65.31v48.01c0,2.16-1.76,3.91-3.91,3.91h-58.39c-2.16,0-3.9-1.75-3.9-3.91V65.31
					c0-2.15,1.75-3.91,3.9-3.91h58.39C181.26,61.4,183.02,63.15,183.02,65.31z"/>
				<path fill="#989FA1" d="M179.11,117.61h-58.39c-2.36,0-4.28-1.92-4.28-4.29V65.31c0-2.36,1.92-4.29,4.28-4.29h58.39
					c2.36,0,4.29,1.92,4.29,4.29v48.01C183.4,115.68,181.47,117.61,179.11,117.61z M120.72,61.77c-1.95,0-3.53,1.59-3.53,3.54v48.01
					c0,1.95,1.58,3.54,3.53,3.54h58.39c1.95,0,3.54-1.59,3.54-3.54V65.31c0-1.95-1.59-3.54-3.54-3.54H120.72z"/>
			</g>
			<path fill="#ECEFEF" d="M120.72,114.19c-0.48,0-0.86-0.39-0.86-0.87V65.31c0-0.48,0.39-0.87,0.86-0.87h58.39
				c0.47,0,0.87,0.4,0.87,0.87v48.01c0,0.48-0.39,0.87-0.87,0.87H120.72z"/>
			<g>
				<path fill="#FFFFFF" d="M158.4,85.07c0,2.78-1.34,5.25-3.42,6.79v5.09c0,2.81-2.27,5.08-5.08,5.08c-2.79,0-5.07-2.27-5.07-5.08
					v-5.09c-2.07-1.54-3.41-4.01-3.41-6.79c0-4.68,3.79-8.48,8.47-8.48C154.6,76.59,158.4,80.39,158.4,85.07z"/>
				<path fill="#989FA1" d="M149.9,102.41c-3,0-5.44-2.45-5.44-5.46v-4.9c-2.14-1.66-3.41-4.26-3.41-6.98
					c0-4.88,3.97-8.85,8.85-8.85c4.89,0,8.87,3.97,8.87,8.85c0,2.72-1.27,5.32-3.42,6.98v4.9
					C155.36,99.96,152.91,102.41,149.9,102.41z M149.9,76.97c-4.46,0-8.1,3.63-8.1,8.1c0,2.55,1.22,4.98,3.25,6.49l0.15,0.11v5.28
					c0,2.6,2.1,4.71,4.69,4.71c2.59,0,4.7-2.11,4.7-4.71v-5.28l0.15-0.11c2.05-1.52,3.27-3.94,3.27-6.49
					C158.03,80.6,154.38,76.97,149.9,76.97z"/>
			</g>
		</g>
		<path fill="#989FA1" d="M75.76,69.34l-0.75-0.07c2.63-26.16,18.28-48.67,41.87-60.21c37.3-18.24,82.5-2.76,100.78,34.52
			l-0.67,0.33C198.9,7,154.13-8.33,117.21,9.73C93.86,21.16,78.36,43.44,75.76,69.34z"/>
		<path fill="#989FA1" d="M150.13,152.1c-27.88,0-54.72-15.51-67.8-42.18l0.67-0.33c18.1,36.91,62.86,52.24,99.78,34.18
			c23.36-11.42,38.85-33.71,41.46-59.61l0.75,0.07c-2.63,26.16-18.28,48.67-41.87,60.21C172.5,149.64,161.23,152.1,150.13,152.1z"/>
		<polygon fill="#989FA1" points="217.53,44.3 207.82,40.87 208.07,40.17 217.07,43.34 220.25,34.34 220.96,34.59 		"/>
		<polygon fill="#989FA1" points="79.75,119.15 79.04,118.9 82.47,109.19 92.18,112.62 91.93,113.33 82.93,110.15 		"/>
	</g>
</g>
<g id="Layer_2">
</g>
<g id="Layer_3">
</g>
<g id="Layer_4">
</g>
<g id="Layer_5">
</g>
<g id="Layer_6">
</g>
</svg>
