<?xml version="1.0" encoding="utf-8"?>
<!-- Generator: Adobe Illustrator 19.0.0, SVG Export Plug-In . SVG Version: 6.00 Build 0)  -->
<svg version="1.1" id="Layer_1" xmlns="http://www.w3.org/2000/svg" xmlns:xlink="http://www.w3.org/1999/xlink" x="0px" y="0px"
	 viewBox="-273 364 65 65" style="enable-background:new -273 364 65 65;" xml:space="preserve">
<style type="text/css">
	.st0{fill:#B7BEBF;}
</style>
<g>
	<path class="st0" d="M-242.1,395.4v1.1c0,0.1,0.1,0.2,0.2,0.2h0.9c0.2,0,0.2-0.1,0.2-0.2v-1.1l0.1-0.1c0.1-0.1,0.2-0.3,0.2-0.6
		c0-0.5-0.4-0.9-0.9-1l-0.2,0c-0.5,0-0.8,0.4-0.8,0.9c0,0.2,0.1,0.4,0.2,0.7L-242.1,395.4z"/>
	<path class="st0" d="M-237.1,390.2h-0.5v-1.1c0-2-1.7-3.6-3.9-3.6c-2.2,0-3.9,1.6-3.9,3.6v1.1h-0.5c-0.7,0-1.2,0.6-1.2,1.3v6.8
		c0,0.7,0.6,1.3,1.2,1.3h8.5c0.7,0,1.2-0.6,1.2-1.3v-6.8c0-0.4-0.1-0.7-0.3-1C-236.5,390.3-236.8,390.2-237.1,390.2z M-244.1,389.1
		c0-1.4,1.2-2.6,2.7-2.6c1.4,0,2.6,1.2,2.6,2.6v1.1h-5.3V389.1z M-237,398.5h-8.7v-7.3h8.7V398.5z"/>
	<path class="st0" d="M-233.6,373.5H-260v46.1h39.1v-33.8L-233.6,373.5z M-233.2,375.3l10.4,10.1h-10.4V375.3z M-222,418.5H-259
		v-43.9h24.6v12h12.3V418.5z"/>
	<path class="st0" d="M-248.5,407.2c-0.5-0.2-0.9-0.4-1.2-0.7c-0.2-0.2-0.4-0.5-0.4-0.8c0-0.3,0.1-0.5,0.3-0.7
		c0.2-0.2,0.6-0.3,1-0.3c0.4,0,0.9,0.2,1.6,0.6c0.2,0.1,0.3,0.1,0.4-0.1l0.3-0.5c0.1-0.2,0.1-0.3-0.1-0.4c-0.7-0.5-1.4-0.7-2.2-0.7
		c-0.5,0-0.9,0.1-1.2,0.2c-0.4,0.1-0.6,0.3-0.8,0.6c-0.2,0.2-0.3,0.5-0.4,0.7s-0.1,0.5-0.1,0.7c0,0.6,0.2,1.1,0.6,1.5
		c0.4,0.4,0.9,0.7,1.6,1c0.6,0.3,1.1,0.5,1.4,0.8c0.3,0.3,0.4,0.6,0.4,0.9c0,0.3-0.1,0.6-0.4,0.8s-0.6,0.3-1,0.3
		c-0.6,0-1.3-0.3-1.9-0.8c-0.1-0.1-0.3-0.1-0.4,0.1c0,0.1-0.1,0.1-0.2,0.3c-0.1,0.1-0.1,0.2-0.2,0.2c-0.1,0.1-0.1,0.3,0.1,0.4
		c0.1,0.1,0.3,0.2,0.4,0.3c0.2,0.1,0.5,0.3,0.9,0.4c0.4,0.1,0.8,0.2,1.3,0.2c0.8,0,1.4-0.2,1.9-0.7c0.5-0.4,0.8-1,0.8-1.6
		c0-0.7-0.2-1.2-0.7-1.6C-247.1,407.9-247.7,407.5-248.5,407.2z"/>
	<path class="st0" d="M-239.7,407.2c-0.5-0.2-0.9-0.4-1.2-0.7c-0.2-0.2-0.4-0.5-0.4-0.8c0-0.3,0.1-0.5,0.3-0.7
		c0.2-0.2,0.6-0.3,1-0.3c0.4,0,0.9,0.2,1.6,0.6c0.2,0.1,0.3,0.1,0.4-0.1l0.3-0.5c0.1-0.2,0.1-0.3-0.1-0.4c-0.7-0.5-1.4-0.7-2.2-0.7
		c-0.5,0-0.9,0.1-1.2,0.2c-0.4,0.1-0.6,0.3-0.8,0.6c-0.2,0.2-0.3,0.5-0.4,0.7s-0.1,0.5-0.1,0.7c0,0.6,0.2,1.1,0.6,1.5
		c0.4,0.4,0.9,0.7,1.6,1c0.6,0.3,1.1,0.5,1.4,0.8c0.3,0.3,0.4,0.6,0.4,0.9c0,0.3-0.1,0.6-0.4,0.8s-0.6,0.3-1,0.3
		c-0.6,0-1.3-0.3-1.9-0.8c-0.1-0.1-0.3-0.1-0.4,0.1c0,0.1-0.1,0.1-0.2,0.3c-0.1,0.1-0.1,0.2-0.2,0.2c-0.1,0.1-0.1,0.3,0.1,0.4
		c0.1,0.1,0.3,0.2,0.4,0.3c0.2,0.1,0.5,0.3,0.9,0.4c0.4,0.1,0.8,0.2,1.3,0.2c0.8,0,1.4-0.2,1.9-0.7c0.5-0.4,0.8-1,0.8-1.6
		c0-0.7-0.2-1.2-0.7-1.6C-238.2,407.9-238.9,407.5-239.7,407.2z"/>
	<path class="st0" d="M-232.8,412h4.3c0.1,0,0.1,0,0.2-0.1c0,0,0.1-0.1,0.1-0.2v-0.7c0-0.1,0-0.1-0.1-0.2s-0.1-0.1-0.2-0.1h-3.3
		v-7.1c0-0.1,0-0.1-0.1-0.2c0,0-0.1-0.1-0.2-0.1h-0.8c-0.1,0-0.1,0-0.2,0.1c0,0-0.1,0.1-0.1,0.2v7.9c0,0.1,0,0.1,0.1,0.2
		C-232.9,412-232.9,412-232.8,412z"/>
</g>
</svg>
