<?xml version="1.0" encoding="utf-8"?>
<!-- Generator: Adobe Illustrator 22.0.1, SVG Export Plug-In . SVG Version: 6.00 Build 0)  -->
<svg version="1.1" xmlns="http://www.w3.org/2000/svg" xmlns:xlink="http://www.w3.org/1999/xlink" x="0px" y="0px" width="300px"
	 height="125.17px" viewBox="0 0 300 125.17" enable-background="new 0 0 300 125.17" xml:space="preserve">
<g id="Layer_1">
	<g>
		<g>
			<g>
				<g>
					<g>
						<rect x="58.28" y="10.15" fill="#ECEFEF" width="183.44" height="113.44"/>
						<path fill="#989FA1" d="M242.1,123.96H57.9V9.77H242.1V123.96z M58.65,123.21h182.69V10.52H58.65V123.21z"/>
					</g>
				</g>
				<g>
					<path fill="#FFFFFF" d="M241.73,10.14H58.27v-6.1c0-1.36,1.1-2.46,2.46-2.46h178.53c1.36,0,2.46,1.1,2.46,2.46V10.14z"/>
					<path fill="#989FA1" d="M242.1,10.52H57.9V4.04c0-1.56,1.27-2.84,2.83-2.84h178.53c1.56,0,2.83,1.27,2.83,2.84V10.52z
						 M58.65,9.77h182.7V4.04c0-1.15-0.94-2.09-2.08-2.09H60.74c-1.15,0-2.08,0.94-2.08,2.09V9.77z"/>
				</g>
				<path fill="#989FA1" d="M235.95,7.23c-0.75,0-1.37-0.61-1.37-1.37s0.61-1.37,1.37-1.37s1.37,0.61,1.37,1.37
					S236.7,7.23,235.95,7.23z M235.95,5.25c-0.34,0-0.62,0.28-0.62,0.62s0.28,0.62,0.62,0.62s0.62-0.28,0.62-0.62
					S236.29,5.25,235.95,5.25z"/>
				<path fill="#989FA1" d="M231.44,7.23c-0.75,0-1.37-0.61-1.37-1.37s0.61-1.37,1.37-1.37s1.37,0.61,1.37,1.37
					S232.19,7.23,231.44,7.23z M231.44,5.25c-0.34,0-0.62,0.28-0.62,0.62s0.28,0.62,0.62,0.62s0.62-0.28,0.62-0.62
					S231.78,5.25,231.44,5.25z"/>
				<path fill="#989FA1" d="M226.93,7.23c-0.75,0-1.37-0.61-1.37-1.37s0.61-1.37,1.37-1.37s1.37,0.61,1.37,1.37
					S227.69,7.23,226.93,7.23z M226.93,5.25c-0.34,0-0.62,0.28-0.62,0.62s0.28,0.62,0.62,0.62s0.62-0.28,0.62-0.62
					S227.28,5.25,226.93,5.25z"/>
				<g>
					<path fill="#FFFFFF" d="M95.32,28.54H71.34c-0.71,0-1.28-0.57-1.28-1.28v-6.65c0-0.71,0.57-1.28,1.28-1.28h23.98
						c0.71,0,1.28,0.57,1.28,1.28v6.65C96.61,27.97,96.03,28.54,95.32,28.54z"/>
					<path fill="#989FA1" d="M95.32,28.92H71.34c-0.91,0-1.66-0.74-1.66-1.66v-6.65c0-0.91,0.74-1.66,1.66-1.66h23.98
						c0.91,0,1.66,0.74,1.66,1.66v6.65C96.98,28.17,96.24,28.92,95.32,28.92z M71.34,19.7c-0.5,0-0.91,0.41-0.91,0.91v6.65
						c0,0.5,0.41,0.91,0.91,0.91h23.98c0.5,0,0.91-0.41,0.91-0.91v-6.65c0-0.5-0.41-0.91-0.91-0.91H71.34z"/>
				</g>
				<rect x="152.53" y="24.84" fill="#989FA1" width="16.22" height="0.75"/>
				<rect x="172.67" y="24.84" fill="#989FA1" width="16.21" height="0.75"/>
				<rect x="192.82" y="24.84" fill="#989FA1" width="16.21" height="0.75"/>
				<rect x="212.96" y="24.84" fill="#989FA1" width="16.21" height="0.75"/>
			</g>
		</g>
		<rect x="69.37" y="48.4" fill="#FFFFFF" width="47.11" height="64.49"/>
		<rect x="126.12" y="48.4" fill="#FFFFFF" width="47.11" height="64.49"/>
		<rect x="182.87" y="48.4" fill="#FFFFFF" width="47.11" height="64.49"/>
		<g>
			<path fill="#989FA1" d="M77.27,59.71c0-1.19,0.85-2.07,2.04-2.07c1.19,0,2.04,0.88,2.04,2.07s-0.85,2.07-2.04,2.07
				C78.11,61.78,77.27,60.9,77.27,59.71z M80.64,59.71c0-0.83-0.52-1.45-1.33-1.45c-0.81,0-1.33,0.62-1.33,1.45
				c0,0.82,0.52,1.45,1.33,1.45C80.11,61.15,80.64,60.53,80.64,59.71z"/>
			<path fill="#989FA1" d="M84.61,61.7l-0.88-1.49h-0.7v1.49h-0.7v-4h1.76c0.79,0,1.31,0.51,1.31,1.25c0,0.71-0.47,1.1-0.95,1.17
				l0.98,1.57H84.61z M84.68,58.95c0-0.38-0.29-0.63-0.68-0.63h-0.97v1.27H84C84.39,59.59,84.68,59.34,84.68,58.95z"/>
			<path fill="#989FA1" d="M86.4,61.7v-4h1.49c1.25,0,2.09,0.83,2.09,2c0,1.18-0.84,2-2.09,2H86.4z M89.26,59.7
				c0-0.77-0.48-1.38-1.37-1.38H87.1v2.76h0.79C88.76,61.09,89.26,60.46,89.26,59.7z"/>
			<path fill="#989FA1" d="M90.96,61.7v-4h2.74v0.62h-2.04v1.03h2v0.62h-2v1.12h2.04v0.62H90.96z"/>
			<path fill="#989FA1" d="M97.01,61.7l-0.88-1.49h-0.7v1.49h-0.7v-4h1.76c0.79,0,1.31,0.51,1.31,1.25c0,0.71-0.47,1.1-0.95,1.17
				l0.98,1.57H97.01z M97.08,58.95c0-0.38-0.29-0.63-0.68-0.63h-0.97v1.27h0.97C96.79,59.59,97.08,59.34,97.08,58.95z"/>
			<path fill="#989FA1" d="M98.54,61.14l0.4-0.55c0.27,0.29,0.71,0.56,1.27,0.56c0.58,0,0.8-0.28,0.8-0.55
				c0-0.84-2.33-0.32-2.33-1.79c0-0.67,0.58-1.17,1.46-1.17c0.62,0,1.13,0.2,1.49,0.56l-0.4,0.52c-0.32-0.32-0.74-0.46-1.16-0.46
				c-0.41,0-0.67,0.2-0.67,0.5c0,0.75,2.33,0.29,2.33,1.78c0,0.67-0.47,1.24-1.55,1.24C99.44,61.78,98.9,61.51,98.54,61.14z"/>
		</g>
		<rect x="77.41" y="66.57" fill="#989FA1" width="30.46" height="0.75"/>
		<rect x="77.41" y="72.68" fill="#989FA1" width="30.46" height="0.75"/>
		<rect x="77.41" y="78.8" fill="#989FA1" width="30.46" height="0.75"/>
		<rect x="77.41" y="84.92" fill="#989FA1" width="30.46" height="0.75"/>
		<rect x="77.41" y="91.03" fill="#989FA1" width="30.46" height="0.75"/>
		<rect x="77.41" y="97.15" fill="#989FA1" width="30.46" height="0.75"/>
		<rect x="77.41" y="103.27" fill="#989FA1" width="22.38" height="0.75"/>
		<g>
			<path fill="#989FA1" d="M134.18,61.14l0.4-0.55c0.27,0.29,0.71,0.56,1.27,0.56c0.58,0,0.8-0.28,0.8-0.55
				c0-0.84-2.33-0.32-2.33-1.79c0-0.67,0.58-1.17,1.46-1.17c0.62,0,1.13,0.2,1.49,0.56l-0.4,0.52c-0.32-0.32-0.74-0.46-1.16-0.46
				c-0.41,0-0.67,0.2-0.67,0.5c0,0.75,2.33,0.29,2.33,1.78c0,0.67-0.47,1.24-1.55,1.24C135.07,61.78,134.54,61.51,134.18,61.14z"/>
			<path fill="#989FA1" d="M138.3,60.12V57.7h0.71v2.4c0,0.64,0.35,1.05,1.02,1.05c0.67,0,1.02-0.41,1.02-1.05v-2.4h0.71v2.42
				c0,0.99-0.57,1.66-1.73,1.66C138.88,61.78,138.3,61.11,138.3,60.12z"/>
			<path fill="#989FA1" d="M142.92,61.7v-4h1.97c0.74,0,1.14,0.46,1.14,1.02c0,0.5-0.32,0.84-0.7,0.92
				c0.43,0.07,0.77,0.49,0.77,0.98c0,0.62-0.41,1.08-1.16,1.08H142.92z M145.31,58.84c0-0.29-0.2-0.52-0.56-0.52h-1.13v1.03h1.13
				C145.11,59.35,145.31,59.14,145.31,58.84z M145.39,60.53c0-0.3-0.21-0.56-0.61-0.56h-1.16v1.12h1.16
				C145.16,61.09,145.39,60.88,145.39,60.53z"/>
			<path fill="#989FA1" d="M146.86,61.14l0.4-0.55c0.27,0.29,0.71,0.56,1.27,0.56c0.58,0,0.8-0.28,0.8-0.55
				c0-0.84-2.33-0.32-2.33-1.79c0-0.67,0.58-1.17,1.46-1.17c0.62,0,1.13,0.2,1.49,0.56l-0.4,0.52c-0.32-0.32-0.74-0.46-1.16-0.46
				c-0.41,0-0.67,0.2-0.67,0.5c0,0.75,2.33,0.29,2.33,1.78c0,0.67-0.47,1.24-1.55,1.24C147.75,61.78,147.22,61.51,146.86,61.14z"/>
		</g>
		<rect x="134.41" y="66.57" fill="#989FA1" width="30.46" height="0.75"/>
		<rect x="134.41" y="72.68" fill="#989FA1" width="30.46" height="0.75"/>
		<rect x="134.41" y="78.8" fill="#989FA1" width="30.46" height="0.75"/>
		<rect x="134.41" y="84.92" fill="#989FA1" width="30.46" height="0.75"/>
		<rect x="134.41" y="91.03" fill="#989FA1" width="30.46" height="0.75"/>
		<rect x="134.41" y="97.15" fill="#989FA1" width="30.46" height="0.75"/>
		<rect x="134.41" y="103.27" fill="#989FA1" width="22.38" height="0.75"/>
		<g>
			<path fill="#989FA1" d="M191.56,61.7v-4h0.7v4H191.56z"/>
			<path fill="#989FA1" d="M196.21,61.7l-2.09-2.86v2.86h-0.7v-4h0.72l2.04,2.77V57.7h0.7v4H196.21z"/>
			<path fill="#989FA1" d="M198.04,61.7v-4h2.74v0.62h-2.04v1.03h2v0.62h-2v1.73H198.04z"/>
			<path fill="#989FA1" d="M201.54,59.71c0-1.19,0.85-2.07,2.04-2.07c1.19,0,2.04,0.88,2.04,2.07s-0.85,2.07-2.04,2.07
				C202.39,61.78,201.54,60.9,201.54,59.71z M204.91,59.71c0-0.83-0.52-1.45-1.33-1.45c-0.81,0-1.33,0.62-1.33,1.45
				c0,0.82,0.52,1.45,1.33,1.45C204.39,61.15,204.91,60.53,204.91,59.71z"/>
			<path fill="#989FA1" d="M206.35,61.14l0.4-0.55c0.27,0.29,0.71,0.56,1.27,0.56c0.58,0,0.8-0.28,0.8-0.55
				c0-0.84-2.33-0.32-2.33-1.79c0-0.67,0.58-1.17,1.46-1.17c0.62,0,1.13,0.2,1.49,0.56l-0.4,0.52c-0.32-0.32-0.74-0.46-1.16-0.46
				c-0.41,0-0.67,0.2-0.67,0.5c0,0.75,2.33,0.29,2.33,1.78c0,0.67-0.47,1.24-1.55,1.24C207.24,61.78,206.71,61.51,206.35,61.14z"/>
		</g>
		<rect x="191.53" y="66.57" fill="#989FA1" width="30.46" height="0.75"/>
		<rect x="191.53" y="72.68" fill="#989FA1" width="30.46" height="0.75"/>
		<rect x="191.53" y="78.8" fill="#989FA1" width="30.46" height="0.75"/>
		<rect x="191.53" y="84.92" fill="#989FA1" width="30.46" height="0.75"/>
		<rect x="191.53" y="91.03" fill="#989FA1" width="30.46" height="0.75"/>
		<rect x="191.53" y="97.15" fill="#989FA1" width="30.46" height="0.75"/>
		<rect x="191.53" y="103.27" fill="#989FA1" width="22.38" height="0.75"/>
	</g>
</g>
<g id="Layer_2">
</g>
<g id="Layer_3">
</g>
<g id="Layer_4">
</g>
<g id="Layer_5">
</g>
<g id="Layer_6">
</g>
</svg>
