<?xml version="1.0" encoding="utf-8"?>
<!-- Generator: Adobe Illustrator 22.0.1, SVG Export Plug-In . SVG Version: 6.00 Build 0)  -->
<svg version="1.1" xmlns="http://www.w3.org/2000/svg" xmlns:xlink="http://www.w3.org/1999/xlink" x="0px" y="0px" width="300px"
	 height="136.83px" viewBox="0 0 300 136.83" enable-background="new 0 0 300 136.83" xml:space="preserve">
<g id="Layer_1">
	<g>
		<g opacity="0.3">
			<g>
				<rect x="246.3" y="52.58" fill="#FFFFFF" width="50.7" height="64.91"/>
				<path fill="#989FA1" d="M297.38,117.86h-51.45V52.2h51.45V117.86z M246.67,117.11h49.95V52.95h-49.95V117.11z"/>
			</g>
			<g>
				<path fill="#989FA1" d="M256.53,108.1l0.49-0.62c0.42,0.56,1,1.04,1.87,1.04c1.28,0,2.08-0.89,2.08-2.15V99.7h0.8v6.67
					c0,1.96-1.28,2.88-2.84,2.88C257.92,109.25,257.15,108.9,256.53,108.1z"/>
				<path fill="#989FA1" d="M271.29,109.08l-0.93-2.31h-4.97l-0.93,2.31h-0.93l3.84-9.38h1l3.84,9.38H271.29z M267.88,100.55
					l-2.22,5.49h4.43L267.88,100.55z"/>
				<path fill="#989FA1" d="M281.01,109.08l-5.91-8.06v8.06h-0.8V99.7h0.82l5.88,7.95V99.7h0.8v9.38H281.01z"/>
			</g>
			<g>
				<path fill="#989FA1" d="M260.86,94.91c-5.45,0-7.9-5.07-7.9-10.09c0-5.01,2.44-10.06,7.9-10.06c5.43,0,7.87,5.05,7.87,10.06
					C268.73,89.84,266.3,94.91,260.86,94.91z M260.86,75.5c-4.94,0-7.15,4.68-7.15,9.31c0,4.65,2.21,9.34,7.15,9.34
					c4.92,0,7.12-4.69,7.12-9.34C267.98,80.18,265.78,75.5,260.86,75.5z M260.86,91.98c-2.89,0-4.54-2.61-4.54-7.16
					c0-4.53,1.66-7.14,4.54-7.14c2.87,0,4.52,2.6,4.52,7.14C265.38,89.37,263.73,91.98,260.86,91.98z M260.86,78.43
					c-3.3,0-3.79,4-3.79,6.39c0,1.93,0.37,6.41,3.79,6.41c3.4,0,3.77-4.49,3.77-6.41C264.63,82.43,264.14,78.43,260.86,78.43z"/>
				<path fill="#989FA1" d="M278.81,94.91c-3.08,0-5.52-1.02-7.24-3.03l-0.21-0.24l2.37-2.87l0.29,0.34
					c1.17,1.39,2.82,2.12,4.76,2.12c2.08,0,3.48-1.19,3.48-2.95c0-1.82-1.3-2.95-3.4-2.95c-1.53,0-2.75,0.48-3.86,1.5l-0.16,0.15
					l-2.81-0.81V75.04h13.06v3.65h-9.01v4.25c1.09-0.76,2.48-1.2,3.88-1.2c3.18,0,6.4,2.21,6.4,6.43
					C286.36,92.2,283.33,94.91,278.81,94.91z M272.34,91.63c1.56,1.68,3.74,2.54,6.46,2.54c4.07,0,6.81-2.41,6.81-5.99
					c0-3.9-2.93-5.68-5.65-5.68c-1.5,0-2.99,0.56-4,1.5l-0.63,0.59v-6.65h9.01v-2.15h-11.56v9.82l1.87,0.54
					c1.21-1.06,2.55-1.56,4.21-1.56c2.48,0,4.15,1.49,4.15,3.7c0,2.18-1.74,3.7-4.23,3.7c-2.01,0-3.74-0.71-5.03-2.06L272.34,91.63z
					"/>
			</g>
			<g>
				<rect x="248.59" y="67.07" fill="#989FA1" width="42.37" height="0.75"/>
			</g>
			<g>
				<circle fill="#FFFFFF" cx="254.91" cy="60" r="2.12"/>
				<path fill="#989FA1" d="M254.91,62.5c-1.38,0-2.5-1.12-2.5-2.5s1.12-2.5,2.5-2.5s2.5,1.12,2.5,2.5S256.29,62.5,254.91,62.5z
					 M254.91,58.26c-0.96,0-1.75,0.78-1.75,1.75s0.78,1.75,1.75,1.75s1.75-0.78,1.75-1.75S255.88,58.26,254.91,58.26z"/>
			</g>
			<g>
				<circle fill="#FFFFFF" cx="269.77" cy="60" r="2.12"/>
				<path fill="#989FA1" d="M269.77,62.5c-1.38,0-2.5-1.12-2.5-2.5s1.12-2.5,2.5-2.5s2.5,1.12,2.5,2.5S271.15,62.5,269.77,62.5z
					 M269.77,58.26c-0.96,0-1.75,0.78-1.75,1.75s0.78,1.75,1.75,1.75s1.75-0.78,1.75-1.75S270.73,58.26,269.77,58.26z"/>
			</g>
			<g>
				<circle fill="#FFFFFF" cx="284.57" cy="60" r="2.12"/>
				<path fill="#989FA1" d="M284.57,62.5c-1.38,0-2.5-1.12-2.5-2.5s1.12-2.5,2.5-2.5s2.5,1.12,2.5,2.5S285.95,62.5,284.57,62.5z
					 M284.57,58.26c-0.96,0-1.75,0.78-1.75,1.75s0.78,1.75,1.75,1.75s1.75-0.78,1.75-1.75S285.54,58.26,284.57,58.26z"/>
			</g>
		</g>
		<g opacity="0.3">
			<g>
				<rect x="3" y="52.58" fill="#FFFFFF" width="50.7" height="64.91"/>
				<path fill="#989FA1" d="M54.08,117.86H2.63V52.2h51.45V117.86z M3.38,117.11h49.95V52.95H3.38V117.11z"/>
			</g>
			<g>
				<path fill="#989FA1" d="M17.46,107.76l0.52-0.6c0.6,0.69,1.59,1.36,2.94,1.36c1.91,0,2.46-1.07,2.46-1.87
					c0-2.76-5.63-1.32-5.63-4.6c0-1.53,1.38-2.5,3.08-2.5c1.39,0,2.46,0.49,3.18,1.32l-0.53,0.59c-0.68-0.82-1.63-1.18-2.69-1.18
					c-1.25,0-2.19,0.72-2.19,1.73c0,2.41,5.63,1.08,5.63,4.59c0,1.21-0.8,2.66-3.33,2.66C19.35,109.25,18.18,108.62,17.46,107.76z"
					/>
				<path fill="#989FA1" d="M26.86,109.08V99.7h5.95v0.73h-5.15v3.48h5.05v0.73h-5.05v3.71h5.15v0.73H26.86z"/>
				<path fill="#989FA1" d="M35.51,109.08V99.7h3.52c1.8,0,2.83,1.27,2.83,2.74c0,1.48-1.04,2.74-2.83,2.74h-2.71v3.9H35.51z
					 M41.01,102.44c0-1.18-0.82-2.01-2.07-2.01h-2.63v4.02h2.63C40.19,104.45,41.01,103.61,41.01,102.44z"/>
			</g>
			<g>
				<path fill="#989FA1" d="M20.81,94.91c-5.45,0-7.9-5.07-7.9-10.09c0-5.01,2.44-10.06,7.9-10.06c5.43,0,7.87,5.05,7.87,10.06
					C28.67,89.84,26.24,94.91,20.81,94.91z M20.81,75.5c-4.94,0-7.15,4.68-7.15,9.31c0,4.65,2.21,9.34,7.15,9.34
					c4.92,0,7.12-4.69,7.12-9.34C27.92,80.18,25.72,75.5,20.81,75.5z M20.81,91.98c-2.89,0-4.54-2.61-4.54-7.16
					c0-4.53,1.66-7.14,4.54-7.14c2.87,0,4.52,2.6,4.52,7.14C25.32,89.37,23.68,91.98,20.81,91.98z M20.81,78.43
					c-3.3,0-3.79,4-3.79,6.39c0,1.93,0.37,6.41,3.79,6.41c3.4,0,3.77-4.49,3.77-6.41C24.57,82.43,24.08,78.43,20.81,78.43z"/>
				<path fill="#989FA1" d="M38.75,94.91c-3.08,0-5.52-1.02-7.24-3.03l-0.21-0.24l2.37-2.87l0.29,0.34
					c1.17,1.39,2.82,2.12,4.76,2.12c2.08,0,3.48-1.19,3.48-2.95c0-1.82-1.3-2.95-3.4-2.95c-1.53,0-2.75,0.48-3.86,1.5l-0.16,0.15
					l-2.81-0.81V75.04h13.06v3.65h-9.01v4.25c1.09-0.76,2.48-1.2,3.88-1.2c3.18,0,6.4,2.21,6.4,6.43
					C46.31,92.2,43.27,94.91,38.75,94.91z M32.29,91.63c1.56,1.68,3.74,2.54,6.46,2.54c4.07,0,6.81-2.41,6.81-5.99
					c0-3.9-2.93-5.68-5.65-5.68c-1.5,0-2.99,0.56-4,1.5l-0.63,0.59v-6.65h9.01v-2.15H32.73v9.82l1.87,0.54
					c1.21-1.06,2.55-1.56,4.21-1.56c2.48,0,4.15,1.49,4.15,3.7c0,2.18-1.74,3.7-4.23,3.7c-2.01,0-3.74-0.71-5.03-2.06L32.29,91.63z"
					/>
			</g>
			<g>
				<rect x="8.53" y="67.07" fill="#989FA1" width="42.37" height="0.75"/>
			</g>
			<g>
				<circle fill="#FFFFFF" cx="14.85" cy="60" r="2.12"/>
				<path fill="#989FA1" d="M14.85,62.5c-1.38,0-2.5-1.12-2.5-2.5s1.12-2.5,2.5-2.5s2.5,1.12,2.5,2.5S16.23,62.5,14.85,62.5z
					 M14.85,58.26c-0.96,0-1.75,0.78-1.75,1.75s0.78,1.75,1.75,1.75S16.6,60.97,16.6,60S15.82,58.26,14.85,58.26z"/>
			</g>
			<g>
				<circle fill="#FFFFFF" cx="29.71" cy="60" r="2.12"/>
				<path fill="#989FA1" d="M29.71,62.5c-1.38,0-2.5-1.12-2.5-2.5s1.12-2.5,2.5-2.5s2.5,1.12,2.5,2.5S31.09,62.5,29.71,62.5z
					 M29.71,58.26c-0.96,0-1.75,0.78-1.75,1.75s0.78,1.75,1.75,1.75s1.75-0.78,1.75-1.75S30.67,58.26,29.71,58.26z"/>
			</g>
			<g>
				<circle fill="#FFFFFF" cx="44.51" cy="60" r="2.12"/>
				<path fill="#989FA1" d="M44.51,62.5c-1.38,0-2.5-1.12-2.5-2.5s1.12-2.5,2.5-2.5s2.5,1.12,2.5,2.5S45.89,62.5,44.51,62.5z
					 M44.51,58.26c-0.96,0-1.75,0.78-1.75,1.75s0.78,1.75,1.75,1.75s1.75-0.78,1.75-1.75S45.48,58.26,44.51,58.26z"/>
			</g>
		</g>
		<g opacity="0.6">
			<g>
				<rect x="182.85" y="47.37" fill="#FFFFFF" width="63.48" height="75.33"/>
				<path fill="#989FA1" d="M246.7,123.07h-64.23V46.99h64.23V123.07z M183.23,122.32h62.73V47.74h-62.73V122.32z"/>
			</g>
			<g>
				<path fill="#989FA1" d="M199.39,112.94v-10.9h3.48c3.38,0,5.51,2.47,5.51,5.46c0,3.02-2.12,5.44-5.51,5.44H199.39z M207.4,107.5
					c0-2.55-1.63-4.61-4.53-4.61h-2.55v9.2h2.55C205.75,112.09,207.4,110.05,207.4,107.5z"/>
				<path fill="#989FA1" d="M211.51,112.94v-10.9h6.91v0.85h-5.98v4.04h5.87v0.85h-5.87v4.31h5.98v0.85H211.51z"/>
				<path fill="#989FA1" d="M221.13,107.5c0-3.35,2.43-5.64,5.52-5.64c1.73,0,3.06,0.77,3.97,1.93l-0.78,0.51
					c-0.69-0.95-1.88-1.58-3.19-1.58c-2.55,0-4.54,1.94-4.54,4.79c0,2.81,1.99,4.79,4.54,4.79c1.31,0,2.5-0.64,3.19-1.58l0.8,0.49
					c-0.98,1.19-2.25,1.94-3.99,1.94C223.57,113.14,221.13,110.85,221.13,107.5z"/>
			</g>
			<g>
				<path fill="#989FA1" d="M204.39,96.44c-6.29,0-9.1-5.85-9.1-11.65c0-5.78,2.81-11.62,9.1-11.62c6.27,0,9.07,5.84,9.07,11.62
					C213.46,90.59,210.65,96.44,204.39,96.44z M204.39,73.92c-5.77,0-8.35,5.46-8.35,10.87c0,5.43,2.58,10.9,8.35,10.9
					c5.75,0,8.32-5.48,8.32-10.9C212.71,79.38,210.14,73.92,204.39,73.92z M204.39,93.04c-3.31,0-5.21-3.01-5.21-8.25
					c0-5.22,1.9-8.22,5.21-8.22c3.29,0,5.18,3,5.18,8.22C209.57,90.03,207.68,93.04,204.39,93.04z M204.39,77.32
					c-3.88,0-4.46,4.68-4.46,7.47c0,2.26,0.44,7.5,4.46,7.5c4,0,4.43-5.25,4.43-7.5C208.82,82,208.24,77.32,204.39,77.32z"/>
				<path fill="#989FA1" d="M225.21,96.44c-3.56,0-6.37-1.18-8.36-3.5l-0.21-0.24l2.68-3.24l0.29,0.34c1.37,1.62,3.3,2.48,5.56,2.48
					c2.45,0,4.1-1.4,4.1-3.48c0-2.12-1.57-3.48-4-3.48c-1.79,0-3.22,0.56-4.52,1.76l-0.16,0.15l-3.19-0.92V73.49h15.03v4.12h-10.46
					v5.11c1.26-0.91,2.91-1.44,4.56-1.44c3.66,0,7.37,2.54,7.37,7.4C233.92,93.32,230.42,96.44,225.21,96.44z M217.63,92.69
					c1.83,1.99,4.38,3,7.58,3c4.76,0,7.96-2.82,7.96-7.01c0-4.57-3.43-6.65-6.62-6.65c-1.76,0-3.51,0.66-4.68,1.76l-0.63,0.59v-7.52
					h10.46v-2.62h-13.53v11.5l2.24,0.65c1.4-1.24,2.95-1.82,4.87-1.82c2.84,0,4.75,1.7,4.75,4.23c0,2.49-2,4.23-4.85,4.23
					c-2.33,0-4.34-0.83-5.84-2.42L217.63,92.69z"/>
			</g>
			<g>
				<rect x="190.14" y="64.24" fill="#989FA1" width="49.17" height="0.75"/>
			</g>
			<g>
				<circle fill="#FFFFFF" cx="197.49" cy="55.99" r="2.46"/>
				<path fill="#989FA1" d="M197.48,58.82c-1.56,0-2.84-1.27-2.84-2.84s1.27-2.84,2.84-2.84s2.84,1.27,2.84,2.84
					S199.05,58.82,197.48,58.82z M197.48,53.9c-1.15,0-2.09,0.94-2.09,2.09s0.94,2.09,2.09,2.09s2.09-0.94,2.09-2.09
					S198.64,53.9,197.48,53.9z"/>
			</g>
			<g>
				<circle fill="#FFFFFF" cx="214.73" cy="55.99" r="2.46"/>
				<path fill="#989FA1" d="M214.73,58.82c-1.56,0-2.84-1.27-2.84-2.84s1.27-2.84,2.84-2.84s2.84,1.27,2.84,2.84
					S216.29,58.82,214.73,58.82z M214.73,53.9c-1.15,0-2.09,0.94-2.09,2.09s0.94,2.09,2.09,2.09s2.09-0.94,2.09-2.09
					S215.88,53.9,214.73,53.9z"/>
			</g>
			<g>
				<circle fill="#FFFFFF" cx="231.91" cy="55.99" r="2.46"/>
				<path fill="#989FA1" d="M231.91,58.82c-1.56,0-2.84-1.27-2.84-2.84s1.27-2.84,2.84-2.84s2.84,1.27,2.84,2.84
					S233.47,58.82,231.91,58.82z M231.91,53.9c-1.15,0-2.09,0.94-2.09,2.09s0.94,2.09,2.09,2.09s2.09-0.94,2.09-2.09
					S233.06,53.9,231.91,53.9z"/>
			</g>
		</g>
		<g opacity="0.6">
			<g>
				<rect x="53.7" y="47.37" fill="#FFFFFF" width="63.48" height="75.33"/>
				<path fill="#989FA1" d="M117.55,123.07H53.33V46.99h64.23V123.07z M54.08,122.32h62.73V47.74H54.08V122.32z"/>
			</g>
			<g>
				<path fill="#989FA1" d="M69.24,107.5c0-3.19,2.09-5.64,5.29-5.64c3.19,0,5.29,2.45,5.29,5.64s-2.11,5.64-5.29,5.64
					C71.34,113.14,69.24,110.69,69.24,107.5z M78.85,107.5c0-2.76-1.7-4.79-4.31-4.79c-2.63,0-4.31,2.03-4.31,4.79
					c0,2.75,1.68,4.79,4.31,4.79C77.15,112.29,78.85,110.24,78.85,107.5z"/>
				<path fill="#989FA1" d="M82.54,107.5c0-3.35,2.43-5.64,5.52-5.64c1.73,0,3.06,0.77,3.97,1.93l-0.78,0.51
					c-0.69-0.95-1.88-1.58-3.19-1.58c-2.55,0-4.54,1.94-4.54,4.79c0,2.81,1.99,4.79,4.54,4.79c1.31,0,2.5-0.64,3.19-1.58l0.8,0.49
					c-0.98,1.19-2.25,1.94-3.99,1.94C84.98,113.14,82.54,110.85,82.54,107.5z"/>
				<path fill="#989FA1" d="M97.51,112.94v-10.05h-3.56v-0.85h8.07v0.85h-3.56v10.05H97.51z"/>
			</g>
			<g>
				<path fill="#989FA1" d="M75.24,96.44c-6.29,0-9.1-5.85-9.1-11.65c0-5.78,2.81-11.62,9.1-11.62c6.27,0,9.07,5.84,9.07,11.62
					C84.31,90.59,81.5,96.44,75.24,96.44z M75.24,73.92c-5.77,0-8.35,5.46-8.35,10.87c0,5.43,2.58,10.9,8.35,10.9
					c5.75,0,8.32-5.48,8.32-10.9C83.56,79.38,80.99,73.92,75.24,73.92z M75.24,93.04c-3.31,0-5.21-3.01-5.21-8.25
					c0-5.22,1.9-8.22,5.21-8.22c3.29,0,5.18,3,5.18,8.22C80.42,90.03,78.53,93.04,75.24,93.04z M75.24,77.32
					c-3.88,0-4.46,4.68-4.46,7.47c0,2.26,0.44,7.5,4.46,7.5c4,0,4.43-5.25,4.43-7.5C79.67,82,79.09,77.32,75.24,77.32z"/>
				<path fill="#989FA1" d="M96.06,96.44c-3.56,0-6.37-1.18-8.36-3.5L87.5,92.7l2.68-3.24l0.29,0.34c1.37,1.62,3.3,2.48,5.56,2.48
					c2.45,0,4.1-1.4,4.1-3.48c0-2.12-1.57-3.48-4-3.48c-1.79,0-3.22,0.56-4.52,1.76l-0.16,0.15l-3.19-0.92V73.49h15.03v4.12H92.84
					v5.11c1.26-0.91,2.91-1.44,4.56-1.44c3.66,0,7.37,2.54,7.37,7.4C104.77,93.32,101.27,96.44,96.06,96.44z M88.48,92.69
					c1.83,1.99,4.38,3,7.58,3c4.76,0,7.96-2.82,7.96-7.01c0-4.57-3.43-6.65-6.62-6.65c-1.76,0-3.51,0.66-4.68,1.76l-0.63,0.59v-7.52
					h10.46v-2.62H89.02v11.5l2.24,0.65c1.4-1.24,2.95-1.82,4.87-1.82c2.84,0,4.75,1.7,4.75,4.23c0,2.49-2,4.23-4.85,4.23
					c-2.33,0-4.34-0.83-5.84-2.42L88.48,92.69z"/>
			</g>
			<g>
				<rect x="60.99" y="64.24" fill="#989FA1" width="49.17" height="0.75"/>
			</g>
			<g>
				<circle fill="#FFFFFF" cx="68.33" cy="55.99" r="2.46"/>
				<path fill="#989FA1" d="M68.33,58.82c-1.56,0-2.84-1.27-2.84-2.84s1.27-2.84,2.84-2.84s2.84,1.27,2.84,2.84
					S69.9,58.82,68.33,58.82z M68.33,53.9c-1.15,0-2.09,0.94-2.09,2.09s0.94,2.09,2.09,2.09s2.09-0.94,2.09-2.09
					S69.49,53.9,68.33,53.9z"/>
			</g>
			<g>
				<circle fill="#FFFFFF" cx="85.58" cy="55.99" r="2.46"/>
				<path fill="#989FA1" d="M85.58,58.82c-1.56,0-2.84-1.27-2.84-2.84s1.27-2.84,2.84-2.84s2.84,1.27,2.84,2.84
					S87.14,58.82,85.58,58.82z M85.58,53.9c-1.15,0-2.09,0.94-2.09,2.09s0.94,2.09,2.09,2.09s2.09-0.94,2.09-2.09
					S86.73,53.9,85.58,53.9z"/>
			</g>
			<g>
				<circle fill="#FFFFFF" cx="102.76" cy="55.99" r="2.46"/>
				<path fill="#989FA1" d="M102.76,58.82c-1.56,0-2.84-1.27-2.84-2.84s1.27-2.84,2.84-2.84s2.84,1.27,2.84,2.84
					S104.32,58.82,102.76,58.82z M102.76,53.9c-1.15,0-2.09,0.94-2.09,2.09s0.94,2.09,2.09,2.09s2.09-0.94,2.09-2.09
					S103.91,53.9,102.76,53.9z"/>
			</g>
		</g>
		<g>
			<g>
				<rect x="107.44" y="34.28" fill="#FFFFFF" width="85.53" height="101.5"/>
				<path fill="#989FA1" d="M193.34,136.16h-86.28V33.91h86.28V136.16z M107.82,135.41h84.78V34.66h-84.78V135.41z"/>
			</g>
			
				<rect x="103.14" y="45.95" transform="matrix(-1.836970e-16 1 -1 -1.836970e-16 235.2385 -65.1707)" fill="#ECEFEF" width="94.14" height="78.16"/>
			<g>
				<path fill="#989FA1" d="M138.44,122.64l-9.25-12.62v12.62h-1.26v-14.69h1.28l9.2,12.44v-12.44h1.25v14.69H138.44z"/>
				<path fill="#989FA1" d="M143.87,115.31c0-4.29,2.82-7.6,7.13-7.6c4.29,0,7.13,3.3,7.13,7.6c0,4.29-2.84,7.6-7.13,7.6
					C146.69,122.9,143.87,119.6,143.87,115.31z M156.82,115.31c0-3.72-2.29-6.45-5.81-6.45c-3.54,0-5.81,2.73-5.81,6.45
					c0,3.7,2.27,6.45,5.81,6.45C154.52,121.76,156.82,119.01,156.82,115.31z"/>
				<path fill="#989FA1" d="M166.41,122.64l-6.01-14.69h1.45l5.35,13.28l5.33-13.28h1.45l-6.01,14.69H166.41z"/>
			</g>
			<g>
				<g>
					<path fill="#FFFFFF" d="M124.7,84.7c0-7.4,3.48-15.15,11.76-15.15c8.24,0,11.72,7.75,11.72,15.15c0,7.36-3.48,15.2-11.72,15.2
						C128.18,99.9,124.7,92.05,124.7,84.7z M142.94,84.7c0-5.64-1.67-10.57-6.48-10.57s-6.52,4.93-6.52,10.57
						c0,5.59,1.72,10.62,6.52,10.62C141.22,95.31,142.94,90.29,142.94,84.7z"/>
					<path fill="#989FA1" d="M136.47,100.27c-8.38,0-12.14-7.82-12.14-15.57c0-7.73,3.75-15.53,12.14-15.53
						c8.35,0,12.09,7.8,12.09,15.53C148.56,92.45,144.82,100.27,136.47,100.27z M136.47,69.92c-7.87,0-11.39,7.42-11.39,14.78
						c0,7.38,3.52,14.82,11.39,14.82c7.84,0,11.34-7.44,11.34-14.82C147.81,77.34,144.3,69.92,136.47,69.92z M136.47,95.69
						c-4.38,0-6.89-4.01-6.89-10.99c0-6.96,2.51-10.95,6.89-10.95c4.35,0,6.85,3.99,6.85,10.95
						C143.32,91.68,140.82,95.69,136.47,95.69z M136.47,74.5c-5.35,0-6.14,6.39-6.14,10.2c0,3.08,0.6,10.24,6.14,10.24
						c5.51,0,6.1-7.16,6.1-10.24C142.57,80.89,141.77,74.5,136.47,74.5z"/>
				</g>
				<g>
					<path fill="#FFFFFF" d="M153.64,95.36l2.95-3.57c1.94,2.29,4.62,3.52,7.88,3.52c3.74,0,6.04-2.29,6.04-5.2
						c0-3.13-2.29-5.2-5.9-5.2c-2.47,0-4.54,0.75-6.43,2.51l-3.66-1.06V69.98h19.25v4.54h-14.1v8.46c1.45-1.37,3.83-2.51,6.65-2.51
						c4.98,0,9.43,3.44,9.43,9.47c0,6.08-4.67,9.96-11.23,9.96C159.5,99.9,156.02,98.13,153.64,95.36z"/>
					<path fill="#989FA1" d="M164.52,100.27c-4.75,0-8.51-1.57-11.17-4.67l-0.21-0.24l3.44-4.16l0.29,0.34
						c1.88,2.22,4.5,3.39,7.6,3.39c3.33,0,5.66-1.98,5.66-4.82c0-2.93-2.17-4.82-5.53-4.82c-2.45,0-4.41,0.77-6.18,2.41l-0.16,0.15
						l-4.13-1.2V69.61h20v5.29h-14.1v7.27c1.7-1.31,3.99-2.08,6.28-2.08c4.87,0,9.8,3.38,9.8,9.85
						C176.13,96.12,171.47,100.27,164.52,100.27z M154.13,95.35c2.49,2.77,5.99,4.17,10.39,4.17c6.49,0,10.86-3.85,10.86-9.58
						c0-6.25-4.69-9.1-9.05-9.1c-2.4,0-4.79,0.9-6.4,2.41l-0.63,0.59v-9.7h14.1v-3.79h-18.5v15.73l3.18,0.92
						c1.87-1.68,3.96-2.47,6.53-2.47c3.81,0,6.28,2.19,6.28,5.57c0,3.28-2.64,5.57-6.41,5.57c-3.16,0-5.88-1.15-7.88-3.32
						L154.13,95.35z"/>
				</g>
			</g>
			<g>
				<rect x="117.26" y="57.15" fill="#989FA1" width="66.25" height="0.75"/>
			</g>
			<g>
				<circle fill="#FFFFFF" cx="127.16" cy="45.89" r="3.32"/>
				<path fill="#989FA1" d="M127.16,49.59c-2.04,0-3.69-1.66-3.69-3.69s1.66-3.69,3.69-3.69c2.04,0,3.69,1.66,3.69,3.69
					S129.19,49.59,127.16,49.59z M127.16,42.95c-1.62,0-2.94,1.32-2.94,2.94s1.32,2.94,2.94,2.94c1.62,0,2.94-1.32,2.94-2.94
					S128.78,42.95,127.16,42.95z"/>
			</g>
			<g>
				<circle fill="#FFFFFF" cx="150.39" cy="45.89" r="3.32"/>
				<path fill="#989FA1" d="M150.39,49.59c-2.04,0-3.69-1.66-3.69-3.69s1.66-3.69,3.69-3.69s3.69,1.66,3.69,3.69
					S152.43,49.59,150.39,49.59z M150.39,42.95c-1.62,0-2.94,1.32-2.94,2.94s1.32,2.94,2.94,2.94s2.94-1.32,2.94-2.94
					S152.01,42.95,150.39,42.95z"/>
			</g>
			<g>
				<circle fill="#FFFFFF" cx="173.54" cy="45.89" r="3.32"/>
				<path fill="#989FA1" d="M173.54,49.59c-2.04,0-3.69-1.66-3.69-3.69s1.66-3.69,3.69-3.69s3.69,1.66,3.69,3.69
					S175.57,49.59,173.54,49.59z M173.54,42.95c-1.62,0-2.94,1.32-2.94,2.94s1.32,2.94,2.94,2.94s2.94-1.32,2.94-2.94
					S175.16,42.95,173.54,42.95z"/>
			</g>
		</g>
		<g>
			<circle fill="#EEE679" cx="192.97" cy="30.53" r="29.48"/>
			<g>
				<g>
					<polygon fill="#FFFFFF" points="203.13,37.12 184.02,37.12 186.12,32.25 180.37,17.9 176.14,17.9 176.14,17.15 180.88,17.15 
						186.93,32.26 185.16,36.37 203.13,36.37 					"/>
					<path fill="#FFFFFF" d="M203.5,37.5h-20.05l2.26-5.25l-5.59-13.98h-4.35v-1.5h5.37l6.2,15.5l-1.6,3.73h17.77V37.5z
						 M184.59,36.75h18.16H184.59l1.93-4.49l-5.89-14.74h-4.11h4.11l5.89,14.74L184.59,36.75z"/>
				</g>
				<g>
					<path fill="#FFFFFF" d="M186.28,32.65l-4.69-11.81h26.01l-2.32,10.32L186.28,32.65z M182.69,21.6l4.08,10.27l17.89-1.4l2-8.87
						H182.69z"/>
					<path fill="#FFFFFF" d="M186.03,33.05l-5-12.58h27.03l-2.49,11.05L186.03,33.05z M182.13,21.22l4.39,11.04l18.44-1.44l1.37-6.1
						l-1.37,6.1l-18.44,1.44L182.13,21.22z M183.24,21.97l3.78,9.5l17.33-1.35l1.83-8.14H183.24z"/>
				</g>
				<g>
					<path fill="#FFFFFF" d="M188.72,44.95c-1.72,0-3.13-1.4-3.13-3.13s1.4-3.13,3.13-3.13s3.13,1.4,3.13,3.13
						S190.44,44.95,188.72,44.95z M188.72,39.45c-1.31,0-2.38,1.07-2.38,2.38s1.07,2.38,2.38,2.38s2.38-1.07,2.38-2.38
						S190.03,39.45,188.72,39.45z"/>
					<path fill="#FFFFFF" d="M188.72,45.32c-1.93,0-3.5-1.57-3.5-3.5s1.57-3.5,3.5-3.5c1.93,0,3.5,1.57,3.5,3.5
						S190.65,45.32,188.72,45.32z M185.97,41.82c0,1.52,1.23,2.75,2.75,2.75c1.52,0,2.75-1.23,2.75-2.75c0,1.52-1.23,2.75-2.75,2.75
						C187.2,44.57,185.97,43.34,185.97,41.82z M188.72,39.82c-1.1,0-2,0.9-2,2s0.9,2,2,2c1.1,0,2-0.9,2-2S189.82,39.82,188.72,39.82
						z"/>
				</g>
				<g>
					<path fill="#FFFFFF" d="M199.1,44.95c-1.72,0-3.13-1.4-3.13-3.13s1.4-3.13,3.13-3.13s3.13,1.4,3.13,3.13
						S200.82,44.95,199.1,44.95z M199.1,39.45c-1.31,0-2.38,1.07-2.38,2.38s1.07,2.38,2.38,2.38s2.38-1.07,2.38-2.38
						S200.41,39.45,199.1,39.45z"/>
					<path fill="#FFFFFF" d="M199.1,45.32c-1.93,0-3.5-1.57-3.5-3.5s1.57-3.5,3.5-3.5c1.93,0,3.5,1.57,3.5,3.5
						S201.03,45.32,199.1,45.32z M196.35,41.82c0,1.52,1.23,2.75,2.75,2.75c1.52,0,2.75-1.23,2.75-2.75c0,1.52-1.23,2.75-2.75,2.75
						C197.58,44.57,196.35,43.34,196.35,41.82z M199.1,39.82c-1.1,0-2,0.9-2,2s0.9,2,2,2c1.1,0,2-0.9,2-2S200.2,39.82,199.1,39.82z"
						/>
				</g>
				<g>
					<rect x="191.08" y="21.32" fill="#FFFFFF" width="0.75" height="10.51"/>
					<rect x="190.7" y="20.95" fill="#FFFFFF" width="1.5" height="11.26"/>
				</g>
				<g>
					<rect x="199.03" y="21.22" fill="#FFFFFF" width="0.75" height="9.97"/>
					<rect x="198.66" y="20.85" fill="#FFFFFF" width="1.5" height="10.72"/>
				</g>
				<g>
					
						<rect x="184.37" y="25.88" transform="matrix(0.9994 -0.0338 0.0338 0.9994 -0.7767 6.6174)" fill="#FFFFFF" width="21.53" height="0.75"/>
					<path fill="#FFFFFF" d="M184.03,27.39l-0.05-1.5l22.27-0.76l0.05,1.5L184.03,27.39z M184.75,26.61L184.75,26.61l20.77-0.71
						L184.75,26.61z"/>
				</g>
			</g>
		</g>
	</g>
</g>
<g id="Layer_2">
</g>
<g id="Layer_3">
</g>
<g id="Layer_4">
</g>
<g id="Layer_5">
</g>
<g id="Layer_6">
</g>
</svg>
