<?xml version="1.0" encoding="utf-8"?>
<!-- Generator: Adobe Illustrator 22.0.1, SVG Export Plug-In . SVG Version: 6.00 Build 0)  -->
<svg version="1.1" xmlns="http://www.w3.org/2000/svg" xmlns:xlink="http://www.w3.org/1999/xlink" x="0px" y="0px" width="300px"
	 height="142.75px" viewBox="0 0 300 142.75" enable-background="new 0 0 300 142.75" xml:space="preserve">
<g id="Layer_1">
	<g>
		<polygon fill="#AEB4B5" points="50.67,88.32 49.92,88.32 49.92,75.66 250.2,75.66 250.2,88.25 249.45,88.25 249.45,76.41 
			50.67,76.41 		"/>
		<rect x="149.69" y="63.41" fill="#AEB4B5" width="0.75" height="12.62"/>
		<rect x="149.69" y="76.04" fill="#AEB4B5" width="0.75" height="12.06"/>
		<g>
			<circle fill="#ECEFEF" cx="50.29" cy="114.85" r="20.69"/>
			<path fill="#AEB4B5" d="M50.29,141.75c-14.83,0-26.9-12.07-26.9-26.9c0-14.83,12.07-26.9,26.9-26.9c14.83,0,26.9,12.07,26.9,26.9
				C77.2,129.68,65.13,141.75,50.29,141.75z M50.29,88.69c-14.42,0-26.15,11.73-26.15,26.15S35.87,141,50.29,141
				s26.15-11.73,26.15-26.15S64.72,88.69,50.29,88.69z"/>
		</g>
		<g>
			<circle fill="#ECEFEF" cx="150.06" cy="114.6" r="20.69"/>
			<path fill="#AEB4B5" d="M150.06,141.5c-14.83,0-26.9-12.07-26.9-26.9s12.07-26.9,26.9-26.9s26.9,12.07,26.9,26.9
				S164.89,141.5,150.06,141.5z M150.06,88.44c-14.42,0-26.15,11.73-26.15,26.15s11.73,26.15,26.15,26.15s26.15-11.73,26.15-26.15
				S164.48,88.44,150.06,88.44z"/>
		</g>
		<g>
			<circle fill="#ECEFEF" cx="249.97" cy="114.53" r="20.69"/>
			<path fill="#AEB4B5" d="M249.98,141.43c-14.83,0-26.9-12.07-26.9-26.9c0-14.83,12.07-26.9,26.9-26.9
				c14.83,0,26.9,12.07,26.9,26.9C276.88,129.37,264.81,141.43,249.98,141.43z M249.98,88.38c-14.42,0-26.15,11.73-26.15,26.15
				s11.73,26.15,26.15,26.15c14.42,0,26.15-11.73,26.15-26.15S264.4,88.38,249.98,88.38z"/>
		</g>
		<circle fill="#EEE679" cx="150.17" cy="32.39" r="31.02"/>
		<g>
			<path fill="#FFFFFF" d="M162.7,45.79h-25.06v-3.71c0-4.69,2.96-8.9,7.37-10.48l0.38-0.14l0.32,0.24c2.59,1.92,6.32,1.92,8.91,0
				l0.32-0.24l0.38,0.14c4.41,1.58,7.38,5.79,7.38,10.48V45.79z M139.15,44.29h22.06v-2.21c0-3.93-2.4-7.47-6.02-8.93
				c-2.96,2-7.05,2-10.02,0c-3.62,1.46-6.02,5-6.02,8.93V44.29z"/>
			<path fill="#FFFFFF" d="M150.17,34.68c-1.94,0-3.79-0.61-5.35-1.77c-2.28-1.69-3.64-4.39-3.64-7.22c0-4.96,4.03-8.99,8.99-8.99
				s8.99,4.03,8.99,8.99c0,2.83-1.36,5.54-3.64,7.22C153.97,34.07,152.12,34.68,150.17,34.68z M150.17,18.2
				c-4.13,0-7.49,3.36-7.49,7.49c0,2.4,1.11,4.59,3.03,6.02c2.59,1.92,6.32,1.92,8.91,0c1.93-1.43,3.03-3.62,3.03-6.02
				C157.66,21.56,154.3,18.2,150.17,18.2z"/>
		</g>
		<path id="XMLID_8_" fill="#253B80" d="M47.03,124.36l0.33-2.09l-0.73-0.02h-3.51l2.44-15.45c0.01-0.05,0.03-0.09,0.07-0.12
			c0.04-0.03,0.08-0.05,0.13-0.05h5.91c1.96,0,3.32,0.41,4.02,1.21c0.33,0.38,0.54,0.77,0.64,1.21c0.11,0.46,0.11,1,0,1.67
			l-0.01,0.05v0.43l0.33,0.19c0.28,0.15,0.5,0.32,0.67,0.51c0.28,0.32,0.47,0.73,0.54,1.22c0.08,0.5,0.05,1.1-0.08,1.77
			c-0.15,0.78-0.4,1.45-0.73,2.01c-0.3,0.51-0.69,0.93-1.15,1.26c-0.44,0.31-0.96,0.55-1.55,0.7c-0.57,0.15-1.22,0.22-1.94,0.22
			h-0.46c-0.33,0-0.65,0.12-0.9,0.33c-0.25,0.22-0.42,0.51-0.47,0.84l-0.03,0.19l-0.58,3.69l-0.03,0.14
			c-0.01,0.04-0.02,0.06-0.04,0.08c-0.02,0.01-0.04,0.02-0.06,0.02H47.03z"/>
		<path id="XMLID_7_" fill="#A8B1B2" d="M56.98,110.82c-0.02,0.11-0.04,0.23-0.06,0.35c-0.78,4-3.45,5.39-6.85,5.39h-1.73
			c-0.42,0-0.77,0.3-0.83,0.71l-0.89,5.63l-0.25,1.6c-0.04,0.27,0.17,0.51,0.44,0.51h3.08c0.36,0,0.67-0.26,0.73-0.62l0.03-0.16
			l0.58-3.68l0.04-0.2c0.06-0.36,0.37-0.63,0.73-0.63h0.46c2.98,0,5.31-1.21,6-4.71c0.28-1.46,0.14-2.68-0.62-3.54
			C57.59,111.21,57.31,111,56.98,110.82z"/>
		<path id="XMLID_6_" fill="#555B5B" d="M56.16,110.5c-0.12-0.03-0.24-0.07-0.37-0.09c-0.13-0.03-0.26-0.05-0.39-0.07
			c-0.47-0.08-0.98-0.11-1.53-0.11h-4.63c-0.11,0-0.22,0.03-0.32,0.07c-0.21,0.1-0.37,0.31-0.41,0.55l-0.99,6.24l-0.03,0.18
			c0.06-0.41,0.42-0.71,0.83-0.71h1.73c3.41,0,6.07-1.38,6.85-5.39c0.02-0.12,0.04-0.23,0.06-0.35c-0.2-0.1-0.41-0.19-0.64-0.27
			C56.28,110.53,56.22,110.51,56.16,110.5z"/>
		<path id="XMLID_4_" fill="#7B8384" d="M48.51,110.84c0.04-0.25,0.2-0.45,0.41-0.55c0.1-0.05,0.21-0.07,0.32-0.07h4.63
			c0.55,0,1.06,0.04,1.53,0.11c0.13,0.02,0.26,0.05,0.39,0.07c0.13,0.03,0.25,0.06,0.37,0.09c0.06,0.02,0.12,0.04,0.18,0.05
			c0.23,0.08,0.44,0.17,0.64,0.27c0.23-1.48,0-2.49-0.8-3.4c-0.88-1-2.47-1.43-4.51-1.43h-5.91c-0.42,0-0.77,0.3-0.84,0.71
			l-2.46,15.61c-0.05,0.31,0.19,0.59,0.5,0.59h3.65l0.92-5.81L48.51,110.84z"/>
		<g>
			<g>
				<path fill="#989FA1" d="M137.66,112.87v-5.46h2.4c1.14,0,1.77,0.78,1.77,1.71c0,0.92-0.64,1.7-1.77,1.7h-1.45v2.04H137.66z
					 M140.85,109.12c0-0.52-0.38-0.87-0.92-0.87h-1.32v1.73h1.32C140.47,109.98,140.85,109.64,140.85,109.12z"/>
				<path fill="#989FA1" d="M142.98,112.87v-5.46h0.96v4.61h2.41v0.84H142.98z"/>
				<path fill="#989FA1" d="M151.43,112.87l-0.4-1.05h-2.5l-0.4,1.05h-1.09l2.14-5.46h1.19l2.14,5.46H151.43z M149.77,108.37
					l-0.98,2.6h1.96L149.77,108.37z"/>
				<path fill="#989FA1" d="M152.99,110.15c0-1.68,1.25-2.82,2.86-2.82c1.1,0,1.78,0.56,2.18,1.22l-0.81,0.42
					c-0.26-0.46-0.79-0.79-1.37-0.79c-1.08,0-1.88,0.82-1.88,1.97c0,1.14,0.8,1.97,1.88,1.97c0.58,0,1.11-0.34,1.37-0.79l0.82,0.41
					c-0.42,0.65-1.1,1.23-2.19,1.23C154.24,112.97,152.99,111.82,152.99,110.15z"/>
				<path fill="#989FA1" d="M159.22,112.87v-5.46h3.74v0.84h-2.78v1.41h2.72v0.84h-2.72v1.52h2.78v0.84H159.22z"/>
				<path fill="#989FA1" d="M136.2,119.97c0-1.63,1.15-2.82,2.79-2.82c1.63,0,2.79,1.19,2.79,2.82c0,1.63-1.16,2.82-2.79,2.82
					C137.35,122.79,136.2,121.6,136.2,119.97z M140.8,119.97c0-1.13-0.71-1.97-1.81-1.97c-1.1,0-1.81,0.84-1.81,1.97
					c0,1.12,0.7,1.97,1.81,1.97C140.08,121.94,140.8,121.09,140.8,119.97z"/>
				<path fill="#989FA1" d="M146.22,122.69l-1.2-2.04h-0.96v2.04h-0.96v-5.46h2.4c1.08,0,1.79,0.7,1.79,1.71
					c0,0.97-0.64,1.5-1.3,1.6l1.34,2.14H146.22z M146.31,118.94c0-0.52-0.39-0.86-0.93-0.86h-1.32v1.73h1.32
					C145.92,119.81,146.31,119.47,146.31,118.94z"/>
				<path fill="#989FA1" d="M148.66,122.69v-5.46h2.03c1.71,0,2.85,1.13,2.85,2.72c0,1.61-1.15,2.73-2.85,2.73H148.66z
					 M152.56,119.96c0-1.05-0.65-1.88-1.86-1.88h-1.08v3.77h1.07C151.88,121.85,152.56,121,152.56,119.96z"/>
				<path fill="#989FA1" d="M154.88,122.69v-5.46h3.74v0.84h-2.78v1.41h2.72v0.84h-2.72v1.52h2.78v0.84H154.88z"/>
				<path fill="#989FA1" d="M163.13,122.69l-1.2-2.04h-0.96v2.04h-0.96v-5.46h2.4c1.08,0,1.79,0.7,1.79,1.71
					c0,0.97-0.64,1.5-1.3,1.6l1.34,2.14H163.13z M163.22,118.94c0-0.52-0.39-0.86-0.93-0.86h-1.32v1.73h1.32
					C162.83,119.81,163.22,119.47,163.22,118.94z"/>
			</g>
		</g>
		<g>
			<g>
				<path fill="#FFFFFF" d="M247.89,114.57c0,0-4.82-4.2-5.07-9.03c-0.01-0.15-0.01-0.3-0.01-0.45h14.28c0,0.15-0.01,0.3-0.01,0.45
					c-0.25,4.82-5.07,9.03-5.07,9.03s5.1,3.41,5.1,9.41h-14.32C242.79,117.98,247.89,114.57,247.89,114.57z"/>
				<path fill="#989FA1" d="M257.48,124.35h-15.07v-0.38c0-5.22,3.67-8.5,4.89-9.44c-1.13-1.08-4.63-4.76-4.85-8.97
					c-0.01-0.16-0.02-0.31-0.02-0.47v-0.38h15.04v0.38c0,0.16,0,0.32-0.02,0.48c-0.22,4.21-3.72,7.89-4.86,8.97
					c1.22,0.94,4.89,4.22,4.89,9.44V124.35z M243.17,123.6h13.56c-0.21-5.49-4.88-8.69-4.93-8.72l-0.41-0.27l0.37-0.32
					c0.05-0.04,4.71-4.16,4.94-8.76c0-0.02,0-0.04,0-0.06h-13.51c0,0.02,0,0.03,0,0.05c0.24,4.61,4.89,8.73,4.94,8.77l0.37,0.32
					l-0.41,0.27C248.05,114.91,243.38,118.11,243.17,123.6z"/>
			</g>
			<path fill="#989FA1" d="M245.02,121.98c0.71-1.78,4.91-3.79,4.91-3.79s4.27,1.98,4.93,3.79H245.02z M245.89,108.89
				c1.29,2.38,3.29,4.16,3.31,4.18l0.75,0.66l0.75-0.66c0.03-0.02,2.02-1.81,3.31-4.18H245.89z"/>
			<rect x="241.22" y="104.71" fill="#989FA1" width="17.51" height="0.75"/>
			<rect x="241.22" y="123.61" fill="#989FA1" width="17.51" height="0.75"/>
		</g>
	</g>
</g>
<g id="Layer_2">
</g>
<g id="Layer_3">
</g>
<g id="Layer_4">
</g>
<g id="Layer_5">
</g>
<g id="Layer_6">
</g>
</svg>
