<?xml version="1.0" encoding="utf-8"?>
<!-- Generator: Adobe Illustrator 22.0.1, SVG Export Plug-In . SVG Version: 6.00 Build 0)  -->
<svg version="1.1" xmlns="http://www.w3.org/2000/svg" xmlns:xlink="http://www.w3.org/1999/xlink" x="0px" y="0px" width="300px"
	 height="183.67px" viewBox="0 0 300 183.67" enable-background="new 0 0 300 183.67" xml:space="preserve">
<g id="Layer_1">
	<g>
		<g>
			<g>
				<g>
					<defs>
						<path id="SVGID_1_" d="M241.25,136.29c-0.04-0.29-0.03-1.01-0.03-1.01h-0.43c-0.96,0-1.34-0.35-1.34-1.29v-3.72
							c0-1.67-0.41-2.08-1.22-2.35v-0.08c0.81-0.26,1.22-0.69,1.22-2.36v-3.69c0.01-0.93,0.39-1.24,1.35-1.24h0.43
							c0,0,0.02-0.64,0.07-1.01c-0.2-0.03-0.96-0.04-0.96-0.04c-1.95,0-2.5,0.91-2.5,2.79v3.37c0,1.37-0.81,1.56-1.12,1.56v1.33
							c0.3,0,1.12,0.19,1.12,1.54v3.39c0,1.87,0.55,2.76,2.49,2.76C240.32,136.25,241.09,136.29,241.25,136.29"/>
					</defs>
					<use xlink:href="#SVGID_1_"  overflow="visible" fill-rule="evenodd" clip-rule="evenodd" fill="#B7B7B7"/>
					<clipPath id="SVGID_2_">
						<use xlink:href="#SVGID_1_"  overflow="visible"/>
					</clipPath>
					<g clip-path="url(#SVGID_2_)">
						<defs>
							<rect id="SVGID_3_" x="144.44" y="-66.58" width="396.59" height="396.59"/>
						</defs>
						<use xlink:href="#SVGID_3_"  overflow="visible" fill="#B7B7B7"/>
						<clipPath id="SVGID_4_">
							<use xlink:href="#SVGID_3_"  overflow="visible"/>
						</clipPath>
						<rect x="232.91" y="115.7" clip-path="url(#SVGID_4_)" fill="#B7B7B7" width="12.2" height="24.41"/>
					</g>
				</g>
				<g>
					<defs>
						<path id="SVGID_5_" d="M245.86,138.4c-0.05-0.37-0.04-1.27-0.04-1.27h-0.53c-1.21,0-1.68-0.44-1.68-1.61v-4.66
							c0-2.09-0.51-2.6-1.52-2.94v-0.1c1.02-0.33,1.52-0.86,1.52-2.96v-4.62c0.01-1.17,0.48-1.55,1.69-1.55h0.53
							c0,0,0.03-0.8,0.09-1.27c-0.25-0.04-1.21-0.05-1.21-0.05c-2.44,0-3.12,1.14-3.12,3.49v4.21c0,1.72-1.02,1.95-1.4,1.95v1.67
							c0.38,0,1.4,0.23,1.4,1.93v4.24c0,2.35,0.69,3.45,3.11,3.45C244.7,138.35,245.65,138.4,245.86,138.4"/>
					</defs>
					<use xlink:href="#SVGID_5_"  overflow="visible" fill-rule="evenodd" clip-rule="evenodd" fill="#B7B7B7"/>
					<clipPath id="SVGID_6_">
						<use xlink:href="#SVGID_5_"  overflow="visible"/>
					</clipPath>
					<g clip-path="url(#SVGID_6_)">
						<defs>
							<rect id="SVGID_7_" x="124.68" y="-115.54" width="496.43" height="496.43"/>
						</defs>
						<use xlink:href="#SVGID_7_"  overflow="visible" fill="#B7B7B7"/>
						<clipPath id="SVGID_8_">
							<use xlink:href="#SVGID_7_"  overflow="visible"/>
						</clipPath>
						<rect x="235.42" y="112.63" clip-path="url(#SVGID_8_)" fill="#B7B7B7" width="15.27" height="30.55"/>
					</g>
				</g>
			</g>
			<g>
				<g>
					<defs>
						<path id="SVGID_9_" d="M264.64,119.51c0.04,0.29,0.03,1.01,0.03,1.01h0.43c0.96,0,1.34,0.35,1.34,1.29v3.72
							c0,1.67,0.41,2.08,1.22,2.35v0.08c-0.81,0.26-1.22,0.69-1.22,2.36v3.69c-0.01,0.93-0.39,1.24-1.35,1.24h-0.43
							c0,0-0.02,0.64-0.07,1.01c0.2,0.03,0.96,0.04,0.96,0.04c1.95,0,2.5-0.91,2.5-2.79v-3.37c0-1.37,0.81-1.56,1.12-1.56v-1.33
							c-0.3,0-1.12-0.19-1.12-1.54v-3.39c0-1.87-0.55-2.76-2.49-2.76C265.56,119.55,264.8,119.51,264.64,119.51"/>
					</defs>
					<use xlink:href="#SVGID_9_"  overflow="visible" fill-rule="evenodd" clip-rule="evenodd" fill="#B7B7B7"/>
					<clipPath id="SVGID_10_">
						<use xlink:href="#SVGID_9_"  overflow="visible"/>
					</clipPath>
					<g clip-path="url(#SVGID_10_)">
						<defs>
							<rect id="SVGID_11_" x="-35.14" y="-74.21" width="396.59" height="396.59"/>
						</defs>
						<use xlink:href="#SVGID_11_"  overflow="visible" fill="#B7B7B7"/>
						<clipPath id="SVGID_12_">
							<use xlink:href="#SVGID_11_"  overflow="visible"/>
						</clipPath>
						<rect x="260.78" y="115.7" clip-path="url(#SVGID_12_)" fill="#B7B7B7" width="12.2" height="24.41"/>
					</g>
				</g>
				<g>
					<defs>
						<path id="SVGID_13_" d="M260.03,117.4c0.05,0.37,0.04,1.27,0.04,1.27h0.53c1.21,0,1.68,0.44,1.68,1.61v4.66
							c0,2.09,0.51,2.6,1.52,2.94v0.1c-1.02,0.33-1.52,0.86-1.52,2.96v4.62c-0.01,1.17-0.48,1.55-1.69,1.55h-0.53
							c0,0-0.03,0.8-0.09,1.27c0.25,0.04,1.21,0.05,1.21,0.05c2.44,0,3.12-1.14,3.12-3.49v-4.21c0-1.72,1.02-1.95,1.4-1.95v-1.67
							c-0.38,0-1.4-0.23-1.4-1.93v-4.24c0-2.35-0.69-3.45-3.11-3.45C261.19,117.45,260.24,117.4,260.03,117.4"/>
					</defs>
					<use xlink:href="#SVGID_13_"  overflow="visible" fill-rule="evenodd" clip-rule="evenodd" fill="#B7B7B7"/>
					<clipPath id="SVGID_14_">
						<use xlink:href="#SVGID_13_"  overflow="visible"/>
					</clipPath>
					<g clip-path="url(#SVGID_14_)">
						<defs>
							<rect id="SVGID_15_" x="-115.22" y="-125.09" width="496.43" height="496.43"/>
						</defs>
						<use xlink:href="#SVGID_15_"  overflow="visible" fill="#B7B7B7"/>
						<clipPath id="SVGID_16_">
							<use xlink:href="#SVGID_15_"  overflow="visible"/>
						</clipPath>
						<rect x="255.2" y="112.63" clip-path="url(#SVGID_16_)" fill="#B7B7B7" width="15.27" height="30.55"/>
					</g>
				</g>
			</g>
			<g>
				<defs>
					<path id="SVGID_17_" d="M255.16,132.97c0.62-0.18,1.14-0.45,1.57-0.78c0.43-0.34,0.76-0.75,0.99-1.25
						c0.23-0.49,0.35-1.04,0.35-1.64c0-0.52-0.09-0.98-0.26-1.34c-0.18-0.38-0.45-0.71-0.84-0.99c-0.39-0.29-0.88-0.54-1.49-0.76
						c-0.6-0.22-1.33-0.45-2.18-0.67c-0.92-0.24-1.55-0.45-1.91-0.65c-0.36-0.19-0.54-0.5-0.54-0.93c0-0.49,0.19-0.85,0.56-1.07
						c0.37-0.22,0.84-0.34,1.38-0.34c0.59,0,1.19,0.1,1.78,0.3c0.59,0.2,1.23,0.52,1.9,0.97l1.26-1.98
						c-0.73-0.47-1.52-0.85-2.37-1.13c-0.84-0.28-1.7-0.42-2.55-0.42c-0.69,0-1.33,0.1-1.91,0.29c-0.58,0.19-1.1,0.46-1.53,0.82
						c-0.44,0.36-0.77,0.79-1.02,1.3c-0.24,0.51-0.36,1.08-0.36,1.71c0,0.47,0.07,0.89,0.23,1.24c0.15,0.35,0.4,0.66,0.73,0.93
						c0.33,0.27,0.78,0.51,1.33,0.72c0.55,0.2,1.22,0.41,2,0.6c1.02,0.25,1.75,0.49,2.18,0.71c0.44,0.21,0.65,0.54,0.65,0.99
						c0,0.45-0.19,0.78-0.55,1.03c-0.36,0.24-0.87,0.36-1.51,0.36c-1.42,0-2.89-0.51-4.42-1.55l-1.23,2.17
						c0.35,0.25,0.75,0.48,1.22,0.69c0.45,0.2,0.94,0.38,1.44,0.52c0.5,0.15,1.02,0.25,1.54,0.34c0.53,0.08,1.03,0.12,1.52,0.12
						C253.86,133.24,254.55,133.15,255.16,132.97"/>
				</defs>
				<use xlink:href="#SVGID_17_"  overflow="visible" fill-rule="evenodd" clip-rule="evenodd" fill="#B7B7B7"/>
				<clipPath id="SVGID_18_">
					<use xlink:href="#SVGID_17_"  overflow="visible"/>
				</clipPath>
				<g clip-path="url(#SVGID_18_)">
					<defs>
						<rect id="SVGID_19_" x="144.44" y="-66.58" width="396.59" height="396.59"/>
					</defs>
					<use xlink:href="#SVGID_19_"  overflow="visible" fill="#B7B7B7"/>
					<clipPath id="SVGID_20_">
						<use xlink:href="#SVGID_19_"  overflow="visible"/>
					</clipPath>
					<rect x="243.59" y="116.46" clip-path="url(#SVGID_20_)" fill="#B7B7B7" width="18.3" height="20.59"/>
				</g>
			</g>
		</g>
		<g>
			<path fill="#B7B7B7" d="M14.09,122.65c0,4.5,2.61,8.38,6.4,10.22l-5.42-14.84C14.45,119.44,14.09,121.01,14.09,122.65z"/>
			<g>
				<path fill="#B7B7B7" d="M33.12,122.08c0-1.4-0.5-2.38-0.94-3.13c-0.58-0.94-1.12-1.73-1.12-2.66c0-1.04,0.79-2.02,1.91-2.02
					c0.05,0,0.1,0.01,0.15,0.01c-2.02-1.85-4.71-2.98-7.67-2.98c-3.97,0-7.46,2.04-9.49,5.12c0.27,0.01,0.52,0.01,0.73,0.01
					c1.19,0,3.03-0.14,3.03-0.14c0.61-0.04,0.68,0.86,0.07,0.94c0,0-0.62,0.07-1.3,0.11l4.14,12.3l2.49-7.45l-1.77-4.85
					c-0.61-0.04-1.19-0.11-1.19-0.11c-0.61-0.04-0.54-0.97,0.07-0.94c0,0,1.88,0.14,2.99,0.14c1.19,0,3.03-0.14,3.03-0.14
					c0.61-0.04,0.68,0.86,0.07,0.94c0,0-0.62,0.07-1.3,0.11l4.1,12.21l1.13-3.79C32.74,124.18,33.12,123.05,33.12,122.08z"/>
				<path fill="#B7B7B7" d="M25.65,123.65l-3.41,9.9c1.02,0.3,2.09,0.46,3.21,0.46c1.32,0,2.59-0.23,3.77-0.64
					c-0.03-0.05-0.06-0.1-0.08-0.16L25.65,123.65z"/>
				<path fill="#B7B7B7" d="M35.42,117.2c0.05,0.36,0.08,0.75,0.08,1.17c0,1.15-0.22,2.45-0.86,4.07l-3.47,10.03
					c3.38-1.97,5.65-5.63,5.65-9.82C36.81,120.68,36.3,118.82,35.42,117.2z"/>
				<path fill="#B7B7B7" d="M25.45,109.41c-7.3,0-13.24,5.94-13.24,13.24c0,7.3,5.94,13.24,13.24,13.24
					c7.3,0,13.24-5.94,13.24-13.24C38.69,115.35,32.75,109.41,25.45,109.41z M25.45,135.28c-6.96,0-12.63-5.67-12.63-12.63
					c0-6.96,5.67-12.63,12.63-12.63c6.96,0,12.63,5.67,12.63,12.63C38.08,129.62,32.41,135.28,25.45,135.28z"/>
			</g>
		</g>
		<g>
			<path fill="#B7B7B7" d="M16.54,165.88c0.46,0.46,1.29,0.46,1.81,0l8.01-8.01c1.02-1.02,2.57-1.02,3.56,0
				c0.46,0.46,1.29,0.46,1.81,0c0.46-0.46,0.46-1.29,0-1.81c-1.94-1.94-5.17-1.94-7.12,0l-8.07,7.98
				C16.01,164.6,16.01,165.32,16.54,165.88L16.54,165.88z"/>
			<path fill="#B7B7B7" d="M28.96,160.48c0.46-0.46,0.46-1.29,0-1.81c-0.46-0.46-1.29-0.46-1.81,0l-7.98,8.07
				c-1.02,1.02-2.57,1.02-3.56,0c-1.02-1.02-1.02-2.57,0-3.56l7.88-7.88c-1.02-1.02-2.57-1.02-3.56,0l-6.06,6.06
				c-1.94,1.94-1.94,5.17,0,7.12c1.94,1.94,5.17,1.94,7.12,0L28.96,160.48L28.96,160.48z"/>
			<path fill="#B7B7B7" d="M29.92,161.37l-8.07,8.07c-0.46,0.46-0.46,1.29,0,1.81c0.46,0.46,1.29,0.46,1.81,0l8.01-8.01
				c1.02-1.02,2.57-1.02,3.56,0c0.99,1.02,1.02,2.57,0,3.56l-7.88,7.81c1.02,1.02,2.57,1.02,3.56,0l6.13-6.13
				c1.94-1.94,1.94-5.17,0-7.12C35.02,159.42,31.86,159.42,29.92,161.37z"/>
			<path fill="#B7B7B7" d="M34.37,164.04c-0.46-0.46-1.29-0.46-1.81,0l-8.01,8.07c-1.02,1.02-2.57,1.02-3.56,0
				c-0.46-0.46-1.29-0.46-1.81,0c-0.46,0.46-0.46,1.29,0,1.81c1.94,1.94,5.17,1.94,7.12,0l8.01-8.01
				C34.83,165.32,34.83,164.6,34.37,164.04L34.37,164.04z"/>
		</g>
		<g>
			<path id="path174_3_" fill="#B7B7B7" d="M83.66,123.23l-0.47-0.46c-1.44-1.44-1.89-3.51-1.34-5.33
				c-1.44-0.33-2.52-1.62-2.52-3.16c0-1.79,1.45-3.24,3.24-3.24c1.61,0,2.94,1.17,3.19,2.71c1.75-0.41,3.66,0.07,5.02,1.43
				l0.19,0.19l-2.39,2.39l-0.19-0.19c-0.77-0.77-2.03-0.77-2.81,0c-0.78,0.78-0.78,2.04,0,2.81l0.47,0.47l2.39,2.39l2.53,2.53
				l-2.39,2.39l-2.53-2.53L83.66,123.23"/>
			<path id="path176_3_" fill="#B7B7B7" d="M86.33,120.56l2.53-2.53l2.39-2.39l0.47-0.47c1.44-1.44,3.49-1.89,5.31-1.36
				c0.22-1.58,1.57-2.79,3.21-2.79c1.79,0,3.24,1.45,3.24,3.24c0,1.64-1.22,3-2.81,3.21c0.52,1.81,0.07,3.85-1.36,5.28l-0.19,0.19
				l-2.39-2.39l0.18-0.18c0.78-0.78,0.78-2.03,0-2.81c-0.77-0.77-2.03-0.77-2.81,0l-0.47,0.47l-2.39,2.39l-2.53,2.52L86.33,120.56"
				/>
			<path id="path184_3_" fill="#B7B7B7" d="M97.09,132.61c-1.84,0.57-3.92,0.12-5.37-1.33l-0.18-0.18l2.39-2.39l0.18,0.18
				c0.78,0.78,2.03,0.78,2.81,0c0.77-0.77,0.77-2.03,0-2.81l-0.47-0.47l-2.39-2.39l-2.52-2.52l2.39-2.39l2.52,2.52l2.39,2.39
				l0.47,0.47c1.37,1.37,1.85,3.31,1.42,5.06c1.57,0.22,2.78,1.57,2.78,3.21c0,1.79-1.45,3.24-3.24,3.24
				C98.69,135.2,97.39,134.09,97.09,132.61"/>
			<path id="path186_3_" fill="#B7B7B7" d="M96.16,125.9l-2.52,2.52l-2.39,2.39l-0.47,0.47c-1.38,1.38-3.32,1.85-5.09,1.41
				c-0.33,1.44-1.62,2.51-3.16,2.51c-1.79,0-3.24-1.45-3.24-3.24c0-1.53,1.06-2.81,2.49-3.15c-0.45-1.77,0.02-3.73,1.4-5.12
				l0.18-0.18l2.39,2.39l-0.18,0.18c-0.77,0.78-0.77,2.03,0,2.81c0.78,0.78,2.04,0.78,2.81,0l0.47-0.47l2.39-2.39l2.52-2.53
				L96.16,125.9"/>
		</g>
		<g>
			<g>
				<path fill="#B7B7B7" d="M164.08,124.11c0,1.44-0.62,2.6-2.08,2.6c-1.45,0-2.08-1.17-2.08-2.6v-4.92h-2.65v4.92
					c0,2.84,1.85,5.15,4.72,5.15c2.87,0,4.75-2.3,4.75-5.15v-4.93h-2.66L164.08,124.11z"/>
			</g>
			<g>
				<rect x="190.71" y="116.18" fill="#B7B7B7" width="2.64" height="12.82"/>
			</g>
			<g>
				<polygon fill="#B7B7B7" points="195.31,116.66 196.07,116.66 196.07,118.69 196.62,118.69 196.62,116.66 197.37,116.66 
					197.37,116.2 195.31,116.2 				"/>
			</g>
			<g>
				<polygon fill="#B7B7B7" points="199.59,116.2 199.04,117.91 199.03,117.91 198.44,116.2 197.66,116.2 197.66,118.69 
					198.18,118.69 198.18,116.94 198.19,116.94 198.8,118.69 199.23,118.69 199.85,116.92 199.85,116.92 199.85,118.69 
					200.37,118.69 200.37,116.2 				"/>
			</g>
			<g>
				<path fill="#B7B7B7" d="M151.33,120.92c-0.03,0.06-0.03,0.09-0.13,0.09c-0.08,0-0.09-0.09-0.09-0.09l-0.28-1.72h-2.37v9.8h2.66
					v-5.3c0-0.43,1.18-2.51,3.46-1.98c1.15,0.27,1.64,0.76,1.64,0.76s0-1.89,0-2.98c-0.43-0.22-0.72-0.33-1.11-0.42
					C152.83,118.56,151.39,120.8,151.33,120.92z"/>
			</g>
			<g>
				<path fill="#B7B7B7" d="M172.92,119c-2.89,0-5.24,2.32-5.24,5.19c0,0,0,7.09,0,8.04h2.66v-3.52l0-1.32c0,0,0-0.1,0.1-0.11
					c0.09,0,0.1,0.06,0.13,0.11c0.2,0.5,1.31,2.39,3.77,1.8c2.2-0.61,3.81-2.61,3.81-4.99C178.15,121.32,175.81,119,172.92,119z
					 M172.92,126.81c-1.47,0-2.65-1.17-2.65-2.62c0-1.45,1.18-2.63,2.65-2.63c1.46,0,2.65,1.18,2.65,2.63
					C175.57,125.64,174.38,126.81,172.92,126.81z"/>
			</g>
			<g>
				<path fill="#B7B7B7" d="M184.4,119c-2.89,0-5.24,2.32-5.24,5.19c0,2.38,1.61,4.38,3.82,4.99c2.46,0.59,3.57-1.3,3.77-1.8
					c0.02-0.05,0.04-0.11,0.13-0.11c0.1,0,0.1,0.11,0.1,0.11l0,1.62h2.66v-4.82C189.64,121.32,187.29,119,184.4,119z M184.4,126.81
					c-1.46,0-2.65-1.17-2.65-2.62c0-1.45,1.19-2.63,2.65-2.63c1.46,0,2.65,1.18,2.65,2.63C187.05,125.64,185.86,126.81,184.4,126.81
					z"/>
			</g>
			<g>
				<path fill="#B7B7B7" d="M140.35,116.18h-3.24v12.81h3.02c3.97,0,7.12-0.77,7.12-6.4C147.26,116.89,144.28,116.18,140.35,116.18z
					 M140.88,126.79l-1.1-0.03v-8.36h1.07c2.45,0,3.73,0.34,3.73,4.18C144.58,126.59,143.13,126.79,140.88,126.79z"/>
			</g>
		</g>
		<g>
			<path id="Shape_12_" fill="#B7B7B7" d="M114.49,159.49h-0.01l-3.16,2.48l-0.24,1.25h-3.27l0.96-5.02
				c0.23-1.89,3.11-1.32,3.54-1.21l0.46-2.42c-5.19-1.99-6.7,3.63-6.7,3.63l-0.96,5.02h-0.02l-3.25,2.55h2.78l-3.06,16.03h2.7
				l3.05-16.03h3.27l-1.2,6.28c-0.76,4.57,3.82,4.07,5.28,3.78l0.46-2.39c-3.49,0.79-3.03-1.38-3.03-1.38l1.2-6.28h4.16l0.49-2.55
				h-4.16L114.49,159.49L114.49,159.49z"/>
			<path id="Shape_11_" fill="#B7B7B7" d="M93.08,163.28l-0.49,2.7c6.6-2.88,5.49,2.13,5.49,2.13l-0.13,0.75
				c0,0-3.87-1.99-6.58,0.23c0,0-1.59,1.06-1.59,3.17c0,2.12,1.94,3.25,1.94,3.25s2.92,1.54,5.2-0.92l-0.25,1.14h2.55l1.61-7.61
				C102.03,160.61,93.08,163.28,93.08,163.28L93.08,163.28z M97.32,172.34c-2.81,2.88-4.61,1-4.61,1c-1.22-1.19,0.13-2.4,0.13-2.4
				c1.86-1.7,4.7,0.17,4.7,0.17L97.32,172.34L97.32,172.34z"/>
			<path id="Shape_10_" fill="#B7B7B7" d="M90.79,163.22c-2.08,0.02-3.98,1.18-3.98,1.18l0.24-1.14h-2.5l-2.28,12.5h2.55l1.55-8.22
				c1.14-2.32,3.97-1.6,3.97-1.6L90.79,163.22L90.79,163.22z"/>
			<path id="Shape_9_" fill="#B7B7B7" d="M81.04,157.87c0.13,0.1,0.25,0.2,0.37,0.31l1.94-1.52l0.06-0.08
				c-0.3-0.3-0.62-0.58-0.96-0.84c-4.45-3.36-11.17-1.95-15.01,3.14c-3.84,5.09-3.35,11.94,1.1,15.3c3.63,2.74,8.78,2.31,12.64-0.72
				l0-0.01L79.33,172c-2.86,1.84-6.41,1.97-8.97,0.03c-3.42-2.58-3.79-7.84-0.84-11.75C72.46,156.37,77.63,155.29,81.04,157.87
				L81.04,157.87z"/>
		</g>
		<g>
			<path fill="#B7B7B7" d="M238.63,170.14c0-1.45-1.41-2.99-3.85-2.99c-2.74,0-5.75,2.01-6.21,6.02c-0.47,4.05,2.05,5.85,4.59,5.85
				c2.54,0,3.87-0.99,5.23-2.31c-1.17-1.47-2.68-0.79-2.97-0.64c-0.32,0.16-0.73,0.38-1.57,0.38c-0.98,0-1.98-0.44-1.98-2.27
				C238.15,173.56,238.63,171.59,238.63,170.14z M235.52,170.38c-0.04,0.45-0.22,1.22-3.4,1.65c0.67-2.38,1.95-2.56,2.54-2.56
				C235.21,169.47,235.56,169.9,235.52,170.38z M224.88,170.77c0,0-1.35,4.24-1.46,4.59c-0.04-0.36-1.03-7.97-1.03-7.97
				c-2.3,0-3.53,1.64-4.18,3.37c0,0-1.64,4.25-1.78,4.61c-0.01-0.33-0.25-4.56-0.25-4.56c-0.14-2.12-2.08-3.41-3.65-3.41l1.9,11.53
				c2.41-0.01,3.71-1.64,4.39-3.37c0,0,1.45-3.75,1.51-3.92c0.01,0.16,1.04,7.29,1.04,7.29c2.42,0,3.72-1.53,4.42-3.2l3.39-8.33
				C226.79,167.4,225.53,169.03,224.88,170.77z M247.51,167.13c-1.49,0-2.63,0.81-3.59,2v-0.01l0.86-6.93
				c-1.98,0-3.59,1.72-3.9,4.28l-1.5,12.37c1.14,0,2.35-0.33,3-1.17c0.58,0.75,1.45,1.35,2.74,1.35c3.34,0,5.63-3.88,5.63-7.52
				C250.73,168.18,249.12,167.13,247.51,167.13z M247.2,173.08c-0.35,2.03-1.48,3.41-2.57,3.41c-1.1,0-1.57-0.49-1.57-0.49
				c0.21-1.78,0.34-2.87,0.74-3.81c0.4-0.94,1.35-2.44,2.34-2.44C247.11,169.75,247.55,171.04,247.2,173.08z M259.09,167.4h-2.33
				l0.01-0.12c0.16-1.52,0.52-2.32,1.71-2.45c0.81-0.08,1.17-0.5,1.26-0.96c0.07-0.36,0.29-1.61,0.29-1.61
				c-4.68-0.03-6.15,1.99-6.53,5.07l-0.01,0.07h-0.05c-0.76,0-1.6,0.86-1.74,1.95l-0.05,0.4h1.56l-1.31,10.82l-0.4,1.94
				c0.05,0,0.11,0.01,0.16,0.01c2.19-0.08,3.59-1.81,3.9-4.32l1.02-8.45h0.73c0.72,0,1.56-0.72,1.71-1.92L259.09,167.4z
				 M271.21,167.2c-2.69,0-5.23,1.98-6.01,5.09s0.4,6.79,4.36,6.79c3.95,0,6.23-3.83,6.23-7.02
				C275.79,168.89,273.64,167.2,271.21,167.2z M272.3,172.98c-0.14,1.41-0.76,3.55-2.46,3.55c-1.71,0-1.47-2.5-1.3-3.69
				c0.18-1.27,0.89-3.08,2.42-3.08C272.33,169.76,272.46,171.39,272.3,172.98z M289.07,170.77c0,0-1.35,4.24-1.46,4.59
				c-0.04-0.36-1.03-7.97-1.03-7.97c-2.3,0-3.53,1.64-4.18,3.37c0,0-1.64,4.25-1.78,4.61c-0.01-0.33-0.25-4.56-0.25-4.56
				c-0.14-2.12-2.08-3.41-3.65-3.41l1.89,11.53c2.41-0.01,3.71-1.64,4.39-3.37c0,0,1.45-3.75,1.5-3.92
				c0.01,0.16,1.04,7.29,1.04,7.29c2.42,0,3.72-1.53,4.42-3.2l3.39-8.33C290.97,167.4,289.71,169.03,289.07,170.77z M261.29,162.26
				l-1.96,15.81l0,0l-0.4,1.95c0.05,0,0.11,0.01,0.16,0.01l0,0c2.11-0.03,3.61-1.88,3.89-4.21l1.13-9.07
				C264.45,163.98,262.8,162.26,261.29,162.26z"/>
		</g>
		<path fill="#B7B7B7" d="M168.74,150.39c-7.76,0-14.05,6.29-14.05,14.05c0,7.76,6.29,14.05,14.05,14.05
			c7.76,0,14.05-6.29,14.05-14.05C182.79,156.68,176.5,150.39,168.74,150.39z M175.86,166.6c-0.38,2.02-1.55,3.21-3.51,3.57
			c-2.43,0.45-4.87,0.41-7.27-0.09c-2.41-0.51-3.42-1.78-3.65-4.5c-0.2-2.32,0.04-4.63,0.58-6.9c0.02-0.07,0.08-0.14,0.17-0.29
			c0.61,0.11,1.25,0.22,1.92,0.34c-0.14,1.07-0.34,2.05-0.39,3.04c-0.07,1.28-0.1,2.58,0.01,3.86c0.11,1.4,0.85,2.12,2.2,2.34
			c1.83,0.31,3.68,0.34,5.52,0.1c1.34-0.18,2.01-0.83,2.28-2.19c0.36-1.86,0.24-3.72,0.01-5.59c-0.05-0.41-0.11-0.83-0.19-1.39
			c0.71-0.1,1.36-0.19,2.07-0.28c0.11,0.63,0.22,1.16,0.3,1.7C176.16,162.41,176.25,164.51,175.86,166.6z"/>
		<circle fill="#EEE679" cx="149.68" cy="37.58" r="36.43"/>
		<polygon fill="#989FA1" points="297.38,97.49 296.62,97.49 296.62,91.08 3.38,91.08 3.38,97.49 2.63,97.49 2.63,90.33 
			297.38,90.33 		"/>
		<rect x="149.3" y="74.02" fill="#989FA1" width="0.75" height="16.69"/>
		<g>
			<path fill="#FFFFFF" stroke="#FFFFFF" stroke-width="0.5" stroke-miterlimit="10" d="M158.23,44.96H139.3l2.08-4.82l-5.69-14.22
				h-4.19c-0.21,0-0.38-0.17-0.38-0.38s0.17-0.38,0.38-0.38h4.7l5.99,14.98l-1.75,4.06h17.79c0.21,0,0.38,0.17,0.38,0.38
				S158.44,44.96,158.23,44.96z"/>
			<path fill="#FFFFFF" stroke="#FFFFFF" stroke-width="0.5" stroke-miterlimit="10" d="M141.54,40.53l-4.65-11.7h25.77l-2.3,10.23
				L141.54,40.53z M137.99,29.58l4.04,10.16l17.71-1.38l1.98-8.78H137.99z"/>
			<path fill="#FFFFFF" stroke="#FFFFFF" stroke-width="0.5" stroke-miterlimit="10" d="M143.96,52.71c-1.71,0-3.1-1.39-3.1-3.1
				s1.39-3.1,3.1-3.1s3.1,1.39,3.1,3.1S145.67,52.71,143.96,52.71z M143.96,47.26c-1.3,0-2.35,1.05-2.35,2.35s1.05,2.35,2.35,2.35
				c1.3,0,2.35-1.05,2.35-2.35S145.25,47.26,143.96,47.26z"/>
			<path fill="#FFFFFF" stroke="#FFFFFF" stroke-width="0.5" stroke-miterlimit="10" d="M154.24,52.71c-1.71,0-3.1-1.39-3.1-3.1
				s1.39-3.1,3.1-3.1s3.1,1.39,3.1,3.1S155.95,52.71,154.24,52.71z M154.24,47.26c-1.3,0-2.35,1.05-2.35,2.35s1.05,2.35,2.35,2.35
				c1.3,0,2.35-1.05,2.35-2.35S155.54,47.26,154.24,47.26z"/>
			
				<rect x="146.29" y="29.3" fill="#FFFFFF" stroke="#FFFFFF" stroke-width="0.5" stroke-miterlimit="10" width="0.75" height="10.41"/>
			
				<rect x="154.18" y="29.2" fill="#FFFFFF" stroke="#FFFFFF" stroke-width="0.5" stroke-miterlimit="10" width="0.75" height="9.88"/>
			
				<rect x="139.65" y="33.82" transform="matrix(0.9994 -0.0342 0.0342 0.9994 -1.0803 5.1547)" fill="#FFFFFF" stroke="#FFFFFF" stroke-width="0.5" stroke-miterlimit="10" width="21.33" height="0.75"/>
		</g>
	</g>
</g>
<g id="Layer_2">
</g>
<g id="Layer_3">
</g>
<g id="Layer_4">
</g>
<g id="Layer_5">
</g>
<g id="Layer_6">
</g>
</svg>
