<svg xmlns="http://www.w3.org/2000/svg" preserveAspectRatio="xMidYMid" width="44" height="56" viewBox="0 0 44 56"><defs><style>.cls-1 { fill: #b6bcbd; fill-rule: evenodd; }</style></defs><path d="M43.65 55.647c-.228.228-.53.353-.85.353H1.2C.538 56 0 55.46 0 54.796V1.204C0 .54.538 0 1.2 0h30.222c.305 0 .595.115.816.323l11.38 10.638c.243.23.382.55.382.89V54.8c0 .32-.125.622-.35.85zM31.27 2.707v9.22h9.86l-9.86-9.22zM41.6 14.334H30.07c-.66 0-1.198-.54-1.198-1.203V2.41H2.4v51.185h39.203v-39.26zm-27.707 20.48c.093-.11.23-.18.372-.188h.03c.134 0 .264.05.362.142.903.85 1.837 1.53 2.775 2.02.697.364 1.476.62 2.313.764l.232.04v-7.58l-.15-.038c-2.087-.515-3.58-1.188-4.57-2.06-1.108-.978-1.67-2.318-1.67-3.982v-.06c0-.824.174-1.608.518-2.332.342-.72.828-1.353 1.444-1.883.6-.522 1.33-.945 2.16-1.258.62-.24 1.31-.4 2.02-.47l.18-.018v-1.25c0-.29.237-.53.528-.53h1.447c.29 0 .53.24.53.53v1.34l.17.022c.96.136 1.844.386 2.623.742.94.43 1.89 1.027 2.826 1.777.112.09.183.22.197.363.014.143-.03.286-.122.395l-.995 1.18c-.092.108-.226.176-.367.186-.143.01-.28-.038-.39-.134-.74-.666-1.49-1.176-2.23-1.515-.49-.22-1.004-.394-1.53-.51l-.243-.053v7.46l.154.037c2.114.5 3.64 1.174 4.66 2.065 1.146 1 1.726 2.33 1.726 3.953v.06c0 .86-.176 1.67-.52 2.405-.344.73-.838 1.374-1.468 1.915-.623.536-1.37.96-2.227 1.263-.645.23-1.35.385-2.09.464l-.177.02v2.466c0 .292-.24.53-.53.53h-1.44c-.29 0-.527-.238-.527-.53v-2.51l-.172-.023c-1.19-.164-2.31-.486-3.32-.958-1.18-.56-2.35-1.34-3.47-2.34-.216-.2-.24-.52-.053-.74l.995-1.18zm6.085-14.467l-.225.03c-.976.133-1.787.47-2.41 1.007-.762.656-1.133 1.43-1.133 2.366v.06c0 .425.06.82.182 1.176.112.332.32.65.618.94.314.31.757.596 1.317.85.382.176.852.347 1.395.51l.255.075v-7.01zm2.38 17.334l.226-.03c.394-.05.767-.14 1.11-.25.55-.19 1.03-.45 1.42-.77.384-.318.668-.678.867-1.103.2-.427.3-.872.3-1.362v-.06c0-.444-.06-.856-.182-1.224-.112-.337-.32-.64-.635-.923-.336-.303-.804-.58-1.39-.83-.406-.17-.897-.336-1.46-.49l-.25-.07v7.12z" class="cls-1"/></svg>