<svg xmlns="http://www.w3.org/2000/svg" preserveAspectRatio="xMidYMid" width="62" height="62" viewBox="0 0 62 62"><defs><style>.cls-1 { fill: #98a2a4; fill-rule: evenodd; }</style></defs><path d="M40.088 56.91c-2.242-2.24-3.477-5.222-3.477-8.393 0-2.783.96-5.42 2.7-7.538l-1.09-1.1c-.83.52-1.792.81-2.8.81-1.4 0-2.716-.55-3.706-1.54L28.1 35.532l-3.4 3.4 4.382 4.383L10.4 62 0 51.6l18.676-18.676 4.383 4.383 3.39-3.4-4.73-4.73 1.212-1.21-7.698-3.698c-.576-.28-.818-.97-.54-1.55.274-.577.965-.82 1.54-.54l8.43 4.05 1.526-1.53-4.05-8.43c-.275-.574-.033-1.264.54-1.54.578-.276 1.268-.034 1.545.542l3.698 7.696 1.213-1.21 4.73 4.73 3.4-3.4-4.383-4.385L51.6 0 62 10.4 43.29 29.11l-4.383-4.383-3.4 3.4 3.614 3.613c.99.99 1.54 2.307 1.54 3.707 0 1.008-.28 1.97-.81 2.8l1.1 1.1c4.66-3.836 11.58-3.578 15.936.775l.817.817-7.58 7.57 1.81 1.81c.228.225.34.52.34.817 0 .296-.112.59-.34.817-.45.45-1.18.45-1.632 0l-1.81-1.81-7.577 7.576-.82-.82zm-17.03-16.335l-6.735 6.736 2.75 2.75 6.735-6.73-2.75-2.75zM7.954 55.68l2.75 2.75 6.735-6.736-2.75-2.75-6.74 6.736zm5.102-8.37l-2.75-2.748-6.735 6.736 2.75 2.75 6.74-6.737zm5.62-11.118l-6.734 6.736 2.75 2.75 6.735-6.737-2.75-2.74zm20.232-14.734l6.736-6.735-2.75-2.748-6.734 6.735 2.747 2.748zM54.013 6.353l-2.75-2.75-6.735 6.737 2.75 2.75 6.735-6.737zm-5.102 8.37l2.75 2.75 6.74-6.737-2.75-2.75-6.732 6.737zm-5.62 11.12l6.74-6.737-2.75-2.75-6.73 6.736 2.748 2.75zM25 29.177l.79.793 4.147-4.146-.792-.792L25 29.177zm13.346 6.27c0-.783-.305-1.52-.858-2.073l-5.917-5.916-4.14 4.146 5.918 5.917c.555.56 1.29.86 2.074.86.783 0 1.52-.3 2.073-.86.554-.55.86-1.29.86-2.07zm16.032 5.54c-3.75-2.938-9.203-2.682-12.655.77-1.805 1.805-2.8 4.206-2.8 6.76 0 2.164.715 4.22 2.032 5.894l13.422-13.42z" class="cls-1"/></svg>