<?xml version="1.0" encoding="utf-8"?>
<!-- Generator: Adobe Illustrator 22.0.1, SVG Export Plug-In . SVG Version: 6.00 Build 0)  -->
<svg version="1.1" xmlns="http://www.w3.org/2000/svg" xmlns:xlink="http://www.w3.org/1999/xlink" x="0px" y="0px" width="300px"
	 height="123.83px" viewBox="0 0 300 123.83" enable-background="new 0 0 300 123.83" xml:space="preserve">
<g id="Layer_1">
	<g>
		<g>
			<g>
				<g>
					<g>
						<rect x="58.28" y="9.48" fill="#ECEFEF" width="183.44" height="113.44"/>
						<path fill="#989FA1" d="M242.1,123.29H57.9V9.11H242.1V123.29z M58.65,122.54h182.69V9.86H58.65V122.54z"/>
					</g>
				</g>
				<g>
					<path fill="#FFFFFF" d="M241.73,9.48H58.27v-6.1c0-1.36,1.1-2.46,2.46-2.46h178.53c1.36,0,2.46,1.1,2.46,2.46V9.48z"/>
					<path fill="#989FA1" d="M242.1,9.85H57.9V3.38c0-1.56,1.27-2.84,2.84-2.84h178.53c1.56,0,2.84,1.27,2.84,2.84V9.85z M58.65,9.1
						h182.7V3.38c0-1.15-0.94-2.09-2.09-2.09H60.74c-1.15,0-2.09,0.94-2.09,2.09V9.1z"/>
				</g>
				<path fill="#989FA1" d="M235.95,6.57c-0.75,0-1.37-0.61-1.37-1.37s0.61-1.37,1.37-1.37s1.37,0.61,1.37,1.37
					S236.7,6.57,235.95,6.57z M235.95,4.58c-0.34,0-0.62,0.28-0.62,0.62s0.28,0.62,0.62,0.62s0.62-0.28,0.62-0.62
					S236.29,4.58,235.95,4.58z"/>
				<path fill="#989FA1" d="M231.44,6.57c-0.75,0-1.37-0.61-1.37-1.37s0.61-1.37,1.37-1.37s1.37,0.61,1.37,1.37
					S232.2,6.57,231.44,6.57z M231.44,4.58c-0.34,0-0.62,0.28-0.62,0.62s0.28,0.62,0.62,0.62s0.62-0.28,0.62-0.62
					S231.78,4.58,231.44,4.58z"/>
				<path fill="#989FA1" d="M226.93,6.57c-0.75,0-1.37-0.61-1.37-1.37s0.61-1.37,1.37-1.37s1.37,0.61,1.37,1.37
					S227.69,6.57,226.93,6.57z M226.93,4.58c-0.34,0-0.62,0.28-0.62,0.62s0.28,0.62,0.62,0.62s0.62-0.28,0.62-0.62
					S227.28,4.58,226.93,4.58z"/>
				<g>
					<path fill="#FFFFFF" d="M229.73,122.9H70.27V36.47c0-0.67,0.55-1.22,1.22-1.22h157.02c0.67,0,1.22,0.55,1.22,1.22V122.9z"/>
					<path fill="#989FA1" d="M230.11,123.28H69.89V36.47c0-0.88,0.72-1.6,1.6-1.6h157.02c0.88,0,1.6,0.72,1.6,1.6V123.28z
						 M70.64,122.53h158.72V36.47c0-0.47-0.38-0.85-0.85-0.85H71.49c-0.47,0-0.85,0.38-0.85,0.85V122.53z"/>
				</g>
				<g>
					<path fill="#FFFFFF" d="M95.32,27.87H71.34c-0.71,0-1.28-0.57-1.28-1.28v-6.65c0-0.71,0.57-1.28,1.28-1.28h23.98
						c0.71,0,1.28,0.57,1.28,1.28v6.65C96.61,27.3,96.03,27.87,95.32,27.87z"/>
					<path fill="#989FA1" d="M95.32,28.25H71.34c-0.91,0-1.66-0.74-1.66-1.66v-6.65c0-0.92,0.74-1.66,1.66-1.66h23.98
						c0.91,0,1.66,0.74,1.66,1.66v6.65C96.98,27.5,96.24,28.25,95.32,28.25z M71.34,19.03c-0.5,0-0.91,0.41-0.91,0.91v6.65
						c0,0.5,0.41,0.91,0.91,0.91h23.98c0.5,0,0.91-0.41,0.91-0.91v-6.65c0-0.5-0.41-0.91-0.91-0.91H71.34z"/>
				</g>
				<rect x="152.53" y="24.17" fill="#989FA1" width="16.22" height="0.75"/>
				<rect x="172.67" y="24.17" fill="#989FA1" width="16.22" height="0.75"/>
				<rect x="192.82" y="24.17" fill="#989FA1" width="16.22" height="0.75"/>
				<rect x="212.96" y="24.17" fill="#989FA1" width="16.22" height="0.75"/>
			</g>
		</g>
		<circle fill="#EEE679" cx="150.13" cy="79.95" r="27.02"/>
		<g>
			<path fill="#FFFFFF" d="M143.19,66.67c3.86,0,6.44,2.82,6.44,6.44c0,3.59-2.58,6.33-6.44,6.33c-3.82,0-6.36-2.74-6.36-6.33
				C136.82,69.48,139.37,66.67,143.19,66.67z M143.19,69.25c-1.97,0-3.39,1.54-3.39,3.86c0,2.2,1.43,3.78,3.39,3.78
				c2.01,0,3.43-1.58,3.43-3.78C146.62,70.79,145.19,69.25,143.19,69.25z M157.15,67.05h2.58l-16.47,25.73h-2.55L157.15,67.05z
				 M157.03,80.47c3.82,0,6.4,2.82,6.4,6.44c0,3.59-2.58,6.33-6.4,6.33s-6.36-2.74-6.36-6.33
				C150.67,83.29,153.21,80.47,157.03,80.47z M157.03,83.06c-2.01,0-3.39,1.54-3.39,3.86c0,2.24,1.39,3.78,3.39,3.78
				c2.01,0,3.43-1.54,3.43-3.78C160.46,84.6,159.04,83.06,157.03,83.06z"/>
		</g>
	</g>
</g>
<g id="Layer_2">
</g>
<g id="Layer_3">
</g>
<g id="Layer_4">
</g>
<g id="Layer_5">
</g>
<g id="Layer_6">
</g>
</svg>
