<?xml version="1.0" encoding="utf-8"?>
<!-- Generator: Adobe Illustrator 22.0.1, SVG Export Plug-In . SVG Version: 6.00 Build 0)  -->
<svg version="1.1" xmlns="http://www.w3.org/2000/svg" xmlns:xlink="http://www.w3.org/1999/xlink" x="0px" y="0px" width="300px"
	 height="112.5px" viewBox="0 0 300 112.5" enable-background="new 0 0 300 112.5" xml:space="preserve">
<g id="Layer_1">
	<g>
		<g>
			<path fill="#FFFFFF" d="M239.19,4.25l-84.32,77.1c-2.98,1.87-6.76,1.87-9.74,0L61.34,4.65v0c1.41-2.12,3.79-3.4,6.34-3.4
				l165.16,0.1c1.28,0,2.55,0.26,3.73,0.75v0C237.66,2.55,238.56,3.31,239.19,4.25z"/>
			<path fill="#989FA1" d="M149.98,83.11c-1.76,0-3.52-0.48-5.05-1.45L60.85,4.71l0.18-0.27c1.48-2.23,3.97-3.57,6.65-3.57
				c0,0,0,0,0.01,0l165.16,0.09c1.34,0,2.64,0.26,3.88,0.78c1.12,0.47,2.09,1.26,2.78,2.29l0.18,0.27l-0.24,0.22l-84.32,77.1
				C153.55,82.61,151.76,83.11,149.98,83.11z M61.84,4.59l83.55,76.47c2.79,1.74,6.45,1.74,9.29-0.04L238.69,4.2
				c-0.59-0.78-1.37-1.38-2.26-1.75c-1.14-0.48-2.35-0.72-3.59-0.72L67.68,1.62c0,0,0,0-0.01,0C65.36,1.62,63.2,2.73,61.84,4.59z"/>
		</g>
		<path fill="#ECEFEF" d="M150,78.16c-0.75,0-1.48-0.18-2.14-0.53L69.43,5.84l161.11,0.09l-78.41,71.7
			C151.48,77.98,150.75,78.16,150,78.16z"/>
		<g>
			<path fill="#FFFFFF" d="M240.19,7.53v94.55c0,5.06-4.11,9.17-9.18,9.17H68.99c-5.06,0-9.18-4.11-9.18-9.17V9.71
				c0-1.84,0.55-3.59,1.53-5.06l83.79,76.69c2.98,1.87,6.77,1.87,9.74,0l84.32-77.1C239.82,5.2,240.19,6.34,240.19,7.53z"/>
			<path fill="#989FA1" d="M231.01,111.62H68.99c-5.27,0-9.55-4.28-9.55-9.54V9.71c0-1.88,0.55-3.7,1.59-5.27l0.24-0.37l0.32,0.3
				l83.79,76.69c2.79,1.74,6.45,1.74,9.29-0.04l84.58-77.35l0.24,0.36c0.69,1.04,1.06,2.24,1.06,3.49v94.55
				C240.56,107.34,236.28,111.62,231.01,111.62z M61.42,5.23c-0.81,1.36-1.23,2.9-1.23,4.48v92.37c0,4.85,3.95,8.79,8.8,8.79h162.02
				c4.85,0,8.8-3.95,8.8-8.79V7.53c0-0.95-0.24-1.87-0.7-2.7l-83.98,76.79c-3.13,1.98-7.11,1.98-10.19,0.04L61.42,5.23z"/>
		</g>
		<path fill="#ECEFEF" d="M68.99,106.66c-2.53,0-4.59-2.06-4.59-4.58V13.67l77.94,71.34l0.35,0.22c2.19,1.38,4.72,2.1,7.31,2.1
			c2.59,0,5.12-0.73,7.31-2.1l0.35-0.22l77.94-71.26v88.33c0,2.53-2.06,4.58-4.59,4.58H68.99z"/>
		
			<rect x="54.66" y="79.77" transform="matrix(0.6614 -0.75 0.75 0.6614 -30.3761 92.995)" fill="#989FA1" width="66.32" height="0.75"/>
		
			<rect x="211.62" y="47.15" transform="matrix(0.7508 -0.6606 0.6606 0.7508 -0.149 160.0347)" fill="#989FA1" width="0.75" height="66.12"/>
		<circle fill="#EEE679" cx="150.63" cy="58.91" r="35.55"/>
		<g>
			<g>
				<path fill="#FFFFFF" d="M125.07,65.78c-2.51-8.92-0.28-18.32,5.97-25.14c9.88-10.79,26.7-11.54,37.5-1.67l-0.51,0.55
					c-10.5-9.59-26.84-8.86-36.44,1.63c-6.07,6.63-8.24,15.77-5.8,24.43L125.07,65.78z"/>
				<path fill="#FFFFFF" d="M124.9,66.09l-0.07-0.24c-2.53-9-0.28-18.49,6.03-25.38c9.97-10.89,26.95-11.65,37.85-1.69l0.19,0.17
					l-0.84,0.92l-0.18-0.17c-10.39-9.5-26.58-8.77-36.09,1.61c-6.01,6.57-8.16,15.62-5.75,24.2l0.07,0.24L124.9,66.09z
					 M150.64,32.28c-7.13,0-14.24,2.87-19.41,8.53c-6.13,6.7-8.36,15.9-5.98,24.66l0.24-0.07c-2.36-8.68-0.15-17.79,5.92-24.43
					c9.63-10.53,26.01-11.31,36.61-1.81l0.17-0.18C163.18,34.49,156.9,32.28,150.64,32.28z"/>
			</g>
			<g>
				<path fill="#FFFFFF" d="M150.61,85.11c-6.4,0-12.82-2.29-17.9-6.94l0.51-0.55c10.5,9.59,26.84,8.86,36.44-1.63
					c6.07-6.63,8.24-15.77,5.8-24.43l0.72-0.2c2.51,8.92,0.28,18.32-5.97,25.14C164.98,82.21,157.81,85.11,150.61,85.11z"/>
				<path fill="#FFFFFF" d="M150.61,85.36c-6.71,0-13.13-2.49-18.07-7l-0.19-0.17l0.84-0.92l0.18,0.17
					c10.39,9.5,26.58,8.77,36.09-1.61c6.01-6.57,8.16-15.62,5.75-24.2l-0.07-0.24l1.2-0.34l0.07,0.24c2.53,9,0.28,18.49-6.03,25.38
					C165.34,82.19,158.13,85.36,150.61,85.36z M133.07,78.15c4.82,4.33,11.05,6.71,17.55,6.71c7.38,0,14.45-3.11,19.41-8.53
					c6.13-6.7,8.36-15.9,5.98-24.66l-0.24,0.07c2.36,8.68,0.15,17.79-5.92,24.43c-9.63,10.53-26.01,11.31-36.61,1.81L133.07,78.15z"
					/>
			</g>
			<g>
				<polygon fill="#FFFFFF" points="163.65,39.98 163.63,39.23 168.08,39.07 167.92,34.62 168.67,34.59 168.86,39.79 				"/>
				<path fill="#FFFFFF" d="M163.41,40.24l-0.04-1.25l4.45-0.16l-0.16-4.46l1.25-0.04l0.2,5.7L163.41,40.24z M163.89,39.47
					l0.01,0.25l4.7-0.17l-0.17-4.7l-0.25,0.01l0.16,4.46L163.89,39.47z"/>
			</g>
			<g>
				<polygon fill="#FFFFFF" points="132.45,82.55 132.27,77.34 137.47,77.16 137.5,77.91 133.04,78.06 133.2,82.52 				"/>
				<path fill="#FFFFFF" d="M132.21,82.8l-0.2-5.7l5.7-0.2l0.04,1.25l-4.45,0.16l0.16,4.46L132.21,82.8z M132.53,77.58l0.17,4.7
					l0.25-0.01l-0.16-4.46l4.45-0.16l-0.01-0.25L132.53,77.58z"/>
			</g>
		</g>
		<g>
			<g>
				<path fill="#FFFFFF" d="M152.15,70.65v3.01h-2.04v-2.97c-3.41-0.2-5.98-1.6-7.65-3.51l1.67-2.11c1.3,1.47,3.34,2.84,5.98,3.11
					v-8.12c-3.41-0.9-6.95-2.07-6.95-6.18c0-3.47,2.94-5.91,6.95-6.18v-3.04h2.04v3.11c2.77,0.23,4.98,1.34,6.58,3.04l-1.67,2.04
					c-1.3-1.47-3.04-2.27-4.91-2.54v7.25c3.44,0.97,7.08,2.24,7.08,6.62C159.23,67.18,157.33,70.28,152.15,70.65z M150.11,57.02
					V50.2c-2.41,0.13-4.08,1.54-4.08,3.51C146.04,55.62,147.87,56.38,150.11,57.02z M156.39,64.4c0-2.27-1.94-3.11-4.24-3.81v7.55
					C155.36,67.88,156.39,65.94,156.39,64.4z"/>
			</g>
		</g>
	</g>
</g>
<g id="Layer_2">
</g>
<g id="Layer_3">
</g>
<g id="Layer_4">
</g>
<g id="Layer_5">
</g>
<g id="Layer_6">
</g>
</svg>
