<svg xmlns="http://www.w3.org/2000/svg" preserveAspectRatio="xMidYMid" width="53" height="53" viewBox="0 0 53 53"><defs><style>.cls-1 { fill: #b6bcbd; fill-rule: evenodd; }</style></defs><path d="M52.017 49.566h-4.9v2.45c0 .544-.44.983-.984.983h-7.168c-.542 0-.982-.44-.982-.99v-2.45h-19.54v2.45c0 .543-.44.983-.982.983H10.3c-.543 0-.983-.44-.983-.983v-2.45h-4.91c-.54 0-.98-.44-.98-.98V36.51H.984c-.545 0-.985-.44-.985-.98v-7.167c0-.543.44-.983.98-.983h2.44v-5.2H.982c-.542 0-.982-.44-.982-.983V14.03c0-.543.44-.983.984-.983h2.44V.983c0-.543.44-.982.982-.982h47.612c.542 0 .982.44.982.99v47.6c0 .54-.44.98-.983.98zM3.423 15.016H1.965v5.2h1.458v-5.2zm0 14.332H1.965v5.202h1.458v-5.202zm36.525 21.687h5.203v-1.47h-5.2v1.47zm-28.672 0h5.202v-1.47h-5.202v1.47zm39.76-49.07H5.386V47.6h45.65V1.966zM10.29 43.682c-.543 0-.983-.44-.983-.983V6.86c0-.543.44-.983.982-.983h35.84c.54 0 .98.44.98.983V42.7c0 .542-.44.982-.98.982H10.29zM45.15 7.85H11.274v33.867H45.15V7.85zM19.545 19.78s.002 0 .003-.003c1.732-2.987 4.967-5 8.663-5 3.69 0 6.92 2.004 8.65 4.98l.02.025.01.017c.848 1.46 1.33 3.17 1.33 4.98 0 1.81-.48 3.51-1.325 4.97l-.013.03-.02.027c-1.737 2.973-4.963 4.976-8.65 4.976-3.686 0-6.913-2.005-8.65-4.98l-.02-.024-.01-.026c-.847-1.468-1.33-3.168-1.33-4.978 0-1.82.488-3.528 1.34-5v-.003zm7.684-2.978c-2.22.27-4.16 1.445-5.44 3.142l2.23 1.288c.81-.95 1.93-1.622 3.203-1.854v-2.576zm1.96 0v2.576c1.274.232 2.4.904 3.204 1.854l2.23-1.288c-1.28-1.697-3.22-2.87-5.436-3.142zm6.42 11.12c.41-.965.64-2.026.64-3.14 0-1.112-.23-2.173-.64-3.138l-2.23 1.287c.207.58.32 1.21.32 1.86 0 .65-.113 1.273-.32 1.85l2.23 1.288zm-6.42 4.842c2.212-.27 4.15-1.445 5.434-3.142l-2.23-1.287c-.808.95-1.93 1.62-3.206 1.852v2.577zm-.98-4.452c1.3 0 2.43-.705 3.044-1.752l.006-.013.01-.012c.297-.517.47-1.115.47-1.752 0-1.946-1.586-3.53-3.53-3.53-1.95 0-3.53 1.584-3.53 3.53 0 1.946 1.58 3.53 3.53 3.53zm-.986 4.452v-2.577c-1.276-.23-2.4-.903-3.206-1.853l-2.23 1.29c1.28 1.695 3.22 2.87 5.435 3.14zM20.8 27.922l2.23-1.287c-.206-.58-.32-1.203-.32-1.852 0-.65.114-1.273.32-1.852l-2.23-1.28c-.41.965-.64 2.027-.64 3.14s.23 2.174.64 3.14z" class="cls-1"/></svg>