<svg xmlns="http://www.w3.org/2000/svg" preserveAspectRatio="xMidYMid" width="55" height="63" viewBox="0 0 55 63"><defs><style>.cls-1 { fill: #b6bcbd; fill-rule: evenodd; }</style></defs><path d="M55 36.226C55 50.99 42.664 63 27.5 63S0 50.99 0 36.225c0-5.936 1.96-11.553 5.667-16.26L3.852 18.2c-.387-.378-.6-.88-.6-1.413 0-.534.213-1.035.6-1.412l2.474-2.41c.798-.775 2.095-.775 2.893 0l1.85 1.805c3.17-2.306 6.72-3.887 10.56-4.703V7.224h-.34c-.62 0-1.12-.49-1.12-1.092V4.225c0-2.33 1.945-4.227 4.34-4.227h5.97c1.155 0 2.244.44 3.064 1.24.82.798 1.273 1.86 1.273 2.987v1.907c0 .602-.5 1.092-1.12 1.092h-.34v2.843C45.913 12.732 55 23.702 55 36.227zM7.772 14.643l-2.2 2.144 1.537 1.497c.69-.753 1.44-1.468 2.21-2.13l-1.55-1.51zM32.586 4.225c0-1.126-.942-2.042-2.1-2.042h-5.97c-1.16 0-2.102.916-2.102 2.042v.815h10.172v-.815zm-8.712 3.06v2.402c1.204-.155 2.422-.234 3.626-.234 1.202 0 2.42.08 3.626.234v-2.4h-7.252zM27.5 11.64c-13.93 0-25.262 11.03-25.262 24.588 0 13.56 11.332 24.59 25.262 24.59s25.262-11.03 25.262-24.59C52.762 22.67 41.43 11.64 27.5 11.64zm0 45.52C15.646 57.16 6 47.77 6 36.228c0-11.54 9.646-20.93 21.5-20.93S49 24.685 49 36.225c0 11.542-9.646 20.93-21.5 20.93zm0-39.678c-10.62 0-19.26 8.41-19.26 18.746 0 10.337 8.64 18.747 19.26 18.747 10.62 0 19.26-8.41 19.26-18.747 0-10.336-8.64-18.746-19.26-18.746zM45.284 37.32h-3.382c-.617 0-1.12-.49-1.12-1.093 0-.602.503-1.092 1.12-1.092h3.382c.617 0 1.12.49 1.12 1.092 0 .603-.503 1.093-1.12 1.093zm-6.81-10.232c-.21.206-.49.32-.79.32-.617 0-1.12-.49-1.12-1.093 0-.305.132-.598.36-.804l2.36-2.3c.436-.42 1.145-.42 1.58 0 .213.21.33.49.33.78 0 .293-.117.568-.33.774l-2.39 2.33zm0 18.28l2.39 2.328c.213.207.33.48.33.774 0 .292-.117.567-.33.773-.21.207-.49.32-.79.32-.297 0-.578-.113-.79-.32l-2.39-2.327c-.213-.207-.33-.482-.33-.774 0-.293.117-.568.33-.774.435-.425 1.143-.425 1.58 0zM27.5 39.3c-1.74 0-3.158-1.38-3.158-3.074 0-.394 2.302-11.034 2.302-11.034.084-.396.44-.68.856-.68.415 0 .773.284.856.68 0 0 2.302 10.64 2.3 11.034 0 1.695-1.415 3.074-3.156 3.074zm0-16c-.617 0-1.12-.49-1.12-1.093v-3.293c0-.602.503-1.092 1.12-1.092.617 0 1.12.49 1.12 1.092v3.293c0 .602-.503 1.092-1.12 1.092zM15.715 49.24c-.21.207-.492.32-.79.32-.298 0-.578-.113-.79-.32-.212-.205-.33-.48-.33-.772 0-.293.118-.567.33-.774l2.392-2.328c.435-.424 1.144-.424 1.58 0 .212.206.33.48.33.773 0 .29-.118.56-.33.77l-2.392 2.33zm1.602-21.835c-.3 0-.58-.113-.792-.32l-2.39-2.328c-.212-.206-.33-.48-.33-.773 0-.292.118-.567.33-.773.436-.42 1.145-.42 1.58 0l2.378 2.32c.22.208.342.49.342.79 0 .6-.5 1.09-1.118 1.09zm-3.1 8.822c0 .602-.502 1.092-1.12 1.092h-3.38c-.618 0-1.12-.49-1.12-1.1 0-.6.502-1.093 1.12-1.093H13.1c.615 0 1.12.49 1.12 1.093zM27.5 49.153c.617 0 1.12.49 1.12 1.093v3.292c0 .602-.503 1.092-1.12 1.092-.617 0-1.12-.49-1.12-1.092v-3.292c0-.603.503-1.093 1.12-1.093z" class="cls-1"/></svg>