<?xml version="1.0" encoding="utf-8"?>
<!-- Generator: Adobe Illustrator 22.0.1, SVG Export Plug-In . SVG Version: 6.00 Build 0)  -->
<svg version="1.1" xmlns="http://www.w3.org/2000/svg" xmlns:xlink="http://www.w3.org/1999/xlink" x="0px" y="0px" width="300px"
	 height="127.83px" viewBox="0 0 300 127.83" enable-background="new 0 0 300 127.83" xml:space="preserve">
<g id="Layer_1">
	<g>
		<g>
			<path fill="#989FA1" d="M184.7,49.38l-0.03-23.28l-91.68,0.04l0.02,28.16h0.75l-0.02-27.41l90.18-0.04l0.09,84.32l-31.92,0.03
				c-0.58-10.03-8.83-17.85-19-17.87c-10.11,0.03-18.35,7.86-18.91,17.9l-20.39,0.02l-0.01-20.07h-0.75l0.01,20.44V112l21.86-0.02
				l0.01-0.36c0.37-9.81,8.36-17.51,18.25-17.54c9.81,0.02,17.81,7.71,18.2,17.51l0.02,0.36l33.38-0.03L184.7,49.38z"/>
			<path fill="#989FA1" d="M184,111.92v-0.38l-0.06-62.54l28.54-0.03l0.11,0.13l17.48,19.58l10.64,6.61l0.03,36.58l-10.24,0.01
				l-0.02-0.36c-0.42-9.76-8.41-17.42-18.2-17.44c-9.85,0.03-17.84,7.7-18.25,17.47l-0.02,0.36L184,111.92z M184.69,49.76
				l0.06,61.41l8.55-0.01c0.6-10,8.84-17.8,18.91-17.83c10.13,0.02,18.38,7.81,19,17.8l8.78-0.01l-0.03-35.41l-10.41-6.49
				l-17.4-19.49L184.69,49.76z"/>
			<path fill="#ECEFEF" d="M99.5,32.66l78.64-0.03l0.07,72.78l-21.3,0.02c-2.98-10.36-12.49-17.84-23.76-17.86
				c-11.37,0.03-20.88,7.53-23.84,17.9l-9.77,0.01L99.5,32.66z"/>
			<path fill="#989FA1" d="M133.12,126.87c-3.88,0-7.52-1.51-10.26-4.24c-2.75-2.74-4.27-6.4-4.27-10.29c0-0.25,0-0.5,0.02-0.76
				c0.39-7.72,6.76-13.78,14.49-13.8c7.79,0.01,14.16,6.07,14.56,13.78c0.02,0.25,0.02,0.5,0.02,0.76l0,0
				c0,3.89-1.51,7.54-4.25,10.29c-2.74,2.75-6.39,4.26-10.28,4.27C133.14,126.87,133.13,126.87,133.12,126.87z M133.15,98.53
				c-7.39,0.02-13.42,5.77-13.79,13.09c-0.01,0.24-0.02,0.48-0.02,0.72c0,3.69,1.44,7.16,4.05,9.76c2.6,2.6,6.06,4.02,9.73,4.02
				c0.01,0,0.02,0,0.03,0c3.69,0,7.15-1.44,9.75-4.05c2.6-2.61,4.03-6.07,4.03-9.76l0,0c0-0.24,0-0.48-0.02-0.71
				C146.53,104.28,140.49,98.54,133.15,98.53z"/>
			<path fill="#ECEFEF" d="M133.12,123.08c-5.92,0-10.74-4.82-10.74-10.74c0-0.18,0-0.36,0.01-0.54c0.29-5.73,5-10.21,10.72-10.22
				h0.04c5.71,0.01,10.42,4.48,10.72,10.18c0.01,0.2,0.01,0.38,0.01,0.56c0,2.88-1.11,5.58-3.14,7.61c-2.03,2.03-4.73,3.15-7.6,3.15
				H133.12z"/>
			<path fill="#ECEFEF" d="M212.37,123.08c-5.92,0-10.74-4.82-10.74-10.74c0-0.18,0-0.36,0.01-0.54c0.29-5.73,5-10.21,10.72-10.22
				h0.04c5.71,0.01,10.42,4.48,10.72,10.18c0.01,0.2,0.01,0.38,0.01,0.56c0,2.88-1.11,5.58-3.14,7.61c-2.03,2.03-4.73,3.15-7.6,3.15
				H212.37z"/>
			<path fill="#989FA1" d="M212.24,126.87c-3.88,0-7.52-1.51-10.26-4.24c-2.75-2.74-4.27-6.4-4.27-10.29c0-0.28,0.01-0.55,0.02-0.83
				c0.42-7.68,6.79-13.71,14.49-13.73c7.75,0.01,14.12,6.04,14.56,13.71c0.01,0.27,0.02,0.55,0.02,0.83l0,0
				c0,3.89-1.51,7.54-4.25,10.29c-2.74,2.75-6.4,4.26-10.28,4.27C212.26,126.87,212.25,126.87,212.24,126.87z M212.27,98.53
				c-7.35,0.02-13.39,5.74-13.79,13.02c-0.01,0.26-0.02,0.52-0.02,0.79c0,3.69,1.44,7.15,4.05,9.76c2.6,2.6,6.06,4.02,9.73,4.02
				c0.01,0,0.02,0,0.03,0c3.69,0,7.15-1.44,9.75-4.05c2.6-2.61,4.03-6.07,4.03-9.76l0,0c0-0.26-0.01-0.53-0.02-0.79
				C225.61,104.25,219.57,98.54,212.27,98.53z"/>
			<rect x="59.64" y="59.64" fill="#989FA1" width="46.29" height="0.75"/>
			<rect x="59.64" y="85.15" fill="#989FA1" width="46.29" height="0.75"/>
			<rect x="67.91" y="72.4" fill="#989FA1" width="46.29" height="0.75"/>
		</g>
		<circle fill="#EEE679" cx="93.09" cy="23.58" r="22.25"/>
		<g>
			<path fill="#FFFFFF" d="M94.03,21.37h0.79l-1.15,6.08c-0.04,0.19-0.06,0.35-0.08,0.47c-0.01,0.12-0.02,0.22-0.02,0.3
				c0,0.33,0.08,0.58,0.23,0.76c0.15,0.17,0.37,0.26,0.66,0.26c0.13,0,0.3-0.02,0.51-0.07s0.45-0.13,0.73-0.23v0.79
				c-0.61,0.25-1.16,0.42-1.66,0.54s-0.97,0.17-1.42,0.17c-0.44,0-0.77-0.12-1-0.36c-0.23-0.24-0.34-0.6-0.34-1.06
				c0-0.12,0.01-0.27,0.04-0.44s0.07-0.44,0.13-0.79l0.97-4.84l-1.48-0.23v-0.63L94.03,21.37z M94.4,17.2c0.37,0,0.66,0.1,0.88,0.31
				S95.6,18,95.6,18.35c0,0.38-0.13,0.7-0.4,0.96s-0.59,0.39-0.98,0.39c-0.36,0-0.66-0.11-0.88-0.32c-0.23-0.21-0.34-0.48-0.34-0.82
				c0-0.39,0.13-0.72,0.4-0.98S94,17.2,94.4,17.2z"/>
		</g>
		<g>
			<path fill="#FFFFFF" d="M93.09,37.6c-7.73,0-14.01-6.29-14.01-14.01c0-7.73,6.29-14.01,14.01-14.01s14.01,6.29,14.01,14.01
				C107.11,31.31,100.82,37.6,93.09,37.6z M93.09,10.32c-7.31,0-13.26,5.95-13.26,13.26c0,7.31,5.95,13.26,13.26,13.26
				c7.31,0,13.26-5.95,13.26-13.26C106.36,16.27,100.4,10.32,93.09,10.32z"/>
			<path fill="#FFFFFF" d="M93.09,37.97c-7.93,0-14.39-6.46-14.39-14.39S85.16,9.2,93.09,9.2c7.93,0,14.39,6.45,14.39,14.39
				S101.03,37.97,93.09,37.97z M79.45,23.58c0,7.52,6.12,13.64,13.64,13.64s13.64-6.12,13.64-13.64c0,7.52-6.12,13.64-13.64,13.64
				S79.45,31.11,79.45,23.58z M93.09,10.7c-7.11,0-12.89,5.78-12.89,12.89s5.78,12.89,12.89,12.89c7.11,0,12.89-5.78,12.89-12.89
				S100.2,10.7,93.09,10.7z"/>
		</g>
	</g>
</g>
<g id="Layer_2">
</g>
<g id="Layer_3">
</g>
<g id="Layer_4">
</g>
<g id="Layer_5">
</g>
<g id="Layer_6">
</g>
</svg>
