<?xml version="1.0" encoding="utf-8"?>
<!-- Generator: Adobe Illustrator 22.0.1, SVG Export Plug-In . SVG Version: 6.00 Build 0)  -->
<svg version="1.1" id="Layer_1" xmlns="http://www.w3.org/2000/svg" xmlns:xlink="http://www.w3.org/1999/xlink" x="0px" y="0px"
	 width="300px" height="131.7px" viewBox="0 0 300 131.7" style="enable-background:new 0 0 300 131.7;" xml:space="preserve">
<style type="text/css">
	.st0{fill:#EEE679;}
	.st1{fill:#989FA1;}
	.st2{fill:#FFFFFF;}
	.st3{fill:#ECEFEF;}
	.st4{fill:none;}
</style>
<g id="Layer_1_1_">
	<g>
		<rect x="123.3" y="47.2" class="st0" width="20.1" height="83.1"/>
		<polygon class="st1" points="240.3,130.7 62.3,130.7 62.3,1.5 59.7,1.5 59.7,0.7 63,0.7 63,129.9 240.3,129.9 		"/>
		<rect x="59.9" y="23.7" class="st1" width="2.7" height="0.8"/>
		<rect x="59.9" y="46.7" class="st1" width="2.7" height="0.8"/>
		<rect x="59.9" y="69.7" class="st1" width="2.7" height="0.8"/>
		<rect x="59.9" y="92.7" class="st1" width="2.7" height="0.8"/>
		<rect x="59.9" y="115.7" class="st1" width="2.7" height="0.8"/>
		<g>
			<rect x="83.5" y="77.5" class="st2" width="20.1" height="52.8"/>
			<path class="st1" d="M104,130.7H83.1V77.1H104V130.7z M83.9,129.9h19.3v-52H83.9V129.9z"/>
		</g>
		<rect x="86.6" y="80.7" class="st3" width="13.8" height="46.4"/>
		<path class="st1" d="M143.9,130.7h-20.9V46.8h20.9V130.7z M123.7,129.9h19.3V47.6h-19.3V129.9z"/>
		<g>
			<rect x="163.5" y="62.6" class="st2" width="20.1" height="67.7"/>
			<path class="st1" d="M184.1,130.7h-20.9V62.2h20.9V130.7z M163.9,129.9h19.3V63h-19.3V129.9z"/>
		</g>
		<rect x="166.7" y="65.8" class="st3" width="13.8" height="61.3"/>
		<g>
			<rect x="203.2" y="26.7" class="st2" width="20.1" height="103.6"/>
			<path class="st1" d="M223.7,130.7h-20.9V26.3h20.9V130.7z M203.6,129.9h19.3V27.1h-19.3V129.9z"/>
		</g>
		<rect x="206.4" y="29.9" class="st3" width="13.8" height="97.2"/>
		<g>
			<g>
				<path class="st2" d="M106.1,64.5c6.9,6.9,6.9,18.2,0,25.1c-6.9,6.9-18.2,6.9-25.1,0C74,82.7,74,71.5,81,64.5
					C87.9,57.6,99.2,57.6,106.1,64.5z"/>
				<path class="st1" d="M93.6,95.2c-4.8,0-9.4-1.9-12.8-5.3c-3.4-3.4-5.3-8-5.3-12.8c0-4.8,1.9-9.4,5.3-12.8
					c3.4-3.4,8-5.3,12.8-5.3s9.4,1.9,12.8,5.3l0,0c3.4,3.4,5.3,8,5.3,12.8c0,4.8-1.9,9.4-5.3,12.8C103,93.4,98.4,95.2,93.6,95.2z
					 M93.6,59.7c-4.6,0-9,1.8-12.3,5.1c-3.3,3.3-5.1,7.6-5.1,12.3c0,4.6,1.8,9,5.1,12.3c3.3,3.3,7.6,5.1,12.3,5.1
					c4.6,0,9-1.8,12.3-5.1c3.3-3.3,5.1-7.6,5.1-12.3c0-4.6-1.8-9-5.1-12.3l0,0C102.6,61.5,98.2,59.7,93.6,59.7z"/>
			</g>
			<path class="st3" d="M104.5,66.2c6,6,6,15.7,0,21.7s-15.7,6-21.7,0s-6-15.7,0-21.7C88.8,60.2,98.5,60.2,104.5,66.2z"/>
			<g>
				<g>
					<path class="st2" d="M86,73.4v-0.2c0-0.1,0.1-0.2,0.2-0.1c0,0,9,2.4,9,2.4l5.4-3.4c0.1-0.1,0.2,0,0.2,0.1v7.6
						c0,0,0,0.1-0.1,0.1l-5.2,4.7c0,0-0.1,0-0.1,0l-9.3-2.9c-0.1,0-0.1-0.1-0.1-0.1v-3.3"/>
					<path class="st1" d="M95.5,85c-0.1,0-0.1,0-0.2,0L86,82.1c-0.2-0.1-0.4-0.3-0.4-0.5v-3.3h0.8v3.1l9,2.9l5-4.5v-7l-5,3.2
						c-0.2,0.1-0.2,0.1-9.3-2.3c0.1,0,0.1,0,0.2,0c0,0,0,0,0,0h-0.7v-0.2c0-0.2,0.1-0.3,0.2-0.4c0.1-0.1,0.3-0.1,0.5-0.1
						c3.2,0.9,8,2.1,8.8,2.3l5.3-3.3c0.2-0.1,0.4-0.1,0.6,0c0.2,0.1,0.3,0.3,0.3,0.5v7.6c0,0.2-0.1,0.3-0.2,0.4l-5.2,4.7
						C95.8,85,95.6,85,95.5,85z M86.2,81.3L86.2,81.3C86.2,81.3,86.2,81.3,86.2,81.3z"/>
				</g>
				<g>
					<path class="st2" d="M86.1,73.2c-0.2-0.1,0.5-0.4,0.6-0.5l6-3.1c0,0,0.1,0,0.1,0l7.6,2.4c0.2,0-5.1,3.7-5.3,3.8"/>
					<path class="st1" d="M95.4,76L95,75.3c0.3-0.2,3.4-2.3,4.7-3.2l-6.8-2.1L86.9,73c-0.2,0.1-0.4,0.3-0.5,0.3l-0.3-0.3L86,73.6
						l-0.3-0.4c0-0.1,0-0.4,0.9-0.9l6-3.1c0.1-0.1,0.3-0.1,0.5,0l7.8,2.5l0,0.3C100.9,72.4,95.4,75.9,95.4,76z M86.2,72.8l-0.1,0.3
						l0.3,0C86.4,72.9,86.3,72.8,86.2,72.8z M92.9,69.9L92.9,69.9L92.9,69.9z"/>
				</g>
				<g>
					<line class="st4" x1="95.2" y1="75.5" x2="95.4" y2="84.6"/>
					<polygon class="st1" points="95,84.7 94.8,75.5 95.6,75.5 95.8,84.6 					"/>
				</g>
				<g>
					<polygon class="st2" points="86.1,73 84.2,77.6 93.9,80.7 95.3,75.6 					"/>
					<path class="st1" d="M94.1,81.2l-10.5-3.3l2.2-5.3l10,2.8L94.1,81.2z M84.7,77.4l8.9,2.8l1.2-4.3l-8.5-2.4L84.7,77.4z"/>
				</g>
				<g>
					<path class="st2" d="M101,76l1.5,0.5c0.1,0,0.3-0.5,0.3-0.7l-1.7-2.7L101,76z"/>
					<path class="st1" d="M102.7,76.9l-0.3,0l-1.8-0.6l0.2-4.4l2.4,3.8c0.1,0.4-0.1,0.9-0.3,1.1L102.7,76.9z M102.6,76.1L102.6,76.1
						L102.6,76.1z M101.4,75.7l1,0.3c0,0,0-0.1,0-0.1l-1-1.5L101.4,75.7z"/>
				</g>
			</g>
		</g>
		<g>
			<g>
				<path class="st2" d="M146.3,30.4c6.9,6.9,6.9,18.2,0,25.1s-18.2,6.9-25.1,0c-6.9-6.9-6.9-18.2,0-25.1
					C128.1,23.5,139.4,23.5,146.3,30.4z"/>
				<path class="st1" d="M133.7,61.1c-4.8,0-9.4-1.9-12.8-5.3c-3.4-3.4-5.3-8-5.3-12.8c0-4.8,1.9-9.4,5.3-12.8
					c3.4-3.4,8-5.3,12.8-5.3c4.8,0,9.4,1.9,12.8,5.3l0,0l0,0c3.4,3.4,5.3,8,5.3,12.8s-1.9,9.4-5.3,12.8
					C143.2,59.2,138.6,61.1,133.7,61.1z M133.7,25.6c-4.6,0-9,1.8-12.3,5.1s-5.1,7.6-5.1,12.3s1.8,9,5.1,12.3
					c3.3,3.3,7.6,5.1,12.3,5.1c4.6,0,9-1.8,12.3-5.1c3.3-3.3,5.1-7.6,5.1-12.3c0-4.6-1.8-9-5.1-12.3l0,0
					C142.7,27.4,138.4,25.6,133.7,25.6z"/>
			</g>
			<path class="st0" d="M144.6,32.1c6,6,6,15.7,0,21.7c-6,6-15.7,6-21.7,0c-6-6-6-15.7,0-21.7S138.6,26.1,144.6,32.1z"/>
			<g>
				<path class="st1" d="M134.5,48.1v1.4h-0.9v-1.4c-1.6-0.1-2.7-0.7-3.5-1.6l0.8-1c0.6,0.7,1.5,1.3,2.7,1.4v-3.7
					c-1.6-0.4-3.2-0.9-3.2-2.8c0-1.6,1.3-2.7,3.2-2.8v-1.4h0.9v1.4c1.3,0.1,2.3,0.6,3,1.4l-0.8,0.9c-0.6-0.7-1.4-1-2.2-1.2v3.3
					c1.6,0.4,3.2,1,3.2,3C137.7,46.5,136.8,47.9,134.5,48.1z M133.5,41.9v-3.1c-1.1,0.1-1.9,0.7-1.9,1.6
					C131.7,41.2,132.5,41.6,133.5,41.9z M136.4,45.2c0-1-0.9-1.4-1.9-1.7V47C135.9,46.8,136.4,45.9,136.4,45.2z"/>
			</g>
		</g>
		<g>
			<g>
				<path class="st2" d="M186.2,53.8c6.9,6.9,6.9,18.2,0,25.1c-6.9,6.9-18.2,6.9-25.1,0c-6.9-6.9-6.9-18.2,0-25.1
					C168,46.8,179.2,46.8,186.2,53.8z"/>
				<path class="st1" d="M173.6,84.5c-4.8,0-9.4-1.9-12.8-5.3c-3.4-3.4-5.3-8-5.3-12.8s1.9-9.4,5.3-12.8c3.4-3.4,8-5.3,12.8-5.3
					c4.8,0,9.4,1.9,12.8,5.3l0,0l0,0c3.4,3.4,5.3,8,5.3,12.8s-1.9,9.4-5.3,12.8C183,82.6,178.5,84.5,173.6,84.5z M173.6,49
					c-4.6,0-9,1.8-12.3,5.1c-3.3,3.3-5.1,7.6-5.1,12.3s1.8,9,5.1,12.3c3.3,3.3,7.6,5.1,12.3,5.1c4.6,0,9-1.8,12.3-5.1
					c3.3-3.3,5.1-7.6,5.1-12.3c0-4.6-1.8-9-5.1-12.3l0,0C182.6,50.8,178.2,49,173.6,49z"/>
			</g>
			<path class="st3" d="M184.5,55.5c6,6,6,15.7,0,21.7c-6,6-15.7,6-21.7,0c-6-6-6-15.7,0-21.7S178.5,49.5,184.5,55.5z"/>
			<g>
				<path class="st1" d="M170.5,60.1c1.7,0,2.9,1.3,2.9,3c0,1.7-1.2,2.9-2.9,2.9c-1.7,0-2.9-1.3-2.9-2.9
					C167.6,61.4,168.8,60.1,170.5,60.1z M170.5,61.1c-1.1,0-1.8,0.9-1.8,2.1c0,1.1,0.7,2,1.8,2c1.1,0,1.8-0.9,1.8-2
					C172.3,61.9,171.5,61.1,170.5,61.1z M177,60.3h1l-7.7,12h-1L177,60.3z M176.7,66.6c1.7,0,2.9,1.3,2.9,3c0,1.7-1.2,2.9-2.9,2.9
					c-1.7,0-2.9-1.3-2.9-2.9C173.8,67.9,175,66.6,176.7,66.6z M176.7,67.5c-1.1,0-1.8,0.9-1.8,2.1c0,1.1,0.7,2,1.8,2
					c1.1,0,1.8-0.9,1.8-2C178.6,68.4,177.8,67.5,176.7,67.5z"/>
			</g>
		</g>
		<g>
			<g>
				<path class="st2" d="M225.8,14.4c6.9,6.9,6.9,18.2,0,25.1s-18.2,6.9-25.1,0c-6.9-6.9-6.9-18.2,0-25.1
					C207.6,7.5,218.9,7.5,225.8,14.4z"/>
				<path class="st1" d="M213.3,45.2c-4.8,0-9.4-1.9-12.8-5.3c-3.4-3.4-5.3-8-5.3-12.8s1.9-9.4,5.3-12.8c3.4-3.4,8-5.3,12.8-5.3
					c4.8,0,9.4,1.9,12.8,5.3c3.4,3.4,5.3,8,5.3,12.8c0,4.8-1.9,9.4-5.3,12.8C222.7,43.3,218.1,45.2,213.3,45.2z M213.3,9.6
					c-4.6,0-9,1.8-12.3,5.1c-3.3,3.3-5.1,7.6-5.1,12.3s1.8,9,5.1,12.3c3.3,3.3,7.6,5.1,12.3,5.1c4.6,0,9-1.8,12.3-5.1
					c3.3-3.3,5.1-7.6,5.1-12.3c0-4.6-1.8-9-5.1-12.3l0,0C222.3,11.5,217.9,9.6,213.3,9.6z"/>
			</g>
			<path class="st3" d="M224.1,16.1c6,6,6,15.7,0,21.7c-6,6-15.7,6-21.7,0s-6-15.7,0-21.7S218.1,10.2,224.1,16.1z"/>
			<g>
				<g>
					<path class="st2" d="M218.8,32.1v1.4h-11.1v-1.4c0-2.1,1.3-3.9,3.2-4.6c0.6,0.5,1.4,0.8,2.3,0.8c0.9,0,1.7-0.3,2.3-0.8
						C217.5,28.2,218.8,30,218.8,32.1z"/>
					<path class="st1" d="M219.2,33.9h-11.9v-1.8c0-2.2,1.4-4.2,3.5-5l0.2-0.1l0.2,0.1c1.2,0.9,2.9,0.9,4.1,0l0.2-0.1l0.2,0.1
						c2.1,0.8,3.5,2.7,3.5,5L219.2,33.9L219.2,33.9z M208.1,33.1h10.3v-1c0-1.8-1.1-3.5-2.8-4.2c-1.4,0.9-3.3,0.9-4.7,0
						c-1.7,0.7-2.8,2.3-2.8,4.2L208.1,33.1L208.1,33.1z"/>
				</g>
				<g>
					<path class="st2" d="M217.1,24.4c0,1.3-0.6,2.4-1.6,3.1c-0.6,0.5-1.4,0.8-2.3,0.8s-1.7-0.3-2.3-0.8c-1-0.7-1.6-1.8-1.6-3.1
						c0-2.1,1.7-3.9,3.9-3.9C215.4,20.5,217.1,22.2,217.1,24.4z"/>
					<path class="st1" d="M213.3,28.7c-0.9,0-1.8-0.3-2.5-0.8c-1.1-0.8-1.7-2.1-1.7-3.4c0-2.4,1.9-4.3,4.3-4.3s4.3,1.9,4.3,4.3
						c0,1.3-0.6,2.6-1.7,3.4C215.1,28.4,214.2,28.7,213.3,28.7z M213.3,20.9c-1.9,0-3.5,1.6-3.5,3.5c0,1.1,0.5,2.1,1.4,2.8
						c1.2,0.9,2.9,0.9,4.1,0c0.9-0.7,1.4-1.7,1.4-2.8C216.7,22.5,215.2,20.9,213.3,20.9z"/>
				</g>
			</g>
		</g>
		<g>
			<line class="st4" x1="105.6" y1="64.3" x2="119" y2="53.1"/>
			
				<rect x="103.5" y="58.3" transform="matrix(0.766 -0.6429 0.6429 0.766 -11.4489 85.9229)" class="st1" width="17.5" height="0.8"/>
		</g>
		<rect x="154.2" y="46.8" transform="matrix(0.5795 -0.815 0.815 0.5795 22.43 147.9964)" class="st1" width="0.8" height="10.9"/>
		
			<rect x="183.4" y="46.3" transform="matrix(0.6454 -0.7638 0.7638 0.6454 32.9102 164.1941)" class="st1" width="19.9" height="0.8"/>
	</g>
</g>
<g id="Layer_2_1_">
</g>
<g id="Layer_3">
</g>
<g id="Layer_4">
</g>
<g id="Layer_5">
</g>
<g id="Layer_6">
</g>
</svg>
