<?xml version="1.0" encoding="utf-8"?>
<!-- Generator: Adobe Illustrator 22.0.1, SVG Export Plug-In . SVG Version: 6.00 Build 0)  -->
<svg version="1.1" xmlns="http://www.w3.org/2000/svg" xmlns:xlink="http://www.w3.org/1999/xlink" x="0px" y="0px" width="300px"
	 height="144.17px" viewBox="0 0 300 144.17" enable-background="new 0 0 300 144.17" xml:space="preserve">
<g id="Layer_1">
	<g>
		<g>
			<g>
				<g>
					<rect x="39.29" y="9.58" fill="#ECEFEF" width="183.44" height="113.44"/>
					<path fill="#989FA1" d="M223.1,123.4H38.91V9.21H223.1V123.4z M39.66,122.65h182.69V9.96H39.66V122.65z"/>
				</g>
			</g>
			<g>
				<path fill="#FFFFFF" d="M222.73,9.58H39.28v-6.1c0-1.36,1.1-2.46,2.46-2.46h178.53c1.36,0,2.46,1.1,2.46,2.46V9.58z"/>
				<path fill="#989FA1" d="M223.11,9.96H38.91V3.48c0-1.56,1.27-2.84,2.84-2.84h178.53c1.56,0,2.84,1.27,2.84,2.84V9.96z
					 M39.66,9.21h182.7V3.48c0-1.15-0.94-2.09-2.09-2.09H41.74c-1.15,0-2.09,0.94-2.09,2.09V9.21z"/>
			</g>
			<path fill="#989FA1" d="M216.95,6.67c-0.75,0-1.37-0.61-1.37-1.37s0.61-1.37,1.37-1.37s1.37,0.61,1.37,1.37
				S217.71,6.67,216.95,6.67z M216.95,4.68c-0.34,0-0.62,0.28-0.62,0.62s0.28,0.62,0.62,0.62s0.62-0.28,0.62-0.62
				S217.29,4.68,216.95,4.68z"/>
			<path fill="#989FA1" d="M212.45,6.67c-0.75,0-1.37-0.61-1.37-1.37s0.61-1.37,1.37-1.37s1.37,0.61,1.37,1.37
				S213.2,6.67,212.45,6.67z M212.45,4.68c-0.34,0-0.62,0.28-0.62,0.62s0.28,0.62,0.62,0.62s0.62-0.28,0.62-0.62
				S212.79,4.68,212.45,4.68z"/>
			<path fill="#989FA1" d="M207.94,6.67c-0.75,0-1.37-0.61-1.37-1.37s0.61-1.37,1.37-1.37s1.37,0.61,1.37,1.37
				S208.69,6.67,207.94,6.67z M207.94,4.68c-0.34,0-0.62,0.28-0.62,0.62s0.28,0.62,0.62,0.62s0.62-0.28,0.62-0.62
				S208.28,4.68,207.94,4.68z"/>
			<g>
				<path fill="#FFFFFF" d="M210.74,123H51.27V36.57c0-0.67,0.55-1.22,1.22-1.22h157.02c0.67,0,1.22,0.55,1.22,1.22V123z"/>
				<path fill="#989FA1" d="M211.11,123.38H50.9V36.57c0-0.88,0.72-1.6,1.6-1.6h157.02c0.88,0,1.6,0.72,1.6,1.6V123.38z
					 M51.65,122.63h158.72V36.57c0-0.47-0.38-0.85-0.85-0.85H52.49c-0.47,0-0.85,0.38-0.85,0.85V122.63z"/>
			</g>
			<g>
				<path fill="#FFFFFF" d="M76.33,27.98H52.35c-0.71,0-1.28-0.57-1.28-1.28v-6.65c0-0.71,0.57-1.28,1.28-1.28h23.98
					c0.71,0,1.28,0.57,1.28,1.28v6.65C77.61,27.4,77.04,27.98,76.33,27.98z"/>
				<path fill="#989FA1" d="M76.33,28.35H52.35c-0.91,0-1.66-0.74-1.66-1.66v-6.65c0-0.92,0.74-1.66,1.66-1.66h23.98
					c0.91,0,1.66,0.74,1.66,1.66v6.65C77.99,27.61,77.24,28.35,76.33,28.35z M52.35,19.13c-0.5,0-0.91,0.41-0.91,0.91v6.65
					c0,0.5,0.41,0.91,0.91,0.91h23.98c0.5,0,0.91-0.41,0.91-0.91v-6.65c0-0.5-0.41-0.91-0.91-0.91H52.35z"/>
			</g>
			<rect x="133.53" y="24.27" fill="#989FA1" width="16.21" height="0.75"/>
			<rect x="153.68" y="24.27" fill="#989FA1" width="16.21" height="0.75"/>
			<rect x="173.82" y="24.27" fill="#989FA1" width="16.21" height="0.75"/>
			<rect x="193.97" y="24.27" fill="#989FA1" width="16.21" height="0.75"/>
			<path fill="#EEE679" d="M154.72,62.65l-20.47-11.82c-1.79-1.03-4.71-1.03-6.5,0l-20.46,11.82c-1.79,1.03-3.25,3.57-3.25,5.63
				v23.63c0,2.06,1.46,4.6,3.25,5.63l20.46,11.81c1.79,1.03,4.71,1.03,6.5,0l20.47-11.81c1.79-1.03,3.25-3.56,3.25-5.63V68.28
				C157.97,66.22,156.51,63.69,154.72,62.65z M149.2,75.38h-2.12v-3.61c0-2.76-2.12-3.61-6.22-3.61h-0.19
				c-9.83,0-8.95-3.68-9.24-5.02h-0.14c-0.28,1.34,0.66,5.02-9.17,5.02h-0.26c-4.1,0-6.22,0.85-6.22,3.61v2.78l33.54,9.7v0.54h0.01
				v3.46c0,3.96-1.91,6.15-8.34,6.15h-0.33c-5.02,0-8.11,1.06-8.11,5.02h-2.12c0-3.96-3.09-5.02-8.11-5.02h-0.33
				c-6.43,0-8.34-2.19-8.34-6.15V84.8h2.12v3.61c0,2.76,2.12,3.61,6.22,3.61h0.19c9.83,0,8.95,3.68,9.24,5.02h0.14
				c0.28-1.34-0.66-5.02,9.17-5.02h0.26c4.1,0,6.22-0.85,6.22-3.61v-2.07l-33.55-9.7v-1.25h0v-3.46c0-3.96,1.91-6.15,8.34-6.15h0.33
				c5.02,0,8.11-1.06,8.11-5.02h2.12c0,3.96,3.09,5.02,8.11,5.02h0.33c6.43,0,8.34,2.19,8.34,6.15V75.38z"/>
		</g>
		<path fill="#EEE679" d="M155,63.03l-20.47-11.82c-1.79-1.03-4.71-1.03-6.5,0l-20.46,11.82c-1.79,1.03-3.25,3.57-3.25,5.63v23.63
			c0,2.06,1.46,4.6,3.25,5.63l20.46,11.81c1.79,1.03,4.71,1.03,6.5,0L155,97.91c1.79-1.03,3.25-3.56,3.25-5.63V68.66
			C158.25,66.59,156.79,64.06,155,63.03z M149.48,75.75h-2.12v-3.61c0-2.76-2.12-3.61-6.22-3.61h-0.19c-9.83,0-8.95-3.68-9.24-5.02
			h-0.14c-0.28,1.34,0.66,5.02-9.17,5.02h-0.26c-4.1,0-6.22,0.85-6.22,3.61v2.78l33.54,9.7v0.54h0.01v3.46
			c0,3.96-1.91,6.15-8.34,6.15h-0.33c-5.02,0-8.11,1.06-8.11,5.02h-2.12c0-3.96-3.09-5.02-8.11-5.02h-0.33
			c-6.43,0-8.34-2.19-8.34-6.15v-3.46h2.12v3.61c0,2.76,2.12,3.61,6.22,3.61h0.19c9.83,0,8.95,3.68,9.24,5.02h0.14
			c0.28-1.34-0.66-5.02,9.17-5.02h0.26c4.1,0,6.22-0.85,6.22-3.61V86.7L113.81,77v-1.25h0v-3.46c0-3.96,1.91-6.15,8.34-6.15h0.33
			c5.02,0,8.11-1.06,8.11-5.02h2.12c0,3.96,3.09,5.02,8.11,5.02h0.33c6.43,0,8.34,2.19,8.34,6.15V75.75z"/>
		<g>
			<g>
				<circle fill="#FFFFFF" cx="223.19" cy="105.61" r="37.53"/>
				<path fill="#989FA1" d="M223.19,143.52c-20.9,0-37.91-17.01-37.91-37.91c0-20.9,17.01-37.91,37.91-37.91
					c20.9,0,37.91,17.01,37.91,37.91C261.09,126.52,244.09,143.52,223.19,143.52z M223.19,68.45c-20.49,0-37.16,16.67-37.16,37.16
					s16.67,37.16,37.16,37.16c20.49,0,37.16-16.67,37.16-37.16S243.67,68.45,223.19,68.45z"/>
			</g>
			<path fill="#ECEFEF" d="M223.19,138.21c-17.97,0-32.6-14.62-32.6-32.6c0-17.98,14.62-32.6,32.6-32.6
				c17.98,0,32.6,14.62,32.6,32.6C255.78,123.59,241.16,138.21,223.19,138.21z"/>
			<rect x="205.2" y="87.58" fill="#989FA1" width="0.75" height="38.28"/>
			<rect x="222.79" y="87.58" fill="#989FA1" width="0.75" height="38.28"/>
			<rect x="239.86" y="87.58" fill="#989FA1" width="0.75" height="38.28"/>
			<rect x="201.94" y="99.91" fill="#989FA1" width="7.26" height="0.75"/>
			<rect x="219.54" y="114.04" fill="#989FA1" width="7.26" height="0.75"/>
			<rect x="236.61" y="90.56" fill="#989FA1" width="7.26" height="0.75"/>
		</g>
	</g>
</g>
<g id="Layer_2">
</g>
<g id="Layer_3">
</g>
<g id="Layer_4">
</g>
<g id="Layer_5">
</g>
<g id="Layer_6">
</g>
</svg>
