<?xml version="1.0" encoding="utf-8"?>
<!-- Generator: Adobe Illustrator 22.0.1, SVG Export Plug-In . SVG Version: 6.00 Build 0)  -->
<svg version="1.1" xmlns="http://www.w3.org/2000/svg" xmlns:xlink="http://www.w3.org/1999/xlink" x="0px" y="0px" width="300px"
	 height="153.83px" viewBox="0 0 300 153.83" enable-background="new 0 0 300 153.83" xml:space="preserve">
<g id="Layer_1">
	<g>
		<g>
			<g>
				<path fill="#FFFFFF" d="M185.46,72.07v75.22c0,2.74-2.24,4.98-4.98,4.98h-59.91c-2.74,0-4.98-2.24-4.98-4.98V60.19
					c0-2.74,2.24-4.98,4.98-4.98h47.45L185.46,72.07z"/>
				<path fill="#989FA1" d="M180.48,152.64h-59.91c-2.95,0-5.36-2.4-5.36-5.36V60.19c0-2.95,2.4-5.36,5.36-5.36h47.6l17.66,17.07
					v75.38C185.84,150.24,183.44,152.64,180.48,152.64z M120.57,55.59c-2.54,0-4.61,2.07-4.61,4.61v87.09
					c0,2.54,2.07,4.61,4.61,4.61h59.91c2.54,0,4.61-2.07,4.61-4.61V72.23l-17.22-16.64H120.57z"/>
			</g>
			<g>
				<polygon fill="#FFFFFF" points="185.46,72.07 168.02,72.07 168.02,55.21 				"/>
				<path fill="#989FA1" d="M185.46,72.44h-17.44c-0.21,0-0.38-0.17-0.38-0.38V55.21c0-0.15,0.09-0.29,0.23-0.35s0.3-0.03,0.41,0.08
					l17.44,16.86c0.11,0.11,0.14,0.27,0.09,0.41S185.62,72.44,185.46,72.44z M168.4,71.69h16.14L168.4,56.1V71.69z"/>
			</g>
			<rect x="126.28" y="81.22" fill="#989FA1" width="48.22" height="0.75"/>
			<rect x="126.28" y="91.67" fill="#989FA1" width="48.22" height="0.75"/>
			<rect x="126.28" y="102.12" fill="#989FA1" width="26.94" height="0.75"/>
			<rect x="126.28" y="128.67" fill="#989FA1" width="32.19" height="0.75"/>
			<rect x="126.28" y="139.12" fill="#989FA1" width="23.16" height="0.75"/>
			<rect x="126.53" y="64.39" fill="#ECEFEF" width="27.4" height="8.27"/>
		</g>
		<g>
			<g>
				<path fill="#FFFFFF" d="M235.08,80.01c6.55,6.55,6.55,17.17,0,23.72c-6.55,6.55-17.17,6.55-23.72,0
					c-6.55-6.55-6.55-17.17,0-23.72C217.91,73.45,228.53,73.45,235.08,80.01z"/>
				<path fill="#989FA1" d="M223.22,109.01c-4.58,0-8.89-1.78-12.13-5.02c-3.24-3.24-5.02-7.54-5.02-12.12
					c0-4.58,1.78-8.89,5.02-12.13c3.24-3.24,7.55-5.02,12.13-5.02c4.58,0,8.89,1.78,12.13,5.02l0,0l0,0
					c3.24,3.24,5.02,7.54,5.02,12.13c0,4.58-1.78,8.89-5.02,12.12C232.1,107.23,227.8,109.01,223.22,109.01z M223.22,75.47
					c-4.38,0-8.5,1.71-11.59,4.8c-3.1,3.1-4.8,7.21-4.8,11.6c0,4.38,1.71,8.5,4.8,11.59c3.1,3.1,7.21,4.8,11.59,4.8
					c4.38,0,8.5-1.71,11.6-4.8c3.1-3.1,4.8-7.21,4.8-11.59c0-4.38-1.71-8.5-4.8-11.6h0C231.72,77.17,227.6,75.47,223.22,75.47z"/>
			</g>
			<path fill="#ECEFEF" d="M233.47,81.61c5.66,5.66,5.66,14.84,0,20.5c-5.66,5.66-14.84,5.66-20.51,0c-5.66-5.66-5.66-14.84,0-20.5
				C218.63,75.95,227.81,75.95,233.47,81.61z"/>
			<g>
				<path fill="#989FA1" d="M223.79,96.91v1.32h-0.89v-1.31c-1.5-0.09-2.62-0.7-3.36-1.54l0.73-0.92c0.57,0.65,1.47,1.25,2.62,1.36
					v-3.56c-1.5-0.4-3.05-0.91-3.05-2.71c0-1.52,1.29-2.6,3.05-2.71V85.5h0.89v1.36c1.22,0.1,2.18,0.59,2.89,1.33l-0.73,0.89
					c-0.57-0.65-1.33-1-2.16-1.11v3.18c1.51,0.43,3.11,0.98,3.11,2.9C226.9,95.38,226.06,96.75,223.79,96.91z M222.89,90.93v-2.99
					c-1.06,0.06-1.79,0.67-1.79,1.54C221.11,90.31,221.91,90.65,222.89,90.93z M225.65,94.17c0-1-0.85-1.36-1.86-1.67v3.31
					C225.2,95.69,225.65,94.84,225.65,94.17z"/>
			</g>
		</g>
		<g>
			<g>
				<path fill="#FFFFFF" d="M214.02,27.56c6.55,6.55,6.55,17.17,0,23.72c-6.55,6.55-17.17,6.55-23.72,0
					c-6.55-6.55-6.55-17.17,0-23.72C196.84,21.01,207.47,21.01,214.02,27.56z"/>
				<path fill="#989FA1" d="M202.15,56.57c-4.58,0-8.89-1.78-12.13-5.02c-3.24-3.24-5.02-7.54-5.02-12.12
					c0-4.58,1.78-8.89,5.02-12.13c3.24-3.24,7.54-5.02,12.13-5.02s8.89,1.78,12.13,5.02l0,0l0,0c3.24,3.24,5.02,7.54,5.02,12.13
					c0,4.58-1.78,8.89-5.02,12.12C211.04,54.79,206.74,56.57,202.15,56.57z M202.15,23.03c-4.38,0-8.5,1.71-11.59,4.8
					c-3.1,3.1-4.8,7.22-4.8,11.6s1.71,8.5,4.8,11.59c3.1,3.1,7.21,4.8,11.59,4.8c4.38,0,8.5-1.71,11.6-4.8
					c3.1-3.1,4.8-7.21,4.8-11.59s-1.71-8.5-4.8-11.6l0,0C210.65,24.73,206.54,23.03,202.15,23.03z"/>
			</g>
			<path fill="#ECEFEF" d="M212.41,29.17c5.66,5.66,5.66,14.84,0,20.5c-5.66,5.66-14.84,5.66-20.51,0c-5.66-5.66-5.66-14.84,0-20.5
				C197.56,23.51,206.75,23.51,212.41,29.17z"/>
			<g>
				<path fill="#989FA1" d="M199.19,33.57c1.63,0,2.75,1.22,2.75,2.82c0,1.58-1.12,2.77-2.75,2.77c-1.61,0-2.72-1.19-2.72-2.77
					C196.47,34.79,197.58,33.57,199.19,33.57z M199.19,34.44c-1,0-1.7,0.83-1.7,1.95c0,1.07,0.7,1.92,1.7,1.92
					c1.02,0,1.73-0.85,1.73-1.92C200.92,35.27,200.21,34.44,199.19,34.44z M205.36,33.74h0.93l-7.25,11.33h-0.92L205.36,33.74z
					 M205.1,39.69c1.61,0,2.73,1.22,2.73,2.82c0,1.58-1.12,2.77-2.73,2.77c-1.61,0-2.72-1.19-2.72-2.77
					C202.38,40.91,203.49,39.69,205.1,39.69z M205.1,40.55c-1.02,0-1.72,0.83-1.72,1.95c0,1.07,0.7,1.92,1.72,1.92
					c1.02,0,1.73-0.85,1.73-1.92C206.83,41.39,206.12,40.55,205.1,40.55z"/>
			</g>
		</g>
		<g>
			<g>
				<path fill="#FFFFFF" d="M88.64,80.01c6.55,6.55,6.55,17.17,0,23.72c-6.55,6.55-17.17,6.55-23.72,0
					c-6.55-6.55-6.55-17.17,0-23.72C71.47,73.45,82.09,73.45,88.64,80.01z"/>
				<path fill="#989FA1" d="M76.78,109.01c-4.58,0-8.89-1.78-12.13-5.02c-3.24-3.24-5.02-7.54-5.02-12.12
					c0-4.58,1.78-8.89,5.02-12.13c3.24-3.24,7.54-5.02,12.13-5.02s8.89,1.78,12.13,5.02l0,0l0,0c3.24,3.24,5.02,7.54,5.02,12.13
					c0,4.58-1.78,8.89-5.02,12.12C85.67,107.23,81.36,109.01,76.78,109.01z M76.78,75.47c-4.38,0-8.5,1.71-11.59,4.8
					c-3.1,3.1-4.8,7.21-4.8,11.6c0,4.38,1.71,8.5,4.8,11.59c3.1,3.1,7.22,4.8,11.6,4.8s8.5-1.71,11.59-4.8
					c3.1-3.1,4.8-7.21,4.8-11.59c0-4.38-1.71-8.5-4.8-11.6h0C85.28,77.17,81.16,75.47,76.78,75.47z"/>
			</g>
			<path fill="#ECEFEF" d="M87.04,81.61c5.66,5.66,5.66,14.84,0,20.5c-5.66,5.66-14.84,5.66-20.51,0c-5.66-5.66-5.66-14.84,0-20.5
				C72.19,75.95,81.37,75.95,87.04,81.61z"/>
			<g>
				<g>
					<path fill="#FFFFFF" d="M82.02,96.68v1.31H71.55v-1.31c0-2,1.27-3.7,3.05-4.34c0.61,0.45,1.36,0.72,2.18,0.72
						s1.57-0.27,2.18-0.72C80.74,92.98,82.02,94.68,82.02,96.68z"/>
					<path fill="#989FA1" d="M82.39,98.37H71.17v-1.69c0-2.1,1.33-3.99,3.3-4.7l0.19-0.07l0.16,0.12c1.14,0.84,2.77,0.84,3.91,0
						l0.16-0.12l0.19,0.07c1.98,0.71,3.31,2.59,3.31,4.7V98.37z M71.92,97.62h9.72v-0.94c0-1.72-1.05-3.27-2.63-3.92
						c-1.32,0.88-3.14,0.88-4.46,0c-1.58,0.65-2.63,2.2-2.63,3.92V97.62z"/>
				</g>
				<g>
					<path fill="#FFFFFF" d="M80.44,89.4c0,1.21-0.58,2.27-1.48,2.94c-0.61,0.45-1.36,0.72-2.18,0.72s-1.57-0.27-2.18-0.72
						c-0.9-0.67-1.48-1.73-1.48-2.94c0-2.02,1.64-3.66,3.66-3.66C78.8,85.74,80.44,87.38,80.44,89.4z"/>
					<path fill="#989FA1" d="M76.78,93.43c-0.87,0-1.7-0.27-2.4-0.79c-1.02-0.76-1.63-1.97-1.63-3.24c0-2.23,1.81-4.04,4.03-4.04
						s4.04,1.81,4.04,4.04c0,1.27-0.61,2.48-1.63,3.24C78.49,93.16,77.65,93.43,76.78,93.43z M76.78,86.11
						c-1.81,0-3.28,1.47-3.28,3.29c0,1.05,0.48,2.01,1.33,2.64c1.14,0.84,2.77,0.84,3.91,0c0.85-0.63,1.33-1.59,1.33-2.64
						C80.07,87.59,78.59,86.11,76.78,86.11z"/>
				</g>
			</g>
		</g>
		<g>
			<g>
				<path fill="#FFFFFF" d="M162.46,6.48c6.55,6.55,6.55,17.17,0,23.72c-6.55,6.55-17.17,6.55-23.72,0
					c-6.55-6.55-6.55-17.17,0-23.72C145.29-0.07,155.91-0.07,162.46,6.48z"/>
				<path fill="#989FA1" d="M150.6,35.49c-4.58,0-8.89-1.78-12.13-5.02c-3.24-3.24-5.02-7.54-5.02-12.13s1.78-8.89,5.02-12.13
					c3.24-3.24,7.54-5.02,12.13-5.02c4.58,0,8.89,1.78,12.13,5.02l0,0l0,0c3.24,3.24,5.02,7.54,5.02,12.13s-1.78,8.89-5.02,12.13
					C159.49,33.71,155.18,35.49,150.6,35.49z M150.6,1.94c-4.38,0-8.5,1.71-11.59,4.8c-3.1,3.1-4.8,7.22-4.8,11.6s1.71,8.5,4.8,11.6
					c3.1,3.1,7.21,4.8,11.6,4.8c4.38,0,8.5-1.71,11.59-4.8c3.1-3.1,4.8-7.22,4.8-11.6s-1.71-8.5-4.8-11.6h0
					C159.1,3.65,154.98,1.94,150.6,1.94z"/>
			</g>
			<path fill="#ECEFEF" d="M160.85,8.09c5.66,5.66,5.66,14.84,0,20.5c-5.66,5.66-14.84,5.66-20.51,0c-5.66-5.66-5.66-14.84,0-20.5
				C146.01,2.42,155.19,2.42,160.85,8.09z"/>
			<g>
				<g>
					<path fill="#FFFFFF" d="M150.6,10.91c-2.94,0-5.33,2.39-5.33,5.33c0,5.38,5.33,9.73,5.33,9.73s5.33-5.37,5.33-9.73
						C155.93,13.3,153.55,10.91,150.6,10.91z M150.6,18.1c-1.11,0-2.01-0.9-2.01-2.01c0-1.11,0.9-2.01,2.01-2.01
						c1.11,0,2.01,0.9,2.01,2.01C152.61,17.2,151.71,18.1,150.6,18.1z"/>
					<path fill="#989FA1" d="M150.6,26.34c-0.08,0-0.17-0.03-0.24-0.08c-0.22-0.18-5.47-4.53-5.47-10.02c0-3.15,2.56-5.71,5.7-5.71
						s5.71,2.56,5.71,5.71c0,4.46-5.22,9.77-5.44,9.99C150.79,26.31,150.7,26.34,150.6,26.34z M150.6,11.28
						c-2.73,0-4.95,2.22-4.95,4.96c0,4.47,3.88,8.26,4.93,9.21c1.03-1.1,4.98-5.58,4.98-9.21C155.55,13.51,153.33,11.28,150.6,11.28
						z M150.6,18.47c-1.32,0-2.38-1.07-2.38-2.38c0-1.32,1.07-2.39,2.38-2.39s2.39,1.07,2.39,2.39
						C152.99,17.4,151.91,18.47,150.6,18.47z M150.6,14.45c-0.9,0-1.63,0.73-1.63,1.64c0,0.9,0.73,1.63,1.63,1.63
						c0.9,0,1.64-0.73,1.64-1.63C152.24,15.19,151.5,14.45,150.6,14.45z"/>
				</g>
			</g>
		</g>
		<g>
			<g>
				<path fill="#FFFFFF" d="M110.39,27.52c6.55,6.55,6.55,17.17,0,23.72c-6.55,6.55-17.17,6.55-23.72,0
					c-6.55-6.55-6.55-17.17,0-23.72C93.22,20.97,103.84,20.97,110.39,27.52z"/>
				<path fill="#989FA1" d="M98.53,56.53c-4.58,0-8.89-1.78-12.13-5.02c-3.24-3.24-5.02-7.54-5.02-12.13s1.78-8.89,5.02-12.13
					c3.24-3.24,7.54-5.02,12.13-5.02s8.89,1.78,12.13,5.02l0,0l0,0c3.24,3.24,5.02,7.54,5.02,12.13s-1.78,8.89-5.02,12.13
					C107.42,54.74,103.11,56.53,98.53,56.53z M98.53,22.98c-4.38,0-8.5,1.71-11.59,4.8c-3.1,3.1-4.8,7.22-4.8,11.6
					s1.71,8.5,4.8,11.6c3.1,3.1,7.21,4.8,11.59,4.8c4.38,0,8.5-1.71,11.6-4.8c3.1-3.1,4.8-7.22,4.8-11.6s-1.71-8.5-4.8-11.6l0,0
					C107.03,24.69,102.91,22.98,98.53,22.98z"/>
			</g>
			<path fill="#ECEFEF" d="M108.78,29.13c5.66,5.66,5.66,14.84,0,20.5c-5.66,5.66-14.84,5.66-20.51,0c-5.66-5.66-5.66-14.84,0-20.5
				C93.94,23.46,103.12,23.46,108.78,29.13z"/>
			<g>
				<g>
					<g>
						<path fill="#FFFFFF" d="M92.35,33.53c0,1.11-0.9,2.01-2.01,2.01c-1.11,0-2.01-0.9-2.01-2.01c0-1.11,0.9-2.01,2.01-2.01
							C91.45,31.52,92.35,32.42,92.35,33.53z"/>
						<path fill="#989FA1" d="M90.34,35.92c-1.32,0-2.38-1.07-2.38-2.39c0-1.31,1.07-2.38,2.38-2.38s2.38,1.07,2.38,2.38
							C92.73,34.85,91.66,35.92,90.34,35.92z M90.34,31.9c-0.9,0-1.63,0.73-1.63,1.63c0,0.9,0.73,1.64,1.63,1.64
							s1.63-0.73,1.63-1.64C91.98,32.63,91.24,31.9,90.34,31.9z"/>
					</g>
				</g>
				<rect x="94.69" y="33.07" fill="#989FA1" width="14.04" height="0.75"/>
				<g>
					<g>
						<path fill="#FFFFFF" d="M92.35,39.38c0,1.11-0.9,2.01-2.01,2.01c-1.11,0-2.01-0.9-2.01-2.01c0-1.11,0.9-2.01,2.01-2.01
							C91.45,37.37,92.35,38.27,92.35,39.38z"/>
						<path fill="#989FA1" d="M90.34,41.76c-1.32,0-2.38-1.07-2.38-2.39c0-1.31,1.07-2.38,2.38-2.38s2.38,1.07,2.38,2.38
							C92.73,40.69,91.66,41.76,90.34,41.76z M90.34,37.74c-0.9,0-1.63,0.73-1.63,1.63c0,0.9,0.73,1.64,1.63,1.64
							s1.63-0.73,1.63-1.64C91.98,38.48,91.24,37.74,90.34,37.74z"/>
					</g>
				</g>
				<rect x="94.69" y="38.92" fill="#989FA1" width="14.04" height="0.75"/>
				<g>
					<g>
						<path fill="#FFFFFF" d="M92.35,45.22c0,1.11-0.9,2.01-2.01,2.01c-1.11,0-2.01-0.9-2.01-2.01c0-1.11,0.9-2.01,2.01-2.01
							C91.45,43.21,92.35,44.11,92.35,45.22z"/>
						<path fill="#989FA1" d="M90.34,47.61c-1.32,0-2.38-1.07-2.38-2.39c0-1.31,1.07-2.38,2.38-2.38s2.38,1.07,2.38,2.38
							C92.73,46.54,91.66,47.61,90.34,47.61z M90.34,43.59c-0.9,0-1.63,0.73-1.63,1.63c0,0.9,0.73,1.64,1.63,1.64
							s1.63-0.73,1.63-1.64C91.98,44.32,91.24,43.59,90.34,43.59z"/>
					</g>
				</g>
				<rect x="94.69" y="44.76" fill="#989FA1" width="14.04" height="0.75"/>
			</g>
		</g>
		<rect x="93.61" y="92.2" fill="#989FA1" width="21.94" height="0.75"/>
		<rect x="185.46" y="92.2" fill="#989FA1" width="20.97" height="0.75"/>
		<rect x="150.33" y="35.16" fill="#989FA1" width="0.75" height="20"/>
		
			<rect x="113.05" y="49.98" transform="matrix(0.7071 -0.7071 0.7071 0.7071 -5.158 96.099)" fill="#989FA1" width="0.75" height="8.59"/>
		
			<rect x="175.83" y="58.53" transform="matrix(0.7065 -0.7078 0.7078 0.7065 12.6125 148.2251)" fill="#989FA1" width="18.33" height="0.75"/>
		<g>
			<path fill="#989FA1" d="M170.79,139.24v1.32h-0.89v-1.31c-1.5-0.09-2.62-0.7-3.36-1.54l0.73-0.92c0.57,0.65,1.47,1.25,2.62,1.36
				v-3.56c-1.5-0.4-3.05-0.91-3.05-2.71c0-1.52,1.29-2.6,3.05-2.71v-1.33h0.89v1.36c1.22,0.1,2.18,0.59,2.89,1.33l-0.73,0.89
				c-0.57-0.65-1.33-1-2.16-1.11v3.18c1.51,0.43,3.11,0.98,3.11,2.9C173.9,137.72,173.06,139.08,170.79,139.24z M169.89,133.26
				v-2.99c-1.06,0.06-1.79,0.67-1.79,1.54C168.11,132.65,168.91,132.98,169.89,133.26z M172.65,136.5c0-1-0.85-1.36-1.86-1.67v3.31
				C172.2,138.03,172.65,137.18,172.65,136.5z"/>
		</g>
	</g>
</g>
<g id="Layer_2">
</g>
<g id="Layer_3">
</g>
<g id="Layer_4">
</g>
<g id="Layer_5">
</g>
<g id="Layer_6">
</g>
</svg>
