<svg xmlns="http://www.w3.org/2000/svg" preserveAspectRatio="xMidYMid" width="83" height="40" viewBox="0 0 83 40"><defs><style>.cls-1 { fill: #b6bcbd; fill-rule: evenodd; }</style></defs><path d="M83 39.998H70.667l-4.44-.018H52.21V40h-2.04V22.703l1.99.87.003.002 2.3 1.006c.616.27 1.274.41 1.954.41 2.698 0 4.893-2.19 4.893-4.89 0-2.696-2.195-4.89-4.893-4.89-.68 0-1.336.135-1.955.407l-2.314 1.015c-.022.073-.052.143-.087.21.04-.07.07-.14.09-.21l-1.98.866V.192h15.77c.028-.054.04-.13.037-.193l.042.032c0 .054-.02.11-.043.154H83v39.806zm-2.044-25.632V2.236H52.21v12.13l1.43-.627c.877-.39 1.81-.58 2.774-.58 3.824 0 6.935 3.11 6.935 6.93 0 3.823-3.118 6.933-6.94 6.933-.965 0-1.898-.196-2.77-.58l-1.43-.624V37.93h28.74v-23.57zm-28.932 2.54c.014-.023.023-.047.035-.07l-.03.062-.01.008zm-.003.005h.01c0 .005-.002.006-.003.007zm-14.29 9.35c-1.63 0-3.17-.627-4.36-1.782-.153-.157-.255-.275-.38-.423h-.02c-.038 0-.087.016-.13.046v15.82H17.02l-4.44-.02H2.042v.02H.002V24.11L0 15.873V.106h32.834v15.786c.042.03.088.046.132.046.013 0 .037-.005.07-.02l.347-.39c1.17-1.14 2.71-1.766 4.342-1.766 3.444 0 6.246 2.802 6.246 6.246 0 3.443-2.8 6.245-6.24 6.245zm0-10.447c-1.08 0-2.1.41-2.95 1.22l-.235.28-.31.28c-.393.258-.83.394-1.265.394-.045 0-.09 0-.13-.004-.765-.047-1.47-.484-1.864-1.165-.047-.087-.085-.18-.114-.274l-.065-.03V2.15H18.66l-7.972-.002H2.045V37.85H30.79V23.51l.052-.023c.03-.112.076-.22.136-.323.393-.676 1.095-1.11 1.855-1.155.044-.01.088-.01.133-.01.37 0 .74.093 1.16.33.143.094.324.27.463.44.06.08.12.16.21.25.79.763 1.826 1.19 2.92 1.19 2.32 0 4.203-1.888 4.203-4.206 0-2.32-1.886-4.204-4.205-4.204z" class="cls-1"/></svg>