<?xml version="1.0" encoding="utf-8"?>
<!-- Generator: Adobe Illustrator 19.0.0, SVG Export Plug-In . SVG Version: 6.00 Build 0)  -->
<svg version="1.1" id="Layer_1" xmlns="http://www.w3.org/2000/svg" xmlns:xlink="http://www.w3.org/1999/xlink" x="0px" y="0px"
	 viewBox="-273 364 65 65" style="enable-background:new -273 364 65 65;" xml:space="preserve">
<style type="text/css">
	.st0{fill:#B7BEBF;}
</style>
<g>
	<path class="st0" d="M-239.5,371c-12.6,0-22.5,4.4-22.5,10v31c0,5.6,9.9,10,22.5,10c12.6,0,22.5-4.4,22.5-10v-31
		C-217,375.4-226.9,371-239.5,371z M-218,390.5c0,2.3-2.4,4.6-6.7,6.4v1.2c2.5-1,4.4-2.1,5.6-3.4l1.1-1.1v7.5c0,2.3-2.4,4.6-6.7,6.4
		v1.2c2.4-1,4.3-2.1,5.6-3.3l1.1-1.1v7.5c0,4.3-8.6,9-21.5,9c-5.7,0-11.1-1-15.3-2.7c-4-1.7-6.2-3.9-6.2-6.2v-7.5l1.1,1.1
		c1.2,1.2,3.1,2.3,5.3,3.2v-1.3c-4-1.7-6.4-4-6.4-6.3v-7.5l1.1,1.1c1.2,1.2,3.1,2.3,5.3,3.2v-1.3c-4-1.7-6.4-4-6.4-6.3v-6l1.1,1.1
		c3.7,3.6,11.5,5.8,20.4,5.8c8.8,0,16.6-2.2,20.4-5.8l1.1-1.1V390.5z M-224.2,387.3c-4.2,1.8-9.6,2.7-15.3,2.7
		c-5.7,0-11.1-1-15.3-2.7c-4-1.7-6.2-3.9-6.2-6.2c0-4.3,8.6-9,21.5-9c5.7,0,11.1,1,15.3,2.7c3.9,1.5,6.2,3.8,6.2,6.2
		C-218,383.4-220.3,385.6-224.2,387.3z"/>
	<path class="st0" d="M-246.7,398.9h-2.7c-0.1,0-0.1,0-0.2,0.1s-0.1,0.1-0.1,0.2v7.9c0,0.1,0,0.1,0.1,0.2c0,0,0.1,0.1,0.2,0.1h0.8
		c0.1,0,0.1,0,0.2-0.1c0,0,0.1-0.1,0.1-0.2v-2.8h1.7c0.7,0,1.4-0.3,1.9-0.8s0.8-1.2,0.8-1.9c0-0.7-0.3-1.4-0.8-1.9
		C-245.3,399.2-246,398.9-246.7,398.9z M-245.7,402.7c-0.3,0.3-0.7,0.4-1.1,0.4h-1.7v-3h1.7c0.4,0,0.8,0.1,1.1,0.4
		c0.3,0.3,0.5,0.6,0.5,1C-245.3,402-245.4,402.4-245.7,402.7z"/>
	<path class="st0" d="M-237.4,400c0.8,0,1.5,0.3,2.1,0.8c0.1,0.1,0.2,0.1,0.3,0l0.5-0.5c0.1-0.1,0.1-0.2,0-0.3
		c-0.9-0.7-1.8-1.1-2.9-1.1c-1.2,0-2.2,0.4-3.1,1.3c-0.8,0.8-1.3,1.9-1.3,3.1c0,1.2,0.4,2.2,1.3,3.1c0.8,0.8,1.9,1.3,3.1,1.3
		c1.1,0,2.1-0.4,2.9-1.2c0,0,0.1-0.1,0.1-0.2s0-0.1-0.1-0.2l-0.6-0.5c-0.1-0.1-0.2-0.1-0.3,0c-0.7,0.5-1.4,0.8-2.1,0.8
		c-0.8,0-1.6-0.3-2.1-0.9c-0.6-0.6-0.9-1.3-0.9-2.2s0.3-1.6,0.9-2.2S-238.3,400-237.4,400z"/>
	<path class="st0" d="M-230.4,398.9h-0.8c-0.1,0-0.1,0-0.2,0.1c0,0-0.1,0.1-0.1,0.2v7.9c0,0.1,0,0.1,0.1,0.2c0,0,0.1,0.1,0.2,0.1
		h0.8c0.1,0,0.1,0,0.2-0.1s0.1-0.1,0.1-0.2v-7.9c0-0.1,0-0.1-0.1-0.2S-230.3,398.9-230.4,398.9z"/>
</g>
</svg>
