<svg xmlns="http://www.w3.org/2000/svg" preserveAspectRatio="xMidYMid" width="50" height="50.03" viewBox="0 0 50 50.03"><defs><style>.cls-1 { fill: #98a2a4; fill-rule: evenodd; }</style></defs><path d="M47.057 17.435l-7.82 7.933 7.107 7.21c3.927 3.983 3.927 10.465 0 14.448-3.927 3.983-10.316 3.983-14.126.12l-7.223-7.33-7.107 7.21c-3.927 3.983-10.316 3.984-14.243 0-3.927-3.983-3.926-10.465 0-14.448l7.107-7.21-7.703-7.814C-1 13.452-1 6.97 2.93 2.986c3.927-3.983 10.316-3.982 14.243 0l7.82 7.934 7.82-7.933c3.926-3.983 10.316-3.984 14.242 0 3.927 3.983 3.927 10.465 0 14.448zm-12.98 27.59c2.837 2.878 7.455 2.878 10.293 0 2.838-2.88 2.838-7.565 0-10.445l-7.04-7.14-10.294 10.44 7.04 7.142zM5.617 34.58c-2.84 2.88-2.84 7.564 0 10.444 2.838 2.88 7.456 2.878 10.294 0l6.69-6.786.42-.424-10.25-10.4-.46.38-6.69 6.786zM15.2 4.99c-2.838-2.88-7.456-2.88-10.294 0s-2.838 7.563 0 10.443l7.82 7.932L23.02 12.922 15.2 4.99zm8.994 9.138L14.1 24.368l12.094 12.24 10.095-10.24-12.1-12.24zm20.89-9.14c-2.84-2.878-7.457-2.878-10.295 0l-7.43 7.537-.36.437 10.26 10.403.39-.396 7.43-7.54c2.84-2.88 2.84-7.57 0-10.45zm-14.33 21.934c-.514 0-.93-.423-.93-.944 0-.52.416-.944.93-.944s.93.423.93.944c0 .52-.416.944-.93.944zm-2.48 2.515c-.514 0-.93-.423-.93-.944 0-.52.416-.944.93-.944s.93.42.93.94-.416.94-.93.94zm-1.345-6.004c-.37-.37-.37-.966 0-1.334.36-.37.95-.37 1.31-.01.36.37.36.966 0 1.335-.366.37-.95.37-1.32 0zm-.48 8.242c-.368.37-.95.37-1.32 0-.364-.368-.364-.966 0-1.335.363-.368.952-.368 1.315 0 .363.37.363.967 0 1.335zm-1.35-5.45c-.514 0-.93-.423-.93-.944 0-.52.416-.94.93-.94s.93.428.93.95c0 .52-.416.944-.93.944zm-1.34-6.005c-.363-.365-.364-.963 0-1.332.363-.37.952-.37 1.316 0 .362.37.362.966 0 1.335-.365.37-.954.37-1.317 0zm-.476 8.245c-.364.368-.953.37-1.316 0-.37-.37-.37-.966 0-1.335.36-.37.95-.37 1.31 0s.364.965 0 1.334zm-1.346-5.45c-.518 0-.93-.423-.93-.944 0-.52.412-.94.93-.94.51 0 .93.425.93.946 0 .52-.42.943-.93.943zm-2.48 2.514c-.517 0-.93-.43-.93-.95s.413-.944.93-.944c.51 0 .93.423.93.945 0 .52-.42.944-.93.944z" class="cls-1"/></svg>