<?xml version="1.0" encoding="utf-8"?>
<!-- Generator: Adobe Illustrator 22.0.1, SVG Export Plug-In . SVG Version: 6.00 Build 0)  -->
<svg version="1.1" xmlns="http://www.w3.org/2000/svg" xmlns:xlink="http://www.w3.org/1999/xlink" x="0px" y="0px" width="300px"
	 height="124.83px" viewBox="0 0 300 124.83" enable-background="new 0 0 300 124.83" xml:space="preserve">
<g id="Layer_1">
	<g>
		<g>
			<g>
				<g>
					<defs>
						<path id="SVGID_1_" d="M240.75-89.54c-0.04-0.29-0.03-1.01-0.03-1.01h-0.43c-0.96,0-1.34-0.35-1.34-1.29v-3.72
							c0-1.67-0.41-2.08-1.22-2.35v-0.08c0.81-0.26,1.22-0.69,1.22-2.36v-3.69c0.01-0.93,0.39-1.24,1.35-1.24h0.43
							c0,0,0.02-0.64,0.07-1.01c-0.2-0.03-0.96-0.04-0.96-0.04c-1.95,0-2.5,0.91-2.5,2.79v3.37c0,1.37-0.81,1.56-1.12,1.56v1.33
							c0.3,0,1.12,0.19,1.12,1.54v3.39c0,1.87,0.55,2.76,2.49,2.76C239.82-89.58,240.59-89.54,240.75-89.54"/>
					</defs>
					<use xlink:href="#SVGID_1_"  overflow="visible" fill-rule="evenodd" clip-rule="evenodd" fill="#B7B7B7"/>
					<clipPath id="SVGID_2_">
						<use xlink:href="#SVGID_1_"  overflow="visible"/>
					</clipPath>
					<g clip-path="url(#SVGID_2_)">
						<defs>
							<rect id="SVGID_3_" x="143.94" y="-292.41" width="396.59" height="396.59"/>
						</defs>
						<use xlink:href="#SVGID_3_"  overflow="visible" fill="#B7B7B7"/>
						<clipPath id="SVGID_4_">
							<use xlink:href="#SVGID_3_"  overflow="visible"/>
						</clipPath>
					</g>
				</g>
				<g>
					<defs>
						<path id="SVGID_5_" d="M245.36-87.43c-0.05-0.37-0.04-1.27-0.04-1.27h-0.53c-1.21,0-1.68-0.44-1.68-1.61v-4.66
							c0-2.09-0.51-2.6-1.52-2.94v-0.1c1.02-0.33,1.52-0.86,1.52-2.96v-4.62c0.01-1.17,0.48-1.55,1.69-1.55h0.53
							c0,0,0.03-0.8,0.09-1.27c-0.25-0.04-1.21-0.05-1.21-0.05c-2.44,0-3.12,1.14-3.12,3.49v4.21c0,1.72-1.02,1.95-1.4,1.95v1.67
							c0.38,0,1.4,0.23,1.4,1.93v4.24c0,2.35,0.69,3.45,3.11,3.45C244.2-87.48,245.15-87.43,245.36-87.43"/>
					</defs>
					<use xlink:href="#SVGID_5_"  overflow="visible" fill-rule="evenodd" clip-rule="evenodd" fill="#B7B7B7"/>
					<clipPath id="SVGID_6_">
						<use xlink:href="#SVGID_5_"  overflow="visible"/>
					</clipPath>
					<g clip-path="url(#SVGID_6_)">
						<defs>
							<rect id="SVGID_7_" x="124.18" y="-341.37" width="496.43" height="496.43"/>
						</defs>
						<use xlink:href="#SVGID_7_"  overflow="visible" fill="#B7B7B7"/>
						<clipPath id="SVGID_8_">
							<use xlink:href="#SVGID_7_"  overflow="visible"/>
						</clipPath>
					</g>
				</g>
			</g>
			<g>
				<g>
					<defs>
						<path id="SVGID_9_" d="M264.14-106.32c0.04,0.29,0.03,1.01,0.03,1.01h0.43c0.96,0,1.34,0.35,1.34,1.29v3.72
							c0,1.67,0.41,2.08,1.22,2.35v0.08c-0.81,0.26-1.22,0.69-1.22,2.36v3.69c-0.01,0.93-0.39,1.24-1.35,1.24h-0.43
							c0,0-0.02,0.64-0.07,1.01c0.2,0.03,0.96,0.04,0.96,0.04c1.95,0,2.5-0.91,2.5-2.79v-3.37c0-1.37,0.81-1.56,1.12-1.56v-1.33
							c-0.3,0-1.12-0.19-1.12-1.54v-3.39c0-1.87-0.55-2.76-2.49-2.76C265.06-106.28,264.3-106.32,264.14-106.32"/>
					</defs>
					<use xlink:href="#SVGID_9_"  overflow="visible" fill-rule="evenodd" clip-rule="evenodd" fill="#B7B7B7"/>
					<clipPath id="SVGID_10_">
						<use xlink:href="#SVGID_9_"  overflow="visible"/>
					</clipPath>
					<g clip-path="url(#SVGID_10_)">
						<defs>
							<rect id="SVGID_11_" x="-35.64" y="-300.04" width="396.59" height="396.59"/>
						</defs>
						<use xlink:href="#SVGID_11_"  overflow="visible" fill="#B7B7B7"/>
						<clipPath id="SVGID_12_">
							<use xlink:href="#SVGID_11_"  overflow="visible"/>
						</clipPath>
					</g>
				</g>
				<g>
					<defs>
						<path id="SVGID_13_" d="M259.53-108.43c0.05,0.37,0.04,1.27,0.04,1.27h0.53c1.21,0,1.68,0.44,1.68,1.61v4.66
							c0,2.09,0.51,2.6,1.52,2.94v0.1c-1.02,0.33-1.52,0.86-1.52,2.96v4.62c-0.01,1.17-0.48,1.55-1.69,1.55h-0.53
							c0,0-0.03,0.8-0.09,1.27c0.25,0.04,1.21,0.05,1.21,0.05c2.44,0,3.12-1.14,3.12-3.49v-4.21c0-1.72,1.02-1.95,1.4-1.95v-1.67
							c-0.38,0-1.4-0.23-1.4-1.93v-4.24c0-2.35-0.69-3.45-3.11-3.45C260.69-108.38,259.74-108.43,259.53-108.43"/>
					</defs>
					<use xlink:href="#SVGID_13_"  overflow="visible" fill-rule="evenodd" clip-rule="evenodd" fill="#B7B7B7"/>
					<clipPath id="SVGID_14_">
						<use xlink:href="#SVGID_13_"  overflow="visible"/>
					</clipPath>
					<g clip-path="url(#SVGID_14_)">
						<defs>
							<rect id="SVGID_15_" x="-115.72" y="-350.92" width="496.43" height="496.43"/>
						</defs>
						<use xlink:href="#SVGID_15_"  overflow="visible" fill="#B7B7B7"/>
						<clipPath id="SVGID_16_">
							<use xlink:href="#SVGID_15_"  overflow="visible"/>
						</clipPath>
					</g>
				</g>
			</g>
			<g>
				<defs>
					<path id="SVGID_17_" d="M254.66-92.86c0.62-0.18,1.14-0.45,1.57-0.78c0.43-0.34,0.76-0.75,0.99-1.25
						c0.23-0.49,0.35-1.04,0.35-1.64c0-0.52-0.09-0.98-0.26-1.34c-0.18-0.38-0.45-0.71-0.84-0.99c-0.39-0.29-0.88-0.54-1.49-0.76
						c-0.6-0.22-1.33-0.45-2.18-0.67c-0.92-0.24-1.55-0.45-1.91-0.65c-0.36-0.19-0.54-0.5-0.54-0.93c0-0.49,0.19-0.85,0.56-1.07
						c0.37-0.22,0.84-0.34,1.38-0.34c0.59,0,1.19,0.1,1.78,0.3c0.59,0.2,1.23,0.52,1.9,0.97l1.26-1.98
						c-0.73-0.47-1.52-0.85-2.37-1.13c-0.84-0.28-1.7-0.42-2.55-0.42c-0.69,0-1.33,0.1-1.91,0.29c-0.58,0.19-1.1,0.46-1.53,0.82
						c-0.44,0.36-0.77,0.79-1.02,1.3c-0.24,0.51-0.36,1.08-0.36,1.71c0,0.47,0.07,0.89,0.23,1.24c0.15,0.35,0.4,0.66,0.73,0.93
						c0.33,0.27,0.78,0.51,1.33,0.72c0.55,0.2,1.22,0.41,2,0.6c1.02,0.25,1.75,0.49,2.18,0.71c0.44,0.21,0.65,0.54,0.65,0.99
						c0,0.45-0.19,0.78-0.55,1.03c-0.36,0.24-0.87,0.36-1.51,0.36c-1.42,0-2.89-0.51-4.42-1.55l-1.23,2.17
						c0.35,0.25,0.75,0.48,1.22,0.69c0.45,0.2,0.94,0.38,1.44,0.52c0.5,0.15,1.02,0.25,1.54,0.34c0.53,0.08,1.03,0.12,1.52,0.12
						C253.36-92.59,254.05-92.68,254.66-92.86"/>
				</defs>
				<use xlink:href="#SVGID_17_"  overflow="visible" fill-rule="evenodd" clip-rule="evenodd" fill="#B7B7B7"/>
				<clipPath id="SVGID_18_">
					<use xlink:href="#SVGID_17_"  overflow="visible"/>
				</clipPath>
				<g clip-path="url(#SVGID_18_)">
					<defs>
						<rect id="SVGID_19_" x="143.94" y="-292.41" width="396.59" height="396.59"/>
					</defs>
					<use xlink:href="#SVGID_19_"  overflow="visible" fill="#B7B7B7"/>
					<clipPath id="SVGID_20_">
						<use xlink:href="#SVGID_19_"  overflow="visible"/>
					</clipPath>
				</g>
			</g>
		</g>
	</g>
	<g>
		<g>
			<g>
				<path fill="#989FA1" d="M275.03,124.03H147.67c-14.97,0-21.86-3.38-22.14-3.52l-0.21-0.1v-1.77h172.05v1.77l-0.21,0.1
					C296.88,120.65,289.99,124.03,275.03,124.03z M126.07,119.93c1.26,0.55,8.24,3.34,21.6,3.34h127.36
					c13.36,0,20.34-2.79,21.6-3.34v-0.54H126.07V119.93z"/>
				<path fill="#989FA1" d="M211.35,28.98c-0.67,0-1.21-0.54-1.21-1.21c0-0.67,0.54-1.21,1.21-1.21c0.67,0,1.21,0.54,1.21,1.21
					C212.56,28.43,212.02,28.98,211.35,28.98z M211.35,27.3c-0.25,0-0.46,0.21-0.46,0.46s0.21,0.46,0.46,0.46s0.46-0.21,0.46-0.46
					S211.6,27.3,211.35,27.3z"/>
				<g>
					<rect id="Screen_7_" x="146.77" y="31.02" fill="#ECEFEF" width="129.15" height="80.72"/>
					<path fill="#989FA1" d="M276.3,112.11H146.4V30.64h129.9V112.11z M147.15,111.36h128.4V31.39h-128.4V111.36z"/>
				</g>
				<path fill="#989FA1" d="M226.35,121.06h-30c-1.08,0-1.96-0.88-1.96-1.96v-0.38l0.38-0.09h33.54v0.38
					C228.31,120.18,227.43,121.06,226.35,121.06z M195.19,119.39c0.15,0.55,0.61,0.92,1.16,0.92h30c0.57,0,1.04-0.39,1.17-0.92
					H195.19z"/>
				<path fill="#989FA1" d="M283.45,119.38H139.16V28.77c0-2.9,2.36-5.25,5.25-5.25H278.2c2.89,0,5.25,2.35,5.25,5.25V119.38z
					 M139.91,118.63H282.7V28.77c0-2.48-2.02-4.5-4.5-4.5H144.41c-2.48,0-4.5,2.02-4.5,4.5V118.63z"/>
			</g>
			<g>
				<path fill="#EEE679" d="M81.71,85.46H4.47C3.66,85.46,3,84.8,3,83.99V58.3c0-0.81,0.66-1.47,1.47-1.47h77.24
					c0.81,0,1.47,0.66,1.47,1.47v25.7C83.18,84.8,82.52,85.46,81.71,85.46z"/>
				<g>
					<g>
						<path fill="#FFFFFF" d="M19.38,75.15v-6.7h3.29c1.23,0,1.91,0.76,1.91,1.71c0,0.83-0.54,1.41-1.16,1.54
							c0.72,0.11,1.3,0.82,1.3,1.64c0,1.04-0.68,1.82-1.95,1.82H19.38z M23.38,70.36c0-0.49-0.34-0.86-0.93-0.86h-1.89v1.73h1.89
							C23.04,71.22,23.38,70.87,23.38,70.36z M23.51,73.19c0-0.5-0.35-0.93-1.01-0.93h-1.94v1.87h1.94
							C23.13,74.12,23.51,73.77,23.51,73.19z"/>
						<path fill="#FFFFFF" d="M26.4,72.5v-4.05h1.19v4.02c0,1.06,0.59,1.76,1.71,1.76s1.71-0.69,1.71-1.76v-4.02h1.19v4.05
							c0,1.66-0.95,2.77-2.9,2.77C27.36,75.27,26.4,74.16,26.4,72.5z"/>
						<path fill="#FFFFFF" d="M36.03,75.15v-2.78l-2.6-3.92h1.35l1.84,2.86l1.84-2.86h1.35l-2.59,3.92v2.78H36.03z"/>
						<path fill="#FFFFFF" d="M48.77,75.15l-3.49-4.79v4.79h-1.17v-6.7h1.2l3.42,4.64v-4.64h1.17v6.7H48.77z"/>
						<path fill="#FFFFFF" d="M51.54,71.81c0-2,1.42-3.46,3.42-3.46c2,0,3.42,1.47,3.42,3.46s-1.43,3.46-3.42,3.46
							C52.96,75.27,51.54,73.81,51.54,71.81z M57.18,71.81c0-1.38-0.87-2.42-2.22-2.42c-1.36,0-2.22,1.03-2.22,2.42
							c0,1.38,0.86,2.42,2.22,2.42C56.31,74.23,57.18,73.19,57.18,71.81z"/>
						<path fill="#FFFFFF" d="M64.93,75.15l-1.3-4.95l-1.31,4.95h-1.26l-1.91-6.7h1.31l1.31,5.15l1.39-5.15h0.93l1.39,5.15
							l1.31-5.15h1.32l-1.92,6.7H64.93z"/>
					</g>
				</g>
				<g>
					<g>
						<path fill="#989FA1" d="M20.52,39.56V38.8l4.46-2.08v0.8l-3.65,1.67l3.65,1.64v0.81L20.52,39.56z"/>
						<path fill="#989FA1" d="M34.23,42.54v-2.93h-3.48v2.93h-1.17v-6.7h1.17v2.73h3.48v-2.73h1.17v6.7H34.23z"/>
						<path fill="#989FA1" d="M38.92,42.54v-5.66h-2.03v-1.03h5.23v1.03h-2.03v5.66H38.92z"/>
						<path fill="#989FA1" d="M49.4,42.54v-5.17l-2.05,5.17h-0.5l-2.06-5.17v5.17h-1.17v-6.7h1.66l1.83,4.6l1.82-4.6h1.66v6.7H49.4z
							"/>
						<path fill="#989FA1" d="M52.41,42.54v-6.7h1.17v5.66h2.95v1.03H52.41z"/>
						<path fill="#989FA1" d="M60.74,41.64v-0.81l3.66-1.64l-3.66-1.67v-0.8l4.46,2.08v0.76L60.74,41.64z"/>
					</g>
				</g>
			</g>
			<g>
				<g>
					<rect x="98.71" y="71.11" fill="#989FA1" width="23.3" height="0.75"/>
					<polygon fill="#989FA1" points="118.13,76.25 117.6,75.72 121.83,71.49 117.6,67.25 118.13,66.72 122.89,71.49 					"/>
				</g>
			</g>
			<circle fill="#B7B7B7" cx="265.27" cy="25.56" r="24.38"/>
			<g>
				<path fill="#FFFFFF" d="M272.02,30.98h-13.19l1.48-3.43l-3.86-9.65h-2.8c-0.21,0-0.38-0.17-0.38-0.38s0.17-0.38,0.38-0.38h3.31
					l4.16,10.41l-1.15,2.67h12.05c0.21,0,0.38,0.17,0.38,0.38S272.23,30.98,272.02,30.98z"/>
				<path fill="#FFFFFF" d="M260.47,27.95l-3.29-8.28h18.03l-1.64,7.26L260.47,27.95z M258.29,20.41l2.68,6.74l12-0.94l1.31-5.8
					H258.29z"/>
				<path fill="#FFFFFF" d="M262.21,36.31c-1.24,0-2.25-1.01-2.25-2.25s1.01-2.25,2.25-2.25c1.24,0,2.25,1.01,2.25,2.25
					S263.45,36.31,262.21,36.31z M262.21,32.56c-0.83,0-1.5,0.67-1.5,1.5s0.67,1.5,1.5,1.5s1.5-0.67,1.5-1.5
					S263.04,32.56,262.21,32.56z"/>
				<path fill="#FFFFFF" d="M269.28,36.31c-1.24,0-2.25-1.01-2.25-2.25s1.01-2.25,2.25-2.25c1.24,0,2.25,1.01,2.25,2.25
					S270.52,36.31,269.28,36.31z M269.28,32.56c-0.83,0-1.5,0.67-1.5,1.5s0.67,1.5,1.5,1.5s1.5-0.67,1.5-1.5
					S270.11,32.56,269.28,32.56z"/>
				<rect x="263.7" y="20.11" fill="#FFFFFF" width="0.75" height="7.16"/>
				<rect x="269.12" y="20.04" fill="#FFFFFF" width="0.75" height="6.79"/>
				
					<rect x="259.26" y="23.09" transform="matrix(0.9994 -0.0342 0.0342 0.9994 -0.6461 9.1201)" fill="#FFFFFF" width="14.66" height="0.75"/>
			</g>
		</g>
		<g>
			<path fill="#989FA1" d="M184.97,78.12v-2.78l-2.6-3.92h1.35l1.84,2.86l1.84-2.86h1.35l-2.59,3.92v2.78H184.97z"/>
			<path fill="#989FA1" d="M189.26,74.78c0-2,1.42-3.46,3.42-3.46c2,0,3.42,1.47,3.42,3.46s-1.43,3.46-3.42,3.46
				C190.67,78.24,189.26,76.77,189.26,74.78z M194.9,74.78c0-1.38-0.87-2.42-2.22-2.42c-1.36,0-2.22,1.03-2.22,2.42
				c0,1.38,0.86,2.42,2.22,2.42C194.03,77.19,194.9,76.15,194.9,74.78z"/>
			<path fill="#989FA1" d="M197.73,75.47v-4.05h1.19v4.02c0,1.06,0.59,1.76,1.71,1.76s1.71-0.69,1.71-1.76v-4.02h1.19v4.05
				c0,1.66-0.95,2.77-2.9,2.77C198.69,78.24,197.73,77.12,197.73,75.47z"/>
			<path fill="#989FA1" d="M209.28,78.12l-1.48-2.5h-1.17v2.5h-1.17v-6.7h2.94c1.33,0,2.2,0.85,2.2,2.1c0,1.18-0.78,1.84-1.6,1.97
				l1.65,2.63H209.28z M209.39,73.51c0-0.64-0.48-1.05-1.14-1.05h-1.62v2.13h1.62C208.91,74.58,209.39,74.16,209.39,73.51z"/>
			<path fill="#989FA1" d="M214.92,77.18l0.66-0.91c0.45,0.49,1.18,0.93,2.12,0.93c0.96,0,1.34-0.47,1.34-0.92
				c0-1.41-3.9-0.53-3.9-2.99c0-1.11,0.96-1.97,2.44-1.97c1.03,0,1.89,0.34,2.5,0.94l-0.66,0.87c-0.53-0.53-1.24-0.77-1.95-0.77
				c-0.68,0-1.12,0.34-1.12,0.83c0,1.25,3.9,0.48,3.9,2.97c0,1.11-0.79,2.08-2.59,2.08C216.42,78.24,215.53,77.8,214.92,77.18z"/>
			<path fill="#989FA1" d="M221.82,78.12v-6.7h1.17v6.7H221.82z"/>
			<path fill="#989FA1" d="M226.51,78.12v-5.66h-2.03v-1.03h5.23v1.03h-2.03v5.66H226.51z"/>
			<path fill="#989FA1" d="M231.21,78.12v-6.7h4.59v1.03h-3.41v1.73h3.34v1.03h-3.34v1.87h3.41v1.03H231.21z"/>
		</g>
	</g>
</g>
<g id="Layer_2">
</g>
<g id="Layer_3">
</g>
<g id="Layer_4">
</g>
<g id="Layer_5">
</g>
<g id="Layer_6">
</g>
</svg>
