<svg xmlns="http://www.w3.org/2000/svg" preserveAspectRatio="xMidYMid" width="50" height="50" viewBox="0 0 50 50"><defs><style>.cls-1 { fill: #b6bcbd; fill-rule: evenodd; }</style></defs><path d="M41.538 34.82c-2.01-1.287-4.442-2.543-6.667-3.444l-1.36-.555.744-1.27c.715-1.22 1.28-2.48 1.676-3.73l.1-.32.243-.23c.75-.7 1.356-1.664 1.755-2.78.454-1.273.628-2.7.492-4.016-.09-.842-.3-1.632-.63-2.35l-.14-.304.026-.335c.12-1.504.117-2.86-.012-4.146-.302-3.02-1.297-5.517-2.955-7.418-1.11-1.27-2.49-2.242-4.107-2.9C29.053.352 27.133.015 25 .015c-2.136 0-4.055.338-5.705 1.007-1.617.656-2.997 1.63-4.1 2.896-1.66 1.9-2.655 4.396-2.958 7.414-.13 1.286-.133 2.643-.012 4.15l.027.334-.14.304c-.33.717-.543 1.507-.63 2.348-.136 1.318.04 2.745.492 4.016.398 1.117 1.005 2.078 1.757 2.782l.25.23.1.318c.4 1.26.96 2.517 1.678 3.735l.747 1.27-1.37.553c-2.23.902-4.66 2.157-6.67 3.44-2.294 1.47-4.156 3.02-5.533 4.61-1.95 2.256-2.937 4.61-2.937 7v3.58h50.02v-3.58c0-2.39-.99-4.744-2.94-7-1.374-1.59-3.236-3.14-5.533-4.61zm6.31 12.884H2.15v-1.277c0-7.334 13.255-13.16 17.025-13.962.1-.25.228-.818.28-1.51-.913-1.052-2.864-3.604-3.62-6.94-.764-.39-1.4-1.18-1.802-2.248-.583-1.552-.68-3.866.455-5.364l-.006-.054c-.214-2.05-.778-7.46 2.387-10.97C18.7 3.34 21.44 2.31 25 2.31c3.56 0 6.3 1.03 8.13 3.064 3.167 3.51 2.6 8.93 2.387 10.97l-.006.05c1.14 1.504 1.06 3.76.46 5.365-.403 1.07-1.04 1.86-1.804 2.25-.755 3.334-2.706 5.886-3.618 6.94.05.69.18 1.26.28 1.51 3.77.8 17.023 6.63 17.023 13.96v1.28z" class="cls-1"/></svg>