<?xml version="1.0" encoding="utf-8"?>
<!-- Generator: Adobe Illustrator 22.0.1, SVG Export Plug-In . SVG Version: 6.00 Build 0)  -->
<svg version="1.1" xmlns="http://www.w3.org/2000/svg" xmlns:xlink="http://www.w3.org/1999/xlink" x="0px" y="0px" width="300px"
	 height="133.17px" viewBox="0 0 300 133.17" enable-background="new 0 0 300 133.17" xml:space="preserve">
<g id="Layer_1">
	<g>
		<rect x="58.97" y="20.92" fill="#ECEFEF" width="155.79" height="26.63"/>
		<g>
			<path fill="#989FA1" d="M64.41,117.83c-2.42,0-4.69-0.94-6.4-2.65c-1.71-1.71-2.65-3.98-2.65-6.4l0-98.52
				c0-2.42,0.94-4.69,2.65-6.4c1.71-1.71,3.98-2.65,6.4-2.65l144.04-0.01c4.99,0,9.05,4.06,9.05,9.05l0,98.52
				c0,4.99-4.06,9.05-9.05,9.05L64.41,117.83C64.41,117.83,64.41,117.83,64.41,117.83z M208.45,1.96L64.41,1.96
				c-2.22,0-4.3,0.86-5.87,2.43c-1.57,1.57-2.43,3.65-2.43,5.87l0,98.52c0,2.22,0.86,4.3,2.43,5.87c1.57,1.57,3.65,2.43,5.87,2.43
				c0,0,0,0,0,0l144.04-0.01c4.58,0,8.3-3.72,8.3-8.3l0-98.52C216.75,5.68,213.03,1.96,208.45,1.96z"/>
			<rect x="55.69" y="18.02" fill="#989FA1" width="161.43" height="0.75"/>
			<rect x="55.69" y="50.41" fill="#989FA1" width="161.43" height="0.75"/>
			
				<rect x="155.62" y="34.24" transform="matrix(0.4802 -0.8771 0.8771 0.4802 60.137 170.7088)" fill="#989FA1" width="36.98" height="0.75"/>
			
				<rect x="170.32" y="34.24" transform="matrix(0.4966 -0.868 0.868 0.4966 65.1099 181.4827)" fill="#989FA1" width="37.37" height="0.75"/>
			<rect x="64.45" y="74.7" fill="#989FA1" width="53.98" height="0.75"/>
			<rect x="64.45" y="88.2" fill="#989FA1" width="29.69" height="0.75"/>
		</g>
		<circle fill="#EEE679" cx="216.45" cy="103.71" r="27.87"/>
		<g>
			<path fill="#FFFFFF" d="M217.61,100.9h1.05l-1.54,8.11c-0.05,0.26-0.08,0.47-0.1,0.63s-0.03,0.29-0.03,0.4
				c0,0.44,0.1,0.78,0.3,1.01s0.5,0.34,0.88,0.34c0.17,0,0.4-0.03,0.68-0.1c0.28-0.07,0.61-0.17,0.97-0.31v1.05
				c-0.81,0.33-1.55,0.57-2.21,0.71s-1.29,0.22-1.89,0.22c-0.59,0-1.03-0.16-1.33-0.48c-0.3-0.32-0.45-0.79-0.45-1.42
				c0-0.16,0.02-0.36,0.05-0.59c0.03-0.24,0.09-0.59,0.18-1.06l1.29-6.46l-1.97-0.3v-0.84L217.61,100.9z M218.09,95.33
				c0.49,0,0.88,0.14,1.17,0.42s0.43,0.65,0.43,1.12c0,0.51-0.18,0.94-0.53,1.28s-0.79,0.52-1.3,0.52c-0.48,0-0.88-0.14-1.18-0.42
				s-0.45-0.64-0.45-1.09c0-0.52,0.18-0.96,0.53-1.31S217.55,95.33,218.09,95.33z"/>
		</g>
		<g>
			<path fill="#FFFFFF" d="M216.45,121.17c-9.63,0-17.46-7.83-17.46-17.46s7.83-17.46,17.46-17.46c9.63,0,17.46,7.83,17.46,17.46
				S226.07,121.17,216.45,121.17z M216.45,87.01c-9.21,0-16.71,7.5-16.71,16.71s7.5,16.71,16.71,16.71s16.71-7.5,16.71-16.71
				S225.66,87.01,216.45,87.01z"/>
			<path fill="#FFFFFF" d="M216.45,121.55c-9.83,0-17.83-8-17.83-17.83c0-9.83,8-17.83,17.83-17.83c9.83,0,17.83,8,17.83,17.83
				C234.28,113.55,226.28,121.55,216.45,121.55z M199.36,103.71c0,9.42,7.66,17.08,17.08,17.08s17.08-7.66,17.08-17.08
				c0,9.42-7.66,17.08-17.08,17.08S199.36,113.13,199.36,103.71z M216.45,87.38c-9.01,0-16.33,7.33-16.33,16.33
				c0,9.01,7.33,16.33,16.33,16.33c9.01,0,16.33-7.33,16.33-16.33C232.78,94.71,225.45,87.38,216.45,87.38z"/>
		</g>
	</g>
</g>
<g id="Layer_2">
</g>
<g id="Layer_3">
</g>
<g id="Layer_4">
</g>
<g id="Layer_5">
</g>
<g id="Layer_6">
</g>
</svg>
