<?xml version="1.0" encoding="utf-8"?>
<!-- Generator: Adobe Illustrator 22.0.1, SVG Export Plug-In . SVG Version: 6.00 Build 0)  -->
<svg version="1.1" xmlns="http://www.w3.org/2000/svg" xmlns:xlink="http://www.w3.org/1999/xlink" x="0px" y="0px" width="300px"
	 height="145px" viewBox="0 0 300 145" enable-background="new 0 0 300 145" xml:space="preserve">
<g id="Layer_1">
	<g>
		<g>
			<path fill="#989FA1" d="M217.45,63.1c-0.45-0.67-1.08-1.19-1.82-1.5l-19.36-8.12l0.29-0.69l19.36,8.12
				c0.87,0.37,1.62,0.98,2.15,1.77L217.45,63.1z"/>
			<path fill="#989FA1" d="M82.95,63.4l-0.63-0.41c0.8-1.21,1.94-2.16,3.29-2.72l17.83-7.47l0.29,0.69L85.9,60.96
				C84.69,61.46,83.67,62.31,82.95,63.4z"/>
			<g>
				<g>
					<path fill="#FFFFFF" d="M192.44,133.88l-84.26,0c-2.38,0-4.3-1.93-4.3-4.3l0-103.09c0-2.38,1.93-4.3,4.3-4.3l84.26,0
						c2.38,0,4.3,1.93,4.3,4.3l0,103.09C196.74,131.96,194.82,133.88,192.44,133.88z"/>
					<path fill="#989FA1" d="M108.18,134.26c-2.58,0-4.68-2.1-4.68-4.68l0-103.09c0-2.58,2.1-4.68,4.68-4.68l84.26,0
						c2.58,0,4.68,2.1,4.68,4.68l0,103.09c0,2.58-2.1,4.68-4.68,4.68L108.18,134.26z M192.43,22.56l-84.26,0
						c-2.17,0-3.93,1.76-3.93,3.93l0,103.09c0,2.17,1.76,3.93,3.93,3.93l84.26,0c2.17,0,3.93-1.76,3.93-3.93l0-103.09
						C196.36,24.32,194.6,22.56,192.43,22.56z"/>
				</g>
				<rect x="113.68" y="64.2" fill="#989FA1" width="50.62" height="0.75"/>
				<rect x="113.68" y="72.98" fill="#989FA1" width="50.62" height="0.75"/>
				<rect x="113.68" y="55.41" fill="#989FA1" width="50.62" height="0.75"/>
				<rect x="113.68" y="81.76" fill="#989FA1" width="37.76" height="0.75"/>
				<g>
					<path fill="#989FA1" d="M115,39.55v-1.83l-1.71-2.57h0.88l1.21,1.88l1.21-1.88h0.88l-1.7,2.57v1.83H115z"/>
					<path fill="#989FA1" d="M117.81,37.36c0-1.31,0.93-2.27,2.25-2.27c1.31,0,2.25,0.96,2.25,2.27s-0.94,2.27-2.25,2.27
						C118.74,39.63,117.81,38.67,117.81,37.36z M121.52,37.36c0-0.91-0.57-1.59-1.46-1.59c-0.89,0-1.46,0.68-1.46,1.59
						c0,0.9,0.57,1.59,1.46,1.59C120.95,38.95,121.52,38.26,121.52,37.36z"/>
					<path fill="#989FA1" d="M123.37,37.81v-2.66h0.78v2.64c0,0.7,0.39,1.15,1.12,1.15s1.12-0.46,1.12-1.15v-2.64h0.78v2.66
						c0,1.09-0.63,1.82-1.9,1.82C124.01,39.63,123.37,38.9,123.37,37.81z"/>
					<path fill="#989FA1" d="M130.47,39.55v-4.4h3.01v0.68h-2.24v1.13h2.2v0.68h-2.2v1.91H130.47z"/>
					<path fill="#989FA1" d="M134.32,37.36c0-1.31,0.93-2.27,2.25-2.27c1.31,0,2.25,0.96,2.25,2.27s-0.94,2.27-2.25,2.27
						C135.24,39.63,134.32,38.67,134.32,37.36z M138.02,37.36c0-0.91-0.57-1.59-1.46-1.59c-0.89,0-1.46,0.68-1.46,1.59
						c0,0.9,0.57,1.59,1.46,1.59C137.45,38.95,138.02,38.26,138.02,37.36z"/>
					<path fill="#989FA1" d="M142.38,39.55l-0.97-1.64h-0.77v1.64h-0.77v-4.4h1.93c0.87,0,1.44,0.56,1.44,1.38
						c0,0.78-0.51,1.21-1.05,1.29l1.08,1.73H142.38z M142.46,36.53c0-0.42-0.32-0.69-0.75-0.69h-1.06v1.4h1.06
						C142.14,37.23,142.46,36.96,142.46,36.53z"/>
					<path fill="#989FA1" d="M144.15,37.36c0-1.38,1.03-2.27,2.31-2.27c0.86,0,1.42,0.41,1.77,0.91l-0.63,0.36
						c-0.24-0.33-0.65-0.59-1.14-0.59c-0.87,0-1.52,0.66-1.52,1.59c0,0.92,0.65,1.59,1.52,1.59c0.45,0,0.84-0.2,1.04-0.4v-0.68
						h-1.32v-0.68h2.08v1.64c-0.43,0.48-1.05,0.8-1.81,0.8C145.18,39.64,144.15,38.74,144.15,37.36z"/>
					<path fill="#989FA1" d="M149.2,37.36c0-1.31,0.93-2.27,2.25-2.27c1.31,0,2.25,0.96,2.25,2.27s-0.94,2.27-2.25,2.27
						C150.13,39.63,149.2,38.67,149.2,37.36z M152.91,37.36c0-0.91-0.57-1.59-1.46-1.59c-0.89,0-1.46,0.68-1.46,1.59
						c0,0.9,0.57,1.59,1.46,1.59C152.33,38.95,152.91,38.26,152.91,37.36z"/>
					<path fill="#989FA1" d="M155.64,39.55v-3.72h-1.33v-0.68h3.43v0.68h-1.33v3.72H155.64z"/>
					<path fill="#989FA1" d="M114.79,47.46v-3.72h-1.33v-0.68h3.43v0.68h-1.33v3.72H114.79z"/>
					<path fill="#989FA1" d="M120.93,47.46v-1.92h-2.29v1.92h-0.77v-4.4h0.77v1.79h2.29v-1.79h0.77v4.4H120.93z"/>
					<path fill="#989FA1" d="M122.96,47.46v-4.4h3.01v0.68h-2.24v1.13h2.19v0.68h-2.19v1.23h2.24v0.68H122.96z"/>
					<path fill="#989FA1" d="M126.81,46.84l0.44-0.6c0.3,0.32,0.78,0.61,1.39,0.61c0.63,0,0.88-0.31,0.88-0.61
						c0-0.92-2.56-0.35-2.56-1.96c0-0.73,0.63-1.29,1.6-1.29c0.68,0,1.24,0.22,1.64,0.62l-0.44,0.57c-0.35-0.35-0.82-0.51-1.28-0.51
						c-0.45,0-0.74,0.22-0.74,0.55c0,0.82,2.56,0.32,2.56,1.95c0,0.73-0.52,1.36-1.7,1.36C127.79,47.53,127.2,47.24,126.81,46.84z"
						/>
					<path fill="#989FA1" d="M131.33,47.46v-4.4h3.01v0.68h-2.24v1.13h2.19v0.68h-2.19v1.23h2.24v0.68H131.33z"/>
					<path fill="#989FA1" d="M137.49,47.46v-4.4h0.77v4.4H137.49z"/>
					<path fill="#989FA1" d="M140.57,47.46v-3.72h-1.33v-0.68h3.43v0.68h-1.33v3.72H140.57z"/>
					<path fill="#989FA1" d="M143.65,47.46v-4.4h3.01v0.68h-2.24v1.13h2.19v0.68h-2.19v1.23h2.24v0.68H143.65z"/>
					<path fill="#989FA1" d="M151.58,47.46v-3.39l-1.34,3.39h-0.33l-1.35-3.39v3.39h-0.77v-4.4h1.09l1.2,3.02l1.19-3.02h1.09v4.4
						H151.58z"/>
					<path fill="#989FA1" d="M153.32,46.84l0.44-0.6c0.3,0.32,0.78,0.61,1.39,0.61c0.63,0,0.88-0.31,0.88-0.61
						c0-0.92-2.56-0.35-2.56-1.96c0-0.73,0.63-1.29,1.6-1.29c0.68,0,1.24,0.22,1.64,0.62l-0.44,0.57c-0.35-0.35-0.82-0.51-1.28-0.51
						c-0.45,0-0.74,0.22-0.74,0.55c0,0.82,2.56,0.32,2.56,1.95c0,0.73-0.52,1.36-1.7,1.36C154.31,47.53,153.72,47.24,153.32,46.84z"
						/>
				</g>
			</g>
			<g>
				<path fill="#FFFFFF" d="M218.52,65.38v71.84c0,3.85-3.12,6.97-6.97,6.97H88.45c-3.85,0-6.97-3.12-6.97-6.97V67.04
					c0-1.4,0.42-2.73,1.16-3.85l63.66,39.85c2.27,1.42,5.14,1.42,7.41,0l64.06-40.15C218.25,63.61,218.52,64.47,218.52,65.38z"/>
				<path fill="#989FA1" d="M211.55,144.56H88.45c-4.05,0-7.35-3.29-7.35-7.34V67.04c0-1.45,0.42-2.85,1.22-4.06l0.2-0.3l0.31,0.19
					l63.66,39.85c2.13,1.34,4.88,1.33,7.01,0l64.37-40.34l0.2,0.3c0.54,0.8,0.82,1.73,0.82,2.7v71.84
					C218.9,141.27,215.6,144.56,211.55,144.56z M82.75,63.71c-0.59,1.01-0.9,2.15-0.9,3.33v70.18c0,3.64,2.96,6.59,6.6,6.59h123.1
					c3.64,0,6.6-2.96,6.6-6.59V65.38c0-0.69-0.17-1.37-0.51-1.97l-63.74,39.95c-2.37,1.49-5.43,1.49-7.8,0L82.75,63.71z"/>
			</g>
			<path fill="#ECEFEF" d="M88.45,140.55c-1.84,0-3.34-1.5-3.34-3.33V69.03l59.25,37.09c1.69,1.06,3.64,1.62,5.63,1.62
				c2,0,3.94-0.56,5.63-1.62l59.25-37.14v68.24c0,1.84-1.5,3.33-3.34,3.33H88.45z"/>
			
				<rect x="75.95" y="116.61" transform="matrix(0.6614 -0.75 0.75 0.6614 -51.8907 119.0258)" fill="#989FA1" width="59.89" height="0.75"/>
			
				<rect x="193.53" y="87.04" transform="matrix(0.7505 -0.6608 0.6608 0.7505 -28.9375 157.3223)" fill="#989FA1" width="0.75" height="59.89"/>
		</g>
		<polygon fill="#EEE679" points="189.82,48.72 187.84,46 185.38,48.32 183.94,45.27 181.1,47.09 180.24,43.83 177.11,45.1 
			176.87,41.74 173.56,42.41 173.93,39.06 170.56,39.12 171.54,35.9 168.21,35.34 169.77,32.35 166.6,31.19 168.68,28.53 
			165.78,26.81 168.31,24.58 165.78,22.35 168.68,20.63 166.6,17.97 169.77,16.81 168.21,13.82 171.54,13.26 170.56,10.03 
			173.94,10.1 173.56,6.75 176.87,7.42 177.11,4.06 180.24,5.33 181.1,2.07 183.94,3.89 185.39,0.85 187.84,3.16 189.82,0.44 
			191.81,3.16 194.26,0.85 195.71,3.89 198.54,2.07 199.41,5.33 202.53,4.06 202.78,7.42 206.08,6.75 205.71,10.1 209.08,10.04 
			208.1,13.27 211.43,13.82 209.88,16.81 213.05,17.97 210.96,20.63 213.86,22.35 211.33,24.58 213.86,26.81 210.96,28.53 
			213.05,31.19 209.88,32.35 211.43,35.34 208.1,35.9 209.08,39.13 205.71,39.06 206.08,42.42 202.77,41.74 202.53,45.1 
			199.4,43.83 198.54,47.1 195.71,45.27 194.26,48.32 191.81,46 		"/>
		<g>
			<path fill="#FFFFFF" d="M175.96,25.19l0.93-1.12c0.61,0.72,1.46,1.11,2.48,1.11c1.18,0,1.9-0.72,1.9-1.64
				c0-0.98-0.72-1.64-1.86-1.64c-0.78,0-1.43,0.24-2.02,0.79l-1.15-0.33V17.2h6.06v1.43h-4.44v2.66c0.46-0.43,1.21-0.79,2.09-0.79
				c1.57,0,2.97,1.08,2.97,2.98c0,1.91-1.47,3.13-3.54,3.13C177.8,26.62,176.71,26.06,175.96,25.19z"/>
			<path fill="#FFFFFF" d="M184.76,21.83c0-2.33,1.1-4.77,3.7-4.77c2.59,0,3.69,2.44,3.69,4.77c0,2.32-1.1,4.79-3.69,4.79
				C185.86,26.62,184.76,24.15,184.76,21.83z M190.5,21.83c0-1.78-0.53-3.33-2.04-3.33c-1.51,0-2.05,1.55-2.05,3.33
				c0,1.76,0.54,3.34,2.05,3.34C189.96,25.17,190.5,23.59,190.5,21.83z"/>
			<path fill="#FFFFFF" d="M193.82,19.36c0-1.3,0.93-2.3,2.3-2.3c1.39,0,2.3,1,2.3,2.3c0,1.29-0.92,2.29-2.3,2.29
				C194.74,21.65,193.82,20.65,193.82,19.36z M197.35,19.36c0-0.82-0.51-1.39-1.23-1.39c-0.71,0-1.22,0.57-1.22,1.39
				c0,0.8,0.51,1.36,1.22,1.36C196.84,20.72,197.35,20.17,197.35,19.36z M195.22,26.45l5.91-9.25h0.94l-5.92,9.25H195.22z
				 M198.79,24.33c0-1.3,0.93-2.3,2.3-2.3c1.37,0,2.3,1,2.3,2.3c0,1.29-0.93,2.29-2.3,2.29C199.72,26.62,198.79,25.62,198.79,24.33z
				 M202.33,24.33c0-0.82-0.51-1.39-1.23-1.39s-1.23,0.57-1.23,1.39c0,0.8,0.51,1.36,1.23,1.36S202.33,25.13,202.33,24.33z"/>
		</g>
		<g>
			<path fill="#FFFFFF" d="M182.6,32.3c0-1.47,1.04-2.55,2.52-2.55c1.47,0,2.52,1.08,2.52,2.55c0,1.47-1.05,2.55-2.52,2.55
				C183.64,34.85,182.6,33.77,182.6,32.3z M186.75,32.3c0-1.02-0.64-1.78-1.63-1.78c-1,0-1.63,0.76-1.63,1.78
				c0,1.01,0.64,1.78,1.63,1.78C186.11,34.08,186.75,33.31,186.75,32.3z"/>
			<path fill="#FFFFFF" d="M188.83,34.76v-4.93h3.38v0.76h-2.51v1.27h2.46v0.76h-2.46v2.13H188.83z"/>
			<path fill="#FFFFFF" d="M193.35,34.76v-4.93h3.38v0.76h-2.51v1.27h2.46v0.76h-2.46v2.13H193.35z"/>
		</g>
	</g>
</g>
<g id="Layer_2">
</g>
<g id="Layer_3">
</g>
<g id="Layer_4">
</g>
<g id="Layer_5">
</g>
<g id="Layer_6">
</g>
</svg>
