<svg xmlns="http://www.w3.org/2000/svg" preserveAspectRatio="xMidYMid" width="74" height="46" viewBox="0 0 74 46"><defs><style>.cls-1 { fill: #b6bcbd; fill-rule: evenodd; }</style></defs><path d="M66.335 38.55V5.163C66.335 2.316 64.062 0 61.267 0H19.215c-2.794 0-5.067 2.316-5.067 5.162v3.31h-2.114c-2.794 0-5.067 2.317-5.067 5.163v2.656H5.07c-2.794 0-5.067 2.32-5.067 5.17v19.38C.003 43.684 2.276 46 5.07 46h63.872c2.665 0 4.856-2.107 5.053-4.77l.014-2.68h-7.68zm-50.543 2.29c0 .03-.005.06-.01.09l-.012.112c-.058.72-.418 1.377-.988 1.8-.424.315-.918.482-1.428.482H5.07c-1.344 0-2.438-1.114-2.438-2.484V21.453c0-1.37 1.094-2.484 2.438-2.484h8.284c.345 0 .687.07 1.016.23.864.404 1.422 1.29 1.422 2.25v19.38zm14.64 0c0 .03-.006.06-.01.09l-.013.112c-.11 1.28-1.17 2.282-2.42 2.282h-10.2c.363-.682.58-1.454.62-2.304.003-.06.006-.12.006-.18V21.453c0-1.506-.646-2.935-1.777-3.92-.578-.505-1.275-.875-2.014-1.07-.43-.114-.86-.172-1.276-.172H9.59v-2.65c0-1.37 1.096-2.48 2.44-2.48h15.96c1.343 0 2.437 1.114 2.437 2.484v27.2zM27.99 8.473H16.778v-3.31c0-1.37 1.094-2.485 2.438-2.485h42.052c1.345 0 2.438 1.114 2.438 2.484v33.39H33.06V13.634c0-2.846-2.273-5.162-5.067-5.162zm40.95 34.85H32.415c.347-.636.56-1.337.623-2.094H71.35c-.185 1.18-1.194 2.09-2.408 2.09z" class="cls-1"/></svg>