<?xml version="1.0" encoding="utf-8"?>
<!-- Generator: Adobe Illustrator 22.0.1, SVG Export Plug-In . SVG Version: 6.00 Build 0)  -->
<svg version="1.1" xmlns="http://www.w3.org/2000/svg" xmlns:xlink="http://www.w3.org/1999/xlink" x="0px" y="0px" width="300px"
	 height="141px" viewBox="0 0 300 141" enable-background="new 0 0 300 141" xml:space="preserve">
<g id="Layer_1">
	<g>
		<g>
			<rect x="34.33" y="9.59" fill="#ECEFEF" width="183.44" height="113.44"/>
			<path fill="#989FA1" d="M218.14,123.4H33.95V9.21h184.19V123.4z M34.7,122.65h182.69V9.96H34.7V122.65z"/>
		</g>
		<g>
			<path fill="#FFFFFF" d="M217.77,9.58H34.32v-6.1c0-1.36,1.1-2.46,2.46-2.46h178.53c1.36,0,2.46,1.1,2.46,2.46V9.58z"/>
			<path fill="#989FA1" d="M218.15,9.96H33.95V3.48c0-1.56,1.27-2.84,2.83-2.84h178.53c1.56,0,2.83,1.27,2.83,2.84V9.96z M34.7,9.21
				h182.7V3.48c0-1.15-0.94-2.09-2.08-2.09H36.78c-1.15,0-2.08,0.94-2.08,2.09V9.21z"/>
		</g>
		<g>
			<path fill="#989FA1" d="M83.21,32.76v-6.83h2.33c2.13,0,3.5,1.48,3.5,3.42c0,1.95-1.37,3.41-3.5,3.41H83.21z M88.17,29.35
				c0-1.47-0.93-2.66-2.62-2.66h-1.48V32h1.48C87.21,32,88.17,30.81,88.17,29.35z"/>
			<path fill="#989FA1" d="M90.89,32.76v-6.83h0.85v6.83H90.89z"/>
			<path fill="#989FA1" d="M93.44,31.8l0.51-0.66c0.44,0.51,1.18,0.98,2.14,0.98c1.22,0,1.61-0.66,1.61-1.19
				c0-1.76-4.04-0.78-4.04-3.21c0-1.13,1-1.9,2.35-1.9c1.03,0,1.84,0.36,2.42,0.96l-0.51,0.62c-0.51-0.57-1.23-0.82-1.98-0.82
				c-0.81,0-1.4,0.44-1.4,1.08c0,1.54,4.04,0.66,4.04,3.21c0,0.98-0.68,2.01-2.52,2.01C94.89,32.88,94.01,32.43,93.44,31.8z"/>
			<path fill="#989FA1" d="M100.09,29.35c0-2.1,1.55-3.53,3.51-3.53c1.21,0,2.05,0.57,2.59,1.35l-0.71,0.4
				c-0.39-0.58-1.11-0.99-1.88-0.99c-1.5,0-2.63,1.14-2.63,2.78c0,1.62,1.14,2.77,2.63,2.77c0.78,0,1.5-0.42,1.88-0.99l0.72,0.39
				c-0.57,0.79-1.39,1.36-2.6,1.36C101.64,32.88,100.09,31.45,100.09,29.35z"/>
			<path fill="#989FA1" d="M107.53,29.35c0-2.02,1.37-3.53,3.39-3.53s3.4,1.51,3.4,3.53c0,2.02-1.38,3.53-3.4,3.53
				S107.53,31.37,107.53,29.35z M113.43,29.35c0-1.6-0.99-2.78-2.52-2.78c-1.54,0-2.51,1.18-2.51,2.78c0,1.59,0.97,2.77,2.51,2.77
				C112.44,32.12,113.43,30.94,113.43,29.35z"/>
			<path fill="#989FA1" d="M116.15,30.11v-4.18h0.86v4.16c0,1.25,0.67,2.04,1.93,2.04c1.26,0,1.93-0.79,1.93-2.04v-4.16h0.86v4.17
				c0,1.7-0.94,2.79-2.79,2.79C117.09,32.88,116.15,31.79,116.15,30.11z"/>
			<path fill="#989FA1" d="M128.67,32.76l-3.98-5.45v5.45h-0.85v-6.83h0.87l3.93,5.33v-5.33h0.85v6.83H128.67z"/>
			<path fill="#989FA1" d="M133.29,32.76v-6.07h-2.16v-0.76h5.18v0.76h-2.17v6.07H133.29z"/>
			<path fill="#989FA1" d="M137.51,31.8l0.51-0.66c0.44,0.51,1.18,0.98,2.14,0.98c1.22,0,1.61-0.66,1.61-1.19
				c0-1.76-4.04-0.78-4.04-3.21c0-1.13,1-1.9,2.35-1.9c1.03,0,1.84,0.36,2.42,0.96l-0.51,0.62c-0.51-0.57-1.23-0.82-1.98-0.82
				c-0.81,0-1.4,0.44-1.4,1.08c0,1.54,4.04,0.66,4.04,3.21c0,0.98-0.68,2.01-2.52,2.01C138.96,32.88,138.08,32.43,137.51,31.8z"/>
		</g>
		<rect x="82.44" y="49.47" fill="#FFFFFF" width="125.96" height="64.49"/>
		<g>
			<path fill="#989FA1" d="M91.05,61.77v-1.75h-2.08v1.75h-0.7v-4h0.7v1.63h2.08v-1.63h0.7v4H91.05z"/>
			<path fill="#989FA1" d="M92.9,61.77v-4h0.7v4H92.9z"/>
			<path fill="#989FA1" d="M94.5,61.21l0.4-0.55c0.27,0.29,0.71,0.56,1.27,0.56c0.58,0,0.8-0.28,0.8-0.55
				c0-0.84-2.33-0.32-2.33-1.79c0-0.67,0.58-1.17,1.46-1.17c0.62,0,1.13,0.2,1.49,0.56l-0.4,0.52c-0.32-0.32-0.74-0.46-1.16-0.46
				c-0.41,0-0.67,0.2-0.67,0.5c0,0.75,2.33,0.29,2.33,1.78c0,0.67-0.47,1.24-1.55,1.24C95.39,61.85,94.86,61.58,94.5,61.21z"/>
			<path fill="#989FA1" d="M99.51,61.77v-3.38H98.3v-0.62h3.12v0.62h-1.21v3.38H99.51z"/>
			<path fill="#989FA1" d="M102,59.78c0-1.19,0.85-2.07,2.04-2.07c1.19,0,2.04,0.88,2.04,2.07s-0.85,2.07-2.04,2.07
				C102.84,61.85,102,60.97,102,59.78z M105.37,59.78c0-0.83-0.52-1.45-1.33-1.45c-0.81,0-1.33,0.62-1.33,1.45
				c0,0.82,0.52,1.45,1.33,1.45C104.85,61.22,105.37,60.6,105.37,59.78z"/>
			<path fill="#989FA1" d="M109.35,61.77l-0.88-1.49h-0.7v1.49h-0.7v-4h1.76c0.79,0,1.31,0.51,1.31,1.25c0,0.71-0.47,1.1-0.95,1.17
				l0.98,1.57H109.35z M109.41,59.02c0-0.38-0.29-0.63-0.68-0.63h-0.97v1.27h0.97C109.12,59.66,109.41,59.41,109.41,59.02z"/>
			<path fill="#989FA1" d="M112.17,61.77v-1.66l-1.55-2.34h0.8l1.1,1.71l1.1-1.71h0.8l-1.55,2.34v1.66H112.17z"/>
		</g>
		<g>
			<path fill="#989FA1" d="M180.97,61.77v-4h2.74v0.62h-2.04v1.03h2v0.62h-2v1.12h2.04v0.62H180.97z"/>
			<path fill="#989FA1" d="M187.41,61.77l-1.12-1.57l-1.12,1.57h-0.84l1.49-2.05l-1.4-1.95h0.84l1.03,1.46l1.03-1.46h0.84
				l-1.41,1.94l1.5,2.06H187.41z"/>
			<path fill="#989FA1" d="M189,61.77v-4h1.76c0.84,0,1.3,0.57,1.3,1.25c0,0.68-0.47,1.25-1.3,1.25h-1.06v1.5H189z M191.34,59.03
				c0-0.38-0.28-0.64-0.68-0.64h-0.97v1.26h0.97C191.06,59.66,191.34,59.41,191.34,59.03z"/>
			<path fill="#989FA1" d="M192.95,61.77v-4h0.7v4H192.95z"/>
			<path fill="#989FA1" d="M197.09,61.77l-0.88-1.49h-0.7v1.49h-0.7v-4h1.76c0.79,0,1.31,0.51,1.31,1.25c0,0.71-0.47,1.1-0.95,1.17
				l0.98,1.57H197.09z M197.15,59.02c0-0.38-0.29-0.63-0.68-0.63h-0.97v1.27h0.97C196.87,59.66,197.15,59.41,197.15,59.02z"/>
			<path fill="#989FA1" d="M199.91,61.77v-1.66l-1.55-2.34h0.8l1.1,1.71l1.1-1.71h0.8l-1.55,2.34v1.66H199.91z"/>
		</g>
		<g>
			<rect x="34.42" y="9.59" fill="#FFFFFF" width="39.33" height="113.45"/>
			<path fill="#989FA1" d="M74.13,123.42H34.05V9.22h40.08V123.42z M34.8,122.67h38.58V9.97H34.8V122.67z"/>
		</g>
		<path fill="#989FA1" d="M68.48,25.27H40.34v-9.02h28.14V25.27z M41.09,24.52h26.64V17H41.09V24.52z"/>
		<rect x="88.66" y="68.68" fill="#989FA1" width="30" height="0.75"/>
		<rect x="88.66" y="74.74" fill="#989FA1" width="20.94" height="0.75"/>
		<rect x="88.66" y="80.8" fill="#989FA1" width="25.94" height="0.75"/>
		<rect x="88.66" y="86.86" fill="#989FA1" width="15.19" height="0.75"/>
		<rect x="88.66" y="92.92" fill="#989FA1" width="23.32" height="0.75"/>
		<rect x="88.66" y="98.98" fill="#989FA1" width="30" height="0.75"/>
		<rect x="88.66" y="105.04" fill="#989FA1" width="22.04" height="0.75"/>
		<rect x="191.47" y="68.68" fill="#989FA1" width="9.81" height="0.75"/>
		<rect x="191.47" y="74.74" fill="#989FA1" width="9.81" height="0.75"/>
		<rect x="191.47" y="80.8" fill="#989FA1" width="9.81" height="0.75"/>
		<rect x="191.47" y="86.87" fill="#989FA1" width="9.81" height="0.75"/>
		<rect x="191.47" y="92.93" fill="#989FA1" width="9.81" height="0.75"/>
		<rect x="191.47" y="98.99" fill="#989FA1" width="9.81" height="0.75"/>
		<g>
			<rect x="115.93" y="77.47" fill="#EEE679" width="149.75" height="52.95"/>
			<g>
				<path fill="#FFFFFF" d="M143.75,108.88l-0.67-1.77h-4.19l-0.67,1.77h-1.82l3.59-9.14h2l3.59,9.14H143.75z M140.98,101.35
					l-1.64,4.36h3.29L140.98,101.35z"/>
				<path fill="#FFFFFF" d="M147.24,108.88v-9.14h3.4c2.86,0,4.78,1.89,4.78,4.56c0,2.7-1.92,4.58-4.77,4.58H147.24z M153.78,104.3
					c0-1.75-1.1-3.15-3.12-3.15h-1.81v6.32h1.79C152.63,107.47,153.78,106.04,153.78,104.3z"/>
				<path fill="#FFFFFF" d="M157.66,108.88v-9.14h3.4c2.86,0,4.78,1.89,4.78,4.56c0,2.7-1.92,4.58-4.77,4.58H157.66z M164.19,104.3
					c0-1.75-1.1-3.15-3.12-3.15h-1.81v6.32h1.79C163.04,107.47,164.19,106.04,164.19,104.3z"/>
				<path fill="#FFFFFF" d="M172.29,108.88v-9.14h3.4c2.86,0,4.78,1.89,4.78,4.56c0,2.7-1.92,4.58-4.77,4.58H172.29z M178.82,104.3
					c0-1.75-1.1-3.15-3.12-3.15h-1.81v6.32h1.79C177.67,107.47,178.82,106.04,178.82,104.3z"/>
				<path fill="#FFFFFF" d="M182.7,108.88v-9.14h1.6v9.14H182.7z"/>
				<path fill="#FFFFFF" d="M186.34,107.59l0.9-1.25c0.62,0.67,1.62,1.27,2.89,1.27c1.32,0,1.82-0.64,1.82-1.26
					c0-1.92-5.32-0.73-5.32-4.08c0-1.52,1.32-2.69,3.33-2.69c1.41,0,2.58,0.47,3.41,1.29l-0.9,1.19c-0.73-0.73-1.7-1.06-2.66-1.06
					c-0.93,0-1.54,0.47-1.54,1.14c0,1.71,5.32,0.66,5.32,4.06c0,1.52-1.08,2.84-3.54,2.84
					C188.39,109.05,187.17,108.44,186.34,107.59z"/>
				<path fill="#FFFFFF" d="M195.36,104.32c0-2.82,2.1-4.73,4.8-4.73c1.84,0,2.99,0.95,3.66,2.04l-1.36,0.71
					c-0.44-0.77-1.33-1.33-2.3-1.33c-1.81,0-3.15,1.37-3.15,3.3c0,1.9,1.34,3.3,3.15,3.3c0.97,0,1.86-0.58,2.3-1.33l1.37,0.69
					c-0.7,1.1-1.84,2.07-3.67,2.07C197.46,109.05,195.36,107.13,195.36,104.32z"/>
				<path fill="#FFFFFF" d="M205.39,104.32c0-2.73,1.93-4.73,4.67-4.73c2.73,0,4.67,2,4.67,4.73c0,2.73-1.95,4.73-4.67,4.73
					C207.32,109.05,205.39,107.05,205.39,104.32z M213.09,104.32c0-1.89-1.19-3.3-3.03-3.3c-1.85,0-3.03,1.41-3.03,3.3
					c0,1.88,1.18,3.3,3.03,3.3C211.9,107.62,213.09,106.2,213.09,104.32z"/>
				<path fill="#FFFFFF" d="M216.95,105.26v-5.52h1.63v5.48c0,1.45,0.81,2.4,2.33,2.4c1.52,0,2.33-0.95,2.33-2.4v-5.48h1.63v5.52
					c0,2.26-1.3,3.78-3.96,3.78C218.27,109.05,216.95,107.52,216.95,105.26z"/>
				<path fill="#FFFFFF" d="M233.87,108.88l-4.77-6.54v6.54h-1.6v-9.14h1.64l4.67,6.33v-6.33h1.6v9.14H233.87z"/>
				<path fill="#FFFFFF" d="M240.23,108.88v-7.73h-2.77v-1.41h7.14v1.41h-2.77v7.73H240.23z"/>
			</g>
			<g>
				<polygon fill="#FFFFFF" points="260.8,129.38 256.87,131.43 260.24,137.87 256.21,139.98 252.84,133.53 248.92,135.58 
					249.48,122.19 				"/>
				<path fill="#989FA1" d="M256.05,140.48l-3.37-6.44l-4.17,2.18l0.62-14.69l12.41,7.88l-4.17,2.18l3.37,6.44L256.05,140.48z
					 M253,133.03l3.37,6.44l3.36-1.76l-3.37-6.44l3.68-1.92l-10.22-6.48l-0.51,12.09L253,133.03z"/>
			</g>
		</g>
		<path fill="#989FA1" d="M211.97,6.78c-0.75,0-1.37-0.61-1.37-1.37s0.61-1.37,1.37-1.37s1.37,0.61,1.37,1.37
			S212.73,6.78,211.97,6.78z M211.97,4.79c-0.34,0-0.62,0.28-0.62,0.62s0.28,0.62,0.62,0.62s0.62-0.28,0.62-0.62
			S212.31,4.79,211.97,4.79z"/>
		<path fill="#989FA1" d="M207.47,6.78c-0.75,0-1.37-0.61-1.37-1.37s0.61-1.37,1.37-1.37s1.37,0.61,1.37,1.37
			S208.22,6.78,207.47,6.78z M207.47,4.79c-0.34,0-0.62,0.28-0.62,0.62s0.28,0.62,0.62,0.62c0.34,0,0.62-0.28,0.62-0.62
			S207.81,4.79,207.47,4.79z"/>
		<path fill="#989FA1" d="M202.96,6.78c-0.75,0-1.37-0.61-1.37-1.37s0.61-1.37,1.37-1.37s1.37,0.61,1.37,1.37
			S203.71,6.78,202.96,6.78z M202.96,4.79c-0.34,0-0.62,0.28-0.62,0.62s0.28,0.62,0.62,0.62s0.62-0.28,0.62-0.62
			S203.3,4.79,202.96,4.79z"/>
	</g>
</g>
<g id="Layer_2">
</g>
<g id="Layer_3">
</g>
<g id="Layer_4">
</g>
<g id="Layer_5">
</g>
<g id="Layer_6">
</g>
</svg>
