<?xml version="1.0" encoding="utf-8"?>
<!-- Generator: Adobe Illustrator 22.0.1, SVG Export Plug-In . SVG Version: 6.00 Build 0)  -->
<svg version="1.1" xmlns="http://www.w3.org/2000/svg" xmlns:xlink="http://www.w3.org/1999/xlink" x="0px" y="0px" width="300px"
	 height="147px" viewBox="0 0 300 147" enable-background="new 0 0 300 147" xml:space="preserve">
<g id="Layer_1">
	<g>
		<g>
			<rect x="47.62" y="9.99" fill="#ECEFEF" width="183.44" height="113.44"/>
			<path fill="#989FA1" d="M231.43,123.8H47.24V9.62h184.19V123.8z M47.99,123.05h182.69V10.37H47.99V123.05z"/>
		</g>
		<g>
			<path fill="#FFFFFF" d="M231.06,9.99H47.61v-6.1c0-1.36,1.1-2.46,2.46-2.46H228.6c1.36,0,2.46,1.1,2.46,2.46V9.99z"/>
			<path fill="#989FA1" d="M231.44,10.36H47.24V3.89c0-1.56,1.27-2.83,2.83-2.83H228.6c1.56,0,2.83,1.27,2.83,2.83V10.36z
				 M47.99,9.61h182.7V3.89c0-1.15-0.94-2.08-2.08-2.08H50.07c-1.15,0-2.08,0.94-2.08,2.08V9.61z"/>
		</g>
		<g>
			<path fill="#989FA1" d="M96.5,33.16v-6.83h2.74c1.37,0,2.14,0.94,2.14,2.06s-0.78,2.06-2.14,2.06h-1.89v2.71H96.5z M100.51,28.39
				c0-0.77-0.55-1.3-1.36-1.3h-1.79v2.6h1.79C99.95,29.69,100.51,29.16,100.51,28.39z"/>
			<path fill="#989FA1" d="M107.11,33.16l-0.6-1.53h-3.4l-0.6,1.53h-0.97l2.75-6.83h1.05l2.74,6.83H107.11z M104.81,27.21
				l-1.44,3.69h2.9L104.81,27.21z"/>
			<path fill="#989FA1" d="M110.83,33.16v-2.89l-2.69-3.94h0.99l2.12,3.17l2.12-3.17h0.99l-2.68,3.94v2.89H110.83z"/>
			<path fill="#989FA1" d="M121.6,33.16v-5.74l-2.31,5.74h-0.35l-2.32-5.74v5.74h-0.85v-6.83h1.22l2.13,5.26l2.12-5.26h1.22v6.83
				H121.6z"/>
			<path fill="#989FA1" d="M124.56,33.16v-6.83h4.47v0.76h-3.62v2.2h3.55v0.76h-3.55v2.35h3.62v0.76H124.56z"/>
			<path fill="#989FA1" d="M135.74,33.16l-3.98-5.45v5.45h-0.85v-6.83h0.87l3.93,5.33v-5.33h0.85v6.83H135.74z"/>
			<path fill="#989FA1" d="M140.36,33.16v-6.07h-2.16v-0.76h5.18v0.76h-2.17v6.07H140.36z"/>
			<path fill="#989FA1" d="M144.57,32.2l0.51-0.66c0.44,0.51,1.18,0.98,2.14,0.98c1.22,0,1.61-0.66,1.61-1.19
				c0-1.76-4.04-0.78-4.04-3.21c0-1.13,1-1.9,2.35-1.9c1.03,0,1.84,0.36,2.42,0.96l-0.51,0.62c-0.51-0.57-1.23-0.82-1.98-0.82
				c-0.81,0-1.4,0.44-1.4,1.08c0,1.54,4.04,0.66,4.04,3.21c0,0.98-0.68,2.01-2.52,2.01C146.02,33.29,145.14,32.84,144.57,32.2z"/>
		</g>
		<rect x="95.73" y="49.87" fill="#FFFFFF" width="125.96" height="64.49"/>
		<g>
			<path fill="#989FA1" d="M104.34,62.18l-2.09-2.86v2.86h-0.7v-4h0.72l2.04,2.77v-2.77h0.7v4H104.34z"/>
			<path fill="#989FA1" d="M108.98,62.18l-0.29-0.77h-1.83l-0.29,0.77h-0.8l1.57-4h0.88l1.57,4H108.98z M107.77,58.88l-0.72,1.91
				h1.44L107.77,58.88z"/>
			<path fill="#989FA1" d="M113.96,62.18v-3.09l-1.22,3.09h-0.3l-1.23-3.09v3.09h-0.7v-4h0.99l1.09,2.75l1.08-2.75h0.99v4H113.96z"
				/>
			<path fill="#989FA1" d="M115.82,62.18v-4h2.74v0.62h-2.04v1.03h2v0.62h-2v1.12h2.04v0.62H115.82z"/>
		</g>
		<g>
			<path fill="#989FA1" d="M191.45,62.18l-0.29-0.77h-1.83l-0.29,0.77h-0.8l1.57-4h0.88l1.57,4H191.45z M190.24,58.88l-0.72,1.91
				h1.44L190.24,58.88z"/>
			<path fill="#989FA1" d="M196.44,62.18v-3.09l-1.22,3.09h-0.3l-1.23-3.09v3.09h-0.7v-4h0.99l1.09,2.75l1.08-2.75h0.99v4H196.44z"
				/>
			<path fill="#989FA1" d="M198.12,60.18c0-1.19,0.85-2.07,2.04-2.07c1.19,0,2.04,0.88,2.04,2.07s-0.85,2.07-2.04,2.07
				C198.97,62.25,198.12,61.38,198.12,60.18z M201.49,60.18c0-0.83-0.52-1.45-1.33-1.45c-0.81,0-1.33,0.62-1.33,1.45
				c0,0.82,0.52,1.45,1.33,1.45C200.97,61.63,201.49,61,201.49,60.18z"/>
			<path fill="#989FA1" d="M203.19,60.6v-2.42h0.71v2.4c0,0.64,0.35,1.05,1.02,1.05c0.67,0,1.02-0.41,1.02-1.05v-2.4h0.71v2.42
				c0,0.99-0.57,1.66-1.73,1.66C203.76,62.25,203.19,61.58,203.19,60.6z"/>
			<path fill="#989FA1" d="M210.59,62.18l-2.09-2.86v2.86h-0.7v-4h0.72l2.04,2.77v-2.77h0.7v4H210.59z"/>
			<path fill="#989FA1" d="M213.38,62.18V58.8h-1.21v-0.62h3.12v0.62h-1.21v3.38H213.38z"/>
		</g>
		<g>
			<rect x="47.71" y="10" fill="#FFFFFF" width="39.33" height="113.45"/>
			<path fill="#989FA1" d="M87.42,123.83H47.34V9.62h40.08V123.83z M48.09,123.08h38.58V10.37H48.09V123.08z"/>
		</g>
		<path fill="#989FA1" d="M81.77,25.67H53.63v-9.02h28.15V25.67z M54.38,24.92h26.65v-7.52H54.38V24.92z"/>
		<rect x="101.95" y="69.08" fill="#989FA1" width="30" height="0.75"/>
		<rect x="101.95" y="75.14" fill="#989FA1" width="20.94" height="0.75"/>
		<rect x="101.95" y="81.2" fill="#989FA1" width="25.94" height="0.75"/>
		<rect x="101.95" y="87.27" fill="#989FA1" width="15.19" height="0.75"/>
		<rect x="101.95" y="93.33" fill="#989FA1" width="23.32" height="0.75"/>
		<rect x="101.95" y="99.39" fill="#989FA1" width="30" height="0.75"/>
		<rect x="101.95" y="105.45" fill="#989FA1" width="22.04" height="0.75"/>
		<rect x="204.76" y="69.08" fill="#989FA1" width="9.81" height="0.75"/>
		<rect x="204.76" y="75.14" fill="#989FA1" width="9.81" height="0.75"/>
		<rect x="204.76" y="81.21" fill="#989FA1" width="9.81" height="0.75"/>
		<rect x="204.76" y="87.27" fill="#989FA1" width="9.81" height="0.75"/>
		<rect x="204.76" y="93.33" fill="#989FA1" width="9.81" height="0.75"/>
		<rect x="204.76" y="99.39" fill="#989FA1" width="9.81" height="0.75"/>
		<g>
			<g>
				
					<rect x="232.54" y="111.39" transform="matrix(0.7071 -0.7071 0.7071 0.7071 -22.4567 205.278)" fill="#FFFFFF" width="8.05" height="36.71"/>
				<path fill="#989FA1" d="M246.7,146.1l-0.27-0.26l-26.22-26.22l6.22-6.22l0.27,0.26l26.22,26.22L246.7,146.1z M221.27,119.62
					l25.43,25.43l5.16-5.16l-25.43-25.43L221.27,119.62z"/>
			</g>
			
				<rect x="220.1" y="127.62" transform="matrix(0.7071 0.7071 -0.7071 0.7071 161.0329 -129.2742)" fill="#ECEFEF" width="32.92" height="4.26"/>
			<g>
				<circle fill="#FFFFFF" cx="212.67" cy="105.72" r="25.58"/>
				<path fill="#989FA1" d="M212.67,131.66c-6.65,0-13.29-2.53-18.35-7.59c-10.12-10.12-10.12-26.58,0-36.7
					c10.12-10.12,26.58-10.12,36.7,0c10.12,10.12,10.12,26.58,0,36.7C225.96,129.13,219.32,131.66,212.67,131.66z M212.67,80.53
					c-6.45,0-12.91,2.46-17.82,7.37c-9.83,9.83-9.83,25.81,0,35.64c9.82,9.83,25.81,9.83,35.64,0c9.83-9.83,9.83-25.81,0-35.64
					C225.58,82.98,219.12,80.53,212.67,80.53z"/>
			</g>
			<circle fill="#EEE679" cx="212.67" cy="105.72" r="21.49"/>
		</g>
		<g>
			<g>
				<path fill="#FFFFFF" d="M213.64,114.55v2.32h-1.57v-2.29c-2.63-0.15-4.61-1.23-5.89-2.7l1.29-1.62c1,1.13,2.57,2.19,4.61,2.39
					v-6.25c-2.63-0.7-5.35-1.6-5.35-4.76c0-2.68,2.26-4.56,5.35-4.76v-2.34h1.57v2.39c2.14,0.18,3.83,1.03,5.07,2.34l-1.29,1.57
					c-1-1.13-2.34-1.75-3.78-1.96v5.58c2.65,0.75,5.46,1.72,5.46,5.1C219.1,111.88,217.63,114.27,213.64,114.55z M212.07,104.05
					V98.8c-1.85,0.1-3.14,1.18-3.14,2.7C208.93,102.97,210.35,103.56,212.07,104.05z M216.91,109.74c0-1.75-1.49-2.39-3.27-2.93
					v5.82C216.11,112.42,216.91,110.92,216.91,109.74z"/>
			</g>
		</g>
		<path fill="#989FA1" d="M225.89,7.21c-0.75,0-1.37-0.61-1.37-1.37s0.61-1.37,1.37-1.37s1.37,0.61,1.37,1.37
			S226.64,7.21,225.89,7.21z M225.89,5.22c-0.34,0-0.62,0.28-0.62,0.62s0.28,0.62,0.62,0.62s0.62-0.28,0.62-0.62
			S226.23,5.22,225.89,5.22z"/>
		<path fill="#989FA1" d="M221.38,7.21c-0.75,0-1.37-0.61-1.37-1.37s0.61-1.37,1.37-1.37s1.37,0.61,1.37,1.37
			S222.14,7.21,221.38,7.21z M221.38,5.22c-0.34,0-0.62,0.28-0.62,0.62s0.28,0.62,0.62,0.62S222,6.18,222,5.84
			S221.72,5.22,221.38,5.22z"/>
		<path fill="#989FA1" d="M216.87,7.21c-0.75,0-1.37-0.61-1.37-1.37s0.61-1.37,1.37-1.37s1.37,0.61,1.37,1.37
			S217.63,7.21,216.87,7.21z M216.87,5.22c-0.34,0-0.62,0.28-0.62,0.62s0.28,0.62,0.62,0.62s0.62-0.28,0.62-0.62
			S217.22,5.22,216.87,5.22z"/>
	</g>
</g>
<g id="Layer_2">
</g>
<g id="Layer_3">
</g>
<g id="Layer_4">
</g>
<g id="Layer_5">
</g>
<g id="Layer_6">
</g>
</svg>
