<?xml version="1.0" encoding="utf-8"?>
<!-- Generator: Adobe Illustrator 22.0.1, SVG Export Plug-In . SVG Version: 6.00 Build 0)  -->
<svg version="1.1" xmlns="http://www.w3.org/2000/svg" xmlns:xlink="http://www.w3.org/1999/xlink" x="0px" y="0px" width="300px"
	 height="124.33px" viewBox="0 0 300 124.33" enable-background="new 0 0 300 124.33" xml:space="preserve">
<g id="Layer_1">
	<g>
		<g>
			<g>
				<path fill="#FFFFFF" d="M72.29,30.58v75.22c0,2.74-2.24,4.98-4.98,4.98H7.4c-2.74,0-4.98-2.24-4.98-4.98V18.71
					c0-2.74,2.24-4.98,4.98-4.98h47.45L72.29,30.58z"/>
				<path fill="#989FA1" d="M67.31,111.15H7.4c-2.95,0-5.36-2.4-5.36-5.36V18.71c0-2.95,2.4-5.36,5.36-5.36H55l17.66,17.07v75.38
					C72.66,108.75,70.26,111.15,67.31,111.15z M7.4,14.1c-2.54,0-4.61,2.07-4.61,4.61v87.09c0,2.54,2.07,4.61,4.61,4.61h59.91
					c2.54,0,4.61-2.07,4.61-4.61V30.74L54.7,14.1H7.4z"/>
			</g>
			<g>
				<polygon fill="#FFFFFF" points="72.49,30.48 55.05,30.48 55.05,13.62 				"/>
				<path fill="#989FA1" d="M55.8,15.39l14.84,14.34H55.8V15.39 M55.05,13.62v16.86h17.44L55.05,13.62L55.05,13.62z"/>
			</g>
			<rect x="13.32" y="48.83" fill="#989FA1" width="48.22" height="0.75"/>
			<rect x="13.32" y="59.28" fill="#989FA1" width="48.22" height="0.75"/>
			<rect x="13.32" y="69.73" fill="#989FA1" width="48.22" height="0.75"/>
			<rect x="13.32" y="80.18" fill="#989FA1" width="48.22" height="0.75"/>
			<rect x="13.32" y="90.64" fill="#989FA1" width="26.94" height="0.75"/>
			<g>
				<path fill="#989FA1" d="M14.29,30.48v-8.3h3.34c1.67,0,2.6,1.15,2.6,2.5s-0.95,2.5-2.6,2.5h-2.3v3.3H14.29z M19.16,24.67
					c0-0.93-0.67-1.58-1.66-1.58h-2.18v3.16h2.18C18.49,26.26,19.16,25.61,19.16,24.67z"/>
				<path fill="#989FA1" d="M22.22,30.48v-8.3h2.84c2.59,0,4.26,1.81,4.26,4.16c0,2.37-1.67,4.15-4.26,4.15H22.22z M28.25,26.33
					c0-1.79-1.13-3.24-3.19-3.24h-1.81v6.46h1.81C27.08,29.56,28.25,28.11,28.25,26.33z"/>
				<path fill="#989FA1" d="M31.56,30.48v-8.3H37v0.92H32.6v2.68h4.32v0.92H32.6v3.79H31.56z"/>
			</g>
		</g>
		<g>
			<g>
				<g>
					<g>
						<rect x="114.14" y="9.73" fill="#ECEFEF" width="183.44" height="113.44"/>
						<path fill="#989FA1" d="M297.95,123.54H113.76V9.36h184.19V123.54z M114.51,122.79H297.2V10.11H114.51V122.79z"/>
					</g>
				</g>
				<g>
					<path fill="#FFFFFF" d="M297.58,9.73H114.13v-6.1c0-1.36,1.1-2.46,2.46-2.46h178.53c1.36,0,2.46,1.1,2.46,2.46V9.73z"/>
					<path fill="#989FA1" d="M297.96,10.1h-184.2V3.63c0-1.56,1.27-2.84,2.84-2.84h178.53c1.56,0,2.84,1.27,2.84,2.84V10.1z
						 M114.51,9.35h182.7V3.63c0-1.15-0.94-2.09-2.09-2.09H116.59c-1.15,0-2.09,0.94-2.09,2.09V9.35z"/>
				</g>
				<path fill="#989FA1" d="M291.8,6.82c-0.75,0-1.37-0.61-1.37-1.37s0.61-1.37,1.37-1.37s1.37,0.61,1.37,1.37
					S292.56,6.82,291.8,6.82z M291.8,4.83c-0.34,0-0.62,0.28-0.62,0.62s0.28,0.62,0.62,0.62s0.62-0.28,0.62-0.62
					S292.15,4.83,291.8,4.83z"/>
				<path fill="#989FA1" d="M287.3,6.82c-0.75,0-1.37-0.61-1.37-1.37s0.61-1.37,1.37-1.37s1.37,0.61,1.37,1.37
					S288.05,6.82,287.3,6.82z M287.3,4.83c-0.34,0-0.62,0.28-0.62,0.62s0.28,0.62,0.62,0.62s0.62-0.28,0.62-0.62
					S287.64,4.83,287.3,4.83z"/>
				<path fill="#989FA1" d="M282.79,6.82c-0.75,0-1.37-0.61-1.37-1.37s0.61-1.37,1.37-1.37s1.37,0.61,1.37,1.37
					S283.55,6.82,282.79,6.82z M282.79,4.83c-0.34,0-0.62,0.28-0.62,0.62s0.28,0.62,0.62,0.62s0.62-0.28,0.62-0.62
					S283.13,4.83,282.79,4.83z"/>
				<g>
					<path fill="#FFFFFF" d="M285.59,123.15H126.12V36.72c0-0.67,0.55-1.22,1.22-1.22h157.02c0.67,0,1.22,0.55,1.22,1.22V123.15z"/>
					<path fill="#989FA1" d="M285.97,123.53H125.75V36.72c0-0.88,0.72-1.6,1.6-1.6h157.02c0.88,0,1.6,0.72,1.6,1.6V123.53z
						 M126.5,122.78h158.72V36.72c0-0.47-0.38-0.85-0.85-0.85H127.35c-0.47,0-0.85,0.38-0.85,0.85V122.78z"/>
				</g>
				<g>
					<path fill="#FFFFFF" d="M151.18,28.12H127.2c-0.71,0-1.28-0.57-1.28-1.28v-6.65c0-0.71,0.57-1.28,1.28-1.28h23.98
						c0.71,0,1.28,0.57,1.28,1.28v6.65C152.46,27.55,151.89,28.12,151.18,28.12z"/>
					<path fill="#989FA1" d="M151.18,28.5H127.2c-0.91,0-1.66-0.74-1.66-1.66v-6.65c0-0.91,0.74-1.66,1.66-1.66h23.98
						c0.91,0,1.66,0.74,1.66,1.66v6.65C152.84,27.75,152.09,28.5,151.18,28.5z M127.2,19.28c-0.5,0-0.91,0.41-0.91,0.91v6.65
						c0,0.5,0.41,0.91,0.91,0.91h23.98c0.5,0,0.91-0.41,0.91-0.91v-6.65c0-0.5-0.41-0.91-0.91-0.91H127.2z"/>
				</g>
				<rect x="208.38" y="24.42" fill="#989FA1" width="16.22" height="0.75"/>
				<rect x="228.53" y="24.42" fill="#989FA1" width="16.22" height="0.75"/>
				<rect x="248.68" y="24.42" fill="#989FA1" width="16.22" height="0.75"/>
				<rect x="268.82" y="24.42" fill="#989FA1" width="16.22" height="0.75"/>
				<path fill="#EEE679" d="M229.57,62.8l-20.47-11.82c-1.79-1.03-4.71-1.03-6.5,0L182.14,62.8c-1.79,1.03-3.25,3.57-3.25,5.63
					v23.63c0,2.06,1.46,4.6,3.25,5.63l20.46,11.81c1.79,1.03,4.71,1.03,6.5,0l20.47-11.81c1.79-1.03,3.25-3.56,3.25-5.63V68.43
					C232.82,66.36,231.36,63.83,229.57,62.8z M224.05,75.52h-2.12v-3.61c0-2.76-2.12-3.61-6.22-3.61h-0.19
					c-9.83,0-8.95-3.68-9.24-5.02h-0.14c-0.28,1.34,0.66,5.02-9.17,5.02h-0.26c-4.1,0-6.22,0.85-6.22,3.61v2.78l33.54,9.7v0.54h0.01
					v3.46c0,3.96-1.91,6.15-8.34,6.15h-0.33c-5.02,0-8.11,1.06-8.11,5.02h-2.12c0-3.96-3.09-5.02-8.11-5.02h-0.33
					c-6.43,0-8.34-2.19-8.34-6.15v-3.46h2.12v3.61c0,2.76,2.12,3.61,6.22,3.61h0.19c9.83,0,8.95,3.68,9.24,5.02h0.14
					c0.28-1.34-0.66-5.02,9.17-5.02h0.26c4.1,0,6.22-0.85,6.22-3.61v-2.07l-33.55-9.7v-1.25h0v-3.46c0-3.96,1.91-6.15,8.34-6.15
					h0.33c5.02,0,8.11-1.06,8.11-5.02h2.12c0,3.96,3.09,5.02,8.11,5.02h0.33c6.43,0,8.34,2.19,8.34,6.15V75.52z"/>
			</g>
			<rect x="113.67" y="47.16" fill="#ECEFEF" width="1.19" height="27.91"/>
			<rect x="125.78" y="47.15" fill="#FFFFFF" width="4.41" height="27.92"/>
			<rect x="125.01" y="47.15" fill="#ECEFEF" width="1.57" height="27.92"/>
			<g>
				<rect x="87.64" y="60.62" fill="#989FA1" width="56.31" height="0.75"/>
				<polygon fill="#989FA1" points="140.03,65.78 139.5,65.25 143.77,61.05 139.58,56.78 140.11,56.25 144.84,61.06 				"/>
			</g>
		</g>
	</g>
</g>
<g id="Layer_2">
</g>
<g id="Layer_3">
</g>
<g id="Layer_4">
</g>
<g id="Layer_5">
</g>
<g id="Layer_6">
</g>
</svg>
