<?xml version="1.0" encoding="utf-8"?>
<!-- Generator: Adobe Illustrator 22.0.1, SVG Export Plug-In . SVG Version: 6.00 Build 0)  -->
<svg version="1.1" xmlns="http://www.w3.org/2000/svg" xmlns:xlink="http://www.w3.org/1999/xlink" x="0px" y="0px" width="300px"
	 height="142.17px" viewBox="0 0 300 142.17" enable-background="new 0 0 300 142.17" xml:space="preserve">
<g id="Layer_1">
	<g>
		<path fill="#989FA1" d="M226.93,48.17c-0.51-0.77-1.23-1.36-2.07-1.71l-22.08-9.26l0.33-0.79l22.08,9.26
			c1,0.42,1.84,1.12,2.45,2.02L226.93,48.17z"/>
		<path fill="#989FA1" d="M73.52,48.51l-0.71-0.47c0.92-1.38,2.21-2.46,3.75-3.1l20.33-8.53l0.33,0.79l-20.33,8.53
			C75.51,46.31,74.35,47.27,73.52,48.51z"/>
		<g>
			<g>
				<path fill="#FFFFFF" d="M198.4,128.9l-96.1,0c-2.71,0-4.91-2.2-4.91-4.91L97.39,6.42c0-2.71,2.2-4.91,4.91-4.91l96.1,0
					c2.71,0,4.91,2.2,4.91,4.91l0.01,117.58C203.31,126.7,201.11,128.9,198.4,128.9z"/>
				<path fill="#989FA1" d="M102.3,129.33c-2.94,0-5.34-2.39-5.34-5.34L96.96,6.42c0-2.94,2.39-5.34,5.34-5.34l96.1,0
					c2.94,0,5.34,2.39,5.34,5.34l0,117.57c0,1.43-0.55,2.77-1.56,3.77c-1.01,1.01-2.35,1.56-3.77,1.56L102.3,129.33z M198.4,1.94
					l-96.1,0c-2.47,0-4.48,2.01-4.48,4.48L97.82,124c0,2.47,2.01,4.48,4.48,4.48l96.1,0c1.2,0,2.32-0.47,3.17-1.31
					c0.85-0.85,1.31-1.97,1.31-3.17l0-117.57C202.88,3.95,200.87,1.94,198.4,1.94z"/>
			</g>
			<rect x="108.58" y="49.42" fill="#989FA1" width="57.74" height="0.86"/>
			<rect x="108.58" y="59.44" fill="#989FA1" width="57.74" height="0.86"/>
			<rect x="108.58" y="39.41" fill="#989FA1" width="57.74" height="0.86"/>
			<rect x="108.58" y="69.46" fill="#989FA1" width="43.06" height="0.86"/>
			<g>
				<path fill="#989FA1" d="M108.43,18.81c0-1.5,1.06-2.59,2.56-2.59c1.5,0,2.56,1.1,2.56,2.59c0,1.5-1.07,2.59-2.56,2.59
					C109.49,21.41,108.43,20.31,108.43,18.81z M112.66,18.81c0-1.04-0.65-1.81-1.66-1.81c-1.01,0-1.66,0.78-1.66,1.81
					c0,1.03,0.65,1.81,1.66,1.81C112,20.63,112.66,19.84,112.66,18.81z"/>
				<path fill="#989FA1" d="M117.63,21.32l-1.1-1.87h-0.88v1.87h-0.88V16.3h2.2c0.99,0,1.65,0.64,1.65,1.57
					c0,0.89-0.59,1.38-1.2,1.47l1.23,1.97H117.63z M117.72,17.87c0-0.48-0.36-0.79-0.86-0.79h-1.21v1.59h1.21
					C117.36,18.67,117.72,18.36,117.72,17.87z"/>
				<path fill="#989FA1" d="M119.87,21.32V16.3h1.86c1.57,0,2.62,1.04,2.62,2.5c0,1.48-1.05,2.51-2.62,2.51H119.87z M123.46,18.81
					c0-0.96-0.6-1.73-1.71-1.73h-0.99v3.47h0.98C122.82,20.54,123.46,19.76,123.46,18.81z"/>
				<path fill="#989FA1" d="M125.58,21.32V16.3h3.44v0.77h-2.56v1.29h2.5v0.77h-2.5v1.4h2.56v0.77H125.58z"/>
				<path fill="#989FA1" d="M133.15,21.32l-1.1-1.87h-0.88v1.87h-0.88V16.3h2.2c0.99,0,1.65,0.64,1.65,1.57
					c0,0.89-0.59,1.38-1.2,1.47l1.23,1.97H133.15z M133.23,17.87c0-0.48-0.36-0.79-0.86-0.79h-1.21v1.59h1.21
					C132.87,18.67,133.23,18.36,133.23,17.87z"/>
				<path fill="#989FA1" d="M137.37,20.61l0.5-0.68c0.34,0.37,0.89,0.7,1.59,0.7c0.72,0,1-0.35,1-0.69c0-1.05-2.92-0.4-2.92-2.24
					c0-0.84,0.72-1.47,1.83-1.47c0.77,0,1.41,0.26,1.87,0.71l-0.5,0.65c-0.4-0.4-0.93-0.58-1.46-0.58c-0.51,0-0.84,0.26-0.84,0.62
					c0,0.94,2.92,0.36,2.92,2.23c0,0.83-0.59,1.56-1.94,1.56C138.5,21.41,137.83,21.08,137.37,20.61z"/>
				<path fill="#989FA1" d="M143.66,21.32v-4.24h-1.52V16.3h3.92v0.77h-1.52v4.24H143.66z"/>
				<path fill="#989FA1" d="M150.2,21.32l-0.37-0.97h-2.3l-0.37,0.97h-1l1.97-5.01h1.1l1.97,5.01H150.2z M148.68,17.18l-0.9,2.39
					h1.8L148.68,17.18z"/>
				<path fill="#989FA1" d="M152.82,21.32v-4.24h-1.52V16.3h3.92v0.77h-1.52v4.24H152.82z"/>
				<path fill="#989FA1" d="M156.33,19.33V16.3h0.9v3.01c0,0.8,0.44,1.32,1.28,1.32s1.28-0.52,1.28-1.32V16.3h0.9v3.03
					c0,1.24-0.72,2.08-2.17,2.08C157.05,21.41,156.33,20.57,156.33,19.33z"/>
				<path fill="#989FA1" d="M161.79,20.61l0.5-0.68c0.34,0.37,0.89,0.7,1.59,0.7c0.72,0,1-0.35,1-0.69c0-1.05-2.92-0.4-2.92-2.24
					c0-0.84,0.72-1.47,1.83-1.47c0.77,0,1.41,0.26,1.87,0.71l-0.5,0.65c-0.4-0.4-0.93-0.58-1.46-0.58c-0.51,0-0.84,0.26-0.84,0.62
					c0,0.94,2.92,0.36,2.92,2.23c0,0.83-0.59,1.56-1.94,1.56C162.91,21.41,162.24,21.08,161.79,20.61z"/>
				<path fill="#989FA1" d="M108.33,29.62l0.5-0.68c0.34,0.37,0.89,0.7,1.59,0.7c0.72,0,1-0.35,1-0.69c0-1.05-2.92-0.4-2.92-2.24
					c0-0.83,0.72-1.47,1.83-1.47c0.77,0,1.41,0.26,1.87,0.71l-0.5,0.65c-0.4-0.4-0.93-0.58-1.46-0.58c-0.51,0-0.84,0.26-0.84,0.62
					c0,0.94,2.92,0.36,2.92,2.23c0,0.83-0.59,1.56-1.94,1.56C109.45,30.42,108.78,30.09,108.33,29.62z"/>
				<path fill="#989FA1" d="M116.97,30.33v-2.2h-2.61v2.2h-0.88v-5.01h0.88v2.04h2.61v-2.04h0.88v5.01H116.97z"/>
				<path fill="#989FA1" d="M119.29,30.33v-5.01h0.88v5.01H119.29z"/>
				<path fill="#989FA1" d="M121.61,30.33v-5.01h2.21c1.05,0,1.63,0.71,1.63,1.57c0,0.85-0.59,1.56-1.63,1.56h-1.33v1.88H121.61z
					 M124.55,26.89c0-0.48-0.35-0.8-0.85-0.8h-1.21v1.59h1.21C124.2,27.68,124.55,27.36,124.55,26.89z"/>
				<path fill="#989FA1" d="M126.56,30.33v-5.01h2.21c1.05,0,1.63,0.71,1.63,1.57c0,0.85-0.59,1.56-1.63,1.56h-1.33v1.88H126.56z
					 M129.5,26.89c0-0.48-0.35-0.8-0.85-0.8h-1.21v1.59h1.21C129.15,27.68,129.5,27.36,129.5,26.89z"/>
				<path fill="#989FA1" d="M131.51,30.33v-5.01h3.44v0.77h-2.56v1.29h2.5v0.77h-2.5v1.4h2.56v0.77H131.51z"/>
				<path fill="#989FA1" d="M136.22,30.33v-5.01h1.86c1.57,0,2.62,1.04,2.62,2.5c0,1.48-1.05,2.51-2.62,2.51H136.22z M139.8,27.82
					c0-0.96-0.6-1.73-1.71-1.73h-0.99v3.47h0.98C139.17,29.56,139.8,28.77,139.8,27.82z"/>
			</g>
			<path fill="#EEE679" d="M196.76,16.06l-7.77-4.49c-0.68-0.39-1.79-0.39-2.47,0l-7.77,4.49c-0.68,0.39-1.23,1.35-1.23,2.14v8.97
				c0,0.78,0.56,1.75,1.23,2.14l7.77,4.49c0.68,0.39,1.79,0.39,2.47,0l7.77-4.49c0.68-0.39,1.23-1.35,1.23-2.14V18.2
				C198,17.42,197.44,16.45,196.76,16.06z M194.67,20.89h-0.81v-1.37c0-1.05-0.81-1.37-2.36-1.37h-0.07c-3.73,0-3.4-1.4-3.51-1.91
				h-0.05c-0.11,0.51,0.25,1.91-3.48,1.91h-0.1c-1.56,0-2.36,0.32-2.36,1.37v1.06l12.74,3.68v0.21h0v1.32c0,1.5-0.72,2.34-3.17,2.34
				h-0.12c-1.91,0-3.08,0.4-3.08,1.91h-0.81c0-1.5-1.17-1.91-3.08-1.91h-0.12c-2.44,0-3.17-0.83-3.17-2.34v-1.32h0.81v1.37
				c0,1.05,0.81,1.37,2.36,1.37h0.07c3.73,0,3.4,1.4,3.51,1.91h0.05c0.11-0.51-0.25-1.91,3.48-1.91h0.1c1.56,0,2.36-0.32,2.36-1.37
				v-0.79l-12.74-3.68v-0.48h0v-1.32c0-1.5,0.72-2.34,3.17-2.34h0.12c1.91,0,3.08-0.4,3.08-1.91h0.81c0,1.5,1.17,1.91,3.08,1.91
				h0.12c2.44,0,3.17,0.83,3.17,2.34V20.89z"/>
		</g>
		<g>
			<path fill="#FFFFFF" d="M228.15,50.77v81.93c0,4.39-3.56,7.95-7.95,7.95H79.8c-4.39,0-7.95-3.56-7.95-7.95V52.67
				c0-1.59,0.48-3.11,1.32-4.39l72.61,45.45c2.58,1.62,5.86,1.62,8.45,0l73.06-45.79C227.84,48.75,228.15,49.74,228.15,50.77z"/>
			<path fill="#989FA1" d="M220.2,141.08H79.8c-4.62,0-8.38-3.76-8.38-8.38V52.67c0-1.65,0.48-3.25,1.39-4.62l0.23-0.35L146,93.36
				c2.43,1.52,5.57,1.52,7.99,0l73.41-46.01l0.23,0.34c0.61,0.92,0.94,1.98,0.94,3.08v81.93
				C228.58,137.33,224.82,141.08,220.2,141.08z M73.3,48.87c-0.67,1.15-1.03,2.46-1.03,3.8v80.04c0,4.15,3.37,7.52,7.52,7.52h140.4
				c4.15,0,7.52-3.37,7.52-7.52V50.77c0-0.79-0.2-1.56-0.58-2.25l-72.7,45.56c-2.7,1.7-6.19,1.7-8.9,0L73.3,48.87z"/>
		</g>
		<path fill="#ECEFEF" d="M79.8,136.51c-2.1,0-3.8-1.71-3.8-3.8V54.94l67.58,42.3c1.93,1.21,4.15,1.85,6.42,1.85
			c2.28,0,4.5-0.64,6.43-1.85l67.58-42.35v77.83c0,2.1-1.71,3.8-3.8,3.8H79.8z"/>
		
			<rect x="65.54" y="109.21" transform="matrix(0.6614 -0.75 0.75 0.6614 -48.4739 111.8879)" fill="#989FA1" width="68.31" height="0.86"/>
		
			<rect x="199.65" y="75.48" transform="matrix(0.7505 -0.6608 0.6608 0.7505 -22.5394 159.5638)" fill="#989FA1" width="0.86" height="68.31"/>
	</g>
</g>
<g id="Layer_2">
</g>
<g id="Layer_3">
</g>
<g id="Layer_4">
</g>
<g id="Layer_5">
</g>
<g id="Layer_6">
</g>
</svg>
