<?xml version="1.0" encoding="utf-8"?>
<!-- Generator: Adobe Illustrator 22.0.1, SVG Export Plug-In . SVG Version: 6.00 Build 0)  -->
<svg version="1.1" xmlns="http://www.w3.org/2000/svg" xmlns:xlink="http://www.w3.org/1999/xlink" x="0px" y="0px" width="300px"
	 height="143.41px" viewBox="0 0 300 143.41" enable-background="new 0 0 300 143.41" xml:space="preserve">
<g id="Layer_1">
	<g>
		<path fill="#989FA1" d="M160.11,120.52L115.78,13.5c-3.35-8.08-12.65-11.94-20.74-8.59l-0.29-0.69c8.47-3.51,18.21,0.53,21.72,9
			l44.04,106.33l59.34-24.58l0.29,0.69L160.11,120.52z"/>
		<g>
			
				<rect x="80.14" y="4.96" transform="matrix(0.9239 -0.3827 0.3827 0.9239 4.0668 34.6223)" fill="#FFFFFF" width="17.85" height="4.26"/>
			<path fill="#989FA1" d="M81.43,12.96l-1.92-4.63L96.7,1.21l1.92,4.63L81.43,12.96z M80.49,8.74l1.34,3.24l15.8-6.54l-1.34-3.24
				L80.49,8.74z"/>
		</g>
		<g>
			
				<rect x="151.59" y="48.24" transform="matrix(0.9239 -0.3827 0.3827 0.9239 -15.1801 74.0413)" fill="#FFFFFF" width="53.87" height="53.87"/>
			<path fill="#989FA1" d="M163.75,110.86l-20.9-50.46l50.46-20.9l20.9,50.46L163.75,110.86z M143.82,60.81l20.33,49.07l49.07-20.33
				L192.9,40.48L143.82,60.81z"/>
		</g>
		
			<rect x="154.59" y="51.24" transform="matrix(-0.9239 0.3827 -0.3827 -0.9239 372.2309 76.3157)" fill="#ECEFEF" width="47.87" height="47.87"/>
		<g>
			
				<rect x="134.14" y="14.37" transform="matrix(0.9239 -0.3827 0.3827 0.9239 -1.4335 61.6237)" fill="#FFFFFF" width="40.08" height="40.08"/>
			<path fill="#989FA1" d="M143.14,61.09l-15.62-37.72l37.72-15.63l15.62,37.72L143.14,61.09z M128.49,23.77l15.05,36.34
				l36.34-15.05L164.83,8.72L128.49,23.77z"/>
		</g>
		<g>
			<circle fill="#FFFFFF" cx="160.37" cy="119.19" r="22.51"/>
			<path fill="#989FA1" d="M160.4,142.07c-8.98,0-17.52-5.32-21.17-14.13l0,0c-4.83-11.66,0.73-25.07,12.38-29.9
				c11.66-4.83,25.07,0.73,29.9,12.38c2.34,5.65,2.34,11.87,0,17.51c-2.34,5.65-6.74,10.05-12.38,12.38
				C166.27,141.51,163.31,142.07,160.4,142.07z M139.92,127.66c4.67,11.28,17.64,16.65,28.92,11.98c5.46-2.26,9.72-6.52,11.98-11.98
				c2.26-5.46,2.26-11.48,0-16.94c-2.26-5.46-6.52-9.72-11.98-11.98c-5.46-2.26-11.48-2.26-16.94,0
				C140.63,103.41,135.25,116.39,139.92,127.66L139.92,127.66z"/>
		</g>
		<path fill="#ECEFEF" d="M167.69,136.87c-9.75,4.04-20.96-0.61-25-10.35c-4.04-9.75,0.61-20.96,10.35-25
			c9.75-4.04,20.96,0.61,25,10.35C182.08,121.62,177.44,132.83,167.69,136.87z"/>
		<g>
			<circle fill="#FFFFFF" cx="160.37" cy="119.19" r="3.79"/>
			<path fill="#B7BEBF" d="M160.37,123.36c-0.54,0-1.08-0.11-1.59-0.32c-1.03-0.43-1.83-1.23-2.26-2.26c-0.43-1.03-0.43-2.16,0-3.19
				s1.23-1.83,2.26-2.26c1.03-0.43,2.16-0.43,3.19,0c1.03,0.43,1.83,1.23,2.26,2.26c0.43,1.03,0.43,2.16,0,3.19
				s-1.23,1.83-2.26,2.26C161.45,123.25,160.91,123.36,160.37,123.36z M160.37,115.77c-0.44,0-0.89,0.09-1.31,0.26
				c-0.84,0.35-1.5,1.01-1.85,1.85c-0.35,0.84-0.35,1.77,0,2.62l0,0c0.35,0.84,1.01,1.5,1.85,1.85c0.84,0.35,1.77,0.35,2.62,0
				s1.5-1.01,1.85-1.85c0.35-0.84,0.35-1.77,0-2.62s-1.01-1.5-1.85-1.85C161.26,115.86,160.81,115.77,160.37,115.77z"/>
		</g>
		<polygon fill="#ECEFEF" points="155.03,25.33 152.26,24.03 150.97,27.01 148.04,25.78 146.94,28.68 142.36,17.63 150.45,14.28 		
			"/>
		<path fill="#989FA1" d="M146.95,29.7l-5.08-12.27l8.79-3.64l5.09,12.29l-3.3-1.54l-1.28,2.97l-2.91-1.23L146.95,29.7z
			 M142.85,17.83l4.07,9.83l0.91-2.38l2.94,1.24l1.29-2.99l2.25,1.05l-4.06-9.81L142.85,17.83z"/>
		<g>
			<path fill="#989FA1" d="M167.31,94.18l-2.19-5.29l3.63-1.5l0.34,0.82l-2.7,1.12l0.57,1.37l2.64-1.09l0.34,0.82l-2.64,1.09
				l0.95,2.29L167.31,94.18z"/>
			<path fill="#989FA1" d="M175.19,90.91l-1.99-1.49l-0.93,0.38l0.82,1.98l-0.93,0.38l-2.19-5.29l2.33-0.96
				c1.05-0.43,2.02-0.04,2.43,0.94c0.39,0.94-0.02,1.71-0.62,2.08l2.16,1.54L175.19,90.91z M173.77,87.23
				c-0.21-0.51-0.73-0.67-1.25-0.46l-1.28,0.53l0.7,1.68l1.28-0.53C173.74,88.24,173.99,87.74,173.77,87.23z"/>
			<path fill="#989FA1" d="M181.27,88.39l-0.81-0.86l-2.43,1.01l0.04,1.19l-1.06,0.44L176.9,84l1.16-0.48l4.27,4.43L181.27,88.39z
				 M177.86,84.69l0.09,2.92l1.9-0.79L177.86,84.69z"/>
			<path fill="#989FA1" d="M181.69,85.12c-0.69-1.67,0.1-3.25,1.64-3.89c1.03-0.43,1.91-0.22,2.58,0.21l-0.57,0.75
				c-0.45-0.28-1.08-0.38-1.66-0.14c-1.05,0.43-1.5,1.55-1.03,2.67c0.46,1.1,1.57,1.59,2.62,1.16c0.54-0.22,0.91-0.67,1.06-1
				l-0.34-0.82l-1.59,0.66l-0.34-0.82l2.51-1.04l0.82,1.98c-0.28,0.79-0.86,1.49-1.77,1.87C184.07,87.35,182.38,86.78,181.69,85.12z
				"/>
			<path fill="#989FA1" d="M189.1,85.15l-2.19-5.29l0.93-0.38l2.19,5.29L189.1,85.15z"/>
			<path fill="#989FA1" d="M191.49,84.16l-2.19-5.29l0.93-0.38l1.85,4.48l2.33-0.97l0.34,0.82L191.49,84.16z"/>
			<path fill="#989FA1" d="M195.97,82.31l-2.19-5.29l3.63-1.5l0.34,0.82l-2.7,1.12l0.57,1.37l2.64-1.09l0.34,0.82l-2.64,1.09
				l0.61,1.48l2.7-1.12l0.34,0.82L195.97,82.31z"/>
		</g>
	</g>
</g>
<g id="Layer_2">
</g>
<g id="Layer_3">
</g>
<g id="Layer_4">
</g>
<g id="Layer_5">
</g>
<g id="Layer_6">
</g>
</svg>
