<?xml version="1.0" encoding="utf-8"?>
<!-- Generator: Adobe Illustrator 22.0.1, SVG Export Plug-In . SVG Version: 6.00 Build 0)  -->
<svg version="1.1" xmlns="http://www.w3.org/2000/svg" xmlns:xlink="http://www.w3.org/1999/xlink" x="0px" y="0px" width="300px"
	 height="124px" viewBox="0 0 300 124" enable-background="new 0 0 300 124" xml:space="preserve">
<g id="Layer_1">
	<g>
		<g>
			<circle fill="#EEE679" cx="136.96" cy="69.31" r="53.69"/>
			<path fill="#FFFFFF" d="M136.96,114.06c-24.67,0-44.75-20.07-44.75-44.75s20.07-44.75,44.75-44.75s44.75,20.07,44.75,44.75
				S161.63,114.06,136.96,114.06z M136.96,26.56c-23.57,0-42.75,19.18-42.75,42.75s19.18,42.75,42.75,42.75s42.75-19.18,42.75-42.75
				S160.53,26.56,136.96,26.56z"/>
			<g>
				<g>
					<path fill="#FFFFFF" d="M139.49,87.33v4.77h-3.23v-4.72c-5.41-0.32-9.49-2.54-12.14-5.57l2.65-3.34
						c2.07,2.33,5.3,4.51,9.49,4.93V70.53c-5.41-1.43-11.02-3.29-11.02-9.81c0-5.51,4.66-9.38,11.02-9.8v-4.82h3.23v4.93
						c4.4,0.37,7.9,2.12,10.44,4.82l-2.65,3.23c-2.07-2.33-4.82-3.6-7.79-4.03v11.5c5.46,1.54,11.24,3.55,11.24,10.5
						C150.73,81.82,147.71,86.75,139.49,87.33z M136.26,65.7V54.89c-3.82,0.21-6.47,2.44-6.47,5.57
						C129.79,63.48,132.71,64.7,136.26,65.7z M146.22,77.42c0-3.6-3.07-4.93-6.73-6.04v11.98
						C144.58,82.93,146.22,79.86,146.22,77.42z"/>
				</g>
			</g>
		</g>
		<g>
			<circle fill="#FFFFFF" cx="186.39" cy="31.33" r="30.33"/>
			<path fill="#989FA1" d="M186.39,62.04c-16.93,0-30.71-13.78-30.71-30.71c0-16.93,13.78-30.71,30.71-30.71S217.1,14.4,217.1,31.33
				C217.1,48.27,203.33,62.04,186.39,62.04z M186.39,1.38c-16.52,0-29.96,13.44-29.96,29.96s13.44,29.96,29.96,29.96
				s29.96-13.44,29.96-29.96S202.91,1.38,186.39,1.38z"/>
		</g>
		<path fill="#ECEFEF" d="M186.39,57.68c-14.53,0-26.35-11.82-26.35-26.34c0-14.53,11.82-26.35,26.35-26.35
			c14.53,0,26.35,11.82,26.35,26.35C212.74,45.86,200.92,57.68,186.39,57.68z"/>
		<polygon fill="#989FA1" points="180.6,43.28 170.42,33.1 171.83,31.69 180.6,40.45 200.96,20.09 202.37,21.51 		"/>
	</g>
</g>
<g id="Layer_2">
</g>
<g id="Layer_3">
</g>
<g id="Layer_4">
</g>
<g id="Layer_5">
</g>
<g id="Layer_6">
</g>
</svg>
