<?xml version="1.0" encoding="UTF-8"?>
<svg width="29px" height="31px" viewBox="0 0 29 31" version="1.1" xmlns="http://www.w3.org/2000/svg" xmlns:xlink="http://www.w3.org/1999/xlink">
    <!-- Generator: sketchtool 51 (57462) - http://www.bohemiancoding.com/sketch -->
    <title>A30A7479-07EE-4F61-9B7A-F1FEDD689D66</title>
    <desc>Created with sketchtool.</desc>
    <defs></defs>
    <g id="Symbols" stroke="none" stroke-width="1" fill="none" fill-rule="evenodd">
        <g id="logo-inferno">
            <path d="M9.2133,7.4337 L8.8483,7.6757 C5.8373,9.6457 4.2503,12.4477 4.2143,16.0357 C4.1673,20.6237 7.4013,24.6157 11.8733,25.6417 C17.6463,26.9667 23.3593,22.7827 23.8233,16.8877 C24.1923,12.2257 21.0393,8.0377 16.5913,6.5887 C15.9203,5.8417 15.3113,3.3287 16.3713,2.1837 C20.7423,3.1547 24.0203,5.3867 26.1333,8.9817 C30.7523,16.8417 26.5993,27.0877 17.8233,29.5357 C9.6723,31.8087 1.4233,26.4347 0.2043,18.0557 C-1.1477,10.2437 4.3673,3.2937 12.1513,2.1257 C10.3343,3.7677 9.3633,6.0227 9.2133,7.4337" id="Fill-1" fill="#2C2E31"></path>
            <path d="M19.6713,14.0851 C20.2993,12.9141 20.2713,11.6891 19.9143,10.4491 C19.8263,10.1451 19.6443,9.6221 19.5213,9.2801 C21.6213,10.8331 23.4163,14.5661 22.5043,18.2761 C21.6593,21.7151 18.3643,24.4831 14.9653,24.8041 C10.5883,25.2161 7.1853,22.5931 5.9033,19.4041 C4.5383,16.0051 5.6323,11.8241 7.9803,9.7421 C6.8303,12.0561 7.1873,13.8921 7.6553,14.5761 C8.1773,15.3381 9.0083,15.7321 9.8183,15.5071 C10.6713,15.2711 11.3243,14.5081 11.3103,13.5351 C11.3003,12.8871 11.1843,12.1541 10.9283,11.5691 C9.4093,8.1001 10.6753,4.9711 13.1253,2.8151 C13.8363,2.1901 14.6633,1.5901 15.7163,1.0001 C14.5603,2.6421 14.3623,4.6431 15.2413,6.5051 C15.7573,7.5191 16.4173,8.5781 16.9993,9.5581 C18.0463,11.3161 18.6893,13.1251 18.4103,15.2241 C18.4073,15.2471 19.2433,14.9001 19.6713,14.0851" id="Fill-4" fill="#BABABA"></path>
        </g>
    </g>
</svg>