<?xml version="1.0" encoding="utf-8"?>
<!-- Generator: Adobe Illustrator 19.0.0, SVG Export Plug-In . SVG Version: 6.00 Build 0)  -->
<svg version="1.1" id="Layer_1" xmlns="http://www.w3.org/2000/svg" xmlns:xlink="http://www.w3.org/1999/xlink" x="0px" y="0px"
	 viewBox="-273 364 65 65" style="enable-background:new -273 364 65 65;" xml:space="preserve">
<style type="text/css">
	.st0{fill:#B6BDBE;}
</style>
<path class="st0" d="M-218.3,375.8c0-0.3,0-0.5,0-0.5c0-0.1-0.1-0.3-0.3-0.4c-0.1-0.1-0.2-0.1-0.5,0c-0.2,0-3.1,0.8-6.8,0.8
	c-1.3,0-2.4-0.1-3.7-0.3c-5.3-0.9-8.8-4.1-9.5-5.2l0,0c-0.1-0.1-0.3-0.2-0.5-0.2c-0.2,0-0.4,0.1-0.4,0.2c-0.5,0.7-3.8,4.2-9.5,5.2
	c-1.1,0.2-2.4,0.3-3.7,0.3c-3.3,0-6.1-0.6-6.7-0.8h-0.2c-0.1,0-0.2,0.1-0.4,0.1c-0.1,0.1-0.2,0.2-0.3,0.5c0,0.1-1.8,16.6,3.1,28.1
	c4.9,11.4,17.2,18.9,17.7,19.2c0.2,0.1,0.5,0.1,0.7,0c0.5-0.3,12.7-7.7,17.7-19.2C-218.6,397-217.5,387.1-218.3,375.8z
	 M-240.1,421.5l-0.8-0.6c-2.9-2.1-11.7-8.6-15.5-17.6c-4.2-9.9-3.4-23.7-3.1-26.3l0-1l1,0.3c1.1,0.2,3.1,0.5,5.4,0.5
	c1.4,0,2.7-0.1,3.8-0.3c3.1-0.5,6-1.9,8.5-3.9l0.7-0.6v13.1c-3.1,0.3-5.6,2.9-5.6,6.2c0,0,0,0,0,0c0,0,0,0,0,0c0,2.2,1.1,4.2,3,5.3
	l-1,7.7h0l0,0.1h3.6V421.5z M-240.1,403.2h-2.5l0.9-7.2l0,0l0-0.1l-0.3-0.2c-1.7-0.9-2.7-2.6-2.7-4.5c0-2.8,2.3-5.2,5.2-5.2
	c2.9,0,5.2,2.3,5.2,5.2c0,2-1.2,3.8-2.9,4.6l-0.3,0.2l0,0.1l0,0l0.9,7.1h-2.3H-240.1z M-222.6,403.3c-3.7,8.8-12.1,15.2-15.6,17.6
	l-0.8,0.5v-17.1h3.4l0-0.1h0l-0.9-7.5c1.9-1.1,3.2-3.2,3.2-5.4c0,0,0,0,0,0c0,0,0,0,0,0c0-3.2-2.5-5.9-5.7-6.2v-13.1l0.8,0.7
	c1.4,1.1,4.3,3.2,8.5,3.9c1.1,0.2,2.5,0.3,3.8,0.3c2.3,0,4.3-0.3,5.5-0.5l0.9-0.3v1C-219.2,380.8-218.5,393.9-222.6,403.3z"/>
</svg>
