<svg xmlns="http://www.w3.org/2000/svg" preserveAspectRatio="xMidYMid" width="43" height="62" viewBox="0 0 43 62"><defs><style>.cls-1 { fill: #b6bcbd; fill-rule: evenodd; }</style></defs><path d="M41.92 61.997h-9.13l-6.652-.004c-.002 0-.006.004-.01.004H1.08c-.596 0-1.08-.483-1.08-1.07v-50.07c0-.59.484-1.07 1.08-1.07h9.13V6.844c0-.59.485-1.07 1.08-1.07h4.432V5.72c0-3.155 2.594-5.72 5.78-5.72 3.188 0 5.78 2.565 5.78 5.72v.054h4.43c.595 0 1.08.48 1.08 1.07v2.942h9.127c.59 0 1.08.48 1.08 1.07v50.07c0 .59-.49 1.07-1.08 1.07zM30.63 7.917h-4.585c-.33 0-.648-.15-.854-.413-.2-.262-.27-.6-.19-.92.088-.328.126-.6.126-.86 0-1.977-1.624-3.583-3.62-3.583s-3.62 1.61-3.62 3.59c0 .26.04.543.123.865.08.32.006.66-.198.918-.202.26-.52.41-.85.41h-4.59v5.243h18.26V7.92zM40.833 39.75V11.925h-8.046v2.3c0 .59-.485 1.07-1.08 1.07h-20.42c-.595 0-1.08-.48-1.08-1.07v-2.3H2.16l.002 47.927h22.045l8.58.006h8.047V39.75zM14.73 48.927c0-.577.473-1.044 1.055-1.044h18.738c.582 0 1.054.467 1.054 1.044 0 .576-.472 1.043-1.054 1.043H15.785c-.582 0-1.054-.467-1.054-1.043zm19.793-6.665H15.785c-.582 0-1.054-.468-1.054-1.044 0-.576.48-1.044 1.06-1.044h18.74c.583 0 1.055.468 1.055 1.044 0 .576-.472 1.044-1.054 1.044zm0-8.336H15.785c-.582 0-1.054-.467-1.054-1.043 0-.577.48-1.044 1.06-1.044h18.74c.583 0 1.055.46 1.055 1.04 0 .572-.472 1.04-1.054 1.04zm0-8.335H15.785c-.582 0-1.054-.46-1.054-1.04 0-.572.48-1.04 1.06-1.04h18.74c.583 0 1.055.468 1.055 1.044 0 .576-.472 1.044-1.054 1.044zm-24.44 26.13c-.174.22-.428.365-.707.398-.042.006-.084.008-.126.008-.236 0-.468-.08-.655-.225l-1.897-1.5c-.456-.357-.532-1.014-.17-1.465.36-.452 1.024-.527 1.48-.17l1.064.837 2.72-3.46c.356-.45 1.02-.532 1.478-.18.46.356.542 1.01.185 1.467l-3.373 4.294zm0-7.71c-.174.22-.428.366-.707.4-.042.005-.084.01-.126.01-.236 0-.468-.08-.655-.23L6.698 42.7c-.456-.36-.532-1.016-.17-1.468.36-.45 1.024-.527 1.48-.17l1.064.836 2.72-3.462c.356-.455 1.02-.536 1.478-.183.46.353.542 1.01.185 1.464l-3.373 4.294zm0-8.332c-.174.22-.428.364-.707.396-.042.006-.084.008-.126.008-.236 0-.468-.08-.655-.225l-1.897-1.49c-.456-.36-.532-1.015-.17-1.466.36-.45 1.024-.526 1.48-.17l1.064.838 2.72-3.46c.356-.456 1.02-.538 1.478-.184.46.354.542 1.01.185 1.464l-3.373 4.294zm0-8.334c-.174.22-.428.36-.707.395-.042.005-.084.007-.126.007-.236 0-.468-.08-.655-.225l-1.897-1.49c-.456-.357-.532-1.014-.17-1.465.36-.45 1.024-.527 1.48-.17l1.064.837 2.72-3.46c.356-.456 1.02-.537 1.478-.184.46.353.542 1.01.185 1.464l-3.373 4.294z" class="cls-1"/></svg>