<?xml version="1.0" encoding="utf-8"?>
<!-- Generator: Adobe Illustrator 22.0.1, SVG Export Plug-In . SVG Version: 6.00 Build 0)  -->
<svg version="1.1" xmlns="http://www.w3.org/2000/svg" xmlns:xlink="http://www.w3.org/1999/xlink" x="0px" y="0px" width="300px"
	 height="130.83px" viewBox="0 0 300 130.83" enable-background="new 0 0 300 130.83" xml:space="preserve">
<g id="Layer_1">
	<g>
		<g>
			<g>
				<g>
					<rect x="58.7" y="9.19" fill="#FFFFFF" width="161.25" height="102.47"/>
					<path fill="#989FA1" d="M58.33,112.04l0-103.22l162-0.01l0,103.22L58.33,112.04z M59.07,9.56l0,101.72l160.5-0.01l0-101.72
						L59.07,9.56z"/>
				</g>
				<path fill="#ECEFEF" d="M211.08,51.46h-33.54V39.66h33.54V51.46z M178.29,50.71h32.04V40.41h-32.04V50.71z"/>
				<rect x="177.05" y="93.56" fill="#EEE679" width="33.73" height="8.93"/>
				<rect x="78.28" y="64.85" fill="#989FA1" width="48.68" height="0.75"/>
				<rect x="191.67" y="65.22" fill="#989FA1" width="19.11" height="0.75"/>
				<rect x="184.89" y="45.11" fill="#ECEFEF" width="18.84" height="0.75"/>
				<path fill="#ECEFEF" d="M174.4,51.53h-33.54V39.74h33.54V51.53z M141.62,50.78h32.04V40.49h-32.04V50.78z"/>
				<rect x="148.22" y="45.23" fill="#ECEFEF" width="18.84" height="0.75"/>
				<path fill="#ECEFEF" d="M137.73,51.6h-33.54V39.81h33.54V51.6z M104.94,50.85h32.04V40.56h-32.04V50.85z"/>
				<rect x="111.54" y="45.36" fill="#ECEFEF" width="18.84" height="0.75"/>
				<path fill="#989FA1" d="M101.05,51.67H67.52V39.88h33.54V51.67z M68.27,50.92h32.04V40.63H68.27V50.92z"/>
				<rect x="74.87" y="45.48" fill="#989FA1" width="18.84" height="0.75"/>
				<rect x="78.28" y="74.68" fill="#989FA1" width="35.66" height="0.75"/>
				<rect x="191.67" y="74.68" fill="#989FA1" width="19.11" height="0.75"/>
				<rect x="78.28" y="83.64" fill="#989FA1" width="42.17" height="0.75"/>
				<rect x="191.67" y="83.64" fill="#989FA1" width="19.11" height="0.75"/>
				<polygon fill="#989FA1" points="70.1,66.4 67.98,64.29 68.51,63.76 70.63,65.87 				"/>
				<polygon fill="#989FA1" points="68.51,66.4 67.98,65.87 70.1,63.76 70.63,64.29 				"/>
				
					<rect x="68.93" y="73.42" transform="matrix(0.7071 -0.7071 0.7071 0.7071 -32.6733 70.9461)" fill="#989FA1" width="0.75" height="2.99"/>
				
					<rect x="67.81" y="74.54" transform="matrix(0.7071 -0.7071 0.7071 0.7071 -32.6733 70.9461)" fill="#989FA1" width="2.99" height="0.75"/>
				<polygon fill="#989FA1" points="70.1,85.32 67.98,83.21 68.51,82.67 70.63,84.79 				"/>
				<polygon fill="#989FA1" points="68.51,85.32 67.98,84.79 70.1,82.67 70.63,83.21 				"/>
				<g>
					<path fill="#989FA1" d="M73.61,28.1v-5.38l-2.13,5.38h-0.52l-2.14-5.38v5.38H67.6v-6.96h1.72l1.9,4.78l1.89-4.78h1.72v6.96
						H73.61z"/>
					<path fill="#989FA1" d="M78.81,28.1v-2.89l-2.7-4.07h1.4l1.91,2.97l1.91-2.97h1.4l-2.69,4.07v2.89H78.81z"/>
					<path fill="#989FA1" d="M86.91,24.62c0-2.15,1.6-3.6,3.65-3.6c1.4,0,2.27,0.72,2.79,1.55l-1.03,0.54
						c-0.33-0.58-1.01-1.01-1.75-1.01c-1.38,0-2.4,1.04-2.4,2.52c0,1.45,1.02,2.52,2.4,2.52c0.74,0,1.42-0.44,1.75-1.01l1.04,0.52
						c-0.53,0.83-1.4,1.58-2.8,1.58C88.51,28.22,86.91,26.76,86.91,24.62z"/>
					<path fill="#989FA1" d="M99.68,28.1l-0.51-1.35h-3.19l-0.51,1.35h-1.39l2.74-6.96h1.52l2.73,6.96H99.68z M97.57,22.36
						l-1.25,3.32h2.5L97.57,22.36z"/>
					<path fill="#989FA1" d="M106.31,28.1l-1.53-2.6h-1.22v2.6h-1.22v-6.96h3.06c1.38,0,2.29,0.89,2.29,2.18
						c0,1.23-0.81,1.91-1.66,2.05l1.71,2.73H106.31z M106.43,23.31c0-0.67-0.5-1.1-1.19-1.1h-1.68v2.21h1.68
						C105.93,24.42,106.43,23.99,106.43,23.31z"/>
					<path fill="#989FA1" d="M110.98,28.1v-5.89h-2.11v-1.08h5.44v1.08h-2.11v5.89H110.98z"/>
				</g>
			</g>
			<g>
				<path fill="#ECEFEF" d="M219.95,9.19H58.7V3.83c0-1.19,0.97-2.16,2.16-2.16h156.93c1.19,0,2.16,0.97,2.16,2.16V9.19z"/>
				<path fill="#989FA1" d="M220.32,9.56h-162V3.83c0-1.4,1.14-2.54,2.54-2.54h156.93c1.4,0,2.54,1.14,2.54,2.54V9.56z M59.07,8.81
					h160.5V3.83c0-0.99-0.8-1.79-1.79-1.79H60.86c-0.99,0-1.79,0.8-1.79,1.79V8.81z"/>
			</g>
			<path fill="#989FA1" d="M214.87,6.68c-0.69,0-1.25-0.56-1.25-1.25s0.56-1.25,1.25-1.25s1.25,0.56,1.25,1.25
				S215.56,6.68,214.87,6.68z M214.87,4.93c-0.28,0-0.5,0.22-0.5,0.5s0.22,0.5,0.5,0.5s0.5-0.22,0.5-0.5S215.15,4.93,214.87,4.93z"
				/>
			<path fill="#989FA1" d="M210.91,6.68c-0.69,0-1.25-0.56-1.25-1.25s0.56-1.25,1.25-1.25s1.25,0.56,1.25,1.25
				S211.6,6.68,210.91,6.68z M210.91,4.93c-0.28,0-0.5,0.22-0.5,0.5s0.22,0.5,0.5,0.5s0.5-0.22,0.5-0.5S211.19,4.93,210.91,4.93z"/>
			<path fill="#989FA1" d="M206.95,6.68c-0.69,0-1.25-0.56-1.25-1.25s0.56-1.25,1.25-1.25s1.25,0.56,1.25,1.25
				S207.64,6.68,206.95,6.68z M206.95,4.93c-0.28,0-0.5,0.22-0.5,0.5s0.22,0.5,0.5,0.5c0.27,0,0.5-0.22,0.5-0.5
				S207.22,4.93,206.95,4.93z"/>
		</g>
		<g>
			<path fill="#989FA1" d="M200.34,129.55c-22.79,0-41.33-18.54-41.33-41.33s18.54-41.33,41.33-41.33s41.33,18.54,41.33,41.33
				S223.13,129.55,200.34,129.55z M200.34,47.63c-22.38,0-40.58,18.21-40.58,40.58c0,22.38,18.21,40.58,40.58,40.58
				s40.58-18.21,40.58-40.58C240.93,65.84,222.72,47.63,200.34,47.63z"/>
			<g>
				<defs>
					<circle id="SVGID_23_" cx="200.34" cy="88.21" r="40.96"/>
				</defs>
				<clipPath id="SVGID_2_">
					<use xlink:href="#SVGID_23_"  overflow="visible"/>
				</clipPath>
				<g clip-path="url(#SVGID_2_)">
					<circle fill="#FFFFFF" cx="200.34" cy="88.21" r="40.96"/>
					<path fill="#989FA1" d="M200.34,129.55c-22.79,0-41.33-18.54-41.33-41.33s18.54-41.33,41.33-41.33s41.33,18.54,41.33,41.33
						S223.13,129.55,200.34,129.55z M200.34,47.63c-22.38,0-40.58,18.21-40.58,40.58c0,22.38,18.21,40.58,40.58,40.58
						s40.58-18.21,40.58-40.58C240.93,65.84,222.72,47.63,200.34,47.63z"/>
				</g>
				<g clip-path="url(#SVGID_2_)">
					<g>
						<path fill="#989FA1" d="M175.55,81.08l0.37-0.51c0.25,0.28,0.66,0.52,1.18,0.52c0.54,0,0.75-0.26,0.75-0.52
							c0-0.79-2.18-0.3-2.18-1.67c0-0.62,0.54-1.1,1.37-1.1c0.58,0,1.06,0.19,1.4,0.53l-0.37,0.49c-0.3-0.3-0.7-0.43-1.09-0.43
							c-0.38,0-0.63,0.19-0.63,0.47c0,0.7,2.18,0.27,2.18,1.66c0,0.62-0.44,1.16-1.45,1.16C176.39,81.67,175.89,81.43,175.55,81.08z
							"/>
						<path fill="#989FA1" d="M179.4,80.12v-2.26h0.67v2.25c0,0.59,0.33,0.98,0.95,0.98s0.95-0.39,0.95-0.98v-2.25h0.67v2.26
							c0,0.93-0.53,1.55-1.62,1.55C179.94,81.67,179.4,81.05,179.4,80.12z"/>
						<path fill="#989FA1" d="M183.72,81.61v-3.75h1.84c0.69,0,1.07,0.43,1.07,0.95c0,0.47-0.3,0.79-0.65,0.86
							c0.4,0.06,0.72,0.46,0.72,0.92c0,0.58-0.38,1.02-1.09,1.02H183.72z M185.96,78.92c0-0.28-0.19-0.48-0.52-0.48h-1.06v0.97h1.06
							C185.77,79.4,185.96,79.21,185.96,78.92z M186.03,80.51c0-0.28-0.2-0.52-0.57-0.52h-1.08v1.04h1.08
							C185.82,81.03,186.03,80.83,186.03,80.51z"/>
						<path fill="#989FA1" d="M187.4,81.08l0.37-0.51c0.25,0.28,0.66,0.52,1.18,0.52c0.54,0,0.75-0.26,0.75-0.52
							c0-0.79-2.18-0.3-2.18-1.67c0-0.62,0.54-1.1,1.37-1.1c0.58,0,1.06,0.19,1.4,0.53l-0.37,0.49c-0.3-0.3-0.7-0.43-1.09-0.43
							c-0.38,0-0.63,0.19-0.63,0.47c0,0.7,2.18,0.27,2.18,1.66c0,0.62-0.44,1.16-1.45,1.16C188.24,81.67,187.74,81.43,187.4,81.08z"
							/>
						<path fill="#989FA1" d="M191.09,79.74c0-1.16,0.86-1.94,1.97-1.94c0.75,0,1.22,0.39,1.5,0.84L194,78.93
							c-0.18-0.31-0.54-0.54-0.94-0.54c-0.74,0-1.29,0.56-1.29,1.35c0,0.78,0.55,1.35,1.29,1.35c0.4,0,0.76-0.24,0.94-0.54
							l0.56,0.28c-0.29,0.45-0.75,0.85-1.5,0.85C191.95,81.67,191.09,80.89,191.09,79.74z"/>
						<path fill="#989FA1" d="M197.5,81.61l-0.83-1.4h-0.66v1.4h-0.66v-3.75H197c0.74,0,1.23,0.48,1.23,1.17
							c0,0.66-0.44,1.03-0.89,1.1l0.92,1.47H197.5z M197.56,79.03c0-0.36-0.27-0.59-0.64-0.59h-0.9v1.19h0.9
							C197.29,79.63,197.56,79.39,197.56,79.03z"/>
						<path fill="#989FA1" d="M199.17,81.61v-3.75h0.66v3.75H199.17z"/>
						<path fill="#989FA1" d="M200.9,81.61v-3.75h1.84c0.69,0,1.07,0.43,1.07,0.95c0,0.47-0.3,0.79-0.65,0.86
							c0.4,0.06,0.72,0.46,0.72,0.92c0,0.58-0.38,1.02-1.09,1.02H200.9z M203.14,78.92c0-0.28-0.19-0.48-0.52-0.48h-1.06v0.97h1.06
							C202.94,79.4,203.14,79.21,203.14,78.92z M203.21,80.51c0-0.28-0.2-0.52-0.57-0.52h-1.08v1.04h1.08
							C202.99,81.03,203.21,80.83,203.21,80.51z"/>
						<path fill="#989FA1" d="M204.82,81.61v-3.75h2.57v0.58h-1.91v0.97h1.87v0.58h-1.87v1.04h1.91v0.58H204.82z"/>
						<path fill="#989FA1" d="M210.96,81.61v-3.17h-1.13v-0.58h2.93v0.58h-1.13v3.17H210.96z"/>
						<path fill="#989FA1" d="M213.28,79.74c0-1.12,0.79-1.94,1.91-1.94c1.12,0,1.92,0.82,1.92,1.94c0,1.12-0.8,1.94-1.92,1.94
							C214.07,81.67,213.28,80.85,213.28,79.74z M216.43,79.74c0-0.77-0.49-1.35-1.24-1.35c-0.76,0-1.24,0.58-1.24,1.35
							c0,0.77,0.48,1.35,1.24,1.35C215.94,81.09,216.43,80.51,216.43,79.74z"/>
						<path fill="#989FA1" d="M222.35,81.61l-1.95-2.68v2.68h-0.66v-3.75h0.67l1.92,2.59v-2.59h0.66v3.75H222.35z"/>
						<path fill="#989FA1" d="M224.05,81.61v-3.75h2.57v0.58h-1.91v0.97h1.87v0.58h-1.87v1.04h1.91v0.58H224.05z"/>
						<path fill="#989FA1" d="M230.44,81.61l-0.72-2.77l-0.73,2.77h-0.7l-1.07-3.75h0.73l0.73,2.88l0.78-2.88h0.52l0.78,2.88
							l0.73-2.88h0.74l-1.07,3.75H230.44z"/>
						<path fill="#989FA1" d="M232.67,81.08l0.37-0.51c0.25,0.28,0.66,0.52,1.19,0.52c0.54,0,0.75-0.26,0.75-0.52
							c0-0.79-2.18-0.3-2.18-1.67c0-0.62,0.54-1.1,1.36-1.1c0.58,0,1.06,0.19,1.4,0.53l-0.37,0.49c-0.3-0.3-0.7-0.43-1.09-0.43
							c-0.38,0-0.63,0.19-0.63,0.47c0,0.7,2.18,0.27,2.18,1.66c0,0.62-0.44,1.16-1.45,1.16C233.51,81.67,233.01,81.43,232.67,81.08z
							"/>
					</g>
				</g>
				<rect x="162.12" y="64" clip-path="url(#SVGID_2_)" fill="#989FA1" width="103.49" height="0.75"/>
				<path clip-path="url(#SVGID_2_)" fill="#EEE679" d="M170.94,82.72h-5c-0.44,0-0.8-0.36-0.8-0.8v-5c0-0.44,0.36-0.8,0.8-0.8h5
					c0.44,0,0.8,0.36,0.8,0.8v5C171.74,82.37,171.38,82.72,170.94,82.72z"/>
				<rect x="171.59" y="91.46" clip-path="url(#SVGID_2_)" fill="#EEE679" width="58.34" height="17.7"/>
				<polygon clip-path="url(#SVGID_2_)" fill="#FFFFFF" points="167.69,81.31 166.21,79.83 166.75,79.3 167.69,80.25 170.14,77.81 
					170.66,78.34 				"/>
				<g clip-path="url(#SVGID_2_)">
					<g>
						<path fill="#FFFFFF" d="M187.19,102.21v-3.75h1.84c0.69,0,1.07,0.43,1.07,0.95c0,0.47-0.3,0.79-0.65,0.86
							c0.4,0.06,0.72,0.46,0.72,0.92c0,0.58-0.38,1.02-1.09,1.02H187.19z M189.42,99.53c0-0.27-0.19-0.48-0.52-0.48h-1.06v0.97h1.06
							C189.23,100.01,189.42,99.81,189.42,99.53z M189.5,101.11c0-0.28-0.2-0.52-0.57-0.52h-1.08v1.04h1.08
							C189.28,101.63,189.5,101.44,189.5,101.11z"/>
						<path fill="#FFFFFF" d="M191.11,100.73v-2.26h0.67v2.25c0,0.59,0.33,0.98,0.95,0.98s0.95-0.39,0.95-0.98v-2.25h0.67v2.26
							c0,0.93-0.53,1.55-1.62,1.55C191.65,102.28,191.11,101.65,191.11,100.73z"/>
						<path fill="#FFFFFF" d="M196.49,102.21v-1.56l-1.46-2.19h0.75l1.03,1.6l1.03-1.6h0.75l-1.45,2.19v1.56H196.49z"/>
						<path fill="#FFFFFF" d="M203.62,102.21l-1.95-2.68v2.68h-0.66v-3.75h0.67l1.92,2.59v-2.59h0.66v3.75H203.62z"/>
						<path fill="#FFFFFF" d="M205.16,100.34c0-1.12,0.79-1.94,1.91-1.94c1.12,0,1.92,0.82,1.92,1.94s-0.8,1.94-1.92,1.94
							C205.95,102.28,205.16,101.46,205.16,100.34z M208.32,100.34c0-0.77-0.49-1.35-1.24-1.35c-0.76,0-1.24,0.58-1.24,1.35
							c0,0.77,0.48,1.35,1.24,1.35C207.83,101.69,208.32,101.11,208.32,100.34z"/>
						<path fill="#FFFFFF" d="M212.65,102.21l-0.72-2.77l-0.73,2.77h-0.7l-1.07-3.75h0.73l0.73,2.88l0.78-2.88h0.52l0.78,2.88
							l0.73-2.88h0.74l-1.07,3.75H212.65z"/>
					</g>
				</g>
			</g>
		</g>
	</g>
</g>
<g id="Layer_2">
</g>
<g id="Layer_3">
</g>
<g id="Layer_4">
</g>
<g id="Layer_5">
</g>
<g id="Layer_6">
</g>
</svg>
