<svg xmlns="http://www.w3.org/2000/svg" preserveAspectRatio="xMidYMid" width="57" height="57" viewBox="0 0 57 57"><defs><style>.cls-1 { fill: #b6bcbd; fill-rule: evenodd; }</style></defs><path d="M55.71 38.685H29.79v5.934l9.676 10.2c.49.515.47 1.33-.048 1.82-.25.237-.568.355-.887.355-.34 0-.68-.135-.933-.402l-7.805-8.23v7.342c0 .712-.577 1.29-1.29 1.29-.71 0-1.29-.578-1.29-1.29v-7.34l-7.804 8.228c-.49.516-1.307.538-1.823.048-.517-.49-.54-1.305-.048-1.822l9.676-10.2v-5.936H1.29c-.713 0-1.29-.577-1.29-1.29 0-.71.577-1.29 1.29-1.29h1.29V3.87c0-.712.577-1.29 1.29-1.29h23.34V1.29c0-.712.578-1.29 1.29-1.29.712 0 1.29.578 1.29 1.29v1.29h23.34c.713 0 1.29.576 1.29 1.288v32.238h1.29c.713 0 1.29.578 1.29 1.29 0 .712-.578 1.29-1.29 1.29zM51.842 5.158H5.158v30.948h46.684V5.158zm-40.494 6.19h20.118c.71 0 1.29.58 1.29 1.29 0 .708-.58 1.29-1.29 1.29H11.348c-.71 0-1.29-.582-1.29-1.29 0-.71.58-1.29 1.29-1.29zm0 5.158h23.987c.71 0 1.29.58 1.29 1.29 0 .708-.58 1.29-1.29 1.29H11.348c-.71 0-1.29-.582-1.29-1.29 0-.71.58-1.29 1.29-1.29zm0 5.158h16.25c.71 0 1.29.58 1.29 1.29 0 .708-.58 1.29-1.29 1.29h-16.25c-.71 0-1.29-.582-1.29-1.29 0-.71.58-1.29 1.29-1.29zm0 5.158h29.145c.71 0 1.29.58 1.29 1.29 0 .71-.58 1.29-1.29 1.29H11.348c-.71 0-1.29-.58-1.29-1.29 0-.71.58-1.29 1.29-1.29z" class="cls-1"/></svg>