<?xml version="1.0" encoding="utf-8"?>
<!-- Generator: Adobe Illustrator 22.0.1, SVG Export Plug-In . SVG Version: 6.00 Build 0)  -->
<svg version="1.1" xmlns="http://www.w3.org/2000/svg" xmlns:xlink="http://www.w3.org/1999/xlink" x="0px" y="0px" width="300px"
	 height="124.33px" viewBox="0 0 300 124.33" enable-background="new 0 0 300 124.33" xml:space="preserve">
<g id="Layer_1">
	<g>
		<g>
			<g>
				<path fill="#FFFFFF" d="M184.16,11.64c27.91,18.86,35.24,56.78,16.37,84.69c-18.87,27.91-56.78,35.24-84.69,16.37
					C87.93,93.83,80.6,55.91,99.47,28.01C118.33,0.1,156.25-7.23,184.16,11.64z"/>
				<path fill="#989FA1" d="M149.87,123.55c-12.13,0-23.97-3.61-34.24-10.55c-13.58-9.18-22.77-23.1-25.88-39.19
					c-3.11-16.09,0.23-32.43,9.42-46.01c9.18-13.58,23.1-22.78,39.19-25.89c16.1-3.11,32.44,0.23,46.02,9.42
					c13.58,9.18,22.77,23.1,25.88,39.19c3.11,16.09-0.23,32.44-9.42,46.01c-9.18,13.58-23.1,22.78-39.19,25.89
					C157.72,123.18,153.78,123.55,149.87,123.55z M150.12,1.53c-3.86,0-7.75,0.37-11.63,1.12c-15.9,3.07-29.65,12.15-38.71,25.57
					c-9.07,13.41-12.37,29.55-9.3,45.45s12.15,29.65,25.57,38.71c13.41,9.07,29.56,12.38,45.45,9.3
					c15.9-3.07,29.65-12.15,38.72-25.57c9.07-13.41,12.37-29.56,9.3-45.45c-3.07-15.9-12.15-29.65-25.57-38.71l0,0
					C173.81,5.09,162.1,1.53,150.12,1.53z"/>
			</g>
			<path fill="#ECEFEF" d="M179.53,18.49c24.13,16.31,30.46,49.08,14.15,73.2c-16.31,24.13-49.08,30.46-73.21,14.15
				c-24.13-16.31-30.46-49.08-14.15-73.2C122.63,8.51,155.4,2.18,179.53,18.49z"/>
		</g>
		<g>
			<path fill="#FFFFFF" d="M184.16,11.64c27.91,18.86,35.24,56.78,16.37,84.69c-18.87,27.91-56.78,35.24-84.69,16.37
				C87.93,93.83,80.6,55.91,99.47,28.01C118.33,0.1,156.25-7.23,184.16,11.64z"/>
			<path fill="#989FA1" d="M149.87,123.55c-12.13,0-23.97-3.61-34.24-10.55c-13.58-9.18-22.77-23.1-25.88-39.19
				c-3.11-16.09,0.23-32.43,9.42-46.01c9.18-13.58,23.1-22.78,39.19-25.89c16.1-3.11,32.44,0.23,46.02,9.42
				c13.58,9.18,22.77,23.1,25.88,39.19c3.11,16.09-0.23,32.44-9.42,46.01c-9.18,13.58-23.1,22.78-39.19,25.89
				C157.72,123.18,153.78,123.55,149.87,123.55z M150.12,1.53c-3.86,0-7.75,0.37-11.63,1.12c-15.9,3.07-29.65,12.15-38.71,25.57
				c-9.07,13.41-12.37,29.55-9.3,45.45s12.15,29.65,25.57,38.71c13.41,9.07,29.56,12.38,45.45,9.3
				c15.9-3.07,29.65-12.15,38.72-25.57c9.07-13.41,12.37-29.56,9.3-45.45c-3.07-15.9-12.15-29.65-25.57-38.71l0,0
				C173.81,5.09,162.1,1.53,150.12,1.53z"/>
		</g>
		<path fill="#ECEFEF" d="M179.53,18.49c24.13,16.31,30.46,49.08,14.15,73.2c-16.31,24.13-49.08,30.46-73.21,14.15
			c-24.13-16.31-30.46-49.08-14.15-73.2C122.63,8.51,155.4,2.18,179.53,18.49z"/>
		<g>
			<g>
				<path fill="#989FA1" d="M121.03,69.96V53.29h10.92v1.85h-8.84v5.37h8.67v1.85h-8.67v7.59H121.03z"/>
				<path fill="#989FA1" d="M136.05,69.96V53.29h10.92v1.85h-8.84v5.37h8.67v1.85h-8.67v5.75h8.84v1.85H136.05z"/>
				<path fill="#989FA1" d="M151.51,69.96V53.29h10.92v1.85h-8.84v5.37h8.67v1.85h-8.67v5.75h8.84v1.85H151.51z"/>
				<path fill="#989FA1" d="M165.97,67.61l1.25-1.6c1.07,1.25,2.87,2.4,5.22,2.4c2.97,0,3.92-1.6,3.92-2.9c0-4.3-9.87-1.9-9.87-7.84
					c0-2.75,2.45-4.65,5.75-4.65c2.52,0,4.5,0.87,5.9,2.35l-1.25,1.52c-1.25-1.4-3-2-4.82-2c-1.97,0-3.42,1.07-3.42,2.65
					c0,3.75,9.87,1.6,9.87,7.82c0,2.4-1.65,4.9-6.14,4.9C169.5,70.26,167.35,69.16,165.97,67.61z"/>
			</g>
		</g>
		
			<rect x="89" y="61.79" transform="matrix(0.7071 -0.7071 0.7071 0.7071 -0.0271 124.273)" fill="#989FA1" width="122" height="0.75"/>
	</g>
</g>
<g id="Layer_2">
</g>
<g id="Layer_3">
</g>
<g id="Layer_4">
</g>
<g id="Layer_5">
</g>
<g id="Layer_6">
</g>
</svg>
