<?xml version="1.0" encoding="UTF-8"?>
<svg width="20px" height="22px" viewBox="0 0 20 22" version="1.1" xmlns="http://www.w3.org/2000/svg" xmlns:xlink="http://www.w3.org/1999/xlink">
    <!-- Generator: sketchtool 51 (57462) - http://www.bohemiancoding.com/sketch -->
    <title>D26B1C1D-3651-4553-BB89-905B73B7D33C</title>
    <desc>Created with sketchtool.</desc>
    <defs></defs>
    <g id="Page-1" stroke="none" stroke-width="1" fill="none" fill-rule="evenodd" opacity="0.25">
        <g id="custom-section" transform="translate(-639.000000, -394.000000)">
            <g id="Tabs-+-logos" transform="translate(369.000000, 390.000000)">
                <g id="Angular" transform="translate(270.000000, 0.000000)">
                    <g id="logo-angular" transform="translate(0.000000, 4.000000)">
                        <polygon id="Fill-1" fill="#BABABA" points="9.74335484 0.0002 0.000129032258 3.58753333 1.48916129 16.9108667 9.74529032 21.6462 18.1317419 16.8468667 19.7523871 3.5242 9.74658065 0.0002"></polygon>
                        <polygon id="Fill-2" fill="#2C2E31" points="9.74496774 0.0002 9.74496774 21.6462 18.1320645 16.8548667 19.7520645 3.5242 9.74690323 0.0002"></polygon>
                        <path d="M9.77574194,7.0004 L11.8286452,11.4330667 L7.96993548,11.4330667 L9.77574194,7.0004 Z M9.76025806,2.52773333 L3.688,16.4877333 L5.9563871,16.4484 L7.17574194,13.2984 L12.6228387,13.2984 L13.9576774,16.4877333 L16.1260645,16.5277333 L9.76025806,2.52706667 L9.76025806,2.52773333 Z" id="Fill-3" fill="#FFFFFF"></path>
                    </g>
                </g>
            </g>
        </g>
    </g>
</svg>