<?xml version="1.0" encoding="utf-8"?>
<!-- Generator: Adobe Illustrator 22.0.1, SVG Export Plug-In . SVG Version: 6.00 Build 0)  -->
<svg version="1.1" xmlns="http://www.w3.org/2000/svg" xmlns:xlink="http://www.w3.org/1999/xlink" x="0px" y="0px" width="300px"
	 height="124.33px" viewBox="0 0 300 124.33" enable-background="new 0 0 300 124.33" xml:space="preserve">
<g id="Layer_1">
	<g>
		<g>
			<rect x="58.3" y="9.73" fill="#ECEFEF" width="183.41" height="113.42"/>
			<path fill="#989FA1" d="M242.08,123.52H57.92V9.35h184.16V123.52z M58.67,122.77h182.66V10.1H58.67V122.77z"/>
		</g>
		<g>
			<path fill="#FFFFFF" d="M241.71,9.73H58.29v-6.1c0-1.36,1.1-2.46,2.46-2.46h178.5c1.36,0,2.46,1.1,2.46,2.46V9.73z"/>
			<path fill="#989FA1" d="M242.08,10.1H57.92V3.63c0-1.56,1.27-2.83,2.84-2.83h178.5c1.56,0,2.83,1.27,2.83,2.83V10.1z M58.67,9.35
				h182.67V3.63c0-1.15-0.94-2.08-2.08-2.08H60.75c-1.15,0-2.09,0.94-2.09,2.08V9.35z"/>
		</g>
		<path fill="#989FA1" d="M235.93,6.82c-0.75,0-1.37-0.61-1.37-1.37s0.61-1.37,1.37-1.37s1.37,0.61,1.37,1.37
			S236.69,6.82,235.93,6.82z M235.93,4.83c-0.34,0-0.62,0.28-0.62,0.62s0.28,0.62,0.62,0.62s0.62-0.28,0.62-0.62
			S236.27,4.83,235.93,4.83z"/>
		<path fill="#989FA1" d="M231.42,6.82c-0.75,0-1.37-0.61-1.37-1.37s0.61-1.37,1.37-1.37s1.37,0.61,1.37,1.37
			S232.18,6.82,231.42,6.82z M231.42,4.83c-0.34,0-0.62,0.28-0.62,0.62s0.28,0.62,0.62,0.62s0.62-0.28,0.62-0.62
			S231.77,4.83,231.42,4.83z"/>
		<path fill="#989FA1" d="M226.92,6.82c-0.75,0-1.37-0.61-1.37-1.37s0.61-1.37,1.37-1.37s1.37,0.61,1.37,1.37
			S227.67,6.82,226.92,6.82z M226.92,4.83c-0.34,0-0.62,0.28-0.62,0.62s0.28,0.62,0.62,0.62s0.62-0.28,0.62-0.62
			S227.26,4.83,226.92,4.83z"/>
		<g>
			<path fill="#989FA1" d="M106.77,31.93l0.51-0.66c0.44,0.51,1.18,0.98,2.14,0.98c1.22,0,1.61-0.66,1.61-1.19
				c0-1.76-4.04-0.78-4.04-3.22c0-1.13,1-1.9,2.35-1.9c1.03,0,1.84,0.36,2.42,0.96l-0.51,0.62c-0.51-0.57-1.23-0.82-1.98-0.82
				c-0.81,0-1.4,0.44-1.4,1.09c0,1.54,4.04,0.66,4.04,3.2c0,0.98-0.68,2.01-2.52,2.01C108.21,33.02,107.33,32.57,106.77,31.93z"/>
			<path fill="#989FA1" d="M113.69,30.24v-4.18h0.86v4.16c0,1.25,0.67,2.04,1.92,2.04s1.94-0.79,1.94-2.04v-4.16h0.86v4.17
				c0,1.7-0.94,2.79-2.8,2.79C114.63,33.02,113.69,31.92,113.69,30.24z"/>
			<path fill="#989FA1" d="M121.38,32.9v-6.83h3.04c1.19,0,1.91,0.72,1.91,1.74c0,0.86-0.57,1.43-1.2,1.57
				c0.73,0.11,1.33,0.86,1.33,1.68c0,1.1-0.73,1.84-1.98,1.84H121.38z M125.45,27.93c0-0.61-0.41-1.11-1.18-1.11h-2.05v2.2h2.05
				C125.04,29.03,125.45,28.56,125.45,27.93z M125.59,30.96c0-0.62-0.43-1.18-1.26-1.18h-2.1v2.35h2.1
				C125.12,32.14,125.59,31.69,125.59,30.96z"/>
			<path fill="#989FA1" d="M127.92,31.93l0.51-0.66c0.44,0.51,1.18,0.98,2.14,0.98c1.22,0,1.61-0.66,1.61-1.19
				c0-1.76-4.04-0.78-4.04-3.22c0-1.13,1-1.9,2.35-1.9c1.03,0,1.84,0.36,2.42,0.96l-0.51,0.62c-0.51-0.57-1.23-0.82-1.98-0.82
				c-0.81,0-1.4,0.44-1.4,1.09c0,1.54,4.04,0.66,4.04,3.2c0,0.98-0.68,2.01-2.52,2.01C129.37,33.02,128.49,32.57,127.92,31.93z"/>
			<path fill="#989FA1" d="M134.57,29.49c0-2.1,1.55-3.53,3.51-3.53c1.21,0,2.05,0.57,2.59,1.35l-0.71,0.4
				c-0.39-0.58-1.11-0.99-1.88-0.99c-1.5,0-2.63,1.14-2.63,2.77c0,1.62,1.14,2.77,2.63,2.77c0.78,0,1.49-0.42,1.88-0.99l0.72,0.39
				c-0.57,0.79-1.39,1.36-2.6,1.36C136.12,33.02,134.57,31.59,134.57,29.49z"/>
			<path fill="#989FA1" d="M146.23,32.9l-1.73-2.71h-1.37v2.71h-0.85v-6.83h2.74c1.25,0,2.15,0.8,2.15,2.06
				c0,1.23-0.85,1.9-1.78,1.99l1.84,2.78H146.23z M146.3,28.13c0-0.78-0.56-1.3-1.37-1.3h-1.79v2.61h1.79
				C145.73,29.44,146.3,28.89,146.3,28.13z"/>
			<path fill="#989FA1" d="M149.03,32.9v-6.83h0.85v6.83H149.03z"/>
			<path fill="#989FA1" d="M151.99,32.9v-6.83h2.74c1.37,0,2.14,0.94,2.14,2.06c0,1.12-0.78,2.06-2.14,2.06h-1.89v2.71H151.99z
				 M155.99,28.13c0-0.77-0.55-1.3-1.36-1.3h-1.79v2.6h1.79C155.44,29.43,155.99,28.89,155.99,28.13z"/>
			<path fill="#989FA1" d="M160.2,32.9v-6.07h-2.16v-0.76h5.18v0.76h-2.17v6.07H160.2z"/>
			<path fill="#989FA1" d="M164.86,32.9v-6.83h0.85v6.83H164.86z"/>
			<path fill="#989FA1" d="M167.55,29.49c0-2.02,1.37-3.53,3.39-3.53s3.4,1.52,3.4,3.53c0,2.02-1.38,3.53-3.4,3.53
				S167.55,31.5,167.55,29.49z M173.45,29.49c0-1.6-0.99-2.77-2.52-2.77c-1.54,0-2.51,1.18-2.51,2.77c0,1.59,0.97,2.77,2.51,2.77
				C172.46,32.26,173.45,31.07,173.45,29.49z"/>
			<path fill="#989FA1" d="M181,32.9l-3.98-5.45v5.45h-0.85v-6.83h0.87l3.93,5.33v-5.33h0.85v6.83H181z"/>
		</g>
		<rect x="106.4" y="49.6" fill="#FFFFFF" width="39.71" height="64.47"/>
		<rect x="112.94" y="68.77" fill="#989FA1" width="27.04" height="0.75"/>
		<rect x="112.94" y="74.88" fill="#989FA1" width="27.04" height="0.75"/>
		<rect x="112.94" y="81" fill="#989FA1" width="27.04" height="0.75"/>
		<rect x="112.94" y="87.11" fill="#989FA1" width="27.04" height="0.75"/>
		<rect x="112.94" y="93.23" fill="#989FA1" width="27.04" height="0.75"/>
		<rect x="112.94" y="99.34" fill="#989FA1" width="27.04" height="0.75"/>
		<rect x="112.94" y="105.46" fill="#989FA1" width="19.86" height="0.75"/>
		<g>
			<path fill="#989FA1" d="M116.71,61.91v-1.75h-2.08v1.75h-0.7v-4h0.7v1.63h2.08v-1.63h0.7v4H116.71z"/>
			<path fill="#989FA1" d="M118.56,61.91v-4h0.7v4H118.56z"/>
			<path fill="#989FA1" d="M120.16,61.34l0.4-0.55c0.27,0.29,0.71,0.56,1.27,0.56c0.58,0,0.8-0.28,0.8-0.55
				c0-0.84-2.33-0.32-2.33-1.79c0-0.67,0.58-1.18,1.46-1.18c0.62,0,1.13,0.2,1.49,0.56l-0.4,0.52c-0.32-0.32-0.74-0.46-1.16-0.46
				c-0.41,0-0.67,0.2-0.67,0.5c0,0.75,2.33,0.29,2.33,1.77c0,0.67-0.47,1.24-1.55,1.24C121.05,61.98,120.52,61.71,120.16,61.34z"/>
			<path fill="#989FA1" d="M125.17,61.91v-3.38h-1.21v-0.62h3.12v0.62h-1.21v3.38H125.17z"/>
			<path fill="#989FA1" d="M127.66,59.91c0-1.19,0.85-2.07,2.04-2.07c1.19,0,2.04,0.88,2.04,2.07s-0.85,2.07-2.04,2.07
				C128.5,61.98,127.66,61.1,127.66,59.91z M131.03,59.91c0-0.83-0.52-1.44-1.33-1.44c-0.81,0-1.33,0.62-1.33,1.44
				c0,0.82,0.52,1.45,1.33,1.45C130.51,61.35,131.03,60.73,131.03,59.91z"/>
			<path fill="#989FA1" d="M135.01,61.91l-0.88-1.49h-0.7v1.49h-0.7v-4h1.76c0.79,0,1.31,0.51,1.31,1.25c0,0.71-0.47,1.1-0.95,1.18
				l0.98,1.57H135.01z M135.07,59.15c0-0.38-0.29-0.63-0.68-0.63h-0.97v1.27h0.97C134.79,59.8,135.07,59.54,135.07,59.15z"/>
			<path fill="#989FA1" d="M137.83,61.91v-1.66l-1.55-2.34h0.8l1.1,1.71l1.1-1.71h0.8l-1.55,2.34v1.66H137.83z"/>
		</g>
		<rect x="149.56" y="49.6" fill="#FFFFFF" width="39.71" height="64.47"/>
		<rect x="156.1" y="68.77" fill="#989FA1" width="27.04" height="0.75"/>
		<rect x="156.1" y="74.88" fill="#989FA1" width="27.04" height="0.75"/>
		<rect x="156.1" y="81" fill="#989FA1" width="27.04" height="0.75"/>
		<rect x="156.1" y="87.11" fill="#989FA1" width="27.04" height="0.75"/>
		<rect x="156.1" y="93.23" fill="#989FA1" width="27.04" height="0.75"/>
		<rect x="156.1" y="99.34" fill="#989FA1" width="27.04" height="0.75"/>
		<rect x="156.1" y="105.46" fill="#989FA1" width="19.86" height="0.75"/>
		<g>
			<path fill="#989FA1" d="M162.22,61.91l-0.29-0.77h-1.83l-0.29,0.77H159l1.57-4h0.88l1.57,4H162.22z M161.01,58.61l-0.72,1.91
				h1.44L161.01,58.61z"/>
			<path fill="#989FA1" d="M163.37,59.91c0-1.24,0.92-2.07,2.1-2.07c0.8,0,1.31,0.41,1.6,0.89l-0.59,0.31
				c-0.19-0.34-0.58-0.58-1.01-0.58c-0.79,0-1.38,0.6-1.38,1.44c0,0.83,0.59,1.45,1.38,1.45c0.43,0,0.82-0.25,1.01-0.58l0.6,0.3
				c-0.31,0.48-0.8,0.91-1.61,0.91C164.28,61.98,163.37,61.14,163.37,59.91z"/>
			<path fill="#989FA1" d="M168.89,61.91v-3.38h-1.21v-0.62h3.12v0.62h-1.21v3.38H168.89z"/>
			<path fill="#989FA1" d="M171.69,61.91v-4h0.7v4H171.69z"/>
			<path fill="#989FA1" d="M174.71,61.91l-1.57-4h0.8l1.21,3.23l1.21-3.23h0.8l-1.57,4H174.71z"/>
			<path fill="#989FA1" d="M177.89,61.91v-4h2.74v0.62h-2.04v1.03h2v0.62h-2v1.12h2.04v0.62H177.89z"/>
		</g>
		<rect x="192.72" y="49.6" fill="#FFFFFF" width="39.71" height="64.47"/>
		<rect x="199.26" y="68.77" fill="#989FA1" width="27.04" height="0.75"/>
		<rect x="199.26" y="74.88" fill="#989FA1" width="27.04" height="0.75"/>
		<rect x="199.26" y="81" fill="#989FA1" width="27.04" height="0.75"/>
		<rect x="199.26" y="87.11" fill="#989FA1" width="27.04" height="0.75"/>
		<rect x="199.26" y="93.23" fill="#989FA1" width="27.04" height="0.75"/>
		<rect x="199.26" y="99.34" fill="#989FA1" width="27.04" height="0.75"/>
		<rect x="199.26" y="105.46" fill="#989FA1" width="19.87" height="0.75"/>
		<g>
			<path fill="#989FA1" d="M197.26,61.91v-4h1.76c0.84,0,1.3,0.57,1.3,1.25c0,0.68-0.47,1.25-1.3,1.25h-1.06v1.5H197.26z
				 M199.6,59.16c0-0.38-0.28-0.64-0.68-0.64h-0.97v1.27h0.97C199.32,59.79,199.6,59.54,199.6,59.16z"/>
			<path fill="#989FA1" d="M203.57,61.91l-0.29-0.77h-1.83l-0.29,0.77h-0.8l1.57-4h0.88l1.57,4H203.57z M202.36,58.61l-0.72,1.91
				h1.44L202.36,58.61z"/>
			<path fill="#989FA1" d="M205.85,61.91v-1.66l-1.55-2.34h0.8l1.1,1.71l1.1-1.71h0.8l-1.55,2.34v1.66H205.85z"/>
			<path fill="#989FA1" d="M212.29,61.91v-3.09l-1.22,3.09h-0.3l-1.23-3.09v3.09h-0.7v-4h0.99l1.09,2.75l1.08-2.75h0.99v4H212.29z"
				/>
			<path fill="#989FA1" d="M214.14,61.91v-4h2.74v0.62h-2.04v1.03h2v0.62h-2v1.12h2.04v0.62H214.14z"/>
			<path fill="#989FA1" d="M220.69,61.91l-2.09-2.86v2.86h-0.7v-4h0.72l2.04,2.77v-2.77h0.7v4H220.69z"/>
			<path fill="#989FA1" d="M223.48,61.91v-3.38h-1.21v-0.62h3.12v0.62h-1.21v3.38H223.48z"/>
			<path fill="#989FA1" d="M226,61.34l0.4-0.55c0.27,0.29,0.71,0.56,1.27,0.56c0.58,0,0.8-0.28,0.8-0.55c0-0.84-2.33-0.32-2.33-1.79
				c0-0.67,0.58-1.18,1.46-1.18c0.62,0,1.13,0.2,1.49,0.56l-0.4,0.52c-0.32-0.32-0.74-0.46-1.16-0.46c-0.41,0-0.67,0.2-0.67,0.5
				c0,0.75,2.33,0.29,2.33,1.77c0,0.67-0.47,1.24-1.55,1.24C226.89,61.98,226.36,61.71,226,61.34z"/>
		</g>
		<g>
			<rect x="58.4" y="9.74" fill="#FFFFFF" width="39.32" height="113.43"/>
			<path fill="#989FA1" d="M98.09,123.54H58.02V9.36h40.07V123.54z M58.77,122.79h38.57V10.11H58.77V122.79z"/>
		</g>
		<path fill="#989FA1" d="M92.45,25.41H64.31v-9.02h28.14V25.41z M65.06,24.66H91.7v-7.52H65.06V24.66z"/>
	</g>
</g>
<g id="Layer_2">
</g>
<g id="Layer_3">
</g>
<g id="Layer_4">
</g>
<g id="Layer_5">
</g>
<g id="Layer_6">
</g>
</svg>
