<?xml version="1.0" encoding="utf-8"?>
<!-- Generator: Adobe Illustrator 19.0.0, SVG Export Plug-In . SVG Version: 6.00 Build 0)  -->
<svg version="1.1" id="Layer_1" xmlns="http://www.w3.org/2000/svg" xmlns:xlink="http://www.w3.org/1999/xlink" x="0px" y="0px"
	 viewBox="-273 364 65 65" style="enable-background:new -273 364 65 65;" xml:space="preserve">
<style type="text/css">
	.st0{fill:#B7BEBF;}
</style>
<g>
	<g>
		<path class="st0" d="M-239.5,396.9l-0.5-0.1v-10.4l0.8,0.2c2,0.6,3.4,2.3,3.6,4.4h1.3c-0.3-3-2.4-5.4-5.2-5.9l-0.5-0.1v-2.4h-1.3
			v2.5l-0.5,0.1c-3,0.6-5.3,3.3-5.3,6.3c0,3.1,2.4,6.1,5.3,6.7l0.5,0.1v10.4l-0.8-0.3c-1.8-0.6-3.2-2.4-3.4-4.4h-1.3
			c0.3,2.9,2.3,5.3,5,5.9l0.5,0.1v2.6h1.3v-2.5l0.5-0.1c3-0.5,5.1-3.3,5.1-6.5C-234.3,400.2-236.5,397.5-239.5,396.9z M-241.3,396.9
			l-0.8-0.3c-2.1-0.7-3.7-3-3.7-5.1c0-2.1,1.5-4,3.7-4.8l0.8-0.3V396.9z M-239.2,408.5l-0.8,0.2v-10.4l0.8,0.2
			c2.1,0.6,3.6,2.6,3.6,5S-237.1,407.8-239.2,408.5z"/>
	</g>
	<path class="st0" d="M-223.6,385.1c-3.5,0-6.4,3-6.4,6.6v2.9h-1.6v1.4h1.6v2.9h-1.6v1.4h1.6v3.1c0,3.7,2.9,6.6,6.4,6.6
		c1.7,0,3.3-0.7,4.5-2c1.1-1.2,1.8-2.7,1.9-4.3h-1.4c-0.2,2.7-2.4,4.8-5,4.8c-2.8,0-5-2.3-5-5.2v-3.1h9.2V399h-9.2v-2.9h9.2v-1.4
		h-9.2v-2.9c0-2.9,2.3-5.2,5-5.2c2.7,0,4.8,2.1,5,4.8h1.4C-217.4,387.9-220.2,385.1-223.6,385.1z"/>
	<path class="st0" d="M-256.6,385.1c-3.5,0-6.4,2.9-6.4,6.5v5.2h-1.6v1.4h1.6v5.6c0,2.4-1,3.7-1.6,4.4v1.9h14.3v-1.4H-263l0.3-0.6
		c0.7-1.1,1-2.6,1-4.3v-5.6h9.2v-1.4h-9.2v-5.2c0-2.8,2.3-5.1,5-5.1c2.6,0,4.8,2.1,5,4.8h1.4C-250.4,387.9-253.2,385.1-256.6,385.1z
		"/>
	<g>
		<path class="st0" d="M-260.1,383.8l-1.1-0.7c4.8-6.9,12.6-11,21-11c8.4,0,16.3,4.1,21,11l-1.1,0.7c-4.5-6.6-12-10.5-20-10.5
			C-248.1,373.3-255.6,377.3-260.1,383.8z"/>
		<path class="st0" d="M-240.2,423.2c-7.4,0-14.5-3.2-19.3-8.8l1-0.9c4.6,5.3,11.3,8.4,18.3,8.4c7,0,13.7-3.1,18.3-8.4l1,0.9
			C-225.7,420-232.7,423.2-240.2,423.2z"/>
	</g>
</g>
</svg>
