<svg xmlns="http://www.w3.org/2000/svg" preserveAspectRatio="xMidYMid" width="70.969" height="50.97" viewBox="0 0 70.969 50.97"><defs><style>.cls-1 { fill: #b6bcbd; fill-rule: evenodd; }</style></defs><path d="M69.668 13.544l-.137.053c-.79.336-1.346 1.167-1.35 2.02-.003.928.587 1.764 1.47 2.078.97.348 1.505 1.393 1.217 2.38-.343 1.176-.82 2.312-1.42 3.377-.352.613-1.004.993-1.703.993-.285 0-.562-.06-.82-.18-.266-.126-.577-.19-.9-.19-.617 0-1.217.228-1.604.61-.65.645-.828 1.644-.443 2.485.42.923.055 2.03-.833 2.517-.516.284-1.053.542-1.597.767-.572.237-1.163.443-1.758.612-.175.05-.354.074-.536.074-.83 0-1.568-.525-1.84-1.31-.31-.88-1.14-1.475-2.073-1.477-.87 0-1.783.644-2.076 1.467-.277.774-1.015 1.295-1.836 1.295-.187 0-.37-.026-.55-.08-1.17-.34-2.294-.814-3.347-1.406-.882-.494-1.24-1.6-.81-2.52.39-.84.22-1.84-.426-2.49-.415-.418-.987-.657-1.57-.657-.29 0-.568.058-.82.17l-.03.013c-.258.107-.548.163-.84.163-.756 0-1.43-.367-1.756-.958-.596-1.077-1.066-2.216-1.398-3.385-.276-.988.218-1.977 1.18-2.352.928-.39 1.53-1.212 1.535-2.09.004-.93-.586-1.766-1.468-2.08-.97-.348-1.504-1.393-1.216-2.38.34-1.17.818-2.306 1.42-3.377.35-.615 1-.996 1.7-.996.29 0 .568.063.83.185.26.12.57.186.892.186.61 0 1.224-.234 1.604-.61.65-.645.827-1.644.44-2.487-.42-.924-.053-2.03.834-2.517C48.69.87 49.82.407 50.986.072c.175-.05.356-.073.536-.073.83 0 1.568.526 1.84 1.31.31.88 1.14 1.476 2.073 1.48.858 0 1.79-.658 2.077-1.466C57.788.55 58.526.028 59.35.028c.183 0 .366.026.542.077 1.156.335 2.282.807 3.35 1.404.886.492 1.243 1.6.813 2.52-.39.838-.218 1.838.428 2.49.41.413.963.64 1.553.64.302 0 .6-.06.885-.177.254-.104.538-.16.824-.16.754 0 1.427.37 1.756.963.594 1.077 1.065 2.217 1.396 3.387.277.976-.27 2.037-1.227 2.37zm-1.044-2.18c-.23-.722-.525-1.435-.876-2.118l-.08-.156-.166.057c-.473.162-.966.245-1.466.245-1.19 0-2.303-.462-3.137-1.3-1.188-1.196-1.59-3-1.03-4.596l.054-.166-.155-.08c-.67-.35-1.37-.644-2.084-.876l-.168-.054-.08.16c-.724 1.495-2.372 2.54-4.007 2.54-1.713-.01-3.29-1.017-4.01-2.567l-.075-.162-.17.058c-.716.23-1.42.517-2.088.86l-.157.08.058.165c.548 1.604.13 3.405-1.063 4.59C47.12 8.84 45.962 9.3 44.75 9.3c-.498 0-.98-.08-1.435-.236l-.165-.055-.08.153c-.356.677-.655 1.388-.89 2.11l-.056.17.16.077c1.55.732 2.546 2.31 2.54 4.017-.01 1.66-.996 3.186-2.578 3.985l-.154.078.053.164c.23.726.525 1.442.877 2.128l.082.16.168-.06c.46-.168.95-.252 1.45-.252 1.172 0 2.32.478 3.15 1.31 1.187 1.195 1.593 3 1.032 4.598l-.057.166.154.08c.668.347 1.368.642 2.085.877l.168.056.077-.16c.725-1.495 2.37-2.54 4-2.54 1.717.006 3.295 1.012 4.02 2.565l.075.16.17-.053c.368-.117.736-.252 1.093-.4.338-.14.672-.294.995-.46l.157-.08-.057-.165c-.55-1.6-.134-3.4 1.06-4.585.81-.8 1.966-1.258 3.175-1.258.498 0 .982.08 1.438.234l.165.058.08-.155c.356-.674.655-1.385.89-2.113l.058-.17-.163-.076c-1.55-.733-2.546-2.31-2.538-4.016.005-1.702 1.013-3.272 2.566-4l.16-.074-.052-.17zM57.766 21.24c-.747.31-1.533.466-2.338.466-2.486 0-4.708-1.48-5.66-3.772-1.29-3.115.193-6.7 3.31-7.99.746-.31 1.533-.467 2.337-.467 2.487 0 4.71 1.48 5.66 3.772.625 1.504.624 3.165 0 4.676-.627 1.51-1.802 2.687-3.31 3.31zm1.25-7.137c-.606-1.457-2.02-2.398-3.6-2.398-.51 0-1.01.1-1.484.296-1.98.824-2.924 3.1-2.102 5.08.604 1.46 2.017 2.4 3.6 2.4.508 0 1.007-.1 1.48-.297 1.982-.82 2.926-3.098 2.105-5.077zm-19.343 11.34c1.087 0 2.348.786 2.49 2.06.182 1.603.178 3.22-.008 4.81-.138 1.17-1.124 2.054-2.293 2.054-.045 0-.09-.002-.147-.004l-.202-.006c-1.27.008-2.452.795-2.938 1.956-.522 1.243-.196 2.69.81 3.6.912.826 1.022 2.222.25 3.18-1.005 1.252-2.157 2.39-3.42 3.38-.414.32-.925.495-1.438.495-.65 0-1.276-.275-1.715-.753-.58-.635-1.524-1.03-2.466-1.03-.397 0-.784.073-1.12.21-1.228.503-2.022 1.74-1.973 3.08.04 1.21-.868 2.262-2.07 2.394-1.58.172-3.204.166-4.763-.016-1.223-.14-2.124-1.213-2.05-2.445.076-1.35-.71-2.61-1.954-3.13-.34-.143-.734-.22-1.14-.22-.944 0-1.887.396-2.46 1.03-.443.487-1.073.766-1.728.766-.528 0-1.046-.183-1.457-.514-1.24-1-2.37-2.14-3.35-3.388-.746-.945-.633-2.326.26-3.145.99-.91 1.316-2.345.812-3.574-.486-1.182-1.642-1.977-2.88-1.977h-.1c-1.1 0-2.373-.788-2.515-2.06-.18-1.606-.177-3.224.01-4.81.147-1.216 1.142-2.08 2.38-2.052 1.448-.01 2.703-.774 3.198-1.95.522-1.245.196-2.69-.81-3.6-.91-.83-1.02-2.224-.25-3.18 1-1.248 2.152-2.386 3.422-3.38.41-.32.92-.497 1.437-.497.654 0 1.28.277 1.72.76.575.632 1.52 1.024 2.465 1.024.396 0 .78-.07 1.114-.207 1.228-.503 2.022-1.743 1.975-3.085-.04-1.208.867-2.26 2.07-2.39 1.574-.177 3.176-.172 4.76.01 1.224.144 2.126 1.217 2.053 2.446-.077 1.35.708 2.61 1.953 3.134.338.14.732.216 1.14.216.944 0 1.887-.393 2.46-1.026.44-.487 1.068-.766 1.726-.766.526 0 1.042.18 1.452.51 1.235.987 2.364 2.126 3.356 3.385.75.95.637 2.336-.258 3.153-.987.906-1.312 2.34-.81 3.572.493 1.2 1.673 1.975 3.005 1.975zm-5.256-1.056c-.84-2.052-.385-4.42 1.157-6.03l.186-.194-.17-.208c-.738-.898-1.558-1.726-2.437-2.46l-.21-.174-.195.19c-1.04.994-2.5 1.564-4.008 1.564-.736 0-1.436-.136-2.08-.404-2.075-.874-3.43-2.894-3.45-5.148l-.002-.273-.272-.027c-1.15-.11-2.315-.113-3.462-.01l-.27.025-.007.27c-.067 2.23-1.435 4.212-3.487 5.052-.632.257-1.317.388-2.036.388-1.505 0-2.965-.568-4.008-1.558l-.194-.184-.208.17c-.908.74-1.748 1.57-2.496 2.464l-.175.21.19.196c1.57 1.62 2.023 4.01 1.152 6.084-.844 2.01-2.82 3.324-5.157 3.433l-.263.012-.025.262c-.113 1.16-.115 2.34-.007 3.515l.025.273.274.003c2.183.024 4.22 1.425 5.067 3.485.84 2.05.386 4.418-1.158 6.03l-.186.194.17.21c.73.89 1.55 1.717 2.434 2.46l.21.174.197-.187c1.042-.994 2.503-1.564 4.007-1.564.736 0 1.436.137 2.08.407 2.076.868 3.43 2.887 3.452 5.144l.002.274.272.026c.588.058 1.18.086 1.776.086.56 0 1.124-.026 1.685-.076l.27-.024.01-.27c.063-2.228 1.43-4.21 3.484-5.05.634-.26 1.32-.39 2.04-.39 1.502 0 2.962.567 4.006 1.558l.194.184.208-.17c.902-.736 1.742-1.566 2.496-2.465l.175-.21-.19-.197c-1.573-1.622-2.026-4.01-1.155-6.083.856-2.04 2.924-3.425 5.15-3.447l.272-.002.027-.272c.11-1.16.112-2.34.004-3.507l-.023-.268-.27-.008c-2.242-.07-4.234-1.437-5.073-3.484zm-13.252 13.27c-4.283 0-7.768-3.483-7.768-7.763 0-4.28 3.485-7.762 7.768-7.762 4.284 0 7.77 3.482 7.77 7.762 0 4.28-3.486 7.762-7.77 7.762zm0-13.297c-3.053 0-5.538 2.483-5.538 5.534 0 3.05 2.485 5.534 5.538 5.534 3.054 0 5.538-2.483 5.538-5.534 0-3.05-2.484-5.534-5.538-5.534z" class="cls-1"/></svg>