<?xml version="1.0" encoding="utf-8"?>
<!-- Generator: Adobe Illustrator 22.0.1, SVG Export Plug-In . SVG Version: 6.00 Build 0)  -->
<svg version="1.1" xmlns="http://www.w3.org/2000/svg" xmlns:xlink="http://www.w3.org/1999/xlink" x="0px" y="0px" width="300px"
	 height="151.17px" viewBox="0 0 300 151.17" enable-background="new 0 0 300 151.17" xml:space="preserve">
<g id="Layer_1">
	<g>
		<g>
			<path fill="#989FA1" d="M156.12,119.62c-0.21,0-0.41,0-0.61-0.01c-0.38,0.01-0.76-0.01-1.15-0.03c-0.91-0.03-1.81-0.09-2.66-0.18
				c-22.74-2.25-39.89-21.21-39.89-44.09c0-22.87,17.13-41.82,39.85-44.08c0.89-0.09,1.78-0.15,2.65-0.18
				c0.4-0.02,0.8-0.03,1.2-0.03c0.38-0.01,0.81-0.01,1.21,0c0,0,0.01,0,0.01,0c0.39,0,0.79,0.01,1.19,0.03
				c0.87,0.03,1.76,0.09,2.65,0.18c22.72,2.27,39.85,21.22,39.85,44.08c0,22.89-17.15,41.84-39.89,44.09
				c-0.85,0.09-1.74,0.15-2.66,0.18c-0.38,0.02-0.77,0.03-1.16,0.03C156.53,119.62,156.33,119.62,156.12,119.62z M156.12,118.87
				c0.19-0.02,0.39,0,0.58-0.01c0.39,0,0.77-0.01,1.14-0.03c0.91-0.03,1.79-0.09,2.62-0.18c22.36-2.21,39.22-20.85,39.22-43.35
				c0-22.48-16.84-41.11-39.18-43.34c-0.88-0.09-1.75-0.15-2.61-0.18c-0.39-0.02-0.78-0.03-1.18-0.03
				c-0.21-0.01-0.43-0.01-0.61-0.01c-0.19,0-0.38,0-0.57,0.01c-0.41,0-0.8,0.01-1.18,0.03c-0.86,0.03-1.74,0.09-2.61,0.18
				c-22.33,2.23-39.18,20.86-39.18,43.34c0,22.5,16.86,41.14,39.21,43.35c0.83,0.08,1.71,0.14,2.62,0.18
				c0.38,0.02,0.76,0.03,1.13,0.03C155.73,118.87,155.95,118.87,156.12,118.87z"/>
			<circle fill="#ECEFEF" cx="155.73" cy="75.26" r="37.94"/>
			<path fill="#989FA1" d="M157.36,119.42l-0.66-0.36c2.67-4.87,11.37-22.43,11.37-43.79c0-21.38-8.7-38.85-11.36-43.7l0.66-0.36
				c2.69,4.88,11.46,22.5,11.46,44.06C168.82,96.8,160.05,114.5,157.36,119.42z"/>
			<path fill="#989FA1" d="M158.99,119.52l-0.41-0.63c7.05-4.54,30.03-21.12,30.03-43.63c0-22.93-22.93-39.11-29.95-43.53l0.4-0.63
				c3.94,2.47,11.53,7.75,18.11,15.27c8.09,9.25,12.19,18.97,12.19,28.89C189.37,98.15,166.12,114.92,158.99,119.52z"/>
			<path fill="#989FA1" d="M154.88,119.42c-2.69-4.91-11.46-22.62-11.46-44.15c0-21.56,8.77-39.17,11.46-44.06l0.66,0.36
				c-2.67,4.84-11.36,22.31-11.36,43.7c0,21.36,8.7,38.92,11.37,43.79L154.88,119.42z"/>
			<path fill="#989FA1" d="M153.25,119.52c-7.12-4.59-30.37-21.37-30.37-44.26c0-23.32,23.19-39.7,30.3-44.16l0.4,0.63
				c-7.03,4.41-29.95,20.6-29.95,43.53c0,22.51,22.98,39.09,30.03,43.63L153.25,119.52z"/>
			<path fill="#989FA1" d="M187.18,106.49c-8.58-5.73-19.05-8.63-31.1-8.63c-12.04,0-22.48,2.9-31.03,8.61l-0.42-0.62
				c8.68-5.79,19.26-8.73,31.45-8.73c12.21,0,22.81,2.95,31.52,8.76L187.18,106.49z"/>
			<path fill="#989FA1" d="M156.17,53.51c-12.21,0-22.81-2.95-31.51-8.76l0.42-0.62c8.58,5.73,19.04,8.63,31.1,8.63
				c12.04,0,22.48-2.9,31.03-8.61l0.42,0.62C178.94,50.58,168.36,53.51,156.17,53.51z"/>
			<rect x="112.19" y="74.93" fill="#989FA1" width="87.87" height="0.75"/>
		</g>
		<g>
			<path fill="#EEE679" d="M174.41,67.06v16.31c0,1.42-1.01,3.17-2.24,3.89l-14.13,8.15c-1.23,0.71-3.26,0.71-4.49,0l-14.13-8.15
				c-1.23-0.71-2.24-2.46-2.24-3.89V67.06c0-1.42,1.01-3.17,2.24-3.89l14.13-8.15c1.23-0.71,3.26-0.71,4.49,0l14.13,8.16
				C173.4,63.9,174.41,65.64,174.41,67.06z"/>
		</g>
		<g>
			<path fill="#FFFFFF" d="M159.18,65.44c-0.8-0.74-1.96-1.2-3.39-1.2c-2.98,0-4.81,1.83-4.81,4.1v4.82h9.44v-4.82
				C160.43,67.21,159.98,66.18,159.18,65.44z M152.41,71.13v-2.8c0-1.47,1.16-2.67,3.38-2.67c1.83,0,3.2,1.2,3.2,2.67v2.8H152.41z"
				/>
			<rect x="152.41" y="71.13" fill="none" width="6.58" height="0.6"/>
			<path fill="#FFFFFF" d="M162.42,71.13h-13.26c-0.49,0-0.89,0.4-0.89,0.89v10.9c0,0.49,0.4,0.89,0.89,0.89h13.26
				c0.49,0,0.89-0.4,0.89-0.89v-10.9C163.31,71.53,162.91,71.13,162.42,71.13z M156.95,78.15v1.16c0,0.64-0.52,1.15-1.15,1.15
				c-0.63,0-1.15-0.52-1.15-1.15v-1.16c-0.47-0.35-0.77-0.91-0.77-1.54c0-1.06,0.86-1.93,1.92-1.93c1.07,0,1.93,0.86,1.93,1.93
				C157.72,77.24,157.42,77.8,156.95,78.15z"/>
		</g>
		<path fill="#989FA1" d="M225.19,48.92c-14.7-38.28-57.8-57.5-96.09-42.84c-19.69,7.54-35.31,23.15-42.87,42.84l-0.7-0.27
			c7.63-19.89,23.42-35.66,43.3-43.27c38.68-14.8,82.22,4.61,97.06,43.27L225.19,48.92z"/>
		<path fill="#989FA1" d="M155.8,150.76c-30.24,0-58.82-18.38-70.28-48.24l0.7-0.27c14.7,38.28,57.8,57.5,96.09,42.84
			c19.72-7.55,35.35-23.19,42.9-42.92l0.7,0.27c-7.62,19.93-23.42,35.73-43.33,43.35C173.78,149.16,164.71,150.76,155.8,150.76z"/>
		<polygon fill="#989FA1" points="225.69,49.36 216.34,45.08 216.66,44.4 225.32,48.36 229.28,39.7 229.96,40.01 		"/>
		<polygon fill="#989FA1" points="82.13,111.46 81.45,111.15 85.72,101.8 95.07,106.08 94.75,106.76 86.09,102.8 		"/>
		<polygon fill="#989FA1" points="97.82,75.16 80.51,60.3 63.26,75.16 62.77,74.59 80.51,59.31 98.31,74.59 		"/>
		<g>
			<rect x="60.75" y="72.21" fill="#FFFFFF" width="39.51" height="18.49"/>
			<path fill="#989FA1" d="M100.63,91.07H60.38V71.83h40.26V91.07z M61.13,90.32h38.76V72.58H61.13V90.32z"/>
		</g>
		<g>
			<path fill="#989FA1" d="M66.47,83.67l0.44-0.56c0.38,0.44,1.01,0.84,1.84,0.84c1.05,0,1.38-0.56,1.38-1.02
				c0-1.51-3.48-0.67-3.48-2.76c0-0.97,0.86-1.64,2.02-1.64c0.89,0,1.58,0.31,2.08,0.83l-0.44,0.54c-0.44-0.49-1.06-0.7-1.7-0.7
				c-0.7,0-1.21,0.38-1.21,0.93c0,1.32,3.48,0.56,3.48,2.76c0,0.85-0.58,1.73-2.17,1.73C67.71,84.61,66.95,84.22,66.47,83.67z"/>
			<path fill="#989FA1" d="M73.82,84.5v-5.22h-1.86v-0.65h4.46v0.65h-1.87v5.22H73.82z"/>
			<path fill="#989FA1" d="M77.35,81.57c0-1.73,1.18-3.04,2.91-3.04s2.92,1.3,2.92,3.04s-1.19,3.04-2.92,3.04
				S77.35,83.3,77.35,81.57z M82.43,81.57c0-1.37-0.85-2.39-2.17-2.39c-1.32,0-2.16,1.01-2.16,2.39c0,1.36,0.84,2.39,2.16,2.39
				C81.57,83.95,82.43,82.93,82.43,81.57z"/>
			<path fill="#989FA1" d="M88.15,84.5l-1.49-2.33h-1.18v2.33h-0.73v-5.87h2.36c1.07,0,1.85,0.69,1.85,1.77
				c0,1.06-0.73,1.64-1.53,1.71l1.58,2.39H88.15z M88.21,80.4c0-0.67-0.48-1.12-1.18-1.12h-1.54v2.25h1.54
				C87.72,81.52,88.21,81.06,88.21,80.4z"/>
			<path fill="#989FA1" d="M90.55,84.5v-5.87h3.85v0.65h-3.12v1.89h3.05v0.65h-3.05v2.03h3.12v0.65H90.55z"/>
		</g>
		<g>
			<circle fill="#FFFFFF" cx="80.51" cy="59.81" r="2.52"/>
			<path fill="#989FA1" d="M80.51,62.7c-1.6,0-2.9-1.3-2.9-2.9s1.3-2.9,2.9-2.9s2.9,1.3,2.9,2.9S82.1,62.7,80.51,62.7z M80.51,57.66
				c-1.18,0-2.15,0.96-2.15,2.15c0,1.18,0.96,2.15,2.15,2.15s2.15-0.96,2.15-2.15C82.65,58.62,81.69,57.66,80.51,57.66z"/>
		</g>
		<g>
			<path fill="#FFFFFF" d="M239.25,90.33h-25.19v-3.16c0-6.13,4.97-11.1,11.1-11.1h2.99c6.13,0,11.1,4.97,11.1,11.1V90.33z"/>
			<path fill="#989FA1" d="M239.62,90.71h-25.94v-3.54c0-6.33,5.15-11.48,11.47-11.48h2.99c6.33,0,11.48,5.15,11.48,11.48V90.71z
				 M214.43,89.96h24.44v-2.79c0-5.91-4.81-10.73-10.73-10.73h-2.99c-5.91,0-10.72,4.81-10.72,10.73V89.96z"/>
		</g>
		<g>
			<circle fill="#FFFFFF" cx="226.65" cy="69.64" r="8.81"/>
			<path fill="#989FA1" d="M226.65,78.82c-5.06,0-9.18-4.12-9.18-9.18s4.12-9.18,9.18-9.18c5.06,0,9.18,4.12,9.18,9.18
				S231.71,78.82,226.65,78.82z M226.65,61.2c-4.65,0-8.43,3.78-8.43,8.43s3.78,8.43,8.43,8.43s8.43-3.78,8.43-8.43
				S231.3,61.2,226.65,61.2z"/>
		</g>
	</g>
</g>
<g id="Layer_2">
</g>
<g id="Layer_3">
</g>
<g id="Layer_4">
</g>
<g id="Layer_5">
</g>
<g id="Layer_6">
</g>
</svg>
