<?xml version="1.0" encoding="utf-8"?>
<!-- Generator: Adobe Illustrator 22.0.1, SVG Export Plug-In . SVG Version: 6.00 Build 0)  -->
<svg version="1.1" xmlns="http://www.w3.org/2000/svg" xmlns:xlink="http://www.w3.org/1999/xlink" x="0px" y="0px" width="300px"
	 height="124.83px" viewBox="0 0 300 124.83" enable-background="new 0 0 300 124.83" xml:space="preserve">
<g id="Layer_1">
	<g>
		<g>
			<g>
				<g>
					<rect x="20.65" y="9.98" fill="#ECEFEF" width="183.44" height="113.44"/>
					<path fill="#989FA1" d="M204.47,123.79H20.28V9.6h184.19V123.79z M21.03,123.04h182.69V10.35H21.03V123.04z"/>
				</g>
			</g>
			<g>
				<path fill="#FFFFFF" d="M204.1,9.98H20.65v-6.1c0-1.36,1.1-2.46,2.46-2.46h178.53c1.36,0,2.46,1.1,2.46,2.46V9.98z"/>
				<path fill="#989FA1" d="M204.47,10.35H20.27V3.88c0-1.56,1.27-2.84,2.83-2.84h178.53c1.56,0,2.83,1.27,2.83,2.84V10.35z
					 M21.02,9.6h182.7V3.88c0-1.15-0.94-2.09-2.08-2.09H23.11c-1.15,0-2.08,0.94-2.08,2.09V9.6z"/>
			</g>
			<path fill="#989FA1" d="M198.32,7.07c-0.75,0-1.37-0.61-1.37-1.37s0.61-1.37,1.37-1.37s1.37,0.61,1.37,1.37
				S199.07,7.07,198.32,7.07z M198.32,5.08c-0.34,0-0.62,0.28-0.62,0.62s0.28,0.62,0.62,0.62s0.62-0.28,0.62-0.62
				S198.66,5.08,198.32,5.08z"/>
			<path fill="#989FA1" d="M193.81,7.07c-0.75,0-1.37-0.61-1.37-1.37s0.61-1.37,1.37-1.37s1.37,0.61,1.37,1.37
				S194.57,7.07,193.81,7.07z M193.81,5.08c-0.34,0-0.62,0.28-0.62,0.62s0.28,0.62,0.62,0.62s0.62-0.28,0.62-0.62
				S194.15,5.08,193.81,5.08z"/>
			<path fill="#989FA1" d="M189.31,7.07c-0.75,0-1.37-0.61-1.37-1.37s0.61-1.37,1.37-1.37s1.37,0.61,1.37,1.37
				S190.06,7.07,189.31,7.07z M189.31,5.08c-0.34,0-0.62,0.28-0.62,0.62s0.28,0.62,0.62,0.62s0.62-0.28,0.62-0.62
				S189.65,5.08,189.31,5.08z"/>
			<g>
				<path fill="#FFFFFF" d="M192.1,123.4H32.64V36.97c0-0.67,0.55-1.22,1.22-1.22h157.02c0.67,0,1.22,0.55,1.22,1.22V123.4z"/>
				<path fill="#989FA1" d="M192.48,123.78H32.26V36.97c0-0.88,0.72-1.6,1.6-1.6h157.02c0.88,0,1.6,0.72,1.6,1.6V123.78z
					 M33.01,123.03h158.72V36.97c0-0.47-0.38-0.85-0.85-0.85H33.86c-0.47,0-0.85,0.38-0.85,0.85V123.03z"/>
			</g>
			<g>
				<path fill="#FFFFFF" d="M57.69,28.37H33.72c-0.71,0-1.28-0.57-1.28-1.28v-6.65c0-0.71,0.57-1.28,1.28-1.28h23.98
					c0.71,0,1.28,0.57,1.28,1.28v6.65C58.98,27.8,58.4,28.37,57.69,28.37z"/>
				<path fill="#989FA1" d="M57.69,28.75H33.72c-0.91,0-1.66-0.74-1.66-1.66v-6.65c0-0.91,0.74-1.66,1.66-1.66h23.98
					c0.91,0,1.66,0.74,1.66,1.66v6.65C59.35,28,58.61,28.75,57.69,28.75z M33.72,19.53c-0.5,0-0.91,0.41-0.91,0.91v6.65
					c0,0.5,0.41,0.91,0.91,0.91h23.98c0.5,0,0.91-0.41,0.91-0.91v-6.65c0-0.5-0.41-0.91-0.91-0.91H33.72z"/>
			</g>
			<rect x="114.9" y="24.67" fill="#989FA1" width="16.22" height="0.75"/>
			<rect x="135.04" y="24.67" fill="#989FA1" width="16.21" height="0.75"/>
			<rect x="155.19" y="24.67" fill="#989FA1" width="16.22" height="0.75"/>
			<rect x="175.34" y="24.67" fill="#989FA1" width="11.09" height="0.75"/>
			<path fill="#EEE679" d="M136.09,63.05l-20.47-11.82c-1.79-1.03-4.71-1.03-6.5,0L88.66,63.05c-1.79,1.03-3.25,3.57-3.25,5.63
				v23.63c0,2.06,1.46,4.6,3.25,5.63l20.46,11.81c1.79,1.03,4.71,1.03,6.5,0l20.47-11.81c1.79-1.03,3.25-3.56,3.25-5.63V68.68
				C139.34,66.61,137.87,64.08,136.09,63.05z M130.57,75.77h-2.12v-3.61c0-2.76-2.12-3.61-6.22-3.61h-0.19
				c-9.83,0-8.95-3.68-9.24-5.02h-0.14c-0.28,1.34,0.66,5.02-9.17,5.02h-0.26c-4.1,0-6.22,0.85-6.22,3.61v2.78l33.54,9.7v0.54h0.01
				v3.46c0,3.96-1.91,6.15-8.34,6.15h-0.33c-5.02,0-8.11,1.06-8.11,5.02h-2.12c0-3.96-3.09-5.02-8.11-5.02h-0.33
				c-6.43,0-8.34-2.19-8.34-6.15v-3.46h2.12v3.61c0,2.76,2.12,3.61,6.22,3.61h0.19c9.83,0,8.95,3.68,9.24,5.02h0.14
				c0.28-1.34-0.66-5.02,9.17-5.02h0.26c4.1,0,6.22-0.85,6.22-3.61v-2.07l-33.55-9.7v-1.25h0v-3.46c0-3.96,1.91-6.15,8.34-6.15h0.33
				c5.02,0,8.11-1.06,8.11-5.02h2.12c0,3.96,3.09,5.02,8.11,5.02h0.33c6.43,0,8.34,2.19,8.34,6.15V75.77z"/>
		</g>
		<polygon fill="#EEE679" points="279.35,29.66 193.32,29.66 185.37,22.04 185.37,55.31 279.35,55.31 		"/>
		<g>
			<g>
				<path fill="#FFFFFF" d="M199.1,46.12v-6.91h1.21v6.91H199.1z"/>
				<path fill="#FFFFFF" d="M203.95,46.12v-5.84h-2.09v-1.07h5.4v1.07h-2.09v5.84H203.95z"/>
				<path fill="#FFFFFF" d="M208.8,46.12v-6.91h4.74v1.07h-3.52v1.78h3.45v1.07h-3.45v1.93h3.52v1.07H208.8z"/>
				<path fill="#FFFFFF" d="M221.27,46.12v-5.34l-2.11,5.34h-0.52l-2.12-5.34v5.34h-1.21v-6.91h1.71l1.89,4.75l1.88-4.75h1.71v6.91
					H221.27z"/>
				<path fill="#FFFFFF" d="M232.52,46.12l-0.51-1.34h-3.17l-0.51,1.34h-1.38l2.71-6.91h1.51l2.71,6.91H232.52z M230.42,40.43
					l-1.24,3.29h2.49L230.42,40.43z"/>
				<path fill="#FFFFFF" d="M235.16,46.12v-6.91h2.57c2.17,0,3.62,1.43,3.62,3.45c0,2.04-1.45,3.46-3.61,3.46H235.16z M240.11,42.66
					c0-1.33-0.83-2.38-2.36-2.38h-1.37v4.78h1.36C239.24,45.06,240.11,43.98,240.11,42.66z"/>
				<path fill="#FFFFFF" d="M243.04,46.12v-6.91h2.57c2.17,0,3.62,1.43,3.62,3.45c0,2.04-1.45,3.46-3.61,3.46H243.04z M247.99,42.66
					c0-1.33-0.83-2.38-2.36-2.38h-1.37v4.78h1.36C247.12,45.06,247.99,43.98,247.99,42.66z"/>
				<path fill="#FFFFFF" d="M250.92,46.12v-6.91h4.74v1.07h-3.52v1.78h3.45v1.07h-3.45v1.93h3.52v1.07H250.92z"/>
				<path fill="#FFFFFF" d="M257.42,46.12v-6.91h2.57c2.17,0,3.62,1.43,3.62,3.45c0,2.04-1.45,3.46-3.61,3.46H257.42z M262.37,42.66
					c0-1.33-0.83-2.38-2.36-2.38h-1.37v4.78h1.36C261.5,45.06,262.37,43.98,262.37,42.66z"/>
				<path fill="#FFFFFF" d="M265.12,45.5c0-0.38,0.33-0.71,0.73-0.71s0.71,0.33,0.71,0.71c0,0.39-0.32,0.73-0.71,0.73
					S265.12,45.9,265.12,45.5z M265.37,44l-0.2-4.79h1.33L266.31,44H265.37z"/>
			</g>
		</g>
	</g>
</g>
<g id="Layer_2">
</g>
<g id="Layer_3">
</g>
<g id="Layer_4">
</g>
<g id="Layer_5">
</g>
<g id="Layer_6">
</g>
</svg>
