<?xml version="1.0" encoding="utf-8"?>
<!-- Generator: Adobe Illustrator 22.0.1, SVG Export Plug-In . SVG Version: 6.00 Build 0)  -->
<svg version="1.1" xmlns="http://www.w3.org/2000/svg" xmlns:xlink="http://www.w3.org/1999/xlink" x="0px" y="0px" width="300px"
	 height="112.83px" viewBox="0 0 300 112.83" enable-background="new 0 0 300 112.83" xml:space="preserve">
<g id="Layer_1">
	<g>
		<g>
			<rect x="66.67" y="51.19" fill="#FFFFFF" width="166.67" height="60.22"/>
			<path fill="#989FA1" d="M233.71,111.79H66.29V50.82h167.42V111.79z M67.04,111.04h165.92V51.57H67.04V111.04z"/>
		</g>
		
			<rect x="124.13" y="2.21" transform="matrix(-1.836970e-16 1 -1 -1.836970e-16 231.3044 -68.6957)" fill="#ECEFEF" width="51.74" height="158.19"/>
		<g>
			<polygon fill="#FFFFFF" points="227.2,51.21 72.8,51.21 104.6,1.42 191.87,1.42 			"/>
			<path fill="#989FA1" d="M227.93,51.58H72.11l32.28-50.54h87.67L227.93,51.58z M73.48,50.83h152.99l-34.8-49.04H104.8L73.48,50.83
				z"/>
		</g>
		<g>
			<path fill="#FFFFFF" d="M170.5,76.88h-41c-4.35,0-7.88-3.53-7.88-7.88V51.21h56.77V69C178.38,73.35,174.85,76.88,170.5,76.88z"/>
			<path fill="#989FA1" d="M170.5,77.26h-41c-4.55,0-8.26-3.71-8.26-8.26V50.83h57.52V69C178.76,73.55,175.05,77.26,170.5,77.26z
				 M121.99,51.58V69c0,4.14,3.37,7.51,7.51,7.51h41c4.14,0,7.51-3.37,7.51-7.51V51.58H121.99z"/>
		</g>
		<g>
			<path fill="#FFFFFF" d="M188.79,5.82v11.64h-80.22v-7.39c0-1.16,0.94-2.1,2.1-2.1h64.31V5.82c0-1.16,0.94-2.1,2.1-2.1h9.61
				C187.85,3.71,188.79,4.65,188.79,5.82z"/>
			<path fill="#989FA1" d="M189.17,17.83h-80.97v-7.77c0-1.36,1.11-2.47,2.47-2.47h63.94V5.82c0-1.37,1.11-2.48,2.48-2.48h9.61
				c1.37,0,2.48,1.11,2.48,2.48V17.83z M108.94,17.08h79.47V5.82c0-0.95-0.78-1.73-1.73-1.73h-9.61c-0.95,0-1.73,0.77-1.73,1.73
				v2.52h-64.69c-0.95,0-1.72,0.77-1.72,1.72V17.08z"/>
		</g>
		<path fill="#EEE679" d="M193.61,11.72v13.04h-89.85v-8.28c0-1.3,1.05-2.35,2.35-2.35h72.03v-2.41c0-1.3,1.05-2.35,2.35-2.35h10.76
			C192.55,9.37,193.61,10.42,193.61,11.72z"/>
		<g>
			<path fill="#FFFFFF" d="M197.73,17.59v14.23h-98.1v-9.04c0-1.42,1.15-2.57,2.57-2.57h78.64v-2.63c0-1.42,1.15-2.57,2.57-2.57
				h11.75C196.58,15.02,197.73,16.17,197.73,17.59z"/>
			<path fill="#989FA1" d="M198.11,32.2H99.26v-9.42c0-1.62,1.32-2.94,2.94-2.94h78.27v-2.25c0-1.62,1.32-2.95,2.95-2.95h11.75
				c1.62,0,2.95,1.32,2.95,2.95V32.2z M100.01,31.45h97.35V17.59c0-1.21-0.98-2.2-2.2-2.2h-11.75c-1.21,0-2.2,0.98-2.2,2.2v3H102.2
				c-1.21,0-2.19,0.98-2.19,2.19V31.45z"/>
		</g>
		<g>
			<path fill="#FFFFFF" d="M202.24,24.59v15.54H95.12v-9.87c0-1.55,1.25-2.8,2.8-2.8h85.87v-2.87c0-1.55,1.26-2.81,2.81-2.81h12.83
				C200.98,21.79,202.24,23.04,202.24,24.59z"/>
			<path fill="#989FA1" d="M202.61,40.51H94.75V30.26c0-1.75,1.42-3.18,3.18-3.18h85.5v-2.49c0-1.75,1.43-3.18,3.18-3.18h12.83
				c1.75,0,3.18,1.43,3.18,3.18V40.51z M95.5,39.76h106.37V24.59c0-1.34-1.09-2.43-2.43-2.43H186.6c-1.34,0-2.43,1.09-2.43,2.43
				v3.24H97.92c-1.34,0-2.43,1.09-2.43,2.43V39.76z"/>
		</g>
		<path fill="#EEE679" d="M208.48,31.07v11.44H88.88V37.4c0-1.73,1.4-3.13,3.13-3.13h95.88v-3.2c0-1.73,1.4-3.13,3.13-3.13h14.33
			C207.08,27.93,208.48,29.33,208.48,31.07z"/>
		<g>
			<path fill="#FFFFFF" d="M215.37,38.48v12.76H81.99v-5.7c0-1.93,1.56-3.49,3.49-3.49h106.93v-3.57c0-1.93,1.56-3.49,3.49-3.49
				h15.98C213.81,34.98,215.37,36.55,215.37,38.48z"/>
			<path fill="#989FA1" d="M215.75,51.61H81.62v-6.07c0-2.13,1.73-3.86,3.86-3.86h106.55v-3.2c0-2.13,1.74-3.87,3.87-3.87h15.98
				c2.13,0,3.87,1.74,3.87,3.87V51.61z M82.37,50.86H215V38.48c0-1.72-1.4-3.12-3.12-3.12H195.9c-1.72,0-3.12,1.4-3.12,3.12v3.95
				H85.48c-1.72,0-3.11,1.4-3.11,3.11V50.86z"/>
		</g>
		<rect x="195.35" y="38.79" fill="#989FA1" width="17.2" height="0.75"/>
		<rect x="185.99" y="24.95" fill="#989FA1" width="14.02" height="0.75"/>
		<rect x="182.98" y="17.88" fill="#989FA1" width="12.6" height="0.75"/>
		<rect x="176.57" y="5.99" fill="#989FA1" width="10.54" height="0.75"/>
		<rect x="190.64" y="31.25" fill="#FFFFFF" width="15.72" height="0.75"/>
		<rect x="179.86" y="11.88" fill="#FFFFFF" width="11.95" height="0.75"/>
		<path fill="#989FA1" d="M162.04,81.53h-22.66V72.3h22.66V81.53z M140.14,80.78h21.16v-7.73h-21.16V80.78z"/>
	</g>
</g>
<g id="Layer_2">
</g>
<g id="Layer_3">
</g>
<g id="Layer_4">
</g>
<g id="Layer_5">
</g>
<g id="Layer_6">
</g>
</svg>
