<?xml version="1.0" encoding="utf-8"?>
<!-- Generator: Adobe Illustrator 22.0.1, SVG Export Plug-In . SVG Version: 6.00 Build 0)  -->
<svg version="1.1" xmlns="http://www.w3.org/2000/svg" xmlns:xlink="http://www.w3.org/1999/xlink" x="0px" y="0px" width="300px"
	 height="147px" viewBox="0 0 300 147" enable-background="new 0 0 300 147" xml:space="preserve">
<g id="Layer_1">
	<g>
		<g>
			<rect x="103.84" y="70.68" fill="#FFFFFF" width="4.8" height="27.42"/>
			<path fill="#989FA1" d="M109.01,98.48h-5.55V70.3h5.55V98.48z M104.21,97.73h4.05V71.05h-4.05V97.73z"/>
		</g>
		<g>
			<path fill="#FFFFFF" d="M135.38,76.39H77.09c-2.14,0-3.9-1.75-3.9-3.9V5.4c0-2.14,1.75-3.9,3.9-3.9h58.29
				c2.14,0,3.9,1.75,3.9,3.9v67.1C139.27,74.64,137.52,76.39,135.38,76.39z"/>
			<path fill="#989FA1" d="M135.38,76.77H77.09c-2.35,0-4.27-1.92-4.27-4.27V5.4c0-2.35,1.92-4.27,4.27-4.27h58.29
				c2.35,0,4.27,1.92,4.27,4.27v67.1C139.65,74.85,137.73,76.77,135.38,76.77z M77.09,1.87c-1.94,0-3.52,1.58-3.52,3.52v67.1
				c0,1.94,1.58,3.52,3.52,3.52h58.29c1.94,0,3.52-1.58,3.52-3.52V5.4c0-1.94-1.58-3.52-3.52-3.52H77.09z"/>
		</g>
		<g>
			<path fill="#989FA1" d="M84.94,32.31v-7.09h4.65V26h-3.76v2.29h3.69v0.79h-3.69v2.45h3.76v0.79H84.94z"/>
			<path fill="#989FA1" d="M96.42,32.31l-2.27-3.02l-2.27,3.02h-1.07l2.77-3.64l-2.61-3.46h1.07l2.11,2.83l2.1-2.83h1.08l-2.61,3.45
				l2.77,3.65H96.42z"/>
			<path fill="#989FA1" d="M98.99,32.31v-7.09h2.85c1.43,0,2.22,0.98,2.22,2.14s-0.81,2.14-2.22,2.14h-1.97v2.82H98.99z
				 M103.15,27.35c0-0.8-0.57-1.35-1.41-1.35h-1.86v2.7h1.86C102.57,28.7,103.15,28.15,103.15,27.35z"/>
			<path fill="#989FA1" d="M105.76,32.31v-7.09h0.88v7.09H105.76z"/>
			<path fill="#989FA1" d="M112.94,32.31l-1.8-2.82h-1.42v2.82h-0.88v-7.09h2.85c1.3,0,2.23,0.83,2.23,2.14
				c0,1.28-0.88,1.98-1.85,2.06l1.91,2.89H112.94z M113,27.35c0-0.81-0.58-1.35-1.42-1.35h-1.86v2.71h1.86
				C112.42,28.71,113,28.15,113,27.35z"/>
			<path fill="#989FA1" d="M115.84,32.31v-7.09h4.65V26h-3.76v2.29h3.69v0.79h-3.69v2.45h3.76v0.79H115.84z"/>
			<path fill="#989FA1" d="M122,31.31l0.53-0.68c0.46,0.53,1.22,1.02,2.22,1.02c1.27,0,1.67-0.68,1.67-1.23
				c0-1.83-4.2-0.81-4.2-3.34c0-1.17,1.04-1.98,2.45-1.98c1.07,0,1.91,0.37,2.51,1l-0.53,0.65c-0.53-0.6-1.28-0.85-2.05-0.85
				c-0.84,0-1.46,0.46-1.46,1.13c0,1.6,4.2,0.68,4.2,3.33c0,1.02-0.7,2.08-2.62,2.08C123.5,32.43,122.59,31.96,122,31.31z"/>
		</g>
		<g>
			<path fill="#989FA1" d="M87.18,54.6v-0.91c4.39-3.54,7.33-6.06,7.33-8.55c0-1.86-1.53-2.63-2.94-2.63c-1.61,0-2.84,0.7-3.54,1.68
				l-0.75-0.7c0.91-1.24,2.48-1.99,4.3-1.99c1.9,0,4.06,1.08,4.06,3.64c0,2.84-3,5.44-6.73,8.46h6.79v1.01H87.18z"/>
			<path fill="#989FA1" d="M98.48,48.16c0-3.08,1.3-6.66,4.78-6.66c3.44,0,4.76,3.58,4.76,6.66c0,3.06-1.32,6.68-4.76,6.68
				C99.77,54.84,98.48,51.22,98.48,48.16z M106.83,48.16c0-2.67-0.87-5.65-3.58-5.65c-2.73,0-3.62,2.98-3.62,5.65
				c0,2.65,0.89,5.67,3.62,5.67C105.94,53.83,106.83,50.81,106.83,48.16z"/>
			<path fill="#989FA1" d="M112.37,54.6v-11.4l-2.07,2.21l-0.68-0.72l2.84-3h1.01V54.6H112.37z"/>
			<path fill="#989FA1" d="M116.84,53.17l0.66-0.79c0.64,0.83,1.41,1.43,2.82,1.43c2.84,0,3.81-2.96,3.81-5.67c0-0.19,0-0.41,0-0.6
				c-0.54,0.89-2.03,2.15-3.79,2.15c-2.32,0-4.16-1.33-4.16-4.08c0-2.11,1.59-4.12,4.33-4.12c3.48,0,4.74,3.21,4.74,6.67
				c0,3.31-1.37,6.66-4.93,6.66C118.64,54.82,117.61,54.14,116.84,53.17z M124.05,46.5c-0.15-1.76-1.06-4.01-3.5-4.01
				c-2.21,0-3.25,1.7-3.25,3.1c0,2.11,1.39,3.12,3.23,3.12C121.95,48.7,123.32,47.79,124.05,46.5z"/>
		</g>
		<g>
			<rect x="177.85" y="107.11" fill="#FFFFFF" width="6.72" height="38.39"/>
			<path fill="#989FA1" d="M184.95,145.87h-7.47v-39.14h7.47V145.87z M178.23,145.12h5.97v-37.64h-5.97V145.12z"/>
		</g>
		<g>
			<path fill="#FFFFFF" d="M221.46,110.94h-79.99c-2.94,0-5.34-2.41-5.34-5.34V13.52c0-2.94,2.41-5.34,5.34-5.34h79.99
				c2.94,0,5.35,2.41,5.35,5.34v92.08C226.81,108.54,224.4,110.94,221.46,110.94z"/>
			<path fill="#989FA1" d="M221.46,111.32h-79.99c-3.15,0-5.72-2.57-5.72-5.72V13.52c0-3.15,2.57-5.72,5.72-5.72h79.99
				c3.15,0,5.72,2.57,5.72,5.72v92.08C227.18,108.75,224.61,111.32,221.46,111.32z M141.47,8.55c-2.74,0-4.97,2.23-4.97,4.97v92.08
				c0,2.74,2.23,4.97,4.97,4.97h79.99c2.74,0,4.97-2.23,4.97-4.97V13.52c0-2.74-2.23-4.97-4.97-4.97H141.47z"/>
		</g>
		<path fill="#ECEFEF" d="M141.47,107.11c-0.82,0-1.51-0.69-1.51-1.51V13.52c0-0.82,0.69-1.51,1.51-1.51h79.99
			c0.82,0,1.51,0.69,1.51,1.51v92.08c0,0.82-0.69,1.51-1.51,1.51H141.47z"/>
		<g>
			<path fill="#989FA1" d="M150.87,36.18v-6.96h2.59c2.18,0,3.64,1.44,3.64,3.48c0,2.06-1.46,3.49-3.63,3.49H150.87z M155.85,32.69
				c0-1.34-0.83-2.4-2.38-2.4h-1.38v4.81h1.37C154.97,35.11,155.85,34.02,155.85,32.69z"/>
			<path fill="#989FA1" d="M158.49,32.71c0-2.08,1.47-3.6,3.56-3.6c2.08,0,3.56,1.52,3.56,3.6s-1.48,3.6-3.56,3.6
				C159.96,36.31,158.49,34.78,158.49,32.71z M164.36,32.71c0-1.44-0.91-2.52-2.31-2.52c-1.41,0-2.31,1.08-2.31,2.52
				c0,1.43,0.9,2.52,2.31,2.52C163.45,35.22,164.36,34.14,164.36,32.71z"/>
			<path fill="#989FA1" d="M172.41,36.18l-1.35-5.15l-1.36,5.15h-1.3l-1.98-6.96h1.36l1.36,5.35l1.44-5.35h0.97l1.44,5.35l1.36-5.35
				h1.37l-1.99,6.96H172.41z"/>
			<path fill="#989FA1" d="M181.88,36.18l-3.63-4.98v4.98h-1.22v-6.96h1.25l3.56,4.82v-4.82h1.22v6.96H181.88z"/>
			<path fill="#989FA1" d="M184.98,36.18v-6.96h1.22v5.89h3.07v1.08H184.98z"/>
			<path fill="#989FA1" d="M190.25,32.71c0-2.08,1.47-3.6,3.56-3.6c2.08,0,3.56,1.52,3.56,3.6s-1.48,3.6-3.56,3.6
				C191.72,36.31,190.25,34.78,190.25,32.71z M196.11,32.71c0-1.44-0.91-2.52-2.31-2.52c-1.41,0-2.31,1.08-2.31,2.52
				c0,1.43,0.9,2.52,2.31,2.52C195.2,35.22,196.11,34.14,196.11,32.71z"/>
			<path fill="#989FA1" d="M203.57,36.18l-0.51-1.35h-3.19l-0.51,1.35h-1.39l2.73-6.96h1.52l2.73,6.96H203.57z M201.46,30.44
				l-1.25,3.32h2.5L201.46,30.44z"/>
			<path fill="#989FA1" d="M206.23,36.18v-6.96h2.59c2.18,0,3.64,1.44,3.64,3.48c0,2.06-1.46,3.49-3.63,3.49H206.23z M211.2,32.69
				c0-1.34-0.83-2.4-2.38-2.4h-1.38v4.81h1.37C210.33,35.11,211.2,34.02,211.2,32.69z"/>
			<path fill="#989FA1" d="M165.13,52.45v-9.05h1.13v8.04h4.21v1H165.13z"/>
			<path fill="#989FA1" d="M172.64,52.45v-9.05h1.13v9.05H172.64z"/>
			<path fill="#989FA1" d="M184.29,52.45v-7.61l-3.07,7.61h-0.46l-3.08-7.61v7.61h-1.13v-9.05h1.61l2.82,6.97l2.81-6.97h1.61v9.05
				H184.29z"/>
			<path fill="#989FA1" d="M188.21,52.45v-9.05h1.13v9.05H188.21z"/>
			<path fill="#989FA1" d="M194.37,52.45v-8.04h-2.86v-1h6.86v1h-2.88v8.04H194.37z"/>
		</g>
		<g>
			<path fill="#989FA1" d="M159.65,90.84v-2.57c9.21-7.22,14.24-11.48,14.24-15.89c0-3.3-2.73-4.68-5.38-4.68
				c-3.07,0-5.45,1.3-6.95,3.22l-1.96-2.04c1.96-2.61,5.3-4.03,8.91-4.03c4.26,0,8.6,2.42,8.6,7.53c0,5.22-5.3,9.98-12.44,15.62
				h12.55v2.84H159.65z"/>
			<path fill="#989FA1" d="M200.85,90.84l-8.18-10.9l-8.18,10.9h-3.88l9.98-13.13l-9.41-12.48h3.88l7.6,10.21l7.56-10.21h3.92
				l-9.41,12.44l9.98,13.17H200.85z"/>
		</g>
	</g>
</g>
<g id="Layer_2">
</g>
<g id="Layer_3">
</g>
<g id="Layer_4">
</g>
<g id="Layer_5">
</g>
<g id="Layer_6">
</g>
</svg>
