<?xml version="1.0" encoding="utf-8"?>
<!-- Generator: Adobe Illustrator 22.0.1, SVG Export Plug-In . SVG Version: 6.00 Build 0)  -->
<svg version="1.1" xmlns="http://www.w3.org/2000/svg" xmlns:xlink="http://www.w3.org/1999/xlink" x="0px" y="0px" width="300px"
	 height="141.83px" viewBox="0 0 300 141.83" enable-background="new 0 0 300 141.83" xml:space="preserve">
<g id="Layer_1">
	<g>
		<g>
			<g>
				<path fill="#FFFFFF" d="M182.74,23.48v99c0,3.61-2.95,6.56-6.56,6.56H97.34c-3.61,0-6.56-2.95-6.56-6.56V7.85
					c0-3.61,2.95-6.56,6.56-6.56h62.45L182.74,23.48z"/>
				<path fill="#989FA1" d="M176.19,129.44H97.34c-3.84,0-6.96-3.12-6.96-6.96V7.85c0-3.84,3.12-6.96,6.96-6.96h62.61l23.2,22.42
					v99.17C183.15,126.32,180.02,129.44,176.19,129.44z M97.34,1.7c-3.39,0-6.15,2.76-6.15,6.15v114.63c0,3.39,2.76,6.15,6.15,6.15
					h78.85c3.39,0,6.15-2.76,6.15-6.15V23.65L159.63,1.7H97.34z"/>
			</g>
			<g>
				<polygon fill="#FFFFFF" points="183,23.35 160.05,23.35 160.05,1.16 				"/>
				<path fill="#989FA1" d="M160.85,3.06l20.16,19.49h-20.16V3.06 M160.05,1.16v22.19H183L160.05,1.16L160.05,1.16z"/>
			</g>
			<rect x="105.13" y="47.59" fill="#989FA1" width="63.46" height="0.8"/>
			<rect x="105.13" y="61.35" fill="#989FA1" width="63.46" height="0.8"/>
			<rect x="105.13" y="75.1" fill="#989FA1" width="63.46" height="0.8"/>
			<rect x="105.13" y="88.86" fill="#989FA1" width="63.46" height="0.8"/>
			<rect x="105.13" y="102.62" fill="#989FA1" width="35.45" height="0.8"/>
			<g>
				<path fill="#989FA1" d="M108.03,23.35v-7.07h-2.52v-0.88h6.03v0.88h-2.53v7.07H108.03z"/>
				<path fill="#989FA1" d="M118.33,23.35l-0.7-1.78h-3.96l-0.7,1.78h-1.13l3.21-7.95h1.23l3.19,7.95H118.33z M115.65,16.41
					l-1.68,4.29h3.37L115.65,16.41z"/>
				<path fill="#989FA1" d="M126.59,23.35l-2.54-3.39l-2.54,3.39h-1.2l3.1-4.08l-2.92-3.87h1.2l2.36,3.17l2.35-3.17h1.22l-2.92,3.86
					l3.1,4.09H126.59z"/>
				<path fill="#989FA1" d="M129.46,23.35v-7.95h5.21v0.88h-4.22v2.56h4.14v0.88h-4.14v2.74h4.22v0.88H129.46z"/>
				<path fill="#989FA1" d="M136.36,22.23l0.6-0.76c0.51,0.6,1.37,1.15,2.49,1.15c1.42,0,1.87-0.76,1.87-1.38
					c0-2.05-4.71-0.91-4.71-3.74c0-1.31,1.17-2.22,2.74-2.22c1.2,0,2.15,0.42,2.81,1.12l-0.6,0.73c-0.6-0.67-1.43-0.95-2.3-0.95
					c-0.94,0-1.63,0.51-1.63,1.26c0,1.79,4.71,0.76,4.71,3.73c0,1.15-0.79,2.34-2.93,2.34C138.04,23.49,137.02,22.97,136.36,22.23z"
					/>
			</g>
		</g>
		<rect x="150.55" y="64.67" fill="#EEE679" width="54.37" height="72.13"/>
		<g>
			<g>
				<path fill="#FFFFFF" d="M207.14,140.49h-48.62c-1.15,0-2.08-0.93-2.08-2.08V88h52.78v50.41
					C209.22,139.56,208.29,140.49,207.14,140.49z"/>
				<path fill="#989FA1" d="M207.14,140.9h-48.62c-1.37,0-2.48-1.11-2.48-2.48V87.6h53.58v50.82
					C209.62,139.78,208.51,140.9,207.14,140.9z M156.84,88.41v50.01c0,0.92,0.75,1.68,1.68,1.68h48.62c0.92,0,1.68-0.75,1.68-1.68
					V88.41H156.84z"/>
			</g>
			
				<rect x="161.34" y="92.62" transform="matrix(-1.836970e-16 1 -1 -1.836970e-16 297.0698 -68.5901)" fill="#ECEFEF" width="42.97" height="43.24"/>
			<g>
				<path fill="#FFFFFF" d="M209.22,88.04h-52.78v-15.5c0-1.15,0.93-2.08,2.08-2.08h48.62c1.15,0,2.08,0.93,2.08,2.08V88.04z"/>
				<path fill="#989FA1" d="M209.62,88.44h-53.58v-15.9c0-1.37,1.11-2.48,2.48-2.48h48.62c1.37,0,2.48,1.11,2.48,2.48V88.44z
					 M156.84,87.64h51.97V72.54c0-0.92-0.75-1.68-1.68-1.68h-48.62c-0.92,0-1.68,0.75-1.68,1.68V87.64z"/>
			</g>
			<g>
				<g>
					<g>
						<path fill="#989FA1" d="M171.1,108.42c-0.22,0-0.4-0.18-0.4-0.4V96.9c0-0.22,0.18-0.4,0.4-0.4s0.4,0.18,0.4,0.4v11.11
							C171.5,108.24,171.32,108.42,171.1,108.42z"/>
					</g>
					<g>
						<path fill="#989FA1" d="M176.66,102.86h-11.11c-0.22,0-0.4-0.18-0.4-0.4s0.18-0.4,0.4-0.4h11.11c0.22,0,0.4,0.18,0.4,0.4
							S176.88,102.86,176.66,102.86z"/>
					</g>
				</g>
				<g>
					<path fill="#989FA1" d="M199.18,102.86H188.7c-0.22,0-0.4-0.18-0.4-0.4s0.18-0.4,0.4-0.4h10.49c0.22,0,0.4,0.18,0.4,0.4
						S199.41,102.86,199.18,102.86z"/>
				</g>
				<g>
					<g>
						<path fill="#989FA1" d="M200.65,121.15H188.7c-0.22,0-0.4-0.18-0.4-0.4s0.18-0.4,0.4-0.4h11.96c0.22,0,0.4,0.18,0.4,0.4
							S200.88,121.15,200.65,121.15z"/>
					</g>
					<g>
						<path fill="#989FA1" d="M200.65,128.56H188.7c-0.22,0-0.4-0.18-0.4-0.4c0-0.22,0.18-0.4,0.4-0.4h11.96
							c0.22,0,0.4,0.18,0.4,0.4C201.06,128.38,200.88,128.56,200.65,128.56z"/>
					</g>
				</g>
				<g>
					<g>
						<line fill="#FFFFFF" x1="175.73" y1="119.83" x2="166.47" y2="129.09"/>
						<path fill="#989FA1" d="M166.47,129.49c-0.1,0-0.21-0.04-0.28-0.12c-0.16-0.16-0.16-0.41,0-0.57l9.26-9.26
							c0.16-0.16,0.41-0.16,0.57,0s0.16,0.41,0,0.57l-9.26,9.26C166.68,129.45,166.57,129.49,166.47,129.49z"/>
					</g>
					<g>
						<line fill="#FFFFFF" x1="175.73" y1="129.09" x2="166.47" y2="119.83"/>
						<path fill="#989FA1" d="M175.73,129.49c-0.1,0-0.21-0.04-0.28-0.12l-9.26-9.26c-0.16-0.16-0.16-0.41,0-0.57s0.41-0.16,0.57,0
							l9.26,9.26c0.16,0.16,0.16,0.41,0,0.57C175.94,129.45,175.83,129.49,175.73,129.49z"/>
					</g>
				</g>
			</g>
			
				<rect x="178.1" y="57.59" transform="matrix(-1.836970e-16 1 -1 -1.836970e-16 262.0405 -103.6194)" fill="#ECEFEF" width="9.47" height="43.24"/>
		</g>
	</g>
</g>
<g id="Layer_2">
</g>
<g id="Layer_3">
</g>
<g id="Layer_4">
</g>
<g id="Layer_5">
</g>
<g id="Layer_6">
</g>
</svg>
