<?xml version="1.0" encoding="utf-8"?>
<!-- Generator: Adobe Illustrator 22.0.1, SVG Export Plug-In . SVG Version: 6.00 Build 0)  -->
<svg version="1.1" xmlns="http://www.w3.org/2000/svg" xmlns:xlink="http://www.w3.org/1999/xlink" x="0px" y="0px" width="300px"
	 height="152.5px" viewBox="0 0 300 152.5" enable-background="new 0 0 300 152.5" xml:space="preserve">
<g id="Layer_1">
	<g>
		<g>
			<circle fill="#ECEFEF" cx="128.57" cy="91.48" r="54.02"/>
			<path fill="#989FA1" d="M128.57,151.19c-32.92,0-59.71-26.78-59.71-59.71s26.79-59.71,59.71-59.71s59.71,26.79,59.71,59.71
				S161.5,151.19,128.57,151.19z M128.57,32.58c-32.48,0-58.9,26.42-58.9,58.9c0,32.48,26.42,58.9,58.9,58.9s58.9-26.42,58.9-58.9
				C187.47,59,161.05,32.58,128.57,32.58z"/>
		</g>
		<g>
			<g>
				<polygon fill="#989FA1" points="144.56,102.8 113.53,102.8 116.88,95.03 107.37,71.26 100.29,71.26 100.29,70.45 107.92,70.45 
					117.76,95.04 114.77,101.99 144.56,101.99 				"/>
				<path fill="#989FA1" d="M117.05,95.47l-7.53-18.94h42.1l-3.72,16.53L117.05,95.47z M110.72,77.33l6.87,17.28l29.66-2.32
					l3.37-14.96H110.72z"/>
				<path fill="#989FA1" d="M120.92,115.65c-2.71,0-4.92-2.21-4.92-4.92c0-2.71,2.21-4.92,4.92-4.92c2.71,0,4.92,2.21,4.92,4.92
					C125.84,113.44,123.63,115.65,120.92,115.65z M120.92,106.62c-2.27,0-4.11,1.84-4.11,4.11c0,2.27,1.84,4.11,4.11,4.11
					c2.27,0,4.11-1.84,4.11-4.11C125.03,108.46,123.19,106.62,120.92,106.62z"/>
				<path fill="#989FA1" d="M137.95,115.65c-2.71,0-4.92-2.21-4.92-4.92c0-2.71,2.21-4.92,4.92-4.92c2.71,0,4.92,2.21,4.92,4.92
					C142.87,113.44,140.67,115.65,137.95,115.65z M137.95,106.62c-2.27,0-4.11,1.84-4.11,4.11c0,2.27,1.84,4.11,4.11,4.11
					c2.27,0,4.11-1.84,4.11-4.11C142.06,108.46,140.22,106.62,137.95,106.62z"/>
				<rect x="125" y="77.09" fill="#989FA1" width="0.81" height="17.25"/>
				<rect x="138.06" y="76.93" fill="#989FA1" width="0.81" height="16.36"/>
				
					<rect x="113.79" y="84.79" transform="matrix(0.9994 -0.0338 0.0338 0.9994 -2.8071 4.4964)" fill="#989FA1" width="35.32" height="0.81"/>
			</g>
		</g>
		<polygon fill="#EEE679" points="188.39,86.29 184.72,83.28 180.57,85.57 177.52,81.93 173.01,83.42 170.69,79.28 165.99,79.91 
			164.47,75.41 159.73,75.17 159.06,70.47 154.44,69.37 154.64,64.63 150.3,62.71 151.36,58.08 147.45,55.39 149.36,51.04 
			146.01,47.67 148.68,43.74 146.01,39.81 149.36,36.44 147.45,32.09 151.36,29.4 150.3,24.77 154.64,22.85 154.44,18.11 
			159.06,17.01 159.73,12.31 164.47,12.07 165.99,7.57 170.7,8.2 173.01,4.06 177.52,5.55 180.57,1.91 184.72,4.21 188.39,1.19 
			192.05,4.21 196.2,1.91 199.25,5.55 203.76,4.06 206.08,8.2 210.78,7.57 212.3,12.07 217.04,12.31 217.71,17.01 222.33,18.11 
			222.14,22.85 226.47,24.78 225.41,29.4 229.32,32.1 227.42,36.44 230.76,39.82 228.09,43.74 230.76,47.67 227.42,51.04 
			229.32,55.39 225.41,58.08 226.47,62.71 222.13,64.63 222.33,69.38 217.71,70.48 217.04,75.17 212.3,75.41 210.78,79.91 
			206.08,79.28 203.76,83.42 199.25,81.93 196.2,85.57 192.05,83.28 		"/>
		<g>
			<path fill="#FFFFFF" d="M163.5,47.11v-2.32c6.47-4.9,9.02-7.05,9.02-9.47c0-1.75-1.52-2.52-3.05-2.52c-1.95,0-3.42,0.77-4.5,1.97
				l-1.7-1.9c1.47-1.8,3.82-2.67,6.17-2.67c3.22,0,6.02,1.8,6.02,5.12c0,3.1-2.82,5.85-7.27,9.22h7.37v2.57H163.5z"/>
			<path fill="#FFFFFF" d="M179.79,44.84l1.67-2.02c1.1,1.3,2.62,2,4.47,2c2.12,0,3.42-1.3,3.42-2.95c0-1.77-1.3-2.95-3.35-2.95
				c-1.4,0-2.57,0.42-3.65,1.42l-2.07-0.6v-9.3h10.92v2.57h-8v4.8c0.82-0.77,2.17-1.42,3.77-1.42c2.82,0,5.35,1.95,5.35,5.37
				c0,3.45-2.65,5.65-6.37,5.65C183.11,47.41,181.14,46.41,179.79,44.84z"/>
			<path fill="#FFFFFF" d="M195.31,34.34c0-2.35,1.67-4.15,4.15-4.15c2.5,0,4.15,1.8,4.15,4.15c0,2.32-1.65,4.12-4.15,4.12
				C196.98,38.46,195.31,36.66,195.31,34.34z M201.68,34.34c0-1.47-0.92-2.5-2.22-2.5c-1.27,0-2.2,1.03-2.2,2.5
				c0,1.45,0.92,2.45,2.2,2.45C200.75,36.79,201.68,35.79,201.68,34.34z M197.83,47.11l10.65-16.67h1.7L199.5,47.11H197.83z
				 M204.28,43.29c0-2.35,1.67-4.15,4.15-4.15s4.15,1.8,4.15,4.15c0,2.32-1.67,4.12-4.15,4.12S204.28,45.61,204.28,43.29z
				 M210.65,43.29c0-1.47-0.92-2.5-2.22-2.5s-2.22,1.03-2.22,2.5c0,1.45,0.92,2.45,2.22,2.45S210.65,44.74,210.65,43.29z"/>
		</g>
		<g>
			<path fill="#FFFFFF" d="M175.37,57.65c0-2.65,1.87-4.59,4.53-4.59c2.65,0,4.53,1.94,4.53,4.59s-1.89,4.59-4.53,4.59
				C177.25,62.24,175.37,60.3,175.37,57.65z M182.84,57.65c0-1.83-1.16-3.2-2.94-3.2c-1.79,0-2.94,1.37-2.94,3.2
				c0,1.82,1.14,3.2,2.94,3.2C181.69,60.85,182.84,59.47,182.84,57.65z"/>
			<path fill="#FFFFFF" d="M186.6,62.08v-8.87h6.08v1.37h-4.52v2.29h4.43v1.37h-4.43v3.84H186.6z"/>
			<path fill="#FFFFFF" d="M194.75,62.08v-8.87h6.08v1.37h-4.52v2.29h4.43v1.37h-4.43v3.84H194.75z"/>
		</g>
	</g>
</g>
<g id="Layer_2">
</g>
<g id="Layer_3">
</g>
<g id="Layer_4">
</g>
<g id="Layer_5">
</g>
<g id="Layer_6">
</g>
</svg>
