<svg xmlns="http://www.w3.org/2000/svg" preserveAspectRatio="xMidYMid" width="66.969" height="41.219" viewBox="0 0 66.969 41.219"><defs><style>.cls-1 { fill: #b6bcbd; fill-rule: evenodd; }</style></defs><path d="M59 24.55c0 .658.41 1.478 1.11 2.012l-2.505 1.067c-1.11-.947-1.6-2.096-1.6-3.328 0-5.213 7.43-5.665 7.43-10.016 0-2.053-1.602-3.818-4.845-3.818-3.08 0-5.008 1.354-6.527 3.365L50.01 11.62c1.97-2.545 5.01-4.188 8.908-4.188 5.01 0 8.046 2.833 8.046 6.363 0 6.2-7.963 6.733-7.963 10.756zm-24.926 4l-2.4 1.5c-1.74-1.44-2.46-3.06-2.46-4.74 0-7.86 11.7-8.34 11.7-15.72 0-3.48-2.76-6.48-8.04-6.48-5.16 0-8.16 2.16-10.56 5.4l-2.16-2.22c2.76-3.78 7.02-6.3 12.9-6.3 7.2 0 11.46 4.2 11.46 9.24 0 9.18-12.24 9.96-12.24 16.26 0 .9.66 2.22 1.8 3.06zM10.11 26.562L7.604 27.63c-1.108-.945-1.6-2.094-1.6-3.326 0-5.213 7.43-5.665 7.43-10.016 0-2.053-1.602-3.818-4.845-3.818-3.08 0-5.01 1.355-6.53 3.366L.01 11.62c1.97-2.545 5.01-4.188 8.908-4.188 5.01 0 8.046 2.833 8.046 6.363 0 6.2-7.963 6.733-7.963 10.756 0 .66.41 1.48 1.11 2.014zM8.466 31.12c1.23 0 2.258 1.025 2.258 2.256 0 1.232-1.027 2.258-2.258 2.258-1.232 0-2.258-1.026-2.258-2.258 0-1.23 1.025-2.257 2.257-2.257zm23.747 4.81c1.44 0 2.64 1.2 2.64 2.58 0 1.44-1.2 2.7-2.64 2.7-1.44 0-2.64-1.26-2.64-2.7 0-1.38 1.2-2.58 2.64-2.58zm26.253-4.81c1.23 0 2.258 1.025 2.258 2.256 0 1.232-1.027 2.258-2.258 2.258-1.232 0-2.258-1.026-2.258-2.258 0-1.23 1.025-2.257 2.257-2.257z" class="cls-1"/></svg>