<?xml version="1.0" encoding="utf-8"?>
<!-- Generator: Adobe Illustrator 22.0.1, SVG Export Plug-In . SVG Version: 6.00 Build 0)  -->
<svg version="1.1" xmlns="http://www.w3.org/2000/svg" xmlns:xlink="http://www.w3.org/1999/xlink" x="0px" y="0px" width="300px"
	 height="91.31px" viewBox="0 0 300 91.31" enable-background="new 0 0 300 91.31" xml:space="preserve">
<g id="Layer_1">
	<g>
		<g>
			<g>
				<path fill="#F4F7F7" d="M223.2,87.87h70.76c1.67,0,3.05-1.37,3.05-3.05V40.76c0-1.67-1.37-3.05-3.05-3.05H223.2
					c-1.67,0-3.05,1.37-3.05,3.05v44.06C220.15,86.5,221.52,87.87,223.2,87.87z"/>
				<path fill="#989FA1" d="M293.95,88.25H223.2c-1.89,0-3.42-1.53-3.42-3.42V40.76c0-1.89,1.53-3.42,3.42-3.42h70.76
					c1.89,0,3.42,1.53,3.42,3.42v44.06C297.37,86.71,295.84,88.25,293.95,88.25z M223.2,38.09c-1.47,0-2.67,1.2-2.67,2.67v44.06
					c0,1.47,1.2,2.67,2.67,2.67h70.76c1.47,0,2.67-1.2,2.67-2.67V40.76c0-1.47-1.2-2.67-2.67-2.67H223.2z"/>
			</g>
			<g>
				<line fill="#F4F7F7" x1="220.15" y1="46.96" x2="244.4" y2="46.96"/>
				<rect x="220.15" y="46.58" fill="#989FA1" width="24.24" height="0.75"/>
			</g>
			<g>
				<line fill="#F4F7F7" x1="220.15" y1="54.76" x2="244.4" y2="54.76"/>
				<rect x="220.15" y="54.39" fill="#989FA1" width="24.24" height="0.75"/>
			</g>
			<g>
				<path fill="#F4F7F7" d="M232.35,75.59l61.05,11.16c1.98,0.62,3.59-0.7,3.59-2.92V41.76c0-2.22-1.62-4.55-3.59-5.17l-61.05-17.45
					c-1.98-0.62-3.59,0.7-3.59,2.92v48.35C228.76,72.65,230.38,74.97,232.35,75.59z"/>
				<path fill="#989FA1" d="M294.36,87.28c-0.35,0-0.7-0.06-1.07-0.17l-61.05-11.16c-2.13-0.67-3.85-3.14-3.85-5.53V22.07
					c0-1.24,0.47-2.29,1.3-2.9c0.77-0.56,1.75-0.7,2.78-0.38l61.05,17.45c2.13,0.67,3.86,3.14,3.86,5.53v42.06
					c0,1.24-0.47,2.29-1.3,2.9C295.58,87.09,294.99,87.28,294.36,87.28z M232.44,75.23l61.03,11.16c0.83,0.26,1.58,0.16,2.15-0.26
					c0.63-0.47,1-1.3,1-2.3V41.76c0-2.04-1.52-4.25-3.33-4.81l-61.05-17.45c-0.8-0.25-1.55-0.16-2.12,0.26c-0.63,0.46-1,1.3-1,2.3
					v48.35C229.14,72.46,230.65,74.65,232.44,75.23z"/>
			</g>
			<g>
				<line fill="#F4F7F7" x1="248.48" y1="71.96" x2="236.23" y2="69.69"/>
				
					<rect x="241.98" y="64.6" transform="matrix(0.1821 -0.9833 0.9833 0.1821 128.5751 296.2316)" fill="#989FA1" width="0.75" height="12.45"/>
			</g>
		</g>
		<g>
			<polygon fill="#F4F7F7" points="57.65,90.46 3,57.28 25.62,32.95 80.27,66.13 			"/>
			<path fill="#989FA1" d="M57.72,90.94l-0.26-0.16L2.41,57.37l23.14-24.89l0.26,0.16l55.05,33.41L57.72,90.94z M3.59,57.2l54,32.78
				l22.09-23.77l-54-32.78L3.59,57.2z"/>
		</g>
		
			<ellipse transform="matrix(0.9493 -0.3145 0.3145 0.9493 -17.2082 16.0142)" fill="#E4E7E9" cx="41.03" cy="61.34" rx="12.12" ry="9.73"/>
		<g>
			<g>
				<path fill="#697374" d="M46.27,56.51l-1.06,1.14c1.08,0.77,1.68,1.68,1.99,2.59l-1.21,0.44c-0.25-0.75-0.78-1.53-1.6-2.14
					l-2.64,2.84l0.18,0.15c1.37,1.11,1.98,2.47,0.72,3.79c-1.36,1.43-3.37,1.45-5.12,0.6l-1.1,1.19l-0.89-0.54l1.09-1.17
					c-1.07-0.76-1.92-1.89-2.15-2.88l1.22-0.41c0.17,0.74,0.82,1.74,1.74,2.42l2.67-2.87l-0.21-0.18c-1.36-1.12-1.82-2.43-0.59-3.73
					c1.29-1.36,3.28-1.45,5.01-0.62l1.06-1.14L46.27,56.51z M40.91,62.27l-2.57,2.76c1.21,0.56,2.46,0.56,3.27-0.29
					C42.27,64.04,41.98,63.2,40.91,62.27z M40.95,60.73l2.54-2.74c-1.18-0.54-2.4-0.47-3.15,0.33C39.69,59,39.85,59.78,40.95,60.73z
					"/>
			</g>
		</g>
		<g>
			<polygon fill="#F4F7F7" points="57.65,85.24 3,52.07 25.62,27.74 80.27,60.91 			"/>
			<path fill="#989FA1" d="M57.72,85.72l-0.26-0.16L2.41,52.15l23.14-24.89l0.26,0.16l55.05,33.41L57.72,85.72z M3.59,51.98
				l54,32.78l22.09-23.77l-54-32.78L3.59,51.98z"/>
		</g>
		
			<ellipse transform="matrix(0.9493 -0.3145 0.3145 0.9493 -15.5669 15.7494)" fill="#E4E7E9" cx="41.03" cy="56.12" rx="12.12" ry="9.73"/>
		<g>
			<g>
				<path fill="#697374" d="M46.27,51.29l-1.06,1.14c1.08,0.77,1.68,1.68,1.99,2.59l-1.21,0.44c-0.25-0.75-0.78-1.53-1.6-2.14
					l-2.64,2.84l0.18,0.15c1.37,1.11,1.98,2.47,0.72,3.79c-1.36,1.43-3.37,1.45-5.12,0.6l-1.1,1.19l-0.89-0.54l1.09-1.17
					c-1.07-0.76-1.92-1.89-2.15-2.88l1.22-0.41c0.17,0.74,0.82,1.74,1.74,2.42l2.67-2.87l-0.21-0.17c-1.36-1.12-1.82-2.43-0.59-3.73
					c1.29-1.36,3.28-1.45,5.01-0.62l1.06-1.14L46.27,51.29z M40.91,57.05l-2.57,2.76c1.21,0.56,2.46,0.56,3.27-0.29
					C42.27,58.82,41.98,57.98,40.91,57.05z M40.95,55.51l2.54-2.74c-1.18-0.54-2.4-0.47-3.15,0.33
					C39.69,53.78,39.85,54.56,40.95,55.51z"/>
			</g>
		</g>
		<g>
			<polygon fill="#F4F7F7" points="57.65,80.02 3,46.85 25.62,22.52 80.27,55.69 			"/>
			<path fill="#989FA1" d="M57.72,80.5l-0.26-0.16L2.41,46.93l23.14-24.89l0.26,0.16l55.05,33.41L57.72,80.5z M3.59,46.76l54,32.78
				l22.09-23.77L25.68,23L3.59,46.76z"/>
		</g>
		
			<ellipse transform="matrix(0.9493 -0.3145 0.3145 0.9493 -13.9256 15.4846)" fill="#E4E7E9" cx="41.03" cy="50.9" rx="12.12" ry="9.73"/>
		<g>
			<g>
				<path fill="#697374" d="M46.27,46.07l-1.06,1.14c1.08,0.77,1.68,1.68,1.99,2.59l-1.21,0.44c-0.25-0.75-0.78-1.53-1.6-2.14
					l-2.64,2.84l0.19,0.15c1.37,1.11,1.98,2.47,0.72,3.79c-1.36,1.43-3.37,1.45-5.12,0.6l-1.1,1.19l-0.89-0.54l1.09-1.17
					c-1.07-0.76-1.92-1.89-2.15-2.88l1.22-0.41c0.17,0.74,0.82,1.74,1.74,2.42l2.67-2.87l-0.21-0.17c-1.36-1.12-1.82-2.43-0.59-3.73
					c1.29-1.36,3.28-1.45,5.01-0.62l1.06-1.14L46.27,46.07z M40.91,51.83l-2.57,2.76c1.21,0.56,2.46,0.56,3.27-0.29
					C42.27,53.6,41.98,52.76,40.91,51.83z M40.95,50.29l2.54-2.74c-1.19-0.54-2.4-0.47-3.15,0.33
					C39.69,48.56,39.85,49.34,40.95,50.29z"/>
			</g>
		</g>
		<g>
			<polygon fill="#F4F7F7" points="57.65,74.8 3,41.63 25.62,17.3 80.27,50.47 			"/>
			<path fill="#989FA1" d="M57.72,75.28l-0.26-0.16L2.41,41.71l23.14-24.89l0.26,0.16l55.05,33.41L57.72,75.28z M3.59,41.55
				l54,32.78l22.09-23.77l-54-32.78L3.59,41.55z"/>
		</g>
		
			<ellipse transform="matrix(0.9493 -0.3145 0.3145 0.9493 -12.2842 15.2198)" fill="#EEE679" cx="41.03" cy="45.68" rx="12.12" ry="9.73"/>
		<g>
			<g>
				<path fill="#697374" d="M35.49,50.73l1.12-1.21c-0.74-0.47-1.31-1.15-1.49-1.73l1.06-0.61c0.2,0.57,0.66,1.2,1.38,1.64
					c0.92,0.56,1.99,0.44,2.63-0.24c0.61-0.66,0.49-1.37-0.14-2.31c-0.87-1.28-1.17-2.32-0.21-3.36c0.92-0.99,2.39-1.29,3.74-0.74
					l1.12-1.21l0.8,0.49l-1.08,1.16c0.75,0.49,1.1,1.01,1.29,1.44l-1.06,0.59c-0.14-0.31-0.42-0.89-1.25-1.4
					c-0.99-0.6-1.88-0.28-2.33,0.2c-0.58,0.62-0.39,1.22,0.33,2.34c0.86,1.31,0.96,2.34-0.03,3.41c-0.88,0.95-2.41,1.4-3.93,0.8
					l-1.16,1.24L35.49,50.73z"/>
			</g>
		</g>
		<g>
			<path fill="#989FA1" d="M207.46,20.89c-6.16-4.16-12.74-7.73-19.56-10.61c-6.95-2.94-14.22-5.2-21.61-6.71
				c-15.17-3.1-31.24-3.1-46.41,0c-7.39,1.51-14.66,3.77-21.61,6.71c-6.82,2.88-13.4,6.46-19.56,10.61l-0.42-0.62
				c6.2-4.19,12.82-7.78,19.68-10.68c6.99-2.96,14.31-5.23,21.75-6.75c15.27-3.12,31.44-3.12,46.71,0
				c7.44,1.52,14.76,3.79,21.75,6.75c6.86,2.9,13.49,6.5,19.68,10.68L207.46,20.89z"/>
			<polygon fill="#989FA1" points="200.29,23.21 200.08,22.5 207.2,20.33 205.03,13.21 205.75,12.99 208.13,20.83 			"/>
		</g>
	</g>
</g>
<g id="Layer_2">
</g>
<g id="Layer_3">
</g>
<g id="Layer_4">
</g>
<g id="Layer_5">
</g>
<g id="Layer_6">
</g>
</svg>
