<?xml version="1.0" encoding="utf-8"?>
<!-- Generator: Adobe Illustrator 19.0.0, SVG Export Plug-In . SVG Version: 6.00 Build 0)  -->
<svg version="1.1" id="Layer_1" xmlns="http://www.w3.org/2000/svg" xmlns:xlink="http://www.w3.org/1999/xlink" x="0px" y="0px"
	 viewBox="-273 364 65 65" style="enable-background:new -273 364 65 65;" xml:space="preserve">
<style type="text/css">
	.st0{fill:#B7BEBF;}
</style>
<g>
	<path class="st0" d="M-216.7,385.5h-31.6c-2,0-3.7,1.6-3.7,3.7V403h1v-8.2h36.9v25.9c0,1.5-1.1,2.7-2.7,2.7h-31.6
		c-1.5,0-2.6-1.1-2.6-2.7v-9.5h-1v9.5c0,2,1.6,3.7,3.7,3.7h31.7c2,0,3.6-1.6,3.6-3.7v-31.6C-213,387.2-214.7,385.5-216.7,385.5z
		 M-214,393.8h-37v-4.6c0-1.5,1.1-2.6,2.6-2.6h31.7c1.5,0,2.6,1.1,2.6,2.6V393.8z"/>
	<path class="st0" d="M-266.9,403.8v-25.9h36.9v4.2h1v-9.9c0-2-1.6-3.7-3.7-3.7h-31.6c-2,0-3.7,1.6-3.7,3.7v31.7
		c0,2,1.6,3.6,3.7,3.6h1.1v-1h-1.1C-265.9,406.4-266.9,405.3-266.9,403.8z M-266.9,372.2c0-1.5,1.1-2.6,2.6-2.6h31.7
		c1.5,0,2.6,1.1,2.6,2.6v4.6h-37V372.2z"/>
	<path class="st0" d="M-245,407c0-0.3-0.3-0.5-0.5-0.5h-13v-12.4l2.6,2.6c0.2,0.2,0.4,0.2,0.6,0c0.2-0.2,0.2-0.4,0-0.6l-3.5-3.5
		c-0.1-0.2-0.1-0.2-0.2-0.2c-0.2,0-0.3,0.1-0.3,0.2l-0.1,0.1l-3.4,3.5c-0.1,0.1-0.1,0.2-0.1,0.3c0,0.1,0,0.2,0.1,0.3
		c0.2,0.2,0.4,0.2,0.6,0l2.7-2.7V407c0,0.3,0.3,0.5,0.5,0.5h13.5C-245.3,407.5-245,407.2-245,407z"/>
	<path class="st0" d="M-223.5,406.9v-1.5c0-1.7-0.7-2.8-4.2-2.8h-0.3c-1.9,0-4.1-0.3-4.2-2.3h-0.9c-0.1,1.9-1.8,2.3-4.2,2.3h-0.2
		c-3.6,0-4.2,1.3-4.2,2.8v2.1l17,4.6v1.1c0,1.6-1.6,1.8-3.2,1.8c-2.3,0-3.7,0.4-4.3,1.1l-0.4,0.6l-0.4-0.6c-0.6-0.7-2-1.1-4.3-1.1
		c-2.1,0-3.3-0.3-3.3-1.8v-1.6h-0.9v1.5c0,1.7,0.7,2.8,4.2,2.8h0.2c1.9,0,4.1,0.3,4.2,2.3h0.9c0.1-1.9,1.8-2.3,4.2-2.3h0.2
		c3.6,0,4.2-1.3,4.2-2.8v-1.8l-17-4.6v-1.4c0-1.6,1.6-1.8,3.2-1.8c2.4,0,3.8-0.4,4.4-1.1l0.4-0.6l0.4,0.6c0.6,0.7,2,1.1,4.3,1.1
		c2.1,0,3.3,0.3,3.3,1.8v1.6H-223.5z"/>
	<path class="st0" d="M-247.3,389.1c-0.6,0-1,0.5-1,1c0,0.6,0.5,1,1,1c0.6,0,1-0.5,1-1C-246.2,389.6-246.7,389.1-247.3,389.1z"/>
	<path class="st0" d="M-243.1,389.1c-0.6,0-1,0.5-1,1c0,0.6,0.5,1,1,1c0.6,0,1-0.5,1-1S-242.5,389.1-243.1,389.1z"/>
	<path class="st0" d="M-239,389.1c-0.6,0-1,0.5-1,1c0,0.6,0.5,1,1,1c0.6,0,1-0.5,1-1C-237.9,389.6-238.4,389.1-239,389.1z"/>
	<path class="st0" d="M-253.7,372.1c-0.6,0-1,0.5-1,1c0,0.6,0.5,1,1,1c0.6,0,1-0.5,1-1S-253.1,372.1-253.7,372.1z"/>
	<path class="st0" d="M-257.9,372.1c-0.6,0-1,0.5-1,1c0,0.6,0.5,1,1,1c0.6,0,1-0.5,1-1C-256.8,372.6-257.3,372.1-257.9,372.1z"/>
	<path class="st0" d="M-262,372.1c-0.6,0-1,0.5-1,1c0,0.6,0.5,1,1,1c0.6,0,1-0.5,1-1S-261.5,372.1-262,372.1z"/>
</g>
</svg>
