<svg xmlns="http://www.w3.org/2000/svg" preserveAspectRatio="xMidYMid" width="52" height="48" viewBox="0 0 52 48"><defs><style>.cls-1 { fill: #b6bcbd; fill-rule: evenodd; }</style></defs><path d="M48.105 5.033H43.01v-2.83C43.01 1.007 42.005 0 40.81 0h-3.143c-1.194 0-2.2 1.008-2.2 2.202v2.83H16.79v-2.83C16.79 1.008 15.783 0 14.59 0h-3.145c-1.193 0-2.2 1.008-2.2 2.202v2.83H3.9c-2.136 0-3.9 1.76-3.9 3.903v35.162C0 46.235 1.758 48 3.9 48h44.2c2.136 0 3.9-1.76 3.9-3.903V8.935c0-2.144-1.758-3.902-3.895-3.902zm-10.31-2.645h2.893v6.92h-2.893v-6.92zm-26.22 0h2.892v6.92h-2.893v-6.92zm-7.61 4.974H9.31v2.074c0 1.194 1.006 2.202 2.2 2.202h3.143c1.194 0 2.2-1.008 2.2-2.202V7.362h18.613v2.074c0 1.194 1.007 2.202 2.2 2.202h3.145c1.2 0 2.2-1.008 2.2-2.202V7.362h5.16c.88 0 1.57.694 1.57 1.573v6.29H2.4v-6.29c0-.886.692-1.573 1.572-1.573zm44.14 38.308H3.965c-.88 0-1.572-.693-1.572-1.573V17.55h47.284v26.547c0 .88-.693 1.573-1.572 1.573zm-35.46-21.766c0 .63-.5 1.13-1.13 1.13H7.743c-.63 0-1.13-.5-1.13-1.13 0-.63.5-1.13 1.13-1.13h3.772c.623-.064 1.13.5 1.13 1.13zm10.875 0c0 .63-.5 1.13-1.13 1.13h-3.77c-.63 0-1.13-.5-1.13-1.13 0-.63.5-1.13 1.13-1.13h3.773c.565-.064 1.13.5 1.13 1.13zm10.817 0c0 .63-.5 1.13-1.13 1.13h-3.772c-.63 0-1.13-.5-1.13-1.13 0-.63.5-1.13 1.13-1.13h3.772c.623-.064 1.13.5 1.13 1.13zm10.875 0c0 .63-.5 1.13-1.13 1.13H40.31c-.63 0-1.13-.5-1.13-1.13 0-.63.5-1.13 1.13-1.13h3.772c.63-.064 1.13.5 1.13 1.13zM12.645 31.64c0 .628-.5 1.13-1.13 1.13H7.743c-.63 0-1.13-.502-1.13-1.13 0-.63.5-1.13 1.13-1.13h3.772c.623 0 1.13.5 1.13 1.13zm10.875 0c0 .628-.5 1.13-1.13 1.13h-3.77c-.63 0-1.13-.502-1.13-1.13 0-.63.5-1.13 1.13-1.13h3.773c.565 0 1.13.5 1.13 1.13zm10.817 0c0 .628-.5 1.13-1.13 1.13h-3.772c-.63 0-1.13-.502-1.13-1.13 0-.63.5-1.13 1.13-1.13h3.772c.623 0 1.13.5 1.13 1.13zm10.875 0c0 .628-.5 1.13-1.13 1.13H40.31c-.63 0-1.13-.502-1.13-1.13 0-.63.5-1.13 1.13-1.13h3.772c.63 0 1.13.5 1.13 1.13zm-32.567 7.804c0 .63-.5 1.13-1.13 1.13H7.743c-.63 0-1.13-.5-1.13-1.13 0-.63.5-1.13 1.13-1.13h3.772c.623-.07 1.13.437 1.13 1.13zm10.875 0c0 .63-.5 1.13-1.13 1.13h-3.77c-.63 0-1.13-.5-1.13-1.13 0-.63.5-1.13 1.13-1.13h3.773c.565-.07 1.13.437 1.13 1.13zm10.817 0c0 .63-.5 1.13-1.13 1.13h-3.772c-.63 0-1.13-.5-1.13-1.13 0-.63.5-1.13 1.13-1.13h3.772c.623-.07 1.13.437 1.13 1.13zm10.875 0c0 .63-.5 1.13-1.13 1.13H40.31c-.63 0-1.13-.5-1.13-1.13 0-.63.5-1.13 1.13-1.13h3.772c.63-.07 1.13.437 1.13 1.13z" class="cls-1"/></svg>