<?xml version="1.0" encoding="utf-8"?>
<!-- Generator: Adobe Illustrator 22.0.1, SVG Export Plug-In . SVG Version: 6.00 Build 0)  -->
<svg version="1.1" xmlns="http://www.w3.org/2000/svg" xmlns:xlink="http://www.w3.org/1999/xlink" x="0px" y="0px" width="300px"
	 height="152.05px" viewBox="0 0 300 152.05" enable-background="new 0 0 300 152.05" xml:space="preserve">
<g id="Layer_1">
	<g>
		<polygon fill="#989FA1" points="257.47,94.11 256.72,94.11 256.72,81.24 43.21,81.24 43.21,94.06 42.46,94.06 42.46,80.49 
			257.47,80.49 		"/>
		<rect x="149.59" y="67.66" fill="#989FA1" width="0.75" height="13.21"/>
		<rect x="149.59" y="80.87" fill="#989FA1" width="0.75" height="12.92"/>
		<g>
			<circle fill="#ECEFEF" cx="42.84" cy="122.54" r="23.99"/>
			<path fill="#989FA1" d="M42.84,151.4c-15.91,0-28.86-12.95-28.86-28.86s12.95-28.86,28.86-28.86s28.86,12.95,28.86,28.86
				S58.75,151.4,42.84,151.4z M42.84,94.43c-15.5,0-28.11,12.61-28.11,28.11s12.61,28.11,28.11,28.11s28.11-12.61,28.11-28.11
				S58.34,94.43,42.84,94.43z"/>
		</g>
		<g>
			<circle fill="#ECEFEF" cx="149.96" cy="122.27" r="23.99"/>
			<path fill="#989FA1" d="M149.96,151.13c-15.91,0-28.86-12.95-28.86-28.86s12.95-28.86,28.86-28.86
				c15.91,0,28.86,12.95,28.86,28.86S165.88,151.13,149.96,151.13z M149.96,94.16c-15.5,0-28.11,12.61-28.11,28.11
				s12.61,28.11,28.11,28.11c15.5,0,28.11-12.61,28.11-28.11S165.46,94.16,149.96,94.16z"/>
		</g>
		<g>
			<circle fill="#ECEFEF" cx="257.16" cy="122.47" r="23.99"/>
			<path fill="#989FA1" d="M257.16,151.33c-15.91,0-28.86-12.95-28.86-28.86s12.95-28.86,28.86-28.86s28.86,12.95,28.86,28.86
				S273.08,151.33,257.16,151.33z M257.16,94.36c-15.5,0-28.11,12.61-28.11,28.11s12.61,28.11,28.11,28.11s28.11-12.61,28.11-28.11
				S272.66,94.36,257.16,94.36z"/>
		</g>
		<circle fill="#EEE679" cx="149.66" cy="34.34" r="33.31"/>
		<g>
			<g>
				<path fill="#989FA1" d="M147.66,125.49l-0.43-1.13h-2.69l-0.43,1.13h-1.17l2.3-5.86h1.28l2.3,5.86H147.66z M145.89,120.66
					l-1.05,2.79h2.11L145.89,120.66z"/>
				<path fill="#989FA1" d="M149.9,125.49v-5.86h2.58c1.23,0,1.91,0.83,1.91,1.84c0,0.99-0.69,1.83-1.91,1.83h-1.56v2.2H149.9z
					 M153.34,121.47c0-0.56-0.41-0.93-0.99-0.93h-1.42v1.85h1.42C152.93,122.39,153.34,122.02,153.34,121.47z"/>
				<path fill="#989FA1" d="M155.69,125.49v-5.86h1.03v5.86H155.69z"/>
			</g>
		</g>
		<g>
			<g>
				<path fill="#989FA1" d="M249.58,125.49v-5.86h2.58c1.23,0,1.91,0.83,1.91,1.84c0,0.99-0.69,1.83-1.91,1.83h-1.56v2.2H249.58z
					 M253.02,121.47c0-0.56-0.41-0.93-0.99-0.93h-1.42v1.85h1.42C252.61,122.39,253.02,122.02,253.02,121.47z"/>
				<path fill="#989FA1" d="M255.12,122.56c0-1.75,1.24-3.03,3-3.03c1.75,0,3,1.28,3,3.03s-1.25,3.03-3,3.03
					C256.36,125.6,255.12,124.31,255.12,122.56z M260.06,122.56c0-1.21-0.76-2.12-1.94-2.12c-1.19,0-1.94,0.91-1.94,2.12
					c0,1.2,0.76,2.12,1.94,2.12C259.29,124.68,260.06,123.77,260.06,122.56z"/>
				<path fill="#989FA1" d="M262.16,124.67l0.58-0.8c0.4,0.43,1.04,0.82,1.85,0.82c0.84,0,1.17-0.41,1.17-0.81
					c0-1.23-3.41-0.47-3.41-2.62c0-0.98,0.84-1.72,2.14-1.72c0.91,0,1.65,0.3,2.19,0.83l-0.58,0.76c-0.47-0.47-1.09-0.68-1.71-0.68
					c-0.6,0-0.98,0.3-0.98,0.73c0,1.1,3.41,0.42,3.41,2.6c0,0.98-0.69,1.82-2.27,1.82C263.47,125.6,262.69,125.21,262.16,124.67z"/>
			</g>
		</g>
		<g>
			<g>
				<path fill="#989FA1" d="M33.34,122.56c0-1.81,1.34-3.03,3.08-3.03c1.18,0,1.92,0.61,2.35,1.31l-0.87,0.46
					c-0.28-0.49-0.85-0.85-1.48-0.85c-1.16,0-2.02,0.88-2.02,2.12c0,1.22,0.86,2.12,2.02,2.12c0.62,0,1.2-0.37,1.48-0.85l0.88,0.44
					c-0.45,0.7-1.18,1.33-2.36,1.33C34.68,125.6,33.34,124.37,33.34,122.56z"/>
				<path fill="#989FA1" d="M45.09,125.49v-4.53l-1.79,4.53h-0.44l-1.8-4.53v4.53h-1.03v-5.86h1.45l1.6,4.03l1.59-4.03h1.45v5.86
					H45.09z"/>
				<path fill="#989FA1" d="M47.42,124.67l0.58-0.8c0.4,0.43,1.04,0.82,1.85,0.82c0.84,0,1.17-0.41,1.17-0.81
					c0-1.23-3.41-0.47-3.41-2.62c0-0.98,0.84-1.72,2.14-1.72c0.91,0,1.65,0.3,2.19,0.83l-0.58,0.76c-0.47-0.47-1.09-0.68-1.71-0.68
					c-0.6,0-0.98,0.3-0.98,0.73c0,1.1,3.41,0.42,3.41,2.6c0,0.98-0.69,1.82-2.27,1.82C48.73,125.6,47.95,125.21,47.42,124.67z"/>
			</g>
		</g>
		<g>
			<g>
				<path fill="#FFFFFF" d="M138.11,40.63c0-0.41,0.06-1.52,0.06-1.99c0-2.15-0.83-3.04-3.12-3.04h-0.72v-2.54h0.72
					c2.29,0,3.12-0.88,3.12-3.04c0-0.47-0.06-1.57-0.06-1.99c0-2.85,1.24-4.61,6.27-5.52l0.58,2.21c-3.32,0.91-3.76,1.77-3.76,3.78
					c0,0.55,0.06,1.46,0.06,2.04c0,2.16-1.05,3.2-2.87,3.78c1.85,0.61,2.87,1.63,2.87,3.78c0,0.58-0.06,1.49-0.06,2.04
					c0,2.02,0.44,2.87,3.76,3.78l-0.58,2.21C139.35,45.25,138.11,43.48,138.11,40.63z"/>
				<path fill="#FFFFFF" d="M154.35,43.95c3.31-0.91,3.76-1.77,3.76-3.78c0-0.55-0.05-1.46-0.05-2.04c0-2.15,1.05-3.2,2.87-3.78
					c-1.85-0.61-2.87-1.63-2.87-3.78c0-0.58,0.05-1.49,0.05-2.04c0-2.02-0.44-2.87-3.76-3.78l0.58-2.21
					c5.03,0.91,6.27,2.68,6.27,5.52c0,0.41-0.06,1.52-0.06,1.99c0,2.16,0.83,3.04,3.12,3.04h0.72v2.54h-0.72
					c-2.29,0-3.12,0.88-3.12,3.04c0,0.47,0.06,1.57,0.06,1.99c0,2.85-1.24,4.61-6.27,5.53L154.35,43.95z"/>
			</g>
		</g>
	</g>
	<g>
		<g>
			<g>
				<g>
					<defs>
						<path id="SVGID_5_" d="M245.19-231.72c-0.05-0.37-0.04-1.27-0.04-1.27h-0.53c-1.21,0-1.68-0.44-1.68-1.61v-4.66
							c0-2.09-0.51-2.6-1.52-2.94v-0.1c1.02-0.33,1.52-0.86,1.52-2.96v-4.62c0.01-1.17,0.48-1.55,1.69-1.55h0.53
							c0,0,0.03-0.8,0.09-1.27c-0.25-0.04-1.21-0.05-1.21-0.05c-2.44,0-3.12,1.14-3.12,3.49v4.21c0,1.72-1.02,1.95-1.4,1.95v1.67
							c0.38,0,1.4,0.23,1.4,1.93v4.24c0,2.35,0.69,3.45,3.11,3.45C244.03-231.77,244.99-231.72,245.19-231.72"/>
					</defs>
					<use xlink:href="#SVGID_5_"  overflow="visible" fill-rule="evenodd" clip-rule="evenodd" fill="#B7B7B7"/>
					<clipPath id="SVGID_2_">
						<use xlink:href="#SVGID_5_"  overflow="visible"/>
					</clipPath>
					<g clip-path="url(#SVGID_2_)">
						<defs>
							<rect id="SVGID_7_" x="124.01" y="-485.67" width="496.43" height="496.43"/>
						</defs>
						<use xlink:href="#SVGID_7_"  overflow="visible" fill="#B7B7B7"/>
						<clipPath id="SVGID_4_">
							<use xlink:href="#SVGID_7_"  overflow="visible"/>
						</clipPath>
					</g>
				</g>
			</g>
			<g>
				<g>
					<defs>
						<path id="SVGID_13_" d="M259.37-252.73c0.05,0.37,0.04,1.27,0.04,1.27h0.53c1.21,0,1.68,0.44,1.68,1.61v4.66
							c0,2.09,0.51,2.6,1.52,2.94v0.1c-1.02,0.33-1.52,0.86-1.52,2.96v4.62c-0.01,1.17-0.48,1.55-1.69,1.55h-0.53
							c0,0-0.03,0.8-0.09,1.27c0.25,0.04,1.21,0.05,1.21,0.05c2.44,0,3.12-1.14,3.12-3.49v-4.21c0-1.72,1.02-1.95,1.4-1.95v-1.67
							c-0.38,0-1.4-0.23-1.4-1.93v-4.24c0-2.35-0.69-3.45-3.11-3.45C260.52-252.68,259.57-252.73,259.37-252.73"/>
					</defs>
					<use xlink:href="#SVGID_13_"  overflow="visible" fill-rule="evenodd" clip-rule="evenodd" fill="#B7B7B7"/>
					<clipPath id="SVGID_6_">
						<use xlink:href="#SVGID_13_"  overflow="visible"/>
					</clipPath>
					<g clip-path="url(#SVGID_6_)">
						<defs>
							<rect id="SVGID_15_" x="-115.88" y="-495.21" width="496.43" height="496.43"/>
						</defs>
						<use xlink:href="#SVGID_15_"  overflow="visible" fill="#B7B7B7"/>
						<clipPath id="SVGID_8_">
							<use xlink:href="#SVGID_15_"  overflow="visible"/>
						</clipPath>
					</g>
				</g>
			</g>
		</g>
	</g>
</g>
<g id="Layer_2">
</g>
<g id="Layer_3">
</g>
<g id="Layer_4">
</g>
<g id="Layer_5">
</g>
<g id="Layer_6">
</g>
</svg>
