<?xml version="1.0" encoding="utf-8"?>
<!-- Generator: Adobe Illustrator 22.0.1, SVG Export Plug-In . SVG Version: 6.00 Build 0)  -->
<svg version="1.1" xmlns="http://www.w3.org/2000/svg" xmlns:xlink="http://www.w3.org/1999/xlink" x="0px" y="0px" width="300px"
	 height="125px" viewBox="0 0 300 125" enable-background="new 0 0 300 125" xml:space="preserve">
<g id="Layer_1">
	<g>
		<path fill="#989FA1" d="M213.21,123.88H89.81c-9.98,0-19.78-4.11-26.87-11.27c-7-7.07-10.8-16.31-10.7-26.04
			c0.18-18.43,14.03-33.98,32.27-36.27c3.13-13.71,10.89-26.15,21.88-35.06c11.22-9.1,25.37-14.11,39.84-14.11
			c24.31,0,46.06,13.53,56.8,35.34c24.69,0.48,44.74,20.91,44.74,45.64c0,14.17-6.41,27.29-17.59,36.01
			C225.41,121.83,219.38,123.88,213.21,123.88z M146.22,1.88c-14.3,0-28.28,4.95-39.37,13.94c-10.93,8.86-18.63,21.26-21.68,34.9
			l-0.06,0.26l-0.26,0.03c-17.99,2.13-31.7,17.42-31.87,35.57c-0.09,9.52,3.63,18.58,10.49,25.5c6.95,7.02,16.55,11.05,26.34,11.05
			h123.4c6.01,0,11.87-1.99,16.5-5.61c11-8.58,17.31-21.49,17.31-35.42c0-24.4-19.84-44.54-44.23-44.89l-0.23,0l-0.1-0.21
			C191.87,15.33,170.32,1.88,146.22,1.88z"/>
		<path fill="#ECEFEF" d="M89.81,114.28c-7.44,0-14.75-3.07-20.05-8.43c-5.18-5.23-8-12.05-7.93-19.19
			C61.96,72.95,72.31,61.4,85.9,59.79l6.49-0.77l1.43-6.38c2.62-11.71,9.23-22.35,18.62-29.96c9.65-7.83,21.34-11.96,33.79-11.96
			c10.25,0,20.22,2.9,28.81,8.38c8.38,5.34,15.12,12.88,19.47,21.78l2.49,5.09l5.67,0.08c19.58,0.28,35.51,16.45,35.51,36.04
			c0,11.19-5.07,21.56-13.9,28.45c-3.09,2.41-7.02,3.74-11.06,3.74H89.81z"/>
		<g>
			<g>
				<path fill="#FFFFFF" d="M160.29,40.84c-2.43-2.25-5.95-3.64-10.29-3.64c-9.05,0-14.62,5.57-14.62,12.44V64.3h28.7V49.64
					C164.07,46.21,162.73,43.1,160.29,40.84z M159.73,58.14h-20.01v-8.5c0-4.47,3.53-8.1,10.28-8.1c5.57,0,9.73,3.64,9.73,8.1V58.14
					z"/>
				<path fill="#989FA1" d="M164.45,64.68H135V49.64c0-7.55,6.17-12.82,15-12.82c4.25,0,7.9,1.29,10.55,3.74h0
					c2.52,2.33,3.9,5.55,3.9,9.08V64.68z M135.75,63.93h27.95V49.64c0-3.31-1.3-6.34-3.66-8.53c-2.51-2.32-5.98-3.54-10.04-3.54
					c-8.39,0-14.25,4.96-14.25,12.07V63.93z M160.1,58.52h-20.75v-8.87c0-5.15,4.18-8.48,10.65-8.48c5.67,0,10.1,3.72,10.1,8.48
					V58.52z M140.1,57.77h19.25v-8.12c0-4.33-4.11-7.73-9.35-7.73c-6.01,0-9.9,3.03-9.9,7.73V57.77z"/>
			</g>
			<path fill="#989FA1" d="M160.1,60.33h-20.75v-2.57h20.75V60.33z M140.1,59.58h19.25v-1.07H140.1V59.58z"/>
			<g>
				<path fill="#FFFFFF" d="M170.14,58.14h-40.29c-1.49,0-2.69,1.21-2.69,2.7v33.13c0,1.49,1.2,2.7,2.69,2.7h40.29
					c1.49,0,2.7-1.21,2.7-2.7V60.84C172.84,59.35,171.63,58.14,170.14,58.14z M153.5,79.46v3.52c0,1.94-1.57,3.5-3.5,3.5
					c-1.93,0-3.49-1.57-3.49-3.5v-3.52c-1.43-1.06-2.35-2.77-2.35-4.69c0-3.23,2.62-5.85,5.84-5.85c3.24,0,5.86,2.62,5.86,5.85
					C155.86,76.69,154.93,78.4,153.5,79.46z"/>
				<path fill="#989FA1" d="M170.14,97.04h-40.29c-1.69,0-3.07-1.38-3.07-3.07V60.84c0-1.69,1.38-3.07,3.07-3.07h40.29
					c1.69,0,3.07,1.38,3.07,3.07v33.13C173.22,95.66,171.84,97.04,170.14,97.04z M129.85,58.52c-1.28,0-2.32,1.04-2.32,2.32v33.13
					c0,1.28,1.04,2.32,2.32,2.32h40.29c1.28,0,2.32-1.04,2.32-2.32V60.84c0-1.28-1.04-2.32-2.32-2.32H129.85z M149.99,86.85
					c-2.13,0-3.87-1.74-3.87-3.88v-3.33c-1.48-1.17-2.35-2.97-2.35-4.87c0-3.43,2.79-6.23,6.22-6.23c3.44,0,6.24,2.79,6.24,6.23
					c0,1.89-0.88,3.7-2.36,4.87v3.33C153.87,85.11,152.13,86.85,149.99,86.85z M149.99,69.3c-3.02,0-5.47,2.46-5.47,5.48
					c0,1.72,0.82,3.36,2.2,4.38l0.15,0.11v3.7c0,1.73,1.4,3.13,3.12,3.13c1.73,0,3.13-1.4,3.13-3.13v-3.7l0.15-0.11
					c1.38-1.03,2.21-2.66,2.21-4.38C155.48,71.75,153.02,69.3,149.99,69.3z"/>
			</g>
		</g>
	</g>
</g>
<g id="Layer_2">
</g>
<g id="Layer_3">
</g>
<g id="Layer_4">
</g>
<g id="Layer_5">
</g>
<g id="Layer_6">
</g>
</svg>
