<?xml version="1.0" encoding="utf-8"?>
<!-- Generator: Adobe Illustrator 22.0.1, SVG Export Plug-In . SVG Version: 6.00 Build 0)  -->
<svg version="1.1" id="Layer_1" xmlns="http://www.w3.org/2000/svg" xmlns:xlink="http://www.w3.org/1999/xlink" x="0px" y="0px"
	 width="300px" height="152.3px" viewBox="0 0 300 152.3" style="enable-background:new 0 0 300 152.3;" xml:space="preserve">
<style type="text/css">
	.st0{fill:#EEE679;}
	.st1{fill:#989FA1;}
	.st2{fill:#ECEFEF;}
	.st3{fill:#FFFFFF;}
</style>
<g id="Layer_1_1_">
	<g>
		<rect x="167.2" y="97.2" class="st0" width="113.5" height="13"/>
		<path class="st0" d="M48.3,114.1H21.4c-1.7,0-3.1-1.4-3.1-3.2v-2.3h33.2v2.3C51.5,112.7,50,114.1,48.3,114.1z"/>
		<g>
			<g>
				<rect x="30" y="53.5" class="st1" width="11.9" height="0.8"/>
				<path class="st1" d="M34.9,113c-0.9,0-1.6-0.7-1.6-1.6s0.7-1.6,1.6-1.6s1.6,0.7,1.6,1.6S35.8,113,34.9,113z M34.9,110.5
					c-0.5,0-0.9,0.4-0.9,0.9s0.4,0.9,0.9,0.9c0.5,0,0.9-0.4,0.9-0.9S35.3,110.5,34.9,110.5z"/>
			</g>
			<path class="st1" d="M54.1,107.1H15.9V57.8h38.2V107.1z M16.6,106.3h36.7V58.5H16.6V106.3z"/>
			<rect x="20" y="61.9" class="st2" width="30" height="41.1"/>
			<path class="st1" d="M54.1,58.5H15.9v-4.9c0-2.8,2.3-5.1,5.1-5.1H49c2.8,0,5.1,2.3,5.1,5.1L54.1,58.5L54.1,58.5z M16.6,57.8h36.7
				v-4.2c0-2.4-1.9-4.3-4.3-4.3H21c-2.4,0-4.3,1.9-4.3,4.3V57.8z"/>
			<path class="st1" d="M49,116.8H21c-2.8,0-5.1-2.3-5.1-5.1v-5.4h38.2v5.4C54.1,114.5,51.8,116.8,49,116.8z M16.6,107.1v4.7
				c0,2.4,1.9,4.3,4.3,4.3H49c2.4,0,4.3-1.9,4.3-4.3v-4.7H16.6z"/>
		</g>
		<path class="st1" d="M151.6,61.8h-86c-1.4,0-2.5-1.1-2.5-2.5V3.3c0-1.4,1.1-2.5,2.5-2.5h86c1.4,0,2.5,1.1,2.5,2.5v55.9
			C154.1,60.6,153,61.8,151.6,61.8z M65.6,1.5c-1,0-1.8,0.8-1.8,1.8v55.9c0,1,0.8,1.8,1.8,1.8h86c1,0,1.8-0.8,1.8-1.8V3.3
			c0-1-0.8-1.8-1.8-1.8L65.6,1.5L65.6,1.5z"/>
		<path class="st1" d="M148.3,55.1H68.9V7.5h79.4L148.3,55.1L148.3,55.1z M69.7,54.3h77.9V8.2H69.7V54.3z"/>
		<rect x="97.5" y="67.4" class="st1" width="0.8" height="11.3"/>
		<rect x="120.1" y="67.4" class="st1" width="0.8" height="11.3"/>
		<rect x="89.4" y="78.3" class="st1" width="39.5" height="0.8"/>
		<path class="st1" d="M281.6,115.1H165.9c-1.4,0-2.5-1.1-2.5-2.5V36.9c0-1.4,1.1-2.5,2.5-2.5h115.8c1.4,0,2.5,1.1,2.5,2.5v75.7
			C284.1,114,283,115.1,281.6,115.1z M165.9,35.1c-1,0-1.8,0.8-1.8,1.8v75.7c0,1,0.8,1.8,1.8,1.8h115.8c1,0,1.8-0.8,1.8-1.8V36.9
			c0-1-0.8-1.8-1.8-1.8L165.9,35.1L165.9,35.1z"/>
		<rect x="167.7" y="38.6" class="st2" width="112" height="50.1"/>
		<rect x="163.7" y="92.8" class="st1" width="118.2" height="0.8"/>
		<path class="st1" d="M224.8,107.9c-2.1,0-3.7-1.7-3.7-3.7s1.7-3.7,3.7-3.7s3.7,1.7,3.7,3.7S226.9,107.9,224.8,107.9z M224.8,101.2
			c-1.6,0-3,1.3-3,3s1.3,3,3,3s3-1.3,3-3S226.5,101.2,224.8,101.2z"/>
		<path class="st1" d="M236.5,137.4h-20.7c-2,0-3.8-1.1-4.7-2.9c-0.6-1.2-0.7-2.6-0.3-3.9c0.8-2.6,1.8-8.4,1.6-9.1l0.7-0.2
			c0.2,0.9-1,7.2-1.7,9.5c-0.3,1.1-0.2,2.3,0.3,3.3c0.8,1.5,2.3,2.5,4,2.5h20.7c1.7,0,3.3-0.9,4-2.5l0.1-0.3
			c0.4-0.9,0.6-1.9,0.4-2.9l-1.9-9.5l0.7-0.2l1.9,9.5c0.2,1.1,0.1,2.3-0.4,3.4l-0.1,0.3C240.3,136.2,238.5,137.4,236.5,137.4z"/>
		<g>
			<path class="st1" d="M152.2,151.5h-86c-1.4,0-2.5-1.1-2.5-2.5V93.1c0-1.4,1.1-2.5,2.5-2.5h86c1.4,0,2.5,1.1,2.5,2.5V149
				C154.7,150.4,153.6,151.5,152.2,151.5z M66.1,91.3c-1,0-1.8,0.8-1.8,1.8V149c0,1,0.8,1.8,1.8,1.8h86c1,0,1.8-0.8,1.8-1.8V93.1
				c0-1-0.8-1.8-1.8-1.8L66.1,91.3L66.1,91.3z"/>
			<path class="st2" d="M149.7,93.7H68.5c-1,0-1.8,0.8-1.8,1.8v51.1c0,1,0.8,1.8,1.8,1.8h81.2c1,0,1.8-0.8,1.8-1.8V95.5
				C151.5,94.5,150.7,93.7,149.7,93.7z M77.8,144.1V98h62.8v46.1H77.8z"/>
			<g>
				<path class="st3" d="M77.4,97.7v46.8h63.5V97.7H77.4z M140.5,144.1H77.8V98h62.8V144.1z"/>
				<path class="st1" d="M77,97.3v47.6h64.3V97.3H77z M140.5,144.1H77.8V98h62.8V144.1z"/>
			</g>
			<path class="st1" d="M149.7,123.1h-4.1V119h4.1V123.1z M146.3,122.4h2.6v-2.6h-2.6V122.4z"/>
			<path class="st1" d="M72.7,123.1h-4.1V119h4.1C72.7,119,72.7,123.1,72.7,123.1z M69.4,122.4H72v-2.6h-2.6V122.4z"/>
		</g>
		<g>
			<path class="st1" d="M34.2,86.5c-0.1,0-0.2,0-0.2-0.1l-5.4-4.8c-0.1-0.1-0.2-0.4,0-0.5s0.4-0.2,0.5,0l5.4,4.8
				c0.2,0.1,0.2,0.4,0,0.5C34.4,86.5,34.3,86.5,34.2,86.5z"/>
			<path class="st1" d="M34.2,86.5c-0.1,0-0.2,0-0.2-0.1c-0.2-0.1-0.2-0.4-0.1-0.5l9.2-11.4c0.1-0.2,0.4-0.2,0.5-0.1
				c0.2,0.1,0.2,0.4,0.1,0.5l-9.2,11.4C34.4,86.5,34.3,86.5,34.2,86.5z"/>
		</g>
		<g>
			<path class="st1" d="M106.9,37.5c-0.1,0-0.2,0-0.2-0.1l-5.4-4.8c-0.2-0.1-0.2-0.4,0-0.5c0.1-0.1,0.4-0.2,0.5,0l5.4,4.8
				c0.2,0.1,0.2,0.4,0,0.5C107.1,37.5,107,37.5,106.9,37.5z"/>
			<path class="st1" d="M106.9,37.5c-0.1,0-0.2,0-0.2-0.1c-0.2-0.1-0.2-0.4-0.1-0.5l9.2-11.4c0.1-0.2,0.4-0.2,0.5-0.1
				c0.2,0.1,0.2,0.4,0.1,0.5l-9.2,11.4C107.1,37.5,107,37.5,106.9,37.5z"/>
		</g>
		<g>
			<path class="st1" d="M106.9,125.5c-0.1,0-0.2,0-0.2-0.1l-5.4-4.8c-0.2-0.1-0.2-0.4,0-0.5s0.4-0.2,0.5,0l5.4,4.8
				c0.2,0.1,0.2,0.4,0,0.5C107.1,125.4,107,125.5,106.9,125.5z"/>
			<path class="st1" d="M106.9,125.5c-0.1,0-0.2,0-0.2-0.1c-0.2-0.1-0.2-0.4-0.1-0.5l9.2-11.4c0.1-0.2,0.4-0.2,0.5-0.1
				c0.2,0.1,0.2,0.4,0.1,0.5l-9.2,11.4C107.1,125.4,107,125.5,106.9,125.5z"/>
		</g>
		<g>
			<path class="st1" d="M222.9,71.1c-0.1,0-0.2,0-0.2-0.1l-5.4-4.8c-0.1-0.1-0.2-0.4,0-0.5s0.4-0.2,0.5,0l5.4,4.8
				c0.1,0.1,0.2,0.4,0,0.5C223.1,71,223,71.1,222.9,71.1z"/>
			<path class="st1" d="M222.9,71.1c-0.1,0-0.2,0-0.2-0.1c-0.2-0.1-0.2-0.4-0.1-0.5l9.2-11.4c0.1-0.2,0.4-0.2,0.5-0.1
				c0.2,0.1,0.2,0.4,0.1,0.5l-9.2,11.4C223.1,71.1,223,71.1,222.9,71.1z"/>
		</g>
		<rect x="100.8" y="64.2" class="st0" width="16.8" height="12"/>
	</g>
</g>
<g id="Layer_2_1_">
</g>
<g id="Layer_3">
</g>
<g id="Layer_4">
</g>
<g id="Layer_5">
</g>
<g id="Layer_6">
</g>
</svg>
