<svg xmlns="http://www.w3.org/2000/svg" preserveAspectRatio="xMidYMid" width="68" height="48" viewBox="0 0 68 48"><defs><style>.cls-1 { fill: #b6bcbd; fill-rule: evenodd; }</style></defs><path d="M66.965 41.823h-7.223c-.468 3.485-3.465 6.18-7.08 6.18-3.614 0-6.61-2.695-7.08-6.18H24.764c-.47 3.482-3.466 6.174-7.08 6.174-3.612 0-6.607-2.692-7.08-6.174h-9.57C.464 41.823 0 41.36 0 40.79V1.035C0 .463.463 0 1.035 0H33.64c.572 0 1.035.463 1.035 1.035v11.26h14.282c.393 0 .75.222.926.572l4.564 12.037 12.828 4.022c.43.135.725.534.725.986V40.79c0 .57-.463 1.033-1.035 1.033zm-49.28 4.106c2.782 0 5.047-2.25 5.074-5.02-.01-.04-.01-.08-.01-.11-.03-2.76-2.31-5.01-5.07-5.01-2.52 0-4.63 1.86-5.016 4.28-.04.26-.06.52-.06.79 0 2.79 2.276 5.07 5.074 5.07zm14.92-43.87H2.07v37.69h8.556c.5-3.197 3.136-5.7 6.398-6 .217-.02.436-.03.657-.03h.01c3.55.005 6.52 2.628 7.06 6.03h7.86V2.07zm20.057 43.87c2.77 0 5.026-2.225 5.074-4.98-.01-.05-.014-.1-.014-.154-.022-1.88-1.076-3.586-2.752-4.45-.716-.365-1.493-.55-2.308-.55-2.798 0-5.074 2.272-5.074 5.067 0 2.794 2.277 5.068 5.074 5.068zM65.93 30.67l-12.522-3.926c-.268-.084-.49-.273-.616-.525l-4.476-11.86h-13.64v25.39h10.92c.538-3.41 3.51-6.03 7.056-6.03 1.135 0 2.265.27 3.267.785 2.05 1.054 3.45 3.007 3.8 5.243h6.21v-9.08zM36.745 16.717h9.598l4.15 10.233H36.745V16.715zm2.07 8.166h8.606l-2.47-6.1h-6.13v6.1z" class="cls-1"/></svg>