<?xml version="1.0" encoding="utf-8"?>
<!-- Generator: Adobe Illustrator 22.0.1, SVG Export Plug-In . SVG Version: 6.00 Build 0)  -->
<svg version="1.1" xmlns="http://www.w3.org/2000/svg" xmlns:xlink="http://www.w3.org/1999/xlink" x="0px" y="0px" width="300px"
	 height="125px" viewBox="0 0 300 125" enable-background="new 0 0 300 125" xml:space="preserve">
<g id="Layer_1">
	<g>
		<g>
			<g>
				<g>
					<path fill="#FFFFFF" d="M259.95,21.04v86.68c0,3.16-2.58,5.74-5.74,5.74h-69.04c-3.16,0-5.74-2.58-5.74-5.74V7.36
						c0-3.16,2.58-5.74,5.74-5.74h54.68L259.95,21.04z"/>
					<path fill="#989FA1" d="M254.21,113.84h-69.04c-3.37,0-6.12-2.74-6.12-6.12V7.36c0-3.37,2.74-6.12,6.12-6.12H240l20.32,19.64
						v86.84C260.32,111.1,257.58,113.84,254.21,113.84z M185.17,1.99c-2.96,0-5.37,2.41-5.37,5.37v100.37
						c0,2.96,2.41,5.37,5.37,5.37h69.04c2.96,0,5.37-2.41,5.37-5.37V21.2L239.7,1.99H185.17z"/>
				</g>
				<g>
					<polygon fill="#FFFFFF" points="260.18,20.93 240.08,20.93 240.08,1.5 					"/>
					<path fill="#989FA1" d="M240.83,3.27l17.49,16.91h-17.49V3.27 M240.08,1.5v19.43h20.1L240.08,1.5L240.08,1.5z"/>
				</g>
				<rect x="191.99" y="42.13" fill="#989FA1" width="55.57" height="0.75"/>
				<rect x="191.99" y="54.17" fill="#989FA1" width="55.57" height="0.75"/>
				<rect x="191.99" y="66.22" fill="#989FA1" width="55.57" height="0.75"/>
				<rect x="191.99" y="78.26" fill="#989FA1" width="55.57" height="0.75"/>
				<rect x="191.99" y="90.31" fill="#989FA1" width="31.04" height="0.75"/>
				<g>
					<path fill="#989FA1" d="M194.53,20.92v-6.19h-2.2v-0.77h5.28v0.77h-2.21v6.19H194.53z"/>
					<path fill="#989FA1" d="M203.54,20.92l-0.62-1.55h-3.46l-0.62,1.55h-0.99l2.81-6.96h1.08l2.8,6.96H203.54z M201.19,14.85
						l-1.47,3.76h2.95L201.19,14.85z"/>
					<path fill="#989FA1" d="M210.78,20.92l-2.22-2.96l-2.22,2.96h-1.05l2.71-3.57l-2.56-3.39h1.05l2.07,2.78l2.06-2.78h1.06
						l-2.56,3.38l2.71,3.58H210.78z"/>
					<path fill="#989FA1" d="M213.29,20.92v-6.96h4.56v0.77h-3.69v2.24h3.62v0.77h-3.62v2.4h3.69v0.77H213.29z"/>
					<path fill="#989FA1" d="M219.33,19.94l0.52-0.67c0.45,0.52,1.2,1,2.18,1c1.24,0,1.64-0.67,1.64-1.21c0-1.8-4.12-0.79-4.12-3.28
						c0-1.15,1.02-1.94,2.4-1.94c1.05,0,1.88,0.37,2.46,0.98l-0.52,0.64c-0.52-0.58-1.25-0.83-2.01-0.83
						c-0.82,0-1.43,0.45-1.43,1.11c0,1.57,4.12,0.67,4.12,3.27c0,1-0.69,2.04-2.57,2.04C220.81,21.05,219.91,20.59,219.33,19.94z"/>
				</g>
			</g>
			<rect x="231.76" y="57.11" fill="#EEE679" width="47.6" height="63.16"/>
			<g>
				<g>
					<path fill="#FFFFFF" d="M281.31,123.5h-42.57c-1,0-1.82-0.81-1.82-1.82V77.54h46.21v44.14
						C283.13,122.69,282.32,123.5,281.31,123.5z"/>
					<path fill="#989FA1" d="M281.31,123.87h-42.57c-1.21,0-2.19-0.98-2.19-2.19V77.16h46.96v44.52
						C283.51,122.89,282.52,123.87,281.31,123.87z M237.29,77.91v43.77c0,0.8,0.65,1.44,1.44,1.44h42.57c0.8,0,1.44-0.65,1.44-1.44
						V77.91H237.29z"/>
				</g>
				
					<rect x="241.21" y="81.58" transform="matrix(-1.836970e-16 1 -1 -1.836970e-16 360.5359 -159.5139)" fill="#ECEFEF" width="37.63" height="37.86"/>
				<g>
					<path fill="#FFFFFF" d="M283.13,77.57h-46.21V64c0-1.01,0.81-1.82,1.82-1.82h42.57c1.01,0,1.82,0.81,1.82,1.82V77.57z"/>
					<path fill="#989FA1" d="M283.51,77.94h-46.96V64c0-1.21,0.98-2.2,2.2-2.2h42.57c1.21,0,2.2,0.98,2.2,2.2V77.94z M237.29,77.19
						h45.46V64c0-0.8-0.65-1.45-1.45-1.45h-42.57c-0.8,0-1.45,0.65-1.45,1.45V77.19z"/>
				</g>
				<g>
					<g>
						<g>
							<path fill="#989FA1" d="M249.76,95.44c-0.21,0-0.38-0.17-0.38-0.38v-9.73c0-0.21,0.17-0.38,0.38-0.38s0.38,0.17,0.38,0.38
								v9.73C250.13,95.27,249.96,95.44,249.76,95.44z"/>
						</g>
						<g>
							<path fill="#989FA1" d="M254.62,90.57h-9.73c-0.21,0-0.38-0.17-0.38-0.38s0.17-0.38,0.38-0.38h9.73
								c0.21,0,0.38,0.17,0.38,0.38S254.83,90.57,254.62,90.57z"/>
						</g>
					</g>
					<g>
						<path fill="#989FA1" d="M274.35,90.57h-9.18c-0.21,0-0.38-0.17-0.38-0.38s0.17-0.38,0.38-0.38h9.18
							c0.21,0,0.38,0.17,0.38,0.38S274.55,90.57,274.35,90.57z"/>
					</g>
					<g>
						<g>
							<path fill="#989FA1" d="M275.63,106.59h-10.47c-0.21,0-0.38-0.17-0.38-0.38s0.17-0.38,0.38-0.38h10.47
								c0.21,0,0.38,0.17,0.38,0.38S275.84,106.59,275.63,106.59z"/>
						</g>
						<g>
							<path fill="#989FA1" d="M275.63,113.07h-10.47c-0.21,0-0.38-0.17-0.38-0.38s0.17-0.38,0.38-0.38h10.47
								c0.21,0,0.38,0.17,0.38,0.38S275.84,113.07,275.63,113.07z"/>
						</g>
					</g>
					<g>
						<g>
							<line fill="#FFFFFF" x1="253.81" y1="105.4" x2="245.7" y2="113.51"/>
							<path fill="#989FA1" d="M245.7,113.88c-0.1,0-0.19-0.04-0.27-0.11c-0.15-0.15-0.15-0.38,0-0.53l8.11-8.11
								c0.15-0.15,0.38-0.15,0.53,0c0.15,0.15,0.15,0.38,0,0.53l-8.11,8.11C245.89,113.85,245.8,113.88,245.7,113.88z"/>
						</g>
						<g>
							<line fill="#FFFFFF" x1="253.81" y1="113.51" x2="245.7" y2="105.4"/>
							<path fill="#989FA1" d="M253.81,113.88c-0.1,0-0.19-0.04-0.27-0.11l-8.11-8.11c-0.15-0.15-0.15-0.38,0-0.53
								c0.15-0.15,0.38-0.15,0.53,0l8.11,8.11c0.15,0.15,0.15,0.38,0,0.53C254,113.85,253.9,113.88,253.81,113.88z"/>
						</g>
					</g>
				</g>
				
					<rect x="255.88" y="50.91" transform="matrix(-1.836970e-16 1 -1 -1.836970e-16 329.864 -190.1858)" fill="#ECEFEF" width="8.29" height="37.86"/>
			</g>
		</g>
		<g>
			<polygon fill="#989FA1" points="117.91,66.41 113.38,61.96 113.9,61.43 117.9,65.35 121.82,61.36 122.35,61.88 			"/>
		</g>
		<path fill="#989FA1" d="M118.22,65.72h-0.75v-5.97c0-3.16,2.57-5.73,5.73-5.73h29.56v0.75H123.2c-2.75,0-4.98,2.23-4.98,4.98
			V65.72z"/>
		<g>
			<polygon fill="#989FA1" points="153,66.79 152.47,66.27 156.91,61.74 161.44,66.18 160.92,66.72 156.92,62.8 			"/>
		</g>
		<path fill="#989FA1" d="M151.62,74.18h-29.56v-0.75h29.56c2.75,0,4.98-2.23,4.98-4.98v-5.97h0.75v5.97
			C157.35,71.61,154.78,74.18,151.62,74.18z"/>
		<g>
			<g>
				<path fill="#FFFFFF" d="M63.92,27.62c20.83,4.64,33.94,25.29,29.3,46.11c-4.64,20.83-25.29,33.95-46.12,29.3
					c-20.83-4.64-33.94-25.29-29.3-46.11C22.44,36.09,43.09,22.97,63.92,27.62z"/>
				<path fill="#989FA1" d="M55.59,104.35c-2.85,0-5.72-0.31-8.57-0.95c-10.17-2.27-18.85-8.36-24.44-17.15
					c-5.59-8.79-7.42-19.24-5.15-29.41C19.7,46.67,25.8,37.99,34.59,32.4c8.79-5.59,19.23-7.42,29.41-5.15
					c10.17,2.27,18.85,8.36,24.44,17.15c5.59,8.79,7.42,19.24,5.15,29.41c-2.27,10.17-8.36,18.85-17.15,24.44
					C70.1,102.28,62.91,104.35,55.59,104.35z M55.43,27.05c-7.18,0-14.23,2.03-20.44,5.98C26.37,38.51,20.39,47.03,18.17,57
					c-2.22,9.97-0.43,20.22,5.05,28.84c5.48,8.62,13.99,14.6,23.97,16.82c9.97,2.23,20.22,0.43,28.84-5.05
					c8.62-5.48,14.6-13.99,16.82-23.97c2.23-9.97,0.43-20.22-5.05-28.84c-5.48-8.62-13.99-14.6-23.97-16.82l0,0
					C61.04,27.36,58.23,27.05,55.43,27.05z"/>
			</g>
			<path fill="#ECEFEF" d="M62.78,32.73c18,4.01,29.34,21.86,25.33,39.86c-4.01,18-21.86,29.34-39.86,25.33
				c-18-4.01-29.34-21.86-25.33-39.86C26.93,40.06,44.78,28.72,62.78,32.73z"/>
		</g>
		<g>
			<path fill="#FFFFFF" d="M63.92,27.62c20.83,4.64,33.94,25.29,29.3,46.11c-4.64,20.83-25.29,33.95-46.12,29.3
				c-20.83-4.64-33.94-25.29-29.3-46.11C22.44,36.09,43.09,22.97,63.92,27.62z"/>
			<path fill="#989FA1" d="M55.59,104.35c-2.85,0-5.72-0.31-8.57-0.95c-10.17-2.27-18.85-8.36-24.44-17.15
				c-5.59-8.79-7.42-19.24-5.15-29.41C19.7,46.67,25.8,37.99,34.59,32.4c8.79-5.59,19.23-7.42,29.41-5.15
				c10.17,2.27,18.85,8.36,24.44,17.15c5.59,8.79,7.42,19.24,5.15,29.41c-2.27,10.17-8.36,18.85-17.15,24.44
				C70.1,102.28,62.91,104.35,55.59,104.35z M55.43,27.05c-7.18,0-14.23,2.03-20.44,5.98C26.37,38.51,20.39,47.03,18.17,57
				c-2.22,9.97-0.43,20.22,5.05,28.84c5.48,8.62,13.99,14.6,23.97,16.82c9.97,2.23,20.22,0.43,28.84-5.05
				c8.62-5.48,14.6-13.99,16.82-23.97c2.23-9.97,0.43-20.22-5.05-28.84c-5.48-8.62-13.99-14.6-23.97-16.82l0,0
				C61.04,27.36,58.23,27.05,55.43,27.05z"/>
		</g>
		<path fill="#ECEFEF" d="M62.78,32.73c18,4.01,29.34,21.86,25.33,39.86c-4.01,18-21.86,29.34-39.86,25.33
			c-18-4.01-29.34-21.86-25.33-39.86C26.93,40.06,44.78,28.72,62.78,32.73z"/>
		<g>
			<path fill="#989FA1" d="M38.12,82.69c-2.77-1.6-4.49-4.57-4.49-7.76c0-4.94,4.02-8.95,8.95-8.95c1.45,0,2.88,0.35,4.16,1.02
				l6.46-11.19l0.65,0.38l-6.83,11.83l-0.33-0.19c-1.24-0.72-2.66-1.1-4.11-1.1c-4.52,0-8.2,3.68-8.2,8.2
				c0,2.92,1.58,5.65,4.11,7.11L38.12,82.69z"/>
			<g>
				<path fill="#FFFFFF" d="M59.77,52.4c0,2.3-1.87,4.17-4.17,4.17c-0.76,0-1.46-0.21-2.07-0.56c-1.25-0.71-2.09-2.06-2.09-3.6
					c0-2.3,1.87-4.17,4.17-4.17C57.9,48.23,59.77,50.1,59.77,52.4z"/>
				<path fill="#989FA1" d="M55.6,56.94c-0.79,0-1.58-0.21-2.26-0.61c-1.4-0.8-2.28-2.31-2.28-3.93c0-2.5,2.04-4.54,4.54-4.54
					c2.5,0,4.54,2.04,4.54,4.54C60.14,54.9,58.1,56.94,55.6,56.94z M55.6,48.6c-2.09,0-3.79,1.7-3.79,3.79
					c0,1.35,0.73,2.61,1.9,3.28c0.58,0.34,1.22,0.51,1.89,0.51c2.09,0,3.79-1.7,3.79-3.79S57.69,48.6,55.6,48.6z"/>
			</g>
			<path fill="#989FA1" d="M68.45,83.64c-3.1,0-6.11-1.61-7.77-4.47c-0.73-1.26-1.13-2.67-1.19-4.11l-12.92,0V74.3l13.66,0l0,0.38
				c0,1.44,0.38,2.86,1.1,4.11c2.26,3.92,7.29,5.27,11.21,3c2.53-1.46,4.1-4.19,4.1-7.12h0.75c0,3.2-1.71,6.17-4.48,7.77
				C71.51,83.25,69.97,83.64,68.45,83.64z"/>
			<g>
				<path fill="#FFFFFF" d="M46.57,74.67c0,1.44-0.75,2.83-2.08,3.61c-1.99,1.14-4.54,0.47-5.69-1.53
					c-1.15-1.99-0.47-4.53,1.52-5.69c2-1.15,4.54-0.47,5.7,1.53C46.39,73.26,46.57,73.97,46.57,74.67z"/>
				<path fill="#989FA1" d="M42.42,79.22c-0.4,0-0.8-0.05-1.2-0.16c-1.17-0.32-2.14-1.07-2.74-2.12c-0.61-1.05-0.77-2.27-0.46-3.44
					c0.31-1.17,1.06-2.15,2.11-2.76c2.18-1.25,4.96-0.5,6.21,1.67c0.4,0.69,0.6,1.47,0.6,2.26c0,1.61-0.87,3.12-2.27,3.94
					C43.98,79.01,43.2,79.22,42.42,79.22z M42.4,70.89c-0.64,0-1.29,0.16-1.89,0.5c-0.88,0.51-1.5,1.33-1.76,2.3
					c-0.26,0.98-0.13,2,0.38,2.87c0.5,0.88,1.31,1.5,2.29,1.77c0.98,0.27,2.01,0.13,2.89-0.37c1.17-0.68,1.9-1.94,1.9-3.29
					c0-0.66-0.17-1.31-0.5-1.89C44.99,71.57,43.71,70.89,42.4,70.89z"/>
			</g>
			<path fill="#989FA1" d="M66.02,71.42L59.19,59.6l0.33-0.19c1.25-0.72,2.29-1.76,3.01-3.01c1.1-1.9,1.39-4.11,0.82-6.22
				c-0.57-2.12-1.92-3.89-3.82-4.98c-2.53-1.46-5.68-1.46-8.21,0l-0.38-0.65c2.77-1.6,6.2-1.6,8.96-0.01
				c2.07,1.2,3.55,3.13,4.17,5.44c0.62,2.31,0.3,4.72-0.89,6.79c-0.72,1.26-1.75,2.32-2.96,3.09l6.46,11.18L66.02,71.42z"/>
			<g>
				<path fill="#FFFFFF" d="M72.03,76.93c-1.15,1.99-3.7,2.67-5.69,1.52c-1.99-1.14-2.67-3.7-1.52-5.69
					c0.38-0.66,0.91-1.17,1.52-1.52c1.25-0.72,2.83-0.77,4.17,0C72.5,72.38,73.19,74.93,72.03,76.93z"/>
				<path fill="#989FA1" d="M68.42,79.38c-0.79,0-1.57-0.21-2.27-0.61c-1.05-0.6-1.8-1.58-2.11-2.75c-0.31-1.17-0.15-2.4,0.46-3.45
					c0.39-0.69,0.97-1.27,1.66-1.66c1.4-0.81,3.14-0.81,4.54,0c1.05,0.6,1.8,1.58,2.11,2.75c0.31,1.17,0.15,2.4-0.46,3.45l0,0
					c-0.6,1.05-1.58,1.8-2.75,2.11C69.21,79.33,68.82,79.38,68.42,79.38z M68.43,71.06c-0.66,0-1.31,0.17-1.9,0.51
					c-0.58,0.33-1.05,0.8-1.38,1.38c-0.51,0.88-0.64,1.9-0.38,2.88c0.26,0.98,0.89,1.79,1.76,2.3c0.88,0.51,1.9,0.64,2.88,0.38
					c0.98-0.26,1.79-0.89,2.3-1.76h0c0.51-0.88,0.64-1.9,0.38-2.88c-0.26-0.97-0.89-1.79-1.76-2.29
					C69.74,71.23,69.08,71.06,68.43,71.06z"/>
			</g>
			<path fill="#989FA1" d="M63.17,56.78l-0.65-0.38c1.1-1.9,1.39-4.11,0.82-6.22c-0.57-2.12-1.92-3.89-3.82-4.98
				c-2.53-1.46-5.68-1.46-8.21,0l-0.38-0.65c2.77-1.6,6.2-1.6,8.96-0.01c2.07,1.2,3.55,3.13,4.17,5.44
				C64.68,52.29,64.37,54.7,63.17,56.78z"/>
		</g>
	</g>
</g>
<g id="Layer_2">
</g>
<g id="Layer_3">
</g>
<g id="Layer_4">
</g>
<g id="Layer_5">
</g>
<g id="Layer_6">
</g>
</svg>
