<svg xmlns="http://www.w3.org/2000/svg" preserveAspectRatio="xMidYMid" width="60" height="54" viewBox="0 0 60 54"><defs><style>.cls-1 { fill: #b6bcbd; fill-rule: evenodd; }</style></defs><path d="M49.61 38.183h-10.8c-.713 0-1.294-.586-1.294-1.307 0-.72.58-1.306 1.295-1.306h10.8c4.3 0 7.8-3.528 7.8-7.865 0-3.683-2.59-6.915-6.15-7.686l-1.31-.29.32-1.31c.18-.72.27-1.428.27-2.11 0-4.79-3.866-8.69-8.617-8.69-1.866 0-3.65.6-5.157 1.74l-1.21.916-.71-1.347C32.79 5.03 28.8 2.606 24.428 2.606c-6.503 0-11.793 5.337-11.793 11.895 0 1.23.19 2.45.57 3.63l.54 1.705h-3.35c-4.3 0-7.798 3.527-7.798 7.864s3.5 7.866 7.798 7.866h10.63c.715 0 1.296.583 1.296 1.303s-.58 1.306-1.295 1.306H10.388C4.66 38.183 0 33.483 0 27.706c0-2.717 1.03-5.294 2.902-7.257 1.866-1.96 4.368-3.1 7.046-3.21l.344-.02-.057-.342c-.13-.78-.194-1.58-.194-2.375C10.04 6.505 16.5 0 24.43 0c4.723 0 9.144 2.338 11.826 6.254l.156.227.24-.13c1.632-.88 3.406-1.33 5.272-1.33 6.18 0 11.207 5.07 11.207 11.305 0 .41-.023.83-.072 1.25l-.027.24.22.085c4.04 1.528 6.75 5.47 6.75 9.81 0 5.776-4.66 10.477-10.39 10.477zm-29.392 3.53c.312 0 .624.118.862.358l7.668 7.74v-27c0-.676.547-1.23 1.22-1.23.67 0 1.217.554 1.217 1.23v27l7.668-7.733c.476-.477 1.25-.477 1.724 0 .475.48.475 1.26 0 1.74l-9.75 9.83c-.474.48-1.247.48-1.722 0l-9.75-9.83c-.23-.233-.356-.54-.356-.87 0-.327.12-.636.35-.87.24-.24.55-.357.86-.357z" class="cls-1"/></svg>