<?xml version="1.0" encoding="utf-8"?>
<!-- Generator: Adobe Illustrator 22.0.1, SVG Export Plug-In . SVG Version: 6.00 Build 0)  -->
<svg version="1.1" xmlns="http://www.w3.org/2000/svg" xmlns:xlink="http://www.w3.org/1999/xlink" x="0px" y="0px" width="300px"
	 height="125.5px" viewBox="0 0 300 125.5" enable-background="new 0 0 300 125.5" xml:space="preserve">
<g id="Layer_1">
	<g>
		<path fill="#989FA1" d="M217.45,42.66c-0.45-0.67-1.08-1.19-1.82-1.5l-19.36-8.12l0.29-0.69l19.36,8.12
			c0.87,0.37,1.62,0.98,2.15,1.77L217.45,42.66z"/>
		<path fill="#989FA1" d="M82.95,42.96l-0.62-0.41c0.8-1.21,1.94-2.16,3.29-2.72l17.83-7.47l0.29,0.69L85.9,40.52
			C84.69,41.03,83.67,41.87,82.95,42.96z"/>
		<g>
			<g>
				<path fill="#FFFFFF" d="M192.44,113.44l-84.26,0c-2.38,0-4.3-1.93-4.3-4.3l0-103.09c0-2.38,1.93-4.3,4.3-4.3l84.26,0
					c2.38,0,4.3,1.93,4.3,4.3l0,103.09C196.74,111.52,194.82,113.44,192.44,113.44z"/>
				<path fill="#989FA1" d="M108.18,113.82c-2.58,0-4.68-2.1-4.68-4.68l0-103.09c0-2.58,2.1-4.68,4.68-4.68l84.26,0
					c2.58,0,4.68,2.1,4.68,4.68l0,103.09c0,1.25-0.49,2.42-1.37,3.31s-2.06,1.37-3.31,1.37L108.18,113.82z M192.43,2.12l-84.26,0
					c-2.17,0-3.93,1.76-3.93,3.93l0,103.09c0,2.17,1.76,3.93,3.93,3.93l84.26,0c1.05,0,2.04-0.41,2.78-1.15
					c0.74-0.74,1.15-1.73,1.15-2.78l0-103.09C196.36,3.89,194.6,2.12,192.43,2.12z"/>
			</g>
			<rect x="113.68" y="43.76" fill="#989FA1" width="50.62" height="0.75"/>
			<rect x="113.68" y="52.54" fill="#989FA1" width="50.62" height="0.75"/>
			<rect x="113.68" y="34.98" fill="#989FA1" width="50.62" height="0.75"/>
			<rect x="113.68" y="61.33" fill="#989FA1" width="37.76" height="0.75"/>
			<g>
				<g>
					<path fill="#989FA1" d="M113.55,16.92c0-1.31,0.93-2.27,2.25-2.27c1.31,0,2.25,0.96,2.25,2.27s-0.94,2.27-2.25,2.27
						C114.48,19.2,113.55,18.23,113.55,16.92z M117.26,16.92c0-0.91-0.57-1.59-1.46-1.59c-0.89,0-1.46,0.68-1.46,1.59
						c0,0.9,0.57,1.59,1.46,1.59C116.69,18.51,117.26,17.82,117.26,16.92z"/>
					<path fill="#989FA1" d="M121.62,19.12l-0.97-1.64h-0.77v1.64h-0.77v-4.4h1.93c0.87,0,1.44,0.56,1.44,1.38
						c0,0.78-0.51,1.21-1.05,1.29l1.08,1.73H121.62z M121.69,16.09c0-0.42-0.32-0.69-0.75-0.69h-1.06v1.4h1.06
						C121.38,16.8,121.69,16.52,121.69,16.09z"/>
					<path fill="#989FA1" d="M123.58,19.12v-4.4h1.63c1.38,0,2.3,0.91,2.3,2.19c0,1.3-0.92,2.2-2.29,2.2H123.58z M126.73,16.91
						c0-0.84-0.53-1.52-1.5-1.52h-0.87v3.04h0.86C126.17,18.44,126.73,17.75,126.73,16.91z"/>
					<path fill="#989FA1" d="M128.59,19.12v-4.4h3.01v0.68h-2.24v1.13h2.2v0.68h-2.2v1.23h2.24v0.68H128.59z"/>
					<path fill="#989FA1" d="M135.23,19.12l-0.97-1.64h-0.77v1.64h-0.77v-4.4h1.93c0.87,0,1.44,0.56,1.44,1.38
						c0,0.78-0.51,1.21-1.05,1.29l1.08,1.73H135.23z M135.3,16.09c0-0.42-0.32-0.69-0.75-0.69h-1.06v1.4h1.06
						C134.98,16.8,135.3,16.52,135.3,16.09z"/>
					<path fill="#989FA1" d="M138.93,18.5l0.43-0.6c0.3,0.32,0.78,0.61,1.39,0.61c0.63,0,0.88-0.31,0.88-0.61
						c0-0.92-2.56-0.35-2.56-1.96c0-0.73,0.63-1.29,1.6-1.29c0.68,0,1.24,0.22,1.64,0.62l-0.43,0.57c-0.35-0.35-0.82-0.51-1.28-0.51
						c-0.45,0-0.74,0.22-0.74,0.55c0,0.82,2.56,0.32,2.56,1.95c0,0.73-0.52,1.36-1.7,1.36C139.91,19.2,139.33,18.91,138.93,18.5z"/>
					<path fill="#989FA1" d="M144.44,19.12V15.4h-1.33v-0.68h3.43v0.68h-1.33v3.72H144.44z"/>
					<path fill="#989FA1" d="M150.17,19.12l-0.32-0.85h-2.02l-0.32,0.85h-0.88l1.73-4.4h0.96l1.73,4.4H150.17z M148.84,15.49
						l-0.79,2.1h1.58L148.84,15.49z"/>
					<path fill="#989FA1" d="M152.47,19.12V15.4h-1.33v-0.68h3.43v0.68h-1.33v3.72H152.47z"/>
					<path fill="#989FA1" d="M155.55,17.38v-2.66h0.79v2.64c0,0.7,0.39,1.15,1.12,1.15s1.12-0.46,1.12-1.15v-2.64h0.79v2.66
						c0,1.09-0.63,1.82-1.91,1.82C156.18,19.2,155.55,18.46,155.55,17.38z"/>
					<path fill="#989FA1" d="M160.34,18.5l0.43-0.6c0.3,0.32,0.78,0.61,1.39,0.61c0.63,0,0.88-0.31,0.88-0.61
						c0-0.92-2.56-0.35-2.56-1.96c0-0.73,0.63-1.29,1.6-1.29c0.68,0,1.24,0.22,1.64,0.62l-0.43,0.57c-0.35-0.35-0.82-0.51-1.28-0.51
						c-0.45,0-0.74,0.22-0.74,0.55c0,0.82,2.56,0.32,2.56,1.95c0,0.73-0.52,1.36-1.7,1.36C161.32,19.2,160.73,18.91,160.34,18.5z"/>
					<path fill="#989FA1" d="M113.46,26.4l0.43-0.6c0.3,0.32,0.78,0.61,1.39,0.61c0.63,0,0.88-0.31,0.88-0.61
						c0-0.92-2.56-0.35-2.56-1.96c0-0.73,0.63-1.29,1.6-1.29c0.68,0,1.24,0.22,1.64,0.62l-0.43,0.57c-0.35-0.35-0.82-0.51-1.28-0.51
						c-0.45,0-0.74,0.22-0.74,0.55c0,0.82,2.56,0.32,2.56,1.95c0,0.73-0.52,1.36-1.7,1.36C114.44,27.1,113.86,26.81,113.46,26.4z"/>
					<path fill="#989FA1" d="M121.04,27.02v-1.92h-2.29v1.92h-0.77v-4.4h0.77v1.79h2.29v-1.79h0.77v4.4H121.04z"/>
					<path fill="#989FA1" d="M123.07,27.02v-4.4h0.77v4.4H123.07z"/>
					<path fill="#989FA1" d="M125.11,27.02v-4.4h1.94c0.92,0,1.43,0.63,1.43,1.38c0,0.75-0.51,1.37-1.43,1.37h-1.17v1.65H125.11z
						 M127.69,24c0-0.42-0.31-0.7-0.75-0.7h-1.06v1.39h1.06C127.38,24.69,127.69,24.41,127.69,24z"/>
					<path fill="#989FA1" d="M129.45,27.02v-4.4h1.94c0.92,0,1.43,0.63,1.43,1.38c0,0.75-0.51,1.37-1.43,1.37h-1.17v1.65H129.45z
						 M132.03,24c0-0.42-0.31-0.7-0.75-0.7h-1.06v1.39h1.06C131.72,24.69,132.03,24.41,132.03,24z"/>
					<path fill="#989FA1" d="M133.79,27.02v-4.4h3.01v0.68h-2.24v1.13h2.2v0.68h-2.2v1.23h2.24v0.68H133.79z"/>
					<path fill="#989FA1" d="M137.92,27.02v-4.4h1.63c1.38,0,2.3,0.91,2.3,2.2c0,1.3-0.92,2.2-2.29,2.2H137.92z M141.06,24.82
						c0-0.84-0.53-1.52-1.5-1.52h-0.87v3.04h0.86C140.51,26.34,141.06,25.65,141.06,24.82z"/>
				</g>
			</g>
			<path fill="#EEE679" d="M191,14.51l-6.82-3.93c-0.6-0.34-1.57-0.34-2.16,0l-6.81,3.93c-0.6,0.34-1.08,1.19-1.08,1.87v7.87
				c0,0.69,0.49,1.53,1.08,1.87l6.81,3.93c0.6,0.34,1.57,0.34,2.16,0l6.82-3.93c0.6-0.34,1.08-1.19,1.08-1.87v-7.87
				C192.08,15.7,191.6,14.85,191,14.51z M189.16,18.74h-0.71v-1.2c0-0.92-0.71-1.2-2.07-1.2h-0.06c-3.27,0-2.98-1.22-3.08-1.67
				h-0.05c-0.09,0.45,0.22,1.67-3.05,1.67h-0.09c-1.37,0-2.07,0.28-2.07,1.2v0.93l11.17,3.23v0.18h0v1.15
				c0,1.32-0.64,2.05-2.78,2.05h-0.11c-1.67,0-2.7,0.35-2.7,1.67h-0.71c0-1.32-1.03-1.67-2.7-1.67h-0.11
				c-2.14,0-2.78-0.73-2.78-2.05v-1.15h0.71v1.2c0,0.92,0.71,1.2,2.07,1.2h0.06c3.27,0,2.98,1.22,3.08,1.67h0.05
				c0.09-0.45-0.22-1.67,3.05-1.67h0.09c1.37,0,2.07-0.28,2.07-1.2v-0.69l-11.17-3.23v-0.42h0v-1.15c0-1.32,0.64-2.05,2.78-2.05
				h0.11c1.67,0,2.7-0.35,2.7-1.67h0.71c0,1.32,1.03,1.67,2.7,1.67h0.11c2.14,0,2.78,0.73,2.78,2.05V18.74z"/>
		</g>
		<g>
			<path fill="#FFFFFF" d="M218.52,44.94v71.84c0,3.85-3.12,6.97-6.97,6.97H88.45c-3.85,0-6.97-3.12-6.97-6.97V46.6
				c0-1.4,0.42-2.73,1.16-3.85L146.3,82.6c2.27,1.42,5.14,1.42,7.41,0l64.06-40.15C218.25,43.17,218.52,44.04,218.52,44.94z"/>
			<path fill="#989FA1" d="M211.55,124.12H88.45c-4.05,0-7.35-3.29-7.35-7.34V46.6c0-1.45,0.42-2.85,1.22-4.05l0.2-0.3l63.97,40.04
				c2.13,1.33,4.88,1.33,7.01,0l64.37-40.34l0.2,0.3c0.54,0.8,0.82,1.74,0.82,2.7v71.84C218.9,120.83,215.6,124.12,211.55,124.12z
				 M82.75,43.27c-0.59,1.01-0.9,2.15-0.9,3.33v70.18c0,3.64,2.96,6.59,6.6,6.59h123.1c3.64,0,6.6-2.96,6.6-6.59V44.94
				c0-0.69-0.17-1.37-0.51-1.97L153.9,82.92c-2.37,1.49-5.43,1.49-7.8,0L82.75,43.27z"/>
		</g>
		<path fill="#ECEFEF" d="M88.45,120.11c-1.84,0-3.34-1.5-3.34-3.33V48.59l59.25,37.09c1.69,1.06,3.64,1.62,5.63,1.62
			c2,0,3.94-0.56,5.63-1.62l59.25-37.14v68.24c0,1.84-1.5,3.33-3.34,3.33H88.45z"/>
		
			<rect x="75.95" y="96.18" transform="matrix(0.6614 -0.75 0.75 0.6614 -36.5629 112.1071)" fill="#989FA1" width="59.89" height="0.75"/>
		
			<rect x="193.53" y="66.61" transform="matrix(0.7505 -0.6608 0.6608 0.7505 -15.4327 152.2226)" fill="#989FA1" width="0.75" height="59.89"/>
	</g>
</g>
<g id="Layer_2">
</g>
<g id="Layer_3">
</g>
<g id="Layer_4">
</g>
<g id="Layer_5">
</g>
<g id="Layer_6">
</g>
</svg>
