<?xml version="1.0" encoding="utf-8"?>
<!-- Generator: Adobe Illustrator 22.0.1, SVG Export Plug-In . SVG Version: 6.00 Build 0)  -->
<svg version="1.1" xmlns="http://www.w3.org/2000/svg" xmlns:xlink="http://www.w3.org/1999/xlink" x="0px" y="0px" width="300px"
	 height="141.67px" viewBox="0 0 300 141.67" enable-background="new 0 0 300 141.67" xml:space="preserve">
<g id="Layer_1">
	<g>
		<path fill="#989FA1" d="M226.93,47.92c-0.52-0.77-1.23-1.36-2.07-1.71l-22.08-9.26l0.33-0.79l22.08,9.26
			c1,0.42,1.84,1.12,2.45,2.02L226.93,47.92z"/>
		<path fill="#989FA1" d="M73.52,48.26l-0.71-0.47c0.92-1.39,2.21-2.46,3.75-3.1l20.33-8.53l0.33,0.79l-20.33,8.53
			C75.51,46.06,74.35,47.02,73.52,48.26z"/>
		<g>
			<g>
				<path fill="#FFFFFF" d="M198.4,128.65l-96.1,0c-2.71,0-4.91-2.2-4.91-4.91L97.39,6.17c0-2.71,2.2-4.91,4.91-4.91l96.1,0
					c2.71,0,4.91,2.2,4.91,4.91l0.01,117.58C203.31,126.45,201.11,128.65,198.4,128.65z"/>
				<path fill="#989FA1" d="M102.3,129.08c-2.94,0-5.34-2.39-5.34-5.34L96.96,6.17c0-2.94,2.39-5.34,5.34-5.34l96.1,0
					c2.94,0,5.34,2.39,5.34,5.34l0.01,117.58c0,1.42-0.55,2.76-1.56,3.77c-1.01,1.01-2.35,1.56-3.77,1.56L102.3,129.08z M198.4,1.69
					l-96.1,0c-2.47,0-4.48,2.01-4.48,4.48l0.01,117.58c0,2.47,2.01,4.48,4.48,4.48l96.1,0c1.2,0,2.32-0.47,3.17-1.31
					s1.31-1.97,1.31-3.17L202.88,6.17C202.88,3.7,200.87,1.69,198.4,1.69z"/>
			</g>
			<rect x="108.58" y="49.17" fill="#989FA1" width="57.74" height="0.86"/>
			<rect x="108.58" y="59.19" fill="#989FA1" width="57.74" height="0.86"/>
			<rect x="108.58" y="39.16" fill="#989FA1" width="57.74" height="0.86"/>
			<rect x="108.58" y="69.21" fill="#989FA1" width="43.06" height="0.86"/>
			<g>
				<path fill="#989FA1" d="M108.43,18.56c0-1.5,1.06-2.59,2.56-2.59c1.5,0,2.56,1.1,2.56,2.59c0,1.5-1.07,2.59-2.56,2.59
					C109.49,21.16,108.43,20.06,108.43,18.56z M112.66,18.56c0-1.04-0.65-1.81-1.66-1.81c-1.01,0-1.66,0.78-1.66,1.81
					c0,1.03,0.65,1.81,1.66,1.81C112,20.38,112.66,19.59,112.66,18.56z"/>
				<path fill="#989FA1" d="M114.77,19.08v-3.03h0.89v3.01c0,0.8,0.44,1.32,1.28,1.32s1.28-0.52,1.28-1.32v-3.01h0.89v3.03
					c0,1.24-0.71,2.08-2.17,2.08C115.49,21.16,114.77,20.32,114.77,19.08z"/>
				<path fill="#989FA1" d="M123.42,21.07l-1.1-1.87h-0.88v1.87h-0.88v-5.01h2.2c0.99,0,1.65,0.64,1.65,1.57
					c0,0.89-0.59,1.38-1.2,1.47l1.23,1.97H123.42z M123.5,17.62c0-0.48-0.36-0.79-0.86-0.79h-1.21v1.59h1.21
					C123.14,18.42,123.5,18.11,123.5,17.62z"/>
				<path fill="#989FA1" d="M127.97,21.07v-5.01h2.47c0.92,0,1.43,0.57,1.43,1.28c0,0.62-0.41,1.05-0.87,1.15
					c0.54,0.08,0.97,0.62,0.97,1.23c0,0.78-0.51,1.36-1.46,1.36H127.97z M130.96,17.47c0-0.37-0.26-0.65-0.7-0.65h-1.41v1.29h1.41
					C130.7,18.12,130.96,17.86,130.96,17.47z M131.06,19.59c0-0.38-0.26-0.7-0.76-0.7h-1.45v1.4h1.45
					C130.77,20.29,131.06,20.03,131.06,19.59z"/>
				<path fill="#989FA1" d="M136.08,21.07l-1.11-1.87h-0.88v1.87h-0.88v-5.01h2.2c0.99,0,1.65,0.64,1.65,1.57
					c0,0.89-0.59,1.38-1.2,1.47l1.23,1.97H136.08z M136.16,17.62c0-0.48-0.36-0.79-0.86-0.79h-1.21v1.59h1.21
					C135.8,18.42,136.16,18.11,136.16,17.62z"/>
				<path fill="#989FA1" d="M141.83,21.07l-0.37-0.97h-2.3l-0.37,0.97h-1l1.97-5.01h1.1l1.97,5.01H141.83z M140.31,16.93l-0.9,2.39
					h1.8L140.31,16.93z"/>
				<path fill="#989FA1" d="M147.24,21.07l-2.62-3.59v3.59h-0.88v-5.01h0.9l2.56,3.47v-3.47h0.88v5.01H147.24z"/>
				<path fill="#989FA1" d="M149.53,21.07v-5.01h1.86c1.57,0,2.62,1.04,2.62,2.5c0,1.48-1.05,2.51-2.62,2.51H149.53z M153.11,18.56
					c0-0.96-0.6-1.73-1.71-1.73h-0.99v3.47h0.99C152.48,20.29,153.11,19.51,153.11,18.56z"/>
				<path fill="#989FA1" d="M112.15,30.08l-2.62-3.59v3.59h-0.88v-5.01h0.9l2.56,3.47v-3.47H113v5.01H112.15z"/>
				<path fill="#989FA1" d="M114.43,30.08v-5.01h3.44v0.77h-2.56v1.29h2.5v0.77h-2.5v1.4h2.56v0.77H114.43z"/>
				<path fill="#989FA1" d="M122.98,30.08l-0.97-3.71l-0.98,3.71h-0.94l-1.43-5.01h0.98l0.98,3.86l1.04-3.86h0.7l1.04,3.86
					l0.98-3.86h0.99l-1.44,5.01H122.98z"/>
				<path fill="#989FA1" d="M128.61,30.08v-5.01h2.21c1.05,0,1.63,0.71,1.63,1.57c0,0.85-0.59,1.56-1.63,1.56h-1.33v1.88H128.61z
					 M131.55,26.64c0-0.48-0.35-0.8-0.85-0.8h-1.21v1.59h1.21C131.2,27.43,131.55,27.11,131.55,26.64z"/>
				<path fill="#989FA1" d="M136.42,30.08l-1.1-1.87h-0.88v1.87h-0.88v-5.01h2.2c0.99,0,1.65,0.64,1.65,1.57
					c0,0.89-0.59,1.38-1.2,1.47l1.23,1.97H136.42z M136.51,26.63c0-0.48-0.36-0.79-0.86-0.79h-1.21v1.59h1.21
					C136.15,27.43,136.51,27.12,136.51,26.63z"/>
				<path fill="#989FA1" d="M138.44,27.58c0-1.5,1.06-2.59,2.56-2.59c1.5,0,2.56,1.1,2.56,2.59c0,1.5-1.07,2.59-2.56,2.59
					C139.5,30.17,138.44,29.07,138.44,27.58z M142.67,27.58c0-1.04-0.65-1.81-1.66-1.81c-1.01,0-1.66,0.77-1.66,1.81
					c0,1.03,0.65,1.81,1.66,1.81C142.01,29.39,142.67,28.61,142.67,27.58z"/>
				<path fill="#989FA1" d="M144.78,30.08v-5.01h1.86c1.57,0,2.62,1.04,2.62,2.5c0,1.48-1.05,2.51-2.62,2.51H144.78z M148.37,27.57
					c0-0.96-0.6-1.73-1.71-1.73h-0.99v3.47h0.99C147.73,29.31,148.37,28.52,148.37,27.57z"/>
				<path fill="#989FA1" d="M150.49,28.09v-3.03h0.89v3.01c0,0.8,0.44,1.32,1.28,1.32s1.28-0.52,1.28-1.32v-3.01h0.89v3.03
					c0,1.24-0.71,2.08-2.17,2.08C151.21,30.17,150.49,29.34,150.49,28.09z"/>
				<path fill="#989FA1" d="M156.05,27.58c0-1.55,1.15-2.59,2.63-2.59c1.01,0,1.64,0.52,2.01,1.12l-0.74,0.39
					c-0.24-0.42-0.73-0.73-1.26-0.73c-0.99,0-1.73,0.75-1.73,1.81c0,1.04,0.74,1.81,1.73,1.81c0.53,0,1.02-0.32,1.26-0.73l0.75,0.38
					c-0.38,0.6-1.01,1.13-2.01,1.13C157.2,30.17,156.05,29.12,156.05,27.58z"/>
				<path fill="#989FA1" d="M162.96,30.08v-4.24h-1.52v-0.77h3.92v0.77h-1.52v4.24H162.96z"/>
				<path fill="#989FA1" d="M166.11,29.37l0.5-0.68c0.34,0.37,0.89,0.7,1.59,0.7c0.72,0,1-0.35,1-0.69c0-1.05-2.92-0.4-2.92-2.24
					c0-0.83,0.72-1.47,1.83-1.47c0.77,0,1.41,0.26,1.87,0.71l-0.5,0.65c-0.4-0.4-0.93-0.58-1.46-0.58c-0.51,0-0.84,0.26-0.84,0.62
					c0,0.94,2.92,0.36,2.92,2.23c0,0.83-0.59,1.56-1.94,1.56C167.23,30.17,166.57,29.84,166.11,29.37z"/>
			</g>
			<path fill="#EEE679" d="M195.54,17.41l-5.9-3.41c-0.51-0.3-1.36-0.3-1.87,0l-5.9,3.41c-0.52,0.3-0.94,1.03-0.94,1.62v6.81
				c0,0.59,0.42,1.32,0.94,1.62l5.9,3.4c0.51,0.3,1.36,0.3,1.87,0l5.9-3.4c0.51-0.3,0.94-1.03,0.94-1.62v-6.81
				C196.48,18.44,196.06,17.71,195.54,17.41z M193.95,21.08h-0.61v-1.04c0-0.79-0.61-1.04-1.79-1.04h-0.05
				c-2.83,0-2.58-1.06-2.66-1.45h-0.04c-0.08,0.39,0.19,1.45-2.64,1.45h-0.07c-1.18,0-1.79,0.24-1.79,1.04v0.8l9.67,2.8v0.16h0v1
				c0,1.14-0.55,1.77-2.4,1.77h-0.09c-1.45,0-2.34,0.31-2.34,1.45h-0.61c0-1.14-0.89-1.45-2.34-1.45h-0.09
				c-1.85,0-2.4-0.63-2.4-1.77v-1h0.61v1.04c0,0.79,0.61,1.04,1.79,1.04h0.05c2.83,0,2.58,1.06,2.66,1.45h0.04
				c0.08-0.39-0.19-1.45,2.64-1.45h0.07c1.18,0,1.79-0.24,1.79-1.04v-0.6l-9.67-2.8v-0.36h0v-1c0-1.14,0.55-1.77,2.4-1.77h0.09
				c1.45,0,2.34-0.31,2.34-1.45h0.61c0,1.14,0.89,1.45,2.34,1.45h0.09c1.85,0,2.4,0.63,2.4,1.77V21.08z"/>
		</g>
		<g>
			<path fill="#FFFFFF" d="M228.15,50.52v81.93c0,4.39-3.56,7.95-7.95,7.95H79.8c-4.39,0-7.95-3.56-7.95-7.95V52.42
				c0-1.59,0.48-3.11,1.32-4.39l72.61,45.45c2.58,1.62,5.86,1.62,8.45,0l73.06-45.79C227.84,48.5,228.15,49.49,228.15,50.52z"/>
			<path fill="#989FA1" d="M220.2,140.83H79.8c-4.62,0-8.38-3.76-8.38-8.38V52.42c0-1.65,0.48-3.25,1.39-4.63l0.23-0.35l0.35,0.22
				L146,93.11c2.43,1.52,5.57,1.52,7.99,0l73.42-46.01l0.23,0.34c0.61,0.91,0.94,1.98,0.94,3.08v81.94
				C228.58,137.08,224.82,140.83,220.2,140.83z M73.3,48.62c-0.67,1.15-1.03,2.46-1.03,3.8v80.04c0,4.15,3.38,7.52,7.52,7.52h140.4
				c4.15,0,7.52-3.37,7.52-7.52V50.52c0-0.79-0.2-1.56-0.58-2.25l-72.7,45.56c-2.7,1.7-6.19,1.7-8.9,0L73.3,48.62z"/>
		</g>
		<path fill="#ECEFEF" d="M79.8,136.26c-2.1,0-3.8-1.71-3.8-3.8V54.69l67.58,42.3c1.93,1.21,4.15,1.85,6.42,1.85
			c2.28,0,4.5-0.64,6.43-1.85l67.58-42.35v77.83c0,2.1-1.71,3.8-3.8,3.8H79.8z"/>
		
			<rect x="65.54" y="108.96" transform="matrix(0.6611 -0.7503 0.7503 0.6611 -48.2852 111.8666)" fill="#989FA1" width="68.31" height="0.86"/>
		
			<rect x="199.65" y="75.23" transform="matrix(0.7505 -0.6608 0.6608 0.7505 -22.3736 159.5022)" fill="#989FA1" width="0.86" height="68.31"/>
	</g>
</g>
<g id="Layer_2">
</g>
<g id="Layer_3">
</g>
<g id="Layer_4">
</g>
<g id="Layer_5">
</g>
<g id="Layer_6">
</g>
</svg>
