<?xml version="1.0" encoding="utf-8"?>
<!-- Generator: Adobe Illustrator 22.0.1, SVG Export Plug-In . SVG Version: 6.00 Build 0)  -->
<svg version="1.1" xmlns="http://www.w3.org/2000/svg" xmlns:xlink="http://www.w3.org/1999/xlink" x="0px" y="0px" width="300px"
	 height="156.33px" viewBox="0 0 300 156.33" enable-background="new 0 0 300 156.33" xml:space="preserve">
<g id="Layer_1">
	<g>
		<g>
			<g>
				<g>
					<g>
						<rect x="58.28" y="9.78" fill="#ECEFEF" width="183.44" height="113.44"/>
						<path fill="#989FA1" d="M242.1,123.59H57.9V9.41H242.1V123.59z M58.65,122.84h182.69V10.16H58.65V122.84z"/>
					</g>
				</g>
				<g>
					<path fill="#FFFFFF" d="M241.73,9.78H58.27v-6.1c0-1.36,1.1-2.46,2.46-2.46h178.53c1.36,0,2.46,1.1,2.46,2.46V9.78z"/>
					<path fill="#989FA1" d="M242.1,10.16H57.9V3.68c0-1.56,1.27-2.84,2.84-2.84h178.53c1.56,0,2.84,1.27,2.84,2.84V10.16z
						 M58.65,9.41h182.7V3.68c0-1.15-0.94-2.09-2.09-2.09H60.74c-1.15,0-2.09,0.94-2.09,2.09V9.41z"/>
				</g>
				<path fill="#989FA1" d="M235.95,6.87c-0.75,0-1.37-0.61-1.37-1.37s0.61-1.37,1.37-1.37s1.37,0.61,1.37,1.37
					S236.7,6.87,235.95,6.87z M235.95,4.88c-0.34,0-0.62,0.28-0.62,0.62s0.28,0.62,0.62,0.62s0.62-0.28,0.62-0.62
					S236.29,4.88,235.95,4.88z"/>
				<path fill="#989FA1" d="M231.44,6.87c-0.75,0-1.37-0.61-1.37-1.37s0.61-1.37,1.37-1.37s1.37,0.61,1.37,1.37
					S232.2,6.87,231.44,6.87z M231.44,4.88c-0.34,0-0.62,0.28-0.62,0.62s0.28,0.62,0.62,0.62s0.62-0.28,0.62-0.62
					S231.78,4.88,231.44,4.88z"/>
				<path fill="#989FA1" d="M226.93,6.87c-0.75,0-1.37-0.61-1.37-1.37s0.61-1.37,1.37-1.37s1.37,0.61,1.37,1.37
					S227.69,6.87,226.93,6.87z M226.93,4.88c-0.34,0-0.62,0.28-0.62,0.62s0.28,0.62,0.62,0.62s0.62-0.28,0.62-0.62
					S227.28,4.88,226.93,4.88z"/>
				<g>
					<path fill="#FFFFFF" d="M229.73,123.2H70.27V36.77c0-0.67,0.55-1.22,1.22-1.22h157.02c0.67,0,1.22,0.55,1.22,1.22V123.2z"/>
					<path fill="#989FA1" d="M230.11,123.58H69.89V36.77c0-0.88,0.72-1.6,1.6-1.6h157.02c0.88,0,1.6,0.72,1.6,1.6V123.58z
						 M70.64,122.83h158.72V36.77c0-0.47-0.38-0.85-0.85-0.85H71.49c-0.47,0-0.85,0.38-0.85,0.85V122.83z"/>
				</g>
				<g>
					<path fill="#FFFFFF" d="M95.32,28.18H71.34c-0.71,0-1.28-0.57-1.28-1.28v-6.65c0-0.71,0.57-1.28,1.28-1.28h23.98
						c0.71,0,1.28,0.57,1.28,1.28v6.65C96.61,27.6,96.03,28.18,95.32,28.18z"/>
					<path fill="#989FA1" d="M95.32,28.55H71.34c-0.91,0-1.66-0.74-1.66-1.66v-6.65c0-0.91,0.74-1.66,1.66-1.66h23.98
						c0.91,0,1.66,0.74,1.66,1.66v6.65C96.98,27.81,96.24,28.55,95.32,28.55z M71.34,19.33c-0.5,0-0.91,0.41-0.91,0.91v6.65
						c0,0.5,0.41,0.91,0.91,0.91h23.98c0.5,0,0.91-0.41,0.91-0.91v-6.65c0-0.5-0.41-0.91-0.91-0.91H71.34z"/>
				</g>
				<rect x="152.53" y="24.47" fill="#989FA1" width="16.22" height="0.75"/>
				<rect x="172.67" y="24.47" fill="#989FA1" width="16.22" height="0.75"/>
				<rect x="192.82" y="24.47" fill="#989FA1" width="16.22" height="0.75"/>
				<rect x="212.96" y="24.47" fill="#989FA1" width="16.22" height="0.75"/>
			</g>
		</g>
		<g>
			<g>
				
					<rect x="105.42" y="108.14" transform="matrix(0.7071 0.7071 -0.7071 0.7071 126.8012 -39.3934)" fill="#FFFFFF" width="11.07" height="50.45"/>
				<path fill="#989FA1" d="M97.03,155.64l-8.35-8.35l36.2-36.2l8.35,8.36L97.03,155.64z M89.73,147.29l7.29,7.29l35.14-35.14
					l-7.29-7.29L89.73,147.29z"/>
			</g>
			
				<rect x="88.33" y="130.44" transform="matrix(-0.7071 0.7071 -0.7071 -0.7071 283.7117 149.2149)" fill="#ECEFEF" width="45.24" height="5.86"/>
			<g>
				<circle fill="#FFFFFF" cx="143.98" cy="100.53" r="35.15"/>
				<path fill="#989FA1" d="M143.98,136.03c-9.1,0-18.19-3.46-25.12-10.39c-13.85-13.85-13.85-36.39,0-50.24s36.39-13.85,50.24,0
					s13.85,36.39,0,50.24l0,0C162.17,132.57,153.07,136.03,143.98,136.03z M143.98,65.77c-8.9,0-17.81,3.39-24.59,10.17
					c-13.56,13.56-13.56,35.62,0,49.18c13.56,13.56,35.62,13.56,49.18,0c13.56-13.56,13.56-35.62,0-49.18
					C161.79,69.16,152.88,65.77,143.98,65.77z"/>
			</g>
			<circle fill="#EEE679" cx="143.98" cy="100.53" r="29.53"/>
			<g>
				<g>
					<polygon fill="#FFFFFF" points="153.96,107.56 134.86,107.56 136.95,102.69 131.21,88.33 126.98,88.33 126.98,87.58 
						131.72,87.58 137.77,102.7 136,106.81 153.96,106.81 					"/>
					<path fill="#FFFFFF" d="M154.34,107.93h-20.05l2.26-5.25l-5.59-13.98h-4.35v-1.5h5.37l6.2,15.5l-1.6,3.73h17.77V107.93z
						 M135.43,107.18h18.16H135.43l1.93-4.49l-5.9-14.74h-4.11h4.11l5.9,14.74L135.43,107.18z"/>
				</g>
				<g>
					<path fill="#FFFFFF" d="M137.11,103.09l-4.69-11.81h26.01l-2.32,10.32L137.11,103.09z M133.53,92.03l4.08,10.27l17.89-1.4
						l2-8.87H133.53z"/>
					<path fill="#FFFFFF" d="M136.87,103.49l-5-12.58h27.03l-2.49,11.05L136.87,103.49z M132.97,91.66l4.39,11.04l18.44-1.44
						l1.37-6.1l-1.37,6.1l-18.44,1.44L132.97,91.66z M134.08,92.41l3.78,9.5l17.33-1.35l1.83-8.14H134.08z"/>
				</g>
				<g>
					<path fill="#FFFFFF" d="M139.55,115.38c-1.72,0-3.13-1.4-3.13-3.13s1.4-3.13,3.13-3.13s3.13,1.4,3.13,3.13
						S141.28,115.38,139.55,115.38z M139.55,109.88c-1.31,0-2.38,1.07-2.38,2.38s1.07,2.38,2.38,2.38s2.38-1.07,2.38-2.38
						S140.86,109.88,139.55,109.88z"/>
					<path fill="#FFFFFF" d="M139.55,115.76c-1.93,0-3.5-1.57-3.5-3.5c0-1.93,1.57-3.5,3.5-3.5s3.5,1.57,3.5,3.5
						C143.06,114.19,141.49,115.76,139.55,115.76z M136.8,112.26c0,1.52,1.23,2.75,2.75,2.75s2.75-1.23,2.75-2.75
						c0,1.52-1.23,2.75-2.75,2.75S136.8,113.78,136.8,112.26z M139.55,110.26c-1.1,0-2,0.9-2,2c0,1.1,0.9,2,2,2s2-0.9,2-2
						C141.56,111.16,140.66,110.26,139.55,110.26z"/>
				</g>
				<g>
					<path fill="#FFFFFF" d="M149.94,115.38c-1.72,0-3.13-1.4-3.13-3.13s1.4-3.13,3.13-3.13s3.13,1.4,3.13,3.13
						S151.66,115.38,149.94,115.38z M149.94,109.88c-1.31,0-2.38,1.07-2.38,2.38s1.07,2.38,2.38,2.38s2.38-1.07,2.38-2.38
						S151.25,109.88,149.94,109.88z"/>
					<path fill="#FFFFFF" d="M149.94,115.76c-1.93,0-3.5-1.57-3.5-3.5c0-1.93,1.57-3.5,3.5-3.5c1.93,0,3.5,1.57,3.5,3.5
						C153.44,114.19,151.87,115.76,149.94,115.76z M147.18,112.26c0,1.52,1.23,2.75,2.75,2.75c1.52,0,2.75-1.23,2.75-2.75
						c0,1.52-1.23,2.75-2.75,2.75C148.42,115.01,147.18,113.78,147.18,112.26z M149.94,110.26c-1.1,0-2,0.9-2,2c0,1.1,0.9,2,2,2
						c1.1,0,2-0.9,2-2C151.94,111.16,151.04,110.26,149.94,110.26z"/>
				</g>
				<g>
					<rect x="141.91" y="91.76" fill="#FFFFFF" width="0.75" height="10.51"/>
					<rect x="141.54" y="91.38" fill="#FFFFFF" width="1.5" height="11.26"/>
				</g>
				<g>
					<rect x="149.87" y="91.66" fill="#FFFFFF" width="0.75" height="9.97"/>
					<rect x="149.5" y="91.28" fill="#FFFFFF" width="1.5" height="10.72"/>
				</g>
				<g>
					
						<rect x="135.21" y="96.32" transform="matrix(0.9994 -0.0338 0.0338 0.9994 -3.1881 4.9943)" fill="#FFFFFF" width="21.53" height="0.75"/>
					<path fill="#FFFFFF" d="M134.87,97.83l-0.05-1.5l22.27-0.76l0.05,1.5L134.87,97.83z M135.59,97.05L135.59,97.05l20.77-0.71
						L135.59,97.05z"/>
				</g>
			</g>
		</g>
	</g>
</g>
<g id="Layer_2">
</g>
<g id="Layer_3">
</g>
<g id="Layer_4">
</g>
<g id="Layer_5">
</g>
<g id="Layer_6">
</g>
</svg>
