<?xml version="1.0" encoding="utf-8"?>
<!-- Generator: Adobe Illustrator 22.0.1, SVG Export Plug-In . SVG Version: 6.00 Build 0)  -->
<svg version="1.1" id="Layer_1" xmlns="http://www.w3.org/2000/svg" xmlns:xlink="http://www.w3.org/1999/xlink" x="0px" y="0px"
	 width="300px" height="124.2px" viewBox="0 0 300 124.2" style="enable-background:new 0 0 300 124.2;" xml:space="preserve">
<style type="text/css">
	.st0{fill:#FFFFFF;}
	.st1{fill:#ECEFEF;}
	.st2{fill:#989FA1;}
	.st3{fill:#EEE679;}
</style>
<g id="Layer_1_1_">
	<g>
		<g>
			<rect x="177.1" y="21.7" class="st0" width="101.5" height="19.7"/>
			<rect x="177.1" y="52.2" class="st0" width="101.5" height="19.7"/>
			<rect x="177.1" y="82.7" class="st0" width="101.5" height="19.7"/>
			<rect x="259.8" y="21.4" class="st1" width="19.2" height="20.4"/>
			<path class="st2" d="M279.3,42.2h-19.9V21h19.9V42.2z M260.1,41.4h18.4V21.7h-18.4V41.4z"/>
			<path class="st2" d="M176.3,21v21.2h103V21H176.3z M278.5,41.4H177.1V21.7h101.5V41.4z"/>
			<g>
				<path class="st2" d="M182.5,33.6L183,33c0.3,0.4,0.9,0.7,1.6,0.7c0.7,0,1-0.3,1-0.7c0-1-2.9-0.4-2.9-2.2c0-0.8,0.7-1.5,1.8-1.5
					c0.8,0,1.4,0.2,1.9,0.7l-0.5,0.6c-0.4-0.4-0.9-0.6-1.4-0.6c-0.5,0-0.8,0.2-0.8,0.6c0,0.9,2.9,0.4,2.9,2.2c0,0.8-0.6,1.5-1.9,1.5
					C183.6,34.4,182.9,34.1,182.5,33.6z"/>
				<path class="st2" d="M187.6,34.3v-5h3.4v0.8h-2.5v1.3h2.5v0.8h-2.5v1.4h2.5v0.8C191,34.3,187.6,34.3,187.6,34.3z"/>
				<path class="st2" d="M192.2,34.3v-5h0.9v4.2h2.2v0.8H192.2z"/>
				<path class="st2" d="M196.4,34.3v-5h3.4v0.8h-2.5v1.3h2.5v0.8h-2.5v1.4h2.5v0.8C199.8,34.3,196.4,34.3,196.4,34.3z"/>
				<path class="st2" d="M200.9,31.9c0-1.5,1.1-2.6,2.6-2.6c1,0,1.6,0.5,2,1.1l-0.7,0.4c-0.2-0.4-0.7-0.7-1.2-0.7
					c-1,0-1.7,0.7-1.7,1.8c0,1,0.7,1.8,1.7,1.8c0.5,0,1-0.3,1.2-0.7l0.7,0.4c-0.4,0.6-1,1.1-2,1.1C202,34.4,200.9,33.4,200.9,31.9z"
					/>
				<path class="st2" d="M207.7,34.3v-4.2h-1.5v-0.8h3.9v0.8h-1.5v4.2H207.7z"/>
				<path class="st2" d="M213.1,33.6l0.5-0.7c0.3,0.4,0.9,0.7,1.6,0.7c0.7,0,1-0.3,1-0.7c0-1-2.9-0.4-2.9-2.2c0-0.8,0.7-1.5,1.8-1.5
					c0.8,0,1.4,0.2,1.9,0.7l-0.5,0.6c-0.4-0.4-0.9-0.6-1.4-0.6c-0.5,0-0.8,0.2-0.8,0.6c0,0.9,2.9,0.4,2.9,2.2c0,0.8-0.6,1.5-1.9,1.5
					C214.2,34.4,213.6,34.1,213.1,33.6z"/>
				<path class="st2" d="M218.3,34.3v-5h0.9v5H218.3z"/>
				<path class="st2" d="M220.4,34.3v-0.7l2.5-3.5h-2.5v-0.8h3.7v0.7l-2.6,3.5h2.6v0.8H220.4z"/>
				<path class="st2" d="M225.3,34.3v-5h3.4v0.8h-2.5v1.3h2.5v0.8h-2.5v1.4h2.5v0.8C228.7,34.3,225.3,34.3,225.3,34.3z"/>
			</g>
			<polygon class="st2" points="269.5,34 265.4,29.9 265.9,29.4 269.5,33 272.9,29.5 273.5,30.1 			"/>
			<rect x="259.8" y="51.9" class="st1" width="19.2" height="20.4"/>
			<path class="st2" d="M279.3,72.7h-19.9V51.5h19.9V72.7z M260.1,71.9h18.4V52.2h-18.4V71.9z"/>
			<path class="st2" d="M176.3,51.5v21.2h103V51.5H176.3z M278.5,71.9H177.1V52.2h101.5V71.9z"/>
			<g>
				<path class="st2" d="M182.5,64.1l0.5-0.7c0.3,0.4,0.9,0.7,1.6,0.7c0.7,0,1-0.3,1-0.7c0-1-2.9-0.4-2.9-2.2c0-0.8,0.7-1.5,1.8-1.5
					c0.8,0,1.4,0.2,1.9,0.7l-0.5,0.7c-0.4-0.4-0.9-0.6-1.4-0.6c-0.5,0-0.8,0.2-0.8,0.6c0,0.9,2.9,0.4,2.9,2.2c0,0.8-0.6,1.5-1.9,1.5
					C183.6,64.9,182.9,64.6,182.5,64.1z"/>
				<path class="st2" d="M187.6,64.8v-5h3.4v0.8h-2.5v1.3h2.5v0.8h-2.5v1.4h2.5v0.8C191,64.8,187.6,64.8,187.6,64.8z"/>
				<path class="st2" d="M192.2,64.8v-5h0.9v4.2h2.2v0.8C195.3,64.8,192.2,64.8,192.2,64.8z"/>
				<path class="st2" d="M196.4,64.8v-5h3.4v0.8h-2.5v1.3h2.5v0.8h-2.5v1.4h2.5v0.8C199.8,64.8,196.4,64.8,196.4,64.8z"/>
				<path class="st2" d="M200.9,62.4c0-1.5,1.1-2.6,2.6-2.6c1,0,1.6,0.5,2,1.1l-0.7,0.4c-0.2-0.4-0.7-0.7-1.2-0.7
					c-1,0-1.7,0.7-1.7,1.8c0,1,0.7,1.8,1.7,1.8c0.5,0,1-0.3,1.2-0.7l0.7,0.4c-0.4,0.6-1,1.1-2,1.1C202,64.9,200.9,63.9,200.9,62.4z"
					/>
				<path class="st2" d="M207.7,64.8v-4.2h-1.5v-0.8h3.9v0.8h-1.5v4.2H207.7z"/>
				<path class="st2" d="M213.2,62.4c0-1.5,1.1-2.6,2.6-2.6c1,0,1.6,0.5,2,1.1l-0.7,0.4c-0.2-0.4-0.7-0.7-1.2-0.7
					c-1,0-1.7,0.7-1.7,1.8c0,1,0.7,1.8,1.7,1.8c0.5,0,1-0.3,1.2-0.7l0.8,0.4c-0.4,0.6-1,1.1-2,1.1C214.4,64.9,213.2,63.9,213.2,62.4
					z"/>
				<path class="st2" d="M218.7,62.4c0-1.5,1.1-2.6,2.5-2.6c1.5,0,2.5,1.1,2.5,2.6s-1.1,2.6-2.5,2.6
					C219.7,64.9,218.7,63.8,218.7,62.4z M222.9,62.4c0-1-0.6-1.8-1.6-1.8s-1.6,0.8-1.6,1.8s0.6,1.8,1.6,1.8
					C222.2,64.2,222.9,63.4,222.9,62.4z"/>
				<path class="st2" d="M224.9,64.8v-5h0.9v4.2h2.2v0.8C228,64.8,224.9,64.8,224.9,64.8z"/>
				<path class="st2" d="M228.7,62.4c0-1.5,1.1-2.6,2.5-2.6c1.5,0,2.5,1.1,2.5,2.6s-1.1,2.6-2.5,2.6
					C229.7,64.9,228.7,63.8,228.7,62.4z M232.9,62.4c0-1-0.6-1.8-1.6-1.8s-1.6,0.8-1.6,1.8s0.6,1.8,1.6,1.8
					C232.2,64.2,232.9,63.4,232.9,62.4z"/>
				<path class="st2" d="M237.8,64.8l-1.1-1.8h-0.9v1.8H235v-5h2.2c1,0,1.6,0.6,1.6,1.6c0,0.9-0.6,1.4-1.2,1.5l1.2,2H237.8z
					 M237.9,61.4c0-0.5-0.4-0.8-0.9-0.8h-1.2v1.6h1.2C237.5,62.2,237.9,61.9,237.9,61.4z"/>
			</g>
			<polygon class="st2" points="269.5,64.5 265.4,60.4 265.9,59.9 269.5,63.5 272.9,60 273.5,60.6 			"/>
			<rect x="259.8" y="82.4" class="st1" width="19.2" height="20.4"/>
			<path class="st2" d="M279.3,103.2h-19.9V82h19.9V103.2z M260.1,102.4h18.4V82.7h-18.4V102.4z"/>
			<path class="st2" d="M176.3,82v21.2h103V82H176.3z M278.5,102.4H177.1V82.7h101.5V102.4z"/>
			<g>
				<path class="st2" d="M182.5,94.6L183,94c0.3,0.4,0.9,0.7,1.6,0.7c0.7,0,1-0.3,1-0.7c0-1-2.9-0.4-2.9-2.2c0-0.8,0.7-1.5,1.8-1.5
					c0.8,0,1.4,0.2,1.9,0.7l-0.5,0.7c-0.4-0.4-0.9-0.6-1.4-0.6c-0.5,0-0.8,0.2-0.8,0.6c0,0.9,2.9,0.4,2.9,2.2c0,0.8-0.6,1.5-1.9,1.5
					C183.6,95.4,182.9,95.1,182.5,94.6z"/>
				<path class="st2" d="M187.6,95.3v-5h3.4v0.8h-2.5v1.3h2.5v0.8h-2.5v1.4h2.5v0.8L187.6,95.3L187.6,95.3z"/>
				<path class="st2" d="M192.2,95.3v-5h0.9v4.2h2.2v0.8C195.3,95.3,192.2,95.3,192.2,95.3z"/>
				<path class="st2" d="M196.4,95.3v-5h3.4v0.8h-2.5v1.3h2.5v0.8h-2.5v1.4h2.5v0.8L196.4,95.3L196.4,95.3z"/>
				<path class="st2" d="M200.9,92.9c0-1.5,1.1-2.6,2.6-2.6c1,0,1.6,0.5,2,1.1l-0.7,0.4c-0.2-0.4-0.7-0.7-1.2-0.7
					c-1,0-1.7,0.7-1.7,1.8c0,1,0.7,1.8,1.7,1.8c0.5,0,1-0.3,1.2-0.7l0.7,0.4c-0.4,0.6-1,1.1-2,1.1C202,95.4,200.9,94.4,200.9,92.9z"
					/>
				<path class="st2" d="M207.7,95.3v-4.2h-1.5v-0.8h3.9v0.8h-1.5v4.2H207.7z"/>
				<path class="st2" d="M213.2,92.9c0-1.5,1.1-2.6,2.5-2.6c1.5,0,2.5,1.1,2.5,2.6c0,0.7-0.2,1.3-0.7,1.8l0.4,0.5l-0.6,0.5l-0.4-0.5
					c-0.4,0.2-0.8,0.3-1.2,0.3C214.3,95.4,213.2,94.3,213.2,92.9z M216.5,94.5l-0.6-0.7l0.6-0.5l0.6,0.7c0.2-0.3,0.3-0.7,0.3-1.1
					c0-1-0.6-1.8-1.6-1.8s-1.6,0.8-1.6,1.8c0,1,0.6,1.8,1.6,1.8C216.1,94.7,216.3,94.6,216.5,94.5z"/>
				<path class="st2" d="M219.5,93.4v-3h0.9v3c0,0.8,0.4,1.3,1.3,1.3s1.3-0.5,1.3-1.3v-3h0.9v3c0,1.2-0.7,2.1-2.1,2.1
					C220.2,95.4,219.5,94.6,219.5,93.4z"/>
				<path class="st2" d="M228.5,95.3l-0.4-1h-2.3l-0.4,1h-1l1.9-5h1.1l1.9,5H228.5z M227,91.2l-0.9,2.4h1.8L227,91.2z"/>
				<path class="st2" d="M233.9,95.3l-2.6-3.6v3.6h-0.9v-5h0.9l2.5,3.4v-3.4h0.9v5H233.9z"/>
				<path class="st2" d="M237.3,95.3v-4.2h-1.5v-0.8h3.9v0.8h-1.5v4.2H237.3z"/>
				<path class="st2" d="M240.8,95.3v-5h0.9v5H240.8z"/>
				<path class="st2" d="M244.3,95.3v-4.2h-1.5v-0.8h3.9v0.8h-1.5v4.2H244.3z"/>
				<path class="st2" d="M249.2,95.3v-2.1l-1.9-2.9h1l1.4,2.1l1.4-2.1h1l-1.9,2.9v2.1H249.2z"/>
			</g>
			<polygon class="st2" points="269.5,95 265.4,90.9 265.9,90.4 269.5,94 272.9,90.5 273.5,91.1 			"/>
		</g>
		<g>
			<g>
				<g>
					<g>
						<g>
							<path class="st0" d="M150,53.9l-18.8-13.5l2.4,73.2c0,0-15.3,9.2-37.8,9.4c-1.4,0-2.8,0-4.1,0c-22.5-0.1-36.9-9.4-36.9-9.4
								l1.4-73.2L37.5,53.9L21.1,29.7c0,0,36.7-28.8,56.2-28.6c2.7,2.8,5.3,4.9,7.8,6.4c5.4,3.2,11.9,3.2,17.3,0
								c2.6-1.5,5.2-3.6,7.8-6.4c19.5-0.2,56.2,28.6,56.2,28.6L150,53.9z"/>
							<path class="st2" d="M110.6,1.8c17.8,0.1,50.2,24.4,54.9,28l-15.6,23l-18.2-13l-1.2-0.9l0.1,1.5l2.4,72.8
								c-2.5,1.4-16.9,8.9-37,9c-0.7,0-1.4,0-2.1,0s-1.3,0-2,0c-20.1-0.1-33.8-7.7-36.2-9L57,40.5l0-1.5l-1.2,0.9l-18.2,13l-15.6-23
								c4.6-3.5,37.1-27.9,54.9-28c2.5,2.6,5.1,4.7,7.8,6.3c2.8,1.6,5.9,2.5,9,2.5c3.1,0,6.3-0.9,9-2.5
								C105.5,6.5,108.1,4.4,110.6,1.8 M110.5,1.1c-0.1,0-0.2,0-0.2,0c-2.7,2.8-5.3,4.9-7.8,6.4c-2.7,1.6-5.7,2.4-8.7,2.4
								s-5.9-0.8-8.7-2.4c-2.6-1.5-5.2-3.6-7.8-6.4c-0.1,0-0.2,0-0.2,0c-19.5,0-56,28.6-56,28.6l16.4,24.2l18.8-13.5l-1.4,73.2
								c0,0,14.4,9.2,36.9,9.4c0.7,0,1.3,0,2,0c0.7,0,1.4,0,2.1,0c22.5-0.1,37.8-9.4,37.8-9.4l-2.4-73.2L150,53.9l16.4-24.2
								C166.4,29.7,130,1.1,110.5,1.1L110.5,1.1z"/>
						</g>
					</g>
					<path class="st1" d="M93.8,118.3c-0.7,0-1.3,0-2,0c-16.2-0.1-27.9-5.1-32.6-7.5l1.6-79.2L38.5,47.5L27.2,30.8
						C38.9,22.2,62.1,6.9,75.6,5.9c2.4,2.3,4.9,4.2,7.4,5.8c3.3,2,7,3,10.7,3s7.4-1,10.7-3c2.6-1.5,5.1-3.5,7.4-5.8
						c13.6,1,36.8,16.3,48.4,24.9L149,47.5l-22.4-16l2.6,79.3c-4.9,2.4-17.3,7.4-33.4,7.6C95.2,118.3,94.5,118.3,93.8,118.3z"/>
				</g>
			</g>
			<g>
				<path class="st3" d="M106.7,33.2l-11.2-6.5c-1-0.6-2.6-0.6-3.6,0l-11.2,6.5c-1,0.6-1.8,2-1.8,3.1v12.9c0,1.1,0.8,2.5,1.8,3.1
					L92,58.7c1,0.6,2.6,0.6,3.6,0l11.2-6.5c1-0.6,1.8-2,1.8-3.1V36.3C108.5,35.2,107.7,33.8,106.7,33.2z M103.7,40.2h-1.2v-2
					c0-1.5-1.2-2-3.4-2H99c-5.4,0-4.9-2-5-2.7h-0.1c-0.2,0.7,0.4,2.7-5,2.7h-0.1c-2.2,0-3.4,0.5-3.4,2v1.5l18.3,5.3v0.3l0,0v1.9
					c0,2.2-1.1,3.4-4.6,3.4h-0.2c-2.7,0-4.4,0.6-4.4,2.7h-1.2c0-2.2-1.7-2.7-4.4-2.7h-0.2c-3.5,0-4.6-1.2-4.6-3.4v-1.9h1.2v2
					c0,1.5,1.2,2,3.4,2h0.1c5.4,0,4.9,2,5,2.7H94c0.2-0.7-0.4-2.7,5-2.7h0.1c2.2,0,3.4-0.5,3.4-2v-1.1l-18.3-5.3v-2.6
					c0-2.2,1-3.3,4.6-3.3h0.2c2.7,0,4.4-0.6,4.4-2.7h1.2c0,2.2,1.7,2.7,4.4,2.7h0.2c3.5,0,4.6,1.2,4.6,3.3L103.7,40.2L103.7,40.2z"
					/>
				<path class="st0" d="M102.5,40.2v-2c0-1.5-1.2-2-3.4-2H99c-5.4,0-4.9-2-5-2.7h-0.1c-0.2,0.7,0.4,2.7-5,2.7h-0.1
					c-2.2,0-3.4,0.5-3.4,2v1.5l18.3,5.3v0.3l0,0v1.9c0,2.2-1.1,3.4-4.6,3.4h-0.2c-2.7,0-4.4,0.6-4.4,2.7h-1.2c0-2.2-1.7-2.7-4.4-2.7
					h-0.2c-3.5,0-4.6-1.2-4.6-3.4v-1.9h1.2v2c0,1.5,1.2,2,3.4,2h0.1c5.4,0,4.9,2,5,2.7H94c0.2-0.7-0.4-2.7,5-2.7h0.1
					c2.2,0,3.4-0.5,3.4-2v-1.1l-18.3-5.3v-2.6c0-2.2,1-3.3,4.6-3.3h0.2c2.7,0,4.4-0.6,4.4-2.7h1.2c0,2.2,1.7,2.7,4.4,2.7h0.2
					c3.5,0,4.6,1.2,4.6,3.3v1.9H102.5z"/>
			</g>
		</g>
	</g>
</g>
<g id="Layer_2_1_">
</g>
<g id="Layer_3">
</g>
<g id="Layer_4">
</g>
<g id="Layer_5">
</g>
<g id="Layer_6">
</g>
</svg>
