<?xml version="1.0" encoding="utf-8"?>
<!-- Generator: Adobe Illustrator 22.0.1, SVG Export Plug-In . SVG Version: 6.00 Build 0)  -->
<svg version="1.1" xmlns="http://www.w3.org/2000/svg" xmlns:xlink="http://www.w3.org/1999/xlink" x="0px" y="0px" width="300px"
	 height="137px" viewBox="0 0 300 137" enable-background="new 0 0 300 137" xml:space="preserve">
<g id="Layer_1">
	<g>
		<g>
			<g>
				<g>
					<g>
						<rect x="58.28" y="22.34" fill="#ECEFEF" width="183.44" height="113.44"/>
						<path fill="#989FA1" d="M242.1,136.15H57.9V21.97H242.1V136.15z M58.65,135.4h182.69V22.72H58.65V135.4z"/>
					</g>
				</g>
			</g>
			<g>
				<rect x="111.07" y="107.04" fill="#FFFFFF" width="78.41" height="18.92"/>
				<g>
					<path fill="#989FA1" d="M131.49,119.52v-5.33h2.35c1.12,0,1.74,0.76,1.74,1.67c0,0.9-0.62,1.66-1.74,1.66h-1.42v2H131.49z
						 M134.62,115.86c0-0.51-0.38-0.85-0.9-0.85h-1.29v1.69h1.29C134.24,116.7,134.62,116.37,134.62,115.86z"/>
					<path fill="#989FA1" d="M139.9,119.52l-0.39-1.03h-2.45l-0.39,1.03h-1.06l2.1-5.33h1.17l2.09,5.33H139.9z M138.29,115.13
						l-0.96,2.54h1.92L138.29,115.13z"/>
					<path fill="#989FA1" d="M142.95,119.52v-2.21l-2.07-3.12h1.07l1.46,2.28l1.46-2.28h1.07l-2.06,3.12v2.21H142.95z"/>
					<path fill="#989FA1" d="M151.53,119.52v-4.12l-1.63,4.12h-0.4l-1.64-4.12v4.12h-0.94v-5.33h1.32l1.46,3.66l1.45-3.66h1.32v5.33
						H151.53z"/>
					<path fill="#989FA1" d="M154,119.52v-5.33h3.65v0.82h-2.72v1.38h2.66v0.82h-2.66v1.49h2.72v0.82H154z"/>
					<path fill="#989FA1" d="M162.74,119.52l-2.78-3.81v3.81h-0.94v-5.33h0.96l2.73,3.69v-3.69h0.94v5.33H162.74z"/>
					<path fill="#989FA1" d="M166.45,119.52v-4.51h-1.62v-0.82H169v0.82h-1.62v4.51H166.45z"/>
				</g>
			</g>
			<g>
				<rect x="67.5" y="55.29" fill="#FFFFFF" width="78.41" height="18.92"/>
				<rect x="67.38" y="81.16" fill="#FFFFFF" width="78.41" height="18.92"/>
				<rect x="153.94" y="55.29" fill="#FFFFFF" width="78.41" height="18.92"/>
				<rect x="154.21" y="81.16" fill="#FFFFFF" width="78.41" height="18.92"/>
				<g>
					<g>
						<path fill="#989FA1" d="M91.72,67.99l-0.39-1.03h-2.45l-0.39,1.03h-1.06l2.1-5.33h1.17l2.09,5.33H91.72z M90.11,63.59
							l-0.96,2.54h1.92L90.11,63.59z"/>
						<path fill="#989FA1" d="M93.76,67.99v-5.33h1.98c1.67,0,2.79,1.1,2.79,2.66c0,1.58-1.12,2.67-2.78,2.67H93.76z M97.58,65.32
							c0-1.02-0.64-1.84-1.82-1.84H94.7v3.69h1.05C96.91,67.16,97.58,66.33,97.58,65.32z"/>
						<path fill="#989FA1" d="M99.84,67.99v-5.33h1.98c1.67,0,2.79,1.1,2.79,2.66c0,1.58-1.12,2.67-2.78,2.67H99.84z M103.66,65.32
							c0-1.02-0.64-1.84-1.82-1.84h-1.06v3.69h1.05C102.99,67.16,103.66,66.33,103.66,65.32z"/>
						<path fill="#989FA1" d="M108.97,67.99L107.79,66h-0.94v1.99h-0.94v-5.33h2.34c1.06,0,1.75,0.68,1.75,1.67
							c0,0.94-0.62,1.46-1.27,1.57l1.31,2.09H108.97z M109.06,64.32c0-0.51-0.38-0.84-0.91-0.84h-1.29v1.7h1.29
							C108.67,65.17,109.06,64.84,109.06,64.32z"/>
						<path fill="#989FA1" d="M111.36,67.99v-5.33h3.65v0.82h-2.72v1.38h2.66v0.82h-2.66v1.49h2.72v0.82H111.36z"/>
						<path fill="#989FA1" d="M116.03,67.24l0.53-0.73c0.36,0.39,0.94,0.74,1.69,0.74c0.77,0,1.06-0.38,1.06-0.74
							c0-1.12-3.1-0.42-3.1-2.38c0-0.89,0.77-1.57,1.94-1.57c0.82,0,1.5,0.27,1.99,0.75l-0.53,0.7c-0.42-0.42-0.99-0.62-1.55-0.62
							c-0.54,0-0.9,0.27-0.9,0.66c0,1,3.1,0.38,3.1,2.37c0,0.89-0.63,1.66-2.06,1.66C117.22,68.08,116.51,67.73,116.03,67.24z"/>
						<path fill="#989FA1" d="M121.18,67.24l0.53-0.73c0.36,0.39,0.94,0.74,1.69,0.74c0.77,0,1.06-0.38,1.06-0.74
							c0-1.12-3.1-0.42-3.1-2.38c0-0.89,0.77-1.57,1.94-1.57c0.82,0,1.5,0.27,1.99,0.75l-0.53,0.7c-0.42-0.42-0.99-0.62-1.55-0.62
							c-0.54,0-0.9,0.27-0.9,0.66c0,1,3.1,0.38,3.1,2.37c0,0.89-0.63,1.66-2.06,1.66C122.37,68.08,121.66,67.73,121.18,67.24z"/>
					</g>
				</g>
				<g>
					<g>
						<path fill="#989FA1" d="M89.84,93.29v-5.33h2.62c0.98,0,1.52,0.61,1.52,1.36c0,0.66-0.43,1.12-0.93,1.22
							c0.58,0.09,1.03,0.66,1.03,1.3c0,0.83-0.54,1.45-1.55,1.45H89.84z M93.02,89.46c0-0.39-0.27-0.69-0.74-0.69h-1.5v1.38h1.5
							C92.75,90.15,93.02,89.87,93.02,89.46z M93.12,91.72c0-0.4-0.28-0.74-0.81-0.74h-1.54v1.49h1.54
							C92.82,92.46,93.12,92.18,93.12,91.72z"/>
						<path fill="#989FA1" d="M95.43,93.29v-5.33h0.94v5.33H95.43z"/>
						<path fill="#989FA1" d="M97.84,93.29v-5.33h0.94v4.51h2.35v0.82H97.84z"/>
						<path fill="#989FA1" d="M102.28,93.29v-5.33h0.94v4.51h2.35v0.82H102.28z"/>
						<path fill="#989FA1" d="M106.8,93.29v-5.33h0.94v5.33H106.8z"/>
						<path fill="#989FA1" d="M112.99,93.29l-2.78-3.81v3.81h-0.94v-5.33h0.96l2.73,3.69v-3.69h0.94v5.33H112.99z"/>
						<path fill="#989FA1" d="M115.2,90.62c0-1.68,1.25-2.76,2.8-2.76c1.04,0,1.72,0.5,2.14,1.1l-0.76,0.44
							c-0.29-0.4-0.79-0.71-1.38-0.71c-1.05,0-1.84,0.8-1.84,1.93c0,1.11,0.78,1.93,1.84,1.93c0.54,0,1.02-0.25,1.26-0.48v-0.82
							h-1.6v-0.82h2.53v1.99c-0.52,0.58-1.27,0.97-2.19,0.97C116.44,93.39,115.2,92.29,115.2,90.62z"/>
					</g>
				</g>
				<g>
					<g>
						<path fill="#989FA1" d="M177.08,66.64l0.53-0.73c0.36,0.39,0.94,0.74,1.69,0.74c0.77,0,1.06-0.38,1.06-0.74
							c0-1.12-3.1-0.42-3.1-2.38c0-0.89,0.77-1.57,1.94-1.57c0.82,0,1.5,0.27,1.99,0.75l-0.53,0.7c-0.42-0.42-0.99-0.62-1.55-0.62
							c-0.54,0-0.9,0.27-0.9,0.66c0,1,3.1,0.38,3.1,2.37c0,0.89-0.63,1.66-2.06,1.66C178.27,67.49,177.56,67.14,177.08,66.64z"/>
						<path fill="#989FA1" d="M183.77,67.39v-4.51h-1.62v-0.82h4.17v0.82h-1.62v4.51H183.77z"/>
						<path fill="#989FA1" d="M190.74,67.39l-0.39-1.03h-2.45l-0.39,1.03h-1.06l2.1-5.33h1.17l2.09,5.33H190.74z M189.12,62.99
							l-0.96,2.54h1.92L189.12,62.99z"/>
						<path fill="#989FA1" d="M193.53,67.39v-4.51h-1.62v-0.82h4.17v0.82h-1.62v4.51H193.53z"/>
						<path fill="#989FA1" d="M197.27,65.28v-3.22h0.95v3.2c0,0.85,0.47,1.4,1.36,1.4c0.89,0,1.36-0.55,1.36-1.4v-3.2h0.95v3.22
							c0,1.32-0.76,2.21-2.31,2.21C198.04,67.49,197.27,66.6,197.27,65.28z"/>
						<path fill="#989FA1" d="M203.09,66.64l0.53-0.73c0.36,0.39,0.94,0.74,1.69,0.74c0.77,0,1.06-0.38,1.06-0.74
							c0-1.12-3.1-0.42-3.1-2.38c0-0.89,0.77-1.57,1.94-1.57c0.82,0,1.5,0.27,1.99,0.75l-0.53,0.7c-0.42-0.42-0.99-0.62-1.55-0.62
							c-0.54,0-0.9,0.27-0.9,0.66c0,1,3.1,0.38,3.1,2.37c0,0.89-0.63,1.66-2.06,1.66C204.28,67.49,203.57,67.14,203.09,66.64z"/>
					</g>
				</g>
				<g>
					<g>
						<path fill="#989FA1" d="M173.3,90.34c0-1.65,1.22-2.76,2.8-2.76c1.07,0,1.74,0.55,2.14,1.19l-0.79,0.42
							c-0.26-0.45-0.78-0.78-1.34-0.78c-1.05,0-1.84,0.8-1.84,1.93c0,1.11,0.78,1.93,1.84,1.93c0.57,0,1.09-0.34,1.34-0.78l0.8,0.4
							c-0.41,0.64-1.07,1.21-2.14,1.21C174.52,93.09,173.3,91.98,173.3,90.34z"/>
						<path fill="#989FA1" d="M179.15,90.34c0-1.59,1.13-2.76,2.73-2.76c1.59,0,2.73,1.17,2.73,2.76c0,1.59-1.14,2.76-2.73,2.76
							C180.28,93.09,179.15,91.93,179.15,90.34z M183.65,90.34c0-1.1-0.7-1.93-1.77-1.93c-1.08,0-1.77,0.82-1.77,1.93
							c0,1.09,0.69,1.93,1.77,1.93C182.95,92.26,183.65,91.43,183.65,90.34z"/>
						<path fill="#989FA1" d="M189.62,93l-2.78-3.81V93h-0.94v-5.33h0.96l2.73,3.69v-3.69h0.94V93H189.62z"/>
						<path fill="#989FA1" d="M193.34,93v-4.51h-1.62v-0.82h4.17v0.82h-1.62V93H193.34z"/>
						<path fill="#989FA1" d="M200.3,93l-0.39-1.03h-2.45L197.07,93h-1.06l2.1-5.33h1.17l2.09,5.33H200.3z M198.69,88.6l-0.96,2.54
							h1.92L198.69,88.6z"/>
						<path fill="#989FA1" d="M201.83,90.34c0-1.65,1.22-2.76,2.8-2.76c1.07,0,1.74,0.55,2.13,1.19l-0.79,0.42
							c-0.26-0.45-0.78-0.78-1.34-0.78c-1.06,0-1.84,0.8-1.84,1.93c0,1.11,0.78,1.93,1.84,1.93c0.57,0,1.09-0.34,1.34-0.78l0.8,0.4
							c-0.41,0.64-1.07,1.21-2.14,1.21C203.06,93.09,201.83,91.98,201.83,90.34z"/>
						<path fill="#989FA1" d="M209.19,93v-4.51h-1.62v-0.82h4.17v0.82h-1.62V93H209.19z"/>
					</g>
				</g>
			</g>
		</g>
		<g>
			<g>
				<g>
					<path fill="#FFFFFF" d="M182,7.3c8.1,8.1,8.1,21.23,0,29.33c-8.1,8.1-21.23,8.1-29.33,0c-8.1-8.1-8.1-21.23,0-29.33
						C160.77-0.8,173.9-0.8,182,7.3z"/>
					<path fill="#989FA1" d="M167.33,43.08c-5.64,0-10.94-2.2-14.93-6.19c-3.99-3.99-6.19-9.29-6.19-14.93s2.2-10.94,6.19-14.93
						c3.99-3.99,9.29-6.19,14.93-6.19c5.64,0,10.94,2.2,14.93,6.19l0,0l0,0c3.99,3.99,6.19,9.29,6.19,14.93s-2.2,10.94-6.19,14.93
						C178.28,40.88,172.97,43.08,167.33,43.08z M167.33,1.6c-5.44,0-10.55,2.12-14.4,5.97c-3.85,3.85-5.97,8.96-5.97,14.4
						c0,5.44,2.12,10.55,5.97,14.4c3.85,3.85,8.96,5.97,14.4,5.97s10.55-2.12,14.4-5.97c3.85-3.85,5.97-8.96,5.97-14.4
						c0-5.44-2.12-10.55-5.97-14.4l0,0C177.89,3.72,172.77,1.6,167.33,1.6z"/>
				</g>
				<path fill="#ECEFEF" d="M180.01,9.29c7,7,7,18.35,0,25.35c-7,7-18.35,7-25.36,0c-7-7-7-18.35,0-25.35
					C161.66,2.28,173.01,2.28,180.01,9.29z"/>
				<g>
					<g>
						<path fill="#FFFFFF" d="M173.8,27.92v1.62h-12.94v-1.62c0-2.47,1.58-4.58,3.78-5.37c0.75,0.56,1.68,0.89,2.69,0.89
							s1.94-0.33,2.69-0.89C172.23,23.34,173.8,25.44,173.8,27.92z"/>
						<path fill="#989FA1" d="M174.18,29.92h-13.69v-2c0-2.56,1.62-4.86,4.03-5.72l0.19-0.07l0.16,0.12c1.43,1.07,3.5,1.07,4.94,0
							l0.16-0.12l0.19,0.07c2.41,0.86,4.03,3.16,4.03,5.72V29.92z M161.24,29.17h12.19v-1.25c0-2.18-1.34-4.14-3.35-4.95
							c-1.62,1.1-3.87,1.1-5.49,0c-2.01,0.81-3.35,2.77-3.35,4.95V29.17z"/>
					</g>
					<g>
						<path fill="#FFFFFF" d="M171.86,18.91c0,1.49-0.72,2.81-1.83,3.64c-0.75,0.56-1.68,0.89-2.69,0.89s-1.94-0.33-2.69-0.89
							c-1.11-0.82-1.83-2.14-1.83-3.64c0-2.5,2.03-4.53,4.53-4.53S171.86,16.41,171.86,18.91z"/>
						<path fill="#989FA1" d="M167.33,23.81c-1.06,0-2.07-0.33-2.92-0.96c-1.24-0.92-1.98-2.39-1.98-3.94c0-2.7,2.2-4.9,4.9-4.9
							s4.9,2.2,4.9,4.9c0,1.54-0.74,3.02-1.98,3.94C169.4,23.48,168.39,23.81,167.33,23.81z M167.33,14.76
							c-2.29,0-4.15,1.86-4.15,4.15c0,1.33,0.61,2.54,1.68,3.33c1.44,1.07,3.5,1.07,4.94,0c1.07-0.79,1.68-2.01,1.68-3.33
							C171.48,16.62,169.62,14.76,167.33,14.76z"/>
					</g>
				</g>
			</g>
			<g>
				<g>
					<path fill="#FFFFFF" d="M147.33,7.3c8.1,8.1,8.1,21.23,0,29.33c-8.1,8.1-21.23,8.1-29.33,0c-8.1-8.1-8.1-21.23,0-29.33
						C126.1-0.8,139.23-0.8,147.33,7.3z"/>
					<path fill="#989FA1" d="M132.67,43.08c-5.64,0-10.94-2.2-14.93-6.19c-3.99-3.99-6.19-9.29-6.19-14.93s2.2-10.94,6.19-14.93
						c3.99-3.99,9.29-6.19,14.93-6.19c5.64,0,10.94,2.2,14.93,6.19l0,0c3.99,3.99,6.19,9.29,6.19,14.93s-2.2,10.94-6.19,14.93
						C143.61,40.88,138.31,43.08,132.67,43.08z M132.67,1.6c-5.44,0-10.55,2.12-14.4,5.97c-3.85,3.85-5.97,8.96-5.97,14.4
						c0,5.44,2.12,10.55,5.97,14.4c3.85,3.85,8.96,5.97,14.4,5.97c5.44,0,10.55-2.12,14.4-5.97c3.85-3.85,5.97-8.96,5.97-14.4
						c0-5.44-2.12-10.55-5.97-14.4l0,0C143.22,3.72,138.11,1.6,132.67,1.6z"/>
				</g>
				<path fill="#EEE679" d="M145.34,9.29c7,7,7,18.35,0,25.35c-7,7-18.35,7-25.36,0c-7-7-7-18.35,0-25.35
					C126.99,2.28,138.34,2.28,145.34,9.29z"/>
				<g>
					<path fill="#FFFFFF" d="M138.72,26.62h-11.86l1.34-3.11l-3.44-8.59h-2.48c-0.21,0-0.38-0.17-0.38-0.38s0.17-0.38,0.38-0.38
						h2.99l3.74,9.35L128,25.87h10.72c0.21,0,0.38,0.17,0.38,0.38S138.93,26.62,138.72,26.62z"/>
					<path fill="#FFFFFF" d="M128.36,23.91l-2.98-7.49h16.24l-1.48,6.57L128.36,23.91z M126.49,17.17l2.37,5.95l10.68-0.83
						l1.15-5.12H126.49z"/>
					<path fill="#FFFFFF" d="M129.95,31.39c-1.13,0-2.05-0.92-2.05-2.05s0.92-2.05,2.05-2.05s2.05,0.92,2.05,2.05
						S131.08,31.39,129.95,31.39z M129.95,28.04c-0.72,0-1.3,0.58-1.3,1.3s0.58,1.3,1.3,1.3s1.3-0.58,1.3-1.3
						S130.66,28.04,129.95,28.04z"/>
					<path fill="#FFFFFF" d="M136.27,31.39c-1.13,0-2.05-0.92-2.05-2.05s0.92-2.05,2.05-2.05s2.05,0.92,2.05,2.05
						S137.4,31.39,136.27,31.39z M136.27,28.04c-0.72,0-1.3,0.58-1.3,1.3s0.58,1.3,1.3,1.3s1.3-0.58,1.3-1.3
						S136.99,28.04,136.27,28.04z"/>
					<rect x="131.24" y="16.85" fill="#FFFFFF" width="0.75" height="6.4"/>
					<rect x="136.08" y="16.79" fill="#FFFFFF" width="0.75" height="6.07"/>
					
						<rect x="127.3" y="19.48" transform="matrix(0.9994 -0.0338 0.0338 0.9994 -0.5953 4.5403)" fill="#FFFFFF" width="13.11" height="0.75"/>
				</g>
			</g>
		</g>
	</g>
</g>
<g id="Layer_2">
</g>
<g id="Layer_3">
</g>
<g id="Layer_4">
</g>
<g id="Layer_5">
</g>
<g id="Layer_6">
</g>
</svg>
