<?xml version="1.0" encoding="utf-8"?>
<!-- Generator: Adobe Illustrator 22.0.1, SVG Export Plug-In . SVG Version: 6.00 Build 0)  -->
<svg version="1.1" xmlns="http://www.w3.org/2000/svg" xmlns:xlink="http://www.w3.org/1999/xlink" x="0px" y="0px" width="300px"
	 height="125.17px" viewBox="0 0 300 125.17" enable-background="new 0 0 300 125.17" xml:space="preserve">
<g id="Layer_1">
	<g>
		<g>
			<path fill="#ECEFEF" d="M212.82,105.28l-144.03,0.01c-4.52,0-8.18-3.66-8.18-8.18l0-87.33c0-4.52,3.66-8.18,8.18-8.18
				l144.03-0.01c4.52,0,8.18,3.66,8.18,8.18l0,87.33C221.01,101.61,217.34,105.28,212.82,105.28z"/>
			<path fill="#989FA1" d="M68.79,105.66c-4.72,0-8.56-3.84-8.56-8.56l0-87.33c0-4.72,3.84-8.56,8.56-8.56l144.03-0.01
				c4.72,0,8.56,3.84,8.56,8.56l0,87.33c0,4.72-3.84,8.56-8.56,8.56L68.79,105.66z M212.82,1.96L68.79,1.96
				c-4.3,0-7.81,3.5-7.81,7.81l0,87.33c0,4.3,3.5,7.81,7.81,7.81l144.03-0.01c4.3,0,7.81-3.5,7.81-7.81l0-87.33
				C220.63,5.46,217.13,1.96,212.82,1.96z"/>
		</g>
		<g>
			<path fill="#FFFFFF" d="M221.62,114.14l-144.03,0.01c-4.52,0-8.18-3.66-8.18-8.18l0-87.33c0-4.52,3.66-8.18,8.18-8.18
				l144.03-0.01c4.52,0,8.18,3.66,8.18,8.18l0,87.33C229.8,110.48,226.14,114.14,221.62,114.14z"/>
			<path fill="#989FA1" d="M77.59,114.52c-4.72,0-8.56-3.84-8.56-8.56l0-87.33c0-4.72,3.84-8.56,8.56-8.56l144.03-0.01
				c4.72,0,8.56,3.84,8.56,8.56l0,87.33c0,2.29-0.89,4.43-2.51,6.05s-3.77,2.51-6.05,2.51L77.59,114.52z M221.61,10.82L77.58,10.83
				c-4.3,0-7.81,3.5-7.81,7.81l0,87.33c0,4.3,3.5,7.81,7.81,7.81l144.03-0.01c2.08,0,4.05-0.81,5.52-2.29s2.29-3.44,2.29-5.52
				l0-87.33C229.42,14.33,225.92,10.82,221.61,10.82z"/>
		</g>
		<g>
			<path fill="#FFFFFF" d="M231.21,123.58l-144.03,0.01c-4.52,0-8.18-3.66-8.18-8.18l0-87.33c0-4.52,3.66-8.18,8.18-8.18
				l144.03-0.01c4.52,0,8.18,3.66,8.18,8.18l0,87.33C239.39,119.91,235.73,123.58,231.21,123.58z"/>
			<path fill="#989FA1" d="M87.18,123.96c-2.29,0-4.43-0.89-6.05-2.51s-2.51-3.77-2.51-6.05l0-87.33c0-4.72,3.84-8.56,8.56-8.56
				l144.03-0.01c4.72,0,8.56,3.84,8.56,8.56l0,87.33c0,4.72-3.84,8.56-8.56,8.56L87.18,123.96
				C87.18,123.96,87.18,123.96,87.18,123.96z M231.21,20.26L87.18,20.27c-4.3,0-7.81,3.5-7.81,7.81l0,87.33
				c0,2.08,0.81,4.05,2.29,5.52s3.43,2.29,5.52,2.29c0,0,0,0,0,0l144.03-0.01c4.3,0,7.81-3.5,7.81-7.81l0-87.33
				C239.01,23.76,235.51,20.26,231.21,20.26z"/>
		</g>
		<path fill="#ECEFEF" d="M87.18,119.02c-2,0-3.62-1.63-3.62-3.62l0-87.33c0-2,1.63-3.62,3.62-3.62l144.03-0.01
			c2,0,3.62,1.63,3.62,3.62l0,87.33c0,2-1.63,3.62-3.62,3.62L87.18,119.02z"/>
		<g>
			<g>
				<g>
					<path fill="#989FA1" d="M120.85,65.54V53.61h-4.25v-1.49h10.18v1.49h-4.27v11.93H120.85z"/>
					<path fill="#989FA1" d="M137.23,65.54l-1.19-3h-6.68l-1.19,3h-1.91l5.41-13.42h2.07l5.39,13.42H137.23z M132.7,53.83
						l-2.84,7.25h5.7L132.7,53.83z"/>
					<path fill="#989FA1" d="M150.18,65.54l-4.29-5.72l-4.29,5.72h-2.03l5.23-6.88l-4.93-6.54h2.03l3.99,5.35l3.96-5.35h2.05
						l-4.93,6.52l5.23,6.9H150.18z"/>
					<path fill="#989FA1" d="M167.01,65.54l-3.4-5.33h-2.7v5.33h-1.67V52.12h5.39c2.46,0,4.23,1.57,4.23,4.04
						c0,2.42-1.67,3.74-3.5,3.9l3.62,5.47H167.01z M167.13,56.16c0-1.53-1.11-2.56-2.7-2.56h-3.52v5.13h3.52
						C166.02,58.74,167.13,57.67,167.13,56.16z"/>
					<path fill="#989FA1" d="M181.08,65.54l-1.19-3h-6.68l-1.19,3h-1.91l5.41-13.42h2.07l5.39,13.42H181.08z M176.55,53.83
						l-2.84,7.25h5.7L176.55,53.83z"/>
					<path fill="#989FA1" d="M186.72,65.54V53.61h-4.25v-1.49h10.18v1.49h-4.27v11.93H186.72z"/>
					<path fill="#989FA1" d="M194.87,65.54V52.12h8.79v1.49h-7.12v4.33h6.98v1.49h-6.98v4.63h7.12v1.49H194.87z"/>
				</g>
			</g>
		</g>
		<g>
			<g>
				<path fill="#989FA1" d="M142.18,93.53v-1.35c4.83-3.78,7.47-6.02,7.47-8.33c0-1.73-1.43-2.46-2.82-2.46
					c-1.61,0-2.86,0.68-3.64,1.69l-1.03-1.07c1.03-1.37,2.78-2.11,4.67-2.11c2.23,0,4.51,1.27,4.51,3.95c0,2.74-2.78,5.23-6.52,8.19
					h6.58v1.49H142.18z"/>
				<path fill="#989FA1" d="M153.96,86.82c0-3.28,1.45-6.92,5.13-6.92c3.66,0,5.13,3.64,5.13,6.92c0,3.26-1.47,6.94-5.13,6.94
					C155.41,93.77,153.96,90.08,153.96,86.82z M162.51,86.82c0-2.68-0.87-5.43-3.42-5.43c-2.56,0-3.42,2.76-3.42,5.43
					s0.87,5.45,3.42,5.45C161.65,92.28,162.51,89.5,162.51,86.82z"/>
				<path fill="#989FA1" d="M165.88,83.24c0-1.91,1.33-3.34,3.24-3.34c1.93,0,3.24,1.43,3.24,3.34c0,1.85-1.31,3.28-3.24,3.28
					C167.21,86.52,165.88,85.09,165.88,83.24z M171.15,83.24c0-1.33-0.83-2.31-2.03-2.31c-1.19,0-2.03,0.99-2.03,2.31
					c0,1.27,0.85,2.25,2.03,2.25C170.33,85.5,171.15,84.51,171.15,83.24z M167.83,93.53l8.57-13.42h1.13l-8.59,13.42H167.83z
					 M172.88,90.47c0-1.87,1.33-3.32,3.24-3.32s3.22,1.45,3.22,3.32c0,1.87-1.31,3.3-3.22,3.3S172.88,92.34,172.88,90.47z
					 M178.15,90.47c0-1.31-0.83-2.29-2.03-2.29c-1.23,0-2.05,0.99-2.05,2.29c0,1.29,0.83,2.27,2.05,2.27
					C177.33,92.74,178.15,91.75,178.15,90.47z"/>
			</g>
		</g>
	</g>
</g>
<g id="Layer_2">
</g>
<g id="Layer_3">
</g>
<g id="Layer_4">
</g>
<g id="Layer_5">
</g>
<g id="Layer_6">
</g>
</svg>
