<?xml version="1.0" encoding="utf-8"?>
<!-- Generator: Adobe Illustrator 22.0.1, SVG Export Plug-In . SVG Version: 6.00 Build 0)  -->
<svg version="1.1" xmlns="http://www.w3.org/2000/svg" xmlns:xlink="http://www.w3.org/1999/xlink" x="0px" y="0px" width="300px"
	 height="144.58px" viewBox="0 0 300 144.58" enable-background="new 0 0 300 144.58" xml:space="preserve">
<g id="Layer_1">
	<g>
		<g>
			<path fill="#989FA1" d="M137.43,63.19c-0.45-0.66-1.07-1.18-1.8-1.48l-19.14-8.03l0.29-0.69l19.14,8.03
				c0.86,0.36,1.6,0.97,2.13,1.75L137.43,63.19z"/>
			<path fill="#989FA1" d="M4.46,63.49l-0.63-0.41c0.79-1.2,1.92-2.13,3.25-2.69l17.63-7.39L25,53.69L7.37,61.08
				C6.18,61.58,5.17,62.41,4.46,63.49z"/>
			<g>
				<g>
					<path fill="#FFFFFF" d="M112.7,133.17l-83.31,0c-2.35,0-4.25-1.9-4.25-4.25l0-101.92c0-2.35,1.9-4.25,4.25-4.25l83.31,0
						c2.35,0,4.25,1.9,4.25,4.25l0,101.92C116.96,131.27,115.05,133.17,112.7,133.17z"/>
					<path fill="#989FA1" d="M29.4,133.55c-2.55,0-4.63-2.08-4.63-4.63l0-101.92c0-2.55,2.08-4.63,4.63-4.63l83.31,0
						c2.55,0,4.63,2.08,4.63,4.63l0,101.92c0,2.55-2.08,4.63-4.63,4.63L29.4,133.55z M112.7,23.12l-83.31,0
						c-2.14,0-3.88,1.74-3.88,3.88l0,101.92c0,2.14,1.74,3.88,3.88,3.88l83.31,0c2.14,0,3.88-1.74,3.88-3.88l0-101.92
						C116.58,24.86,114.84,23.12,112.7,23.12z"/>
				</g>
				<rect x="34.84" y="64.27" fill="#989FA1" width="50.05" height="0.75"/>
				<rect x="34.84" y="72.95" fill="#989FA1" width="50.05" height="0.75"/>
				<rect x="34.84" y="55.59" fill="#989FA1" width="50.05" height="0.75"/>
				<rect x="34.84" y="81.64" fill="#989FA1" width="37.33" height="0.75"/>
				<g>
					<path fill="#989FA1" d="M36.14,39.91v-1.8l-1.69-2.54h0.87l1.19,1.86l1.19-1.86h0.87l-1.68,2.54v1.8H36.14z"/>
					<path fill="#989FA1" d="M38.92,37.74c0-1.3,0.92-2.25,2.22-2.25c1.3,0,2.22,0.95,2.22,2.25c0,1.3-0.93,2.25-2.22,2.25
						C39.84,39.99,38.92,39.04,38.92,37.74z M42.59,37.74c0-0.9-0.57-1.57-1.44-1.57c-0.88,0-1.44,0.67-1.44,1.57
						c0,0.89,0.56,1.57,1.44,1.57C42.02,39.31,42.59,38.64,42.59,37.74z"/>
					<path fill="#989FA1" d="M44.42,38.19v-2.63h0.78v2.61c0,0.69,0.38,1.14,1.11,1.14s1.11-0.45,1.11-1.14v-2.61h0.78v2.63
						c0,1.08-0.62,1.8-1.88,1.8C45.04,39.99,44.42,39.27,44.42,38.19z"/>
					<path fill="#989FA1" d="M51.43,39.91v-4.35h2.98v0.67H52.2v1.12h2.17v0.67H52.2v1.88H51.43z"/>
					<path fill="#989FA1" d="M55.24,37.74c0-1.3,0.92-2.25,2.22-2.25c1.3,0,2.22,0.95,2.22,2.25c0,1.3-0.93,2.25-2.22,2.25
						C56.16,39.99,55.24,39.04,55.24,37.74z M58.9,37.74c0-0.9-0.57-1.57-1.44-1.57c-0.88,0-1.44,0.67-1.44,1.57
						c0,0.89,0.56,1.57,1.44,1.57C58.33,39.31,58.9,38.64,58.9,37.74z"/>
					<path fill="#989FA1" d="M63.21,39.91l-0.96-1.62h-0.76v1.62h-0.76v-4.35h1.91c0.86,0,1.43,0.55,1.43,1.36
						c0,0.77-0.51,1.19-1.04,1.28l1.07,1.71H63.21z M63.28,36.92c0-0.42-0.31-0.68-0.74-0.68h-1.05v1.38h1.05
						C62.97,37.62,63.28,37.35,63.28,36.92z"/>
					<path fill="#989FA1" d="M64.96,37.74c0-1.37,1.02-2.25,2.28-2.25c0.85,0,1.4,0.4,1.75,0.9l-0.62,0.36
						c-0.23-0.33-0.65-0.58-1.13-0.58c-0.86,0-1.5,0.65-1.5,1.57c0,0.91,0.64,1.57,1.5,1.57c0.44,0,0.83-0.2,1.03-0.39v-0.67h-1.3
						v-0.67h2.06v1.62C68.6,39.68,67.99,40,67.24,40C65.98,40,64.96,39.1,64.96,37.74z"/>
					<path fill="#989FA1" d="M69.95,37.74c0-1.3,0.92-2.25,2.22-2.25c1.3,0,2.22,0.95,2.22,2.25c0,1.3-0.93,2.25-2.22,2.25
						C70.87,39.99,69.95,39.04,69.95,37.74z M73.62,37.74c0-0.9-0.57-1.57-1.44-1.57c-0.88,0-1.44,0.67-1.44,1.57
						c0,0.89,0.56,1.57,1.44,1.57C73.05,39.31,73.62,38.64,73.62,37.74z"/>
					<path fill="#989FA1" d="M76.32,39.91v-3.67h-1.32v-0.67h3.39v0.67h-1.32v3.67H76.32z"/>
					<path fill="#989FA1" d="M35.94,47.72v-3.67h-1.32v-0.67h3.39v0.67H36.7v3.67H35.94z"/>
					<path fill="#989FA1" d="M42.01,47.72v-1.9h-2.26v1.9h-0.76v-4.35h0.76v1.77h2.26v-1.77h0.76v4.35H42.01z"/>
					<path fill="#989FA1" d="M44.01,47.72v-4.35h2.98v0.67h-2.21v1.12h2.17v0.67h-2.17v1.21h2.21v0.67H44.01z"/>
					<path fill="#989FA1" d="M47.82,47.11l0.43-0.59c0.29,0.32,0.77,0.61,1.38,0.61c0.63,0,0.87-0.31,0.87-0.6
						c0-0.91-2.53-0.35-2.53-1.94c0-0.72,0.63-1.28,1.58-1.28c0.67,0,1.22,0.22,1.62,0.61l-0.43,0.57c-0.35-0.35-0.81-0.5-1.26-0.5
						c-0.44,0-0.73,0.22-0.73,0.54c0,0.81,2.53,0.31,2.53,1.93c0,0.72-0.51,1.35-1.68,1.35C48.79,47.8,48.21,47.52,47.82,47.11z"/>
					<path fill="#989FA1" d="M52.29,47.72v-4.35h2.98v0.67h-2.22v1.12h2.17v0.67h-2.17v1.21h2.22v0.67H52.29z"/>
					<path fill="#989FA1" d="M58.37,47.72v-4.35h0.76v4.35H58.37z"/>
					<path fill="#989FA1" d="M61.42,47.72v-3.67h-1.32v-0.67h3.39v0.67h-1.32v3.67H61.42z"/>
					<path fill="#989FA1" d="M64.47,47.72v-4.35h2.98v0.67h-2.22v1.12h2.17v0.67h-2.17v1.21h2.22v0.67H64.47z"/>
					<path fill="#989FA1" d="M72.3,47.72v-3.36l-1.33,3.36h-0.33l-1.34-3.36v3.36h-0.76v-4.35h1.08l1.19,2.98l1.18-2.98h1.08v4.35
						H72.3z"/>
					<path fill="#989FA1" d="M74.03,47.11l0.43-0.59c0.29,0.32,0.77,0.61,1.38,0.61c0.63,0,0.87-0.31,0.87-0.6
						c0-0.91-2.53-0.35-2.53-1.94c0-0.72,0.63-1.28,1.58-1.28c0.67,0,1.22,0.22,1.62,0.61l-0.43,0.57c-0.35-0.35-0.81-0.5-1.26-0.5
						c-0.44,0-0.73,0.22-0.73,0.54c0,0.81,2.53,0.31,2.53,1.93c0,0.72-0.51,1.35-1.68,1.35C75,47.8,74.42,47.52,74.03,47.11z"/>
				</g>
			</g>
			<g>
				<path fill="#FFFFFF" d="M138.49,65.44v71.02c0,3.8-3.09,6.89-6.89,6.89H9.89c-3.81,0-6.89-3.09-6.89-6.89V67.09
					c0-1.38,0.41-2.7,1.14-3.8l62.94,39.39c2.24,1.4,5.08,1.4,7.32,0l63.33-39.69C138.22,63.7,138.49,64.55,138.49,65.44z"/>
				<path fill="#989FA1" d="M131.6,143.73H9.89c-4.01,0-7.27-3.26-7.27-7.26V67.09c0-1.43,0.42-2.82,1.21-4.01l0.2-0.3l63.25,39.59
					c2.1,1.32,4.82,1.32,6.92,0l63.64-39.89l0.2,0.3c0.53,0.79,0.82,1.72,0.82,2.67v71.02C138.87,140.47,135.61,143.73,131.6,143.73
					z M4.26,63.8c-0.58,1-0.89,2.13-0.89,3.29v69.38c0,3.59,2.92,6.51,6.52,6.51h121.7c3.59,0,6.52-2.92,6.52-6.51V65.44
					c0-0.68-0.17-1.35-0.5-1.94L74.6,102.99c-2.34,1.47-5.37,1.47-7.72,0L4.26,63.8z"/>
			</g>
			<path fill="#ECEFEF" d="M9.89,139.76c-1.82,0-3.3-1.48-3.3-3.3V69.06l58.58,36.67c1.67,1.05,3.6,1.6,5.57,1.6
				c1.97,0,3.9-0.55,5.57-1.6l58.58-36.71v67.46c0,1.82-1.48,3.3-3.3,3.3H9.89z"/>
			
				<rect x="-2.47" y="116.09" transform="matrix(0.6614 -0.75 0.75 0.6614 -78.1631 59.785)" fill="#989FA1" width="59.21" height="0.75"/>
			
				<rect x="113.78" y="86.86" transform="matrix(0.7505 -0.6608 0.6608 0.7505 -48.4891 104.489)" fill="#989FA1" width="0.75" height="59.21"/>
		</g>
		<polygon fill="#EEE679" points="107.89,48.99 105.93,46.27 103.5,48.59 102.07,45.55 99.26,47.38 98.42,44.13 95.32,45.41 
			95.09,42.06 91.8,42.75 92.19,39.42 88.83,39.5 89.83,36.29 86.51,35.75 88.07,32.78 84.91,31.65 87,29.01 84.1,27.31 
			86.64,25.11 84.1,22.91 87,21.2 84.91,18.57 88.07,17.44 86.51,14.46 89.83,13.93 88.84,10.72 92.19,10.8 91.81,7.47 95.09,8.16 
			95.32,4.81 98.42,6.09 99.26,2.84 102.07,4.67 103.5,1.63 105.93,3.95 107.89,1.22 109.85,3.95 112.28,1.63 113.7,4.67 
			116.52,2.84 117.36,6.09 120.46,4.81 120.69,8.16 123.97,7.47 123.58,10.8 126.94,10.72 125.95,13.93 129.27,14.46 127.7,17.44 
			130.86,18.57 128.78,21.2 131.67,22.91 129.14,25.11 131.67,27.31 128.78,29.02 130.86,31.65 127.7,32.78 129.27,35.76 
			125.95,36.29 126.94,39.5 123.58,39.42 123.97,42.75 120.69,42.06 120.46,45.41 117.35,44.13 116.52,47.38 113.7,45.55 
			112.28,48.59 109.85,46.27 		"/>
		<g>
			<path fill="#FFFFFF" d="M94.18,24.21l0.92-1.11c0.6,0.71,1.44,1.1,2.45,1.1c1.16,0,1.88-0.71,1.88-1.62
				c0-0.97-0.71-1.62-1.84-1.62c-0.77,0-1.41,0.23-2,0.78l-1.14-0.33v-5.1h5.99v1.41h-4.38v2.63c0.45-0.42,1.19-0.78,2.07-0.78
				c1.55,0,2.93,1.07,2.93,2.95c0,1.89-1.45,3.1-3.49,3.1C96,25.62,94.92,25.07,94.18,24.21z"/>
			<path fill="#FFFFFF" d="M102.88,20.89c0-2.3,1.08-4.71,3.66-4.71c2.56,0,3.65,2.41,3.65,4.71c0,2.29-1.08,4.73-3.65,4.73
				C103.97,25.62,102.88,23.18,102.88,20.89z M108.56,20.89c0-1.75-0.52-3.29-2.01-3.29c-1.49,0-2.03,1.53-2.03,3.29
				c0,1.74,0.53,3.3,2.03,3.3C108.02,24.2,108.56,22.63,108.56,20.89z"/>
			<path fill="#FFFFFF" d="M111.84,18.46c0-1.29,0.92-2.27,2.27-2.27c1.37,0,2.27,0.99,2.27,2.27c0,1.27-0.9,2.26-2.27,2.26
				C112.75,20.72,111.84,19.73,111.84,18.46z M115.33,18.46c0-0.81-0.51-1.37-1.22-1.37c-0.7,0-1.21,0.56-1.21,1.37
				c0,0.79,0.51,1.34,1.21,1.34C114.82,19.8,115.33,19.25,115.33,18.46z M113.22,25.46l5.84-9.14h0.93l-5.85,9.14H113.22z
				 M116.75,23.36c0-1.29,0.92-2.27,2.27-2.27c1.36,0,2.27,0.99,2.27,2.27c0,1.27-0.92,2.26-2.27,2.26
				C117.67,25.62,116.75,24.64,116.75,23.36z M120.25,23.36c0-0.81-0.51-1.37-1.22-1.37c-0.71,0-1.22,0.56-1.22,1.37
				c0,0.79,0.51,1.34,1.22,1.34C119.74,24.7,120.25,24.16,120.25,23.36z"/>
		</g>
		<g>
			<path fill="#FFFFFF" d="M96.89,32.66c0-2.24,1.59-3.88,3.83-3.88c2.24,0,3.83,1.64,3.83,3.88c0,2.24-1.6,3.88-3.83,3.88
				C98.47,36.53,96.89,34.89,96.89,32.66z M103.21,32.66c0-1.55-0.98-2.71-2.49-2.71c-1.52,0-2.49,1.16-2.49,2.71
				c0,1.54,0.97,2.71,2.49,2.71C102.23,35.37,103.21,34.2,103.21,32.66z"/>
			<path fill="#FFFFFF" d="M106.38,36.4v-7.5h5.14v1.16h-3.82v1.93h3.74v1.16h-3.74v3.25H106.38z"/>
			<path fill="#FFFFFF" d="M113.27,36.4v-7.5h5.14v1.16h-3.82v1.93h3.74v1.16h-3.74v3.25H113.27z"/>
		</g>
		<g>
			<rect x="163.46" y="83.88" fill="#989FA1" width="50.49" height="0.75"/>
			<polygon fill="#989FA1" points="207.29,92.86 206.77,92.32 214.87,84.37 206.91,76.27 207.45,75.74 215.93,84.38 			"/>
		</g>
		<g>
			<g>
				<path fill="#FFFFFF" d="M297,112.7v7.2h-57.35v-7.2c0-10.96,6.98-20.3,16.74-23.79c3.34,2.48,7.46,3.94,11.93,3.94
					c4.47,0,8.6-1.46,11.93-3.94C290.02,92.4,297,101.73,297,112.7z"/>
				<path fill="#989FA1" d="M297.38,120.27h-58.1v-7.57c0-10.8,6.83-20.5,16.99-24.15l0.19-0.07l0.16,0.12
					c3.4,2.53,7.45,3.87,11.71,3.87s8.3-1.34,11.71-3.87l0.16-0.12l0.19,0.07c10.17,3.64,17,13.35,17,24.15V120.27z M240.02,119.52
					h56.6v-6.82c0-10.42-6.55-19.79-16.31-23.37c-3.5,2.55-7.64,3.89-11.99,3.89s-8.49-1.35-11.99-3.89
					c-9.76,3.59-16.3,12.96-16.3,23.37V119.52z"/>
			</g>
			<path fill="#ECEFEF" d="M243.65,115.89v-3.2c0-8.3,4.86-15.82,12.28-19.29c3.73,2.25,7.97,3.43,12.39,3.43
				c4.42,0,8.66-1.18,12.39-3.43c7.43,3.46,12.29,10.98,12.29,19.29v3.2H243.65z"/>
			<g>
				<path fill="#FFFFFF" d="M288.37,72.79c0,6.61-3.19,12.47-8.12,16.11c-3.34,2.48-7.46,3.94-11.93,3.94
					c-4.47,0-8.6-1.46-11.93-3.94c-4.93-3.65-8.12-9.5-8.12-16.11c0-11.09,8.98-20.07,20.06-20.07
					C279.39,52.73,288.37,61.7,288.37,72.79z"/>
				<path fill="#989FA1" d="M268.32,93.22c-4.42,0-8.62-1.39-12.16-4.01c-5.18-3.84-8.27-9.97-8.27-16.42
					c0-11.27,9.17-20.44,20.43-20.44s20.43,9.17,20.43,20.44c0,6.44-3.09,12.58-8.27,16.42C276.94,91.83,272.74,93.22,268.32,93.22z
					 M268.32,53.1c-10.85,0-19.68,8.83-19.68,19.69c0,6.3,2.91,12.06,7.97,15.81c3.4,2.53,7.45,3.87,11.71,3.87s8.3-1.34,11.71-3.87
					c5.07-3.75,7.97-9.51,7.97-15.81C288,61.93,279.17,53.1,268.32,53.1z"/>
			</g>
		</g>
	</g>
</g>
<g id="Layer_2">
</g>
<g id="Layer_3">
</g>
<g id="Layer_4">
</g>
<g id="Layer_5">
</g>
<g id="Layer_6">
</g>
</svg>
