<?xml version="1.0" encoding="utf-8"?>
<!-- Generator: Adobe Illustrator 22.0.1, SVG Export Plug-In . SVG Version: 6.00 Build 0)  -->
<svg version="1.1" xmlns="http://www.w3.org/2000/svg" xmlns:xlink="http://www.w3.org/1999/xlink" x="0px" y="0px" width="300px"
	 height="152.83px" viewBox="0 0 300 152.83" enable-background="new 0 0 300 152.83" xml:space="preserve">
<g id="Layer_1">
	<g>
		<g>
			<g>
				<path fill="#FFFFFF" d="M181.78,103.1v8.03h-64.04v-8.03c0-12.24,7.8-22.66,18.69-26.57c3.72,2.77,8.33,4.4,13.32,4.4
					s9.6-1.63,13.32-4.4C173.98,80.44,181.78,90.86,181.78,103.1z"/>
				<path fill="#989FA1" d="M182.16,111.51h-64.79v-8.41c0-12.04,7.61-22.86,18.94-26.92l0.19-0.07l0.16,0.12
					c3.81,2.83,8.34,4.33,13.1,4.33s9.29-1.5,13.1-4.33l0.16-0.12l0.19,0.07c11.34,4.06,18.95,14.88,18.95,26.92V111.51z
					 M118.12,110.76h63.29v-7.66c0-11.66-7.33-22.14-18.27-26.15c-3.9,2.85-8.53,4.35-13.38,4.35s-9.48-1.5-13.38-4.35
					c-10.93,4.01-18.25,14.49-18.25,26.15V110.76z"/>
			</g>
			<path fill="#ECEFEF" d="M122.21,106.67v-3.57c0-9.27,5.43-17.67,13.72-21.53c4.16,2.51,8.9,3.83,13.83,3.83
				c4.94,0,9.67-1.32,13.83-3.83c8.29,3.86,13.73,12.26,13.73,21.53v3.57H122.21z"/>
			<g>
				<path fill="#FFFFFF" d="M172.15,58.54c0,7.38-3.57,13.92-9.07,17.99c-3.72,2.77-8.33,4.4-13.32,4.4s-9.6-1.63-13.32-4.4
					c-5.5-4.07-9.07-10.61-9.07-17.99c0-12.38,10.03-22.4,22.39-22.4C162.12,36.14,172.15,46.16,172.15,58.54z"/>
				<path fill="#989FA1" d="M149.76,81.31c-4.92,0-9.61-1.55-13.55-4.47c-5.77-4.27-9.22-11.11-9.22-18.29
					c0-12.56,10.21-22.78,22.77-22.78c12.55,0,22.77,10.22,22.77,22.78c0,7.18-3.45,14.02-9.22,18.29
					C159.36,79.76,154.68,81.31,149.76,81.31z M149.76,36.51c-12.14,0-22.02,9.88-22.02,22.03c0,7.05,3.25,13.5,8.92,17.69
					c3.81,2.83,8.34,4.33,13.1,4.33s9.29-1.5,13.1-4.33c5.58-4.13,8.92-10.75,8.92-17.69C171.77,46.39,161.9,36.51,149.76,36.51z"/>
			</g>
		</g>
		<g>
			<path fill="#989FA1" d="M75.76,69.01l-0.75-0.07c2.63-26.16,18.28-48.67,41.87-60.21c37.3-18.24,82.5-2.76,100.78,34.52
				l-0.67,0.33C198.89,6.67,154.13-8.66,117.21,9.4C93.86,20.83,78.36,43.11,75.76,69.01z"/>
			<path fill="#989FA1" d="M150.13,151.77c-27.88,0-54.72-15.51-67.8-42.18l0.67-0.33c18.1,36.91,62.86,52.24,99.78,34.18
				c23.36-11.43,38.85-33.71,41.46-59.61l0.75,0.07c-2.63,26.16-18.28,48.67-41.87,60.21C172.5,149.31,161.23,151.77,150.13,151.77z
				"/>
			<polygon fill="#989FA1" points="217.53,43.97 207.82,40.54 208.07,39.83 217.07,43.01 220.25,34.01 220.96,34.26 			"/>
			<polygon fill="#989FA1" points="79.75,118.82 79.04,118.57 82.47,108.86 92.18,112.29 91.93,113 82.93,109.82 			"/>
		</g>
		<g>
			<polygon fill="#F4F7F7" points="137.67,124.29 105.78,110.87 115.95,96.05 147.84,109.46 			"/>
			<path fill="#989FA1" d="M137.8,124.75l-0.28-0.12l-32.32-13.59l10.6-15.45l0.28,0.12l32.32,13.59L137.8,124.75z M106.34,110.71
				l31.19,13.11l9.74-14.19l-31.19-13.11L106.34,110.71z"/>
		</g>
		
			<ellipse transform="matrix(0.8927 -0.4506 0.4506 0.8927 -36.0093 68.7784)" fill="#E4E7E9" cx="126.45" cy="110.02" rx="6.56" ry="5.26"/>
		<g>
			<g>
				<path fill="#697374" d="M128.88,107.02l-0.48,0.69c0.64,0.32,1.04,0.76,1.27,1.23l-0.61,0.33c-0.19-0.38-0.54-0.76-1.03-1.02
					l-1.19,1.73l0.11,0.07c0.82,0.49,1.26,1.16,0.69,1.97c-0.61,0.87-1.69,1.04-2.69,0.73l-0.5,0.72l-0.52-0.22l0.49-0.71
					c-0.63-0.32-1.18-0.86-1.38-1.37l0.62-0.32c0.15,0.38,0.58,0.86,1.12,1.16l1.2-1.75l-0.13-0.08c-0.82-0.49-1.17-1.16-0.61-1.95
					c0.58-0.83,1.64-1.03,2.63-0.73l0.48-0.7L128.88,107.02z M126.47,110.53l-1.15,1.68c0.69,0.2,1.36,0.11,1.73-0.42
					C127.34,111.37,127.12,110.95,126.47,110.53z M126.37,109.71l1.14-1.67c-0.68-0.2-1.33-0.06-1.66,0.42
					C125.56,108.88,125.71,109.29,126.37,109.71z"/>
			</g>
		</g>
		<g>
			<polygon fill="#F4F7F7" points="137.25,120.37 105.36,106.96 115.53,92.13 147.42,105.55 			"/>
			<path fill="#989FA1" d="M137.39,120.83l-0.28-0.12l-32.32-13.59l10.6-15.45l0.28,0.12l32.32,13.59L137.39,120.83z M105.93,106.79
				l31.19,13.11l9.74-14.19L115.67,92.6L105.93,106.79z"/>
		</g>
		
			<ellipse transform="matrix(0.8927 -0.4506 0.4506 0.8927 -33.5809 67.805)" fill="#E4E7E9" cx="125.62" cy="104.43" rx="6.56" ry="5.26"/>
		<g>
			<g>
				<path fill="#697374" d="M128.05,101.44l-0.48,0.69c0.64,0.32,1.03,0.76,1.27,1.23l-0.61,0.33c-0.19-0.38-0.54-0.76-1.03-1.02
					l-1.19,1.73l0.11,0.07c0.82,0.49,1.26,1.16,0.69,1.97c-0.61,0.87-1.69,1.04-2.7,0.73l-0.5,0.72l-0.52-0.22l0.49-0.72
					c-0.63-0.32-1.18-0.86-1.38-1.37l0.62-0.32c0.15,0.38,0.58,0.86,1.13,1.16l1.2-1.75l-0.13-0.08c-0.82-0.49-1.17-1.16-0.62-1.95
					c0.58-0.83,1.64-1.03,2.63-0.73l0.48-0.7L128.05,101.44z M125.64,104.95l-1.15,1.68c0.69,0.2,1.36,0.11,1.73-0.42
					C126.52,105.79,126.29,105.36,125.64,104.95z M125.54,104.12l1.14-1.67c-0.68-0.2-1.33-0.06-1.66,0.42
					C124.73,103.29,124.88,103.7,125.54,104.12z"/>
			</g>
		</g>
		<g>
			<polygon fill="#F4F7F7" points="136.42,115.9 104.53,102.49 114.7,87.67 146.59,101.08 			"/>
			<path fill="#989FA1" d="M136.56,116.37l-0.28-0.12l-32.32-13.59l10.6-15.45l0.28,0.12l32.32,13.59L136.56,116.37z M105.1,102.33
				l31.19,13.11l9.74-14.19l-31.19-13.11L105.1,102.33z"/>
		</g>
		
			<ellipse transform="matrix(0.8927 -0.4506 0.4506 0.8927 -32.3667 67.3183)" fill="#EEE679" cx="125.21" cy="101.64" rx="6.56" ry="5.26"/>
		<g>
			<g>
				<path fill="#697374" d="M122.64,104.78l0.51-0.74c-0.43-0.19-0.79-0.51-0.93-0.81l0.52-0.41c0.15,0.29,0.45,0.59,0.87,0.77
					c0.54,0.23,1.1,0.08,1.39-0.34c0.28-0.4,0.15-0.77-0.26-1.23c-0.57-0.61-0.81-1.15-0.38-1.78c0.42-0.61,1.18-0.88,1.94-0.7
					l0.51-0.74l0.47,0.2l-0.49,0.71c0.44,0.2,0.67,0.45,0.8,0.67l-0.52,0.4c-0.1-0.15-0.3-0.45-0.78-0.65
					c-0.58-0.24-1.03,0-1.23,0.29c-0.26,0.38-0.11,0.69,0.36,1.22c0.57,0.63,0.7,1.18,0.25,1.83c-0.4,0.58-1.18,0.94-2.04,0.74
					l-0.52,0.76L122.64,104.78z"/>
			</g>
		</g>
	</g>
</g>
<g id="Layer_2">
</g>
<g id="Layer_3">
</g>
<g id="Layer_4">
</g>
<g id="Layer_5">
</g>
<g id="Layer_6">
</g>
</svg>
