<svg xmlns="http://www.w3.org/2000/svg" preserveAspectRatio="xMidYMid" width="65" height="55" viewBox="0 0 65 55"><defs><style>.cls-1 { fill: #b6bcbd; stroke: #ede9e3; fill-rule: evenodd; }</style></defs><path d="M59.38 17.338H44.906V5.57C44.906 2.514 42.4 0 39.352 0H5.555C2.505 0 0 2.513 0 5.57v20.397c0 3.06 2.506 5.572 5.555 5.572h3.29l4.142 5.57c.232.39.702.55 1.173.55.47 0 .862-.233 1.174-.55l4.143-5.57h.622v11.764c0 3.058 2.504 5.57 5.553 5.57H45.52l4.144 5.572c.23.392.702.552 1.173.552.47 0 .86-.233 1.173-.553l4.144-5.57h3.288c3.05 0 5.555-2.514 5.555-5.572V22.91c.007-3.066-2.492-5.572-5.62-5.572zM18.7 28.633c-.47 0-.862.232-1.174.552l-3.44 4.547-3.44-4.547c-.232-.392-.703-.552-1.174-.552h-4.07c-1.485 0-2.66-1.177-2.66-2.666V5.57c0-1.488 1.175-2.665 2.66-2.665H39.2c1.484 0 2.658 1.177 2.658 2.666v20.4c0 1.49-1.174 2.666-2.658 2.666H18.702zm43.415 14.673c0 1.488-1.174 2.665-2.66 2.665h-4.07c-.47 0-.86.236-1.172.555l-3.44 4.547-3.44-4.546c-.233-.392-.704-.552-1.175-.552H25.662c-1.485 0-2.658-1.176-2.658-2.664V31.54h16.348c1.093 0 2.115-.314 2.97-.866h10.95c.783 0 1.406-.625 1.406-1.41 0-.784-.623-1.408-1.405-1.408h-8.605c.232-.552.312-1.177.312-1.882v-5.65h14.47c1.486 0 2.66 1.176 2.66 2.665v20.314h.007zm-7.51-5.964c0 .784-.624 1.41-1.407 1.41H31.92c-.782 0-1.405-.626-1.405-1.41 0-.784.623-1.41 1.405-1.41H53.2c.775-.006 1.406.626 1.406 1.41zm-21.673-15.93h-21.2c-.782 0-1.405-.624-1.405-1.408 0-.785.622-1.41 1.404-1.41h21.2c.784 0 1.407.625 1.407 1.41.08.784-.623 1.41-1.406 1.41zM10.33 11.848c0-.784.622-1.41 1.404-1.41h12.748c.782 0 1.405.625 1.405 1.41 0 .784-.623 1.41-1.405 1.41H11.734c-.782 0-1.405-.626-1.405-1.41z" class="cls-1"/></svg>