<?xml version="1.0" encoding="UTF-8"?>
<svg width="24px" height="21px" viewBox="0 0 24 21" version="1.1" xmlns="http://www.w3.org/2000/svg" xmlns:xlink="http://www.w3.org/1999/xlink">
    <!-- Generator: sketchtool 51 (57462) - http://www.bohemiancoding.com/sketch -->
    <title>A7C4DE23-F721-439F-A4F4-8FCBB66C3596</title>
    <desc>Created with sketchtool.</desc>
    <defs></defs>
    <g id="Page-1" stroke="none" stroke-width="1" fill="none" fill-rule="evenodd">
        <g id="custom-section" transform="translate(-370.000000, -395.000000)" fill="#2C2E31">
            <g id="Tabs-+-logos" transform="translate(369.000000, 390.000000)">
                <g id="React">
                    <g id="logo-react" transform="translate(1.000000, 5.000000)">
                        <path d="M19.2572341,6.57905263 C21.7259659,7.42536842 23.3208439,8.75042105 23.3208439,10.1215789 C23.3208439,11.5514737 21.6162585,12.9491579 18.9959659,13.8131579 C18.8570878,13.8592632 18.7156732,13.9034737 18.5710878,13.9457895 C18.6224537,14.1523158 18.6681122,14.3556842 18.7080634,14.554 C19.2248927,17.1561053 18.8266488,19.2952632 17.6008439,20.002 C16.4143561,20.686 14.4954293,20.014 12.553039,18.3491579 C12.3418683,18.1678947 12.1364049,17.9809474 11.9353805,17.7876842 C11.7762098,17.9411579 11.617039,18.0876842 11.4585024,18.2253684 C9.45269756,19.9716842 7.39362439,20.6961053 6.16655122,19.9906316 C4.97816098,19.3085263 4.60528293,17.3177895 5.08279512,14.8104211 C5.13542927,14.5382105 5.19503902,14.2666316 5.26289268,13.9975789 C5.05489268,13.9382105 4.84879512,13.8744211 4.6446,13.8049474 C2.12386829,12.9472632 0.46557561,11.5325263 0.46557561,10.1215789 C0.46557561,8.75547368 2.01099024,7.43863158 4.43025854,6.59863158 C4.70103902,6.50515789 4.98386829,6.41673684 5.27620976,6.33336842 C5.21342927,6.08389474 5.15762439,5.83252632 5.10752683,5.57989474 C4.60591707,3.02831579 4.95913659,0.988947368 6.15006341,0.302421053 C7.3923561,-0.413789474 9.46157561,0.355473684 11.5250878,2.18010526 C11.6538195,2.29442105 11.7793805,2.41 11.9036732,2.52873684 C12.0888439,2.35063158 12.2784537,2.17694737 12.4731366,2.00894737 C14.442161,0.301789474 16.392161,-0.411894737 17.5843561,0.272736842 C18.8279171,0.987052632 19.1919171,3.15526316 18.6351366,5.84831579 C18.6002585,6.01505263 18.5622098,6.18178947 18.5216244,6.34789474 C18.7683073,6.41863158 19.013722,6.49568421 19.2572341,6.57905263 Z M17.0965073,1.11501053 C16.3780195,0.702589474 14.8008976,1.27985263 13.1140683,2.74195789 C12.9346049,2.89732632 12.7589463,3.05774737 12.588361,3.22195789 C13.2415317,3.92301053 13.8921659,4.73332632 14.5206049,5.62385263 C15.5986537,5.72427368 16.6278732,5.88658947 17.575922,6.10385263 C17.6127024,5.95416842 17.6469463,5.80322105 17.6786537,5.65227368 C18.1599707,3.32743158 17.861922,1.55395789 17.0965073,1.11501053 Z M15.0824585,11.9737474 C15.4318732,11.3712211 15.7597268,10.7566947 16.0647512,10.1308 C15.7565561,9.51185263 15.4274341,8.90301053 15.0792878,8.30490526 C14.7330439,7.70806316 14.3658732,7.12448421 13.9784098,6.55353684 C13.2986049,6.50174737 12.6010439,6.47458947 11.8933366,6.47458947 C11.1888,6.47458947 10.4918732,6.50174737 9.81206829,6.55290526 C9.4208,7.12448421 9.05045854,7.71058947 8.70421463,8.31058947 L8.70421463,8.30995789 C8.35670244,8.90932632 8.03265366,9.52132632 7.73143415,10.1453263 C8.0332878,10.7680632 8.35860488,11.3800632 8.70675122,11.9788 C9.0568,12.5806947 9.4290439,13.1699579 9.82348293,13.7434316 C10.4899707,13.7863789 11.1818244,13.8091158 11.8933366,13.8091158 C12.6073854,13.8091158 13.3074829,13.7838526 13.9860195,13.7352211 C14.3703122,13.1598526 14.7362146,12.5731158 15.0824585,11.9737474 Z M16.5910927,11.2537474 C16.3792878,11.6598526 16.1586049,12.0621684 15.9284098,12.4594316 C15.7020195,12.8503789 15.4686537,13.2362737 15.2270439,13.6177474 C15.9804098,13.5274316 16.6957268,13.4061684 17.3584098,13.2558526 C17.1542146,12.6179579 16.8967512,11.9465895 16.5910927,11.2537474 Z M11.9307512,16.3941684 C12.3784585,15.9040632 12.8280683,15.3526947 13.273239,14.7508 C12.8198244,14.7703789 12.3588,14.7811158 11.8933366,14.7811158 C11.4392878,14.7811158 10.9934829,14.7722737 10.555922,14.7552211 C11.0061659,15.3470105 11.4684585,15.8964842 11.9307512,16.3941684 Z M8.5792878,13.6348 C8.33133659,13.2514316 8.09162927,12.8617474 7.86143415,12.4663789 C7.6363122,12.0785895 7.42070244,11.6857474 7.21397073,11.2878526 C6.92353171,11.9743789 6.6743122,12.6489053 6.4732878,13.2981684 C7.1245561,13.4396421 7.83099512,13.5514316 8.5792878,13.6348 Z M7.85826341,7.82427368 C8.08211707,7.43648421 8.31548293,7.05374737 8.55836098,6.67795789 C7.83416585,6.76764211 7.13850732,6.88637895 6.48660488,7.03164211 C6.68509268,7.66953684 6.92860488,8.32953684 7.21270244,9.00090526 C7.41816585,8.60364211 7.63377561,8.21143158 7.85826341,7.82427368 Z M11.9041171,3.91732632 C11.4468976,4.40932632 10.9915805,4.95058947 10.547678,5.53416842 C11.4475317,5.49248421 12.3492878,5.49248421 13.2491415,5.5348 C12.805239,4.94553684 12.3537268,4.40364211 11.9041171,3.91732632 Z M15.9239707,7.81732632 C16.1516293,8.20764211 16.3704098,8.60237895 16.5815805,9.00216842 C16.8713854,8.32827368 17.1161659,7.6708 17.3133854,7.04237895 C16.657678,6.89269474 15.9588488,6.7708 15.2295805,6.67922105 C15.4692878,7.05374737 15.7007512,7.43332632 15.9239707,7.81732632 Z M6.06553171,5.39269474 C6.11245854,5.62827368 6.16445854,5.86195789 6.2228,6.09437895 C7.16894634,5.88090526 8.19816585,5.72174737 9.27240976,5.62258947 C9.89894634,4.74090526 10.555922,3.93311579 11.219239,3.22258947 C11.1050927,3.11332632 10.9903122,3.00785263 10.8761659,2.90743158 C9.09484878,1.33164211 7.40421463,0.703221053 6.63943415,1.14406316 C5.92158049,1.55774737 5.63621463,3.2068 6.06553171,5.39269474 Z M4.96021463,12.8851158 C5.1472878,12.9482737 5.33499512,13.0070105 5.52460488,13.0606947 C5.81314146,12.1240632 6.19426341,11.1394316 6.65211707,10.1453263 C6.19933659,9.16574737 5.82519024,8.19690526 5.5385561,7.27037895 C5.27348293,7.34490526 5.01158049,7.42701053 4.75158049,7.51732632 C2.68236098,8.23543158 1.44133659,9.29269474 1.44133659,10.1219579 C1.44133659,10.5110105 1.72860488,10.9916421 2.29489756,11.4748 C2.92587317,12.0129053 3.84601951,12.5055368 4.96021463,12.8851158 Z M8.25777561,19.0884842 C9.0403122,18.8124842 9.92875122,18.2655368 10.815922,17.4937474 C10.9643122,17.3642737 11.1095317,17.2310105 11.2509463,17.0939579 C10.5838244,16.3809053 9.92177561,15.5661684 9.28889756,14.6800632 C8.18167805,14.5903789 7.14611707,14.4425895 6.20948293,14.2354316 C6.14670244,14.4861684 6.09089756,14.7381684 6.04206829,14.9920632 C5.63367805,17.1356421 5.93299512,18.7341684 6.65401951,19.1484842 C6.99265366,19.3430105 7.55323902,19.3360632 8.25777561,19.0884842 Z M17.749678,14.7425895 L17.749678,14.7432211 C17.7148,14.5632211 17.6729463,14.3800632 17.6266537,14.1924842 C16.6798732,14.4103789 15.6354341,14.5701684 14.5307512,14.6674316 C13.9029463,15.5737474 13.2592878,16.3891158 12.6156293,17.0901684 C12.8071415,17.2745895 12.9992878,17.4489053 13.1901659,17.6118526 C14.8509951,19.0360632 16.3913366,19.5754316 17.1110927,19.1598526 C17.450361,18.9653263 17.723678,18.4777474 17.8600195,17.7470105 C18.0109463,16.9341684 17.979239,15.8933263 17.749678,14.7425895 Z M18.6888488,12.8908 C20.9508488,12.1442737 22.3440683,11.0011158 22.3440683,10.1219579 C22.3440683,9.29522105 21.0542146,8.22343158 18.9393366,7.49837895 C18.7211902,7.42322105 18.4935317,7.35248421 18.2601659,7.28490526 C17.979239,8.19058947 17.6038244,9.14869474 17.147239,10.1263789 C17.6253854,11.1280632 18.0153854,12.0981684 18.3045561,13.0101684 C18.4351902,12.9710105 18.5632878,12.9318526 18.6888488,12.8908 Z M11.8933366,8.08890526 C13.0202146,8.08890526 13.9340195,8.99901053 13.9340195,10.1219579 C13.9340195,11.2442737 13.0202146,12.1543789 11.8933366,12.1543789 C10.7664585,12.1543789 9.85201951,11.2442737 9.85201951,10.1219579 C9.85201951,8.99901053 10.7664585,8.08890526 11.8933366,8.08890526 Z"></path>
                    </g>
                </g>
            </g>
        </g>
    </g>
</svg>