<?xml version="1.0" encoding="utf-8"?>
<!-- Generator: Adobe Illustrator 22.0.1, SVG Export Plug-In . SVG Version: 6.00 Build 0)  -->
<svg version="1.1" id="Layer_1" xmlns="http://www.w3.org/2000/svg" xmlns:xlink="http://www.w3.org/1999/xlink" x="0px" y="0px"
	 width="300px" height="124.5px" viewBox="0 0 300 124.5" style="enable-background:new 0 0 300 124.5;" xml:space="preserve">
<style type="text/css">
	.st0{fill:#ECEFEF;}
	.st1{fill:#989FA1;}
	.st2{fill:#FFFFFF;}
	.st3{fill:#EEE679;}
</style>
<g id="Layer_1_1_">
	<g>
		<g>
			<polygon class="st0" points="77.2,45.6 77.2,64.1 74.7,62.6 72.2,67 69.9,65.6 66.9,70.4 66.9,52 18.1,34.7 28.9,28.4 			"/>
			<path class="st1" d="M77.5,46c-0.1,0-0.1,0-0.2,0c0,0-0.1,0-0.1,0l-0.2-0.1l0,17.5l0,0l-2-1.1c0,0,0,0-0.1,0
				c-0.2,0-0.3,0-0.4,0.2l-2.3,4l0,0l-2-1.2c-0.2-0.1-0.4,0-0.5,0.1l-2.3,3.7v0l0,0V52c0,0.1-0.1,0.3-0.2,0.3l-0.2,0.1l-0.4,0.2
				v-0.4L66,52.1h0L51.6,61l0.2,0.1c0.2,0,0.2,0.2,0.2,0.4v0.2l14.3-8.8l0.2-0.2v17.7c0,0,0,0.1,0,0.1c0,0.1,0.1,0.1,0.1,0.2
				c0,0,0.1,0,0.1,0c0,0,0.1,0,0.1,0c0.1,0,0.2-0.1,0.3-0.2l2.8-4.5l2,1.2c0.1,0,0.2,0.1,0.3,0c0,0,0.1,0,0.1-0.1
				c0,0,0.1-0.1,0.1-0.1l2.3-4l2.2,1.2c0.1,0.1,0.2,0.1,0.4,0c0,0,0.1,0,0.1-0.1c0.1-0.1,0.1-0.2,0.1-0.3l0-18.2L77.5,46z
				 M91.6,50.5V37.1c0-0.1-0.1-0.2-0.2-0.3c0,0,0,0,0,0c0,0-0.1,0-0.1,0c-0.1,0-0.2,0-0.2,0.1l-13.8,8.5l-0.1,0.1
				c-0.1,0-0.1,0.1-0.2,0.2c0,0,0,0.1,0,0.1v0.3l0,17.5l0,0l-2-1.1c0,0,0,0-0.1,0c-0.2,0-0.3,0-0.4,0.2l-2.3,4l0,0l-2-1.2
				c-0.2-0.1-0.4,0-0.5,0.1l-2.3,3.7V52c0,0,0-0.1,0-0.1c0,0,0-0.1,0-0.1c0,0,0-0.1-0.1-0.1c0,0,0,0,0,0c0,0,0,0,0,0
				c0,0-0.1,0-0.1,0l-0.1,0c-0.1,0-0.2,0-0.2,0.1l-0.3,0.2L66,52.1h0L51.6,61l0,0l-0.1,0.1c-0.1,0.1-0.2,0.2-0.2,0.3v46.1
				c0,0.1,0.1,0.3,0.2,0.3c0,0,0,0,0.1,0c0,0,0.1,0,0.1,0c0.1,0,0.1,0,0.1,0c0,0,0,0,0.1,0l39.6-24.3c0.1-0.1,0.2-0.2,0.2-0.3V71.8
				h-0.8v11.1L52,106.8V61.6l14.3-8.8l0.2-0.2v17.7c0,0,0,0.1,0,0.1c0,0.1,0.1,0.1,0.1,0.2c0,0,0.1,0,0.1,0c0,0,0.1,0,0.1,0
				c0.1,0,0.2-0.1,0.3-0.2l2.8-4.5l2,1.2c0.1,0,0.2,0.1,0.3,0c0,0,0.1,0,0.1-0.1c0,0,0.1-0.1,0.1-0.1l2.3-4l2.2,1.2
				c0.1,0.1,0.2,0.1,0.4,0c0,0,0.1,0,0.1-0.1c0.1-0.1,0.1-0.2,0.1-0.3l0-18.2l13.2-8.1v12.7H91.6z"/>
			<path class="st1" d="M51.7,61L51.6,61L3,44l-0.5-0.2l-0.3-0.1c-0.1,0-0.2,0-0.3,0c0,0,0,0-0.1,0.1c0,0,0,0.1-0.1,0.1
				c0,0.1-0.1,0.1,0,0.2v46c0,0.2,0.1,0.3,0.2,0.3l49.5,17.4c0,0,0.1,0,0.1,0c0.1,0,0.1,0,0.2-0.1c0.1-0.1,0.2-0.2,0.2-0.3V61.4
				C52,61.2,51.9,61.1,51.7,61z M2.5,44.6l48.7,17.1V107L2.5,89.9V44.6z"/>
			<path class="st1" d="M74.4,62.5l-2.3,4l0,0L74.4,62.5c0.1-0.1,0.3-0.2,0.4-0.2C74.7,62.2,74.5,62.3,74.4,62.5z M69.6,65.4
				L67.3,69v0L69.6,65.4c0.1-0.2,0.3-0.2,0.5-0.1C69.9,65.2,69.7,65.2,69.6,65.4z M67.2,51.9C67.3,51.9,67.3,51.9,67.2,51.9
				C67.3,51.9,67.3,51.9,67.2,51.9C67.3,51.9,67.3,51.9,67.2,51.9z M67.2,51.8C67.2,51.8,67.2,51.8,67.2,51.8
				C67.2,51.8,67.2,51.8,67.2,51.8C67.2,51.8,67.2,51.8,67.2,51.8z M67.1,51.7C67.2,51.7,67.2,51.7,67.1,51.7
				C67.2,51.7,67.2,51.7,67.1,51.7C67.1,51.7,67.1,51.7,67.1,51.7z M67,51.6L67,51.6c0.1,0,0.1,0.1,0.2,0.1
				C67.1,51.7,67.1,51.7,67,51.6L67,51.6z M77.4,45.3l-0.2-0.1h0L29.8,28.3L29,28c-0.1,0-0.2,0-0.3,0l-10.8,6.3c0,0,0,0,0,0
				c-0.1,0.1-0.2,0.2-0.1,0.3c0,0.1,0.1,0.3,0.2,0.3l0.2,0.1L66,52.1h0l0.5,0.2v18.1c0,0,0,0.1,0,0.1c0,0.1,0.1,0.1,0.1,0.2
				c0,0,0.1,0,0.1,0l0,0c0,0,0.1,0,0.1,0c0.1,0,0.2-0.1,0.3-0.2l2.8-4.5v0l2,1.2c0.1,0,0.2,0.1,0.3,0c0,0,0.1,0,0.1-0.1
				c0,0,0.1-0.1,0.1-0.1l2.3-4v0l2.2,1.2c0.1,0.1,0.2,0.1,0.4,0c0,0,0.1,0,0.1-0.1c0.1-0.1,0.1-0.2,0.1-0.3l0-18.2v-0.2
				C77.6,45.5,77.5,45.3,77.4,45.3z M74.4,62.5l-2.3,4l-2-1.2c-0.2-0.1-0.4-0.1-0.5,0.1L67.3,69l0,0V52c0,0,0,0,0,0c0,0,0,0,0,0
				c0,0,0,0,0,0c0,0,0-0.1,0-0.1c0,0,0,0,0,0c0,0,0-0.1-0.1-0.1c0,0,0,0,0,0c0,0,0,0,0,0c0,0-0.1,0-0.1,0l-0.1,0l-48-17l10-5.8
				l47.9,17.1l0,17.5l-2-1.1c0,0,0,0-0.1,0C74.7,62.2,74.5,62.3,74.4,62.5z"/>
			<path class="st1" d="M67.3,51.9C67.3,51.9,67.3,51.9,67.3,51.9c0-0.1-0.1-0.1-0.1-0.1c0,0,0-0.1-0.1-0.1c0,0,0,0,0,0
				c0,0-0.1,0-0.1,0l-0.1,0L18.5,34.5l-0.3-0.1c-0.1,0-0.2,0-0.3,0l0,0L1.9,43.7c0,0,0,0-0.1,0.1c0,0,0,0.1-0.1,0.1
				c0,0.1-0.1,0.1,0,0.2c0,0.1,0.1,0.3,0.2,0.3l0.5,0.2v0l48.7,17.1l0.2,0.1c0,0,0.1,0,0.1,0c0.1,0,0.1,0,0.2-0.1l0.2-0.1v0
				l14.3-8.8l0.2-0.2l0,0l0.4-0.2l0.2-0.1C67.2,52.2,67.3,52.1,67.3,51.9L67.3,51.9C67.3,52,67.3,51.9,67.3,51.9z M51.6,61L51.6,61
				L3,44l0,0l15.1-8.8L66,52.1L51.6,61z"/>
			<path class="st1" d="M91.4,36.8c0,0-0.1,0-0.1-0.1l-0.1,0l-47.9-17c-0.1,0-0.2,0-0.3,0l-14.3,8.4c-0.1,0.1-0.2,0.2-0.2,0.4
				c0,0,0,0.1,0.1,0.2c0,0.1,0.1,0.1,0.2,0.2l0.2,0.1l47.9,17.1l0,0l0.2,0.1c0,0,0.1,0,0.1,0c0.1,0,0.1,0,0.2,0l0.2-0.1l13.2-8.1
				l0.6-0.3c0.1-0.1,0.2-0.2,0.2-0.4C91.5,36.9,91.5,36.8,91.4,36.8z M43.3,20.5l47,16.7l-13.1,8h0L29.8,28.3L43.3,20.5z"/>
			<g>
				<path class="st1" d="M13,79.2l-1.9-0.6v4.5l0.8,0.2v-1.7L13,82c0.9,0.3,1.4-0.2,1.4-0.9C14.4,80.3,13.9,79.5,13,79.2z
					 M12.9,81.3l-1-0.4v-1.4l1,0.4c0.4,0.1,0.7,0.5,0.7,1C13.7,81.2,13.3,81.4,12.9,81.3z"/>
				<path class="st1" d="M17.7,83.5c0.5,0.1,1-0.2,1-1c0-0.8-0.6-1.6-1.4-1.9l-1.9-0.6v4.5l0.8,0.3V83l0.8,0.3l1,2l0.9,0.3
					L17.7,83.5z M17.2,82.7l-1-0.4v-1.4l1,0.4c0.4,0.1,0.7,0.5,0.7,1C17.9,82.7,17.6,82.9,17.2,82.7z"/>
				<path class="st1" d="M21.8,82.1c-1.3-0.4-2.2,0.2-2.2,1.6c0,1.4,0.9,2.7,2.2,3.1c1.3,0.4,2.2-0.2,2.2-1.6
					C24,83.8,23,82.5,21.8,82.1z M21.8,86c-0.9-0.3-1.4-1.2-1.4-2.1c0-0.9,0.6-1.5,1.4-1.2c0.9,0.3,1.4,1.2,1.4,2.1
					C23.2,85.8,22.6,86.3,21.8,86z"/>
				<path class="st1" d="M26.6,83.8L25,83.2v4.5l1.6,0.5c1.3,0.5,2.2-0.2,2.2-1.5C28.9,85.5,28,84.2,26.6,83.8z M26.6,87.6l-0.8-0.3
					v-3.1l0.8,0.3c1,0.3,1.5,1.2,1.5,2.1S27.5,87.9,26.6,87.6z"/>
				<path class="st1" d="M29.9,87.6v-2.7l0.8,0.3v2.7c0,0.7,0.4,1.3,1.1,1.6c0.7,0.2,1.1-0.1,1.1-0.8v-2.7l0.8,0.3v2.7
					c0,1.1-0.6,1.7-1.9,1.2C30.5,89.7,29.9,88.8,29.9,87.6z"/>
				<path class="st1" d="M34.7,88.8c0-1.4,1-2,2.3-1.6c0.9,0.3,1.4,0.9,1.7,1.6L38,88.9c-0.2-0.4-0.6-0.9-1.1-1
					c-0.8-0.3-1.5,0.2-1.5,1.1c0,0.9,0.6,1.8,1.5,2.1c0.5,0.2,0.9,0,1.1-0.3l0.6,0.6c-0.3,0.4-0.9,0.7-1.7,0.4
					C35.7,91.5,34.7,90.2,34.7,88.8z"/>
				<path class="st1" d="M40.6,93.1v-3.8l-1.3-0.4v-0.7l3.4,1.1v0.7l-1.3-0.4v3.8L40.6,93.1z"/>
			</g>
		</g>
		<g>
			<g>
				<g>
					<g>
						<rect x="114.4" y="9.8" class="st0" width="183.4" height="113.4"/>
						<path class="st1" d="M298.2,123.6H114.1V9.4h184.2L298.2,123.6L298.2,123.6z M114.8,122.9h182.7V10.2H114.8V122.9z"/>
					</g>
				</g>
				<g>
					<path class="st2" d="M297.9,9.8H114.4V3.7c0-1.4,1.1-2.5,2.5-2.5h178.5c1.4,0,2.5,1.1,2.5,2.5L297.9,9.8L297.9,9.8z"/>
					<path class="st1" d="M298.2,10.2H114.1V3.7c0-1.6,1.3-2.8,2.8-2.8h178.5c1.6,0,2.8,1.3,2.8,2.8V10.2z M114.8,9.4h182.7V3.7
						c0-1.2-0.9-2.1-2.1-2.1H116.9c-1.2,0-2.1,0.9-2.1,2.1C114.8,3.7,114.8,9.4,114.8,9.4z"/>
				</g>
				<path class="st1" d="M292.1,6.9c-0.8,0-1.4-0.6-1.4-1.4s0.6-1.4,1.4-1.4s1.4,0.6,1.4,1.4S292.9,6.9,292.1,6.9z M292.1,4.9
					c-0.3,0-0.6,0.3-0.6,0.6s0.3,0.6,0.6,0.6s0.6-0.3,0.6-0.6S292.4,4.9,292.1,4.9z"/>
				<path class="st1" d="M287.6,6.9c-0.8,0-1.4-0.6-1.4-1.4s0.6-1.4,1.4-1.4s1.4,0.6,1.4,1.4S288.4,6.9,287.6,6.9z M287.6,4.9
					c-0.3,0-0.6,0.3-0.6,0.6s0.3,0.6,0.6,0.6s0.6-0.3,0.6-0.6S287.9,4.9,287.6,4.9z"/>
				<path class="st1" d="M283.1,6.9c-0.8,0-1.4-0.6-1.4-1.4s0.6-1.4,1.4-1.4s1.4,0.6,1.4,1.4S283.8,6.9,283.1,6.9z M283.1,4.9
					c-0.3,0-0.6,0.3-0.6,0.6s0.3,0.6,0.6,0.6s0.6-0.3,0.6-0.6S283.4,4.9,283.1,4.9z"/>
				<g>
					<path class="st2" d="M285.9,123.2H126.4V36.8c0-0.7,0.6-1.2,1.2-1.2h157c0.7,0,1.2,0.5,1.2,1.2V123.2z"/>
					<path class="st1" d="M286.3,123.6H126V36.8c0-0.9,0.7-1.6,1.6-1.6h157c0.9,0,1.6,0.7,1.6,1.6V123.6z M126.8,122.9h158.7V36.8
						c0-0.5-0.4-0.8-0.9-0.8h-157c-0.5,0-0.8,0.4-0.8,0.8V122.9z"/>
				</g>
				<g>
					<path class="st2" d="M151.5,28.2h-24c-0.7,0-1.3-0.6-1.3-1.3v-6.6c0-0.7,0.6-1.3,1.3-1.3h24c0.7,0,1.3,0.6,1.3,1.3v6.6
						C152.8,27.6,152.2,28.2,151.5,28.2z"/>
					<path class="st1" d="M151.5,28.6h-24c-0.9,0-1.7-0.7-1.7-1.7v-6.6c0-0.9,0.7-1.7,1.7-1.7h24c0.9,0,1.7,0.7,1.7,1.7v6.6
						C153.1,27.8,152.4,28.6,151.5,28.6z M127.5,19.4c-0.5,0-0.9,0.4-0.9,0.9v6.6c0,0.5,0.4,0.9,0.9,0.9h24c0.5,0,0.9-0.4,0.9-0.9
						v-6.6c0-0.5-0.4-0.9-0.9-0.9H127.5z"/>
				</g>
				<rect x="208.7" y="24.5" class="st1" width="16.2" height="0.8"/>
				<rect x="228.8" y="24.5" class="st1" width="16.2" height="0.8"/>
				<rect x="249" y="24.5" class="st1" width="16.2" height="0.8"/>
				<rect x="269.1" y="24.5" class="st1" width="16.2" height="0.8"/>
				<path class="st3" d="M229.9,62.9l-20.5-11.8c-1.8-1-4.7-1-6.5,0l-20.5,11.8c-1.8,1-3.2,3.6-3.2,5.6v23.6c0,2.1,1.5,4.6,3.2,5.6
					l20.5,11.8c1.8,1,4.7,1,6.5,0l20.5-11.8c1.8-1,3.2-3.6,3.2-5.6V68.5C233.1,66.4,231.6,63.9,229.9,62.9z M224.3,75.6h-2.1V72
					c0-2.8-2.1-3.6-6.2-3.6h-0.2c-9.8,0-8.9-3.7-9.2-5h-0.1c-0.3,1.3,0.7,5-9.2,5H197c-4.1,0-6.2,0.8-6.2,3.6v2.8l33.5,9.7V85h0v3.5
					c0,4-1.9,6.2-8.3,6.2h-0.3c-5,0-8.1,1.1-8.1,5h-2.1c0-4-3.1-5-8.1-5H197c-6.4,0-8.3-2.2-8.3-6.2V85h2.1v3.6
					c0,2.8,2.1,3.6,6.2,3.6h0.2c9.8,0,8.9,3.7,9.2,5h0.1c0.3-1.3-0.7-5,9.2-5h0.3c4.1,0,6.2-0.8,6.2-3.6v-2.1l-33.6-9.7v-1.2l0,0
					v-3.5c0-4,1.9-6.2,8.3-6.2h0.3c5,0,8.1-1.1,8.1-5h2.1c0,4,3.1,5,8.1,5h0.3c6.4,0,8.3,2.2,8.3,6.2V75.6z"/>
			</g>
			<rect x="114" y="47.2" class="st0" width="1.2" height="27.9"/>
			<rect x="126.1" y="47.2" class="st2" width="4.4" height="27.9"/>
			<rect x="125.3" y="47.2" class="st0" width="1.6" height="27.9"/>
			<g>
				<rect x="87.9" y="60.7" class="st1" width="56.3" height="0.8"/>
				<polygon class="st1" points="140.1,65.9 139.6,65.3 143.9,61.1 139.7,56.9 140.2,56.3 144.9,61.1 				"/>
			</g>
		</g>
	</g>
</g>
<g id="Layer_2_1_">
</g>
<g id="Layer_3">
</g>
<g id="Layer_4">
</g>
<g id="Layer_5">
</g>
<g id="Layer_6">
</g>
</svg>
