<?xml version="1.0" encoding="utf-8"?>
<!-- Generator: Adobe Illustrator 22.0.1, SVG Export Plug-In . SVG Version: 6.00 Build 0)  -->
<svg version="1.1" xmlns="http://www.w3.org/2000/svg" xmlns:xlink="http://www.w3.org/1999/xlink" x="0px" y="0px" width="300px"
	 height="124.17px" viewBox="0 0 300 124.17" enable-background="new 0 0 300 124.17" xml:space="preserve">
<g id="Layer_1">
	<g>
		<g>
			<g>
				<g>
					<rect x="21.98" y="8.67" fill="#ECEFEF" width="162.46" height="100.46"/>
					<path fill="#989FA1" d="M184.82,109.51H21.6V8.29h163.21V109.51z M22.35,108.76h161.71V9.04H22.35V108.76z"/>
				</g>
			</g>
			<g>
				<path fill="#FFFFFF" d="M184.45,8.67H21.97v-5.4c0-1.2,0.98-2.18,2.18-2.18h158.11c1.2,0,2.18,0.98,2.18,2.18V8.67z"/>
				<path fill="#989FA1" d="M184.82,9.04H21.6V3.26c0-1.41,1.15-2.55,2.55-2.55h158.11c1.41,0,2.55,1.15,2.55,2.55V9.04z
					 M22.35,8.29h161.72V3.26c0-1-0.81-1.8-1.8-1.8H24.15c-1,0-1.8,0.81-1.8,1.8V8.29z"/>
			</g>
			<path fill="#989FA1" d="M179.33,6.13c-0.69,0-1.25-0.56-1.25-1.26s0.56-1.25,1.25-1.25s1.26,0.56,1.26,1.25
				S180.02,6.13,179.33,6.13z M179.33,4.37c-0.28,0-0.5,0.23-0.5,0.5c0,0.28,0.23,0.51,0.5,0.51c0.28,0,0.51-0.23,0.51-0.51
				C179.83,4.6,179.61,4.37,179.33,4.37z"/>
			<path fill="#989FA1" d="M175.34,6.13c-0.69,0-1.25-0.56-1.25-1.26s0.56-1.25,1.25-1.25s1.26,0.56,1.26,1.25
				S176.03,6.13,175.34,6.13z M175.34,4.37c-0.28,0-0.5,0.23-0.5,0.5c0,0.28,0.23,0.51,0.5,0.51c0.28,0,0.51-0.23,0.51-0.51
				C175.84,4.6,175.61,4.37,175.34,4.37z"/>
			<path fill="#989FA1" d="M171.35,6.13c-0.69,0-1.26-0.56-1.26-1.26s0.56-1.25,1.26-1.25s1.25,0.56,1.25,1.25
				S172.04,6.13,171.35,6.13z M171.35,4.37c-0.28,0-0.51,0.23-0.51,0.5c0,0.28,0.23,0.51,0.51,0.51c0.28,0,0.5-0.23,0.5-0.51
				C171.85,4.6,171.62,4.37,171.35,4.37z"/>
		</g>
		<g>
			<g>
				<path fill="#FFFFFF" d="M199.36,123.08L39.1,123.08l0-98.88c0-1.64,1.33-2.97,2.97-2.97l154.32-0.01c1.64,0,2.97,1.33,2.97,2.97
					L199.36,123.08z"/>
				<path fill="#989FA1" d="M38.73,123.46l0-99.25c0-1.85,1.5-3.35,3.35-3.35l154.32-0.01c1.85,0,3.35,1.5,3.35,3.35l0,99.25
					L38.73,123.46z M196.39,21.6L42.07,21.61c-1.43,0-2.6,1.17-2.6,2.6l0,98.5l159.51-0.01l0-98.5
					C198.99,22.77,197.82,21.6,196.39,21.6z"/>
			</g>
			<path fill="#ECEFEF" d="M190.55,63.25h-33.34V51.52h33.34V63.25z M157.96,62.5h31.84V52.27h-31.84V62.5z"/>
			<rect x="156.73" y="105.1" fill="#EEE679" width="33.52" height="8.87"/>
			<rect x="58.56" y="76.55" fill="#989FA1" width="48.38" height="0.75"/>
			<rect x="171.25" y="76.92" fill="#989FA1" width="19" height="0.75"/>
			<rect x="164.52" y="56.93" fill="#ECEFEF" width="18.72" height="0.75"/>
			<path fill="#ECEFEF" d="M154.1,63.32h-33.34V51.59h33.34V63.32z M121.51,62.57h31.84V52.34h-31.84V62.57z"/>
			<rect x="128.07" y="57.05" fill="#ECEFEF" width="18.72" height="0.75"/>
			<path fill="#ECEFEF" d="M117.65,63.39H84.31V51.66h33.34V63.39z M85.06,62.64h31.84V52.41H85.06V62.64z"/>
			<rect x="91.62" y="57.18" fill="#ECEFEF" width="18.72" height="0.75"/>
			<path fill="#989FA1" d="M81.2,63.46H47.86V51.73H81.2V63.46z M48.61,62.71h31.84V52.48H48.61V62.71z"/>
			<rect x="55.17" y="57.3" fill="#989FA1" width="18.72" height="0.75"/>
			<rect x="58.56" y="86.32" fill="#989FA1" width="35.44" height="0.75"/>
			<rect x="171.25" y="86.32" fill="#989FA1" width="19" height="0.75"/>
			<rect x="58.56" y="95.23" fill="#989FA1" width="41.91" height="0.75"/>
			<rect x="171.25" y="95.23" fill="#989FA1" width="19" height="0.75"/>
			<polygon fill="#989FA1" points="50.42,78.1 48.32,76 48.85,75.47 50.95,77.57 			"/>
			<polygon fill="#989FA1" points="48.85,78.1 48.32,77.57 50.42,75.47 50.95,76 			"/>
			<polygon fill="#989FA1" points="50.42,87.87 48.32,85.77 48.85,85.24 50.95,87.34 			"/>
			<polygon fill="#989FA1" points="48.85,87.87 48.32,87.34 50.42,85.24 50.95,85.77 			"/>
			
				<rect x="49.26" y="94.1" transform="matrix(0.7071 -0.7071 0.7071 0.7071 -53.0525 63.0948)" fill="#989FA1" width="0.75" height="2.97"/>
			
				<rect x="48.15" y="95.21" transform="matrix(0.7071 -0.7071 0.7071 0.7071 -53.0525 63.0948)" fill="#989FA1" width="2.97" height="0.75"/>
			<g>
				<path fill="#989FA1" d="M53.91,39.19v-5.34l-2.11,5.34h-0.52l-2.12-5.34v5.34h-1.21v-6.91h1.71l1.89,4.75l1.88-4.75h1.71v6.91
					H53.91z"/>
				<path fill="#989FA1" d="M59.09,39.19v-2.87l-2.68-4.04h1.39l1.9,2.95l1.9-2.95h1.39l-2.67,4.04v2.87H59.09z"/>
				<path fill="#989FA1" d="M67.13,35.74c0-2.13,1.58-3.57,3.63-3.57c1.39,0,2.26,0.71,2.77,1.54l-1.03,0.54c-0.33-0.58-1-1-1.74-1
					c-1.37,0-2.38,1.04-2.38,2.5c0,1.44,1.01,2.5,2.38,2.5c0.74,0,1.41-0.44,1.74-1l1.04,0.52c-0.53,0.83-1.39,1.56-2.78,1.56
					C68.72,39.32,67.13,37.87,67.13,35.74z"/>
				<path fill="#989FA1" d="M79.82,39.19l-0.51-1.34h-3.17l-0.51,1.34h-1.38l2.71-6.91h1.51l2.71,6.91H79.82z M77.73,33.49
					l-1.24,3.29h2.49L77.73,33.49z"/>
				<path fill="#989FA1" d="M86.42,39.19l-1.52-2.58h-1.21v2.58h-1.21v-6.91h3.04c1.37,0,2.27,0.88,2.27,2.17
					c0,1.22-0.81,1.9-1.65,2.03l1.7,2.71H86.42z M86.53,34.44c0-0.66-0.5-1.09-1.18-1.09h-1.67v2.2h1.67
					C86.03,35.54,86.53,35.11,86.53,34.44z"/>
				<path fill="#989FA1" d="M91.05,39.19v-5.84h-2.09v-1.07h5.4v1.07h-2.09v5.84H91.05z"/>
			</g>
		</g>
		<polygon fill="#EEE679" points="278.03,86.9 191.99,86.9 184.04,94.52 184.04,61.24 278.03,61.24 		"/>
		<g>
			<g>
				<path fill="#FFFFFF" d="M192.13,74.71c0-2.06,1.46-3.57,3.53-3.57c2.06,0,3.53,1.51,3.53,3.57s-1.47,3.57-3.53,3.57
					C193.59,78.29,192.13,76.77,192.13,74.71z M197.95,74.71c0-1.43-0.9-2.5-2.29-2.5c-1.4,0-2.29,1.07-2.29,2.5
					c0,1.42,0.89,2.5,2.29,2.5C197.05,77.21,197.95,76.13,197.95,74.71z"/>
				<path fill="#FFFFFF" d="M200.88,75.43v-4.17h1.23v4.14c0,1.1,0.61,1.81,1.76,1.81c1.15,0,1.76-0.71,1.76-1.81v-4.14h1.23v4.17
					c0,1.71-0.98,2.86-2.99,2.86C201.87,78.29,200.88,77.14,200.88,75.43z"/>
				<path fill="#FFFFFF" d="M210.51,78.16v-5.84h-2.09v-1.07h5.4v1.07h-2.09v5.84H210.51z"/>
				<path fill="#FFFFFF" d="M218.25,74.71c0-2.06,1.46-3.57,3.53-3.57c2.06,0,3.53,1.51,3.53,3.57s-1.47,3.57-3.53,3.57
					C219.72,78.29,218.25,76.77,218.25,74.71z M224.08,74.71c0-1.43-0.9-2.5-2.29-2.5c-1.4,0-2.29,1.07-2.29,2.5
					c0,1.42,0.89,2.5,2.29,2.5C223.18,77.21,224.08,76.13,224.08,74.71z"/>
				<path fill="#FFFFFF" d="M227,78.16v-6.91h4.74v1.07h-3.52v1.78h3.45v1.07h-3.45v2.99H227z"/>
				<path fill="#FFFFFF" d="M236.11,77.19l0.68-0.94c0.47,0.51,1.22,0.96,2.19,0.96c0.99,0,1.38-0.49,1.38-0.95
					c0-1.45-4.02-0.55-4.02-3.09c0-1.15,1-2.03,2.52-2.03c1.07,0,1.95,0.35,2.58,0.97l-0.68,0.9c-0.55-0.55-1.29-0.8-2.01-0.8
					c-0.71,0-1.16,0.35-1.16,0.86c0,1.29,4.02,0.5,4.02,3.07c0,1.15-0.82,2.14-2.67,2.14C237.65,78.29,236.73,77.83,236.11,77.19z"
					/>
				<path fill="#FFFFFF" d="M244.77,78.16v-5.84h-2.09v-1.07h5.4v1.07h-2.09v5.84H244.77z"/>
				<path fill="#FFFFFF" d="M249.07,74.71c0-2.06,1.46-3.57,3.53-3.57c2.06,0,3.53,1.51,3.53,3.57s-1.47,3.57-3.53,3.57
					C250.53,78.29,249.07,76.77,249.07,74.71z M254.89,74.71c0-1.43-0.9-2.5-2.29-2.5c-1.4,0-2.29,1.07-2.29,2.5
					c0,1.42,0.89,2.5,2.29,2.5C253.99,77.21,254.89,76.13,254.89,74.71z"/>
				<path fill="#FFFFFF" d="M257.52,74.71c0-2.13,1.58-3.57,3.63-3.57c1.39,0,2.26,0.71,2.77,1.54l-1.03,0.54c-0.33-0.58-1-1-1.74-1
					c-1.37,0-2.38,1.04-2.38,2.5c0,1.44,1.01,2.5,2.38,2.5c0.74,0,1.41-0.44,1.74-1l1.04,0.52c-0.53,0.83-1.39,1.56-2.78,1.56
					C259.1,78.29,257.52,76.83,257.52,74.71z"/>
				<path fill="#FFFFFF" d="M269.54,78.16l-2.31-2.92l-0.61,0.71v2.21h-1.21v-6.91h1.21v3.28l2.7-3.28h1.5l-2.81,3.25l3.03,3.66
					H269.54z"/>
			</g>
		</g>
	</g>
</g>
<g id="Layer_2">
</g>
<g id="Layer_3">
</g>
<g id="Layer_4">
</g>
<g id="Layer_5">
</g>
<g id="Layer_6">
</g>
</svg>
