<svg xmlns="http://www.w3.org/2000/svg" viewBox="0 0 184.26 122.75"><defs><style>.cls-1{fill:#ecefef;}.cls-2{fill:#989fa1;}.cls-3{fill:#fff;}.cls-4{fill:#eee679;}</style></defs><title>Javascript E-commerce-02</title><g id="Layer_2" data-name="Layer 2"><g id="Layer_6" data-name="Layer 6"><rect class="cls-1" x="0.38" y="8.94" width="183.44" height="113.44"/><path class="cls-2" d="M184.2,122.75H0V8.56H184.2ZM.75,122h182.7V9.31H.75Z"/><path class="cls-3" d="M2.84.38H181.36a2.46,2.46,0,0,1,2.46,2.46v6.1a0,0,0,0,1,0,0H.37a0,0,0,0,1,0,0V2.84A2.46,2.46,0,0,1,2.84.38Z"/><path class="cls-2" d="M184.2,9.31H0V2.84A2.84,2.84,0,0,1,2.83,0H181.37a2.84,2.84,0,0,1,2.83,2.84ZM.75,8.56h182.7V2.84A2.09,2.09,0,0,0,181.37.75H2.83A2.09,2.09,0,0,0,.75,2.84Z"/><path class="cls-2" d="M178.05,6a1.37,1.37,0,1,1,1.37-1.37A1.37,1.37,0,0,1,178.05,6Zm0-2a.62.62,0,1,0,.62.62A.62.62,0,0,0,178.05,4Z"/><path class="cls-2" d="M173.54,6a1.37,1.37,0,1,1,1.37-1.37A1.38,1.38,0,0,1,173.54,6Zm0-2a.62.62,0,1,0,.62.62A.62.62,0,0,0,173.54,4Z"/><path class="cls-2" d="M169,6a1.37,1.37,0,1,1,1.37-1.37A1.37,1.37,0,0,1,169,6Zm0-2a.62.62,0,1,0,.62.62A.61.61,0,0,0,169,4Z"/><path class="cls-3" d="M13.59,34.71h157a1.22,1.22,0,0,1,1.22,1.22v86.43a0,0,0,0,1,0,0H12.37a0,0,0,0,1,0,0V35.93A1.22,1.22,0,0,1,13.59,34.71Z"/><path class="cls-2" d="M172.21,122.74H12V35.93a1.6,1.6,0,0,1,1.6-1.6h157a1.6,1.6,0,0,1,1.6,1.6ZM12.74,122H171.46V35.93a.85.85,0,0,0-.85-.85h-157a.85.85,0,0,0-.85.85Z"/><rect class="cls-3" x="12.16" y="18.11" width="26.54" height="9.22" rx="1.28" ry="1.28"/><path class="cls-2" d="M37.42,27.71h-24a1.66,1.66,0,0,1-1.65-1.66V19.4a1.65,1.65,0,0,1,1.65-1.66h24a1.66,1.66,0,0,1,1.66,1.66v6.65A1.66,1.66,0,0,1,37.42,27.71Zm-24-9.22a.9.9,0,0,0-.9.91v6.65a.9.9,0,0,0,.9.91h24a.91.91,0,0,0,.91-.91V19.4a.91.91,0,0,0-.91-.91Z"/><rect class="cls-2" x="94.63" y="23.63" width="16.21" height="0.75"/><rect class="cls-2" x="114.77" y="23.63" width="16.21" height="0.75"/><rect class="cls-2" x="134.92" y="23.63" width="16.22" height="0.75"/><rect class="cls-2" x="155.06" y="23.63" width="11.1" height="0.75"/><path class="cls-4" d="M115.81,62,95.35,50.19a7.22,7.22,0,0,0-6.5,0L68.39,62a7.19,7.19,0,0,0-3.25,5.63V91.27a7.19,7.19,0,0,0,3.25,5.62l20.46,11.82a7.22,7.22,0,0,0,6.5,0l20.46-11.82a7.19,7.19,0,0,0,3.25-5.62V67.64A7.19,7.19,0,0,0,115.81,62Zm-5.52,12.72h-2.12v-3.6c0-2.76-2.12-3.61-6.22-3.61h-.18c-9.83,0-9-3.67-9.24-5h-.14c-.29,1.35.66,5-9.17,5H83c-4.1,0-6.22.85-6.22,3.61v2.78l33.55,9.7v.54h0v3.47c0,4-1.9,6.15-8.34,6.15h-.33c-5,0-8.1,1.06-8.1,5H91.4c0-4-3.09-5-8.11-5H83c-6.43,0-8.34-2.19-8.34-6.15V84.15h2.12v3.61c0,2.76,2.12,3.6,6.22,3.6h.19c9.83,0,8.95,3.68,9.24,5h.14c.28-1.34-.66-5,9.16-5H102c4.1,0,6.22-.84,6.22-3.6V85.68L74.63,76V74.73h0V71.27c0-4,1.91-6.15,8.34-6.15h.33c5,0,8.11-1.06,8.11-5h2.12c0,4,3.08,5,8.1,5H102c6.44,0,8.34,2.19,8.34,6.15Z"/><rect class="cls-3" x="81.31" y="8.92" width="102.58" height="113.43"/><path class="cls-2" d="M80.93,122.73V8.55H184.26V122.72ZM81.68,9.3V122H183.51V9.29Z"/><path class="cls-1" d="M170.35,56.75h-19V45h19ZM152.1,56h17.5V45.77H152.1Z"/><rect class="cls-4" x="136.46" y="98.6" width="33.52" height="8.87"/><rect class="cls-2" x="100.78" y="70.05" width="32.7" height="0.75"/><rect class="cls-2" x="157.06" y="70.43" width="13.32" height="0.75"/><rect class="cls-1" x="155.61" y="50.43" width="10.49" height="0.75"/><path class="cls-1" d="M149.93,56.82h-19V45.09h19Zm-18.26-.75h17.51V45.84H131.67Z"/><rect class="cls-1" x="135.18" y="50.56" width="10.49" height="0.75"/><path class="cls-1" d="M129.51,56.89h-19V45.17h19Zm-18.26-.75h17.51V45.92H111.25Z"/><rect class="cls-1" x="114.76" y="50.68" width="10.49" height="0.75"/><path class="cls-2" d="M109.08,57h-19V45.24h19Zm-18.26-.75h17.51V46H90.82Z"/><rect class="cls-2" x="94.33" y="50.8" width="10.49" height="0.75"/><rect class="cls-2" x="100.78" y="79.83" width="23.96" height="0.75"/><rect class="cls-2" x="157.06" y="79.83" width="13.32" height="0.75"/><rect class="cls-2" x="100.78" y="88.73" width="28.33" height="0.75"/><rect class="cls-2" x="157.06" y="88.73" width="13.32" height="0.75"/><rect class="cls-2" x="91.48" y="68.8" width="0.75" height="2.97" transform="translate(-22.8 85.54) rotate(-45)"/><rect class="cls-2" x="90.36" y="69.91" width="2.97" height="0.75" transform="translate(-22.8 85.54) rotate(-45)"/><rect class="cls-2" x="91.48" y="78.57" width="0.75" height="2.97" transform="translate(-29.71 88.4) rotate(-45)"/><rect class="cls-2" x="90.36" y="79.68" width="2.97" height="0.75" transform="translate(-29.71 88.4) rotate(-45)"/><rect class="cls-2" x="91.48" y="87.6" width="0.75" height="2.97" transform="translate(-36.09 91.04) rotate(-45)"/><rect class="cls-2" x="90.36" y="88.71" width="2.97" height="0.75" transform="translate(-36.09 91.04) rotate(-45)"/><path class="cls-2" d="M96.13,32.69V27.36L94,32.69h-.52l-2.12-5.33v5.33H90.16V25.78h1.71l1.88,4.75,1.88-4.75h1.71v6.91Z"/><path class="cls-2" d="M101.3,32.69V29.82l-2.68-4H100l1.89,2.95,1.9-2.95h1.39l-2.68,4v2.87Z"/><path class="cls-2" d="M109.35,29.24A3.48,3.48,0,0,1,113,25.67a3.1,3.1,0,0,1,2.76,1.54l-1,.54a2.06,2.06,0,0,0-1.74-1,2.5,2.5,0,0,0,0,5,2.09,2.09,0,0,0,1.74-1l1,.52A3.16,3.16,0,0,1,113,32.82,3.49,3.49,0,0,1,109.35,29.24Z"/><path class="cls-2" d="M122,32.69l-.51-1.33h-3.17l-.51,1.33h-1.38l2.72-6.91h1.51l2.71,6.91Zm-2.1-5.7-1.24,3.3h2.49Z"/><path class="cls-2" d="M128.63,32.69l-1.52-2.58H125.9v2.58h-1.22V25.78h3A2.1,2.1,0,0,1,130,28a2,2,0,0,1-1.65,2l1.7,2.71Zm.12-4.75a1.08,1.08,0,0,0-1.19-1.09H125.9V29h1.66A1.09,1.09,0,0,0,128.75,27.94Z"/><path class="cls-2" d="M133.27,32.69V26.85h-2.1V25.78h5.4v1.07h-2.09v5.84Z"/><rect class="cls-2" x="183.45" y="12.96" width="0.75" height="106.45"/></g></g></svg>