<svg xmlns="http://www.w3.org/2000/svg" preserveAspectRatio="xMidYMid" width="54" height="55" viewBox="0 0 54 55"><defs><style>.cls-1 { fill: #b6bcbd; fill-rule: evenodd; }</style></defs><path d="M48.31 33.81c-2.947 0-5.372-2.428-5.372-5.377 0-.782.134-1.57.46-2.226l-7.72-5.897c-.922.782-2.098 1.243-3.408 1.243-.782 0-1.503-.2-2.157-.46l-9.82 13.17c.782.984 1.243 2.16 1.243 3.47 0 2.95-2.425 5.377-5.37 5.377-2.946 0-5.37-2.42-5.37-5.31 0-2.948 2.424-5.374 5.37-5.374.78 0 1.503.2 2.157.46l9.82-13.238c-.782-.983-1.243-2.16-1.243-3.47 0-2.95 2.425-5.376 5.37-5.376 2.946 0 5.37 2.427 5.37 5.376 0 .782-.133 1.57-.46 2.226l7.722 5.898c.92-.783 2.097-1.244 3.407-1.244 2.94 0 5.37 2.427 5.37 5.375 0 2.95-2.43 5.376-5.37 5.376zm-32.145 1.04c-1.637 0-2.946 1.31-2.946 2.95 0 1.637 1.31 2.948 2.94 2.948 1.635 0 2.944-1.31 2.944-2.95 0-1.637-1.31-2.948-2.945-2.948zm16.098-21.556c-1.636 0-2.946 1.31-2.946 2.95 0 1.637 1.31 2.947 2.946 2.947 1.637 0 2.946-1.31 2.946-2.94 0-1.64-1.31-2.95-2.95-2.95zm15.91 12.256c-1.636 0-2.945 1.31-2.945 2.948s1.308 2.95 2.945 2.95c1.637 0 2.946-1.312 2.946-2.95 0-1.638-1.31-2.948-2.95-2.948zM54 53.822C54 54.48 53.48 55 52.824 55H7.194c-.522 0-1.503-.134-2.292-.85-.787-.72-1.175-1.77-1.175-3.142v-1.833h-2.55C.52 49.175 0 48.655 0 47.998c0-.655.52-1.176 1.176-1.176h2.552v-5.31H1.176C.52 41.512 0 40.992 0 40.337c0-.656.52-1.177 1.176-1.177h2.552v-5.322H1.176C.52 33.838 0 33.316 0 32.66s.52-1.176 1.176-1.176h2.552v-5.31H1.176C.52 26.174 0 25.654 0 25c0-.655.52-1.177 1.176-1.177h2.552v-5.308H1.176C.52 18.512 0 17.99 0 17.335s.52-1.177 1.176-1.177h2.552v-5.703H1.176C.52 10.455 0 9.933 0 9.278S.52 8.1 1.176 8.1h2.552V2.355H1.176C.52 2.355 0 1.832 0 1.177S.52 0 1.176 0H4.91c.654 0 1.176.522 1.176 1.177V51.08c0 .462.066 1.05.393 1.31.32.262.78.262.78.262h45.56c.655-.012 1.176.516 1.176 1.17z" class="cls-1"/></svg>