<?xml version="1.0" encoding="utf-8"?>
<!-- Generator: Adobe Illustrator 22.0.1, SVG Export Plug-In . SVG Version: 6.00 Build 0)  -->
<svg version="1.1" xmlns="http://www.w3.org/2000/svg" xmlns:xlink="http://www.w3.org/1999/xlink" x="0px" y="0px" width="300px"
	 height="141.88px" viewBox="0 0 300 141.88" enable-background="new 0 0 300 141.88" xml:space="preserve">
<g id="Layer_1">
	<g>
		<path fill="#ECEFEF" d="M178.94,4.07c3.46,0,6.27,2.81,6.27,6.27v6.96H114.8v-6.96c0-3.46,2.81-6.27,6.27-6.27H178.94z"/>
		<g>
			<path fill="#ECEFEF" d="M121.07,136.96c-3.46,0-6.27-2.81-6.27-6.27v-6.96h70.42v6.96c0,3.46-2.81,6.27-6.27,6.27H121.07z"/>
			<rect x="98.63" y="41.53" fill="#EEE679" width="102.74" height="58.61"/>
			<path fill="#989FA1" d="M206.3,104.59H93.7V37.09h112.6V104.59z M94.55,103.74h110.89v-65.8H94.55V103.74z"/>
			<g>
				<g>
					<rect x="111.37" y="19.92" fill="#989FA1" width="77.26" height="0.86"/>
					<rect x="111.37" y="119.91" fill="#989FA1" width="77.26" height="0.86"/>
					<rect x="139.75" y="11.03" fill="#989FA1" width="24.44" height="0.86"/>
					<g>
						<circle fill="#FFFFFF" cx="149.75" cy="129.96" r="2.59"/>
						<path fill="#989FA1" d="M149.75,132.98c-1.67,0-3.02-1.35-3.02-3.02c0-1.67,1.35-3.02,3.02-3.02s3.02,1.35,3.02,3.02
							C152.77,131.63,151.41,132.98,149.75,132.98z M149.75,127.8c-1.19,0-2.16,0.97-2.16,2.16s0.97,2.16,2.16,2.16
							s2.16-0.97,2.16-2.16S150.94,127.8,149.75,127.8z"/>
					</g>
				</g>
				<path fill="#989FA1" d="M111.8,32.57h-0.86V10.96c0-5.58,4.54-10.12,10.12-10.12h57.87c5.58,0,10.12,4.54,10.12,10.12v21.52
					h-0.86V10.96c0-5.11-4.16-9.27-9.27-9.27h-57.87c-5.11,0-9.27,4.16-9.27,9.27V32.57z"/>
				<path fill="#989FA1" d="M178.93,140.84h-57.87c-5.58,0-10.12-4.54-10.12-10.12v-21.09h0.86v21.09c0,5.11,4.16,9.27,9.27,9.27
					h57.87c5.11,0,9.27-4.16,9.27-9.27v-21.17h0.86v21.17C189.06,136.3,184.52,140.84,178.93,140.84z"/>
			</g>
			<g>
				<path fill="#697374" d="M134.7,66.52h3.79c1.81,0,2.82,1.24,2.82,2.71s-1.02,2.71-2.82,2.71h-2.28v3.22h-1.52V66.52z
					 M138.29,67.85h-2.07v2.75h2.07c0.85,0,1.48-0.54,1.48-1.37S139.15,67.85,138.29,67.85z"/>
				<path fill="#697374" d="M148.38,73.5h-4.09l-0.63,1.66H142l3.39-8.64h1.89l3.39,8.64h-1.66L148.38,73.5z M144.72,72.17h3.24
					l-1.62-4.36L144.72,72.17z"/>
				<path fill="#697374" d="M152.91,66.52h1.52v8.64h-1.52V66.52z"/>
				<path fill="#697374" d="M157.56,66.52h3.21c2.69,0,4.52,1.79,4.52,4.33s-1.83,4.31-4.52,4.31h-3.21V66.52z M160.78,73.82
					c1.88,0,2.97-1.35,2.97-2.98c0-1.67-1.04-2.99-2.97-2.99h-1.7v5.97H160.78z"/>
			</g>
		</g>
	</g>
</g>
<g id="Layer_2">
</g>
<g id="Layer_3">
</g>
<g id="Layer_4">
</g>
<g id="Layer_5">
</g>
<g id="Layer_6">
</g>
</svg>
