<?xml version="1.0" encoding="utf-8"?>
<!-- Generator: Adobe Illustrator 22.0.1, SVG Export Plug-In . SVG Version: 6.00 Build 0)  -->
<svg version="1.1" xmlns="http://www.w3.org/2000/svg" xmlns:xlink="http://www.w3.org/1999/xlink" x="0px" y="0px" width="300px"
	 height="128.17px" viewBox="0 0 300 128.17" enable-background="new 0 0 300 128.17" xml:space="preserve">
<g id="Layer_1">
	<g>
		<g>
			<path fill="#989FA1" d="M184.7,49.47l-0.03-23.28l-91.68,0.04l0.02,28.15h0.75l-0.02-27.4l90.18-0.04l0.09,84.32l-31.92,0.03
				c-0.58-10.03-8.83-17.85-19-17.87c-10.11,0.03-18.35,7.86-18.91,17.9l-20.39,0.02l-0.01-20.07h-0.75l0.01,20.44v0.38l21.86-0.02
				l0.01-0.36c0.37-9.81,8.36-17.51,18.25-17.54c9.81,0.02,17.81,7.71,18.2,17.51l0.02,0.36l33.38-0.03L184.7,49.47z"/>
			<path fill="#989FA1" d="M184,112.01v-0.38l-0.06-62.54l28.54-0.03l17.59,19.7l10.64,6.61l0.03,36.58l-10.24,0.01l-0.02-0.36
				c-0.42-9.76-8.41-17.42-18.2-17.44c-9.85,0.03-17.84,7.7-18.25,17.47l-0.02,0.36L184,112.01z M184.69,49.84l0.06,61.41l8.55-0.01
				c0.6-10,8.84-17.8,18.91-17.83c10.13,0.02,18.38,7.81,19,17.8l8.78-0.01l-0.03-35.41l-10.41-6.49l-17.4-19.49L184.69,49.84z"/>
			<path fill="#ECEFEF" d="M99.5,32.75l78.64-0.03l0.07,72.78l-21.3,0.02c-2.98-10.36-12.49-17.84-23.76-17.86
				c-11.37,0.03-20.88,7.53-23.84,17.9l-9.77,0.01L99.5,32.75z"/>
			<path fill="#989FA1" d="M133.12,126.96c-3.88,0-7.52-1.51-10.26-4.24c-2.75-2.75-4.27-6.4-4.27-10.29c0-0.25,0-0.51,0.02-0.76
				c0.39-7.72,6.76-13.78,14.49-13.8c7.79,0.01,14.16,6.07,14.56,13.78c0.02,0.25,0.02,0.5,0.02,0.76l0,0
				c0,3.89-1.51,7.54-4.25,10.29c-2.74,2.75-6.39,4.26-10.28,4.27C133.14,126.96,133.13,126.96,133.12,126.96z M133.15,98.62
				c-7.39,0.02-13.42,5.77-13.79,13.09c-0.01,0.24-0.02,0.48-0.02,0.72c0,3.69,1.44,7.16,4.05,9.76c2.6,2.59,6.06,4.02,9.73,4.02
				c0.01,0,0.02,0,0.03,0c3.69,0,7.15-1.44,9.75-4.04c2.6-2.61,4.03-6.07,4.03-9.76l0,0c0-0.24,0-0.48-0.02-0.71
				C146.53,104.37,140.49,98.63,133.15,98.62z"/>
			<path fill="#ECEFEF" d="M133.12,123.17c-5.92,0-10.74-4.82-10.74-10.74c0-0.18,0-0.36,0.01-0.54c0.29-5.73,5-10.21,10.72-10.22
				h0.04c5.71,0.01,10.42,4.48,10.72,10.18c0.01,0.2,0.01,0.38,0.01,0.56c0,2.88-1.11,5.58-3.14,7.61c-2.03,2.03-4.73,3.15-7.6,3.15
				H133.12z"/>
			<path fill="#ECEFEF" d="M212.37,123.17c-5.92,0-10.74-4.82-10.74-10.74c0-0.18,0-0.36,0.01-0.54c0.29-5.73,5-10.21,10.72-10.22
				h0.04c5.71,0.01,10.42,4.48,10.72,10.18c0.01,0.2,0.01,0.38,0.01,0.56c0,2.88-1.11,5.58-3.14,7.61c-2.03,2.03-4.73,3.15-7.6,3.15
				H212.37z"/>
			<path fill="#989FA1" d="M212.24,126.96c-3.88,0-7.52-1.51-10.26-4.24c-2.75-2.74-4.27-6.4-4.27-10.29c0-0.28,0.01-0.55,0.02-0.83
				c0.42-7.68,6.79-13.71,14.49-13.73c7.75,0.01,14.12,6.04,14.56,13.71c0.01,0.27,0.02,0.55,0.02,0.83l0,0
				c0,3.89-1.51,7.54-4.25,10.29c-2.74,2.75-6.4,4.26-10.28,4.27C212.26,126.96,212.25,126.96,212.24,126.96z M212.27,98.62
				c-7.35,0.02-13.39,5.74-13.79,13.02c-0.01,0.26-0.02,0.52-0.02,0.79c0,3.69,1.44,7.15,4.05,9.76c2.6,2.59,6.06,4.02,9.73,4.02
				c0.01,0,0.02,0,0.03,0c7.61,0,13.79-6.2,13.78-13.81l0,0c0-0.26-0.01-0.53-0.02-0.79C225.61,104.34,219.57,98.63,212.27,98.62z"
				/>
			<rect x="59.64" y="59.73" fill="#989FA1" width="46.29" height="0.75"/>
			<rect x="59.64" y="85.23" fill="#989FA1" width="46.29" height="0.75"/>
			<rect x="67.91" y="72.48" fill="#989FA1" width="46.29" height="0.75"/>
		</g>
		<circle fill="#EEE679" cx="129.15" cy="23.63" r="22.05"/>
		<g>
			<circle fill="#FFFFFF" cx="93.42" cy="23.63" r="22.05"/>
			<path fill="#989FA1" d="M93.42,46.06c-5.98,0-11.6-2.33-15.84-6.55C73.34,35.28,71,29.65,71,23.66
				c-0.01-5.99,2.32-11.62,6.55-15.86c4.23-4.24,9.86-6.58,15.85-6.59c0.01,0,0.02,0,0.03,0c5.98,0,11.6,2.33,15.84,6.55
				c4.24,4.23,6.58,9.86,6.59,15.85l0,0c0.01,5.99-2.32,11.62-6.55,15.86c-4.23,4.24-9.86,6.58-15.85,6.59
				C93.44,46.06,93.43,46.06,93.42,46.06z M93.42,1.96c-0.01,0-0.02,0-0.03,0c-11.95,0.01-21.67,9.75-21.65,21.7
				c0.01,5.79,2.27,11.23,6.37,15.32c4.09,4.08,9.53,6.33,15.31,6.33c0.01,0,0.02,0,0.03,0c5.79-0.01,11.23-2.27,15.32-6.37
				c4.09-4.1,6.34-9.54,6.33-15.33l0,0c-0.01-5.79-2.27-11.23-6.37-15.32C104.64,4.21,99.2,1.96,93.42,1.96z"/>
		</g>
		<circle fill="#ECEFEF" cx="93.42" cy="23.63" r="17.96"/>
		<polygon fill="#989FA1" points="82.4,24.02 82.4,23.27 93.05,23.26 93.03,12.61 93.78,12.61 93.8,24.01 		"/>
		<g>
			<g>
				<path fill="#FFFFFF" d="M130.42,35.17v3.01h-2.04V35.2c-3.41-0.2-5.98-1.6-7.65-3.51l1.67-2.11c1.3,1.47,3.34,2.84,5.98,3.11
					v-8.12c-3.41-0.9-6.95-2.07-6.95-6.18c0-3.47,2.94-5.91,6.95-6.18V9.17h2.04v3.11c2.77,0.23,4.98,1.34,6.58,3.04l-1.67,2.04
					c-1.3-1.47-3.04-2.27-4.91-2.54v7.25c3.44,0.97,7.08,2.24,7.08,6.62C137.5,31.69,135.6,34.8,130.42,35.17z M128.38,21.53v-6.82
					c-2.41,0.13-4.08,1.54-4.08,3.51C124.31,20.13,126.14,20.9,128.38,21.53z M134.66,28.92c0-2.27-1.94-3.11-4.24-3.81v7.55
					C133.63,32.39,134.66,30.46,134.66,28.92z"/>
			</g>
		</g>
	</g>
</g>
<g id="Layer_2">
</g>
<g id="Layer_3">
</g>
<g id="Layer_4">
</g>
<g id="Layer_5">
</g>
<g id="Layer_6">
</g>
</svg>
