<?xml version="1.0" encoding="utf-8"?>
<!-- Generator: Adobe Illustrator 22.0.1, SVG Export Plug-In . SVG Version: 6.00 Build 0)  -->
<svg version="1.1" xmlns="http://www.w3.org/2000/svg" xmlns:xlink="http://www.w3.org/1999/xlink" x="0px" y="0px" width="300px"
	 height="151px" viewBox="0 0 300 151" enable-background="new 0 0 300 151" xml:space="preserve">
<g id="Layer_1">
	<g>
		<g>
			<circle fill="#EEE679" cx="59.27" cy="112.64" r="33.16"/>
			<g>
				<g>
					<path fill="#FFFFFF" d="M68.74,119.91H50.13l2.05-4.75l-5.59-13.97h-4.11c-0.21,0-0.38-0.17-0.38-0.38s0.17-0.38,0.38-0.38
						h4.62l5.89,14.73l-1.72,3.99h17.48c0.21,0,0.38,0.17,0.38,0.38S68.95,119.91,68.74,119.91z"/>
					<path fill="#FFFFFF" d="M68.74,120.16h-19l2.15-5l-5.49-13.71h-3.95c-0.34,0-0.62-0.28-0.62-0.62s0.28-0.62,0.62-0.62h4.79
						l5.99,14.98l-1.61,3.73h17.1c0.34,0,0.62,0.28,0.62,0.62S69.09,120.16,68.74,120.16z M50.51,119.66h18.24
						c0.07,0,0.12-0.06,0.12-0.12s-0.06-0.12-0.12-0.12H50.89l1.83-4.24l-5.79-14.48h-4.45c-0.07,0-0.12,0.06-0.12,0.12
						s0.06,0.12,0.12,0.12h4.28l5.69,14.22L50.51,119.66z"/>
				</g>
				<g>
					<path fill="#FFFFFF" d="M52.33,115.56l-4.58-11.52H73.1l-2.27,10.07L52.33,115.56z M48.86,104.79l3.97,9.97l17.4-1.36
						l1.94-8.61H48.86z"/>
					<path fill="#FFFFFF" d="M52.17,115.82l-4.78-12.03h26.03l-2.38,10.55L52.17,115.82z M48.12,104.29l4.38,11l18.13-1.42
						l2.16-9.58H48.12z M52.66,115.03l-4.17-10.49h23.99l-2.05,9.1L52.66,115.03z M49.23,105.04l3.76,9.46l17.03-1.33l1.83-8.13
						H49.23z"/>
				</g>
				<g>
					<path fill="#FFFFFF" d="M54.71,127.53c-1.68,0-3.05-1.37-3.05-3.05s1.37-3.05,3.05-3.05s3.05,1.37,3.05,3.05
						S56.4,127.53,54.71,127.53z M54.71,122.17c-1.27,0-2.3,1.03-2.3,2.3s1.03,2.3,2.3,2.3s2.3-1.03,2.3-2.3
						S55.98,122.17,54.71,122.17z"/>
					<path fill="#FFFFFF" d="M54.71,127.78c-1.82,0-3.3-1.48-3.3-3.3s1.48-3.3,3.3-3.3c1.82,0,3.3,1.48,3.3,3.3
						S56.54,127.78,54.71,127.78z M54.71,121.67c-1.55,0-2.8,1.26-2.8,2.8s1.26,2.8,2.8,2.8c1.55,0,2.8-1.26,2.8-2.8
						S56.26,121.67,54.71,121.67z M54.71,127.03c-1.41,0-2.55-1.15-2.55-2.55s1.15-2.55,2.55-2.55s2.55,1.15,2.55,2.55
						S56.12,127.03,54.71,127.03z M54.71,122.42c-1.13,0-2.05,0.92-2.05,2.05s0.92,2.05,2.05,2.05c1.13,0,2.05-0.92,2.05-2.05
						S55.85,122.42,54.71,122.42z"/>
				</g>
				<g>
					<path fill="#FFFFFF" d="M64.82,127.53c-1.68,0-3.05-1.37-3.05-3.05s1.37-3.05,3.05-3.05c1.68,0,3.05,1.37,3.05,3.05
						S66.51,127.53,64.82,127.53z M64.82,122.17c-1.27,0-2.3,1.03-2.3,2.3s1.03,2.3,2.3,2.3c1.27,0,2.3-1.03,2.3-2.3
						S66.09,122.17,64.82,122.17z"/>
					<path fill="#FFFFFF" d="M64.82,127.78c-1.82,0-3.3-1.48-3.3-3.3s1.48-3.3,3.3-3.3c1.82,0,3.3,1.48,3.3,3.3
						S66.64,127.78,64.82,127.78z M64.82,121.67c-1.55,0-2.8,1.26-2.8,2.8s1.26,2.8,2.8,2.8c1.55,0,2.8-1.26,2.8-2.8
						S66.37,121.67,64.82,121.67z M64.82,127.03c-1.41,0-2.55-1.15-2.55-2.55s1.15-2.55,2.55-2.55c1.41,0,2.55,1.15,2.55,2.55
						S66.23,127.03,64.82,127.03z M64.82,122.42c-1.13,0-2.05,0.92-2.05,2.05s0.92,2.05,2.05,2.05c1.13,0,2.05-0.92,2.05-2.05
						S65.95,122.42,64.82,122.42z"/>
				</g>
				<g>
					<rect x="57" y="104.52" fill="#FFFFFF" width="0.75" height="10.23"/>
					<path fill="#FFFFFF" d="M58,115h-1.25v-10.73H58V115z M57.25,114.5h0.25v-9.73h-0.25V114.5z"/>
				</g>
				<g>
					<rect x="64.75" y="104.42" fill="#FFFFFF" width="0.75" height="9.71"/>
					<path fill="#FFFFFF" d="M65.75,114.38H64.5v-10.21h1.25V114.38z M65,113.88h0.25v-9.21H65V113.88z"/>
				</g>
				<g>
					
						<rect x="50.48" y="108.95" transform="matrix(0.9994 -0.0345 0.0345 0.9994 -3.7337 2.1673)" fill="#FFFFFF" width="20.96" height="0.75"/>
					<path fill="#FFFFFF" d="M50.26,110.31l-0.04-1.25l21.45-0.73l0.04,1.25L50.26,110.31z M50.74,109.55l0.01,0.25l20.45-0.7
						l-0.01-0.25L50.74,109.55z"/>
				</g>
			</g>
			<path fill="#989FA1" d="M210.7,71.63c-7.47-10.8-17.71-19.35-29.61-24.73l0.31-0.68c12.02,5.44,22.37,14.08,29.91,24.99
				L210.7,71.63z"/>
			<polygon fill="#989FA1" points="211.29,71.93 201.48,70.05 201.63,69.31 210.7,71.06 212.44,61.99 213.18,62.13 			"/>
			<path fill="#989FA1" d="M79.33,73.38l-0.68-0.31c5.43-12.02,14.08-22.37,24.99-29.91l0.43,0.62
				C93.26,51.24,84.7,61.48,79.33,73.38z"/>
			<polygon fill="#989FA1" points="102.47,52.99 101.74,52.85 103.48,43.78 94.41,42.03 94.56,41.29 104.36,43.18 			"/>
		</g>
		<g>
			<path fill="#989FA1" d="M239.4,86.97l-57.29,0.02l0.01,17.65h0.75l-0.01-16.9l55.79-0.02l0.05,52.14l-19.56,0.02
				c-0.44-6.24-5.6-11.09-11.95-11.11c-6.32,0.02-11.47,4.88-11.9,11.13l-12.4,0.01l-0.01-12.33h-0.75l0.01,13.08l13.87-0.01
				l0.01-0.36c0.23-6.02,5.14-10.75,11.21-10.77c6.03,0.02,10.94,4.74,11.18,10.75l0.01,0.36l21.03-0.02L239.4,86.97z"/>
			<path fill="#989FA1" d="M238.71,140.62l-0.04-39.4l17.95-0.02l10.96,12.28l6.66,4.14l0.02,22.96l-6.65,0.01l-0.02-0.36
				c-0.26-5.99-5.17-10.7-11.17-10.71c-6.05,0.02-10.95,4.73-11.2,10.73l-0.01,0.36L238.71,140.62z M239.42,101.97l0.04,37.9
				l5.04-0.01c0.44-6.23,5.6-11.07,11.89-11.08c6.33,0.01,11.49,4.84,11.94,11.07l5.18-0.01l-0.02-21.8l-6.44-4.02l-10.78-12.07
				L239.42,101.97z"/>
			<path fill="#ECEFEF" d="M186.31,91.19l48.9-0.02l0.05,45.25l-13.24,0.01c-1.85-6.44-7.76-11.09-14.77-11.11
				c-7.07,0.02-12.98,4.68-14.82,11.13l-6.08,0L186.31,91.19z"/>
			<path fill="#989FA1" d="M207.21,149.91c-2.45,0-4.75-0.95-6.48-2.68c-1.74-1.73-2.7-4.04-2.7-6.5c0-0.16,0-0.32,0.01-0.48
				c0.25-4.87,4.27-8.7,9.15-8.71c4.92,0.01,8.94,3.83,9.2,8.7c0.01,0.16,0.01,0.32,0.01,0.48l0,0c0,2.46-0.95,4.76-2.68,6.5
				c-1.73,1.74-4.04,2.69-6.49,2.69C207.22,149.91,207.22,149.91,207.21,149.91z M207.23,132.29c-4.52,0.01-8.21,3.53-8.44,8
				c-0.01,0.15-0.01,0.29-0.01,0.44c0,2.26,0.88,4.38,2.48,5.97c1.59,1.59,3.7,2.46,5.95,2.46c0.01,0,0.01,0,0.02,0
				c2.26,0,4.37-0.88,5.96-2.47c1.59-1.59,2.47-3.71,2.46-5.97l0,0c0-0.15,0-0.29-0.01-0.44
				C215.41,135.81,211.72,132.3,207.23,132.29z"/>
			<path fill="#ECEFEF" d="M207.21,147.41c-3.68,0-6.68-3-6.68-6.68c0-0.11,0-0.22,0.01-0.34c0.18-3.56,3.11-6.35,6.66-6.36h0.03
				c3.55,0.01,6.48,2.79,6.67,6.33c0.01,0.12,0.01,0.24,0.01,0.35c0,1.79-0.69,3.47-1.95,4.73c-1.26,1.26-2.94,1.96-4.73,1.96
				H207.21z"/>
			<path fill="#ECEFEF" d="M256.49,147.41c-3.68,0-6.68-3-6.68-6.68c0-0.11,0-0.22,0.01-0.34c0.18-3.56,3.11-6.35,6.66-6.36h0.03
				c3.55,0.01,6.48,2.79,6.67,6.33c0.01,0.12,0.01,0.24,0.01,0.35c0,1.79-0.69,3.47-1.95,4.73s-2.94,1.96-4.73,1.96H256.49z"/>
			<path fill="#989FA1" d="M256.41,149.91c-2.45,0-4.75-0.95-6.48-2.68c-1.74-1.73-2.7-4.04-2.7-6.5c0-0.17,0.01-0.35,0.02-0.52
				c0.27-4.85,4.29-8.66,9.15-8.67c4.89,0.01,8.92,3.81,9.19,8.66c0.01,0.17,0.02,0.35,0.02,0.52l0,0c0,5.07-4.11,9.19-9.18,9.19
				C256.42,149.91,256.41,149.91,256.41,149.91z M256.43,132.29c-4.5,0.01-8.19,3.51-8.43,7.96c-0.01,0.16-0.01,0.32-0.01,0.48
				c0,2.26,0.88,4.38,2.48,5.97c1.59,1.59,3.7,2.46,5.95,2.46c0.01,0,0.01,0,0.02,0c4.65,0,8.43-3.79,8.43-8.44l0,0
				c0-0.16-0.01-0.32-0.01-0.48C264.58,135.79,260.89,132.3,256.43,132.29z"/>
			<rect x="161.52" y="107.83" fill="#989FA1" width="28.78" height="0.75"/>
			<rect x="161.52" y="123.69" fill="#989FA1" width="28.78" height="0.75"/>
			<rect x="166.66" y="115.76" fill="#989FA1" width="28.78" height="0.75"/>
		</g>
		<g>
			<g>
				<path fill="#FFFFFF" d="M150,2.16c15.54,3.46,25.33,18.87,21.86,34.41c-3.46,15.54-18.87,25.33-34.41,21.86
					c-15.54-3.46-25.33-18.87-21.86-34.41C119.05,8.48,134.46-1.31,150,2.16z"/>
				<path fill="#989FA1" d="M143.78,59.5c-2.13,0-4.28-0.24-6.42-0.71c-7.61-1.7-14.11-6.26-18.29-12.84
					c-4.18-6.58-5.55-14.4-3.85-22.01c1.7-7.61,6.26-14.11,12.84-18.29c6.58-4.18,14.4-5.55,22.02-3.85s14.11,6.26,18.29,12.84
					c4.18,6.58,5.55,14.4,3.85,22.01c-1.7,7.61-6.26,14.11-12.84,18.29C154.64,57.95,149.26,59.5,143.78,59.5z M143.67,1.83
					c-5.34,0-10.58,1.51-15.2,4.45c-6.41,4.08-10.86,10.41-12.51,17.82c-1.65,7.42-0.32,15.04,3.75,21.45
					c4.08,6.41,10.4,10.86,17.82,12.51c7.42,1.66,15.04,0.32,21.45-3.75s10.86-10.41,12.51-17.82c1.65-7.42,0.32-15.03-3.75-21.45
					c-4.08-6.41-10.4-10.86-17.82-12.51l0,0C147.84,2.06,145.74,1.83,143.67,1.83z"/>
			</g>
			<path fill="#ECEFEF" d="M149.15,5.97c13.43,2.99,21.89,16.31,18.9,29.74c-2.99,13.43-16.31,21.89-29.74,18.9
				c-13.43-2.99-21.89-16.31-18.9-29.74C122.4,11.44,135.71,2.98,149.15,5.97z"/>
		</g>
		<g>
			<path fill="#FFFFFF" d="M150,2.16c15.54,3.46,25.33,18.87,21.86,34.41c-3.46,15.54-18.87,25.33-34.41,21.86
				c-15.54-3.46-25.33-18.87-21.86-34.41C119.05,8.48,134.46-1.31,150,2.16z"/>
			<path fill="#989FA1" d="M143.78,59.5c-2.13,0-4.28-0.24-6.42-0.71c-7.61-1.7-14.11-6.26-18.29-12.84
				c-4.18-6.58-5.55-14.4-3.85-22.01c1.7-7.61,6.26-14.11,12.84-18.29c6.58-4.18,14.4-5.55,22.02-3.85s14.11,6.26,18.29,12.84
				c4.18,6.58,5.55,14.4,3.85,22.01c-1.7,7.61-6.26,14.11-12.84,18.29C154.64,57.95,149.26,59.5,143.78,59.5z M143.67,1.83
				c-5.34,0-10.58,1.51-15.2,4.45c-6.41,4.08-10.86,10.41-12.51,17.82c-1.65,7.42-0.32,15.04,3.75,21.45
				c4.08,6.41,10.4,10.86,17.82,12.51c7.42,1.66,15.04,0.32,21.45-3.75s10.86-10.41,12.51-17.82c1.65-7.42,0.32-15.03-3.75-21.45
				c-4.08-6.41-10.4-10.86-17.82-12.51l0,0C147.84,2.06,145.74,1.83,143.67,1.83z"/>
		</g>
		<path fill="#ECEFEF" d="M149.15,5.97c13.43,2.99,21.89,16.31,18.9,29.74c-2.99,13.43-16.31,21.89-29.74,18.9
			c-13.43-2.99-21.89-16.31-18.9-29.74C122.4,11.44,135.71,2.98,149.15,5.97z"/>
		<g>
			<path fill="#989FA1" d="M130.7,43.33c-2.09-1.21-3.4-3.46-3.4-5.87c0-3.74,3.04-6.78,6.78-6.78c1.07,0,2.12,0.25,3.06,0.73
				l4.77-8.27l0.65,0.38l-5.14,8.91l-0.33-0.19c-0.91-0.53-1.96-0.81-3.02-0.81c-3.32,0-6.03,2.7-6.03,6.03
				c0,2.15,1.16,4.15,3.02,5.22L130.7,43.33z"/>
			<g>
				<path fill="#FFFFFF" d="M146.9,20.64c0,1.72-1.39,3.11-3.11,3.11c-0.57,0-1.09-0.15-1.55-0.42c-0.93-0.53-1.56-1.53-1.56-2.69
					c0-1.72,1.39-3.11,3.11-3.11C145.51,17.54,146.9,18.93,146.9,20.64z"/>
				<path fill="#989FA1" d="M143.79,24.13c-0.61,0-1.21-0.16-1.74-0.47c-1.08-0.62-1.75-1.77-1.75-3.01c0-1.92,1.56-3.48,3.48-3.48
					s3.48,1.56,3.48,3.48S145.71,24.13,143.79,24.13z M143.79,17.91c-1.51,0-2.73,1.23-2.73,2.73c0,0.97,0.53,1.88,1.37,2.36
					c0.42,0.25,0.88,0.37,1.36,0.37c1.51,0,2.73-1.23,2.73-2.73S145.3,17.91,143.79,17.91z"/>
			</g>
			<path fill="#989FA1" d="M153.38,44.05c-2.34,0-4.63-1.21-5.88-3.39c-0.53-0.92-0.84-1.96-0.9-3.02l-9.55,0v-0.75l10.29,0l0,0.38
				c0,1.06,0.28,2.1,0.81,3.02c1.66,2.88,5.35,3.87,8.23,2.21c1.86-1.07,3.02-3.08,3.01-5.23h0.75c0,2.42-1.3,4.67-3.39,5.88
				C155.69,43.76,154.53,44.05,153.38,44.05z"/>
			<g>
				<path fill="#FFFFFF" d="M137.05,37.27c0,1.07-0.56,2.11-1.55,2.7c-1.48,0.85-3.39,0.35-4.24-1.14
					c-0.86-1.48-0.35-3.38,1.13-4.24c1.49-0.85,3.39-0.35,4.25,1.14C136.92,36.21,137.05,36.74,137.05,37.27z"/>
				<path fill="#989FA1" d="M133.95,40.75c-0.31,0-0.61-0.04-0.92-0.12c-0.9-0.24-1.64-0.82-2.1-1.62c-0.47-0.8-0.59-1.74-0.35-2.64
					c0.24-0.9,0.82-1.65,1.62-2.12c1.67-0.96,3.8-0.38,4.76,1.28c0.3,0.53,0.46,1.13,0.46,1.73c0,1.24-0.67,2.39-1.74,3.02
					C135.15,40.6,134.55,40.75,133.95,40.75z M133.94,34.54c-0.46,0-0.93,0.12-1.36,0.36c-0.63,0.37-1.08,0.96-1.27,1.66
					c-0.19,0.7-0.09,1.44,0.27,2.07c0.36,0.63,0.95,1.08,1.65,1.27c0.71,0.19,1.45,0.1,2.08-0.27c0.84-0.49,1.37-1.4,1.37-2.37
					c0-0.48-0.13-0.95-0.36-1.36C135.81,35.03,134.89,34.54,133.94,34.54z"/>
			</g>
			<path fill="#989FA1" d="M151.48,34.89l-5.15-8.91l0.33-0.19c0.92-0.53,1.68-1.29,2.21-2.21c0.8-1.39,1.02-3.02,0.6-4.57
				c-0.42-1.55-1.41-2.85-2.81-3.66c-1.86-1.07-4.17-1.07-6.03,0l-0.38-0.65c2.09-1.21,4.69-1.21,6.78,0
				c1.57,0.9,2.69,2.37,3.16,4.11c0.47,1.75,0.23,3.57-0.68,5.14c-0.53,0.92-1.28,1.71-2.17,2.29l4.77,8.27L151.48,34.89z"/>
			<g>
				<path fill="#FFFFFF" d="M156.05,38.95c-0.85,1.48-2.76,2-4.24,1.13c-1.48-0.85-2-2.76-1.13-4.24c0.28-0.49,0.68-0.88,1.13-1.13
					c0.93-0.54,2.11-0.57,3.11,0C156.4,35.56,156.91,37.46,156.05,38.95z"/>
				<path fill="#989FA1" d="M153.36,40.88c-0.6,0-1.2-0.16-1.74-0.47c-0.8-0.46-1.38-1.21-1.62-2.11c-0.24-0.9-0.12-1.84,0.35-2.64
					c0.3-0.53,0.74-0.97,1.27-1.27c1.07-0.62,2.41-0.62,3.48,0c0.8,0.46,1.38,1.21,1.62,2.11c0.24,0.9,0.12,1.84-0.35,2.65l0,0
					c-0.46,0.81-1.21,1.38-2.11,1.62C153.96,40.84,153.66,40.88,153.36,40.88z M153.36,34.66c-0.47,0-0.94,0.12-1.37,0.37
					c-0.42,0.24-0.76,0.58-1,1c-0.37,0.63-0.46,1.37-0.28,2.08c0.19,0.71,0.64,1.29,1.27,1.66c0.63,0.37,1.37,0.46,2.07,0.28
					c0.71-0.19,1.29-0.64,1.66-1.27l0,0c0.37-0.63,0.46-1.37,0.27-2.08c-0.19-0.7-0.64-1.29-1.27-1.65
					C154.31,34.79,153.83,34.66,153.36,34.66z"/>
			</g>
			<path fill="#989FA1" d="M149.52,23.96l-0.65-0.38c0.8-1.39,1.02-3.02,0.6-4.57c-0.42-1.55-1.41-2.85-2.81-3.66
				c-1.86-1.07-4.17-1.07-6.03,0l-0.38-0.65c2.09-1.21,4.69-1.21,6.78,0c1.57,0.9,2.69,2.37,3.16,4.11
				C150.67,20.57,150.43,22.39,149.52,23.96z"/>
		</g>
	</g>
</g>
<g id="Layer_2">
</g>
<g id="Layer_3">
</g>
<g id="Layer_4">
</g>
<g id="Layer_5">
</g>
<g id="Layer_6">
</g>
</svg>
