<?xml version="1.0" encoding="utf-8"?>
<!-- Generator: Adobe Illustrator 22.0.1, SVG Export Plug-In . SVG Version: 6.00 Build 0)  -->
<svg version="1.1" xmlns="http://www.w3.org/2000/svg" xmlns:xlink="http://www.w3.org/1999/xlink" x="0px" y="0px" width="300px"
	 height="133.67px" viewBox="0 0 300 133.67" enable-background="new 0 0 300 133.67" xml:space="preserve">
<g id="Layer_1">
	<g>
		<path fill="#989FA1" d="M68.45,125.28c-0.58-17.94,3.75-35.75,12.54-51.51l0.65,0.37c-8.72,15.64-13.03,33.32-12.44,51.12
			L68.45,125.28z"/>
		<polygon fill="#989FA1" points="84.52,86.65 81.16,74.39 68.9,77.74 68.7,77.02 81.69,73.47 85.24,86.46 		"/>
		<path fill="#989FA1" d="M226.28,66.2c-12.16-13.15-27.63-22.72-44.73-27.7l0.21-0.72c17.23,5.01,32.82,14.66,45.07,27.91
			L226.28,66.2z"/>
		<polygon fill="#989FA1" points="226.9,66.45 213.45,65.79 213.49,65.04 226.19,65.66 226.81,52.96 227.56,53 		"/>
		<g>
			<path fill="#989FA1" d="M233.62,132.21H94.64v-0.38c0-18.39,7.12-35.73,20.05-48.81c11.34-11.51,26.42-18.73,42.44-20.33
				c0.83-0.08,1.66-0.15,2.5-0.19c0.54-0.04,1.09-0.07,1.66-0.09c0.46-0.01,0.92-0.03,1.38-0.03c0.14-0.01,0.33-0.01,0.5-0.01
				c0.61-0.03,1.27-0.03,1.91,0c0.15,0,0.34,0,0.52,0.02c0.41,0,0.88,0.01,1.34,0.03c0.56,0.01,1.11,0.04,1.67,0.09
				c0.83,0.04,1.66,0.12,2.49,0.19c16.02,1.6,31.11,8.83,42.51,20.36c12.9,13.07,20.01,30.4,20.01,48.78V132.21z M95.39,131.46
				h137.47c-0.1-18.05-7.12-35.04-19.79-47.88c-11.27-11.41-26.21-18.56-42.04-20.14c-0.81-0.07-1.63-0.15-2.47-0.19
				c-0.55-0.04-1.08-0.07-1.64-0.09c-0.45-0.01-0.91-0.03-1.36-0.03c-0.18-0.02-0.35-0.02-0.5-0.01c-0.33-0.01-0.63-0.02-0.96-0.01
				c-0.31,0-0.61,0-0.92,0.01c-0.17,0-0.33,0-0.48,0.01c-0.49,0-0.94,0.02-1.39,0.03c-0.56,0.01-1.09,0.04-1.63,0.09
				c-0.84,0.04-1.66,0.12-2.48,0.19c-15.85,1.58-30.76,8.73-41.98,20.12C102.53,96.4,95.49,113.41,95.39,131.46z"/>
			<path fill="#ECEFEF" d="M223.19,131.76v0.07H103.82v-0.07c0-17.31,7.38-32.91,19.15-43.82c5.5-5.1,11.98-9.17,19.11-11.91
				c4.98-1.93,10.3-3.19,15.85-3.7c1.84-0.18,3.7-0.26,5.59-0.26c2.32,0,4.62,0.13,6.86,0.4c5.92,0.68,11.57,2.22,16.83,4.5
				c6.42,2.78,12.27,6.66,17.29,11.41C216,99.25,223.19,114.67,223.19,131.76z"/>
			<path fill="#989FA1" d="M183.14,131.83v-0.07c0-11.64-1.62-23.64-4.82-35.66c-2.13-8.02-4.92-15.92-8.29-23.48
				c-1.98-4.43-3.7-7.71-4.79-9.69l-0.05-0.18l0.39-0.01l0.31-0.17c1.1,1.99,2.83,5.29,4.82,9.74c3.38,7.59,6.18,15.53,8.32,23.59
				c3.22,12.08,4.85,24.15,4.85,35.86L183.14,131.83z"/>
			<path fill="#989FA1" d="M215.47,131.83v-0.07c0-14.02-5.33-27.86-15.84-41.11c-3.6-4.53-7.86-9.04-12.67-13.41
				c-7.21-6.51-14.08-11.24-18.57-14.06l0.07-0.41l0.21-0.31l-0.08,0.4l0.2-0.32c4.52,2.83,11.42,7.58,18.67,14.13
				c4.84,4.39,9.13,8.93,12.76,13.49c10.62,13.39,16,27.38,16,41.58L215.47,131.83z"/>
			<path fill="#989FA1" d="M144.35,131.83v-0.07c0-11.74,1.64-23.81,4.86-35.89c2.16-8.12,4.97-16.09,8.37-23.69
				c2.12-4.74,3.9-8.06,4.76-9.61l0.31,0.18l0.39-0.01v0.1l-0.05,0.1c-0.86,1.54-2.62,4.84-4.73,9.55
				c-3.38,7.56-6.18,15.5-8.33,23.58c-3.21,12.01-4.84,24.02-4.84,35.69L144.35,131.83z"/>
			<path fill="#989FA1" d="M112.03,131.83v-0.07c0-14.22,5.4-28.22,16.04-41.61c3.95-4.96,8.58-9.8,13.76-14.39
				c6.96-6.13,13.43-10.57,17.63-13.21l0.12-0.08l0.42,0.62l-0.13,0.09c-4.19,2.63-10.62,7.04-17.54,13.14
				c-5.15,4.56-9.75,9.37-13.67,14.3c-10.54,13.25-15.88,27.09-15.88,41.14L112.03,131.83z"/>
			<path fill="#989FA1" d="M164.2,97.33c-19.16,0-35.8-4.62-49.46-13.75l0.42-0.62c13.53,9.04,30.03,13.62,49.04,13.62
				c18.98,0,35.44-4.57,48.93-13.58l0.42,0.62C199.93,92.72,183.33,97.33,164.2,97.33z"/>
			<rect x="95.02" y="131.46" fill="#989FA1" width="138.22" height="0.75"/>
		</g>
		<g>
			<path fill="#989FA1" d="M125.19,1.36L78.14,17.31l-0.36,0.12l4.96,14.62l0.71-0.24L78.73,17.9l45.99-15.59l14.59,42.97
				l-16.07,5.45c-2.13-5.03-7.76-7.59-13.02-5.82c-5.22,1.79-8.13,7.24-6.76,12.54l-10.15,3.44l-3.44-10.14l-0.71,0.24l3.56,10.5
				l0.12,0.35l11.54-3.91l-0.1-0.35c-1.49-5.01,1.23-10.27,6.21-11.97c4.96-1.67,10.31,0.85,12.18,5.73l0.13,0.33l17.46-5.92
				L125.19,1.36z"/>
			<path fill="#989FA1" d="M139.55,45.99l-11.08-32.63l14.89-5.05l12.5,7.09l6.68,1.56L169,35.99l-5.58,1.89l-0.13-0.33
				c-1.88-4.85-7.22-7.36-12.17-5.69c-4.97,1.7-7.69,6.93-6.22,11.93l0.1,0.34L139.55,45.99z M129.42,13.83l10.6,31.21l4.07-1.38
				c-1.35-5.28,1.56-10.72,6.77-12.49c5.24-1.76,10.87,0.78,13,5.79l4.19-1.42l-6.09-17.93l-6.43-1.52l-12.26-6.95L129.42,13.83z"/>
			<path fill="#ECEFEF" d="M82.48,19.75l40.39-13.69l12.69,37.37l-10.94,3.71c-3.33-4.8-9.51-6.99-15.31-5.04
				c-5.83,1.99-9.41,7.5-9.13,13.34l-5.02,1.7L82.48,19.75z"/>
			<path fill="#989FA1" d="M113.58,62.88c-1.22,0-2.43-0.28-3.55-0.83c-1.93-0.95-3.38-2.6-4.07-4.64c-0.04-0.13-0.09-0.27-0.12-0.4
				c-1.17-4.12,1.1-8.43,5.15-9.81c4.09-1.38,8.51,0.67,10.09,4.65c0.05,0.13,0.1,0.26,0.14,0.39l0,0
				c1.43,4.21-0.83,8.79-5.04,10.22C115.33,62.74,114.46,62.88,113.58,62.88z M113.6,47.51c-0.77,0-1.56,0.12-2.33,0.38
				c-3.7,1.26-5.76,5.17-4.7,8.91c0.03,0.12,0.07,0.25,0.11,0.36c0.63,1.85,1.94,3.35,3.69,4.21c1.75,0.86,3.73,0.99,5.58,0.36
				c3.82-1.29,5.87-5.45,4.57-9.27c-0.04-0.12-0.08-0.24-0.13-0.36C119.25,49.26,116.51,47.51,113.6,47.51z"/>
			<path fill="#ECEFEF" d="M115.46,60.34c-3.04,1.03-6.35-0.61-7.38-3.65c-0.03-0.09-0.06-0.19-0.09-0.28
				c-0.85-2.99,0.79-6.11,3.73-7.11l0.02-0.01c2.94-0.99,6.13,0.49,7.28,3.37c0.04,0.1,0.07,0.19,0.1,0.29
				c0.5,1.48,0.4,3.06-0.29,4.45c-0.69,1.4-1.88,2.44-3.36,2.94L115.46,60.34z"/>
			<path fill="#ECEFEF" d="M156.16,46.57c-3.04,1.03-6.35-0.61-7.38-3.65c-0.03-0.09-0.06-0.19-0.09-0.28
				c-0.85-2.99,0.79-6.11,3.73-7.11l0.02-0.01c2.94-0.99,6.13,0.49,7.28,3.37c0.04,0.1,0.07,0.19,0.1,0.29
				c0.5,1.48,0.4,3.06-0.29,4.45s-1.88,2.44-3.36,2.94L156.16,46.57z"/>
			<path fill="#989FA1" d="M154.22,49.13c-1.22,0-2.43-0.28-3.55-0.83c-1.93-0.95-3.38-2.6-4.07-4.64
				c-0.05-0.15-0.09-0.29-0.13-0.44c-1.14-4.11,1.13-8.4,5.16-9.78c4.07-1.37,8.48,0.66,10.07,4.61c0.06,0.14,0.11,0.29,0.16,0.43
				c1.43,4.21-0.83,8.79-5.04,10.22C155.97,48.99,155.09,49.13,154.22,49.13z M154.23,33.76c-0.77,0-1.56,0.12-2.33,0.38
				c-3.69,1.26-5.74,5.15-4.71,8.88c0.04,0.13,0.08,0.27,0.12,0.4c0.63,1.85,1.94,3.34,3.69,4.21c1.75,0.86,3.73,0.99,5.58,0.36
				c3.82-1.29,5.87-5.45,4.57-9.27l0,0c-0.04-0.13-0.1-0.27-0.15-0.39C159.87,35.5,157.13,33.76,154.23,33.76z"/>
			
				<rect x="66.09" y="36.33" transform="matrix(0.9474 -0.3201 0.3201 0.9474 -7.6107 27.1079)" fill="#989FA1" width="25.1" height="0.75"/>
			
				<rect x="70.53" y="49.43" transform="matrix(0.9474 -0.3201 0.3201 0.9474 -11.5714 29.2167)" fill="#989FA1" width="25.1" height="0.75"/>
			
				<rect x="72.56" y="41.44" transform="matrix(0.9474 -0.3201 0.3201 0.9474 -8.9077 29.446)" fill="#989FA1" width="25.1" height="0.75"/>
		</g>
	</g>
</g>
<g id="Layer_2">
</g>
<g id="Layer_3">
</g>
<g id="Layer_4">
</g>
<g id="Layer_5">
</g>
<g id="Layer_6">
</g>
</svg>
