<?xml version="1.0" encoding="utf-8"?>
<!-- Generator: Adobe Illustrator 22.0.1, SVG Export Plug-In . SVG Version: 6.00 Build 0)  -->
<svg version="1.1" xmlns="http://www.w3.org/2000/svg" xmlns:xlink="http://www.w3.org/1999/xlink" x="0px" y="0px" width="300px"
	 height="125px" viewBox="0 0 300 125" enable-background="new 0 0 300 125" xml:space="preserve">
<g id="Layer_1">
	<g>
		<g>
			<g>
				<g>
					<rect x="55.92" y="8.71" fill="#ECEFEF" width="154.47" height="95.52"/>
					<path fill="#989FA1" d="M210.77,104.61H55.55V8.34h155.22V104.61z M56.3,103.86h153.72V9.09H56.3V103.86z"/>
				</g>
			</g>
			<g>
				<path fill="#FFFFFF" d="M210.4,8.71H55.92V3.57c0-1.14,0.93-2.07,2.07-2.07h150.34c1.14,0,2.07,0.93,2.07,2.07V8.71z"/>
				<path fill="#989FA1" d="M210.77,9.08H55.54V3.57c0-1.35,1.1-2.45,2.45-2.45h150.34c1.35,0,2.45,1.1,2.45,2.45V9.08z M56.29,8.33
					h153.73V3.57c0-0.94-0.76-1.7-1.7-1.7H57.99c-0.94,0-1.7,0.76-1.7,1.7V8.33z"/>
			</g>
			<path fill="#989FA1" d="M205.53,6.32c-0.67,0-1.21-0.54-1.21-1.21s0.54-1.21,1.21-1.21c0.67,0,1.21,0.54,1.21,1.21
				S206.2,6.32,205.53,6.32z M205.53,4.64c-0.25,0-0.46,0.21-0.46,0.46s0.21,0.46,0.46,0.46s0.46-0.21,0.46-0.46
				S205.79,4.64,205.53,4.64z"/>
			<path fill="#989FA1" d="M201.74,6.32c-0.67,0-1.21-0.54-1.21-1.21s0.54-1.21,1.21-1.21c0.67,0,1.21,0.54,1.21,1.21
				S202.4,6.32,201.74,6.32z M201.74,4.64c-0.25,0-0.46,0.21-0.46,0.46s0.21,0.46,0.46,0.46s0.46-0.21,0.46-0.46
				S201.99,4.64,201.74,4.64z"/>
			<path fill="#989FA1" d="M197.94,6.32c-0.67,0-1.21-0.54-1.21-1.21s0.54-1.21,1.21-1.21s1.21,0.54,1.21,1.21
				S198.61,6.32,197.94,6.32z M197.94,4.64c-0.25,0-0.46,0.21-0.46,0.46s0.21,0.46,0.46,0.46s0.46-0.21,0.46-0.46
				S198.2,4.64,197.94,4.64z"/>
		</g>
		<g>
			<g>
				<path fill="#FFFFFF" d="M244.08,123.49L91.7,123.5l0-93.91c0-1.62,1.31-2.93,2.93-2.93l146.52-0.01c1.62,0,2.93,1.31,2.93,2.93
					L244.08,123.49z"/>
				<path fill="#989FA1" d="M91.33,123.88l0-94.29c0-1.82,1.48-3.3,3.3-3.3l146.53-0.01c1.82,0,3.3,1.48,3.3,3.3l0,94.29
					L91.33,123.88z M241.15,27.03L94.63,27.03c-1.41,0-2.55,1.15-2.55,2.55l0,93.54l151.63-0.01l0-93.54
					C243.7,28.17,242.56,27.03,241.15,27.03z"/>
			</g>
			<path fill="#ECEFEF" d="M235.72,66.63h-31.73V55.44h31.73V66.63z M204.74,65.88h30.23v-9.69h-30.23V65.88z"/>
			<rect x="203.54" y="106.4" fill="#EEE679" width="31.88" height="8.44"/>
			<rect x="110.2" y="79.24" fill="#989FA1" width="46" height="0.75"/>
			<rect x="217.36" y="79.59" fill="#989FA1" width="18.06" height="0.75"/>
			<rect x="210.95" y="60.58" fill="#ECEFEF" width="17.8" height="0.75"/>
			<path fill="#ECEFEF" d="M201.06,66.69h-31.73V55.51h31.73V66.69z M170.08,65.94h30.23v-9.69h-30.23V65.94z"/>
			<rect x="176.29" y="60.7" fill="#ECEFEF" width="17.8" height="0.75"/>
			<path fill="#ECEFEF" d="M166.4,66.76h-31.73V55.57h31.73V66.76z M135.42,66.01h30.23v-9.69h-30.23V66.01z"/>
			<rect x="141.64" y="60.82" fill="#ECEFEF" width="17.8" height="0.75"/>
			<path fill="#989FA1" d="M131.74,66.83h-31.73V55.64h31.73V66.83z M100.76,66.08h30.23v-9.69h-30.23V66.08z"/>
			<rect x="106.98" y="60.93" fill="#989FA1" width="17.8" height="0.75"/>
			<rect x="110.2" y="88.53" fill="#989FA1" width="33.7" height="0.75"/>
			<rect x="217.36" y="88.53" fill="#989FA1" width="18.06" height="0.75"/>
			<rect x="110.2" y="97" fill="#989FA1" width="39.85" height="0.75"/>
			<rect x="217.36" y="97" fill="#989FA1" width="18.06" height="0.75"/>
			
				<rect x="101.34" y="78.07" transform="matrix(0.7069 -0.7073 0.7073 0.7069 -26.4041 95.2361)" fill="#989FA1" width="0.75" height="2.83"/>
			
				<rect x="100.3" y="79.11" transform="matrix(0.7078 -0.7065 0.7065 0.7078 -26.4224 95.0867)" fill="#989FA1" width="2.83" height="0.75"/>
			
				<rect x="101.34" y="87.36" transform="matrix(0.7069 -0.7073 0.7073 0.7069 -32.9755 97.959)" fill="#989FA1" width="0.75" height="2.83"/>
			
				<rect x="100.3" y="88.4" transform="matrix(0.7078 -0.7065 0.7065 0.7078 -32.9861 97.8019)" fill="#989FA1" width="2.83" height="0.75"/>
			
				<rect x="101.34" y="95.94" transform="matrix(0.707 -0.7072 0.7072 0.707 -39.048 100.4578)" fill="#989FA1" width="0.75" height="2.83"/>
			
				<rect x="100.3" y="96.98" transform="matrix(0.7078 -0.7065 0.7065 0.7078 -39.0512 100.3109)" fill="#989FA1" width="2.83" height="0.75"/>
			<rect x="91.24" y="70.49" fill="#FFFFFF" width="4.98" height="19.99"/>
			<g>
				<path fill="#989FA1" d="M105.78,44.73v-5.08l-2.01,5.08h-0.49l-2.02-5.08v5.08h-1.15v-6.57h1.63l1.79,4.51l1.78-4.51h1.63v6.57
					H105.78z"/>
				<path fill="#989FA1" d="M110.7,44.73V42l-2.55-3.84h1.32l1.8,2.81l1.8-2.81h1.32L111.86,42v2.73H110.7z"/>
				<path fill="#989FA1" d="M118.35,41.45c0-2.03,1.51-3.4,3.45-3.4c1.32,0,2.15,0.68,2.63,1.47l-0.98,0.51
					c-0.31-0.55-0.96-0.96-1.66-0.96c-1.3,0-2.27,0.99-2.27,2.38c0,1.37,0.97,2.38,2.27,2.38c0.7,0,1.34-0.41,1.66-0.96l0.99,0.49
					c-0.5,0.79-1.32,1.49-2.64,1.49C119.86,44.85,118.35,43.47,118.35,41.45z"/>
				<path fill="#989FA1" d="M130.42,44.73l-0.48-1.27h-3.02l-0.48,1.27h-1.31l2.58-6.57h1.44l2.58,6.57H130.42z M128.43,39.31
					l-1.18,3.13h2.37L128.43,39.31z"/>
				<path fill="#989FA1" d="M136.69,44.73l-1.45-2.45h-1.15v2.45h-1.15v-6.57h2.89c1.3,0,2.16,0.84,2.16,2.06
					c0,1.16-0.77,1.8-1.57,1.93l1.62,2.58H136.69z M136.8,40.21c0-0.63-0.47-1.04-1.12-1.04h-1.59v2.09h1.59
					C136.32,41.26,136.8,40.85,136.8,40.21z"/>
				<path fill="#989FA1" d="M141.1,44.73v-5.56h-1.99v-1.02h5.13v1.02h-1.99v5.56H141.1z"/>
			</g>
		</g>
		<g>
			<polygon fill="#989FA1" points="94.81,82.41 72.7,82.41 72.7,59 73.45,59 73.45,81.66 94.81,81.66 			"/>
			<polygon fill="#989FA1" points="77.33,63.59 73.13,59.32 68.86,63.52 68.34,62.98 73.14,58.26 77.87,63.07 			"/>
		</g>
	</g>
</g>
<g id="Layer_2">
</g>
<g id="Layer_3">
</g>
<g id="Layer_4">
</g>
<g id="Layer_5">
</g>
<g id="Layer_6">
</g>
</svg>
