<?xml version="1.0" encoding="utf-8"?>
<!-- Generator: Adobe Illustrator 22.0.1, SVG Export Plug-In . SVG Version: 6.00 Build 0)  -->
<svg version="1.1" xmlns="http://www.w3.org/2000/svg" xmlns:xlink="http://www.w3.org/1999/xlink" x="0px" y="0px" width="300px"
	 height="124.67px" viewBox="0 0 300 124.67" enable-background="new 0 0 300 124.67" xml:space="preserve">
<g id="Layer_1">
	<g>
		<g>
			<rect x="58.3" y="9.9" fill="#ECEFEF" width="183.41" height="113.42"/>
			<path fill="#989FA1" d="M242.08,123.69H57.92V9.52h184.16V123.69z M58.67,122.94h182.66V10.27H58.67V122.94z"/>
		</g>
		<g>
			<path fill="#FFFFFF" d="M241.71,9.89H58.29v-6.1c0-1.36,1.1-2.46,2.46-2.46h178.5c1.36,0,2.46,1.1,2.46,2.46V9.89z"/>
			<path fill="#989FA1" d="M242.08,10.27H57.92V3.79c0-1.56,1.27-2.83,2.83-2.83h178.5c1.56,0,2.84,1.27,2.84,2.83V10.27z
				 M58.67,9.52h182.67V3.79c0-1.15-0.94-2.08-2.09-2.08H60.75c-1.15,0-2.08,0.94-2.08,2.08V9.52z"/>
		</g>
		<g>
			<path fill="#989FA1" d="M107.18,33.06v-6.83h0.85v6.83H107.18z"/>
			<path fill="#989FA1" d="M114.97,33.06l-3.98-5.45v5.45h-0.85v-6.83h0.87l3.93,5.33v-5.33h0.85v6.83H114.97z"/>
			<path fill="#989FA1" d="M119.95,33.06l-2.75-6.83h0.97l2.3,5.9l2.3-5.9h0.97L121,33.06H119.95z"/>
			<path fill="#989FA1" d="M125.15,33.06v-6.83h4.47v0.76H126v2.2h3.55v0.76H126v2.35h3.62v0.76H125.15z"/>
			<path fill="#989FA1" d="M136.32,33.06l-3.98-5.45v5.45h-0.85v-6.83h0.87l3.93,5.33v-5.33h0.85v6.83H136.32z"/>
			<path fill="#989FA1" d="M140.94,33.06v-6.07h-2.16v-0.76h5.18v0.76h-2.17v6.07H140.94z"/>
			<path fill="#989FA1" d="M145.05,29.65c0-2.02,1.37-3.53,3.39-3.53s3.4,1.51,3.4,3.53c0,2.02-1.38,3.53-3.4,3.53
				S145.05,31.67,145.05,29.65z M150.96,29.65c0-1.6-0.99-2.78-2.52-2.78c-1.54,0-2.51,1.18-2.51,2.78c0,1.59,0.97,2.77,2.51,2.77
				C149.96,32.43,150.96,31.24,150.96,29.65z"/>
			<path fill="#989FA1" d="M157.62,33.06l-1.73-2.71h-1.37v2.71h-0.85v-6.83h2.74c1.25,0,2.15,0.8,2.15,2.06
				c0,1.23-0.85,1.9-1.78,1.99l1.84,2.79H157.62z M157.69,28.29c0-0.78-0.56-1.3-1.37-1.3h-1.79v2.61h1.79
				C157.12,29.6,157.69,29.06,157.69,28.29z"/>
			<path fill="#989FA1" d="M162.24,33.06v-2.89l-2.69-3.94h0.99l2.12,3.17l2.12-3.17h0.99l-2.68,3.94v2.89H162.24z"/>
		</g>
		<rect x="106.4" y="49.77" fill="#FFFFFF" width="125.94" height="64.47"/>
		<g>
			<path fill="#989FA1" d="M115.01,62.07l-2.09-2.86v2.86h-0.7v-4h0.72l2.04,2.77v-2.77h0.7v4H115.01z"/>
			<path fill="#989FA1" d="M119.65,62.07l-0.29-0.77h-1.83l-0.29,0.77h-0.8l1.57-4h0.88l1.57,4H119.65z M118.44,58.77l-0.72,1.91
				h1.44L118.44,58.77z"/>
			<path fill="#989FA1" d="M124.64,62.07v-3.09l-1.22,3.09h-0.3l-1.23-3.09v3.09h-0.7v-4h0.99l1.09,2.75l1.08-2.75h0.99v4H124.64z"
				/>
			<path fill="#989FA1" d="M126.49,62.07v-4h2.74v0.62h-2.04v1.03h2v0.62h-2v1.12h2.04v0.62H126.49z"/>
		</g>
		<g>
			<path fill="#989FA1" d="M170.38,62.07v-4h1.76c0.84,0,1.3,0.57,1.3,1.25c0,0.68-0.47,1.25-1.3,1.25h-1.06v1.5H170.38z
				 M172.73,59.33c0-0.38-0.28-0.64-0.68-0.64h-0.97v1.26h0.97C172.44,59.95,172.73,59.7,172.73,59.33z"/>
			<path fill="#989FA1" d="M176.62,62.07l-0.88-1.49h-0.7v1.49h-0.7v-4h1.76c0.79,0,1.31,0.51,1.31,1.25c0,0.71-0.47,1.1-0.95,1.17
				l0.98,1.57H176.62z M176.69,59.32c0-0.38-0.29-0.63-0.68-0.63h-0.97v1.27H176C176.4,59.96,176.69,59.71,176.69,59.32z"/>
			<path fill="#989FA1" d="M178.41,62.07v-4h0.7v4H178.41z"/>
			<path fill="#989FA1" d="M180.09,60.07c0-1.24,0.92-2.07,2.1-2.07c0.8,0,1.31,0.41,1.6,0.89l-0.59,0.31
				c-0.19-0.34-0.58-0.58-1.01-0.58c-0.79,0-1.38,0.6-1.38,1.45c0,0.83,0.59,1.45,1.38,1.45c0.43,0,0.82-0.25,1.01-0.58l0.6,0.3
				c-0.31,0.48-0.8,0.91-1.61,0.91C181.01,62.14,180.09,61.3,180.09,60.07z"/>
			<path fill="#989FA1" d="M184.65,62.07v-4h2.74v0.62h-2.04v1.03h2v0.62h-2v1.12h2.04v0.62H184.65z"/>
		</g>
		<g>
			<path fill="#989FA1" d="M214.04,60.07c0-1.19,0.85-2.07,2.04-2.07c1.19,0,2.04,0.88,2.04,2.07c0,0.58-0.2,1.07-0.53,1.44
				l0.33,0.37l-0.49,0.41l-0.35-0.39c-0.29,0.16-0.63,0.24-1.01,0.24C214.89,62.14,214.04,61.27,214.04,60.07z M216.65,61.4
				l-0.5-0.56l0.49-0.41l0.5,0.56c0.17-0.25,0.27-0.56,0.27-0.92c0-0.83-0.52-1.45-1.33-1.45c-0.81,0-1.33,0.62-1.33,1.45
				c0,0.82,0.52,1.45,1.33,1.45C216.29,61.52,216.48,61.48,216.65,61.4z"/>
			<path fill="#989FA1" d="M219.91,62.07v-3.38h-1.21v-0.62h3.12v0.62h-1.21v3.38H219.91z"/>
			<path fill="#989FA1" d="M223.86,62.07v-1.66l-1.55-2.34h0.8l1.1,1.71l1.1-1.71h0.8l-1.55,2.34v1.66H223.86z"/>
		</g>
		<g>
			<rect x="58.4" y="9.9" fill="#FFFFFF" width="39.32" height="113.43"/>
			<path fill="#989FA1" d="M98.09,123.71H58.02V9.53h40.07V123.71z M58.77,122.96h38.57V10.28H58.77V122.96z"/>
		</g>
		<path fill="#989FA1" d="M92.44,25.57H64.31v-9.02h28.14V25.57z M65.06,24.82h26.64v-7.52H65.06V24.82z"/>
		<rect x="112.62" y="68.97" fill="#989FA1" width="29.99" height="0.75"/>
		<rect x="112.62" y="76.69" fill="#989FA1" width="20.94" height="0.75"/>
		<rect x="112.62" y="84.4" fill="#989FA1" width="25.94" height="0.75"/>
		<rect x="112.62" y="92.11" fill="#989FA1" width="15.19" height="0.75"/>
		<rect x="112.62" y="99.82" fill="#989FA1" width="23.31" height="0.75"/>
		<rect x="112.62" y="107.53" fill="#989FA1" width="29.99" height="0.75"/>
		<rect x="215.42" y="68.97" fill="#989FA1" width="9.81" height="0.75"/>
		<rect x="215.42" y="76.69" fill="#989FA1" width="9.81" height="0.75"/>
		<rect x="215.42" y="84.4" fill="#989FA1" width="9.81" height="0.75"/>
		<rect x="215.42" y="92.11" fill="#989FA1" width="9.81" height="0.75"/>
		<rect x="215.42" y="99.83" fill="#989FA1" width="9.81" height="0.75"/>
		<rect x="215.42" y="107.54" fill="#989FA1" width="9.81" height="0.75"/>
		<rect x="170.42" y="68.97" fill="#989FA1" width="9.81" height="0.75"/>
		<rect x="170.42" y="76.69" fill="#989FA1" width="9.81" height="0.75"/>
		<rect x="170.42" y="84.4" fill="#989FA1" width="9.81" height="0.75"/>
		<rect x="170.42" y="92.11" fill="#989FA1" width="9.81" height="0.75"/>
		<rect x="170.42" y="99.83" fill="#989FA1" width="9.81" height="0.75"/>
		<rect x="170.42" y="107.54" fill="#989FA1" width="9.81" height="0.75"/>
		<path fill="#989FA1" d="M236.53,7.11c-0.75,0-1.37-0.61-1.37-1.37s0.61-1.37,1.37-1.37s1.37,0.61,1.37,1.37
			S237.29,7.11,236.53,7.11z M236.53,5.12c-0.34,0-0.62,0.28-0.62,0.62c0,0.34,0.28,0.62,0.62,0.62c0.34,0,0.62-0.28,0.62-0.62
			C237.15,5.4,236.88,5.12,236.53,5.12z"/>
		<path fill="#989FA1" d="M232.03,7.11c-0.75,0-1.37-0.61-1.37-1.37s0.61-1.37,1.37-1.37s1.37,0.61,1.37,1.37
			S232.78,7.11,232.03,7.11z M232.03,5.12c-0.34,0-0.62,0.28-0.62,0.62c0,0.34,0.28,0.62,0.62,0.62c0.34,0,0.62-0.28,0.62-0.62
			C232.65,5.4,232.37,5.12,232.03,5.12z"/>
		<path fill="#989FA1" d="M227.52,7.11c-0.75,0-1.37-0.61-1.37-1.37s0.61-1.37,1.37-1.37s1.37,0.61,1.37,1.37
			S228.28,7.11,227.52,7.11z M227.52,5.12c-0.34,0-0.62,0.28-0.62,0.62c0,0.34,0.28,0.62,0.62,0.62s0.62-0.28,0.62-0.62
			C228.14,5.4,227.86,5.12,227.52,5.12z"/>
	</g>
</g>
<g id="Layer_2">
</g>
<g id="Layer_3">
</g>
<g id="Layer_4">
</g>
<g id="Layer_5">
</g>
<g id="Layer_6">
</g>
</svg>
