<svg xmlns="http://www.w3.org/2000/svg" viewBox="0 0 151.66 100.65"><defs><style>.cls-1{fill:#fff;}.cls-2{fill:#989fa1;}.cls-3{fill:#ecefef;}</style></defs><title>Javascript E-commerce-03</title><g id="Layer_2" data-name="Layer 2"><g id="Layer_6" data-name="Layer 6"><polygon class="cls-1" points="137.83 34.71 66.72 15.91 84.16 15.31 151.28 34.38 137.83 34.71"/><path class="cls-2" d="M137.83,35.08h-.1L66.62,16.27a.38.38,0,0,1,.08-.74l17.44-.6.12,0L151.38,34a.37.37,0,0,1-.09.73l-13.45.33ZM69.27,16.19l68.6,18.14,10.93-.27L84.11,15.69Z"/><path class="cls-2" d="M79.13,61.94H79L5.67,42.77a.37.37,0,0,1-.28-.34.39.39,0,0,1,.22-.37l61-26.5a.4.4,0,0,1,.24,0l71.11,18.8a.37.37,0,0,1,.28.31A.39.39,0,0,1,138,35L110.27,51.4l-31,10.52ZM6.91,42.32l72.2,18.85L110,50.72l26.9-15.88L66.75,16.3Z"/><rect class="cls-1" x="17.96" y="28.16" width="7.53" height="15.24" transform="translate(-3.6 2.45) rotate(-5.97)"/><ellipse class="cls-1" cx="52.83" cy="18.29" rx="13.46" ry="6.61"/><path class="cls-3" d="M46,65.1c-13.46,1.41-21.21-2.52-21.41-4.43L20.77,23.75c-.2-1.91,6.57-7.35,20-8.76S62,17.51,62.22,19.42l3.85,36.92C66.27,58.25,59.5,63.7,46,65.1Z"/><path class="cls-2" d="M36.88,33a41,41,0,0,1-12.22-1.67c-5.09-1.61-8.07-4.18-8.39-7.24-.64-6.21,10.21-12.45,24.21-13.91a46.51,46.51,0,0,1,18.17,1.35c5.09,1.61,8.07,4.19,8.39,7.25h0c.32,3.06-2.06,6.2-6.71,8.82s-10.77,4.38-17.5,5.09A57.74,57.74,0,0,1,36.88,33Zm9.56-22.39a56.47,56.47,0,0,0-5.88.32C27,12.29,16.41,18.16,17,24c.29,2.75,3.08,5.09,7.87,6.61a45.7,45.7,0,0,0,17.86,1.32A45.44,45.44,0,0,0,60,26.9c4.37-2.47,6.62-5.34,6.33-8.09s-3.08-5.1-7.87-6.61A40.4,40.4,0,0,0,46.44,10.56Z"/><path class="cls-2" d="M38.16,45.26A41.29,41.29,0,0,1,26,43.59c-5.09-1.61-8.07-4.18-8.39-7.25l.75-.07c.28,2.74,3.08,5.09,7.87,6.61A45.68,45.68,0,0,0,44,44.2a45.62,45.62,0,0,0,17.21-5c4.37-2.47,6.61-5.34,6.33-8.09l.74-.08c.32,3.06-2.06,6.2-6.71,8.82A46.26,46.26,0,0,1,44.12,45,57.79,57.79,0,0,1,38.16,45.26Z"/><path class="cls-2" d="M39.45,57.57A41.25,41.25,0,0,1,27.24,55.9c-5.09-1.61-8.07-4.18-8.39-7.25l.74-.08c.29,2.75,3.08,5.1,7.87,6.61a45.55,45.55,0,0,0,17.87,1.33c13.58-1.42,24.14-7.29,23.53-13.08l.75-.08c.65,6.2-10.21,12.44-24.2,13.9A58,58,0,0,1,39.45,57.57Z"/><path class="cls-2" d="M40.83,69.87c-11.32,0-20.14-3.59-20.7-8.91L16.27,24,17,24c.29,2.75,3.08,5.09,7.87,6.61a45.7,45.7,0,0,0,17.86,1.32A45.44,45.44,0,0,0,60,26.9c4.37-2.47,6.62-5.34,6.33-8.09l.75-.08h0L70.9,55.66c.64,6.2-10.21,12.44-24.21,13.9A56.18,56.18,0,0,1,40.83,69.87Zm-19.95-9c.6,5.8,12.15,9.35,25.73,7.94s24.15-7.29,23.54-13.09L66.58,21.56c-.9,2.11-3,4.18-6.25,6-4.55,2.58-10.77,4.38-17.5,5.09a46.31,46.31,0,0,1-18.17-1.36c-3.52-1.11-6-2.69-7.35-4.57Z"/><path class="cls-2" d="M23.64,37.73a2,2,0,0,1-2-1.81,2,2,0,0,1,1.8-2.22,2,2,0,0,1,2.22,1.8h0a2,2,0,0,1-1.8,2.22Zm0-3.29h-.13a1.28,1.28,0,0,0-.86.47,1.24,1.24,0,0,0-.27.93,1.27,1.27,0,0,0,.46.86,1.25,1.25,0,0,0,.93.27,1.27,1.27,0,0,0-.13-2.53Z"/><path class="cls-2" d="M24.93,50a2,2,0,0,1-1.57-3.3,2,2,0,0,1,2.84-.29A2,2,0,0,1,25.14,50Zm0-3.29h-.14a1.26,1.26,0,0,0-.85.47,1.27,1.27,0,0,0,1.12,2.06,1.27,1.27,0,0,0,1.13-1.4h0a1.26,1.26,0,0,0-1.26-1.13Z"/><path class="cls-2" d="M26.21,62.35a2,2,0,0,1-1.57-3.3,2.05,2.05,0,0,1,2.85-.3,2,2,0,0,1,.73,1.37h0a2,2,0,0,1-1.8,2.22Zm0-3.3h-.13a1.27,1.27,0,0,0-.85.46,1.24,1.24,0,0,0-.28.94,1.27,1.27,0,0,0,1.4,1.13,1.28,1.28,0,0,0,1.13-1.4h0A1.28,1.28,0,0,0,26.21,59.05Z"/><rect class="cls-3" x="72.71" y="19.13" width="56.84" height="46.22" transform="translate(48.42 138.32) rotate(-83.92)"/><path class="cls-1" d="M82.93,13.73l42,4.47-5.59,52.54-42-4.47,5.59-52.54m-3.55-4.4L72.94,69.82l49.93,5.32,6.44-60.5L79.38,9.33Z"/><path class="cls-2" d="M80.05,10.15l48.44,5.16-6.29,59L73.76,69.16l6.29-59m-.67-.82L72.94,69.82l49.93,5.32,6.44-60.5L79.38,9.33Z"/><path class="cls-2" d="M93.88,38,118,40.59l-.4,3.8L93.47,41.82l.41-3.8m-.67-.82-.56,5.29,25.64,2.73.56-5.29L93.21,37.2Z"/><path class="cls-2" d="M86.44,28.37,119,31.83l-.4,3.8L86,32.17l.4-3.8m-.66-.83-.57,5.29,34,3.62.57-5.28-34-3.63Z"/><path class="cls-2" d="M87.38,19.59l32.52,3.46-.41,3.79L87,23.38l.41-3.79m-.67-.83-.56,5.29,34,3.62.56-5.29-34-3.62Z"/><path class="cls-1" d="M79.66,10.24l.07-.66L92.64,1.31A5.93,5.93,0,0,1,95.83.38q.32,0,.63,0l18,1.92A6,6,0,0,1,118,4l10.88,10.81-.07.66Z"/><path class="cls-2" d="M95.83.75h0a5.68,5.68,0,0,1,.59,0l18,1.92a5.52,5.52,0,0,1,3.32,1.58L128.52,15v.11L80.07,9.91V9.8L92.84,1.63a5.5,5.5,0,0,1,3-.88m0-.75a6.29,6.29,0,0,0-3.39,1L79.38,9.37l-.13,1.2,49.93,5.32.13-1.21-11-10.93A6.27,6.27,0,0,0,114.53,2L96.5,0a5,5,0,0,0-.67,0Z"/><path class="cls-2" d="M87.21,41.62l-.26,0a2.32,2.32,0,0,1-1.6-.87A2.4,2.4,0,0,1,84.83,39a2.38,2.38,0,0,1,4.23-1.24,2.39,2.39,0,0,1-.36,3.35A2.4,2.4,0,0,1,87.21,41.62Zm0-4a1.65,1.65,0,0,0-1,.36,1.66,1.66,0,0,0-.6,1.1,1.63,1.63,0,0,0,.35,1.2,1.66,1.66,0,0,0,1.1.6,1.58,1.58,0,0,0,1.2-.36,1.63,1.63,0,0,0-.85-2.89Z"/><polygon class="cls-2" points="80.61 70.16 73.2 78.36 79.13 100.27 83.16 85.03 80.61 70.16"/><polygon class="cls-1" points="79.13 61.57 80.61 70.16 73.2 78.36 79.13 100.27 43.78 88.86 12.26 82.15 11.37 80.2 7.57 79.1 5.76 70.16 0.38 62.57 5.76 42.41 6.21 42.52 56.08 52.03 79.13 61.57"/><path class="cls-2" d="M79.13,100.65l-.12,0L43.66,89.22l-31.48-6.7a.37.37,0,0,1-.26-.21l-.82-1.8L7.47,79.46a.33.33,0,0,1-.26-.28l-1.8-8.87L.07,62.78A.35.35,0,0,1,0,62.47L5.4,42.31A.38.38,0,0,1,5.86,42l.45.12,49.84,9.5,23.12,9.56a.38.38,0,0,1,.23.28L81,70.1a.35.35,0,0,1-.09.31l-7.27,8,5.88,21.72a.35.35,0,0,1-.1.36A.38.38,0,0,1,79.13,100.65ZM12.52,81.82l31.34,6.67L78.58,99.7,72.83,78.46a.38.38,0,0,1,.09-.35L80.2,70l-1.41-8.21L55.93,52.38,6,42.86.78,62.49l5.29,7.45a.47.47,0,0,1,.06.15L7.9,78.81l3.57,1a.4.4,0,0,1,.24.2Z"/><polygon class="cls-1" points="137.83 34.7 139.58 50.5 135.85 57.41 137.83 64.93 137.83 73.41 112.24 84.03 79.13 100.27 83.16 85.03 79.13 61.56 110.08 51.08 137.83 34.7"/><path class="cls-2" d="M79.13,100.64a.41.41,0,0,1-.24-.08.39.39,0,0,1-.12-.39l4-15.16-4-23.39A.37.37,0,0,1,79,61.2L110,50.72l27.68-16.34a.38.38,0,0,1,.36,0,.38.38,0,0,1,.2.3L140,50.46a.41.41,0,0,1,0,.22l-3.66,6.77,1.94,7.39a.28.28,0,0,1,0,.09v8.48a.38.38,0,0,1-.23.35L112.39,84.38,79.29,100.6A.32.32,0,0,1,79.13,100.64Zm.42-38.83,4,23.15a.42.42,0,0,1,0,.16L79.7,99.57l32.38-15.88,25.37-10.53V65l-2-7.48a.36.36,0,0,1,0-.27l3.67-6.8-1.67-15.11L110.27,51.4Z"/><path class="cls-2" d="M10,76.47l-.9-6.53L4.7,63.41,5.32,63,9.79,69.6a.28.28,0,0,1,.06.15l.91,6.62Z"/><path class="cls-2" d="M69.5,83.39l-1.27-6.24a.38.38,0,0,1,.07-.31L74,69.67l.58.47-5.62,7,1.23,6.06Z"/><path class="cls-2" d="M133.24,65.13,131,56.22a.42.42,0,0,1,.06-.31l3.75-5.15.6.45-3.64,5,2.2,8.73Z"/><polygon class="cls-3" points="46.09 89.61 46.09 74.29 43.57 75.73 41.08 71.41 38.74 72.77 35.75 68 35.75 87.15 43.78 88.86 46.09 89.61"/><path class="cls-2" d="M46.47,90.12l-2.81-.9-8.28-1.76V66.69l3.49,5.57,2.35-1.36,2.49,4.32,2.75-1.57ZM36.13,86.85l7.73,1.64,1.86.6V74.94l-2.28,1.3-2.49-4.31-2.32,1.34-2.49-4Z"/></g></g></svg>