<?xml version="1.0" encoding="utf-8"?>
<!-- Generator: Adobe Illustrator 22.0.1, SVG Export Plug-In . SVG Version: 6.00 Build 0)  -->
<svg version="1.1" xmlns="http://www.w3.org/2000/svg" xmlns:xlink="http://www.w3.org/1999/xlink" x="0px" y="0px" width="300px"
	 height="124.33px" viewBox="0 0 300 124.33" enable-background="new 0 0 300 124.33" xml:space="preserve">
<g id="Layer_1">
	<g>
		<g>
			<path opacity="0.5" fill="#989FA1" d="M223.84,123.54H80.93v-0.38c0-18.91,7.32-36.74,20.62-50.19
				c11.67-11.84,27.17-19.26,43.64-20.91c0.9-0.08,1.73-0.15,2.57-0.2c0.56-0.05,1.12-0.08,1.7-0.09c0.47-0.02,0.94-0.03,1.42-0.03
				c0.14-0.01,0.34-0.02,0.51-0.02c0.63-0.03,1.31-0.03,1.97,0c0.16,0,0.35,0,0.53,0.02c0.45,0,0.91,0.01,1.38,0.03
				c0.58,0.01,1.14,0.05,1.71,0.09c0.83,0.04,1.66,0.12,2.49,0.19c16.54,1.65,32.06,9.09,43.78,20.95
				c13.27,13.44,20.58,31.26,20.58,50.16V123.54z M81.68,122.79h141.4c-0.1-18.57-7.32-36.05-20.36-49.26
				c-11.6-11.73-26.96-19.09-43.25-20.72c-0.88-0.08-1.7-0.15-2.54-0.2c-0.56-0.05-1.12-0.08-1.68-0.09
				c-0.47-0.02-0.93-0.03-1.4-0.03c-0.19-0.02-0.36-0.02-0.51-0.02c-0.33-0.02-0.71-0.03-0.98-0.01c-0.32,0-0.63,0-0.95,0.01
				c-0.17,0-0.34,0-0.5,0.01c-0.5,0-0.96,0.02-1.43,0.03c-0.57,0.01-1.12,0.04-1.68,0.09c-0.84,0.04-1.66,0.12-2.48,0.19
				c-16.37,1.64-31.71,8.98-43.25,20.7C89.01,86.73,81.78,104.22,81.68,122.79z"/>
			<path fill="#ECEFEF" d="M213.12,123.09v0.08H90.36v-0.08c0-17.81,7.59-33.85,19.7-45.06c5.65-5.25,12.32-9.43,19.65-12.24
				c5.12-1.98,10.6-3.28,16.3-3.81c1.89-0.18,3.81-0.27,5.74-0.27c2.39,0,4.75,0.14,7.06,0.41c6.09,0.7,11.9,2.28,17.31,4.63
				c6.61,2.86,12.62,6.85,17.78,11.73C205.73,89.65,213.12,105.51,213.12,123.09z"/>
			<path opacity="0.5" fill="#989FA1" d="M171.95,123.17v-0.08c0-11.97-1.67-24.32-4.96-36.68c-2.2-8.25-5.06-16.38-8.52-24.15
				c-2.04-4.56-3.81-7.94-4.93-9.96l-0.05-0.18l0.39-0.01l0.31-0.17c1.13,2.04,2.91,5.43,4.96,10.02
				c3.48,7.81,6.36,15.97,8.56,24.26c3.31,12.43,4.99,24.84,4.99,36.88L171.95,123.17z"/>
			<path opacity="0.5" fill="#989FA1" d="M205.19,123.17v-0.08c0-14.43-5.48-28.65-16.29-42.29c-3.7-4.66-8.08-9.3-13.03-13.79
				c-7.43-6.71-14.49-11.56-19.1-14.46l-0.14-0.09l0.41-0.63l0.14,0.09c4.63,2.9,11.73,7.78,19.19,14.53
				c4.98,4.52,9.39,9.19,13.12,13.88c10.92,13.77,16.45,28.16,16.45,42.76L205.19,123.17z"/>
			<path opacity="0.5" fill="#989FA1" d="M132.06,123.17v-0.08c0-12.07,1.68-24.49,5-36.91c2.22-8.35,5.11-16.54,8.61-24.36
				c2.19-4.88,4.01-8.29,4.9-9.88l0.31,0.17l0.39-0.01v0.1l-0.05,0.1c-0.88,1.59-2.69,4.97-4.87,9.83
				c-3.47,7.78-6.36,15.94-8.57,24.25c-3.3,12.36-4.98,24.71-4.98,36.71L132.06,123.17z"/>
			<path opacity="0.5" fill="#989FA1" d="M98.81,123.17v-0.08c0-14.62,5.55-29.02,16.5-42.79c4.05-5.1,8.81-10.08,14.15-14.8
				c7.16-6.31,13.81-10.87,18.13-13.58l0.13-0.09l0.41,0.63L148,52.55c-4.31,2.71-10.92,7.24-18.04,13.51
				c-5.3,4.69-10.03,9.64-14.06,14.71c-10.84,13.63-16.33,27.87-16.33,42.32L98.81,123.17z"/>
			<path opacity="0.5" fill="#989FA1" d="M152.45,87.67c-19.7,0-36.81-4.76-50.86-14.14l0.42-0.62
				c13.92,9.3,30.89,14.01,50.44,14.01c19.53,0,36.46-4.7,50.33-13.96l0.42,0.62C189.2,82.93,172.13,87.67,152.45,87.67z"/>
			<rect x="81.31" y="122.79" opacity="0.5" fill="#989FA1" width="142.16" height="0.75"/>
		</g>
		<g>
			<g>
				<path fill="#FFFFFF" d="M234.28,35.12c9.3,2.07,15.16,11.29,13.08,20.59c-2.07,9.3-11.29,15.16-20.59,13.08
					c-9.3-2.07-15.16-11.29-13.08-20.59C215.76,38.91,224.98,33.05,234.28,35.12z"/>
				<path fill="#989FA1" d="M230.56,69.59c-1.29,0-2.58-0.14-3.87-0.43c-4.59-1.02-8.52-3.78-11.04-7.75
					c-2.53-3.97-3.35-8.69-2.33-13.29c1.02-4.59,3.78-8.52,7.75-11.04c3.97-2.53,8.69-3.35,13.29-2.33l0,0
					c4.59,1.02,8.52,3.78,11.04,7.75c2.53,3.97,3.35,8.69,2.33,13.29c-1.02,4.59-3.78,8.52-7.75,11.04
					C237.11,68.65,233.86,69.59,230.56,69.59z M230.49,35.08c-3.17,0-6.28,0.9-9.02,2.64c-3.8,2.42-6.44,6.17-7.42,10.57
					c-0.98,4.4-0.19,8.92,2.23,12.72c2.42,3.8,6.17,6.44,10.57,7.42c4.4,0.98,8.92,0.19,12.72-2.23c3.8-2.42,6.44-6.17,7.42-10.57
					c0.98-4.4,0.19-8.92-2.23-12.72s-6.17-6.44-10.57-7.42l0,0C232.96,35.21,231.72,35.08,230.49,35.08z"/>
			</g>
			<path fill="#ECEFEF" d="M233.77,37.4c8.04,1.79,13.1,9.76,11.31,17.8c-1.79,8.04-9.76,13.1-17.8,11.31
				c-8.04-1.79-13.1-9.76-11.31-17.8C217.76,40.68,225.73,35.61,233.77,37.4z"/>
		</g>
		<g>
			<path fill="#FFFFFF" d="M76.36,35.91c8.74,3.8,12.74,13.96,8.94,22.7c-3.8,8.74-13.96,12.74-22.7,8.94
				c-8.74-3.8-12.74-13.96-8.94-22.7C57.46,36.11,67.62,32.11,76.36,35.91z"/>
			<path fill="#989FA1" d="M69.48,69.37c-2.39,0-4.77-0.49-7.03-1.47c-4.32-1.88-7.65-5.32-9.37-9.7
				c-1.72-4.38-1.64-9.17,0.24-13.49s5.32-7.65,9.71-9.37c4.38-1.72,9.17-1.64,13.49,0.24l0,0c4.32,1.88,7.64,5.32,9.37,9.71
				c1.73,4.38,1.64,9.17-0.24,13.49c-1.88,4.32-5.32,7.65-9.71,9.37C73.85,68.96,71.66,69.37,69.48,69.37z M69.48,34.85
				c-2.09,0-4.18,0.39-6.19,1.18c-4.19,1.65-7.49,4.84-9.29,8.97s-1.88,8.72-0.23,12.91c1.65,4.19,4.84,7.49,8.97,9.29
				c4.13,1.8,8.72,1.88,12.91,0.23c4.19-1.65,7.49-4.84,9.29-8.97c1.8-4.13,1.88-8.72,0.23-12.91s-4.84-7.49-8.97-9.29l0,0
				C74.05,35.32,71.77,34.85,69.48,34.85z"/>
		</g>
		<path fill="#ECEFEF" d="M75.43,38.06c7.55,3.28,11.01,12.07,7.73,19.62c-3.28,7.55-12.07,11.01-19.62,7.73
			c-7.55-3.28-11.01-12.07-7.73-19.62C59.09,38.23,67.88,34.77,75.43,38.06z"/>
		<g>
			<path fill="#FFFFFF" d="M234.28,35.12c9.3,2.07,15.16,11.29,13.08,20.59c-2.07,9.3-11.29,15.16-20.59,13.08
				c-9.3-2.07-15.16-11.29-13.08-20.59C215.76,38.91,224.98,33.05,234.28,35.12z"/>
			<path fill="#989FA1" d="M230.56,69.59c-1.29,0-2.58-0.14-3.87-0.43c-4.59-1.02-8.52-3.78-11.04-7.75
				c-2.53-3.97-3.35-8.69-2.33-13.29c1.02-4.59,3.78-8.52,7.75-11.04c3.97-2.53,8.69-3.35,13.29-2.33l0,0
				c4.59,1.02,8.52,3.78,11.04,7.75c2.53,3.97,3.35,8.69,2.33,13.29c-1.02,4.59-3.78,8.52-7.75,11.04
				C237.11,68.65,233.86,69.59,230.56,69.59z M230.49,35.08c-3.17,0-6.28,0.9-9.02,2.64c-3.8,2.42-6.44,6.17-7.42,10.57
				c-0.98,4.4-0.19,8.92,2.23,12.72c2.42,3.8,6.17,6.44,10.57,7.42c4.4,0.98,8.92,0.19,12.72-2.23c3.8-2.42,6.44-6.17,7.42-10.57
				c0.98-4.4,0.19-8.92-2.23-12.72s-6.17-6.44-10.57-7.42l0,0C232.96,35.21,231.72,35.08,230.49,35.08z"/>
		</g>
		<path fill="#ECEFEF" d="M233.77,37.4c8.04,1.79,13.1,9.76,11.31,17.8c-1.79,8.04-9.76,13.1-17.8,11.31
			c-8.04-1.79-13.1-9.76-11.31-17.8C217.76,40.68,225.73,35.61,233.77,37.4z"/>
		<g>
			<path fill="#989FA1" d="M60.44,55.08v-0.73c2.63-2.06,4.06-3.27,4.06-4.53c0-0.94-0.78-1.33-1.53-1.33
				c-0.88,0-1.55,0.37-1.98,0.92l-0.56-0.58c0.56-0.74,1.51-1.15,2.54-1.15c1.21,0,2.45,0.69,2.45,2.14c0,1.49-1.51,2.84-3.54,4.45
				h3.58v0.81H60.44z"/>
			<path fill="#989FA1" d="M66.85,51.44c0-1.78,0.79-3.76,2.79-3.76c1.99,0,2.79,1.98,2.79,3.76c0,1.77-0.8,3.77-2.79,3.77
				C67.63,55.21,66.85,53.21,66.85,51.44z M71.5,51.44c0-1.46-0.47-2.95-1.86-2.95s-1.86,1.5-1.86,2.95s0.47,2.96,1.86,2.96
				S71.5,52.89,71.5,51.44z"/>
			<path fill="#989FA1" d="M73.33,49.49c0-1.04,0.72-1.82,1.76-1.82c1.05,0,1.76,0.78,1.76,1.82c0,1.01-0.71,1.78-1.76,1.78
				C74.05,51.27,73.33,50.5,73.33,49.49z M76.19,49.49c0-0.72-0.45-1.26-1.11-1.26c-0.65,0-1.11,0.54-1.11,1.26
				c0,0.69,0.46,1.23,1.11,1.23C75.74,50.71,76.19,50.18,76.19,49.49z M74.39,55.08l4.66-7.3h0.61l-4.67,7.3H74.39z M77.13,53.42
				c0-1.02,0.72-1.8,1.76-1.8c1.04,0,1.75,0.79,1.75,1.8s-0.71,1.79-1.75,1.79C77.86,55.21,77.13,54.43,77.13,53.42z M80,53.42
				c0-0.71-0.45-1.25-1.1-1.25c-0.67,0-1.12,0.54-1.12,1.25c0,0.7,0.45,1.24,1.12,1.24C79.55,54.65,80,54.12,80,53.42z"/>
		</g>
		<g>
			<g>
				<path fill="#989FA1" d="M223.85,55.91v-6.1l-1.17,1.25l-0.55-0.56l1.83-1.88h0.8v7.3H223.85z"/>
				<path fill="#989FA1" d="M226.33,54.87l0.56-0.61c0.48,0.62,1.13,0.97,2.01,0.97c1,0,1.68-0.68,1.68-1.56
					c0-0.96-0.69-1.58-1.67-1.58c-0.63,0-1.19,0.21-1.68,0.68l-0.67-0.23v-3.93h4.46v0.81h-3.56v2.54c0.36-0.35,0.97-0.66,1.71-0.66
					c1.23,0,2.33,0.82,2.33,2.33c0,1.48-1.14,2.41-2.6,2.41C227.68,56.04,226.88,55.59,226.33,54.87z"/>
				<path fill="#989FA1" d="M232.41,50.32c0-1.04,0.72-1.82,1.76-1.82c1.05,0,1.76,0.78,1.76,1.82c0,1.01-0.71,1.78-1.76,1.78
					C233.13,52.1,232.41,51.33,232.41,50.32z M235.28,50.32c0-0.72-0.45-1.26-1.11-1.26c-0.65,0-1.11,0.54-1.11,1.26
					c0,0.69,0.46,1.23,1.11,1.23C234.83,51.54,235.28,51.01,235.28,50.32z M233.47,55.91l4.66-7.3h0.61l-4.67,7.3H233.47z
					 M236.22,54.25c0-1.02,0.72-1.8,1.76-1.8c1.04,0,1.75,0.79,1.75,1.8s-0.71,1.79-1.75,1.79
					C236.94,56.04,236.22,55.26,236.22,54.25z M239.08,54.25c0-0.71-0.45-1.25-1.1-1.25c-0.67,0-1.12,0.54-1.12,1.25
					c0,0.7,0.45,1.24,1.12,1.24C238.64,55.48,239.08,54.95,239.08,54.25z"/>
			</g>
		</g>
		<circle fill="#EEE679" cx="152.12" cy="73.84" r="4.66"/>
		<circle fill="#EEE679" cx="114.72" cy="98.45" r="4.66"/>
		<circle fill="#EEE679" cx="185.07" cy="98.45" r="4.66"/>
		
			<rect x="97.51" y="57.68" transform="matrix(0.7071 -0.7071 0.7071 0.7071 -29.0066 93.1062)" fill="#989FA1" width="0.75" height="47.77"/>
		
			<rect x="178.36" y="81.19" transform="matrix(0.7071 -0.7071 0.7071 0.7071 1.5587 166.8989)" fill="#989FA1" width="47.77" height="0.75"/>
		<g>
			<path fill="#FFFFFF" d="M159.95,2.6c8.74,3.8,12.74,13.96,8.94,22.7c-3.8,8.74-13.96,12.74-22.7,8.94
				c-8.74-3.8-12.74-13.96-8.94-22.7C141.05,2.8,151.21-1.2,159.95,2.6z"/>
			<path fill="#989FA1" d="M153.07,36.06c-2.39,0-4.77-0.49-7.03-1.47c-4.32-1.88-7.65-5.32-9.37-9.71
				c-1.72-4.38-1.64-9.17,0.24-13.49s5.32-7.65,9.71-9.37c4.38-1.73,9.17-1.64,13.49,0.24c4.32,1.88,7.65,5.32,9.37,9.71
				c1.72,4.38,1.64,9.17-0.24,13.49s-5.33,7.65-9.71,9.37C157.44,35.65,155.25,36.06,153.07,36.06z M153.07,1.54
				c-2.09,0-4.18,0.39-6.19,1.18c-4.19,1.65-7.49,4.84-9.29,8.97s-1.88,8.72-0.23,12.91s4.84,7.49,8.97,9.29
				c4.13,1.8,8.72,1.88,12.91,0.23c4.19-1.65,7.49-4.84,9.29-8.97c1.8-4.13,1.88-8.72,0.23-12.91s-4.84-7.49-8.97-9.29l0,0
				C157.64,2.01,155.36,1.54,153.07,1.54z"/>
		</g>
		<path fill="#ECEFEF" d="M159.02,4.75c7.55,3.28,11.01,12.07,7.73,19.62c-3.28,7.55-12.07,11.01-19.62,7.73
			c-7.55-3.28-11.01-12.07-7.73-19.62C142.68,4.92,151.47,1.46,159.02,4.75z"/>
		<g>
			<g>
				<path fill="#989FA1" d="M147.1,20.04c0-0.97,0.83-1.64,1.74-1.92c-0.84-0.24-1.62-0.8-1.62-1.75c0-1.31,1.28-1.89,2.49-1.89
					c1.2,0,2.51,0.58,2.51,1.89c0,0.95-0.79,1.51-1.63,1.75c0.91,0.27,1.74,0.94,1.74,1.92c0,1.24-1.18,1.98-2.62,1.98
					C148.27,22.02,147.1,21.28,147.1,20.04z M151.42,19.94c0-0.95-1.25-1.36-1.7-1.41c-0.45,0.05-1.7,0.46-1.7,1.41
					c0,0.79,0.79,1.27,1.7,1.27C150.62,21.21,151.42,20.72,151.42,19.94z M151.31,16.49c0-0.75-0.71-1.2-1.59-1.2
					c-0.89,0-1.58,0.45-1.58,1.2c0,0.89,1.14,1.18,1.58,1.26C150.17,17.67,151.31,17.38,151.31,16.49z"/>
				<path fill="#989FA1" d="M153.25,16.29c0-1.04,0.72-1.82,1.76-1.82c1.05,0,1.76,0.78,1.76,1.82c0,1.01-0.71,1.78-1.76,1.78
					C153.97,18.08,153.25,17.3,153.25,16.29z M156.11,16.29c0-0.72-0.45-1.26-1.11-1.26c-0.65,0-1.11,0.54-1.11,1.26
					c0,0.69,0.46,1.23,1.11,1.23C155.66,17.52,156.11,16.98,156.11,16.29z M154.31,21.88l4.66-7.3h0.61l-4.67,7.3H154.31z
					 M157.05,20.22c0-1.02,0.72-1.8,1.76-1.8c1.04,0,1.75,0.79,1.75,1.8s-0.71,1.79-1.75,1.79
					C157.77,22.02,157.05,21.24,157.05,20.22z M159.92,20.22c0-0.71-0.45-1.25-1.1-1.25c-0.67,0-1.12,0.54-1.12,1.25
					c0,0.7,0.45,1.24,1.12,1.24C159.47,21.46,159.92,20.92,159.92,20.22z"/>
			</g>
		</g>
		<g>
			<rect x="151.9" y="35.56" fill="#989FA1" width="0.75" height="38.67"/>
		</g>
	</g>
</g>
<g id="Layer_2">
</g>
<g id="Layer_3">
</g>
<g id="Layer_4">
</g>
<g id="Layer_5">
</g>
<g id="Layer_6">
</g>
</svg>
