<?xml version="1.0" encoding="utf-8"?>
<!-- Generator: Adobe Illustrator 22.0.1, SVG Export Plug-In . SVG Version: 6.00 Build 0)  -->
<svg version="1.1" xmlns="http://www.w3.org/2000/svg" xmlns:xlink="http://www.w3.org/1999/xlink" x="0px" y="0px" width="300px"
	 height="125.5px" viewBox="0 0 300 125.5" enable-background="new 0 0 300 125.5" xml:space="preserve">
<g id="Layer_1">
	<g>
		<g>
			<polygon fill="#D9DBDB" points="146.64,102.29 144.77,102.29 144.77,101.54 145.89,101.54 145.89,100.41 146.64,100.41 			"/>
			<path fill="#D9DBDB" d="M138.94,102.29h-2.91v-0.75h2.91V102.29z M130.2,102.29h-2.92v-0.75h2.92V102.29z M121.45,102.29h-2.91
				v-0.75h2.91V102.29z M112.71,102.29h-2.92v-0.75h2.92V102.29z M103.97,102.29h-2.91v-0.75h2.91V102.29z M95.22,102.29h-2.92
				v-0.75h2.92V102.29z M86.48,102.29h-2.91v-0.75h2.91V102.29z M77.74,102.29h-2.92v-0.75h2.92V102.29z M68.99,102.29h-2.91v-0.75
				h2.91V102.29z M60.25,102.29h-2.91v-0.75h2.91V102.29z M51.5,102.29h-2.92v-0.75h2.92V102.29z"/>
			<polygon fill="#D9DBDB" points="42.76,102.29 40.89,102.29 40.89,100.41 41.64,100.41 41.64,101.54 42.76,101.54 			"/>
			<path fill="#D9DBDB" d="M41.64,94.27h-0.75V91.2h0.75V94.27z M41.64,85.06h-0.75V82h0.75V85.06z M41.64,75.86h-0.75v-3.07h0.75
				V75.86z M41.64,66.65h-0.75v-3.07h0.75V66.65z"/>
			<polygon fill="#D9DBDB" points="41.64,57.44 40.89,57.44 40.89,55.56 42.76,55.56 42.76,56.31 41.64,56.31 			"/>
			<path fill="#D9DBDB" d="M138.94,56.31h-2.92v-0.75h2.92V56.31z M130.2,56.31h-2.91v-0.75h2.91V56.31z M121.45,56.31h-2.91v-0.75
				h2.91V56.31z M112.71,56.31h-2.92v-0.75h2.92V56.31z M103.97,56.31h-2.91v-0.75h2.91V56.31z M95.22,56.31h-2.92v-0.75h2.92V56.31
				z M86.48,56.31h-2.91v-0.75h2.91V56.31z M77.74,56.31h-2.92v-0.75h2.92V56.31z M68.99,56.31h-2.91v-0.75h2.91V56.31z
				 M60.25,56.31h-2.92v-0.75h2.92V56.31z M51.5,56.31h-2.91v-0.75h2.91V56.31z"/>
			<polygon fill="#D9DBDB" points="146.64,57.44 145.89,57.44 145.89,56.31 144.77,56.31 144.77,55.56 146.64,55.56 			"/>
			<path fill="#D9DBDB" d="M146.64,94.27h-0.75V91.2h0.75V94.27z M146.64,85.06h-0.75v-3.07h0.75V85.06z M146.64,75.85h-0.75v-3.07
				h0.75V75.85z M146.64,66.65h-0.75v-3.07h0.75V66.65z"/>
		</g>
		<g>
			<polygon fill="#D9DBDB" points="259.31,102.29 257.44,102.29 257.44,101.54 258.56,101.54 258.56,100.41 259.31,100.41 			"/>
			<path fill="#D9DBDB" d="M251.61,102.29h-2.91v-0.75h2.91V102.29z M242.86,102.29h-2.92v-0.75h2.92V102.29z M234.12,102.29h-2.91
				v-0.75h2.91V102.29z M225.38,102.29h-2.92v-0.75h2.92V102.29z M216.63,102.29h-2.91v-0.75h2.91V102.29z M207.89,102.29h-2.92
				v-0.75h2.92V102.29z M199.14,102.29h-2.91v-0.75h2.91V102.29z M190.4,102.29h-2.92v-0.75h2.92V102.29z M181.66,102.29h-2.91
				v-0.75h2.91V102.29z M172.91,102.29H170v-0.75h2.91V102.29z M164.17,102.29h-2.92v-0.75h2.92V102.29z"/>
			<polygon fill="#D9DBDB" points="155.43,102.29 153.55,102.29 153.55,100.41 154.3,100.41 154.3,101.54 155.43,101.54 			"/>
			<path fill="#D9DBDB" d="M154.3,94.27h-0.75V91.2h0.75V94.27z M154.3,85.06h-0.75V82h0.75V85.06z M154.3,75.86h-0.75v-3.07h0.75
				V75.86z M154.3,66.65h-0.75v-3.07h0.75V66.65z"/>
			<polygon fill="#D9DBDB" points="154.3,57.44 153.55,57.44 153.55,55.56 155.43,55.56 155.43,56.31 154.3,56.31 			"/>
			<path fill="#D9DBDB" d="M251.61,56.31h-2.92v-0.75h2.92V56.31z M242.86,56.31h-2.91v-0.75h2.91V56.31z M234.12,56.31h-2.91v-0.75
				h2.91V56.31z M225.38,56.31h-2.92v-0.75h2.92V56.31z M216.63,56.31h-2.91v-0.75h2.91V56.31z M207.89,56.31h-2.92v-0.75h2.92
				V56.31z M199.15,56.31h-2.91v-0.75h2.91V56.31z M190.4,56.31h-2.92v-0.75h2.92V56.31z M181.66,56.31h-2.91v-0.75h2.91V56.31z
				 M172.91,56.31H170v-0.75h2.92V56.31z M164.17,56.31h-2.91v-0.75h2.91V56.31z"/>
			<polygon fill="#D9DBDB" points="259.31,57.44 258.56,57.44 258.56,56.31 257.44,56.31 257.44,55.56 259.31,55.56 			"/>
			<path fill="#D9DBDB" d="M259.31,94.27h-0.75V91.2h0.75V94.27z M259.31,85.06h-0.75v-3.07h0.75V85.06z M259.31,75.85h-0.75v-3.07
				h0.75V75.85z M259.31,66.65h-0.75v-3.07h0.75V66.65z"/>
		</g>
		<g>
			<rect x="68.31" y="67.81" fill="#FFFFFD" width="105.01" height="45.98"/>
			<path fill="#989FA1" d="M173.69,114.16H67.93V67.43h105.76V114.16z M68.68,113.41h104.26V68.18H68.68V113.41z"/>
		</g>
		
			<rect x="102.52" y="42.99" transform="matrix(-1.836970e-16 1 -1 -1.836970e-16 211.605 -30.016)" fill="#ECEFEF" width="36.57" height="95.6"/>
		<g>
			<g>
				<path fill="#989FA1" d="M86.04,96.34V85.89h4.2c2.1,0,3.28,1.44,3.28,3.15s-1.19,3.15-3.28,3.15h-2.9v4.15H86.04z M92.17,89.04
					c0-1.17-0.85-1.99-2.08-1.99h-2.74v3.98h2.74C91.32,91.03,92.17,90.21,92.17,89.04z"/>
				<path fill="#989FA1" d="M102.28,96.34L101.36,94h-5.2l-0.92,2.33h-1.49l4.22-10.45h1.61l4.2,10.45H102.28z M98.75,87.22
					l-2.21,5.64h4.43L98.75,87.22z"/>
				<path fill="#989FA1" d="M107.97,96.34v-4.42l-4.12-6.03h1.52l3.24,4.86l3.24-4.86h1.52l-4.11,6.03v4.42H107.97z"/>
				<path fill="#989FA1" d="M124.46,96.34v-8.79l-3.54,8.79h-0.53l-3.56-8.79v8.79h-1.3V85.89h1.86l3.26,8.05l3.24-8.05h1.86v10.45
					H124.46z"/>
				<path fill="#989FA1" d="M128.99,96.34V85.89h6.85v1.16h-5.55v3.37h5.44v1.16h-5.44v3.6h5.55v1.16H128.99z"/>
				<path fill="#989FA1" d="M146.09,96.34L140,88v8.34h-1.3V85.89h1.33l6.02,8.16v-8.16h1.3v10.45H146.09z"/>
				<path fill="#989FA1" d="M153.16,96.34v-9.29h-3.31v-1.16h7.93v1.16h-3.32v9.29H153.16z"/>
			</g>
		</g>
		<g>
			<rect x="153.92" y="3.03" fill="#FFFFFD" width="105.01" height="45.98"/>
			<path fill="#989FA1" d="M259.3,49.39H153.55V2.66H259.3V49.39z M154.3,48.64h104.26V3.41H154.3V48.64z"/>
		</g>
		
			<rect x="188.14" y="-21.78" transform="matrix(-1.836970e-16 1 -1 -1.836970e-16 232.4485 -180.4023)" fill="#ECEFEF" width="36.57" height="95.6"/>
		<g>
			<g>
				<path fill="#989FA1" d="M178.5,31.57V21.12h4.65c1.82,0,2.93,1.1,2.93,2.66c0,1.32-0.88,2.19-1.83,2.4
					c1.11,0.17,2.04,1.32,2.04,2.57c0,1.68-1.11,2.82-3.02,2.82H178.5z M184.74,23.97c0-0.94-0.63-1.69-1.8-1.69h-3.13v3.37h3.13
					C184.11,25.64,184.74,24.92,184.74,23.97z M184.94,28.61c0-0.96-0.66-1.8-1.93-1.8h-3.21v3.6h3.21
					C184.22,30.41,184.94,29.72,184.94,28.61z"/>
				<path fill="#989FA1" d="M189.14,31.57V21.12h1.3v10.45H189.14z"/>
				<path fill="#989FA1" d="M193.5,31.57V21.12h1.3v9.29h4.86v1.16H193.5z"/>
				<path fill="#989FA1" d="M202.01,31.57V21.12h1.3v9.29h4.86v1.16H202.01z"/>
				<path fill="#989FA1" d="M210.7,31.57V21.12h1.3v10.45H210.7z"/>
				<path fill="#989FA1" d="M222.62,31.57l-6.1-8.34v8.34h-1.3V21.12h1.33l6.02,8.16v-8.16h1.3v10.45H222.62z"/>
				<path fill="#989FA1" d="M226.68,26.35c0-3.26,2.4-5.41,5.38-5.41c1.87,0,3.15,0.82,4.06,1.94l-1.03,0.66
					c-0.66-0.85-1.77-1.44-3.03-1.44c-2.29,0-4.03,1.74-4.03,4.25c0,2.48,1.74,4.25,4.03,4.25c1.25,0,2.29-0.6,2.82-1.13v-2.12h-3.6
					v-1.16h4.89v3.76c-0.97,1.1-2.4,1.82-4.11,1.82C229.08,31.77,226.68,29.59,226.68,26.35z"/>
			</g>
		</g>
		<g>
			<rect x="41.06" y="3.03" fill="#FFFFFD" width="105.01" height="45.98"/>
			<path fill="#989FA1" d="M146.45,49.39H40.69V2.66h105.76V49.39z M41.44,48.64H145.7V3.41H41.44V48.64z"/>
		</g>
		
			<rect x="75.28" y="-21.78" transform="matrix(-1.836970e-16 1 -1 -1.836970e-16 119.5919 -67.5458)" fill="#ECEFEF" width="36.57" height="95.6"/>
		<g>
			<g>
				<path fill="#989FA1" d="M69.25,31.57v-8.79l-3.54,8.79h-0.53l-3.56-8.79v8.79h-1.3V21.12h1.86l3.26,8.05l3.24-8.05h1.86v10.45
					H69.25z"/>
				<path fill="#989FA1" d="M76.82,31.57v-4.42l-4.12-6.03h1.52l3.24,4.86l3.24-4.86h1.52l-4.11,6.03v4.42H76.82z"/>
				<path fill="#989FA1" d="M88.8,26.35c0-3.21,2.37-5.41,5.38-5.41c1.85,0,3.13,0.88,3.96,2.07l-1.08,0.61
					c-0.6-0.89-1.69-1.52-2.88-1.52c-2.29,0-4.03,1.74-4.03,4.25c0,2.48,1.74,4.25,4.03,4.25c1.19,0,2.29-0.64,2.88-1.52l1.1,0.59
					c-0.88,1.21-2.13,2.08-3.98,2.08C91.16,31.76,88.8,29.56,88.8,26.35z"/>
				<path fill="#989FA1" d="M108.01,31.57l-0.92-2.33h-5.2l-0.92,2.33h-1.49l4.22-10.45h1.61l4.2,10.45H108.01z M104.49,22.45
					l-2.21,5.64h4.43L104.49,22.45z"/>
				<path fill="#989FA1" d="M117.7,31.57l-2.65-4.15h-2.1v4.15h-1.3V21.12h4.2c1.91,0,3.29,1.22,3.29,3.15
					c0,1.88-1.3,2.92-2.73,3.04l2.82,4.26H117.7z M117.79,24.27c0-1.19-0.86-1.99-2.1-1.99h-2.74v4h2.74
					C116.93,26.27,117.79,25.44,117.79,24.27z"/>
				<path fill="#989FA1" d="M124.41,31.57v-9.29h-3.31v-1.16h7.93v1.16h-3.32v9.29H124.41z"/>
			</g>
		</g>
		<g>
			<polygon fill="#FFFFFF" points="178.28,111.87 174.35,113.92 177.72,120.36 173.69,122.47 170.33,116.02 166.4,118.07 
				166.97,104.68 			"/>
			<path fill="#989FA1" d="M173.54,122.97l-3.37-6.44L166,118.7l0.62-14.68l12.41,7.88l-4.17,2.18l3.37,6.44L173.54,122.97z
				 M170.48,115.52l3.37,6.44l3.37-1.76l-3.37-6.44l3.68-1.92l-10.21-6.48l-0.51,12.09L170.48,115.52z"/>
		</g>
	</g>
</g>
<g id="Layer_2">
</g>
<g id="Layer_3">
</g>
<g id="Layer_4">
</g>
<g id="Layer_5">
</g>
<g id="Layer_6">
</g>
</svg>
