<?xml version="1.0" encoding="utf-8"?>
<!-- Generator: Adobe Illustrator 22.0.1, SVG Export Plug-In . SVG Version: 6.00 Build 0)  -->
<svg version="1.1" xmlns="http://www.w3.org/2000/svg" xmlns:xlink="http://www.w3.org/1999/xlink" x="0px" y="0px" width="300px"
	 height="124.33px" viewBox="0 0 300 124.33" enable-background="new 0 0 300 124.33" xml:space="preserve">
<g id="Layer_1">
	<g>
		<polygon fill="#ECEFEF" points="140.12,46.27 140.12,69.26 136.98,67.47 133.87,72.86 130.96,71.16 127.23,77.11 127.23,54.2 
			66.33,32.68 79.85,24.78 		"/>
		<path fill="#989FA1" d="M108.13,123.75c-0.06,0-0.13-0.02-0.18-0.05c-0.12-0.07-0.19-0.19-0.19-0.33V65.94
			c0-0.13,0.07-0.25,0.18-0.32l19.1-11.73c0.12-0.07,0.26-0.08,0.38-0.01c0.12,0.07,0.19,0.19,0.19,0.33v21.61l3.04-4.84
			c0.11-0.17,0.33-0.23,0.51-0.12l2.59,1.5l2.91-5.06c0.1-0.18,0.33-0.24,0.51-0.14l2.58,1.47l0.01-22.35
			c0-0.13,0.07-0.25,0.18-0.32l17.36-10.67c0.12-0.07,0.26-0.08,0.38-0.01c0.12,0.07,0.19,0.19,0.19,0.33v57.45
			c0,0.13-0.07,0.25-0.18,0.32l-49.36,30.33C108.27,123.73,108.2,123.75,108.13,123.75z M108.5,66.15v56.56l48.61-29.87V36.27
			L140.5,46.48l-0.01,22.79c0,0.13-0.07,0.26-0.19,0.32c-0.12,0.07-0.26,0.07-0.37,0l-2.82-1.61l-2.92,5.06
			c-0.05,0.09-0.13,0.15-0.23,0.18c-0.1,0.03-0.2,0.01-0.29-0.04l-2.6-1.51l-3.54,5.64c-0.09,0.14-0.26,0.21-0.42,0.16
			c-0.16-0.05-0.27-0.19-0.27-0.36V54.87L108.5,66.15z"/>
		<path fill="#989FA1" d="M108.13,123.75c-0.04,0-0.08-0.01-0.12-0.02l-61.69-21.64c-0.15-0.05-0.25-0.19-0.25-0.35V44.29
			c0-0.12,0.06-0.23,0.16-0.31c0.1-0.07,0.23-0.09,0.34-0.05l0.38,0.13l61.31,21.51c0.15,0.05,0.25,0.19,0.25,0.35v57.44
			c0,0.12-0.06,0.24-0.16,0.31C108.28,123.73,108.21,123.75,108.13,123.75z M46.82,101.48l60.94,21.37V66.2L46.82,44.82V101.48z"/>
		<path fill="#989FA1" d="M126.85,78.42V54.47L65.44,32.76l14.37-8.39L140.5,46l-0.01,23.91l-3.38-1.92l-3.1,5.39l-2.92-1.7
			L126.85,78.42z M67.22,32.59l60.39,21.35v21.87l3.23-5.15l2.9,1.69l3.1-5.38l2.91,1.66l0.01-22.09L79.89,25.19L67.22,32.59z"/>
		<path fill="#989FA1" d="M108.17,66.35L45.55,44.38l20.74-12.12l61.8,21.85L108.17,66.35z M47.34,44.21l60.75,21.32l18.28-11.23
			L66.37,33.09L47.34,44.21z"/>
		<path fill="#989FA1" d="M140.17,46.68L140,46.62L78.96,24.86l18.69-10.92L97.82,14l60.53,21.5L140.17,46.68z M80.73,24.7
			l59.35,21.16l16.54-10.17L97.73,14.77L80.73,24.7z"/>
		<g>
			<path fill="#989FA1" d="M62.12,94.44v-5.67l3.68,1.25v0.88l-2.74-0.93v1.46l2.68,0.91v0.88l-2.68-0.91v2.46L62.12,94.44z"/>
			<path fill="#989FA1" d="M69.71,97.02l-1.18-2.52l-0.94-0.32v2.12l-0.94-0.32v-5.67l2.36,0.8c1.06,0.36,1.76,1.32,1.76,2.37
				c0,1-0.63,1.34-1.28,1.23l1.32,2.67L69.71,97.02z M69.8,93.15c0-0.54-0.39-1.02-0.92-1.2l-1.3-0.44v1.8l1.3,0.44
				C69.42,93.93,69.8,93.7,69.8,93.15z"/>
			<path fill="#989FA1" d="M75.47,98.98l-0.39-1.23l-2.46-0.84l-0.39,0.96l-1.07-0.36l2.11-4.95l1.17,0.4l2.11,6.38L75.47,98.98z
				 M73.85,93.75l-0.97,2.38l1.93,0.66L73.85,93.75z"/>
			<path fill="#989FA1" d="M76.6,96.53c0-1.79,1.26-2.51,2.82-1.98c1.05,0.35,1.73,1.11,2.16,1.91l-0.76,0.21
				c-0.29-0.52-0.8-1.03-1.39-1.23c-1.06-0.36-1.85,0.22-1.85,1.42c0,1.18,0.79,2.32,1.85,2.68c0.55,0.19,1.03,0.09,1.27-0.08v-0.88
				l-1.61-0.55v-0.88l2.54,0.86v2.12c-0.52,0.44-1.28,0.6-2.21,0.29C77.86,99.9,76.6,98.31,76.6,96.53z"/>
			<path fill="#989FA1" d="M82.6,101.4v-5.67l0.94,0.32v5.67L82.6,101.4z"/>
			<path fill="#989FA1" d="M84.62,102.08v-5.67l0.94,0.32v4.79l2.37,0.8v0.88L84.62,102.08z"/>
			<path fill="#989FA1" d="M88.75,103.49v-5.67l3.68,1.25v0.88l-2.74-0.93v1.46l2.68,0.91v0.88l-2.68-0.91v1.58l2.74,0.93v0.88
				L88.75,103.49z"/>
		</g>
		<g>
			<g>
				<path fill="#FFFFFF" d="M243.36,11.16c13.6,13.6,13.6,35.64,0,49.24c-13.6,13.6-35.65,13.6-49.24,0
					c-13.6-13.6-13.6-35.64,0-49.24C207.71-2.45,229.76-2.45,243.36,11.16z"/>
				<path fill="#989FA1" d="M218.73,70.97c-9.4,0-18.24-3.66-24.89-10.31c-6.65-6.65-10.31-15.48-10.31-24.89
					s3.66-18.24,10.31-24.89c6.65-6.65,15.49-10.31,24.89-10.31s18.24,3.66,24.89,10.31l0,0c6.65,6.65,10.31,15.49,10.31,24.89
					s-3.66,18.24-10.31,24.89C236.97,67.31,228.14,70.97,218.73,70.97z M218.73,1.33c-9.2,0-17.85,3.58-24.36,10.09
					c-6.51,6.51-10.09,15.16-10.09,24.36s3.58,17.85,10.09,24.35c6.51,6.51,15.16,10.09,24.36,10.09s17.85-3.58,24.36-10.09
					c6.51-6.51,10.09-15.15,10.09-24.35s-3.58-17.85-10.09-24.36l0,0C236.58,4.91,227.93,1.33,218.73,1.33z"/>
			</g>
			<path fill="#ECEFEF" d="M240.02,14.49c11.76,11.75,11.76,30.81,0,42.57c-11.75,11.76-30.81,11.76-42.57,0
				c-11.76-11.75-11.76-30.81,0-42.57C209.21,2.74,228.26,2.74,240.02,14.49z"/>
			<g>
				<g>
					<path fill="#FFFFFF" d="M239.81,31.28v-1.39c0-0.77-0.63-1.4-1.4-1.4h-1.78c-0.6,0-1.13-0.38-1.32-0.95l-0.34-1.02
						c-0.17-0.5-0.04-1.05,0.34-1.43l1.19-1.19c0.55-0.55,0.55-1.43,0-1.97l-1.75-1.75c-0.55-0.55-1.43-0.55-1.97,0l-1.19,1.19
						c-0.37,0.37-0.93,0.5-1.43,0.34l-1.02-0.34c-0.57-0.19-0.95-0.72-0.95-1.32v-1.78c0-0.77-0.63-1.4-1.4-1.4H224
						c-0.77,0-1.4,0.63-1.4,1.4v1.78c0,0.6-0.38,1.13-0.95,1.32l-1.02,0.34c-0.5,0.17-1.05,0.04-1.43-0.34l-1.19-1.19
						c-0.55-0.55-1.43-0.55-1.97,0l-1.75,1.75c-0.55,0.55-0.55,1.43,0,1.97l1.19,1.19c0.37,0.37,0.5,0.93,0.34,1.43l-0.34,1.02
						c-0.19,0.57-0.72,0.95-1.32,0.95h-1.78c-0.77,0-1.4,0.63-1.4,1.4v1.39v1.39c0,0.77,0.63,1.4,1.4,1.4h1.78
						c0.6,0,1.13,0.38,1.32,0.95l0.34,1.02c0.17,0.5,0.04,1.05-0.34,1.43l-1.19,1.19c-0.55,0.55-0.55,1.43,0,1.97l1.75,1.75
						c0.55,0.55,1.43,0.55,1.97,0l1.19-1.19c0.37-0.37,0.93-0.5,1.43-0.34l1.02,0.34c0.57,0.19,0.95,0.72,0.95,1.32v1.78
						c0,0.77,0.63,1.4,1.4,1.4h2.79c0.77,0,1.4-0.63,1.4-1.4v-1.78c0-0.6,0.38-1.13,0.95-1.32l1.02-0.34
						c0.5-0.17,1.05-0.04,1.43,0.34l1.19,1.19c0.55,0.55,1.43,0.55,1.97,0l1.75-1.75c0.55-0.55,0.55-1.43,0-1.97l-1.19-1.19
						c-0.37-0.37-0.5-0.93-0.34-1.43l0.34-1.02c0.19-0.57,0.72-0.95,1.32-0.95h1.78c0.77,0,1.4-0.63,1.4-1.4V31.28z"/>
					<path fill="#989FA1" d="M226.79,46.07H224c-0.98,0-1.77-0.79-1.77-1.77v-1.78c0-0.44-0.28-0.83-0.7-0.97l-1.02-0.34
						c-0.37-0.12-0.77-0.03-1.05,0.25l-1.19,1.19c-0.67,0.67-1.84,0.67-2.5,0l-1.75-1.75c-0.33-0.33-0.52-0.78-0.52-1.25
						s0.18-0.92,0.52-1.25l1.19-1.19c0.28-0.27,0.37-0.68,0.25-1.04l-0.34-1.02c-0.14-0.42-0.53-0.7-0.97-0.7h-1.78
						c-0.98,0-1.77-0.79-1.77-1.77v-2.79c0-0.98,0.79-1.77,1.77-1.77h1.78c0.44,0,0.83-0.28,0.97-0.7l0.34-1.02
						c0.12-0.37,0.03-0.77-0.25-1.04l-1.19-1.19c-0.33-0.33-0.52-0.78-0.52-1.25s0.18-0.92,0.52-1.25l1.75-1.75
						c0.67-0.67,1.84-0.67,2.5,0l1.19,1.19c0.28,0.27,0.68,0.37,1.05,0.25l1.02-0.34c0.42-0.14,0.7-0.53,0.7-0.97v-1.78
						c0-0.98,0.79-1.77,1.77-1.77h2.79c0.98,0,1.77,0.79,1.77,1.77v1.78c0,0.44,0.28,0.83,0.7,0.97l1.02,0.34
						c0.37,0.12,0.77,0.03,1.05-0.25l1.19-1.19c0.67-0.67,1.84-0.67,2.5,0l1.75,1.75c0.69,0.69,0.69,1.81,0,2.5l-1.19,1.19
						c-0.28,0.27-0.37,0.68-0.25,1.04l0.34,1.02c0.14,0.42,0.53,0.7,0.97,0.7h1.78c0.98,0,1.77,0.79,1.77,1.77v2.79
						c0,0.98-0.79,1.77-1.77,1.77h-1.78c-0.44,0-0.83,0.28-0.97,0.7l-0.34,1.02c-0.12,0.37-0.03,0.77,0.25,1.04l1.19,1.19
						c0.69,0.69,0.69,1.81,0,2.5l-1.75,1.75c-0.67,0.67-1.84,0.67-2.5,0l-1.19-1.19c-0.28-0.27-0.68-0.37-1.04-0.25l-1.02,0.34
						c-0.42,0.14-0.7,0.53-0.7,0.97v1.78C228.56,45.27,227.76,46.07,226.79,46.07z M220.18,40.4c0.19,0,0.38,0.03,0.56,0.09
						l1.02,0.34c0.72,0.24,1.21,0.92,1.21,1.68v1.78c0,0.56,0.46,1.02,1.02,1.02h2.79c0.56,0,1.02-0.46,1.02-1.02v-1.78
						c0-0.76,0.49-1.44,1.21-1.68l1.02-0.34c0.64-0.21,1.33-0.05,1.81,0.43l1.19,1.19c0.39,0.39,1.06,0.39,1.44,0l1.75-1.75
						c0.4-0.4,0.4-1.05,0-1.44l-1.19-1.19c-0.48-0.48-0.64-1.17-0.43-1.81l0.34-1.02c0.24-0.72,0.92-1.21,1.68-1.21h1.78
						c0.56,0,1.02-0.46,1.02-1.02v-2.79c0-0.56-0.46-1.02-1.02-1.02h-1.78c-0.76,0-1.44-0.49-1.68-1.21l-0.34-1.02
						c-0.21-0.64-0.05-1.34,0.43-1.81l1.19-1.19c0.4-0.4,0.4-1.05,0-1.44l-1.75-1.75c-0.39-0.39-1.06-0.39-1.44,0l-1.19,1.19
						c-0.48,0.48-1.17,0.64-1.81,0.43l-1.02-0.34c-0.72-0.24-1.21-0.92-1.21-1.68v-1.78c0-0.56-0.46-1.02-1.02-1.02H224
						c-0.56,0-1.02,0.46-1.02,1.02v1.78c0,0.76-0.49,1.44-1.21,1.68l-1.02,0.34c-0.64,0.21-1.34,0.05-1.81-0.43l-1.19-1.19
						c-0.39-0.39-1.06-0.39-1.44,0l-1.75,1.75c-0.4,0.4-0.4,1.05,0,1.44l1.19,1.19c0.48,0.48,0.64,1.17,0.43,1.81l-0.34,1.02
						c-0.24,0.72-0.92,1.21-1.68,1.21h-1.78c-0.56,0-1.02,0.46-1.02,1.02v2.79c0,0.56,0.46,1.02,1.02,1.02h1.78
						c0.76,0,1.44,0.49,1.68,1.21l0.34,1.02c0.21,0.64,0.05,1.34-0.43,1.81l-1.19,1.19c-0.4,0.4-0.4,1.05,0,1.44l1.75,1.75
						c0.39,0.39,1.06,0.39,1.44,0l1.19-1.19C219.27,40.58,219.72,40.4,220.18,40.4z"/>
				</g>
				<g>
					<path fill="#FFFFFF" d="M224.75,34c2.04,0.45,3.81-1.32,3.36-3.36c-0.23-1.03-1.06-1.85-2.08-2.08
						c-2.04-0.45-3.81,1.32-3.36,3.36C222.9,32.94,223.73,33.77,224.75,34z"/>
					<path fill="#989FA1" d="M225.39,34.44c-0.24,0-0.48-0.03-0.71-0.08h0c-1.18-0.26-2.1-1.19-2.37-2.37
						c-0.24-1.08,0.08-2.19,0.85-2.96c0.77-0.77,1.88-1.09,2.96-0.85c1.18,0.26,2.11,1.19,2.37,2.37c0.24,1.08-0.08,2.19-0.85,2.96
						C227.03,34.11,226.22,34.44,225.39,34.44z M224.83,33.63c0.83,0.18,1.68-0.06,2.27-0.65c0.59-0.59,0.83-1.44,0.65-2.27
						c-0.2-0.88-0.92-1.6-1.8-1.8c-0.83-0.18-1.68,0.06-2.27,0.65s-0.83,1.44-0.65,2.27C223.23,32.71,223.96,33.43,224.83,33.63
						L224.83,33.63z"/>
				</g>
			</g>
			<g>
				<g>
					<path fill="#FFFFFF" d="M211.74,49.49l0.58-0.58c0.32-0.32,0.32-0.84,0-1.16L211.58,47c-0.25-0.25-0.31-0.63-0.15-0.95
						l0.28-0.56c0.14-0.28,0.42-0.45,0.74-0.45h0.99c0.45,0,0.82-0.37,0.82-0.82v-1.45c0-0.45-0.37-0.82-0.82-0.82h-0.99
						c-0.31,0-0.6-0.18-0.74-0.45l-0.28-0.56c-0.16-0.32-0.1-0.7,0.15-0.95l0.74-0.74c0.32-0.32,0.32-0.84,0-1.16l-1.16-1.16
						c-0.32-0.32-0.84-0.32-1.16,0l-0.74,0.74c-0.25,0.25-0.63,0.31-0.95,0.15l-0.56-0.28c-0.28-0.14-0.45-0.42-0.45-0.74v-0.99
						c0-0.45-0.37-0.82-0.82-0.82h-1.45c-0.45,0-0.82,0.37-0.82,0.82v0.99c0,0.31-0.18,0.6-0.45,0.74l-0.56,0.28
						c-0.32,0.16-0.7,0.1-0.95-0.15l-0.74-0.74c-0.32-0.32-0.84-0.32-1.16,0l-0.58,0.58l-0.58,0.58c-0.32,0.32-0.32,0.84,0,1.16
						l0.74,0.74c0.25,0.25,0.31,0.63,0.15,0.95l-0.28,0.56c-0.14,0.28-0.42,0.45-0.74,0.45h-0.99c-0.45,0-0.82,0.37-0.82,0.82v1.45
						c0,0.45,0.37,0.82,0.82,0.82h0.99c0.31,0,0.6,0.18,0.74,0.45l0.28,0.56c0.16,0.32,0.1,0.7-0.15,0.95l-0.74,0.74
						c-0.32,0.32-0.32,0.84,0,1.16l1.16,1.16c0.32,0.32,0.84,0.32,1.16,0l0.74-0.74c0.25-0.25,0.63-0.31,0.95-0.15l0.56,0.28
						c0.28,0.14,0.45,0.42,0.45,0.74v0.99c0,0.45,0.37,0.82,0.82,0.82h1.45c0.45,0,0.82-0.37,0.82-0.82v-0.99
						c0-0.31,0.18-0.6,0.45-0.74l0.56-0.28c0.32-0.16,0.7-0.1,0.95,0.15l0.74,0.74c0.32,0.32,0.84,0.32,1.16,0L211.74,49.49z"/>
					<path fill="#989FA1" d="M206.47,52.38h-1.45c-0.66,0-1.2-0.54-1.2-1.2v-0.99c0-0.17-0.09-0.32-0.25-0.4l-0.56-0.28
						c-0.17-0.09-0.38-0.05-0.52,0.08l-0.74,0.74c-0.45,0.45-1.24,0.45-1.69,0l-1.16-1.16c-0.23-0.23-0.35-0.53-0.35-0.85
						s0.12-0.62,0.35-0.85l0.74-0.74c0.14-0.14,0.17-0.34,0.08-0.52l-0.28-0.56c-0.08-0.15-0.23-0.25-0.4-0.25h-0.99
						c-0.66,0-1.2-0.54-1.2-1.2v-1.45c0-0.66,0.54-1.2,1.2-1.2h0.99c0.17,0,0.32-0.09,0.4-0.25l0.28-0.56
						c0.09-0.17,0.05-0.38-0.08-0.52l-0.74-0.74c-0.23-0.23-0.35-0.53-0.35-0.85s0.12-0.62,0.35-0.85l1.16-1.16
						c0.47-0.47,1.23-0.47,1.69,0l0.74,0.74c0.14,0.14,0.34,0.17,0.52,0.08l0.56-0.28c0.15-0.08,0.25-0.23,0.25-0.4v-0.99
						c0-0.66,0.54-1.2,1.2-1.2h1.45c0.66,0,1.2,0.54,1.2,1.2v0.99c0,0.17,0.09,0.32,0.25,0.4l0.56,0.28
						c0.17,0.09,0.38,0.05,0.52-0.08l0.74-0.74c0.47-0.47,1.23-0.47,1.69,0l1.16,1.16c0.23,0.23,0.35,0.53,0.35,0.85
						s-0.12,0.62-0.35,0.85l-0.74,0.74c-0.14,0.14-0.17,0.34-0.08,0.52l0.28,0.56c0.08,0.15,0.23,0.25,0.4,0.25h0.99
						c0.66,0,1.2,0.54,1.2,1.2v1.45c0,0.66-0.54,1.2-1.2,1.2h-0.99c-0.17,0-0.32,0.09-0.4,0.25l-0.28,0.56
						c-0.09,0.17-0.05,0.38,0.08,0.52l0.74,0.74c0.23,0.23,0.35,0.53,0.35,0.85s-0.12,0.62-0.35,0.85l-1.16,1.16
						c-0.45,0.45-1.24,0.45-1.69,0l-0.74-0.74c-0.14-0.14-0.34-0.17-0.52-0.08l-0.56,0.28c-0.15,0.08-0.25,0.23-0.25,0.4v0.99
						C207.67,51.84,207.13,52.38,206.47,52.38z M202.81,48.71c0.18,0,0.36,0.04,0.54,0.13l0.56,0.28c0.41,0.2,0.66,0.61,0.66,1.07
						v0.99c0,0.25,0.2,0.45,0.45,0.45h1.45c0.25,0,0.45-0.2,0.45-0.45v-0.99c0-0.46,0.25-0.87,0.66-1.07l0.56-0.28
						c0.46-0.23,1.02-0.14,1.38,0.22l0.74,0.74c0.17,0.17,0.46,0.17,0.63,0l1.16-1.16c0.08-0.08,0.13-0.2,0.13-0.32
						c0-0.12-0.05-0.23-0.13-0.32l-0.74-0.74c-0.36-0.37-0.46-0.92-0.22-1.38l0.28-0.56c0.2-0.41,0.61-0.66,1.07-0.66h0.99
						c0.25,0,0.45-0.2,0.45-0.45v-1.45c0-0.25-0.2-0.45-0.45-0.45h-0.99c-0.46,0-0.87-0.25-1.07-0.66l-0.28-0.57
						c-0.23-0.46-0.14-1.02,0.22-1.38l0.74-0.74c0.08-0.08,0.13-0.2,0.13-0.32c0-0.12-0.05-0.23-0.13-0.32l-1.16-1.16
						c-0.17-0.17-0.46-0.17-0.63,0l-0.74,0.74c-0.36,0.36-0.92,0.46-1.38,0.22l-0.56-0.28c-0.41-0.2-0.66-0.61-0.66-1.07v-0.99
						c0-0.25-0.2-0.45-0.45-0.45h-1.45c-0.25,0-0.45,0.2-0.45,0.45v0.99c0,0.46-0.25,0.87-0.66,1.07l-0.56,0.28
						c-0.46,0.23-1.02,0.14-1.38-0.22l-0.74-0.74c-0.17-0.17-0.46-0.17-0.63,0l-1.16,1.16c-0.08,0.08-0.13,0.2-0.13,0.32
						c0,0.12,0.05,0.23,0.13,0.32l0.74,0.74c0.36,0.36,0.46,0.92,0.22,1.38l-0.28,0.56c-0.2,0.41-0.61,0.66-1.07,0.66h-0.99
						c-0.25,0-0.45,0.2-0.45,0.45v1.45c0,0.25,0.2,0.45,0.45,0.45h0.99c0.46,0,0.87,0.25,1.07,0.66l0.28,0.56
						c0.23,0.46,0.14,1.02-0.22,1.38l-0.74,0.74c-0.08,0.08-0.13,0.2-0.13,0.32c0,0.12,0.05,0.23,0.13,0.32l1.16,1.16
						c0.17,0.17,0.46,0.17,0.63,0l0.74-0.74C202.19,48.83,202.5,48.71,202.81,48.71z"/>
				</g>
				<g>
					<path fill="#FFFFFF" d="M204.34,44.35c0.66,1.04,2.14,1.04,2.8,0c0.33-0.52,0.33-1.21,0-1.73c-0.66-1.04-2.14-1.04-2.8,0
						C204.01,43.14,204.01,43.83,204.34,44.35z"/>
					<path fill="#989FA1" d="M205.74,45.5c-0.69,0-1.34-0.35-1.71-0.95c-0.41-0.65-0.41-1.49,0-2.14c0.38-0.59,1.02-0.95,1.71-0.95
						s1.34,0.35,1.71,0.95c0.41,0.65,0.41,1.49,0,2.14C207.08,45.15,206.44,45.5,205.74,45.5z M205.74,42.22
						c-0.44,0-0.84,0.22-1.08,0.6c-0.25,0.4-0.25,0.93,0,1.33c0.49,0.77,1.68,0.77,2.16,0c0.25-0.4,0.25-0.93,0-1.33
						C206.58,42.44,206.19,42.22,205.74,42.22z"/>
				</g>
			</g>
		</g>
		<g>
			<g>
				<path fill="#FFFFFF" d="M182.57,11.16c13.6,13.6,13.6,35.64,0,49.24c-13.6,13.6-35.65,13.6-49.24,0
					c-13.6-13.6-13.6-35.64,0-49.24C146.92-2.45,168.97-2.45,182.57,11.16z"/>
				<path fill="#989FA1" d="M157.95,70.97c-9.4,0-18.24-3.66-24.89-10.31c-6.65-6.65-10.31-15.48-10.31-24.89
					s3.66-18.24,10.31-24.89c6.65-6.65,15.49-10.31,24.89-10.31s18.24,3.66,24.89,10.31l0,0c6.65,6.65,10.31,15.49,10.31,24.89
					s-3.66,18.24-10.31,24.89C176.18,67.31,167.35,70.97,157.95,70.97z M157.95,1.33c-9.2,0-17.85,3.58-24.36,10.09
					c-6.51,6.51-10.09,15.16-10.09,24.36s3.58,17.85,10.09,24.35c6.51,6.51,15.16,10.09,24.36,10.09s17.85-3.58,24.36-10.09
					c6.51-6.51,10.09-15.15,10.09-24.35s-3.58-17.85-10.09-24.36l0,0C175.8,4.91,167.15,1.33,157.95,1.33z"/>
			</g>
			<path fill="#EEE679" d="M179.23,14.49c11.76,11.75,11.76,30.81,0,42.57c-11.75,11.76-30.81,11.76-42.57,0
				c-11.76-11.75-11.76-30.81,0-42.57C148.42,2.74,167.47,2.74,179.23,14.49z"/>
			<g>
				<g>
					<path fill="#FFFFFF" d="M144.29,43.37c0-0.49,0.07-1.81,0.07-2.37c0-2.57-0.99-3.62-3.72-3.62h-0.86v-3.03h0.86
						c2.73,0,3.72-1.05,3.72-3.62c0-0.56-0.07-1.88-0.07-2.37c0-3.39,1.48-5.5,7.48-6.59l0.69,2.63c-3.95,1.09-4.48,2.11-4.48,4.51
						c0,0.66,0.07,1.75,0.07,2.44c0,2.57-1.25,3.82-3.42,4.51c2.21,0.72,3.42,1.94,3.42,4.51c0,0.69-0.07,1.78-0.07,2.44
						c0,2.4,0.53,3.42,4.48,4.51l-0.69,2.63C145.77,48.87,144.29,46.77,144.29,43.37z"/>
					<path fill="#FFFFFF" d="M163.66,47.33c3.95-1.09,4.48-2.11,4.48-4.51c0-0.66-0.07-1.75-0.07-2.44c0-2.57,1.25-3.82,3.42-4.51
						c-2.21-0.72-3.42-1.94-3.42-4.51c0-0.69,0.07-1.78,0.07-2.44c0-2.4-0.53-3.42-4.48-4.51l0.69-2.63
						c5.99,1.09,7.47,3.19,7.47,6.59c0,0.49-0.07,1.81-0.07,2.37c0,2.57,0.99,3.62,3.72,3.62h0.86v3.03h-0.86
						c-2.73,0-3.72,1.05-3.72,3.62c0,0.56,0.07,1.88,0.07,2.37c0,3.39-1.48,5.5-7.47,6.59L163.66,47.33z"/>
				</g>
			</g>
		</g>
	</g>
</g>
<g id="Layer_2">
</g>
<g id="Layer_3">
</g>
<g id="Layer_4">
</g>
<g id="Layer_5">
</g>
<g id="Layer_6">
</g>
</svg>
