<?xml version="1.0" encoding="utf-8"?>
<!-- Generator: Adobe Illustrator 22.1.0, SVG Export Plug-In . SVG Version: 6.00 Build 0)  -->
<svg version="1.1" id="Layer_1" xmlns="http://www.w3.org/2000/svg" xmlns:xlink="http://www.w3.org/1999/xlink" x="0px" y="0px"
	 viewBox="0 0 205 168.6" style="enable-background:new 0 0 205 168.6;" xml:space="preserve">
<style type="text/css">
	.st0{fill:#FFFFFF;}
	.st1{fill:#ECEFEF;}
	.st2{fill:#989FA1;}
	.st3{fill:#EEE679;}
</style>
<title>HtmlShoppingCart-04</title>
<polygon class="st0" points="93.3,165.8 27.7,152.2 27.7,65 93.3,51.4 "/>
<polygon class="st0" points="96.8,163.6 93.3,165.8 92.6,165.6 92.6,51.5 93.3,51.4 96.8,53.6 "/>
<path class="st0" d="M183.8,41.8l-14.5-24.1l-0.1,0.3l-0.2-0.3L115.8,3.5c-3.1-0.8-6.2,1-7.1,4.1l-26.2,97.7c-0.8,3.1,1,6.2,4.1,7.1
	l67.2,18c3.1,0.8,6.2-1,7.1-4.1l22.6-84.4l-0.1-0.2L183.8,41.8z"/>
<polygon class="st1" points="96.8,151.8 119.9,151.8 119.9,121.5 96.8,115.3 "/>
<polygon class="st2" points="128.7,58.9 129.3,56.5 114.1,59.2 113.5,61.5 125.3,71.4 126,69 116.2,61 "/>
<polygon class="st2" points="139.9,55.8 126.8,75.4 129.2,76.1 142.2,56.4 "/>
<polygon class="st2" points="143.8,60.3 143.1,62.8 152.9,70.8 140.4,72.8 139.8,75.3 155,72.6 155.6,70.3 "/>
<path class="st2" d="M59.8,91.6c-1.5,0-2.9,0.4-4.2,1c0.8-0.2,1.7-0.3,2.5-0.3c6.8,0,12.3,7.3,12.3,16.4S64.9,125,58.1,125
	c-0.9,0-1.7-0.1-2.5-0.3c1.3,0.6,2.7,0.9,4.2,0.9c7.1,0,12.8-7.6,12.8-17S66.8,91.6,59.8,91.6z"/>
<path class="st3" d="M58.1,92.2c-0.9,0-1.7,0.1-2.5,0.3c-5.6,1.6-9.8,8.2-9.8,16s4.2,14.5,9.8,16.1c0.8,0.2,1.7,0.3,2.5,0.3
	c6.8,0,12.3-7.3,12.3-16.4S64.9,92.2,58.1,92.2z M57,119.5c-0.8,0-1.5-0.1-2.2-0.4c-4.2-0.2-7.6-4.8-7.6-10.5s3.3-10.2,7.6-10.5
	c0.7-0.3,1.5-0.4,2.2-0.4c4.5,0,8.2,4.9,8.2,10.9S61.5,119.5,57,119.5z"/>
<path class="st2" d="M65.2,108.6c0-6-3.7-10.9-8.2-10.9c-0.8,0-1.5,0.1-2.2,0.4h0.3c4.4,0,7.9,4.7,7.9,10.5s-3.5,10.5-7.9,10.5h-0.3
	c0.7,0.3,1.5,0.4,2.2,0.4C61.5,119.5,65.2,114.6,65.2,108.6z"/>
<path class="st3" d="M55.1,98.1h-0.3c-4.2,0.2-7.6,4.8-7.6,10.5s3.3,10.2,7.6,10.5h0.3c4.4,0,7.9-4.7,7.9-10.5S59.5,98.1,55.1,98.1z
	"/>
<polygon class="st0" points="96,54 93.3,52.3 93.3,58.6 93.3,59.4 93.3,64.1 93.3,65.4 93.3,65.4 93.3,65.5 93.3,66.9 93.3,113.6 
	93.3,113.9 93.3,114.3 93.3,151.8 93.3,157.8 93.3,158.5 93.3,164.9 96,163.1 96,158.5 96,157.8 96,151.8 96,115.1 96,114.7 
	96,114.3 96,65.4 96,59.4 96,58.6 96,56.9 96,55.5 96,54 "/>
<path class="st2" d="M169.4,17.3L116.1,3c-3.3-0.9-6.7,1.1-7.6,4.3L96.2,53.3l-2.9-1.9l-0.8,0.2l0,0l-34.2,7.1H20.9v99.9h8v3.8h12.4
	v-3.8h17l35,7.3l3.4-2.2v-5h9.6v3.8h12.4v-3.8h8v-35.3l27.2,7.3c3.3,0.9,6.7-1.1,7.5-4.3c0,0,0,0,0,0l22.7-84.5L169.4,17.3z
	 M40.5,161.6H29.7v-3h10.8V161.6z M21.6,157.8V59.4h33.1l-27,5.6v12h-2.3v12.4h2.3v38.5h-2.3v12.4h2.3v12l27.1,5.6L21.6,157.8z
	 M26.1,88.6V77.8h3v10.9L26.1,88.6z M29.1,128.6v10.9h-3v-10.9L29.1,128.6z M92.5,164.9l-64.1-13.4v-11.4h1.5v-12.4h-1.5V89.4h1.5
	V77h-1.5V65.6l64.1-13.3L92.5,164.9z M95.9,163.2l-2.7,1.8V52.3L96,54l0,0L95.9,163.2z M169.6,19.5l12.6,21l-17-4.6L169.6,19.5z
	 M117.9,161.6h-10.9v-3h10.9V161.6z M125.9,157.8H96.8v-42.5l29.2,7.8V157.8z M160.7,126c-0.8,2.9-3.7,4.6-6.6,3.8l-57.3-15.4V54.1
	l12.5-46.6c0.6-2.4,2.8-4,5.2-4c0.5,0,0.9,0.1,1.4,0.2l53.1,14.2l0.3,0.5l-4.8,18.1l18.7,5l0.2,0.3L160.7,126z"/>
</svg>
