<?xml version="1.0" encoding="utf-8"?>
<!-- Generator: Adobe Illustrator 22.1.0, SVG Export Plug-In . SVG Version: 6.00 Build 0)  -->
<svg version="1.1" id="Layer_1" xmlns="http://www.w3.org/2000/svg" xmlns:xlink="http://www.w3.org/1999/xlink" x="0px" y="0px"
	 viewBox="0 0 258 124.2" style="enable-background:new 0 0 258 124.2;" xml:space="preserve">
<style type="text/css">
	.st0{fill:#FFFFFF;}
	.st1{fill:#989FA1;}
	.st2{fill:#ECEFEF;}
	.st3{fill:#EEE679;}
</style>
<title>HtmlShoppingCart-03</title>
<path class="st0" d="M91.1,19.7c0-0.6-0.5-1.1-1.1-1.1c-0.1,0-0.1,0-0.2,0h-1.8v2.4h1.8c0.6,0.1,1.2-0.3,1.3-1
	C91.2,19.9,91.2,19.8,91.1,19.7z"/>
<polygon class="st0" points="81.7,18.7 80.4,22.2 83,22.2 "/>
<polygon class="st1" points="40.3,65.5 39.9,65.5 39.9,71.2 40.3,71.2 40.7,71.2 40.7,65.5 "/>
<polygon class="st1" points="212.6,84.2 212.1,84.2 211.7,84.2 211.7,113.2 61.2,113.2 61.2,113.6 61.2,114 212.6,114 "/>
<path class="st1" d="M211.7,7.7v32.2h0.8V7.7c0-2.1-1.7-3.7-3.7-3.7l0,0H43.6c-2,0-3.7,1.7-3.7,3.7v41.7h0.8V7.7
	c0-1.6,1.3-2.9,2.9-2.9h165.2C210.4,4.8,211.7,6.1,211.7,7.7C211.7,7.7,211.7,7.7,211.7,7.7z"/>
<path class="st2" d="M202.7,36.9h-35.8v12.6h35.8V36.9z M201.9,48.6h-34.1V37.7h34.1V48.6z"/>
<rect x="166.4" y="94.3" class="st3" width="36" height="9.5"/>
<rect x="174.8" y="42.7" class="st2" width="20.1" height="0.8"/>
<path class="st2" d="M127.9,49.6h35.7V36.9h-35.7V49.6z M128.7,37.8h34.1v10.9h-34.1L128.7,37.8z"/>
<rect x="135.7" y="42.8" class="st2" width="20.1" height="0.8"/>
<path class="st2" d="M88.7,49.6h35.7V37H88.7V49.6z M89.6,37.8h34.1v10.9H89.6V37.8z"/>
<rect x="96.6" y="42.9" class="st2" width="20.1" height="0.8"/>
<path class="st1" d="M85.4,37.1H49.7v12.6h35.8L85.4,37.1z M84.6,48.9H50.5V37.9h34.1L84.6,48.9z"/>
<rect x="57.5" y="43.1" class="st1" width="20.1" height="0.8"/>
<rect x="61.2" y="63.7" class="st1" width="51.9" height="0.8"/>
<rect x="61.2" y="74.2" class="st1" width="38" height="0.8"/>
<rect x="61.2" y="83.7" class="st1" width="44.9" height="0.8"/>
<polygon class="st1" points="51.1,19.1 53.3,24.8 53.9,24.8 56.2,19.1 56.2,24.8 57.5,24.8 57.5,17.4 55.6,17.4 53.6,22.5 
	51.6,17.4 49.8,17.4 49.8,24.8 51.1,24.8 "/>
<polygon class="st1" points="61.7,24.8 63,24.8 63,21.7 65.9,17.4 64.4,17.4 62.4,20.5 60.3,17.4 58.8,17.4 61.7,21.7 "/>
<path class="st1" d="M74.2,24.9c1.2,0,2.4-0.6,3-1.7l-1.1-0.6c-0.4,0.7-1.1,1.1-1.9,1.1c-1.5-0.1-2.6-1.4-2.5-2.9
	c0.1-1.3,1.2-2.4,2.5-2.5c0.8,0,1.5,0.5,1.9,1.1l1.1-0.6c-0.6-1-1.8-1.7-3-1.7c-2.1,0-3.8,1.7-3.8,3.8s1.7,3.8,3.8,3.8L74.2,24.9z"
	/>
<path class="st1" d="M80,23.4h3.4l0.5,1.4h1.5l-2.9-7.4h-1.6L78,24.8h1.5L80,23.4z M81.7,18.7l1.3,3.5h-2.7L81.7,18.7z"/>
<path class="st1" d="M88.1,22h1.3l1.6,2.8h1.5l-1.8-2.9c1.1-0.2,1.8-1.1,1.8-2.2c0-1.2-0.9-2.3-2.2-2.3c-0.1,0-0.2,0-0.3,0h-3.3v7.4
	h1.3L88.1,22z M88.1,18.5h1.8c0.7,0,1.2,0.5,1.2,1.2s-0.5,1.2-1.2,1.2h-1.8V18.5z"/>
<polygon class="st1" points="96,24.8 97.3,24.8 97.3,18.5 99.5,18.5 99.5,17.4 93.8,17.4 93.8,18.5 96,18.5 "/>
<path class="st2" d="M248.5,25.9l-1.2-1.2c-0.3-0.3-0.8-0.5-1.3-0.5c-0.4,0-0.8,0.1-1.1,0.4l-29.1,24.8l-3.4,2.9l-0.4,0.4l-0.4,0.4
	l-2.4,2.1c-0.2,0.2-0.3,0.5-0.3,0.7c0,0.3,0.1,0.6,0.3,0.8l2.5,2.4l0.4,0.4l0.4,0.4l3.4,3.4l0.8,0.8c0.4,0.4,1.1,0.4,1.5,0
	l30.4-35.7C249.3,27.6,249.3,26.6,248.5,25.9C248.6,25.9,248.6,25.9,248.5,25.9z"/>
<path class="st2" d="M211.7,69.2c-0.1-0.1-0.1-0.2-0.2-0.3l-3.4-3.4l-3.7-3.7c-0.3-0.3-0.6-0.4-1-0.4c-0.4,0-0.7,0.1-1,0.4l-1.9,1.9
	c-0.5,0.5-0.5,1.4,0,1.9l7.1,7.1c0.1,0.1,0.2,0.2,0.4,0.3c0.2,0.1,0.4,0.1,0.6,0.1c0.4,0,0.7-0.1,1-0.4l1.9-1.9
	c0.1-0.1,0.1-0.2,0.2-0.3C212,70.1,212,69.6,211.7,69.2z"/>
<path class="st3" d="M192.5,70.5c0.1,2.9-0.2,5.8-1.1,8.5c-1.1,3.2-2.8,6.2-5.1,8.7l9.5-2.8c5.4-1.5,9-5.4,9-9.3
	c0-1.9-0.8-3.7-2.1-5.1C200.4,68.2,196.1,68.2,192.5,70.5z"/>
<path class="st2" d="M215.2,66.6l-2.7-2.7l-0.4-0.4l-0.4-0.4l-3.6-3.6l-1.5-1.5c0-0.1-0.1-0.1-0.2-0.1c-0.1,0-0.1,0-0.2,0.1
	l-0.6,0.6c-0.1,0-0.1,0.1-0.1,0.2c0,0.1,0,0.1,0.1,0.2l2.4,2.4l3.6,3.6l0.4,0.4l0.4,0.4l1.7,1.7c0.1,0.1,0.3,0.1,0.4,0c0,0,0,0,0,0
	l0.6-0.6C215.3,66.9,215.3,66.8,215.2,66.6C215.2,66.6,215.2,66.6,215.2,66.6z"/>
<path class="st1" d="M249.1,25.3l-1.2-1.2c-0.5-0.5-1.2-0.8-1.8-0.8c-0.6,0-1.2,0.2-1.6,0.6l-28.5,24.3l-3.4,2.9l-0.4,0.4l-0.4,0.4
	l-3,2.5c-0.8,0.7-0.8,1.9-0.1,2.7c0,0,0,0,0.1,0.1l3.1,3l0.4,0.4l0.4,0.4l3.4,3.4l0.2,0.2c0.4,0.4,0.8,0.6,1.4,0.6
	c0.5,0,1-0.2,1.4-0.6l30.4-35.7C250.2,27.8,250.1,26.2,249.1,25.3z M216.7,64l-0.8-0.8l-3.4-3.4l-0.4-0.4l-0.4-0.4l-2.5-2.4
	c-0.2-0.2-0.3-0.5-0.3-0.8c0-0.3,0.1-0.5,0.3-0.7l2.4-2.1l0.4-0.4l0.4-0.4l3.4-2.9L245,24.5c0.3-0.3,0.7-0.4,1.1-0.4
	c0.5,0,0.9,0.2,1.3,0.5l1.2,1.2c0.7,0.6,0.7,1.7,0.1,2.3L218.2,64C217.7,64.4,217.1,64.4,216.7,64L216.7,64z"/>
<path class="st1" d="M212.1,68.3L212.1,68.3l-0.4-0.4l-3.6-3.6l-3.1-3.1c-0.9-0.8-2.3-0.8-3.1,0L200,63c-0.8,0.9-0.8,2.3,0,3.1
	l7.1,7.1c0.3,0.3,0.6,0.5,1,0.6c0.2,0,0.4,0.1,0.6,0.1c0.6,0,1.1-0.2,1.6-0.6l1.5-1.5l0.4-0.4l0,0c0.2-0.2,0.3-0.4,0.4-0.6
	c0.3-0.6,0.3-1.2,0-1.8C212.4,68.7,212.3,68.5,212.1,68.3z M208.7,73.1c-0.2,0-0.4-0.1-0.6-0.1c-0.1-0.1-0.3-0.2-0.4-0.3l-7.1-7.1
	c-0.5-0.5-0.5-1.4,0-1.9l1.9-1.9c0.3-0.3,0.6-0.4,1-0.4c0.4,0,0.7,0.1,1,0.4l3.7,3.7l3.4,3.4c0.4,0.4,0.5,1.1,0.2,1.6
	c-0.1,0.1-0.1,0.2-0.2,0.3l-1.9,1.9C209.4,72.9,209,73.1,208.7,73.1z"/>
<path class="st1" d="M215.8,66l-3.3-3.3l-0.4-0.4l-0.4-0.4l-3.6-3.6l-0.9-0.9c-0.4-0.4-1.1-0.4-1.5,0l-0.6,0.6
	c-0.4,0.4-0.4,1.1,0,1.6l3,3l3.6,3.6l0.4,0.4l0.4,0.4l1.1,1.1c0.4,0.4,1.1,0.4,1.6,0l0.5-0.5c0-0.1,0.1-0.1,0.1-0.2
	c0.2-0.4,0.2-0.8,0-1.2C215.9,66.2,215.9,66.1,215.8,66z M215.2,67l-0.6,0.6c-0.1,0.1-0.3,0.1-0.4,0c0,0,0,0,0,0l-1.7-1.7l-0.4-0.4
	l-0.4-0.4l-3.6-3.6l-2.4-2.4c-0.1-0.1-0.1-0.1-0.1-0.2c0-0.1,0-0.1,0.1-0.2l0.6-0.6c0,0,0.1-0.1,0.2-0.1c0.1,0,0.1,0,0.2,0.1
	l1.5,1.5l3.6,3.6l0.4,0.4l0.4,0.4l2.7,2.7C215.3,66.7,215.3,66.9,215.2,67z"/>
<path class="st1" d="M54.1,71.2c-0.8-2.1-1.8-4.2-3.2-6c-0.2-0.2-0.3-0.5-0.5-0.7c-2.6-3.2-5.9-5.7-9.7-7.3l-0.4-0.2l-0.4-0.2
	c-1.9-0.7-3.9-1.2-6-1.3c-0.7-0.1-1.4-0.1-2.1-0.1c-13.1,0-23.6,10.6-23.7,23.7v5H9v-5c0-12.6,10.2-22.8,22.8-22.9
	c0.7,0,1.4,0,2.1,0.1c2.1,0.2,4.1,0.6,6,1.4l0.4,0.2l0.4,0.2c8.4,3.6,13.9,11.9,13.9,21.1v5h0.8v-5C55.5,76.5,55,73.8,54.1,71.2z"/>
<path class="st2" d="M41.9,87.2v7.4l0,0c0,0.8-0.5,1.4-1.2,1.7c-0.1,0-0.3,0.1-0.4,0.1h-0.1h-0.3c-0.9-0.1-1.5-0.9-1.5-1.8v-7.4
	h-3.6v1.9c0.1,1-0.7,1.9-1.6,1.9c-1,0.1-1.9-0.7-1.9-1.6c0-0.1,0-0.2,0-0.3v-1.9H14v30.4h35.6V87.2H41.9z"/>
<rect x="34.8" y="83.8" class="st1" width="3.6" height="0.8"/>
<rect x="41.9" y="83.8" class="st1" width="3.6" height="0.8"/>
<polygon class="st1" points="49.1,76.7 49.1,77.5 52,77.5 52,83.8 49.1,83.8 49.1,84.7 52,84.7 52,119.3 11.5,119.3 11.5,84.7 
	31.2,84.7 31.2,83.8 11.5,83.8 11.5,77.5 31.2,77.5 31.2,76.7 10.7,76.7 10.7,120.2 52.9,120.2 52.9,76.7 "/>
<path class="st3" d="M49.1,85.3c0,1-0.8,1.8-1.8,1.8c-0.5,0-1-0.2-1.3-0.6l-0.1-0.1c-0.2-0.3-0.3-0.7-0.3-1l0,0v-2.1
	c0-1-0.8-1.8-1.8-1.8S42,82.3,42,83.3l0,0v11.3l0,0c0,0.8-0.5,1.4-1.2,1.7c-0.1,0-0.3,0.1-0.4,0.1h-0.1h-0.3
	c-0.9-0.1-1.5-0.9-1.5-1.8V83.1c-0.1-1-1-1.7-2-1.6c-0.9,0.1-1.6,0.8-1.6,1.7v5.8c0.1,1-0.7,1.9-1.6,1.9c-1,0.1-1.9-0.7-1.9-1.6
	c0-0.1,0-0.2,0-0.3V75.8h17.8V85.3z"/>
</svg>
