<?xml version="1.0" encoding="utf-8"?>
<!-- Generator: Adobe Illustrator 22.0.1, SVG Export Plug-In . SVG Version: 6.00 Build 0)  -->
<svg version="1.1" xmlns="http://www.w3.org/2000/svg" xmlns:xlink="http://www.w3.org/1999/xlink" x="0px" y="0px" width="300px"
	 height="142.33px" viewBox="0 0 300 142.33" enable-background="new 0 0 300 142.33" xml:space="preserve">
<g id="Layer_1">
	<g>
		<path fill="#989FA1" d="M226.93,48.25c-0.51-0.77-1.23-1.36-2.07-1.71l-22.08-9.26l0.33-0.79l22.08,9.26
			c1,0.42,1.84,1.12,2.45,2.02L226.93,48.25z"/>
		<path fill="#989FA1" d="M73.52,48.6l-0.71-0.47c0.92-1.39,2.21-2.46,3.75-3.1l20.33-8.53l0.33,0.79l-20.33,8.53
			C75.51,46.39,74.35,47.35,73.52,48.6z"/>
		<g>
			<g>
				<path fill="#FFFFFF" d="M198.4,128.99l-96.1,0c-2.71,0-4.91-2.2-4.91-4.91L97.39,6.51c0-2.71,2.2-4.91,4.91-4.91l96.1,0
					c2.71,0,4.91,2.2,4.91,4.91l0.01,117.58C203.31,126.79,201.11,128.99,198.4,128.99z"/>
				<path fill="#989FA1" d="M102.3,129.42c-2.94,0-5.34-2.39-5.34-5.34L96.96,6.51c0-2.94,2.39-5.34,5.34-5.34l96.1,0
					c2.94,0,5.34,2.39,5.34,5.34l0,117.58c0,1.43-0.55,2.77-1.56,3.77c-1.01,1.01-2.35,1.56-3.77,1.56L102.3,129.42z M198.4,2.02
					l-96.1,0c-2.47,0-4.48,2.01-4.48,4.48l0.01,117.58c0,2.47,2.01,4.48,4.48,4.48l96.1,0c1.2,0,2.32-0.47,3.17-1.31
					c0.85-0.85,1.31-1.97,1.31-3.17l0-117.58C202.88,4.03,200.87,2.02,198.4,2.02z"/>
			</g>
			<rect x="108.58" y="49.51" fill="#989FA1" width="57.74" height="0.86"/>
			<rect x="108.58" y="59.52" fill="#989FA1" width="57.74" height="0.86"/>
			<rect x="108.58" y="39.49" fill="#989FA1" width="57.74" height="0.86"/>
			<rect x="108.58" y="69.54" fill="#989FA1" width="43.06" height="0.86"/>
			<g>
				<g>
					<path fill="#989FA1" d="M109.72,21.4v-3.93h-1.41v-0.72h3.63v0.72h-1.41v3.93H109.72z"/>
					<path fill="#989FA1" d="M116.2,21.4v-2.03h-2.42v2.03h-0.81v-4.64h0.81v1.89h2.42v-1.89h0.81v4.64H116.2z"/>
					<path fill="#989FA1" d="M121.61,21.4l-0.34-0.9h-2.13l-0.34,0.9h-0.93l1.82-4.64h1.02l1.82,4.64H121.61z M120.2,17.57
						l-0.84,2.21h1.67L120.2,17.57z"/>
					<path fill="#989FA1" d="M126.62,21.4l-2.42-3.32v3.32h-0.81v-4.64h0.84l2.37,3.22v-3.22h0.81v4.64H126.62z"/>
					<path fill="#989FA1" d="M131.51,21.4l-1.55-1.96l-0.41,0.48v1.48h-0.81v-4.64h0.81v2.21l1.82-2.21h1.01l-1.89,2.19l2.03,2.46
						H131.51z"/>
					<path fill="#989FA1" d="M133.11,20.75l0.46-0.63c0.31,0.34,0.82,0.65,1.47,0.65c0.67,0,0.93-0.33,0.93-0.64
						c0-0.97-2.7-0.37-2.7-2.08c0-0.77,0.67-1.36,1.69-1.36c0.72,0,1.31,0.24,1.73,0.65l-0.46,0.61c-0.37-0.37-0.86-0.54-1.35-0.54
						c-0.47,0-0.78,0.24-0.78,0.58c0,0.87,2.7,0.33,2.7,2.06c0,0.77-0.55,1.44-1.8,1.44C134.14,21.48,133.52,21.18,133.11,20.75z"/>
					<path fill="#989FA1" d="M140.03,21.4v-4.64h3.18v0.72h-2.37v1.2h2.32v0.72h-2.32v2.01H140.03z"/>
					<path fill="#989FA1" d="M144.09,19.08c0-1.39,0.98-2.4,2.37-2.4c1.38,0,2.37,1.02,2.37,2.4s-0.99,2.4-2.37,2.4
						C145.07,21.48,144.09,20.47,144.09,19.08z M148,19.08c0-0.96-0.61-1.68-1.54-1.68c-0.94,0-1.54,0.72-1.54,1.68
						c0,0.95,0.6,1.68,1.54,1.68C147.4,20.76,148,20.04,148,19.08z"/>
					<path fill="#989FA1" d="M152.62,21.4l-1.02-1.73h-0.81v1.73h-0.81v-4.64H152c0.92,0,1.52,0.59,1.52,1.45
						c0,0.82-0.54,1.27-1.11,1.37l1.14,1.82H152.62z M152.69,18.21c0-0.45-0.33-0.73-0.79-0.73h-1.12v1.48h1.12
						C152.36,18.95,152.69,18.66,152.69,18.21z"/>
					<path fill="#989FA1" d="M109.93,30.35v-1.93l-1.8-2.72h0.93l1.27,1.98l1.27-1.98h0.93l-1.8,2.72v1.93H109.93z"/>
					<path fill="#989FA1" d="M112.91,28.03c0-1.39,0.98-2.4,2.37-2.4c1.38,0,2.37,1.02,2.37,2.4c0,1.38-0.99,2.4-2.37,2.4
						C113.89,30.43,112.91,29.41,112.91,28.03z M116.82,28.03c0-0.96-0.61-1.68-1.54-1.68c-0.94,0-1.54,0.72-1.54,1.68
						c0,0.95,0.6,1.68,1.54,1.68C116.22,29.71,116.82,28.98,116.82,28.03z"/>
					<path fill="#989FA1" d="M118.78,28.51V25.7h0.83v2.78c0,0.74,0.41,1.22,1.18,1.22c0.77,0,1.18-0.48,1.18-1.22V25.7h0.83v2.81
						c0,1.15-0.66,1.92-2.01,1.92C119.45,30.43,118.78,29.66,118.78,28.51z"/>
					<path fill="#989FA1" d="M126.79,30.35l-1.02-1.73h-0.81v1.73h-0.81V25.7h2.04c0.92,0,1.52,0.59,1.52,1.46
						c0,0.82-0.54,1.27-1.11,1.36l1.14,1.82H126.79z M126.87,27.15c0-0.45-0.33-0.73-0.79-0.73h-1.12v1.48h1.12
						C126.53,27.9,126.87,27.6,126.87,27.15z"/>
					<path fill="#989FA1" d="M131.01,30.35V25.7h2.05c0.97,0,1.51,0.66,1.51,1.46c0,0.79-0.54,1.45-1.51,1.45h-1.23v1.74H131.01z
						 M133.73,27.16c0-0.45-0.33-0.74-0.79-0.74h-1.12v1.47h1.12C133.4,27.89,133.73,27.6,133.73,27.16z"/>
					<path fill="#989FA1" d="M135.59,28.51V25.7h0.83v2.78c0,0.74,0.41,1.22,1.18,1.22c0.77,0,1.18-0.48,1.18-1.22V25.7h0.83v2.81
						c0,1.15-0.66,1.92-2.01,1.92C136.26,30.43,135.59,29.66,135.59,28.51z"/>
					<path fill="#989FA1" d="M143.6,30.35l-1.02-1.73h-0.81v1.73h-0.81V25.7h2.04c0.92,0,1.52,0.59,1.52,1.46
						c0,0.82-0.54,1.27-1.11,1.36l1.14,1.82H143.6z M143.68,27.15c0-0.45-0.33-0.73-0.79-0.73h-1.12v1.48h1.12
						C143.34,27.9,143.68,27.6,143.68,27.15z"/>
					<path fill="#989FA1" d="M145.47,28.03c0-1.43,1.07-2.4,2.44-2.4c0.93,0,1.52,0.48,1.86,1.04l-0.69,0.36
						c-0.22-0.39-0.67-0.68-1.17-0.68c-0.92,0-1.6,0.7-1.6,1.68c0,0.97,0.68,1.68,1.6,1.68c0.49,0,0.95-0.29,1.17-0.67l0.7,0.35
						c-0.36,0.56-0.93,1.05-1.87,1.05C146.53,30.43,145.47,29.46,145.47,28.03z"/>
					<path fill="#989FA1" d="M153.99,30.35v-2.03h-2.42v2.03h-0.81V25.7h0.81v1.89h2.42V25.7h0.81v4.64H153.99z"/>
					<path fill="#989FA1" d="M159.4,30.35l-0.34-0.9h-2.13l-0.34,0.9h-0.93l1.82-4.64h1.02l1.82,4.64H159.4z M157.99,26.52
						l-0.84,2.21h1.67L157.99,26.52z"/>
					<path fill="#989FA1" d="M160.8,29.69l0.46-0.63c0.31,0.34,0.82,0.65,1.47,0.65c0.67,0,0.93-0.33,0.93-0.64
						c0-0.97-2.7-0.37-2.7-2.07c0-0.77,0.67-1.37,1.69-1.37c0.72,0,1.31,0.24,1.73,0.65l-0.46,0.61c-0.37-0.37-0.86-0.54-1.35-0.54
						c-0.47,0-0.78,0.24-0.78,0.58c0,0.87,2.7,0.33,2.7,2.06c0,0.77-0.55,1.44-1.8,1.44C161.84,30.43,161.22,30.12,160.8,29.69z"/>
					<path fill="#989FA1" d="M165.58,30.35V25.7h3.18v0.72h-2.37v1.2h2.32v0.72h-2.32v1.29h2.37v0.72H165.58z"/>
				</g>
			</g>
			<path fill="#EEE679" d="M196.76,16.15l-7.77-4.49c-0.68-0.39-1.79-0.39-2.47,0l-7.77,4.49c-0.68,0.39-1.23,1.35-1.23,2.14v8.97
				c0,0.78,0.56,1.75,1.23,2.14l7.77,4.49c0.68,0.39,1.79,0.39,2.47,0l7.77-4.49c0.68-0.39,1.23-1.35,1.23-2.14v-8.97
				C198,17.5,197.44,16.54,196.76,16.15z M194.67,20.98h-0.81v-1.37c0-1.05-0.81-1.37-2.36-1.37h-0.07c-3.73,0-3.4-1.4-3.51-1.91
				h-0.05c-0.11,0.51,0.25,1.91-3.48,1.91h-0.1c-1.56,0-2.36,0.32-2.36,1.37v1.06l12.74,3.68v0.21h0v1.32c0,1.5-0.72,2.34-3.17,2.34
				h-0.12c-1.91,0-3.08,0.4-3.08,1.91h-0.81c0-1.5-1.17-1.91-3.08-1.91h-0.12c-2.44,0-3.17-0.83-3.17-2.34v-1.32h0.81v1.37
				c0,1.05,0.81,1.37,2.36,1.37h0.07c3.73,0,3.4,1.4,3.51,1.91h0.05c0.11-0.51-0.25-1.91,3.48-1.91h0.1c1.56,0,2.36-0.32,2.36-1.37
				v-0.79l-12.74-3.68v-0.48h0v-1.32c0-1.5,0.72-2.34,3.17-2.34h0.12c1.91,0,3.08-0.4,3.08-1.91h0.81c0,1.5,1.17,1.91,3.08,1.91
				h0.12c2.44,0,3.17,0.83,3.17,2.34V20.98z"/>
		</g>
		<g>
			<path fill="#FFFFFF" d="M228.15,50.86v81.93c0,4.39-3.56,7.95-7.95,7.95H79.8c-4.39,0-7.95-3.56-7.95-7.95V52.75
				c0-1.59,0.48-3.11,1.32-4.39l72.61,45.45c2.58,1.62,5.86,1.62,8.45,0l73.06-45.79C227.84,48.84,228.15,49.82,228.15,50.86z"/>
			<path fill="#989FA1" d="M220.2,141.17H79.8c-4.62,0-8.38-3.76-8.38-8.38V52.75c0-1.65,0.48-3.25,1.39-4.63l0.23-0.35L73.39,48
				L146,93.44c2.43,1.52,5.57,1.52,7.99,0l73.41-46.01l0.23,0.34c0.61,0.92,0.94,1.98,0.94,3.08v81.93
				C228.58,137.41,224.82,141.17,220.2,141.17z M73.3,48.95c-0.67,1.15-1.03,2.46-1.03,3.8v80.04c0,4.15,3.37,7.52,7.52,7.52h140.4
				c4.15,0,7.52-3.37,7.52-7.52V50.86c0-0.79-0.2-1.56-0.58-2.25l-72.7,45.56c-2.7,1.7-6.19,1.7-8.9,0L73.3,48.95z"/>
		</g>
		<path fill="#ECEFEF" d="M79.8,136.59c-2.1,0-3.8-1.71-3.8-3.8V55.02l67.58,42.3c1.93,1.21,4.15,1.85,6.42,1.85
			c2.28,0,4.5-0.64,6.43-1.85l67.58-42.35v77.83c0,2.1-1.71,3.8-3.8,3.8H79.8z"/>
		
			<rect x="65.54" y="109.29" transform="matrix(0.6614 -0.75 0.75 0.6614 -48.5366 111.9162)" fill="#989FA1" width="68.31" height="0.86"/>
		
			<rect x="199.65" y="75.57" transform="matrix(0.7505 -0.6608 0.6608 0.7505 -22.5946 159.5846)" fill="#989FA1" width="0.86" height="68.31"/>
	</g>
</g>
<g id="Layer_2">
</g>
<g id="Layer_3">
</g>
<g id="Layer_4">
</g>
<g id="Layer_5">
</g>
<g id="Layer_6">
</g>
</svg>
