<?xml version="1.0" encoding="utf-8"?>
<!-- Generator: Adobe Illustrator 22.0.1, SVG Export Plug-In . SVG Version: 6.00 Build 0)  -->
<svg version="1.1" xmlns="http://www.w3.org/2000/svg" xmlns:xlink="http://www.w3.org/1999/xlink" x="0px" y="0px" width="300px"
	 height="152.33px" viewBox="0 0 300 152.33" enable-background="new 0 0 300 152.33" xml:space="preserve">
<g id="Layer_1">
	<g>
		<g>
			<g>
				<path fill="#FFFFFF" d="M271.32,16.88v69.49c0,2.53-2.07,4.6-4.6,4.6h-55.35c-2.53,0-4.6-2.07-4.6-4.6V5.91
					c0-2.53,2.07-4.6,4.6-4.6h43.83L271.32,16.88z"/>
				<path fill="#989FA1" d="M266.72,91.35h-55.35c-2.74,0-4.98-2.23-4.98-4.98V5.91c0-2.74,2.23-4.98,4.98-4.98h43.99l16.34,15.79
					v69.65C271.7,89.11,269.47,91.35,266.72,91.35z M211.38,1.69c-2.33,0-4.23,1.9-4.23,4.23v80.46c0,2.33,1.9,4.23,4.23,4.23h55.35
					c2.33,0,4.23-1.9,4.23-4.23V17.04L255.06,1.69H211.38z"/>
			</g>
			<path fill="#ECEFEF" d="M211.38,88.09c-0.93,0-1.72-0.79-1.72-1.72V5.91c0-0.93,0.79-1.72,1.72-1.72h42.67l14.39,13.91v68.26
				c0,0.93-0.79,1.72-1.72,1.72H211.38z"/>
			<g>
				<polygon fill="#FFFFFF" points="271.36,16.89 255.25,16.89 255.25,1.32 				"/>
				<path fill="#989FA1" d="M271.36,17.27h-16.11c-0.21,0-0.38-0.17-0.38-0.38V1.32c0-0.15,0.09-0.29,0.23-0.35
					c0.14-0.06,0.3-0.03,0.41,0.08l16.11,15.57c0.11,0.11,0.14,0.27,0.09,0.41S271.51,17.27,271.36,17.27z M255.62,16.52h14.81
					L255.62,2.2V16.52z"/>
			</g>
			<g>
				<path fill="#989FA1" d="M217.01,15.98l0.4-0.51c0.34,0.46,0.82,0.85,1.53,0.85c1.05,0,1.7-0.72,1.7-1.76V9.11h0.66v5.45
					c0,1.6-1.05,2.36-2.32,2.36C218.15,16.92,217.51,16.64,217.01,15.98z"/>
				<path fill="#989FA1" d="M223.78,16.79V9.11h2.88c1.47,0,2.31,1.04,2.31,2.24c0,1.21-0.85,2.24-2.31,2.24h-2.22v3.19H223.78z
					 M228.28,11.36c0-0.97-0.67-1.65-1.69-1.65h-2.15V13h2.15C227.61,13,228.28,12.31,228.28,11.36z"/>
				<path fill="#989FA1" d="M230.64,12.96c0-2.37,1.73-3.97,3.89-3.97c1.27,0,2.19,0.51,2.89,1.31l-0.49,0.36
					c-0.54-0.64-1.42-1.07-2.39-1.07c-1.79,0-3.2,1.37-3.2,3.37c0,1.98,1.4,3.38,3.2,3.38c1.02,0,1.84-0.51,2.25-0.93v-1.84h-2.9
					v-0.59h3.56v2.68c-0.68,0.76-1.7,1.28-2.91,1.28C232.37,16.94,230.64,15.33,230.64,12.96z"/>
			</g>
			<path fill="#989FA1" d="M261.14,73.13h-44.2v-44.2h44.2V73.13z M217.69,72.38h42.7v-42.7h-42.7V72.38z"/>
			<g>
				<polygon fill="#FFFFFF" points="219.48,72.75 229.2,47.07 242.1,63.15 248.46,58.29 258.18,72.75 				"/>
				<path fill="#989FA1" d="M258.88,73.13h-39.94l10.14-26.81l13.08,16.31l6.39-4.88L258.88,73.13z M220.03,72.38h37.45l-9.1-13.55
					l-6.34,4.84l-12.72-15.85L220.03,72.38z"/>
			</g>
			<g>
				<circle fill="#FFFFFF" cx="250.09" cy="41.99" r="4.78"/>
				<path fill="#989FA1" d="M250.09,47.14c-2.84,0-5.15-2.31-5.15-5.15s2.31-5.15,5.15-5.15s5.15,2.31,5.15,5.15
					S252.93,47.14,250.09,47.14z M250.09,37.59c-2.43,0-4.4,1.97-4.4,4.4s1.97,4.4,4.4,4.4s4.4-1.97,4.4-4.4
					S252.52,37.59,250.09,37.59z"/>
			</g>
		</g>
		<g>
			<g>
				<path fill="#FFFFFF" d="M93.68,16.91v70.01c0,2.55-2.09,4.64-4.64,4.64H33.28c-2.55,0-4.64-2.09-4.64-4.64V5.85
					c0-2.55,2.09-4.64,4.64-4.64h44.17L93.68,16.91z"/>
				<path fill="#989FA1" d="M89.04,91.93H33.28c-2.76,0-5.01-2.25-5.01-5.01V5.85c0-2.76,2.25-5.01,5.01-5.01h44.32l16.46,15.91
					v70.17C94.05,89.68,91.8,91.93,89.04,91.93z M33.28,1.59c-2.35,0-4.26,1.91-4.26,4.26v81.07c0,2.35,1.91,4.26,4.26,4.26h55.77
					c2.35,0,4.26-1.91,4.26-4.26V17.06L77.29,1.59H33.28z"/>
			</g>
			<g>
				<polygon fill="#FFFFFF" points="93.68,16.9 77.45,16.9 77.45,1.21 				"/>
				<path fill="#989FA1" d="M93.68,17.28H77.45c-0.21,0-0.38-0.17-0.38-0.38V1.21c0-0.15,0.09-0.29,0.23-0.35
					c0.14-0.06,0.3-0.03,0.41,0.08l16.23,15.69c0.11,0.11,0.14,0.27,0.09,0.41S93.83,17.28,93.68,17.28z M77.82,16.53h14.93
					L77.82,2.1V16.53z"/>
			</g>
			<rect x="38.79" y="33.86" fill="#989FA1" width="44.88" height="0.75"/>
			<rect x="38.79" y="43.59" fill="#989FA1" width="44.88" height="0.75"/>
			<rect x="38.79" y="53.32" fill="#989FA1" width="44.88" height="0.75"/>
			<rect x="38.79" y="63.05" fill="#989FA1" width="44.88" height="0.75"/>
			<rect x="38.79" y="72.78" fill="#989FA1" width="25.07" height="0.75"/>
			<g>
				<path fill="#989FA1" d="M39.39,16.81v-5.15h3.37v0.57h-2.73v1.66h2.68v0.57h-2.68v1.78h2.73v0.57H39.39z"/>
				<path fill="#989FA1" d="M43.8,14.43v-0.51h1.85v0.51H43.8z"/>
				<path fill="#989FA1" d="M46.88,16.81v-5.15h2.29c0.9,0,1.44,0.54,1.44,1.31c0,0.65-0.43,1.08-0.9,1.18c0.55,0.08,1,0.65,1,1.27
					c0,0.83-0.55,1.39-1.49,1.39H46.88z M49.95,13.06c0-0.46-0.31-0.83-0.89-0.83h-1.54v1.66h1.54
					C49.64,13.89,49.95,13.53,49.95,13.06z M50.05,15.35c0-0.47-0.32-0.89-0.95-0.89h-1.58v1.78h1.58
					C49.7,16.24,50.05,15.9,50.05,15.35z"/>
				<path fill="#989FA1" d="M51.91,14.24c0-1.52,1.03-2.66,2.56-2.66s2.56,1.14,2.56,2.66s-1.04,2.66-2.56,2.66
					S51.91,15.76,51.91,14.24z M56.37,14.24c0-1.2-0.75-2.09-1.9-2.09c-1.16,0-1.89,0.89-1.89,2.09c0,1.2,0.73,2.09,1.89,2.09
					C55.62,16.33,56.37,15.43,56.37,14.24z"/>
				<path fill="#989FA1" d="M58.21,14.24c0-1.52,1.03-2.66,2.56-2.66s2.56,1.14,2.56,2.66s-1.04,2.66-2.56,2.66
					S58.21,15.76,58.21,14.24z M62.67,14.24c0-1.2-0.75-2.09-1.9-2.09c-1.16,0-1.89,0.89-1.89,2.09c0,1.2,0.73,2.09,1.89,2.09
					C61.92,16.33,62.67,15.43,62.67,14.24z"/>
				<path fill="#989FA1" d="M67.83,16.81l-1.95-2.32l-0.52,0.59v1.73h-0.64v-5.15h0.64v2.66l2.28-2.66h0.8l-2.15,2.44l2.34,2.71
					H67.83z"/>
			</g>
		</g>
		<g>
			<g>
				<path fill="#FFFFFF" d="M123.66,43.31v77.87c0,2.84-2.32,5.16-5.16,5.16H56.48c-2.84,0-5.16-2.32-5.16-5.16V31.02
					c0-2.84,2.32-5.16,5.16-5.16h49.12L123.66,43.31z"/>
				<path fill="#989FA1" d="M118.5,126.71H56.48c-3.05,0-5.53-2.48-5.53-5.53V31.02c0-3.05,2.48-5.53,5.53-5.53h49.27l18.28,17.67
					v78.03C124.03,124.23,121.55,126.71,118.5,126.71z M56.48,26.24c-2.64,0-4.78,2.14-4.78,4.78v90.16c0,2.64,2.15,4.78,4.78,4.78
					h62.02c2.64,0,4.78-2.15,4.78-4.78V43.47l-17.83-17.23H56.48z"/>
			</g>
			<g>
				<polygon fill="#FFFFFF" points="123.66,43.32 105.61,43.32 105.61,25.87 				"/>
				<path fill="#989FA1" d="M123.66,43.69h-18.06c-0.21,0-0.38-0.17-0.38-0.38V25.87c0-0.15,0.09-0.29,0.23-0.35
					c0.14-0.06,0.3-0.03,0.41,0.08l18.06,17.45c0.11,0.11,0.14,0.27,0.09,0.41S123.81,43.69,123.66,43.69z M105.98,42.94h16.75
					l-16.75-16.19V42.94z"/>
			</g>
			<g>
				<path fill="#989FA1" d="M70.98,43.21v-7.67l-3.13,7.67h-0.28l-3.15-7.67v7.67h-0.73v-8.6h1.1l2.93,7.16l2.91-7.16h1.11v8.6
					H70.98z"/>
				<path fill="#989FA1" d="M74.51,43.21v-8.6h3.22c1.65,0,2.59,1.16,2.59,2.51c0,1.35-0.95,2.51-2.59,2.51h-2.49v3.57H74.51z
					 M79.55,37.12c0-1.08-0.75-1.84-1.9-1.84h-2.41v3.69h2.41C78.81,38.96,79.55,38.19,79.55,37.12z"/>
				<path fill="#989FA1" d="M85.97,43.21v-2.35H81.9V40.2l3.82-5.6h0.99v5.58h1.26v0.67h-1.26v2.35H85.97z M85.97,35.34l-3.31,4.85
					h3.31V35.34z"/>
			</g>
			<path fill="#989FA1" d="M82.37,91.62V74.39l14.92,8.61L82.37,91.62z M83.12,75.69v14.63l12.67-7.32L83.12,75.69z"/>
			<path fill="#989FA1" d="M87.49,101.5c-10.31,0-18.69-8.38-18.69-18.69s8.38-18.69,18.69-18.69s18.69,8.38,18.69,18.69
				S97.8,101.5,87.49,101.5z M87.49,64.87c-9.89,0-17.94,8.05-17.94,17.94s8.05,17.94,17.94,17.94s17.94-8.05,17.94-17.94
				S97.39,64.87,87.49,64.87z"/>
		</g>
		<g>
			<g>
				<path fill="#FFFFFF" d="M249.2,43.37v77.87c0,2.84-2.32,5.16-5.16,5.16h-62.02c-2.84,0-5.16-2.32-5.16-5.16V31.08
					c0-2.84,2.32-5.16,5.16-5.16h49.12L249.2,43.37z"/>
				<path fill="#989FA1" d="M244.05,126.77h-62.02c-3.05,0-5.53-2.48-5.53-5.53V31.07c0-3.05,2.48-5.53,5.53-5.53h49.27l18.28,17.67
					v78.03C249.58,124.29,247.1,126.77,244.05,126.77z M182.03,26.29c-2.64,0-4.78,2.14-4.78,4.78v90.16c0,2.64,2.14,4.78,4.78,4.78
					h62.02c2.64,0,4.78-2.15,4.78-4.78V43.53L231,26.29H182.03z"/>
			</g>
			<g>
				<polygon fill="#FFFFFF" points="249.22,43.39 231.17,43.39 231.17,25.94 				"/>
				<path fill="#989FA1" d="M249.22,43.76h-18.06c-0.21,0-0.38-0.17-0.38-0.38V25.94c0-0.15,0.09-0.29,0.23-0.35
					c0.14-0.06,0.3-0.03,0.41,0.08l18.06,17.45c0.11,0.11,0.14,0.27,0.09,0.41S249.37,43.76,249.22,43.76z M231.54,43.01h16.75
					l-16.75-16.19V43.01z"/>
			</g>
			<rect x="188.16" y="62.27" fill="#989FA1" width="49.92" height="0.75"/>
			<rect x="188.16" y="73.09" fill="#989FA1" width="49.92" height="0.75"/>
			<rect x="188.16" y="83.91" fill="#989FA1" width="49.92" height="0.75"/>
			<rect x="188.16" y="94.73" fill="#989FA1" width="49.92" height="0.75"/>
			<rect x="188.16" y="105.55" fill="#989FA1" width="27.89" height="0.75"/>
			<g>
				<path fill="#989FA1" d="M189.23,43.26v-8.6h3.22c1.65,0,2.59,1.16,2.59,2.51c0,1.35-0.95,2.51-2.59,2.51h-2.49v3.57H189.23z
					 M194.27,37.17c0-1.08-0.75-1.84-1.9-1.84h-2.41v3.69h2.41C193.52,39.02,194.27,38.24,194.27,37.17z"/>
				<path fill="#989FA1" d="M197.23,43.26v-8.6h2.75c2.67,0,4.35,1.95,4.35,4.31c0,2.39-1.68,4.29-4.35,4.29H197.23z M203.55,38.97
					c0-2.01-1.29-3.64-3.57-3.64h-2.01v7.26h2.01C202.25,42.59,203.55,40.98,203.55,38.97z"/>
				<path fill="#989FA1" d="M206.8,43.26v-8.6h5.45v0.67h-4.72v3.18h4.63v0.67h-4.63v4.07H206.8z"/>
			</g>
		</g>
		<g>
			<g>
				<path fill="#FFFFFF" d="M190.64,58.29v87.06c0,3.17-2.59,5.77-5.77,5.77h-69.35c-3.17,0-5.77-2.59-5.77-5.77V44.54
					c0-3.17,2.59-5.77,5.77-5.77h54.92L190.64,58.29z"/>
				<path fill="#989FA1" d="M184.88,151.49h-69.35c-3.39,0-6.14-2.75-6.14-6.14V44.54c0-3.39,2.75-6.14,6.14-6.14h55.07l20.41,19.73
					v87.22C191.02,148.74,188.26,151.49,184.88,151.49z M115.53,39.15c-2.97,0-5.39,2.42-5.39,5.39v100.81
					c0,2.97,2.42,5.39,5.39,5.39h69.35c2.97,0,5.39-2.42,5.39-5.39V58.45L170.3,39.15H115.53z"/>
			</g>
			<path fill="#ECEFEF" d="M115.53,147.28c-1.04,0-1.92-0.88-1.92-1.92V44.54c0-1.04,0.88-1.92,1.92-1.92h53.37l17.9,17.3v85.43
				c0,1.04-0.88,1.92-1.92,1.92H115.53z"/>
			<g>
				<polygon fill="#FFFFFF" points="190.65,58.29 170.46,58.29 170.46,38.78 				"/>
				<path fill="#989FA1" d="M190.65,58.66h-20.19c-0.21,0-0.38-0.17-0.38-0.38V38.78c0-0.15,0.09-0.29,0.23-0.35
					c0.14-0.06,0.3-0.03,0.41,0.08l20.19,19.51c0.11,0.11,0.14,0.27,0.09,0.41S190.8,58.66,190.65,58.66z M170.83,57.91h18.88
					l-18.88-18.25V57.91z"/>
			</g>
			<g>
				<path fill="#989FA1" d="M131.74,58.17v-8.58l-3.5,8.58h-0.32l-3.52-8.58v8.58h-0.82v-9.62h1.23l3.27,8l3.26-8h1.24v9.62H131.74z
					"/>
				<path fill="#989FA1" d="M135.69,58.17v-9.62h3.6c1.85,0,2.9,1.3,2.9,2.81s-1.07,2.81-2.9,2.81h-2.78v3.99H135.69z M141.33,51.36
					c0-1.21-0.84-2.06-2.12-2.06h-2.7v4.12h2.7C140.49,53.42,141.33,52.56,141.33,51.36z"/>
				<path fill="#989FA1" d="M143.9,56.74l0.56-0.49c0.53,0.76,1.47,1.34,2.7,1.34c1.49,0,2.42-0.78,2.42-2.05
					c0-1.38-1.14-1.96-2.58-1.96c-0.39,0-0.75,0.01-0.89,0.03v-0.78c0.14,0.01,0.5,0.01,0.89,0.01c1.28,0,2.44-0.55,2.44-1.83
					c0-1.2-1.07-1.86-2.31-1.86c-1.1,0-1.87,0.43-2.58,1.23l-0.52-0.52c0.68-0.82,1.74-1.46,3.14-1.46c1.67,0,3.1,0.91,3.1,2.54
					c0,1.47-1.24,2.1-2.06,2.25c0.84,0.09,2.21,0.81,2.21,2.39c0,1.59-1.2,2.75-3.24,2.75C145.61,58.34,144.47,57.61,143.9,56.74z"
					/>
			</g>
			<circle fill="#989FA1" cx="134.63" cy="121.53" r="4.8"/>
			<circle fill="#989FA1" cx="164.74" cy="113.13" r="4.8"/>
			<polygon fill="#989FA1" points="139.57,121.53 138.82,121.53 138.82,85.89 169.68,77.27 169.68,113.13 168.93,113.13 
				168.93,78.26 139.57,86.46 			"/>
		</g>
	</g>
</g>
<g id="Layer_2">
</g>
<g id="Layer_3">
</g>
<g id="Layer_4">
</g>
<g id="Layer_5">
</g>
<g id="Layer_6">
</g>
</svg>
