<?xml version="1.0" encoding="utf-8"?>
<!-- Generator: Adobe Illustrator 22.0.1, SVG Export Plug-In . SVG Version: 6.00 Build 0)  -->
<svg version="1.1" xmlns="http://www.w3.org/2000/svg" xmlns:xlink="http://www.w3.org/1999/xlink" x="0px" y="0px" width="300px"
	 height="127.5px" viewBox="0 0 300 127.5" enable-background="new 0 0 300 127.5" xml:space="preserve">
<g id="Layer_1">
	<g>
		<g>
			<rect x="55.81" y="8.45" fill="#ECEFEF" width="157.85" height="97.61"/>
			<path fill="#989FA1" d="M214.03,106.43H55.43V8.07h158.6V106.43z M56.18,105.68h157.1V8.82H56.18V105.68z"/>
		</g>
		<g>
			<path fill="#FFFFFF" d="M213.66,8.45H55.8V3.2c0-1.17,0.95-2.12,2.12-2.12h153.62c1.17,0,2.12,0.95,2.12,2.12V8.45z"/>
			<path fill="#989FA1" d="M214.03,8.82H55.43V3.2c0-1.37,1.12-2.49,2.49-2.49h153.62c1.37,0,2.49,1.12,2.49,2.49V8.82z M56.18,8.07
				h157.11V3.2c0-0.96-0.78-1.74-1.74-1.74H57.92c-0.96,0-1.74,0.78-1.74,1.74V8.07z"/>
		</g>
		<g>
			<path fill="#989FA1" d="M97.87,28.39V22.5h0.73v5.88H97.87z"/>
			<path fill="#989FA1" d="M104.58,28.39l-3.43-4.69v4.69h-0.73V22.5h0.75l3.39,4.59V22.5h0.73v5.88H104.58z"/>
			<path fill="#989FA1" d="M108.87,28.39l-2.37-5.88h0.84l1.98,5.08l1.98-5.08h0.84l-2.36,5.88H108.87z"/>
			<path fill="#989FA1" d="M113.34,28.39V22.5h3.85v0.65h-3.12v1.9h3.06v0.65h-3.06v2.03h3.12v0.65H113.34z"/>
			<path fill="#989FA1" d="M122.96,28.39l-3.43-4.69v4.69h-0.73V22.5h0.75l3.39,4.59V22.5h0.73v5.88H122.96z"/>
			<path fill="#989FA1" d="M126.94,28.39v-5.23h-1.86V22.5h4.46v0.65h-1.87v5.23H126.94z"/>
			<path fill="#989FA1" d="M130.47,25.45c0-1.74,1.18-3.04,2.92-3.04s2.93,1.3,2.93,3.04c0,1.74-1.19,3.04-2.93,3.04
				S130.47,27.19,130.47,25.45z M135.56,25.45c0-1.38-0.86-2.39-2.17-2.39c-1.32,0-2.16,1.01-2.16,2.39c0,1.37,0.84,2.39,2.16,2.39
				C134.7,27.84,135.56,26.82,135.56,25.45z"/>
			<path fill="#989FA1" d="M141.29,28.39l-1.49-2.34h-1.18v2.34h-0.73V22.5h2.36c1.08,0,1.85,0.69,1.85,1.77
				c0,1.06-0.73,1.64-1.53,1.71l1.59,2.4H141.29z M141.35,24.28c0-0.67-0.49-1.12-1.18-1.12h-1.54v2.25h1.54
				C140.86,25.41,141.35,24.94,141.35,24.28z"/>
			<path fill="#989FA1" d="M145.27,28.39V25.9l-2.32-3.4h0.86l1.83,2.73l1.83-2.73h0.86L146,25.9v2.49H145.27z"/>
		</g>
		<rect x="97.21" y="42.77" fill="#FFFFFF" width="108.39" height="55.49"/>
		<g>
			<path fill="#989FA1" d="M104.62,53.36l-1.79-2.46v2.46h-0.6v-3.44h0.62l1.76,2.38v-2.38h0.6v3.44H104.62z"/>
			<path fill="#989FA1" d="M108.61,53.36l-0.25-0.67h-1.58l-0.25,0.67h-0.69l1.35-3.44h0.75l1.35,3.44H108.61z M107.57,50.52
				l-0.62,1.64h1.24L107.57,50.52z"/>
			<path fill="#989FA1" d="M112.9,53.36V50.7l-1.05,2.66h-0.26l-1.06-2.66v2.66h-0.6v-3.44h0.85l0.94,2.36l0.93-2.36h0.85v3.44
				H112.9z"/>
			<path fill="#989FA1" d="M114.5,53.36v-3.44h2.36v0.53h-1.75v0.89h1.72v0.53h-1.72v0.96h1.75v0.53H114.5z"/>
		</g>
		<g>
			<path fill="#989FA1" d="M152.27,53.35v-3.44h1.52c0.72,0,1.12,0.49,1.12,1.08c0,0.58-0.4,1.07-1.12,1.07h-0.91v1.29H152.27z
				 M154.29,50.99c0-0.33-0.24-0.55-0.58-0.55h-0.83v1.09h0.83C154.05,51.53,154.29,51.32,154.29,50.99z"/>
			<path fill="#989FA1" d="M157.64,53.35l-0.76-1.28h-0.6v1.28h-0.6v-3.44h1.51c0.68,0,1.13,0.44,1.13,1.08
				c0,0.61-0.4,0.94-0.82,1.01l0.85,1.35H157.64z M157.7,50.99c0-0.33-0.25-0.54-0.59-0.54h-0.83v1.09h0.83
				C157.45,51.54,157.7,51.32,157.7,50.99z"/>
			<path fill="#989FA1" d="M159.18,53.35v-3.44h0.6v3.44H159.18z"/>
			<path fill="#989FA1" d="M160.63,51.64c0-1.06,0.79-1.78,1.8-1.78c0.69,0,1.12,0.36,1.38,0.77l-0.51,0.27
				c-0.17-0.29-0.5-0.5-0.87-0.5c-0.68,0-1.19,0.52-1.19,1.24c0,0.72,0.5,1.24,1.19,1.24c0.37,0,0.7-0.22,0.87-0.5l0.52,0.26
				c-0.26,0.41-0.69,0.78-1.38,0.78C161.42,53.42,160.63,52.69,160.63,51.64z"/>
			<path fill="#989FA1" d="M164.56,53.35v-3.44h2.36v0.53h-1.75v0.89h1.72v0.53h-1.72v0.96h1.75v0.53H164.56z"/>
		</g>
		<g>
			<rect x="55.89" y="8.45" fill="#FFFFFF" width="33.85" height="97.63"/>
			<path fill="#989FA1" d="M90.11,106.45H55.52V8.08h34.59V106.45z M56.27,105.7h33.09V8.83H56.27V105.7z"/>
		</g>
		<path fill="#989FA1" d="M85.25,22H60.93v-7.86h24.32V22z M61.68,21.25H84.5v-6.36H61.68V21.25z"/>
		<rect x="102.56" y="59.24" fill="#989FA1" width="25.81" height="0.75"/>
		<rect x="102.56" y="65.88" fill="#989FA1" width="18.02" height="0.75"/>
		<rect x="102.56" y="72.52" fill="#989FA1" width="22.32" height="0.75"/>
		<rect x="102.56" y="79.15" fill="#989FA1" width="13.07" height="0.75"/>
		<rect x="102.56" y="85.79" fill="#989FA1" width="20.06" height="0.75"/>
		<rect x="102.56" y="92.43" fill="#989FA1" width="25.81" height="0.75"/>
		<rect x="152.31" y="59.24" fill="#989FA1" width="8.44" height="0.75"/>
		<rect x="152.31" y="65.88" fill="#989FA1" width="8.44" height="0.75"/>
		<rect x="152.31" y="72.52" fill="#989FA1" width="8.44" height="0.75"/>
		<rect x="152.31" y="79.16" fill="#989FA1" width="8.44" height="0.75"/>
		<rect x="152.31" y="85.8" fill="#989FA1" width="8.44" height="0.75"/>
		<rect x="152.31" y="92.44" fill="#989FA1" width="8.44" height="0.75"/>
		<path fill="#989FA1" d="M209.22,6.1c-0.68,0-1.23-0.55-1.23-1.23s0.55-1.23,1.23-1.23s1.23,0.55,1.23,1.23S209.9,6.1,209.22,6.1z
			 M209.22,4.38c-0.26,0-0.48,0.22-0.48,0.48s0.22,0.48,0.48,0.48s0.48-0.22,0.48-0.48S209.49,4.38,209.22,4.38z"/>
		<path fill="#989FA1" d="M205.34,6.1c-0.68,0-1.23-0.55-1.23-1.23s0.55-1.23,1.23-1.23s1.23,0.55,1.23,1.23S206.02,6.1,205.34,6.1z
			 M205.34,4.38c-0.26,0-0.48,0.22-0.48,0.48s0.22,0.48,0.48,0.48s0.48-0.22,0.48-0.48S205.61,4.38,205.34,4.38z"/>
		<path fill="#989FA1" d="M201.46,6.1c-0.68,0-1.23-0.55-1.23-1.23s0.55-1.23,1.23-1.23s1.23,0.55,1.23,1.23S202.14,6.1,201.46,6.1z
			 M201.46,4.38c-0.26,0-0.48,0.22-0.48,0.48s0.22,0.48,0.48,0.48s0.48-0.22,0.48-0.48S201.73,4.38,201.46,4.38z"/>
		<g>
			<g>
				<circle fill="#FFFFFF" cx="189.86" cy="72.09" r="54.33"/>
				<path fill="#989FA1" d="M189.86,126.8c-30.17,0-54.71-24.54-54.71-54.71s24.54-54.71,54.71-54.71s54.71,24.54,54.71,54.71
					S220.03,126.8,189.86,126.8z M189.86,18.13c-29.75,0-53.96,24.21-53.96,53.96s24.21,53.96,53.96,53.96s53.96-24.21,53.96-53.96
					S219.62,18.13,189.86,18.13z"/>
			</g>
			<g>
				<defs>
					<circle id="SVGID_21_" cx="189.86" cy="72.09" r="54.33"/>
				</defs>
				<clipPath id="SVGID_2_">
					<use xlink:href="#SVGID_21_"  overflow="visible"/>
				</clipPath>
				<rect x="206.13" y="15.89" clip-path="url(#SVGID_2_)" fill="#ECEFEF" width="50.14" height="117.01"/>
			</g>
			<path fill="#989FA1" d="M189.86,126.8c-30.17,0-54.71-24.54-54.71-54.71s24.54-54.71,54.71-54.71s54.71,24.54,54.71,54.71
				S220.03,126.8,189.86,126.8z M189.86,18.13c-29.75,0-53.96,24.21-53.96,53.96s24.21,53.96,53.96,53.96s53.96-24.21,53.96-53.96
				S219.62,18.13,189.86,18.13z"/>
			<g>
				<path fill="#989FA1" d="M165.9,42.64c0-3.11,2.12-5.45,5.23-5.45s5.25,2.34,5.25,5.45c0,1.56-0.54,2.92-1.45,3.9l1,1.06
					l-0.9,0.79l-1.03-1.09c-0.79,0.51-1.77,0.79-2.86,0.79C168.01,48.09,165.9,45.75,165.9,42.64z M173.14,46.38l-1.5-1.63
					l0.92-0.77l1.49,1.61c0.62-0.76,0.98-1.79,0.98-2.96c0-2.47-1.53-4.28-3.89-4.28c-2.37,0-3.87,1.82-3.87,4.28
					c0,2.45,1.5,4.28,3.87,4.28C171.89,46.92,172.57,46.73,173.14,46.38z"/>
				<path fill="#989FA1" d="M181.39,47.9v-9.37h-3.34v-1.17h8v1.17h-3.35v9.37H181.39z"/>
				<path fill="#989FA1" d="M191.64,47.9v-4.46l-4.16-6.09h1.53l3.27,4.9l3.27-4.9h1.53l-4.14,6.09v4.46H191.64z"/>
			</g>
			<g>
				<g>
					<path fill="#989FA1" d="M182.45,100.22v-8.4l-1.61,1.72l-0.75-0.77l2.51-2.59h1.1v10.04H182.45z"/>
					<path fill="#989FA1" d="M186.39,95.21c0-2.71,1.26-5.18,4.1-5.18c1.28,0,2.15,0.48,2.77,1.21l-0.63,0.93
						c-0.51-0.6-1.1-1.02-2.14-1.02c-1.96,0-2.83,1.97-2.83,3.95c0,0.14,0,0.26,0,0.39c0.44-0.69,1.55-1.57,2.85-1.57
						c1.81,0,3.28,1.07,3.28,3.21c0,1.73-1.33,3.28-3.51,3.28C187.46,100.4,186.39,97.95,186.39,95.21z M192.52,97.16
						c0-1.48-1.02-2.17-2.3-2.17c-1.01,0-1.97,0.62-2.52,1.49c0.11,1.25,0.77,2.8,2.52,2.8C191.77,99.29,192.52,98.11,192.52,97.16z
						"/>
				</g>
			</g>
			<g>
				<g>
					<path fill="#989FA1" d="M182.94,121.96v-8.4l-1.61,1.72l-0.75-0.77l2.51-2.59h1.1v10.04H182.94z"/>
					<path fill="#989FA1" d="M191.37,121.96v-2.54h-4.77v-1.04l4.31-6.46h1.72v6.4h1.42v1.1h-1.42v2.54H191.37z M191.37,113.07
						l-3.52,5.24h3.52V113.07z"/>
				</g>
			</g>
			<g>
				<g>
					<path fill="#989FA1" d="M184.6,72.93v-0.99h3.61v0.99H184.6z"/>
					<path fill="#989FA1" d="M192.1,76.07v-8.4l-1.61,1.72l-0.75-0.77l2.51-2.59h1.1v10.04H192.1z"/>
				</g>
			</g>
			<polygon fill="#EEE679" points="198.65,71.22 212.63,82 212.63,60.43 			"/>
			<g>
				<circle fill="#EEE679" cx="221.42" cy="71.22" r="17.51"/>
				<g>
					<g>
						<path fill="#FFFFFF" d="M219.3,76.9c0-0.83,0.72-1.56,1.58-1.56c0.86,0,1.56,0.72,1.56,1.56c0,0.86-0.7,1.58-1.56,1.58
							C220.02,78.48,219.3,77.75,219.3,76.9z M219.84,73.62l-0.43-10.43h2.89l-0.41,10.43H219.84z"/>
					</g>
				</g>
			</g>
			<rect x="139.15" y="52.83" fill="#989FA1" width="57.3" height="0.75"/>
		</g>
	</g>
</g>
<g id="Layer_2">
</g>
<g id="Layer_3">
</g>
<g id="Layer_4">
</g>
<g id="Layer_5">
</g>
<g id="Layer_6">
</g>
</svg>
