<svg xmlns="http://www.w3.org/2000/svg" preserveAspectRatio="xMidYMid" width="61.625" height="44.688" viewBox="0 0 61.625 44.688"><defs><style>.cls-1 { fill: #b6bcbd; fill-rule: evenodd; }</style></defs><path d="M61.626 40.705c0 .192-.04.358-.107.5.18.79-.39 1.732-1.337 1.36-9.287-3.65-19.79-4.457-28.26 1.426-.19.465-.623.8-1.115.685-.493.114-.925-.22-1.12-.682-8.467-5.882-18.97-5.074-28.257-1.425-.946.373-1.52-.57-1.333-1.36-.07-.142-.108-.308-.108-.5C.01 29.728.34 18.75.117 7.77c-.006-.282.073-.508.204-.682.08-.158.193-.305.36-.43C9.48.076 22.04-3.402 30.808 4.746c8.765-8.148 21.328-4.67 30.125 1.91.166.125.28.272.36.43.13.174.21.4.203.682-.224 10.98.11 21.957.128 32.937zm-2.41-32.498c-8.05-5.84-19.604-9.29-27.514-1.154-.277.284-.595.37-.893.33-.3.04-.62-.046-.895-.33C22.005-1.083 10.45 2.368 2.4 8.207c.2 10.54-.096 21.08-.13 31.62 9.44-3.358 20.064-3.717 28.538 2.17 8.47-5.887 19.1-5.528 28.534-2.17-.03-10.54-.33-21.08-.13-31.62zM54.396 33.2c-5.867-3.294-13.028-4.234-18.825-.277-1.07.734-2.224-.924-1.152-1.656 6.37-4.35 14.344-3.545 20.846.106 1.125.632.27 2.466-.866 1.828zm-.39-4.708c-3.92-2.2-8.418-3.35-12.7-2.69.383-.67.68-1.387.887-2.132 4.312-.37 8.762.796 12.678 2.995 1.128.632.27 2.465-.862 1.827zm-.39-4.71c-3.428-1.924-7.297-3.043-11.078-2.853-.012-.686-.096-1.357-.247-2.008 4.16-.245 8.425.915 12.194 3.032 1.125.632.27 2.464-.866 1.827zm.39-4.74c-3.93-2.208-8.44-3.355-12.73-2.686-.373-.643-.824-1.246-1.348-1.795 4.99-1.09 10.337.07 14.943 2.656 1.128.63.27 2.464-.862 1.827zm-.39-4.71C48.59 11.51 42.618 10.42 37.364 12.65c-.856-.434-1.774-.733-2.73-.884 6.192-3.627 13.682-2.724 19.848.74 1.125.63.27 2.463-.866 1.827zm-18.32-.29c.567.174 1.112.418 1.623.727.235.14.464.3.686.472l.19.15c.187.155.367.32.54.494.297.3.563.62.8.96.24.336.447.69.624 1.06.06.122.116.247.168.373.117.29.215.584.296.886.043.16.083.324.116.49.093.472.14.957.14 1.45v.058c-.003.227-.013.452-.035.675-.012.12-.027.24-.044.36-.033.24-.08.476-.14.71-.084.35-.196.69-.332 1.022l-.04.087c-.08.19-.17.38-.266.56-.11.21-.234.418-.367.62-.133.2-.276.393-.43.58-.152.19-.315.37-.488.545-.087.087-.175.172-.265.254l-.207.18c-.115.097-.232.193-.352.282-.384.29-.794.536-1.223.74-.08.04-.162.076-.243.112-.246.106-.497.198-.753.276-.026.01-.054.017-.08.025-.01.007-.02.014-.033.02-.254.175-.514.213-.747.162l-.186.032c-.237.033-.478.06-.72.07-.12.005-.243.01-.365.01-.2 0-.398-.01-.594-.026-.295-.024-.586-.065-.872-.123-.19-.037-.38-.083-.565-.137-.28-.08-.553-.178-.82-.292-.133-.056-.265-.116-.394-.18-.39-.196-.764-.426-1.117-.69l-3.156 3.18-1.495 1.508-1.176 1.183c-.034.037-.07.07-.11.097-.037.03-.076.055-.117.08-.04.022-.084.045-.128.063-.098.04-.2.064-.303.074-.035.004-.07.005-.104.005-.034 0-.07-.003-.103-.007-.07-.006-.138-.02-.204-.04-.167-.05-.324-.14-.456-.273-.42-.423-.42-1.11 0-1.535l.506-.51 1.582-1.595 1.713-1.727 1.218-1.225.81-.815c-.292-.395-.542-.816-.747-1.256-.082-.178-.157-.357-.225-.54-.062-.167-.12-.34-.168-.51-.05-.173-.095-.35-.133-.524-.108-.51-.165-1.033-.165-1.566 0-.076.002-.152.004-.228.01-.34.043-.677.097-1.007.024-.136.05-.27.08-.405.043-.19.09-.38.15-.565.064-.21.14-.42.222-.623l.12-.275c.086-.183.18-.362.278-.537.05-.088.1-.175.154-.26.153-.247.32-.485.502-.714l.08-.1c.073-.087.147-.173.223-.258.076-.084.154-.167.235-.248.173-.174.353-.34.54-.493.243-.202.498-.384.762-.55.14-.09.282-.175.428-.254.105-.054.21-.11.318-.16.215-.1.435-.193.658-.274.226-.08.453-.15.685-.208.23-.058.465-.105.703-.14.12-.018.238-.033.358-.045.12-.012.24-.02.362-.027.12-.006.243-.01.365-.01.073 0 .145.005.218.007.17.005.34.013.51.03.24.024.478.06.71.106.12.024.24.05.356.08.114.03.227.06.34.095zM34.176 16c-.33-.067-.67-.1-1.015-.1-.515 0-1.02.075-1.502.222-.16.05-.32.106-.474.17-.154.065-.306.138-.454.217-.075.04-.148.08-.22.123-.144.087-.284.182-.42.283-.1.077-.2.157-.3.24-.096.086-.19.174-.28.266-.17.17-.326.353-.47.542l-.076.106c-.15.21-.284.43-.4.66-.064.125-.124.25-.178.38-.064.158-.12.317-.17.48-.145.484-.22.994-.22 1.516 0 .543.082 1.074.24 1.578.095.302.217.594.365.874.08.148.168.294.26.435.096.14.197.28.305.41.108.134.223.262.345.385.182.184.376.353.58.506.136.102.276.196.42.283.072.043.145.085.22.125.147.08.3.152.453.216.155.066.313.123.474.172.08.024.16.047.242.067.406.102.83.155 1.26.155.25 0 .496-.018.74-.053.24-.037.48-.09.712-.158.038-.01.075-.022.112-.034l.118-.04c.47-.284.95-.54 1.433-.77.188-.145.368-.3.537-.473.122-.123.237-.25.346-.384.053-.065.105-.133.155-.2.202-.275.376-.566.52-.87.07-.154.135-.31.19-.47.058-.158.106-.32.147-.484.04-.165.074-.332.098-.5.008-.046.013-.092.018-.137l.014-.12c.017-.17.026-.343.026-.517 0-.087-.003-.173-.007-.26-.01-.258-.04-.514-.09-.764-.03-.14-.06-.275-.1-.41-.055-.19-.118-.378-.19-.56-.1-.235-.21-.46-.34-.68-.16-.266-.345-.518-.55-.755-.076-.088-.154-.173-.235-.255-.344-.346-.728-.637-1.14-.87-.138-.076-.28-.147-.423-.21-.037-.018-.074-.036-.112-.05-.31-.13-.63-.23-.96-.295zm-9.866-4.6c-2.238-1.363-4.623-1.595-7.092-.742-1.23.425-1.752-1.53-.535-1.952 2.95-1.02 5.974-.678 8.64.946 1.108.674.1 2.425-1.012 1.748zm-7.794 1.694c2.99-.634 5.894-.248 8.473 1.452.532.353.555.96.31 1.398-.02.033-.04.067-.064.1-.27.382-.756.584-1.262.25-2.127-1.402-4.446-1.773-6.926-1.248-1.264.27-1.8-1.683-.535-1.952zm-3.985 3.302c-1.79.36-3.42 1.09-4.946 2.093-.593.386-1.16.042-1.378-.466-.354-.123-.635-.428-.635-.918 0-1.915.007-3.828.167-5.738.01-.11.036-.205.068-.295-.018-.33.103-.674.43-.918C7.9 8.913 9.87 8.367 11.93 8.332c.105 0 .198.015.286.037.518-.024 1.052.3 1.052.973v5.738c0 .095-.013.18-.032.26.078.458-.12.937-.705 1.054zm-1.27-6c-1.272.112-2.443.486-3.53 1.18-.115 1.514-.142 3.032-.15 4.55 1.16-.655 2.39-1.178 3.68-1.512v-4.22zm12.597 9.542c-.047.386-.073.775-.073 1.17 0 .34.02.68.054 1.014-5.828-2.673-12.363-1.1-17.593 2.442-1.08.73-2.083-1.024-1.014-1.748 5.53-3.747 12.428-5.318 18.626-2.878zM5.23 27.54c5.755-3.897 12.986-5.44 19.372-2.56.03.065.056.13.087.197l-1.42 1.427c-5.682-2.326-11.967-.743-17.03 2.685-1.08.73-2.082-1.026-1.013-1.75zm16.054 1.07l-1.286 1.296c-.14.14-.265.294-.375.455-4.623-.606-9.383.95-13.38 3.657-1.08.73-2.083-1.024-1.014-1.75 4.774-3.234 10.57-4.847 16.052-3.656z" class="cls-1"/></svg>