<svg xmlns="http://www.w3.org/2000/svg" preserveAspectRatio="xMidYMid" width="54.969" height="54" viewBox="0 0 54.969 54"><defs><style>.cls-1 { fill: #98a2a4; fill-rule: evenodd; }</style></defs><path d="M53.87 16.925l-5.09.813c-.734.14-1.437-.338-1.58-1.063-.138-.726.343-1.427 1.074-1.566l5.09-.82c.364-.07.723.012 1.01.203.286.192.5.493.57.86.14.725-.342 1.426-1.074 1.564zm-10.804.4l4.795 5.288c.38.375.48.945.25 1.423-.23.48-.74.756-1.27.702l-7.595-.653-3.64 7.085c-.226.4-.65.644-1.103.644-.06 0-.12-.004-.177-.014-.516-.07-.935-.45-1.05-.955l-1.465-6.288L2.27 53.61c-.264.26-.608.39-.952.39-.347 0-.694-.13-.958-.395-.526-.525-.523-1.372.006-1.892l29.55-29.07-6.4-1.46c-.508-.117-.892-.532-.965-1.044-.07-.52.18-1.02.64-1.27l7.02-3.618-.53-7.524c-.06-.527.227-1.033.71-1.264.485-.23 1.06-.135 1.44.242l5.74 5.02 6.33-2.67c.455-.15.952-.03 1.29.3.336.333.454.83.304 1.275l-2.424 6.69zM37.62 14.35c-.453.154-.95.033-1.29-.3L32.577 11l.225 4.81c.057.5-.197.986-.64 1.23l-4.885 2.438 5.497 1.255c.47.107.837.47.945.937l1.26 5.446 2.452-4.97c.245-.44.74-.684 1.24-.637l4.86.35-2.81-3.32c-.336-.336-.454-.83-.304-1.28l1.88-5.043-4.684 2.126zm.702-6.654c-.738-.106-1.25-.786-1.144-1.516l.882-5.034c.053-.364.25-.674.524-.88.277-.206.634-.308 1.004-.254.74.106 1.25.784 1.144 1.515l-.88 5.035c-.108.733-.792 1.237-1.53 1.134zM25.306 13.78l-4.675-2.153c-.34-.146-.59-.414-.72-.73-.12-.32-.13-.687.02-1.028.297-.68 1.09-1 1.775-.71l4.676 2.153c.687.293 1 1.08.707 1.76-.294.676-1.09.99-1.773.7zm15.817 13.77c.65-.363 1.473-.137 1.84.504l2.413 4.516c.183.32.22.684.128 1.013-.09.332-.31.63-.636.81-.65.366-1.474.14-1.84-.502l-2.413-4.51c-.37-.642-.14-1.46.508-1.822z" class="cls-1"/></svg>