<?xml version="1.0" encoding="utf-8"?>
<!-- Generator: Adobe Illustrator 22.0.1, SVG Export Plug-In . SVG Version: 6.00 Build 0)  -->
<svg version="1.1" xmlns="http://www.w3.org/2000/svg" xmlns:xlink="http://www.w3.org/1999/xlink" x="0px" y="0px" width="300px"
	 height="141.67px" viewBox="0 0 300 141.67" enable-background="new 0 0 300 141.67" xml:space="preserve">
<g id="Layer_1">
	<g>
		<g>
			<g>
				<path fill="#FFFFFF" d="M243.25,88.97c7.98,7.97,7.98,20.9,0,28.88c-7.97,7.98-20.9,7.98-28.88,0c-7.98-7.97-7.98-20.9,0-28.88
					C222.35,81,235.28,81,243.25,88.97z"/>
				<path fill="#989FA1" d="M228.81,124.26c-5.57,0-10.81-2.17-14.74-6.11c-3.94-3.94-6.11-9.17-6.11-14.74
					c0-5.57,2.17-10.8,6.11-14.74c3.94-3.94,9.17-6.11,14.74-6.11c5.57,0,10.8,2.17,14.74,6.11l0,0c3.94,3.94,6.11,9.17,6.11,14.74
					c0,5.57-2.17,10.8-6.11,14.74C239.62,122.09,234.38,124.26,228.81,124.26z M228.81,83.42c-5.34,0-10.36,2.08-14.14,5.86
					c-3.78,3.78-5.86,8.8-5.86,14.14c0,5.34,2.08,10.36,5.86,14.14c3.78,3.78,8.8,5.86,14.14,5.86c5.34,0,10.36-2.08,14.14-5.86
					c3.78-3.78,5.86-8.8,5.86-14.14c0-5.34-2.08-10.36-5.86-14.13l0,0C239.17,85.5,234.15,83.42,228.81,83.42z"/>
			</g>
			<path fill="#ECEFEF" d="M241.3,90.93c6.89,6.89,6.89,18.07,0,24.96c-6.89,6.89-18.07,6.89-24.96,0c-6.89-6.89-6.89-18.07,0-24.96
				C223.22,84.04,234.4,84.04,241.3,90.93z"/>
			<g>
				<path fill="#989FA1" d="M229.51,109.55v1.61h-1.09v-1.59c-1.82-0.11-3.19-0.86-4.09-1.87l0.89-1.12
					c0.7,0.79,1.78,1.52,3.19,1.66v-4.34c-1.82-0.48-3.71-1.11-3.71-3.3c0-1.86,1.57-3.16,3.71-3.3v-1.62h1.09v1.66
					c1.48,0.12,2.66,0.71,3.52,1.62l-0.89,1.09c-0.7-0.79-1.62-1.21-2.62-1.36v3.87c1.84,0.52,3.78,1.2,3.78,3.53
					C233.29,107.7,232.28,109.36,229.51,109.55z M228.42,102.27v-3.64c-1.29,0.07-2.18,0.82-2.18,1.87
					C226.24,101.52,227.23,101.93,228.42,102.27z M231.78,106.21c0-1.21-1.04-1.66-2.27-2.03v4.03
					C231.22,108.07,231.78,107.04,231.78,106.21z"/>
			</g>
		</g>
		<g>
			<g>
				<path fill="#FFFFFF" d="M222.58,35.33c7.98,7.97,7.98,20.9,0,28.88c-7.97,7.98-20.9,7.98-28.88,0c-7.98-7.97-7.98-20.9,0-28.88
					C201.68,27.35,214.61,27.35,222.58,35.33z"/>
				<path fill="#989FA1" d="M208.14,70.62c-5.57,0-10.81-2.17-14.74-6.11c-3.94-3.94-6.11-9.17-6.11-14.74s2.17-10.8,6.11-14.74
					s9.17-6.11,14.74-6.11c5.57,0,10.8,2.17,14.74,6.11l0,0l0,0c3.94,3.94,6.11,9.17,6.11,14.74s-2.17,10.8-6.11,14.74
					C218.95,68.45,213.71,70.62,208.14,70.62z M208.14,29.77c-5.34,0-10.36,2.08-14.14,5.86c-3.78,3.78-5.86,8.8-5.86,14.13
					s2.08,10.36,5.86,14.13c3.78,3.78,8.8,5.86,14.14,5.86c5.34,0,10.36-2.08,14.13-5.86c3.78-3.78,5.86-8.8,5.86-14.14
					s-2.08-10.36-5.86-14.13l0,0C218.5,31.85,213.48,29.77,208.14,29.77z"/>
			</g>
			<path fill="#ECEFEF" d="M220.63,37.28c6.89,6.89,6.89,18.07,0,24.96c-6.89,6.89-18.07,6.89-24.96,0
				c-6.89-6.89-6.89-18.07,0-24.96C202.55,30.39,213.73,30.39,220.63,37.28z"/>
			<g>
				<path fill="#989FA1" d="M207.68,53.72l-0.86-2.18h-4.85l-0.86,2.18h-1.39l3.93-9.75h1.5l3.92,9.75H207.68z M204.4,45.21
					l-2.06,5.26h4.13L204.4,45.21z"/>
				<path fill="#989FA1" d="M214.71,53.72v-0.8c-0.57,0.64-1.39,0.98-2.34,0.98c-1.18,0-2.45-0.8-2.45-2.34
					c0-1.59,1.26-2.32,2.45-2.32c0.96,0,1.77,0.31,2.34,0.95v-1.27c0-0.94-0.76-1.48-1.78-1.48c-0.85,0-1.53,0.29-2.16,0.98
					l-0.51-0.76c0.76-0.79,1.67-1.17,2.82-1.17c1.5,0,2.73,0.67,2.73,2.38v4.85H214.71z M214.71,52.23v-1.34
					c-0.42-0.57-1.17-0.86-1.93-0.86c-1.04,0-1.75,0.64-1.75,1.53c0,0.91,0.72,1.55,1.75,1.55
					C213.54,53.1,214.29,52.81,214.71,52.23z"/>
			</g>
		</g>
		<g>
			<g>
				<path fill="#FFFFFF" d="M85.63,88.97c7.98,7.97,7.98,20.9,0,28.88c-7.97,7.98-20.9,7.98-28.88,0c-7.98-7.97-7.98-20.9,0-28.88
					C64.72,81,77.65,81,85.63,88.97z"/>
				<path fill="#989FA1" d="M71.19,124.26c-5.57,0-10.81-2.17-14.74-6.11c-3.94-3.94-6.11-9.17-6.11-14.74
					c0-5.57,2.17-10.8,6.11-14.74c3.94-3.94,9.17-6.11,14.74-6.11c5.57,0,10.8,2.17,14.74,6.11l0,0c0,0,0,0,0,0
					c3.94,3.94,6.11,9.17,6.11,14.74c0,5.57-2.17,10.8-6.11,14.74C81.99,122.09,76.76,124.26,71.19,124.26z M71.19,83.42
					c-5.34,0-10.36,2.08-14.14,5.86c-3.78,3.78-5.86,8.8-5.86,14.14c0,5.34,2.08,10.36,5.86,14.14c3.78,3.78,8.8,5.86,14.14,5.86
					c5.34,0,10.36-2.08,14.14-5.86c3.78-3.78,5.86-8.8,5.86-14.14c0-5.34-2.08-10.36-5.86-14.13l0,0
					C81.55,85.5,76.53,83.42,71.19,83.42z"/>
			</g>
			<path fill="#ECEFEF" d="M83.67,90.93c6.89,6.89,6.89,18.07,0,24.96c-6.89,6.89-18.07,6.89-24.96,0c-6.89-6.89-6.89-18.07,0-24.96
				C65.6,84.04,76.77,84.04,83.67,90.93z"/>
			<g>
				<g>
					<path fill="#FFFFFF" d="M77.56,109.28v1.6H64.82v-1.6c0-2.44,1.55-4.51,3.72-5.29c0.74,0.55,1.66,0.88,2.65,0.88
						c0.99,0,1.91-0.32,2.65-0.88C76.01,104.77,77.56,106.84,77.56,109.28z"/>
					<path fill="#989FA1" d="M77.99,111.3h-13.6v-2.03c0-2.55,1.61-4.83,4-5.69l0.22-0.08l0.18,0.14c1.39,1.03,3.4,1.03,4.79,0
						l0.18-0.14l0.22,0.08c2.4,0.86,4.01,3.14,4.01,5.69V111.3z M65.24,110.44h11.88v-1.17c0-2.11-1.29-4.01-3.23-4.8
						c-1.61,1.08-3.82,1.08-5.42,0c-1.94,0.79-3.23,2.69-3.23,4.8V110.44z"/>
				</g>
				<g>
					<path fill="#FFFFFF" d="M75.64,100.41c0,1.47-0.71,2.77-1.8,3.58c-0.74,0.55-1.66,0.88-2.65,0.88c-0.99,0-1.91-0.32-2.65-0.88
						c-1.09-0.81-1.8-2.11-1.8-3.58c0-2.46,1.99-4.46,4.46-4.46C73.65,95.95,75.64,97.95,75.64,100.41z"/>
					<path fill="#989FA1" d="M71.19,105.29c-1.06,0-2.06-0.33-2.91-0.96c-1.24-0.92-1.98-2.38-1.98-3.92c0-2.69,2.19-4.89,4.88-4.89
						s4.88,2.19,4.88,4.89c0,1.54-0.74,3.01-1.98,3.92C73.25,104.96,72.24,105.29,71.19,105.29z M71.19,96.38
						c-2.22,0-4.03,1.81-4.03,4.03c0,1.29,0.59,2.47,1.63,3.24c1.39,1.03,3.4,1.03,4.79,0c1.04-0.77,1.63-1.95,1.63-3.24
						C75.21,98.19,73.41,96.38,71.19,96.38z"/>
				</g>
			</g>
		</g>
		<g>
			<g>
				<path fill="#FFFFFF" d="M165.91,7.22c7.98,7.97,7.98,20.9,0,28.88c-7.97,7.98-20.9,7.98-28.88,0c-7.98-7.97-7.98-20.9,0-28.88
					C145-0.75,157.93-0.75,165.91,7.22z"/>
				<path fill="#989FA1" d="M151.47,42.51c-5.57,0-10.81-2.17-14.74-6.11c-3.94-3.94-6.11-9.17-6.11-14.74
					c0-5.57,2.17-10.8,6.11-14.74s9.17-6.11,14.74-6.11c5.57,0,10.8,2.17,14.74,6.11l0,0l0,0c3.94,3.94,6.11,9.17,6.11,14.74
					c0,5.57-2.17,10.8-6.11,14.74C162.27,40.34,157.04,42.51,151.47,42.51z M151.47,1.67c-5.34,0-10.36,2.08-14.14,5.86
					c-3.78,3.78-5.86,8.8-5.86,14.13c0,5.34,2.08,10.36,5.86,14.13c3.78,3.78,8.8,5.86,14.14,5.86c5.34,0,10.36-2.08,14.13-5.86
					c3.78-3.78,5.86-8.8,5.86-14.14c0-5.34-2.08-10.36-5.86-14.13l0,0C161.83,3.75,156.81,1.67,151.47,1.67z"/>
			</g>
			<path fill="#ECEFEF" d="M163.95,9.18c6.89,6.89,6.89,18.07,0,24.96c-6.89,6.89-18.07,6.89-24.96,0c-6.89-6.89-6.89-18.07,0-24.96
				C145.88,2.29,157.06,2.29,163.95,9.18z"/>
			<g>
				<path fill="#FFFFFF" d="M159.51,21.25c0,2.75-2.23,4.97-4.97,4.97s-4.97-2.23-4.97-4.97c0-3.94,4.97-9.26,4.97-9.26
					S159.51,17.39,159.51,21.25z"/>
				<path fill="#989FA1" d="M154.53,26.65c-2.98,0-5.4-2.42-5.4-5.4c0-4.06,4.88-9.33,5.09-9.55l0.32-0.34l0.31,0.34
					c0.21,0.23,5.08,5.57,5.08,9.55C159.93,24.23,157.51,26.65,154.53,26.65z M154.53,12.64c-1.08,1.24-4.54,5.46-4.54,8.61
					c0,2.5,2.04,4.54,4.54,4.54c2.5,0,4.54-2.04,4.54-4.54C159.08,18.15,155.61,13.89,154.53,12.64z"/>
			</g>
			<g>
				<path fill="#FFFFFF" d="M153.82,24.09c0,2.75-2.23,4.97-4.97,4.97c-2.75,0-4.97-2.23-4.97-4.97c0-3.94,4.97-9.26,4.97-9.26
					S153.82,20.23,153.82,24.09z"/>
				<path fill="#989FA1" d="M148.85,29.49c-2.98,0-5.4-2.42-5.4-5.4c0-4.06,4.88-9.33,5.09-9.55l0.32-0.34l0.31,0.34
					c0.21,0.23,5.08,5.57,5.08,9.55C154.25,27.07,151.83,29.49,148.85,29.49z M148.85,15.48c-1.08,1.24-4.54,5.46-4.54,8.61
					c0,2.5,2.04,4.54,4.54,4.54c2.5,0,4.54-2.04,4.54-4.54C153.39,20.99,149.93,16.73,148.85,15.48z"/>
			</g>
		</g>
		<g>
			<g>
				<path fill="#FFFFFF" d="M108.6,35.27c7.98,7.97,7.98,20.9,0,28.88c-7.97,7.98-20.9,7.98-28.88,0c-7.98-7.97-7.98-20.9,0-28.88
					C87.7,27.29,100.63,27.29,108.6,35.27z"/>
				<path fill="#989FA1" d="M94.16,70.56c-5.57,0-10.81-2.17-14.74-6.11c-3.94-3.94-6.11-9.17-6.11-14.74
					c0-5.57,2.17-10.8,6.11-14.74c3.94-3.94,9.17-6.11,14.74-6.11s10.8,2.17,14.74,6.11c3.94,3.94,6.11,9.17,6.11,14.74
					c0,5.57-2.17,10.8-6.11,14.74C104.97,68.39,99.73,70.56,94.16,70.56z M94.16,29.72c-5.34,0-10.36,2.08-14.14,5.86
					c-3.78,3.78-5.86,8.8-5.86,14.13c0,5.34,2.08,10.36,5.86,14.13c3.78,3.78,8.8,5.86,14.14,5.86c5.34,0,10.36-2.08,14.14-5.86
					c3.78-3.78,5.86-8.79,5.86-14.13c0-5.34-2.08-10.36-5.86-14.13l0,0C104.52,31.8,99.5,29.72,94.16,29.72z"/>
			</g>
			<path fill="#ECEFEF" d="M106.65,37.23c6.89,6.89,6.89,18.07,0,24.96c-6.89,6.89-18.07,6.89-24.96,0
				c-6.89-6.89-6.89-18.07,0-24.96C88.57,30.33,99.75,30.33,106.65,37.23z"/>
			<g>
				<g>
					<g>
						<path fill="#FFFFFF" d="M86.64,42.59c0,1.35-1.1,2.45-2.45,2.45c-1.35,0-2.45-1.1-2.45-2.45c0-1.35,1.1-2.45,2.45-2.45
							C85.54,40.15,86.64,41.24,86.64,42.59z"/>
						<path fill="#989FA1" d="M84.19,45.47c-1.59,0-2.88-1.29-2.88-2.88c0-1.59,1.29-2.88,2.88-2.88c1.59,0,2.88,1.29,2.88,2.88
							C87.07,44.18,85.78,45.47,84.19,45.47z M84.19,40.58c-1.11,0-2.02,0.9-2.02,2.02c0,1.11,0.9,2.02,2.02,2.02
							s2.02-0.91,2.02-2.02C86.21,41.48,85.3,40.58,84.19,40.58z"/>
					</g>
				</g>
				<rect x="89.49" y="42.06" fill="#989FA1" width="17.09" height="0.86"/>
				<g>
					<g>
						<path fill="#FFFFFF" d="M86.64,49.71c0,1.35-1.1,2.45-2.45,2.45c-1.35,0-2.45-1.1-2.45-2.45c0-1.35,1.1-2.45,2.45-2.45
							C85.54,47.26,86.64,48.36,86.64,49.71z"/>
						<path fill="#989FA1" d="M84.19,52.59c-1.59,0-2.88-1.29-2.88-2.88c0-1.59,1.29-2.88,2.88-2.88c1.59,0,2.88,1.29,2.88,2.88
							C87.07,51.3,85.78,52.59,84.19,52.59z M84.19,47.69c-1.11,0-2.02,0.9-2.02,2.02c0,1.11,0.9,2.02,2.02,2.02
							s2.02-0.91,2.02-2.02C86.21,48.6,85.3,47.69,84.19,47.69z"/>
					</g>
				</g>
				<rect x="89.49" y="49.17" fill="#989FA1" width="17.09" height="0.86"/>
				<g>
					<g>
						<path fill="#FFFFFF" d="M86.64,56.82c0,1.35-1.1,2.45-2.45,2.45c-1.35,0-2.45-1.1-2.45-2.45c0-1.35,1.1-2.45,2.45-2.45
							C85.54,54.38,86.64,55.47,86.64,56.82z"/>
						<path fill="#989FA1" d="M84.19,59.7c-1.59,0-2.88-1.29-2.88-2.88c0-1.59,1.29-2.88,2.88-2.88c1.59,0,2.88,1.29,2.88,2.88
							C87.07,58.41,85.78,59.7,84.19,59.7z M84.19,54.81c-1.11,0-2.02,0.9-2.02,2.02c0,1.11,0.9,2.02,2.02,2.02s2.02-0.91,2.02-2.02
							C86.21,55.71,85.3,54.81,84.19,54.81z"/>
					</g>
				</g>
				<rect x="89.49" y="56.29" fill="#989FA1" width="17.09" height="0.86"/>
			</g>
		</g>
		<g>
			<circle fill="#EEE679" cx="150.59" cy="104.92" r="35.89"/>
			<g>
				<polygon fill="#FFFFFF" points="162.95,113.21 139.3,113.21 141.97,107.03 135.08,89.81 130.1,89.81 130.1,88.38 136.05,88.38 
					143.52,107.05 141.48,111.78 162.95,111.78 				"/>
				<path fill="#FFFFFF" d="M142.27,107.79l-5.93-14.9h32.37l-2.94,13.07L142.27,107.79z M138.45,94.31l4.76,11.97l21.39-1.67
					l2.32-10.3H138.45z"/>
				<path fill="#FFFFFF" d="M145.41,122.74c-2.24,0-4.06-1.82-4.06-4.06c0-2.24,1.82-4.06,4.06-4.06c2.24,0,4.06,1.82,4.06,4.06
					C149.48,120.92,147.65,122.74,145.41,122.74z M145.41,116.04c-1.45,0-2.63,1.18-2.63,2.63c0,1.45,1.18,2.63,2.63,2.63
					c1.45,0,2.63-1.18,2.63-2.63C148.05,117.22,146.86,116.04,145.41,116.04z"/>
				<path fill="#FFFFFF" d="M158.05,122.74c-2.24,0-4.06-1.82-4.06-4.06c0-2.24,1.82-4.06,4.06-4.06c2.24,0,4.06,1.82,4.06,4.06
					C162.11,120.92,160.29,122.74,158.05,122.74z M158.05,116.04c-1.45,0-2.63,1.18-2.63,2.63c0,1.45,1.18,2.63,2.63,2.63
					s2.63-1.18,2.63-2.63C160.68,117.22,159.5,116.04,158.05,116.04z"/>
				<rect x="148.03" y="93.72" fill="#FFFFFF" width="1.43" height="12.8"/>
				<rect x="157.71" y="93.6" fill="#FFFFFF" width="1.43" height="12.14"/>
				
					<rect x="140.12" y="99.01" transform="matrix(0.9994 -0.0344 0.0344 0.9994 -3.3357 5.3229)" fill="#FFFFFF" width="26.21" height="1.43"/>
			</g>
		</g>
	</g>
</g>
<g id="Layer_2">
</g>
<g id="Layer_3">
</g>
<g id="Layer_4">
</g>
<g id="Layer_5">
</g>
<g id="Layer_6">
</g>
</svg>
