<?xml version="1.0" encoding="utf-8"?>
<!-- Generator: Adobe Illustrator 22.0.1, SVG Export Plug-In . SVG Version: 6.00 Build 0)  -->
<svg version="1.1" xmlns="http://www.w3.org/2000/svg" xmlns:xlink="http://www.w3.org/1999/xlink" x="0px" y="0px" width="300px"
	 height="125.17px" viewBox="0 0 300 125.17" enable-background="new 0 0 300 125.17" xml:space="preserve">
<g id="Layer_1">
	<g>
		<g>
			<g>
				<g>
					<rect x="51.46" y="9.32" fill="#ECEFEF" width="165.76" height="102.5"/>
					<path fill="#989FA1" d="M217.59,112.2H51.09V8.95h166.51V112.2z M51.84,111.45h165.01V9.7H51.84V111.45z"/>
				</g>
			</g>
			<g>
				<path fill="#FFFFFF" d="M217.22,9.32H51.46V3.81c0-1.23,1-2.22,2.22-2.22H215c1.23,0,2.22,1,2.22,2.22V9.32z"/>
				<path fill="#989FA1" d="M217.6,9.69H51.08V3.81c0-1.43,1.17-2.6,2.6-2.6H215c1.43,0,2.6,1.17,2.6,2.6V9.69z M51.83,8.94h165.02
					V3.81c0-1.02-0.83-1.85-1.85-1.85H53.68c-1.02,0-1.85,0.83-1.85,1.85V8.94z"/>
			</g>
			<path fill="#989FA1" d="M212,6.73c-0.7,0-1.27-0.57-1.27-1.27c0-0.7,0.57-1.27,1.27-1.27s1.27,0.57,1.27,1.27
				C213.27,6.15,212.7,6.73,212,6.73z M212,4.93c-0.29,0-0.52,0.23-0.52,0.52s0.23,0.52,0.52,0.52s0.52-0.23,0.52-0.52
				S212.29,4.93,212,4.93z"/>
			<path fill="#989FA1" d="M207.93,6.73c-0.7,0-1.27-0.57-1.27-1.27c0-0.7,0.57-1.27,1.27-1.27s1.27,0.57,1.27,1.27
				C209.2,6.15,208.63,6.73,207.93,6.73z M207.93,4.93c-0.29,0-0.52,0.23-0.52,0.52s0.23,0.52,0.52,0.52s0.52-0.23,0.52-0.52
				S208.22,4.93,207.93,4.93z"/>
			<path fill="#989FA1" d="M203.86,6.73c-0.7,0-1.27-0.57-1.27-1.27c0-0.7,0.57-1.27,1.27-1.27c0.7,0,1.27,0.57,1.27,1.27
				C205.13,6.15,204.56,6.73,203.86,6.73z M203.86,4.93c-0.29,0-0.52,0.23-0.52,0.52s0.23,0.52,0.52,0.52
				c0.29,0,0.52-0.23,0.52-0.52S204.15,4.93,203.86,4.93z"/>
			<g>
				<path fill="#FFFFFF" d="M206.39,111.81H62.29v-78.1c0-0.61,0.49-1.1,1.1-1.1h141.89c0.61,0,1.1,0.49,1.1,1.1V111.81z"/>
				<path fill="#989FA1" d="M206.76,112.18H61.92V33.71c0-0.81,0.66-1.48,1.48-1.48h141.89c0.81,0,1.48,0.66,1.48,1.48V112.18z
					 M62.67,111.43h143.34V33.71c0-0.4-0.33-0.73-0.73-0.73H63.4c-0.4,0-0.73,0.33-0.73,0.73V111.43z"/>
			</g>
			<g>
				<path fill="#FFFFFF" d="M84.93,25.94H63.27c-0.64,0-1.16-0.52-1.16-1.16v-6.01c0-0.64,0.52-1.16,1.16-1.16h21.67
					c0.64,0,1.16,0.52,1.16,1.16v6.01C86.09,25.42,85.57,25.94,84.93,25.94z"/>
				<path fill="#989FA1" d="M84.93,26.32H63.27c-0.85,0-1.54-0.69-1.54-1.54v-6.01c0-0.85,0.69-1.53,1.54-1.53h21.67
					c0.85,0,1.54,0.69,1.54,1.53v6.01C86.47,25.63,85.78,26.32,84.93,26.32z M63.27,17.99c-0.43,0-0.79,0.35-0.79,0.78v6.01
					c0,0.43,0.35,0.79,0.79,0.79h21.67c0.43,0,0.79-0.35,0.79-0.79v-6.01c0-0.43-0.35-0.78-0.79-0.78H63.27z"/>
			</g>
			<rect x="136.62" y="22.56" fill="#989FA1" width="14.65" height="0.75"/>
			<rect x="154.83" y="22.56" fill="#989FA1" width="14.65" height="0.75"/>
			<rect x="173.03" y="22.56" fill="#989FA1" width="14.65" height="0.75"/>
			<rect x="191.23" y="22.56" fill="#989FA1" width="14.65" height="0.75"/>
			<path fill="#EEE679" d="M155.77,57.27L137.27,46.6c-1.61-0.93-4.26-0.93-5.87,0l-18.49,10.68c-1.62,0.93-2.94,3.22-2.94,5.09
				v21.35c0,1.86,1.32,4.15,2.94,5.09l18.49,10.67c1.61,0.93,4.26,0.93,5.87,0l18.49-10.67c1.61-0.93,2.94-3.22,2.94-5.09V62.36
				C158.7,60.5,157.38,58.21,155.77,57.27z M150.78,68.77h-1.92v-3.26c0-2.49-1.92-3.26-5.62-3.26h-0.17
				c-8.88,0-8.09-3.32-8.35-4.53h-0.13c-0.26,1.21,0.6,4.53-8.28,4.53h-0.23c-3.7,0-5.62,0.77-5.62,3.26v2.51l30.31,8.76v0.49h0.01
				v3.13c0,3.58-1.72,5.56-7.54,5.56h-0.3c-4.54,0-7.32,0.96-7.32,4.53h-1.92c0-3.58-2.79-4.53-7.32-4.53h-0.3
				c-5.81,0-7.54-1.98-7.54-5.56v-3.13h1.92v3.26c0,2.49,1.92,3.26,5.62,3.26h0.17c8.88,0,8.09,3.32,8.35,4.54h0.13
				c0.26-1.21-0.6-4.54,8.28-4.54h0.23c3.71,0,5.62-0.77,5.62-3.26v-1.87l-30.31-8.77v-1.13h0v-3.13c0-3.58,1.72-5.56,7.54-5.56h0.3
				c4.54,0,7.32-0.96,7.32-4.54h1.92c0,3.58,2.79,4.54,7.32,4.54h0.3c5.81,0,7.54,1.98,7.54,5.56V68.77z"/>
		</g>
		<g>
			<g>
				<rect x="146.33" y="37.98" fill="#FFFFFF" width="102.21" height="85.6"/>
				<path fill="#989FA1" d="M248.92,123.96H145.96V37.61h102.96V123.96z M146.71,123.21h101.46V38.36H146.71V123.21z"/>
			</g>
			
				<rect x="183.85" y="0.47" transform="matrix(-1.836970e-16 1 -1 -1.836970e-16 249.0119 -145.8613)" fill="#ECEFEF" width="27.18" height="102.21"/>
			
				<rect x="183.85" y="58.89" transform="matrix(-1.836970e-16 1 -1 -1.836970e-16 307.4296 -87.4437)" fill="#ECEFEF" width="27.18" height="102.21"/>
			<g>
				<rect x="146.33" y="17.53" fill="#FFFFFF" width="102.21" height="20.45"/>
				<path fill="#989FA1" d="M248.92,38.36H145.95v-21.2h102.96V38.36z M146.7,37.61h101.46v-19.7H146.7V37.61z"/>
			</g>
			<path fill="#989FA1" d="M248.92,123.96H145.96V37.61h102.96V123.96z M146.71,123.21h101.46V38.36H146.71V123.21z"/>
			<g>
				<path fill="#989FA1" d="M152.1,30.31l0.49-0.68c0.33,0.36,0.88,0.69,1.57,0.69c0.71,0,0.99-0.35,0.99-0.69
					c0-1.04-2.89-0.39-2.89-2.22c0-0.83,0.71-1.46,1.81-1.46c0.77,0,1.4,0.25,1.85,0.7l-0.49,0.65c-0.4-0.39-0.92-0.57-1.45-0.57
					c-0.51,0-0.83,0.25-0.83,0.62c0,0.93,2.89,0.36,2.89,2.2c0,0.83-0.59,1.54-1.92,1.54C153.21,31.1,152.55,30.77,152.1,30.31z"/>
				<path fill="#989FA1" d="M157.21,31.01v-4.97h3.4v0.77h-2.53v1.28h2.48v0.77h-2.48v1.38h2.53v0.77H157.21z"/>
				<path fill="#989FA1" d="M161.82,31.01v-4.97h0.87v4.2h2.19v0.77H161.82z"/>
				<path fill="#989FA1" d="M166.01,31.01v-4.97h3.4v0.77h-2.53v1.28h2.48v0.77h-2.48v1.38h2.53v0.77H166.01z"/>
				<path fill="#989FA1" d="M170.46,28.53c0-1.53,1.14-2.57,2.61-2.57c1,0,1.62,0.51,1.99,1.11l-0.74,0.39
					c-0.24-0.42-0.72-0.72-1.25-0.72c-0.98,0-1.71,0.74-1.71,1.79c0,1.03,0.73,1.79,1.71,1.79c0.53,0,1.01-0.31,1.25-0.72l0.74,0.37
					c-0.38,0.6-1,1.12-2,1.12C171.6,31.1,170.46,30.06,170.46,28.53z"/>
				<path fill="#989FA1" d="M177.31,31.01v-4.2h-1.5v-0.77h3.88v0.77h-1.5v4.2H177.31z"/>
				<path fill="#989FA1" d="M182.86,28.53c0-1.53,1.14-2.57,2.61-2.57c1,0,1.62,0.51,1.99,1.11l-0.74,0.39
					c-0.24-0.42-0.72-0.72-1.25-0.72c-0.98,0-1.71,0.74-1.71,1.79c0,1.03,0.73,1.79,1.71,1.79c0.53,0,1.01-0.31,1.25-0.72l0.75,0.37
					c-0.38,0.6-1,1.12-2,1.12C184,31.1,182.86,30.06,182.86,28.53z"/>
				<path fill="#989FA1" d="M188.53,29.05v-3h0.89v2.98c0,0.79,0.44,1.3,1.27,1.3s1.27-0.51,1.27-1.3v-2.98h0.89v3
					c0,1.23-0.71,2.06-2.15,2.06C189.24,31.1,188.53,30.28,188.53,29.05z"/>
				<path fill="#989FA1" d="M197.09,31.01L196,29.16h-0.87v1.85h-0.87v-4.97h2.18c0.98,0,1.63,0.63,1.63,1.56
					c0,0.88-0.58,1.36-1.18,1.46l1.22,1.95H197.09z M197.17,27.59c0-0.48-0.36-0.78-0.85-0.78h-1.2v1.58h1.2
					C196.81,28.39,197.17,28.08,197.17,27.59z"/>
				<path fill="#989FA1" d="M202.14,31.01l-1.09-1.85h-0.87v1.85h-0.87v-4.97h2.18c0.98,0,1.63,0.63,1.63,1.56
					c0,0.88-0.58,1.36-1.18,1.46l1.22,1.95H202.14z M202.22,27.59c0-0.48-0.36-0.78-0.85-0.78h-1.2v1.58h1.2
					C201.87,28.39,202.22,28.08,202.22,27.59z"/>
				<path fill="#989FA1" d="M204.36,31.01v-4.97h3.4v0.77h-2.53v1.28h2.48v0.77h-2.48v1.38h2.53v0.77H204.36z"/>
				<path fill="#989FA1" d="M212.48,31.01l-2.59-3.55v3.55h-0.87v-4.97h0.89l2.54,3.44v-3.44h0.87v4.97H212.48z"/>
				<path fill="#989FA1" d="M214.53,28.53c0-1.53,1.14-2.57,2.61-2.57c1,0,1.62,0.51,1.99,1.11l-0.74,0.39
					c-0.24-0.42-0.72-0.72-1.25-0.72c-0.98,0-1.71,0.74-1.71,1.79c0,1.03,0.73,1.79,1.71,1.79c0.53,0,1.01-0.31,1.25-0.72l0.75,0.37
					c-0.38,0.6-1,1.12-2,1.12C215.67,31.1,214.53,30.06,214.53,28.53z"/>
				<path fill="#989FA1" d="M221.46,31.01v-2.06l-1.93-2.9h1l1.36,2.12l1.36-2.12h1l-1.92,2.9v2.06H221.46z"/>
			</g>
			<polygon fill="#989FA1" points="239.83,31.03 235.71,26.92 236.24,26.39 239.83,29.97 243.28,26.52 243.81,27.05 			"/>
			<g>
				<g>
					<path fill="#989FA1" d="M166.73,53.74v-0.93h3.37v0.93H166.73z"/>
					<path fill="#989FA1" d="M176.29,52c0-2.88,2.12-4.85,4.82-4.85c1.66,0,2.81,0.79,3.56,1.85l-0.97,0.55
						c-0.53-0.8-1.52-1.36-2.59-1.36c-2.05,0-3.61,1.56-3.61,3.81c0,2.22,1.56,3.81,3.61,3.81c1.07,0,2.05-0.58,2.59-1.36l0.98,0.53
						c-0.79,1.08-1.91,1.87-3.57,1.87C178.41,56.84,176.29,54.88,176.29,52z"/>
					<path fill="#989FA1" d="M193.51,56.68l-0.83-2.09h-4.67l-0.83,2.09h-1.33l3.78-9.37h1.45l3.77,9.37H193.51z M190.35,48.5
						l-1.98,5.06h3.98L190.35,48.5z"/>
					<path fill="#989FA1" d="M196.77,56.68V47.3h3.21c2.92,0,4.81,2.04,4.81,4.69c0,2.67-1.88,4.68-4.81,4.68H196.77z M203.57,52
						c0-2.02-1.28-3.65-3.6-3.65h-2.04v7.29h2.04C202.25,55.64,203.57,54.01,203.57,52z"/>
				</g>
			</g>
			<g>
				<g>
					<path fill="#989FA1" d="M166.73,83.19v-0.93h3.37v0.93H166.73z"/>
					<path fill="#989FA1" d="M176.67,82.49v-5.73h1.18v5.71c0,1.71,0.91,2.8,2.64,2.8s2.66-1.08,2.66-2.8v-5.71h1.18v5.72
						c0,2.33-1.29,3.82-3.84,3.82C177.96,86.29,176.67,84.79,176.67,82.49z"/>
					<path fill="#989FA1" d="M186.66,84.81l0.7-0.9c0.6,0.7,1.62,1.35,2.94,1.35c1.67,0,2.21-0.9,2.21-1.63
						c0-2.42-5.55-1.07-5.55-4.41c0-1.55,1.38-2.61,3.23-2.61c1.42,0,2.53,0.49,3.32,1.32l-0.7,0.86c-0.7-0.79-1.69-1.12-2.71-1.12
						c-1.11,0-1.92,0.6-1.92,1.49c0,2.11,5.55,0.9,5.55,4.4c0,1.35-0.93,2.75-3.46,2.75C188.64,86.29,187.43,85.68,186.66,84.81z"/>
					<path fill="#989FA1" d="M196.15,86.13v-9.37h3.21c2.92,0,4.81,2.04,4.81,4.69c0,2.67-1.88,4.68-4.81,4.68H196.15z
						 M202.96,81.45c0-2.02-1.28-3.65-3.6-3.65h-2.04v7.29h2.04C201.64,85.09,202.96,83.46,202.96,81.45z"/>
				</g>
			</g>
			<g>
				<g>
					<path fill="#989FA1" d="M166.73,111.02v-0.93h3.37v0.93H166.73z"/>
					<path fill="#989FA1" d="M176.67,113.96v-9.37h6.14v1.04h-4.97v3.02h4.88v1.04h-4.88v3.23h4.97v1.04H176.67z"/>
					<path fill="#989FA1" d="M185.36,110.32v-5.73h1.18v5.71c0,1.71,0.91,2.8,2.64,2.8s2.66-1.08,2.66-2.8v-5.71h1.18v5.72
						c0,2.33-1.29,3.82-3.84,3.82C186.66,114.12,185.36,112.62,185.36,110.32z"/>
					<path fill="#989FA1" d="M201.34,113.96l-2.38-3.72h-1.88v3.72h-1.17v-9.37h3.77c1.71,0,2.95,1.1,2.95,2.82
						c0,1.69-1.17,2.61-2.45,2.73l2.53,3.82H201.34z M201.42,107.41c0-1.07-0.77-1.78-1.88-1.78h-2.46v3.58h2.46
						C200.65,109.21,201.42,108.46,201.42,107.41z"/>
				</g>
			</g>
			<g>
				<g>
					<path fill="#989FA1" d="M156.59,56.83c-1.42-0.08-2.5-0.67-3.2-1.48l0.7-0.9c0.53,0.63,1.39,1.19,2.5,1.32v-3.42
						c-1.43-0.39-2.91-0.87-2.91-2.6c0-1.45,1.22-2.47,2.91-2.6v-1.28h0.86v1.29c1.17,0.1,2.09,0.58,2.78,1.29l-0.7,0.86
						c-0.56-0.62-1.29-0.97-2.08-1.08v3.06c1.45,0.41,2.99,0.94,2.99,2.78c0,1.27-0.82,2.59-2.99,2.74v1.25h-0.86V56.83z
						 M156.59,51.08v-2.87c-1,0.07-1.7,0.66-1.7,1.48C154.89,50.46,155.63,50.8,156.59,51.08z M157.44,52.59v3.2
						c1.33-0.14,1.78-0.94,1.78-1.62C159.23,53.26,158.43,52.88,157.44,52.59z"/>
				</g>
			</g>
			<g>
				<g>
					<path fill="#989FA1" d="M153.56,110.63h-0.76v-0.73h0.62c-0.01-0.2-0.03-0.41-0.03-0.62s0.01-0.44,0.03-0.65h-0.62v-0.74h0.77
						c0.56-2.11,2.4-3.46,4.64-3.46c1.66,0,2.81,0.79,3.55,1.85l-0.97,0.55c-0.53-0.8-1.52-1.36-2.58-1.36c-1.6,0-2.9,0.94-3.4,2.42
						h4.24v0.74h-4.41c-0.03,0.21-0.04,0.42-0.04,0.65c0,0.21,0.01,0.42,0.04,0.62h4.41v0.73h-4.24c0.49,1.49,1.8,2.46,3.4,2.46
						c1.07,0,2.05-0.58,2.58-1.36l0.98,0.53c-0.79,1.08-1.91,1.87-3.57,1.87C155.95,114.12,154.11,112.76,153.56,110.63z"/>
				</g>
			</g>
			<g>
				<g>
					<path fill="#989FA1" d="M156.54,86.46c-1.42-0.08-2.5-0.67-3.2-1.48l0.7-0.9c0.53,0.63,1.39,1.19,2.5,1.32v-3.42
						c-1.43-0.39-2.91-0.87-2.91-2.6c0-1.45,1.22-2.47,2.91-2.6v-1.28h0.86v1.29c1.17,0.1,2.09,0.58,2.78,1.29l-0.7,0.86
						c-0.56-0.62-1.29-0.97-2.08-1.08v3.06c1.45,0.41,2.99,0.94,2.99,2.78c0,1.27-0.82,2.59-2.99,2.74v1.25h-0.86V86.46z
						 M156.54,80.71v-2.87c-1,0.07-1.7,0.66-1.7,1.48C154.84,80.1,155.58,80.43,156.54,80.71z M157.39,82.22v3.2
						c1.33-0.14,1.78-0.94,1.78-1.62C159.18,82.89,158.38,82.51,157.39,82.22z"/>
				</g>
			</g>
		</g>
	</g>
</g>
<g id="Layer_2">
</g>
<g id="Layer_3">
</g>
<g id="Layer_4">
</g>
<g id="Layer_5">
</g>
<g id="Layer_6">
</g>
</svg>
