<svg xmlns="http://www.w3.org/2000/svg" xmlns:xlink="http://www.w3.org/1999/xlink" viewBox="0 0 226.75 167.22"><defs><style>.cls-1,.cls-2{fill:none;}.cls-1{clip-rule:evenodd;}.cls-3{fill:#989fa1;}.cls-4{fill:#fff;}.cls-5,.cls-7{fill:#b7b7b7;}.cls-6{fill:#41b883;}.cls-7{fill-rule:evenodd;}.cls-8{clip-path:url(#clip-path);}.cls-9{fill:#fefefe;}.cls-10{fill:#fcfcfc;}.cls-11{fill:#fbfbfb;}.cls-12{fill:#f9fafa;}.cls-13{fill:#f8f8f8;}.cls-14{fill:#f7f7f7;}.cls-15{fill:#f5f6f6;}.cls-16{fill:#f4f4f5;}.cls-17{fill:#f3f3f3;}.cls-18{fill:#f1f2f2;}.cls-19{fill:#f0f0f1;}.cls-20{fill:#efeff0;}.cls-21{fill:#edeeee;}.cls-22{fill:#eceded;}.cls-23{fill:#ebebec;}.cls-24{fill:#eaeaeb;}.cls-25{fill:#e8e9e9;}.cls-26{fill:#e7e8e8;}.cls-27{fill:#e6e6e7;}.cls-28{fill:#e4e5e6;}.cls-29{fill:#e3e4e5;}.cls-30{fill:#e2e3e3;}.cls-31{fill:#e1e1e2;}.cls-32{fill:#e0e0e1;}.cls-33{fill:#dedfe0;}.cls-34{fill:#dddedf;}.cls-35{fill:#dcddde;}.cls-36{fill:#dbdcdd;}.cls-37{fill:#dadadb;}.cls-38{fill:#d8d9da;}.cls-39{fill:#d7d8d9;}.cls-40{fill:#d6d7d8;}.cls-41{fill:#d5d6d7;}.cls-42{fill:#d4d5d6;}.cls-43{fill:#d3d4d5;}.cls-44{fill:#d2d3d4;}.cls-45{fill:#d0d2d3;}.cls-46{fill:#cfd1d2;}.cls-47{fill:#cecfd1;}.cls-48{fill:#cdced0;}.cls-49{fill:#cccdcf;}.cls-50{fill:#cbccce;}.cls-51{fill:#cacbcd;}.cls-52{fill:#c9cacc;}.cls-53{fill:#c8c9cb;}.cls-54{fill:#c7c8ca;}.cls-55{fill:#c6c7c9;}.cls-56{fill:#c5c6c8;}.cls-57{fill:#c4c5c7;}.cls-58{fill:#c3c5c6;}.cls-59{fill:#c2c4c5;}.cls-60{fill:#c1c3c4;}.cls-61{fill:#c0c2c3;}.cls-62{fill:#bfc1c3;}.cls-63{fill:#bec0c2;}.cls-64{fill:#bebfc1;}.cls-65{fill:#bdbec0;}.cls-66{fill:#bcbebf;}.cls-67{fill:#bbbdbe;}.cls-68{fill:#babcbe;}.cls-69{fill:#b9bbbd;}.cls-70{fill:#b9babc;}.cls-71{fill:#b8babb;}.cls-72{fill:#b7b9bb;}.cls-73{fill:#b6b8ba;}.cls-74{fill:#b6b7b9;}.cls-75{fill:#b5b7b9;}.cls-76{fill:#b4b6b8;}.cls-77{fill:#b4b5b7;}.cls-78{fill:#b3b5b7;}.cls-79{fill:#b2b4b6;}.cls-80{fill:#b1b3b5;}.cls-81{fill:#b0b2b4;}.cls-82{fill:#afb1b3;}.cls-83{clip-path:url(#clip-path-2);}.cls-84{opacity:0.66;}.cls-85{fill:#4b4b4b;}.cls-86{clip-path:url(#clip-path-3);}.cls-87{fill:#eee679;}</style><clipPath id="clip-path"><path class="cls-1" d="M106.79,136.92a.75.75,0,0,1,.74,0l6.12,3.54a.73.73,0,0,1,.37.64v7.06a.73.73,0,0,1-.37.64l-6.12,3.54a.75.75,0,0,1-.74,0l-6.12-3.54a.73.73,0,0,1-.37-.64V141.1a.73.73,0,0,1,.37-.64Z"/></clipPath><clipPath id="clip-path-2"><path class="cls-1" d="M107.53,136.92a.75.75,0,0,0-.74,0l-6.12,3.54a.73.73,0,0,0-.37.64v7.06a.73.73,0,0,0,.37.64l6.12,3.54a.75.75,0,0,0,.74,0l6.12-3.54a.73.73,0,0,0,.37-.64V141.1a.73.73,0,0,0-.37-.64Z"/></clipPath><clipPath id="clip-path-3"><path class="cls-2" d="M107.51,152.34l6.11-3.54a.7.7,0,0,0,.34-.64v0l-6.61-11.29a.76.76,0,0,0-.57.07l-6.06,3.5,6.59,12A.7.7,0,0,0,107.51,152.34Z"/></clipPath></defs><title>Javascript E-commerce-04</title><g id="Layer_2" data-name="Layer 2"><g id="Layer_6" data-name="Layer 6"><polygon class="cls-3" points="226.75 77.86 226 77.86 226 71.46 0.75 71.46 0.75 77.86 0 77.86 0 70.71 226.75 70.71 226.75 77.86"/><rect class="cls-3" x="113" y="54.39" width="0.75" height="16.69"/><path class="cls-4" d="M14.53,101c0,3.07,3,5.93,7.71,7.54-.94,4.74-.17,8.57,2.41,10.06s6.61.47,10.37-2.82c3.66,3.15,7.35,4.39,9.94,2.9s3.45-5.62,2.49-10.51c4.91-1.62,7.66-4.06,7.66-7.17s-3-5.58-7.65-7.19c1-5.09.16-8.82-2.53-10.37s-6.34-.19-10,3C31,83.06,27.31,82,24.62,83.57S21.29,89,22.24,93.79C17.68,95.38,14.53,98,14.53,101Z"/><path class="cls-5" d="M46.47,95.42c-.38-.14-.77-.26-1.16-.37.07-.26.13-.53.18-.79.88-4.26.3-7.7-1.66-8.83s-4.95,0-8.06,2.75c-.3.27-.6.54-.89.82l-.6-.55c-3.26-2.89-6.52-4.11-8.48-3s-2.43,4.31-1.64,8.35c.08.4.17.8.26,1.2-.46.13-.9.27-1.33.42-3.82,1.33-6.25,3.41-6.25,5.58s2.61,4.47,6.59,5.83c.32.11.65.21,1,.3-.1.43-.2.86-.28,1.29-.75,4-.17,7.12,1.71,8.2s5.18,0,8.34-2.79c.25-.22.5-.45.75-.7.32.31.65.61,1,.89,3.06,2.64,6.09,3.7,8,2.62s2.56-4.51,1.74-8.63q-.09-.47-.21-1l.67-.21c4.13-1.37,6.82-3.58,6.82-5.84s-2.52-4.27-6.41-5.61Z"/><path class="cls-4" d="M45.57,105.41l-.6.19A35.67,35.67,0,0,0,43.14,101a36.82,36.82,0,0,0,1.76-4.5l1.07.34C49.3,98,51.34,99.72,51.34,101s-2.2,3.2-5.77,4.38Zm-1.48,2.93a12.84,12.84,0,0,1,.18,4.76,3.22,3.22,0,0,1-1.18,2.24c-1.14.65-3.57-.2-6.19-2.45-.3-.26-.6-.54-.9-.83a36.2,36.2,0,0,0,3-3.84,34.49,34.49,0,0,0,4.88-.75c.07.3.14.59.19.87Zm-15,6.88a3.17,3.17,0,0,1-2.52.1c-1.14-.66-1.61-3.19-1-6.58.08-.41.17-.8.27-1.2a35.31,35.31,0,0,0,4.85.7,36.34,36.34,0,0,0,3.1,3.83l-.69.63a13,13,0,0,1-4,2.52Zm-5.19-9.82a13.13,13.13,0,0,1-4.21-2.23A3.2,3.2,0,0,1,18.38,101c0-1.32,1.95-3,5.22-4.13.41-.14.82-.27,1.24-.39a37,37,0,0,0,1.75,4.55,37.72,37.72,0,0,0-1.77,4.62Zm1.74-11.86c-.68-3.46-.23-6.07.9-6.73s3.88.3,6.69,2.79l.54.5a36.54,36.54,0,0,0-3.07,3.8,37.59,37.59,0,0,0-4.81.75c-.1-.37-.18-.74-.25-1.11Zm15.55,3.84c-.36-.61-.72-1.21-1.1-1.81,1.15.15,2.25.34,3.29.58a31.49,31.49,0,0,1-1.16,3.1c-.33-.63-.68-1.25-1-1.87ZM34.88,91.2c.71.77,1.42,1.63,2.12,2.56q-2.13-.09-4.26,0a32.91,32.91,0,0,1,2.14-2.56ZM28.5,97.39q-.54.92-1,1.86c-.45-1.06-.83-2.11-1.15-3.12,1-.23,2.13-.42,3.27-.56C29.22,96.17,28.85,96.77,28.5,97.39Zm1.13,9.2a30.71,30.71,0,0,1-3.32-.54c.32-1,.71-2.09,1.17-3.18.33.63.67,1.25,1,1.87S29.24,106,29.63,106.59ZM34.92,111c-.73-.79-1.46-1.66-2.17-2.6.69,0,1.39,0,2.11,0s1.46,0,2.17-.05A33.17,33.17,0,0,1,34.92,111Zm7.35-8.14c.48,1.1.88,2.16,1.21,3.17a32.18,32.18,0,0,1-3.36.57c.38-.6.74-1.21,1.1-1.83s.71-1.27,1.05-1.91ZM39.89,104c-.55,1-1.12,1.88-1.73,2.79-1.07.07-2.18.11-3.3.11s-2.21,0-3.26-.1c-.63-.91-1.21-1.84-1.77-2.79s-1.06-1.92-1.53-2.91c.47-1,1-2,1.53-2.9h0c.55-1,1.13-1.88,1.75-2.78,1.07-.09,2.17-.13,3.28-.13s2.21,0,3.29.13c.61.9,1.19,1.82,1.73,2.77S41,100.06,41.44,101c-.48,1-1,2-1.55,2.92Zm3.17-17.2c1.21.7,1.68,3.51.92,7.19,0,.24-.1.48-.16.71A38,38,0,0,0,39,93.9a36.15,36.15,0,0,0-3-3.8c.27-.26.55-.51.83-.76,2.66-2.31,5.15-3.23,6.28-2.58Z"/><path class="cls-5" d="M34.86,97.81A3.22,3.22,0,1,1,31.64,101a3.22,3.22,0,0,1,3.22-3.22"/><path class="cls-6" d="M153.79,88.07h6l-15.08,26-15.08-26H141.2l3.54,6,3.47-6Z"/><path class="cls-5" d="M129.66,88.07l15.08,26,15.08-26h-6l-9,15.61-9.12-15.61Z"/><path class="cls-3" d="M135.62,88.07l9.12,15.68,9-15.68h-5.58l-3.47,6-3.54-6Z"/><path class="cls-5" d="M76,90.22l15.11-5.38,15.51,5.29-2.51,20-13,7.2-12.8-7.1Z"/><path class="cls-3" d="M106.59,90.13,91.08,84.84v32.47l13-7.19,2.51-20Z"/><path class="cls-4" d="M91.1,88.63l-9.41,20.94,3.51-.06,1.89-4.72h8.45l2.07,4.78,3.36.06-9.87-21Zm0,6.71L94.31,102h-6l2.79-6.65Z"/><path class="cls-3" d="M193.4,93l-.37.24a9.61,9.61,0,0,0-4.63,8.36,9.82,9.82,0,0,0,19.61.85,10.2,10.2,0,0,0-7.24-10.29c-.67-.75-1.28-3.26-.22-4.41a14.33,14.33,0,0,1,9.77,6.8,14,14,0,1,1-25.93,9.07c-1.36-7.81,4.16-14.76,11.94-15.93A9.25,9.25,0,0,0,193.4,93"/><path class="cls-5" d="M203.85,99.63A4.68,4.68,0,0,0,204.1,96c-.09-.31-.27-.83-.4-1.17a8.75,8.75,0,0,1-4.55,15.52,8.78,8.78,0,0,1-9.06-5.4,9,9,0,0,1,2.07-9.66c-1.15,2.31-.79,4.15-.32,4.83a2,2,0,0,0,3.65-1,5.18,5.18,0,0,0-.38-2c-1.52-3.47-.25-6.6,2.2-8.76a15.16,15.16,0,0,1,2.59-1.81,5.36,5.36,0,0,0-.48,5.5c.52,1,1.18,2.08,1.76,3a8.55,8.55,0,0,1,1.41,5.67,2.49,2.49,0,0,0,1.26-1.14"/><path class="cls-5" d="M115.26,167.22a1.32,1.32,0,0,1-.61-.16l-1.94-1.15c-.29-.16-.15-.22,0-.25a4.42,4.42,0,0,0,.87-.4.14.14,0,0,1,.15,0l1.49.88a.19.19,0,0,0,.18,0l5.82-3.35a.22.22,0,0,0,.09-.16v-6.72a.22.22,0,0,0-.09-.16l-5.82-3.35a.19.19,0,0,0-.18,0l-5.81,3.36a.16.16,0,0,0-.09.15v6.72a.16.16,0,0,0,.09.15l1.59.92c.87.44,1.4-.07,1.4-.58V156.5a.16.16,0,0,1,.17-.17h.73a.16.16,0,0,1,.17.17v6.63a1.61,1.61,0,0,1-1.72,1.81,2.51,2.51,0,0,1-1.34-.36l-1.53-.88a1.25,1.25,0,0,1-.61-1.06v-6.72a1.25,1.25,0,0,1,.61-1.06l5.82-3.36a1.32,1.32,0,0,1,1.22,0l5.82,3.36a1.23,1.23,0,0,1,.61,1.06v6.72a1.23,1.23,0,0,1-.61,1.06l-5.82,3.36A1.26,1.26,0,0,1,115.26,167.22Z"/><path class="cls-5" d="M117.06,162.6c-2.55,0-3.08-1.17-3.08-2.15a.16.16,0,0,1,.17-.17h.75a.18.18,0,0,1,.17.14c.11.77.45,1.15,2,1.15,1.22,0,1.75-.27,1.75-.92,0-.38-.15-.66-2.06-.84-1.59-.16-2.57-.51-2.57-1.78s1-1.88,2.64-1.88c1.87,0,2.79.65,2.91,2a.24.24,0,0,1,0,.13.17.17,0,0,1-.12.05h-.76a.18.18,0,0,1-.16-.13c-.18-.81-.62-1.07-1.82-1.07s-1.49.47-1.49.82.18.55,2,.79,2.64.57,2.64,1.82S118.9,162.6,117.06,162.6Z"/><path class="cls-5" d="M125.45,155.56a1.13,1.13,0,1,1-1.13-1.13A1.13,1.13,0,0,1,125.45,155.56Zm-2.07,0a.94.94,0,1,0,1.88,0,.94.94,0,0,0-1.88,0Zm.52-.62h.44c.14,0,.44,0,.44.33a.29.29,0,0,1-.24.31c.17,0,.18.12.21.28a1.3,1.3,0,0,0,.06.33h-.27c0-.05,0-.38,0-.39s0-.11-.13-.11h-.22v.5h-.25Zm.24.55h.2a.17.17,0,0,0,.19-.18c0-.17-.12-.17-.19-.17h-.2Z"/><path class="cls-7" d="M97.25,141a.74.74,0,0,0-.37-.65l-6.17-3.55a.83.83,0,0,0-.34-.1h-.06a.79.79,0,0,0-.34.1l-6.17,3.55a.74.74,0,0,0-.37.65v9.55a.39.39,0,0,0,.18.33.4.4,0,0,0,.37,0l3.67-2.1a.76.76,0,0,0,.37-.65v-4.46a.74.74,0,0,1,.37-.65l1.57-.9a.73.73,0,0,1,.74,0l1.56.9a.74.74,0,0,1,.37.65v4.46a.76.76,0,0,0,.37.65l3.67,2.1a.4.4,0,0,0,.37,0,.4.4,0,0,0,.19-.33Z"/><path class="cls-7" d="M126.92,127.82a.4.4,0,0,0-.37,0,.38.38,0,0,0-.18.32v9.47a.25.25,0,0,1-.13.22.24.24,0,0,1-.26,0l-1.55-.88a.7.7,0,0,0-.74,0l-6.17,3.56a.73.73,0,0,0-.37.64v7.12a.74.74,0,0,0,.37.65l6.17,3.56a.75.75,0,0,0,.74,0l6.17-3.56a.75.75,0,0,0,.38-.65V130.52a.74.74,0,0,0-.39-.65Zm-.57,18.11a.19.19,0,0,1-.09.16l-2.12,1.23a.21.21,0,0,1-.19,0l-2.12-1.23a.19.19,0,0,1-.09-.16v-2.44a.19.19,0,0,1,.09-.16L124,142.1a.21.21,0,0,1,.19,0l2.12,1.23a.19.19,0,0,1,.09.16Z"/><path class="cls-7" d="M147.47,143.42a.74.74,0,0,0,.37-.64v-1.73a.74.74,0,0,0-.37-.64l-6.13-3.56a.77.77,0,0,0-.75,0l-6.17,3.56a.74.74,0,0,0-.37.64v7.12a.73.73,0,0,0,.38.65l6.12,3.49a.78.78,0,0,0,.74,0l3.7-2.06a.37.37,0,0,0,.19-.33.38.38,0,0,0-.18-.32l-6.21-3.56a.37.37,0,0,1-.19-.33v-2.23a.37.37,0,0,1,.19-.32l1.93-1.11a.35.35,0,0,1,.37,0l1.94,1.11a.38.38,0,0,1,.18.32v1.76a.37.37,0,0,0,.19.32.35.35,0,0,0,.37,0Z"/><path class="cls-7" d="M140.87,143.09a.12.12,0,0,1,.14,0l1.19.68a.17.17,0,0,1,.07.13v1.36a.17.17,0,0,1-.07.13l-1.19.68a.12.12,0,0,1-.14,0l-1.18-.68a.15.15,0,0,1-.07-.13V143.9a.15.15,0,0,1,.07-.13Z"/><g id="_Group_" data-name="&lt;Group&gt;"><g class="cls-8"><rect class="cls-4" x="100.3" y="136.79" width="0.07" height="15.68"/><rect class="cls-4" x="100.37" y="136.79" width="0.17" height="15.68"/><rect class="cls-9" x="100.54" y="136.79" width="0.17" height="15.68"/><rect class="cls-10" x="100.71" y="136.79" width="0.17" height="15.68"/><rect class="cls-11" x="100.88" y="136.79" width="0.17" height="15.68"/><rect class="cls-12" x="101.05" y="136.79" width="0.17" height="15.68"/><rect class="cls-13" x="101.22" y="136.79" width="0.17" height="15.68"/><rect class="cls-14" x="101.4" y="136.79" width="0.17" height="15.68"/><rect class="cls-15" x="101.57" y="136.79" width="0.17" height="15.68"/><rect class="cls-16" x="101.74" y="136.79" width="0.17" height="15.68"/><rect class="cls-17" x="101.91" y="136.79" width="0.17" height="15.68"/><rect class="cls-18" x="102.08" y="136.79" width="0.17" height="15.68"/><rect class="cls-19" x="102.25" y="136.79" width="0.17" height="15.68"/><rect class="cls-20" x="102.42" y="136.79" width="0.17" height="15.68"/><rect class="cls-21" x="102.59" y="136.79" width="0.17" height="15.68"/><rect class="cls-22" x="102.76" y="136.79" width="0.17" height="15.68"/><rect class="cls-23" x="102.93" y="136.79" width="0.17" height="15.68"/><rect class="cls-24" x="103.1" y="136.79" width="0.17" height="15.68"/><rect class="cls-25" x="103.27" y="136.79" width="0.17" height="15.68"/><rect class="cls-26" x="103.44" y="136.79" width="0.17" height="15.68"/><rect class="cls-27" x="103.61" y="136.79" width="0.17" height="15.68"/><rect class="cls-28" x="103.78" y="136.79" width="0.17" height="15.68"/><rect class="cls-29" x="103.95" y="136.79" width="0.17" height="15.68"/><rect class="cls-30" x="104.12" y="136.79" width="0.17" height="15.68"/><rect class="cls-31" x="104.29" y="136.79" width="0.17" height="15.68"/><rect class="cls-32" x="104.47" y="136.79" width="0.17" height="15.68"/><rect class="cls-33" x="104.64" y="136.79" width="0.17" height="15.68"/><rect class="cls-34" x="104.81" y="136.79" width="0.17" height="15.68"/><rect class="cls-35" x="104.98" y="136.79" width="0.17" height="15.68"/><rect class="cls-36" x="105.15" y="136.79" width="0.17" height="15.68"/><rect class="cls-37" x="105.32" y="136.79" width="0.17" height="15.68"/><rect class="cls-38" x="105.49" y="136.79" width="0.17" height="15.68"/><rect class="cls-39" x="105.66" y="136.79" width="0.17" height="15.68"/><rect class="cls-40" x="105.83" y="136.79" width="0.17" height="15.68"/><rect class="cls-41" x="106" y="136.79" width="0.17" height="15.68"/><rect class="cls-42" x="106.17" y="136.79" width="0.17" height="15.68"/><rect class="cls-43" x="106.34" y="136.79" width="0.17" height="15.68"/><rect class="cls-44" x="106.51" y="136.79" width="0.17" height="15.68"/><rect class="cls-45" x="106.68" y="136.79" width="0.17" height="15.68"/><rect class="cls-46" x="106.85" y="136.79" width="0.17" height="15.68"/><rect class="cls-47" x="107.02" y="136.79" width="0.17" height="15.68"/><rect class="cls-48" x="107.19" y="136.79" width="0.17" height="15.68"/><rect class="cls-49" x="107.36" y="136.79" width="0.17" height="15.68"/><rect class="cls-50" x="107.54" y="136.79" width="0.17" height="15.68"/><rect class="cls-51" x="107.71" y="136.79" width="0.17" height="15.68"/><rect class="cls-52" x="107.88" y="136.79" width="0.17" height="15.68"/><rect class="cls-53" x="108.05" y="136.79" width="0.17" height="15.68"/><rect class="cls-54" x="108.22" y="136.79" width="0.17" height="15.68"/><rect class="cls-55" x="108.39" y="136.79" width="0.17" height="15.68"/><rect class="cls-56" x="108.56" y="136.79" width="0.17" height="15.68"/><rect class="cls-57" x="108.73" y="136.79" width="0.17" height="15.68"/><rect class="cls-58" x="108.9" y="136.79" width="0.17" height="15.68"/><rect class="cls-59" x="109.07" y="136.79" width="0.17" height="15.68"/><rect class="cls-60" x="109.24" y="136.79" width="0.17" height="15.68"/><rect class="cls-61" x="109.41" y="136.79" width="0.17" height="15.68"/><rect class="cls-62" x="109.58" y="136.79" width="0.17" height="15.68"/><rect class="cls-63" x="109.75" y="136.79" width="0.17" height="15.68"/><rect class="cls-64" x="109.92" y="136.79" width="0.17" height="15.68"/><rect class="cls-65" x="110.09" y="136.79" width="0.17" height="15.68"/><rect class="cls-66" x="110.26" y="136.79" width="0.17" height="15.68"/><rect class="cls-67" x="110.43" y="136.79" width="0.17" height="15.68"/><rect class="cls-68" x="110.6" y="136.79" width="0.17" height="15.68"/><rect class="cls-69" x="110.78" y="136.79" width="0.17" height="15.68"/><rect class="cls-70" x="110.95" y="136.79" width="0.17" height="15.68"/><rect class="cls-71" x="111.12" y="136.79" width="0.17" height="15.68"/><rect class="cls-72" x="111.29" y="136.79" width="0.17" height="15.68"/><rect class="cls-73" x="111.46" y="136.79" width="0.17" height="15.68"/><rect class="cls-74" x="111.63" y="136.79" width="0.17" height="15.68"/><rect class="cls-75" x="111.8" y="136.79" width="0.17" height="15.68"/><rect class="cls-76" x="111.97" y="136.79" width="0.17" height="15.68"/><rect class="cls-77" x="112.14" y="136.79" width="0.17" height="15.68"/><rect class="cls-78" x="112.31" y="136.79" width="0.17" height="15.68"/><rect class="cls-79" x="112.48" y="136.79" width="0.17" height="15.68"/><rect class="cls-79" x="112.65" y="136.79" width="0.17" height="15.68"/><rect class="cls-80" x="112.82" y="136.79" width="0.17" height="15.68"/><rect class="cls-80" x="112.99" y="136.79" width="0.17" height="15.68"/><rect class="cls-81" x="113.16" y="136.79" width="0.17" height="15.68"/><rect class="cls-81" x="113.33" y="136.79" width="0.17" height="15.68"/><rect class="cls-82" x="113.5" y="136.79" width="0.17" height="15.68"/><rect class="cls-82" x="113.67" y="136.79" width="0.17" height="15.68"/><rect class="cls-82" x="113.85" y="136.79" width="0.17" height="15.68"/><path class="cls-82" d="M114,152.47v0Z"/></g></g><g class="cls-83"><path class="cls-2" d="M106.78,136.92l-6.13,3.54a.76.76,0,0,0-.38.64v7.06a.77.77,0,0,0,.17.47l6.89-11.78A.76.76,0,0,0,106.78,136.92Z"/><path class="cls-2" d="M107.37,152.4a.35.35,0,0,0,.14-.06l6.11-3.54a.7.7,0,0,0,.34-.64V141.1a.73.73,0,0,0-.16-.48Z"/><g class="cls-84"><path class="cls-85" d="M113.62,140.46l-6.1-3.54a.62.62,0,0,0-.19-.07l-6.89,11.78a.68.68,0,0,0,.21.17l6.13,3.54a.76.76,0,0,0,.59.06l6.43-11.78A.69.69,0,0,0,113.62,140.46Z"/></g><path class="cls-2" d="M100.72,140.42l-.07,0a.76.76,0,0,0-.38.64v7.06a.74.74,0,0,0,.38.64l6.13,3.54a.76.76,0,0,0,.53.08Z"/><path class="cls-2" d="M114,141.1a.72.72,0,0,0-.34-.64l-6.1-3.54-.17-.07L114,148.14Z"/><g class="cls-86"><rect class="cls-82" x="100.72" y="136.8" width="0.01" height="15.62"/><rect class="cls-81" x="100.73" y="136.8" width="0.18" height="15.62"/><rect class="cls-81" x="100.91" y="136.8" width="0.18" height="15.62"/><rect class="cls-80" x="101.08" y="136.8" width="0.18" height="15.62"/><rect class="cls-80" x="101.26" y="136.8" width="0.18" height="15.62"/><rect class="cls-79" x="101.44" y="136.8" width="0.18" height="15.62"/><rect class="cls-79" x="101.61" y="136.8" width="0.18" height="15.62"/><rect class="cls-78" x="101.79" y="136.8" width="0.18" height="15.62"/><rect class="cls-77" x="101.96" y="136.8" width="0.18" height="15.62"/><rect class="cls-76" x="102.14" y="136.8" width="0.18" height="15.62"/><rect class="cls-75" x="102.32" y="136.8" width="0.18" height="15.62"/><rect class="cls-74" x="102.49" y="136.8" width="0.18" height="15.62"/><rect class="cls-73" x="102.67" y="136.8" width="0.18" height="15.62"/><rect class="cls-72" x="102.84" y="136.8" width="0.18" height="15.62"/><rect class="cls-71" x="103.02" y="136.8" width="0.18" height="15.62"/><rect class="cls-70" x="103.2" y="136.8" width="0.18" height="15.62"/><rect class="cls-69" x="103.37" y="136.8" width="0.18" height="15.62"/><rect class="cls-68" x="103.55" y="136.8" width="0.18" height="15.62"/><rect class="cls-67" x="103.72" y="136.8" width="0.18" height="15.62"/><rect class="cls-66" x="103.9" y="136.8" width="0.18" height="15.62"/><rect class="cls-65" x="104.08" y="136.8" width="0.18" height="15.62"/><rect class="cls-64" x="104.25" y="136.8" width="0.18" height="15.62"/><rect class="cls-63" x="104.43" y="136.8" width="0.18" height="15.62"/><rect class="cls-62" x="104.6" y="136.8" width="0.18" height="15.62"/><rect class="cls-61" x="104.78" y="136.8" width="0.18" height="15.62"/><rect class="cls-60" x="104.95" y="136.8" width="0.18" height="15.62"/><rect class="cls-59" x="105.13" y="136.8" width="0.18" height="15.62"/><rect class="cls-58" x="105.31" y="136.8" width="0.18" height="15.62"/><rect class="cls-57" x="105.48" y="136.8" width="0.18" height="15.62"/><rect class="cls-56" x="105.66" y="136.8" width="0.18" height="15.62"/><rect class="cls-55" x="105.83" y="136.8" width="0.18" height="15.62"/><rect class="cls-54" x="106.01" y="136.8" width="0.18" height="15.62"/><rect class="cls-53" x="106.19" y="136.8" width="0.18" height="15.62"/><rect class="cls-52" x="106.36" y="136.8" width="0.18" height="15.62"/><rect class="cls-51" x="106.54" y="136.8" width="0.18" height="15.62"/><rect class="cls-50" x="106.71" y="136.8" width="0.18" height="15.62"/><rect class="cls-49" x="106.89" y="136.8" width="0.18" height="15.62"/><rect class="cls-48" x="107.07" y="136.8" width="0.18" height="15.62"/><rect class="cls-47" x="107.24" y="136.8" width="0.18" height="15.62"/><rect class="cls-46" x="107.42" y="136.8" width="0.18" height="15.62"/><rect class="cls-45" x="107.59" y="136.8" width="0.18" height="15.62"/><rect class="cls-44" x="107.77" y="136.8" width="0.18" height="15.62"/><rect class="cls-43" x="107.95" y="136.8" width="0.18" height="15.62"/><rect class="cls-42" x="108.12" y="136.8" width="0.18" height="15.62"/><rect class="cls-41" x="108.3" y="136.8" width="0.18" height="15.62"/><rect class="cls-40" x="108.47" y="136.8" width="0.18" height="15.62"/><rect class="cls-39" x="108.65" y="136.8" width="0.18" height="15.62"/><rect class="cls-38" x="108.83" y="136.8" width="0.18" height="15.62"/><rect class="cls-37" x="109" y="136.8" width="0.18" height="15.62"/><rect class="cls-36" x="109.18" y="136.8" width="0.18" height="15.62"/><rect class="cls-35" x="109.35" y="136.8" width="0.18" height="15.62"/><rect class="cls-34" x="109.53" y="136.8" width="0.18" height="15.62"/><rect class="cls-33" x="109.7" y="136.8" width="0.18" height="15.62"/><rect class="cls-32" x="109.88" y="136.8" width="0.18" height="15.62"/><rect class="cls-31" x="110.06" y="136.8" width="0.18" height="15.62"/><rect class="cls-30" x="110.23" y="136.8" width="0.18" height="15.62"/><rect class="cls-29" x="110.41" y="136.8" width="0.18" height="15.62"/><rect class="cls-28" x="110.58" y="136.8" width="0.18" height="15.62"/><rect class="cls-27" x="110.76" y="136.8" width="0.18" height="15.62"/><rect class="cls-26" x="110.94" y="136.8" width="0.18" height="15.62"/><rect class="cls-25" x="111.11" y="136.8" width="0.18" height="15.62"/><rect class="cls-24" x="111.29" y="136.8" width="0.18" height="15.62"/><rect class="cls-23" x="111.46" y="136.8" width="0.18" height="15.62"/><rect class="cls-22" x="111.64" y="136.8" width="0.18" height="15.62"/><rect class="cls-21" x="111.82" y="136.8" width="0.18" height="15.62"/><rect class="cls-20" x="111.99" y="136.8" width="0.18" height="15.62"/><rect class="cls-19" x="112.17" y="136.8" width="0.18" height="15.62"/><rect class="cls-18" x="112.34" y="136.8" width="0.18" height="15.62"/><rect class="cls-17" x="112.52" y="136.8" width="0.18" height="15.62"/><rect class="cls-16" x="112.7" y="136.8" width="0.18" height="15.62"/><rect class="cls-15" x="112.87" y="136.8" width="0.18" height="15.62"/><rect class="cls-14" x="113.05" y="136.8" width="0.18" height="15.62"/><rect class="cls-13" x="113.22" y="136.8" width="0.18" height="15.62"/><rect class="cls-12" x="113.4" y="136.8" width="0.18" height="15.62"/><rect class="cls-11" x="113.58" y="136.8" width="0.18" height="15.62"/><rect class="cls-10" x="113.75" y="136.8" width="0.18" height="15.62"/><rect class="cls-9" x="113.93" y="136.8" width="0.03" height="15.62"/></g></g><path class="cls-87" d="M135.35,11.66,116.38.72a6.65,6.65,0,0,0-6,0l-19,10.94a6.71,6.71,0,0,0-3,5.22V38.77a6.7,6.7,0,0,0,3,5.22l19,10.94a6.71,6.71,0,0,0,6,0l19-10.94a6.71,6.71,0,0,0,3-5.22V16.88A6.71,6.71,0,0,0,135.35,11.66Zm-5.12,11.79h-2V20.11c0-2.55-2-3.34-5.77-3.34h-.17c-9.1,0-8.3-3.4-8.56-4.65h-.13c-.26,1.25.61,4.65-8.49,4.65h-.24c-3.8,0-5.76.79-5.76,3.34v2.58l31.07,9v.5h0v3.21c0,3.67-1.77,5.7-7.73,5.7h-.3c-4.65,0-7.51,1-7.51,4.65h-2c0-3.67-2.86-4.65-7.51-4.65h-.3c-6,0-7.73-2-7.73-5.7V32.18h2v3.34c0,2.56,2,3.34,5.76,3.34h.17c9.11,0,8.3,3.41,8.56,4.65h.13c.26-1.24-.61-4.65,8.49-4.65h.24c3.8,0,5.77-.78,5.77-3.34V33.6l-31.08-9V23.45h0V20.24c0-3.66,1.77-5.69,7.73-5.69h.3c4.65,0,7.51-1,7.51-4.65h2c0,3.66,2.86,4.65,7.51,4.65h.3c6,0,7.73,2,7.73,5.69Z"/></g></g></svg>