<?xml version="1.0" encoding="utf-8"?>
<!-- Generator: Adobe Illustrator 22.0.1, SVG Export Plug-In . SVG Version: 6.00 Build 0)  -->
<svg version="1.1" xmlns="http://www.w3.org/2000/svg" xmlns:xlink="http://www.w3.org/1999/xlink" x="0px" y="0px" width="300px"
	 height="124.5px" viewBox="0 0 300 124.5" enable-background="new 0 0 300 124.5" xml:space="preserve">
<g id="Layer_1">
	<g>
		<path fill="#ECEFEF" d="M248.6,3.89c3.03,0,5.5,2.47,5.5,5.5v6.1h-61.74v-6.1c0-3.03,2.47-5.5,5.5-5.5H248.6z"/>
		<path fill="#ECEFEF" d="M86.93,3.89c3.03,0,5.5,2.47,5.5,5.5v6.1H30.69v-6.1c0-3.03,2.47-5.5,5.5-5.5H86.93z"/>
		<g>
			<path fill="#ECEFEF" d="M198.03,120.4c-3.03,0-5.5-2.47-5.5-5.5v-6.1h61.74v6.1c0,3.03-2.47,5.5-5.5,5.5H198.03z"/>
			<path fill="#ECEFEF" d="M36.28,120.15c-3.03,0-5.5-2.47-5.5-5.5v-6.1h61.74v6.1c0,3.03-2.47,5.5-5.5,5.5H36.28z"/>
			<g>
				<rect x="178.16" y="36.55" fill="#EEE679" width="90.08" height="51.39"/>
				<path fill="#989FA1" d="M272.56,91.84h-98.73V32.66h98.73V91.84z M174.59,91.09h97.23V33.41h-97.23V91.09z"/>
				<g>
					<g>
						<rect x="189.33" y="17.61" fill="#989FA1" width="67.74" height="0.75"/>
						<rect x="189.33" y="105.27" fill="#989FA1" width="67.74" height="0.75"/>
						<rect x="214.21" y="9.81" fill="#989FA1" width="21.43" height="0.75"/>
						<g>
							<circle fill="#FFFFFF" cx="222.98" cy="114.09" r="2.27"/>
							<path fill="#989FA1" d="M222.98,116.74c-1.46,0-2.65-1.19-2.65-2.65s1.19-2.65,2.65-2.65s2.65,1.19,2.65,2.65
								S224.44,116.74,222.98,116.74z M222.98,112.19c-1.05,0-1.9,0.85-1.9,1.9s0.85,1.9,1.9,1.9s1.9-0.85,1.9-1.9
								S224.02,112.19,222.98,112.19z"/>
						</g>
					</g>
					<path fill="#989FA1" d="M189.71,28.7h-0.75V9.75c0-4.89,3.98-8.88,8.88-8.88h50.74c4.89,0,8.88,3.98,8.88,8.88v18.87h-0.75
						V9.75c0-4.48-3.65-8.13-8.13-8.13h-50.74c-4.48,0-8.13,3.65-8.13,8.13V28.7z"/>
					<path fill="#989FA1" d="M248.57,123.62h-50.74c-4.89,0-8.88-3.98-8.88-8.88V96.26h0.75v18.49c0,4.48,3.65,8.13,8.13,8.13h50.74
						c4.48,0,8.13-3.65,8.13-8.13V96.19h0.75v18.56C257.44,119.64,253.46,123.62,248.57,123.62z"/>
				</g>
				<g>
					<path fill="#697374" d="M209.79,58.46h3.33c1.59,0,2.48,1.09,2.48,2.37s-0.9,2.37-2.48,2.37h-2v2.83h-1.33V58.46z
						 M212.93,59.63h-1.82v2.41h1.82c0.75,0,1.29-0.48,1.29-1.2C214.23,60.11,213.68,59.63,212.93,59.63z"/>
					<path fill="#697374" d="M221.78,64.58h-3.59l-0.56,1.45h-1.45l2.98-7.57h1.66l2.98,7.57h-1.45L221.78,64.58z M218.57,63.41
						h2.84l-1.42-3.83L218.57,63.41z"/>
					<path fill="#697374" d="M225.75,58.46h1.33v7.57h-1.33V58.46z"/>
					<path fill="#697374" d="M229.83,58.46h2.82c2.36,0,3.96,1.57,3.96,3.79c0,2.23-1.6,3.78-3.96,3.78h-2.82V58.46z M232.65,64.87
						c1.65,0,2.6-1.18,2.6-2.61c0-1.47-0.91-2.62-2.6-2.62h-1.49v5.24H232.65z"/>
				</g>
			</g>
			<g>
				<path fill="#989FA1" d="M87.02,123.62H36.31c-4.89,0-8.87-3.98-8.87-8.87V9.81c0-4.89,3.98-8.87,8.87-8.87h50.71
					c4.89,0,8.87,3.98,8.87,8.87v104.94C95.89,119.64,91.91,123.62,87.02,123.62z M36.31,1.69c-4.48,0-8.12,3.64-8.12,8.12v104.94
					c0,4.48,3.64,8.12,8.12,8.12h50.71c4.48,0,8.12-3.64,8.12-8.12V9.81c0-4.48-3.64-8.12-8.12-8.12H36.31z"/>
				<g>
					<rect x="27.81" y="17.66" fill="#989FA1" width="67.7" height="0.75"/>
					<rect x="27.81" y="105.28" fill="#989FA1" width="67.7" height="0.75"/>
					<rect x="52.68" y="9.87" fill="#989FA1" width="21.42" height="0.75"/>
					<g>
						<circle fill="#FFFFFF" cx="61.44" cy="114.09" r="2.27"/>
						<path fill="#989FA1" d="M61.44,116.74c-1.46,0-2.65-1.19-2.65-2.65s1.19-2.65,2.65-2.65s2.65,1.19,2.65,2.65
							S62.9,116.74,61.44,116.74z M61.44,112.2c-1.05,0-1.9,0.85-1.9,1.9s0.85,1.9,1.9,1.9s1.9-0.85,1.9-1.9
							S62.49,112.2,61.44,112.2z"/>
					</g>
				</g>
			</g>
			<rect x="33.33" y="51.65" fill="#EEE679" width="57.22" height="17.61"/>
			<g>
				<path fill="#697374" d="M43.21,61.26h-1.96l-0.3,0.79h-0.79l1.63-4.14h0.91l1.63,4.14h-0.79L43.21,61.26z M41.45,60.62H43
					l-0.78-2.09L41.45,60.62z"/>
				<path fill="#697374" d="M45.07,57.92h1.54c1.29,0,2.17,0.86,2.17,2.07c0,1.22-0.88,2.07-2.17,2.07h-1.54V57.92z M46.61,61.42
					c0.9,0,1.42-0.65,1.42-1.43c0-0.8-0.5-1.43-1.42-1.43H45.8v2.86H46.61z"/>
				<path fill="#697374" d="M49.79,57.92h1.54c1.29,0,2.17,0.86,2.17,2.07c0,1.22-0.88,2.07-2.17,2.07h-1.54V57.92z M51.33,61.42
					c0.9,0,1.42-0.65,1.42-1.43c0-0.8-0.5-1.43-1.42-1.43h-0.81v2.86H51.33z"/>
				<path fill="#697374" d="M57.4,58.56h-1.25v-0.64h3.23v0.64h-1.25v3.5H57.4V58.56z"/>
				<path fill="#697374" d="M62.08,57.85c1.24,0,2.12,0.91,2.12,2.14c0,1.24-0.88,2.14-2.12,2.14c-1.24,0-2.12-0.91-2.12-2.14
					C59.97,58.76,60.84,57.85,62.08,57.85z M62.08,58.5c-0.84,0-1.37,0.64-1.37,1.5c0,0.85,0.53,1.5,1.37,1.5
					c0.83,0,1.37-0.65,1.37-1.5C63.46,59.14,62.92,58.5,62.08,58.5z"/>
				<path fill="#697374" d="M66.94,59.99c0-1.27,0.95-2.14,2.14-2.14c0.87,0,1.38,0.43,1.69,0.93l-0.62,0.32
					c-0.2-0.34-0.6-0.6-1.07-0.6c-0.79,0-1.4,0.63-1.4,1.5c0,0.87,0.61,1.5,1.4,1.5c0.48,0,0.88-0.25,1.07-0.6l0.62,0.32
					c-0.32,0.5-0.83,0.93-1.69,0.93C67.89,62.13,66.94,61.26,66.94,59.99z"/>
				<path fill="#697374" d="M74.26,61.26H72.3L72,62.06H71.2l1.63-4.14h0.91l1.63,4.14h-0.79L74.26,61.26z M72.51,60.62h1.55
					l-0.78-2.09L72.51,60.62z"/>
				<path fill="#697374" d="M77.57,60.51h-0.72v1.55h-0.73v-4.14h1.82c0.82,0,1.35,0.53,1.35,1.3c0,0.74-0.48,1.14-0.98,1.22
					l1.01,1.63h-0.84L77.57,60.51z M77.85,58.56h-0.99v1.32h0.99c0.41,0,0.71-0.26,0.71-0.66C78.55,58.82,78.26,58.56,77.85,58.56z"
					/>
				<path fill="#697374" d="M81.26,58.56h-1.25v-0.64h3.23v0.64h-1.25v3.5h-0.73V58.56z"/>
			</g>
		</g>
		<g>
			<rect x="123.32" y="60.18" fill="#989FA1" width="22.29" height="0.75"/>
			<polygon fill="#989FA1" points="141.64,65.34 141.11,64.81 145.39,60.61 141.19,56.34 141.72,55.81 146.45,60.62 			"/>
		</g>
	</g>
</g>
<g id="Layer_2">
</g>
<g id="Layer_3">
</g>
<g id="Layer_4">
</g>
<g id="Layer_5">
</g>
<g id="Layer_6">
</g>
</svg>
