<?xml version="1.0" encoding="utf-8"?>
<!-- Generator: Adobe Illustrator 22.0.1, SVG Export Plug-In . SVG Version: 6.00 Build 0)  -->
<svg version="1.1" xmlns="http://www.w3.org/2000/svg" xmlns:xlink="http://www.w3.org/1999/xlink" x="0px" y="0px" width="300px"
	 height="125px" viewBox="0 0 300 125" enable-background="new 0 0 300 125" xml:space="preserve">
<g id="Layer_1">
	<g>
		<g>
			<rect x="58.3" y="10.06" fill="#ECEFEF" width="183.41" height="113.42"/>
			<path fill="#989FA1" d="M242.08,123.85H57.92V9.69h184.16V123.85z M58.67,123.1h182.66V10.44H58.67V123.1z"/>
		</g>
		<g>
			<path fill="#FFFFFF" d="M241.71,10.06H58.29v-6.1c0-1.36,1.1-2.46,2.46-2.46h178.5c1.36,0,2.46,1.1,2.46,2.46V10.06z"/>
			<path fill="#989FA1" d="M242.08,10.43H57.92V3.96c0-1.56,1.27-2.83,2.84-2.83h178.5c1.56,0,2.83,1.27,2.83,2.83V10.43z
				 M58.67,9.68h182.67V3.96c0-1.15-0.94-2.08-2.08-2.08H60.75c-1.15,0-2.09,0.94-2.09,2.08V9.68z"/>
		</g>
		<path fill="#989FA1" d="M235.93,7.15c-0.75,0-1.37-0.61-1.37-1.37s0.61-1.37,1.37-1.37c0.75,0,1.37,0.61,1.37,1.37
			S236.69,7.15,235.93,7.15z M235.93,5.16c-0.34,0-0.62,0.28-0.62,0.62s0.28,0.62,0.62,0.62c0.34,0,0.62-0.28,0.62-0.62
			S236.27,5.16,235.93,5.16z"/>
		<path fill="#989FA1" d="M231.42,7.15c-0.75,0-1.37-0.61-1.37-1.37s0.61-1.37,1.37-1.37s1.37,0.61,1.37,1.37
			S232.18,7.15,231.42,7.15z M231.42,5.16c-0.34,0-0.62,0.28-0.62,0.62s0.28,0.62,0.62,0.62s0.62-0.28,0.62-0.62
			S231.77,5.16,231.42,5.16z"/>
		<path fill="#989FA1" d="M226.92,7.15c-0.75,0-1.37-0.61-1.37-1.37s0.61-1.37,1.37-1.37c0.75,0,1.37,0.61,1.37,1.37
			S227.67,7.15,226.92,7.15z M226.92,5.16c-0.34,0-0.62,0.28-0.62,0.62s0.28,0.62,0.62,0.62c0.34,0,0.62-0.28,0.62-0.62
			S227.26,5.16,226.92,5.16z"/>
		<g>
			<rect x="58.4" y="10.07" fill="#FFFFFF" width="39.32" height="113.43"/>
			<path fill="#989FA1" d="M98.09,123.87H58.02V9.69h40.07V123.87z M58.77,123.12h38.57V10.44H58.77V123.12z"/>
		</g>
		<path fill="#989FA1" d="M92.45,25.74H64.31v-9.02h28.14V25.74z M65.06,24.99H91.7v-7.52H65.06V24.99z"/>
		<g>
			<rect x="105.82" y="18.44" fill="#FFFFFF" width="59.04" height="44.86"/>
			<path fill="#989FA1" d="M165.23,63.68h-59.79V18.07h59.79V63.68z M106.19,62.93h58.29V18.82h-58.29V62.93z"/>
		</g>
		<g>
			<path fill="#989FA1" d="M120.43,40.72c0-1.44,1.02-2.5,2.47-2.5c1.44,0,2.47,1.06,2.47,2.5s-1.03,2.5-2.47,2.5
				C121.45,43.22,120.43,42.16,120.43,40.72z M124.5,40.72c0-1-0.63-1.74-1.6-1.74c-0.98,0-1.6,0.75-1.6,1.74
				c0,0.99,0.62,1.74,1.6,1.74C123.87,42.47,124.5,41.71,124.5,40.72z"/>
			<path fill="#989FA1" d="M129.3,43.13l-1.06-1.8h-0.85v1.8h-0.85v-4.82h2.12c0.95,0,1.58,0.62,1.58,1.51
				c0,0.85-0.56,1.32-1.15,1.42l1.19,1.89H129.3z M129.37,39.81c0-0.46-0.35-0.76-0.82-0.76h-1.16v1.53h1.16
				C129.03,40.58,129.37,40.28,129.37,39.81z"/>
			<path fill="#989FA1" d="M131.45,43.13v-4.82h1.79c1.51,0,2.52,1,2.52,2.41c0,1.42-1.01,2.42-2.52,2.42H131.45z M134.9,40.71
				c0-0.93-0.58-1.66-1.65-1.66h-0.95v3.33h0.95C134.3,42.39,134.9,41.63,134.9,40.71z"/>
			<path fill="#989FA1" d="M136.95,43.13v-4.82h3.31v0.75h-2.46v1.24h2.41v0.75h-2.41v1.34h2.46v0.75H136.95z"/>
			<path fill="#989FA1" d="M144.25,43.13l-1.06-1.8h-0.85v1.8h-0.85v-4.82h2.12c0.95,0,1.58,0.62,1.58,1.51
				c0,0.85-0.56,1.32-1.15,1.42l1.19,1.89H144.25z M144.32,39.81c0-0.46-0.35-0.76-0.82-0.76h-1.16v1.53h1.16
				C143.98,40.58,144.32,40.28,144.32,39.81z"/>
			<path fill="#989FA1" d="M146.09,42.45l0.48-0.66c0.33,0.35,0.85,0.67,1.53,0.67c0.69,0,0.96-0.34,0.96-0.67
				c0-1.01-2.81-0.38-2.81-2.16c0-0.8,0.69-1.42,1.76-1.42c0.75,0,1.36,0.25,1.8,0.68l-0.48,0.63c-0.38-0.38-0.9-0.56-1.4-0.56
				c-0.49,0-0.81,0.25-0.81,0.6c0,0.9,2.81,0.35,2.81,2.14c0,0.8-0.57,1.5-1.87,1.5C147.17,43.22,146.53,42.9,146.09,42.45z"/>
		</g>
		<g>
			<rect x="174.18" y="18.44" fill="#FFFFFF" width="59.04" height="44.86"/>
			<path fill="#989FA1" d="M233.6,63.68h-59.79V18.07h59.79V63.68z M174.56,62.93h58.29V18.82h-58.29V62.93z"/>
		</g>
		<g>
			<path fill="#989FA1" d="M180.89,40.72c0-1.49,1.11-2.5,2.53-2.5c0.97,0,1.58,0.5,1.93,1.08l-0.72,0.38
				c-0.23-0.41-0.7-0.7-1.22-0.7c-0.95,0-1.66,0.72-1.66,1.74c0,1,0.71,1.74,1.66,1.74c0.51,0,0.98-0.3,1.22-0.7l0.72,0.36
				c-0.37,0.58-0.97,1.09-1.94,1.09C182,43.22,180.89,42.2,180.89,40.72z"/>
			<path fill="#989FA1" d="M186.4,41.22v-2.92h0.86v2.89c0,0.77,0.43,1.27,1.23,1.27s1.23-0.5,1.23-1.27v-2.89h0.86v2.92
				c0,1.19-0.69,2-2.09,2C187.09,43.22,186.4,42.41,186.4,41.22z"/>
			<path fill="#989FA1" d="M191.66,42.45l0.48-0.66c0.33,0.35,0.85,0.67,1.53,0.67c0.69,0,0.96-0.34,0.96-0.67
				c0-1.01-2.81-0.38-2.81-2.16c0-0.8,0.69-1.42,1.76-1.42c0.75,0,1.36,0.25,1.8,0.68l-0.48,0.63c-0.38-0.38-0.9-0.56-1.4-0.56
				c-0.49,0-0.81,0.25-0.81,0.6c0,0.9,2.81,0.35,2.81,2.14c0,0.8-0.57,1.5-1.87,1.5C192.74,43.22,192.09,42.9,191.66,42.45z"/>
			<path fill="#989FA1" d="M197.71,43.13v-4.08h-1.46v-0.75h3.77v0.75h-1.46v4.08H197.71z"/>
			<path fill="#989FA1" d="M200.71,40.72c0-1.44,1.02-2.5,2.47-2.5c1.44,0,2.47,1.06,2.47,2.5s-1.03,2.5-2.47,2.5
				C201.72,43.22,200.71,42.16,200.71,40.72z M204.77,40.72c0-1-0.63-1.74-1.6-1.74c-0.98,0-1.6,0.75-1.6,1.74
				c0,0.99,0.62,1.74,1.6,1.74C204.14,42.47,204.77,41.71,204.77,40.72z"/>
			<path fill="#989FA1" d="M210.98,43.13v-3.72l-1.48,3.72h-0.36l-1.48-3.72v3.72h-0.85v-4.82h1.19l1.32,3.31l1.31-3.31h1.19v4.82
				H210.98z"/>
			<path fill="#989FA1" d="M213.22,43.13v-4.82h3.31v0.75h-2.46v1.24h2.41v0.75h-2.41v1.34h2.46v0.75H213.22z"/>
			<path fill="#989FA1" d="M220.51,43.13l-1.06-1.8h-0.85v1.8h-0.85v-4.82h2.12c0.95,0,1.58,0.62,1.58,1.51
				c0,0.85-0.56,1.32-1.15,1.42l1.19,1.89H220.51z M220.59,39.81c0-0.46-0.35-0.76-0.82-0.76h-1.16v1.53h1.16
				C220.24,40.58,220.59,40.28,220.59,39.81z"/>
			<path fill="#989FA1" d="M222.36,42.45l0.48-0.66c0.33,0.35,0.85,0.67,1.53,0.67c0.69,0,0.96-0.34,0.96-0.67
				c0-1.01-2.81-0.38-2.81-2.16c0-0.8,0.69-1.42,1.76-1.42c0.74,0,1.36,0.25,1.8,0.68l-0.48,0.63c-0.38-0.38-0.9-0.56-1.4-0.56
				c-0.49,0-0.81,0.25-0.81,0.6c0,0.9,2.81,0.35,2.81,2.14c0,0.8-0.57,1.5-1.87,1.5C223.43,43.22,222.79,42.9,222.36,42.45z"/>
		</g>
		<g>
			<rect x="174.18" y="71.06" fill="#FFFFFF" width="59.04" height="44.86"/>
			<path fill="#989FA1" d="M233.6,116.3h-59.79V70.68h59.79V116.3z M174.56,115.55h58.29V71.43h-58.29V115.55z"/>
		</g>
		<g>
			<path fill="#989FA1" d="M182.27,95.75v-4.82h1.79c1.51,0,2.52,1,2.52,2.41c0,1.42-1.01,2.42-2.52,2.42H182.27z M185.72,93.33
				c0-0.93-0.58-1.66-1.65-1.66h-0.95V95h0.95C185.11,95,185.72,94.25,185.72,93.33z"/>
			<path fill="#989FA1" d="M187.77,95.75v-4.82h0.85v4.82H187.77z"/>
			<path fill="#989FA1" d="M189.69,95.07l0.48-0.66c0.33,0.35,0.85,0.67,1.53,0.67c0.69,0,0.96-0.34,0.96-0.67
				c0-1.01-2.81-0.38-2.81-2.16c0-0.8,0.69-1.42,1.76-1.42c0.75,0,1.36,0.25,1.8,0.68l-0.48,0.63c-0.38-0.38-0.9-0.56-1.4-0.56
				c-0.49,0-0.81,0.25-0.81,0.6c0,0.9,2.81,0.35,2.81,2.14c0,0.8-0.57,1.5-1.87,1.5C190.77,95.83,190.13,95.51,189.69,95.07z"/>
			<path fill="#989FA1" d="M194.45,93.34c0-1.49,1.11-2.5,2.53-2.5c0.97,0,1.58,0.5,1.93,1.08l-0.72,0.38
				c-0.23-0.41-0.7-0.7-1.22-0.7c-0.95,0-1.66,0.72-1.66,1.74c0,1,0.71,1.74,1.66,1.74c0.51,0,0.98-0.3,1.22-0.7l0.72,0.36
				c-0.37,0.58-0.97,1.09-1.94,1.09C195.56,95.83,194.45,94.82,194.45,93.34z"/>
			<path fill="#989FA1" d="M199.75,93.34c0-1.44,1.02-2.5,2.47-2.5c1.44,0,2.47,1.06,2.47,2.5s-1.03,2.5-2.47,2.5
				C200.77,95.83,199.75,94.78,199.75,93.34z M203.81,93.34c0-1-0.63-1.74-1.6-1.74c-0.98,0-1.6,0.75-1.6,1.74
				c0,0.99,0.62,1.74,1.6,1.74C203.19,95.08,203.81,94.33,203.81,93.34z"/>
			<path fill="#989FA1" d="M205.86,93.84v-2.92h0.86v2.89c0,0.77,0.43,1.27,1.23,1.27s1.23-0.5,1.23-1.27v-2.89h0.86v2.92
				c0,1.19-0.69,2-2.09,2C206.55,95.83,205.86,95.03,205.86,93.84z"/>
			<path fill="#989FA1" d="M214.79,95.75l-2.52-3.45v3.45h-0.85v-4.82h0.87l2.47,3.34v-3.34h0.85v4.82H214.79z"/>
			<path fill="#989FA1" d="M218.15,95.75v-4.08h-1.46v-0.75h3.77v0.75H219v4.08H218.15z"/>
			<path fill="#989FA1" d="M221.19,95.07l0.48-0.66c0.33,0.35,0.85,0.67,1.53,0.67c0.69,0,0.96-0.34,0.96-0.67
				c0-1.01-2.81-0.38-2.81-2.16c0-0.8,0.69-1.42,1.76-1.42c0.75,0,1.36,0.25,1.8,0.68l-0.48,0.63c-0.38-0.38-0.9-0.56-1.4-0.56
				c-0.49,0-0.81,0.25-0.81,0.6c0,0.9,2.81,0.35,2.81,2.14c0,0.8-0.57,1.5-1.87,1.5C222.27,95.83,221.63,95.51,221.19,95.07z"/>
		</g>
		<g>
			<rect x="105.82" y="71.06" fill="#FFFFFF" width="59.04" height="44.86"/>
			<path fill="#989FA1" d="M165.23,116.3h-59.79V70.68h59.79V116.3z M106.19,115.55h58.29V71.43h-58.29V115.55z"/>
		</g>
		<g>
			<path fill="#989FA1" d="M115.3,95.75v-4.82h2.13c1.01,0,1.57,0.69,1.57,1.51c0,0.82-0.56,1.5-1.57,1.5h-1.28v1.81H115.3z
				 M118.13,92.43c0-0.46-0.34-0.77-0.82-0.77h-1.16v1.53h1.16C117.79,93.19,118.13,92.89,118.13,92.43z"/>
			<path fill="#989FA1" d="M122.82,95.75l-1.06-1.8h-0.85v1.8h-0.85v-4.82h2.12c0.95,0,1.58,0.62,1.58,1.51
				c0,0.85-0.56,1.32-1.15,1.42l1.19,1.89H122.82z M122.9,92.43c0-0.46-0.35-0.76-0.82-0.76h-1.16v1.53h1.16
				C122.55,93.2,122.9,92.9,122.9,92.43z"/>
			<path fill="#989FA1" d="M124.77,93.34c0-1.44,1.02-2.5,2.47-2.5c1.44,0,2.47,1.06,2.47,2.5s-1.03,2.5-2.47,2.5
				C125.79,95.83,124.77,94.78,124.77,93.34z M128.84,93.34c0-1-0.63-1.74-1.6-1.74c-0.98,0-1.6,0.75-1.6,1.74
				c0,0.99,0.62,1.74,1.6,1.74C128.21,95.08,128.84,94.33,128.84,93.34z"/>
			<path fill="#989FA1" d="M130.88,95.75v-4.82h1.79c1.51,0,2.52,1,2.52,2.41c0,1.42-1.01,2.42-2.52,2.42H130.88z M134.33,93.33
				c0-0.93-0.58-1.66-1.65-1.66h-0.95V95h0.95C133.72,95,134.33,94.25,134.33,93.33z"/>
			<path fill="#989FA1" d="M136.38,93.84v-2.92h0.86v2.89c0,0.77,0.43,1.27,1.23,1.27s1.23-0.5,1.23-1.27v-2.89h0.86v2.92
				c0,1.19-0.69,2-2.09,2C137.07,95.83,136.38,95.03,136.38,93.84z"/>
			<path fill="#989FA1" d="M141.74,93.34c0-1.49,1.11-2.5,2.53-2.5c0.97,0,1.58,0.5,1.93,1.08l-0.72,0.38
				c-0.23-0.41-0.7-0.7-1.22-0.7c-0.95,0-1.66,0.72-1.66,1.74c0,1,0.71,1.74,1.66,1.74c0.51,0,0.98-0.3,1.22-0.7l0.72,0.36
				c-0.37,0.58-0.97,1.09-1.94,1.09C142.85,95.83,141.74,94.82,141.74,93.34z"/>
			<path fill="#989FA1" d="M148.4,95.75v-4.08h-1.46v-0.75h3.77v0.75h-1.46v4.08H148.4z"/>
			<path fill="#989FA1" d="M151.44,95.07l0.48-0.66c0.33,0.35,0.85,0.67,1.53,0.67c0.69,0,0.96-0.34,0.96-0.67
				c0-1.01-2.81-0.38-2.81-2.16c0-0.8,0.69-1.42,1.76-1.42c0.74,0,1.36,0.25,1.8,0.68l-0.48,0.63c-0.38-0.38-0.9-0.56-1.4-0.56
				c-0.49,0-0.81,0.25-0.81,0.6c0,0.9,2.81,0.35,2.81,2.14c0,0.8-0.57,1.5-1.87,1.5C152.51,95.83,151.87,95.51,151.44,95.07z"/>
		</g>
		<g>
			<path fill="#EEE679" d="M183.32,57.2l-11.81-6.82c-1.03-0.6-2.71-0.6-3.74,0l-11.81,6.82c-1.03,0.6-1.87,2.05-1.87,3.25v13.63
				c0,1.19,0.84,2.65,1.87,3.25l11.81,6.81c1.03,0.6,2.71,0.6,3.74,0l11.81-6.81c1.03-0.6,1.87-2.05,1.87-3.25V60.44
				C185.19,59.25,184.36,57.79,183.32,57.2z M180.14,64.53h-1.22v-2.08c0-1.59-1.23-2.08-3.6-2.08h-0.1c-5.68,0-5.17-2.12-5.34-2.89
				h-0.07c-0.17,0.78,0.38,2.89-5.29,2.89h-0.15c-2.37,0-3.6,0.49-3.6,2.08v1.6l19.36,5.59v2.32c0,2.27-1.09,3.54-4.81,3.54h-0.18
				c-2.89,0-4.68,0.62-4.68,2.89h-1.22c0-2.27-1.79-2.89-4.68-2.89h-0.18c-3.72,0-4.81-1.26-4.81-3.54v-2.01h1.22v2.08
				c0,1.59,1.23,2.08,3.6,2.08h0.1c5.68,0,5.17,2.13,5.34,2.89h0.07c0.17-0.77-0.38-2.89,5.29-2.89h0.15c2.37,0,3.6-0.49,3.6-2.08
				v-1.19l-19.36-5.59v-2.72c0-2.29,1.09-3.55,4.81-3.55h0.18c2.89,0,4.68-0.61,4.68-2.89h1.22c0,2.29,1.79,2.89,4.68,2.89h0.18
				c3.72,0,4.81,1.26,4.81,3.55V64.53z"/>
			<path fill="#FFFFFF" d="M178.92,64.53v-2.08c0-1.59-1.23-2.08-3.6-2.08h-0.1c-5.68,0-5.17-2.12-5.34-2.89h-0.07
				c-0.17,0.78,0.38,2.89-5.29,2.89h-0.15c-2.37,0-3.6,0.49-3.6,2.08v1.6l19.36,5.59v2.32c0,2.27-1.09,3.54-4.81,3.54h-0.18
				c-2.89,0-4.68,0.62-4.68,2.89h-1.22c0-2.27-1.79-2.89-4.68-2.89h-0.18c-3.72,0-4.81-1.26-4.81-3.54v-2.01h1.22v2.08
				c0,1.59,1.23,2.08,3.6,2.08h0.1c5.68,0,5.17,2.13,5.34,2.89h0.07c0.17-0.77-0.38-2.89,5.29-2.89h0.15c2.37,0,3.6-0.49,3.6-2.08
				v-1.19l-19.36-5.59v-2.72c0-2.29,1.09-3.55,4.81-3.55h0.18c2.89,0,4.68-0.61,4.68-2.89h1.22c0,2.29,1.79,2.89,4.68,2.89h0.18
				c3.72,0,4.81,1.26,4.81,3.55v1.99H178.92z"/>
		</g>
	</g>
</g>
<g id="Layer_2">
</g>
<g id="Layer_3">
</g>
<g id="Layer_4">
</g>
<g id="Layer_5">
</g>
<g id="Layer_6">
</g>
</svg>
