<?xml version="1.0" encoding="utf-8"?>
<!-- Generator: Adobe Illustrator 22.0.1, SVG Export Plug-In . SVG Version: 6.00 Build 0)  -->
<svg version="1.1" xmlns="http://www.w3.org/2000/svg" xmlns:xlink="http://www.w3.org/1999/xlink" x="0px" y="0px" width="300px"
	 height="142.33px" viewBox="0 0 300 142.33" enable-background="new 0 0 300 142.33" xml:space="preserve">
<g id="Layer_1">
	<g>
		<path fill="#989FA1" d="M113.1,141.54H93.99l-0.11-0.16c-0.07-0.1-7.36-10.36-8.64-29.59c-11.34-13.63-7.42-26.64-2.62-36.5
			c-2.09-1.8-3.31-4.02-3.51-6.45c-0.24-2.89,0.99-5.97,3.57-8.91l0.42-0.47l0.22,0.59c0.48,1.3,0.73,2.36,0.93,3.21
			c0.46,1.97,0.62,2.67,2.89,3.08c1.81-1.63,20.85-18.14,47.97-18.14c0.2,0,0.39,0,0.58,0c19.45,0,34.51,9.21,40.32,13.38
			c3.59-3.46,9.98-9.49,17.42-9.49c0.22,0,0.45,0,0.67,0.02l0.49,0.02l-0.15,0.47c-0.7,2.12-1.24,3.55-1.67,4.7
			c-1.17,3.1-1.42,3.77-1.34,9.45l0.73,0.36c5.14,2.53,11.52,5.67,18.55,18.93c7.2,0.12,10.59,0.12,10.62,0.12h0.31l0.06,0.3
			c0.09,0.48,2.23,11.75-4.27,18.13c-6.12,6-13.73,13.47-40.94,20.97c-1.01,4.1-1.93,9.5-0.33,15.24l0.13,0.48h-19.63l-5.79-9.82
			c-2.29,0.19-20.61,1.57-37.78-2.08c-0.21,9.98,0.34,11.57,0.36,11.63l0.19,0.51L113.1,141.54z M94.37,140.79h18.25
			c-0.18-1.04-0.46-3.96-0.28-11.87l0.01-0.45l0.44,0.1c18.27,3.98,38.03,2.16,38.23,2.14l0.24-0.02l5.81,9.86h18.22
			c-1.49-5.82-0.52-11.25,0.5-15.36l0.05-0.21l0.21-0.06c27.19-7.47,34.75-14.89,40.83-20.84c5.64-5.53,4.4-15.31,4.11-17.14
			c-1,0-4.43-0.02-10.54-0.12l-0.22,0l-0.1-0.2c-6.95-13.2-13.26-16.31-18.32-18.8l-1.14-0.57l0-0.23
			c-0.09-6.03,0.16-6.71,1.39-9.96c0.4-1.06,0.89-2.35,1.5-4.19c-0.05,0-0.09,0-0.14,0c-7.3,0-13.66,6.15-17.13,9.5l-0.23,0.22
			l-0.25-0.18c-5.57-4.04-20.62-13.42-40.14-13.42c-0.19,0-0.39,0-0.58,0c-28.08,0-47.41,17.88-47.6,18.06l-0.13,0.13l-0.18-0.03
			c-2.93-0.49-3.2-1.62-3.68-3.68c-0.16-0.69-0.35-1.52-0.69-2.51c-2.15,2.63-3.17,5.34-2.96,7.86c0.19,2.31,1.39,4.42,3.46,6.12
			l0.23,0.19l-0.13,0.27c-9.07,18.49-3.44,28.98,2.47,36.05l0.08,0.09l0.01,0.12C87.13,129.43,93.47,139.45,94.37,140.79z"/>
		<path fill="#ECEFEF" d="M95.85,138.14c-1.82-3.15-6.29-12.23-7.23-26.68l-0.06-0.99l-0.64-0.76c-2.31-2.76-5.09-6.6-6.15-11.86
			c-1.24-6.17,0.12-13.34,4.02-21.31l1.06-2.16l-1.86-1.52c-1.05-0.86-2.34-2.3-2.5-4.29c-0.02-0.29-0.02-0.58,0-0.88
			c0.84,0.97,2.13,1.7,4.25,2.05l1.48,0.25l1.09-1.03c0.18-0.17,18.82-17.34,45.77-17.34l0.56,0c18.78,0,33.26,9.03,38.61,12.92
			l2.06,1.49l1.83-1.77c2.67-2.58,6.76-6.53,11.42-8.09c-1.32,3.51-1.63,4.61-1.54,10.88l0.03,1.84l1.64,0.82
			c0.31,0.16,0.63,0.31,0.95,0.47c4.97,2.45,10.6,5.22,17.15,17.66l0.84,1.59l1.79,0.03c3.69,0.06,6.41,0.09,8.2,0.11
			c0.21,3.27,0,9.1-3.59,12.61c-5.86,5.74-13.15,12.89-39.68,20.18l-1.71,0.47l-0.43,1.72c-0.91,3.64-1.78,8.26-1.13,13.35h-13.5
			l-5.9-10.01l-1.92,0.18c-0.05,0-4.6,0.43-11.24,0.43c-6.66,0-16.62-0.44-26.18-2.52l-3.58-0.78l-0.09,3.67
			c-0.1,4.36-0.07,7.29,0.03,9.28H95.85z"/>
		<circle fill="#EEE679" cx="134.64" cy="27.43" r="26.26"/>
		<g>
			<path fill="#FFFFFF" d="M134.64,49.21c-12.01,0-21.78-9.77-21.78-21.78s9.77-21.78,21.78-21.78s21.78,9.77,21.78,21.78
				S146.64,49.21,134.64,49.21z M134.64,6.4c-11.59,0-21.03,9.43-21.03,21.03s9.43,21.03,21.03,21.03s21.03-9.43,21.03-21.03
				S146.23,6.4,134.64,6.4z"/>
			<path fill="#FFFFFF" d="M134.64,49.58c-12.21,0-22.15-9.94-22.15-22.15s9.94-22.15,22.15-22.15s22.15,9.94,22.15,22.15
				S146.85,49.58,134.64,49.58z M113.23,27.43c0,11.8,9.6,21.4,21.4,21.4s21.4-9.6,21.4-21.4c0,11.8-9.6,21.4-21.4,21.4
				S113.23,39.23,113.23,27.43z M134.64,6.78c-11.39,0-20.65,9.26-20.65,20.65s9.26,20.65,20.65,20.65s20.65-9.26,20.65-20.65
				S146.02,6.78,134.64,6.78z"/>
		</g>
		<path fill="#B7BEBF" d="M107.6,62.12l-0.35-0.66c0.25-0.13,25.23-13.06,55.06-0.52l-0.29,0.69
			C132.5,49.23,107.84,61.99,107.6,62.12z"/>
		<g>
			<circle fill="#FFFFFF" cx="191.34" cy="80.37" r="3.53"/>
			<path fill="#B7BEBF" d="M191.34,84.28c-2.15,0-3.91-1.75-3.91-3.91s1.75-3.91,3.91-3.91s3.91,1.75,3.91,3.91
				S193.49,84.28,191.34,84.28z M191.34,77.21c-1.74,0-3.16,1.42-3.16,3.16c0,1.74,1.42,3.16,3.16,3.16c1.74,0,3.16-1.42,3.16-3.16
				C194.5,78.63,193.08,77.21,191.34,77.21z"/>
		</g>
		<g>
			<g>
				<path fill="#FFFFFF" d="M135.82,35.64v2.15h-1.46v-2.13c-2.44-0.14-4.28-1.15-5.47-2.51l1.19-1.51
					c0.93,1.05,2.39,2.03,4.28,2.22v-5.81c-2.44-0.65-4.97-1.48-4.97-4.42c0-2.49,2.1-4.23,4.97-4.42v-2.18h1.46v2.22
					c1.98,0.17,3.56,0.96,4.71,2.17l-1.19,1.46c-0.93-1.05-2.18-1.63-3.51-1.82v5.19c2.46,0.69,5.07,1.6,5.07,4.73
					C140.89,33.15,139.53,35.37,135.82,35.64z M134.36,25.88v-4.88c-1.72,0.1-2.92,1.1-2.92,2.51
					C131.44,24.88,132.76,25.43,134.36,25.88z M138.86,31.17c0-1.63-1.39-2.22-3.04-2.73v5.4
					C138.12,33.65,138.86,32.27,138.86,31.17z"/>
			</g>
		</g>
	</g>
</g>
<g id="Layer_2">
</g>
<g id="Layer_3">
</g>
<g id="Layer_4">
</g>
<g id="Layer_5">
</g>
<g id="Layer_6">
</g>
</svg>
