<?xml version="1.0" encoding="utf-8"?>
<!-- Generator: Adobe Illustrator 22.0.1, SVG Export Plug-In . SVG Version: 6.00 Build 0)  -->
<svg version="1.1" xmlns="http://www.w3.org/2000/svg" xmlns:xlink="http://www.w3.org/1999/xlink" x="0px" y="0px" width="300px"
	 height="115.67px" viewBox="0 0 300 115.67" enable-background="new 0 0 300 115.67" xml:space="preserve">
<g id="Layer_1">
	<g>
		<g>
			<g>
				<rect x="114.62" y="1.12" fill="#ECEFEF" width="183.44" height="113.44"/>
			</g>
		</g>
		<g>
			<rect x="123.89" y="9.56" fill="#FFFFFF" width="78.41" height="18.92"/>
			<rect x="123.89" y="35.43" fill="#FFFFFF" width="78.41" height="18.92"/>
			<rect x="123.89" y="61.31" fill="#FFFFFF" width="78.41" height="18.92"/>
			<rect x="210.39" y="9.56" fill="#FFFFFF" width="78.41" height="18.92"/>
			<rect x="210.39" y="35.43" fill="#FFFFFF" width="78.41" height="18.92"/>
			<rect x="210.39" y="61.31" fill="#FFFFFF" width="78.41" height="18.92"/>
			<rect x="123.89" y="87.19" fill="#FFFFFF" width="78.41" height="18.92"/>
			<rect x="210.27" y="87.19" fill="#EEE679" width="78.41" height="18.92"/>
			<g>
				<path fill="#FFFFFF" d="M232.82,99.19V94.6h2.26c0.85,0,1.31,0.52,1.31,1.17c0,0.57-0.37,0.96-0.8,1.05
					c0.5,0.08,0.89,0.56,0.89,1.12c0,0.71-0.47,1.25-1.33,1.25H232.82z M235.56,95.9c0-0.34-0.23-0.59-0.64-0.59h-1.29v1.18h1.29
					C235.32,96.49,235.56,96.25,235.56,95.9z M235.65,97.84c0-0.34-0.24-0.64-0.7-0.64h-1.33v1.28h1.33
					C235.38,98.48,235.65,98.24,235.65,97.84z"/>
				<path fill="#FFFFFF" d="M237.63,97.38V94.6h0.82v2.75c0,0.73,0.41,1.21,1.17,1.21s1.17-0.48,1.17-1.21V94.6h0.82v2.77
					c0,1.13-0.65,1.9-1.99,1.9C238.29,99.28,237.63,98.51,237.63,97.38z"/>
				<path fill="#FFFFFF" d="M244.24,99.19v-1.91l-1.78-2.68h0.92l1.26,1.96l1.26-1.96h0.92l-1.78,2.68v1.91H244.24z"/>
				<path fill="#FFFFFF" d="M252.98,99.19l-2.39-3.28v3.28h-0.81V94.6h0.83l2.35,3.18V94.6h0.8v4.59H252.98z"/>
				<path fill="#FFFFFF" d="M254.88,96.9c0-1.37,0.97-2.37,2.35-2.37c1.37,0,2.35,1,2.35,2.37c0,1.37-0.98,2.38-2.35,2.38
					C255.85,99.28,254.88,98.27,254.88,96.9z M258.75,96.9c0-0.95-0.6-1.66-1.52-1.66c-0.93,0-1.52,0.71-1.52,1.66
					c0,0.94,0.59,1.66,1.52,1.66C258.15,98.56,258.75,97.84,258.75,96.9z"/>
				<path fill="#FFFFFF" d="M264.06,99.19l-0.89-3.39l-0.89,3.39h-0.86l-1.31-4.59H261l0.9,3.53l0.95-3.53h0.64l0.95,3.53l0.89-3.53
					h0.9l-1.31,4.59H264.06z"/>
			</g>
			<g>
				<path fill="#989FA1" d="M132.73,22.03l-2.39-3.28v3.28h-0.81v-4.59h0.83l2.35,3.18v-3.18h0.8v4.59H132.73z"/>
				<path fill="#989FA1" d="M138.05,22.03l-0.34-0.89h-2.11l-0.34,0.89h-0.92l1.8-4.59h1l1.8,4.59H138.05z M136.66,18.24l-0.83,2.19
					h1.65L136.66,18.24z"/>
				<path fill="#989FA1" d="M143.77,22.03v-3.54l-1.4,3.54h-0.34l-1.41-3.54v3.54h-0.81v-4.59h1.14l1.25,3.15l1.25-3.15h1.14v4.59
					H143.77z"/>
				<path fill="#989FA1" d="M145.89,22.03v-4.59h3.15v0.71h-2.34v1.18h2.29v0.71h-2.29v1.28h2.34v0.71H145.89z"/>
			</g>
			<g>
				<path fill="#989FA1" d="M129.47,48.14v-4.59h0.8v3.88h2.02v0.71H129.47z"/>
				<path fill="#989FA1" d="M136.57,48.14l-0.34-0.89h-2.11l-0.34,0.89h-0.92l1.8-4.59h1l1.8,4.59H136.57z M135.18,44.35l-0.83,2.19
					h1.65L135.18,44.35z"/>
				<path fill="#989FA1" d="M137.96,47.49l0.45-0.63c0.31,0.34,0.81,0.64,1.45,0.64c0.66,0,0.92-0.32,0.92-0.63
					c0-0.96-2.67-0.36-2.67-2.05c0-0.76,0.66-1.35,1.67-1.35c0.71,0,1.29,0.23,1.71,0.65l-0.45,0.6c-0.36-0.37-0.85-0.53-1.33-0.53
					c-0.47,0-0.77,0.23-0.77,0.57c0,0.86,2.67,0.33,2.67,2.04c0,0.76-0.54,1.42-1.78,1.42C138.99,48.22,138.38,47.92,137.96,47.49z"
					/>
				<path fill="#989FA1" d="M143.72,48.14v-3.88h-1.39v-0.71h3.59v0.71h-1.39v3.88H143.72z"/>
				<path fill="#989FA1" d="M152.26,48.14l-2.39-3.28v3.28h-0.81v-4.59h0.83l2.35,3.18v-3.18h0.8v4.59H152.26z"/>
				<path fill="#989FA1" d="M157.58,48.14l-0.34-0.89h-2.11l-0.34,0.89h-0.92l1.8-4.59h1l1.8,4.59H157.58z M156.19,44.35l-0.83,2.19
					h1.65L156.19,44.35z"/>
				<path fill="#989FA1" d="M163.3,48.14v-3.54l-1.4,3.54h-0.34l-1.41-3.54v3.54h-0.81v-4.59h1.14l1.25,3.15l1.25-3.15h1.14v4.59
					H163.3z"/>
				<path fill="#989FA1" d="M165.43,48.14v-4.59h3.15v0.71h-2.34v1.18h2.29v0.71h-2.29v1.28h2.34v0.71H165.43z"/>
			</g>
			<g>
				<path fill="#989FA1" d="M129.53,73.43v-4.59h2.02c0.96,0,1.49,0.65,1.49,1.44c0,0.78-0.54,1.43-1.49,1.43h-1.22v1.72H129.53z
					 M132.22,70.28c0-0.44-0.32-0.73-0.78-0.73h-1.11V71h1.11C131.89,71,132.22,70.72,132.22,70.28z"/>
				<path fill="#989FA1" d="M133.86,71.14c0-1.37,0.97-2.37,2.35-2.37c1.37,0,2.35,1,2.35,2.37c0,1.37-0.98,2.38-2.35,2.38
					C134.83,73.52,133.86,72.51,133.86,71.14z M137.73,71.14c0-0.95-0.6-1.66-1.52-1.66c-0.93,0-1.52,0.71-1.52,1.66
					c0,0.94,0.59,1.66,1.52,1.66C137.13,72.8,137.73,72.09,137.73,71.14z"/>
				<path fill="#989FA1" d="M139.38,72.79l0.45-0.63c0.31,0.34,0.81,0.64,1.45,0.64c0.66,0,0.92-0.32,0.92-0.63
					c0-0.96-2.67-0.36-2.67-2.05c0-0.76,0.66-1.35,1.67-1.35c0.71,0,1.29,0.23,1.71,0.65l-0.45,0.6c-0.36-0.37-0.85-0.53-1.33-0.53
					c-0.47,0-0.77,0.23-0.77,0.57c0,0.86,2.67,0.33,2.67,2.04c0,0.76-0.54,1.42-1.78,1.42C140.4,73.52,139.79,73.21,139.38,72.79z"
					/>
				<path fill="#989FA1" d="M145.13,73.43v-3.88h-1.39v-0.71h3.59v0.71h-1.39v3.88H145.13z"/>
				<path fill="#989FA1" d="M151.12,73.43l-0.34-0.89h-2.11l-0.34,0.89h-0.92l1.8-4.59h1l1.8,4.59H151.12z M149.74,69.65l-0.83,2.19
					h1.65L149.74,69.65z"/>
				<path fill="#989FA1" d="M152.83,73.43v-4.59h0.8v3.88h2.02v0.71H152.83z"/>
				<path fill="#989FA1" d="M158.63,71.14c0-1.42,1.05-2.37,2.41-2.37c0.92,0,1.5,0.47,1.84,1.03l-0.68,0.36
					c-0.22-0.39-0.67-0.67-1.16-0.67c-0.91,0-1.58,0.69-1.58,1.66c0,0.96,0.67,1.66,1.58,1.66c0.49,0,0.94-0.29,1.16-0.67l0.69,0.34
					c-0.35,0.55-0.92,1.04-1.84,1.04C159.68,73.52,158.63,72.55,158.63,71.14z"/>
				<path fill="#989FA1" d="M163.67,71.14c0-1.37,0.97-2.37,2.35-2.37c1.37,0,2.35,1,2.35,2.37c0,1.37-0.98,2.38-2.35,2.38
					C164.64,73.52,163.67,72.51,163.67,71.14z M167.53,71.14c0-0.95-0.6-1.66-1.52-1.66c-0.93,0-1.52,0.71-1.52,1.66
					c0,0.94,0.59,1.66,1.52,1.66C166.94,72.8,167.53,72.09,167.53,71.14z"/>
				<path fill="#989FA1" d="M169.48,73.43v-4.59h1.71c1.44,0,2.4,0.95,2.4,2.29c0,1.36-0.96,2.3-2.39,2.3H169.48z M172.76,71.14
					c0-0.88-0.55-1.58-1.57-1.58h-0.91v3.17h0.9C172.18,72.73,172.76,72.01,172.76,71.14z"/>
				<path fill="#989FA1" d="M174.71,73.43v-4.59h3.15v0.71h-2.34v1.18h2.29v0.71h-2.29v1.28h2.34v0.71H174.71z"/>
			</g>
			<g>
				<path fill="#989FA1" d="M129.53,99.17v-4.59h3.15v0.71h-2.34v1.18h2.29v0.71h-2.29v1.28h2.34v0.71H129.53z"/>
				<path fill="#989FA1" d="M137.8,99.17v-3.54l-1.4,3.54h-0.34l-1.41-3.54v3.54h-0.81v-4.59h1.14l1.25,3.15l1.25-3.15h1.14v4.59
					H137.8z"/>
				<path fill="#989FA1" d="M143.15,99.17l-0.34-0.89h-2.11l-0.34,0.89h-0.92l1.8-4.59h1l1.8,4.59H143.15z M141.76,95.39l-0.83,2.19
					h1.65L141.76,95.39z"/>
				<path fill="#989FA1" d="M144.91,99.17v-4.59h0.81v4.59H144.91z"/>
				<path fill="#989FA1" d="M146.98,99.17v-4.59h0.8v3.88h2.02v0.71H146.98z"/>
				<path fill="#989FA1" d="M156.2,99.17l-0.34-0.89h-2.11l-0.34,0.89h-0.92l1.8-4.59h1l1.8,4.59H156.2z M154.81,95.39l-0.83,2.19
					h1.65L154.81,95.39z"/>
				<path fill="#989FA1" d="M157.96,99.17v-4.59h1.71c1.44,0,2.4,0.95,2.4,2.29c0,1.36-0.96,2.3-2.39,2.3H157.96z M161.24,96.87
					c0-0.88-0.55-1.58-1.57-1.58h-0.91v3.17h0.9C160.67,98.46,161.24,97.75,161.24,96.87z"/>
				<path fill="#989FA1" d="M163.19,99.17v-4.59h1.71c1.44,0,2.4,0.95,2.4,2.29c0,1.36-0.96,2.3-2.39,2.3H163.19z M166.47,96.87
					c0-0.88-0.55-1.58-1.57-1.58H164v3.17h0.9C165.9,98.46,166.47,97.75,166.47,96.87z"/>
				<path fill="#989FA1" d="M171.04,99.17l-1.01-1.71h-0.8v1.71h-0.81v-4.59h2.02c0.91,0,1.51,0.58,1.51,1.44
					c0,0.81-0.54,1.26-1.09,1.35l1.13,1.8H171.04z M171.12,96.01c0-0.44-0.33-0.72-0.79-0.72h-1.11v1.46h1.11
					C170.79,96.75,171.12,96.46,171.12,96.01z"/>
				<path fill="#989FA1" d="M173.1,99.17v-4.59h3.15v0.71h-2.34v1.18h2.29v0.71h-2.29v1.28h2.34v0.71H173.1z"/>
				<path fill="#989FA1" d="M177.12,98.53l0.45-0.63c0.31,0.34,0.81,0.64,1.45,0.64c0.66,0,0.92-0.32,0.92-0.63
					c0-0.96-2.67-0.36-2.67-2.05c0-0.76,0.66-1.35,1.67-1.35c0.71,0,1.29,0.23,1.71,0.65l-0.45,0.6c-0.36-0.37-0.85-0.53-1.33-0.53
					c-0.47,0-0.77,0.23-0.77,0.57c0,0.86,2.67,0.33,2.67,2.04c0,0.76-0.54,1.42-1.78,1.42C178.14,99.26,177.53,98.95,177.12,98.53z"
					/>
				<path fill="#989FA1" d="M181.55,98.53L182,97.9c0.31,0.34,0.81,0.64,1.45,0.64c0.66,0,0.92-0.32,0.92-0.63
					c0-0.96-2.67-0.36-2.67-2.05c0-0.76,0.66-1.35,1.67-1.35c0.71,0,1.29,0.23,1.71,0.65l-0.45,0.6c-0.36-0.37-0.85-0.53-1.33-0.53
					c-0.47,0-0.77,0.23-0.77,0.57c0,0.86,2.67,0.33,2.67,2.04c0,0.76-0.54,1.42-1.78,1.42C182.57,99.26,181.96,98.95,181.55,98.53z"
					/>
			</g>
			<g>
				<path fill="#989FA1" d="M219.36,22.03l-0.34-0.89h-2.11l-0.34,0.89h-0.92l1.8-4.59h1l1.8,4.59H219.36z M217.97,18.24l-0.83,2.19
					h1.65L217.97,18.24z"/>
				<path fill="#989FA1" d="M221.12,22.03v-4.59h1.71c1.44,0,2.4,0.95,2.4,2.29c0,1.36-0.96,2.3-2.39,2.3H221.12z M224.4,19.73
					c0-0.88-0.55-1.58-1.57-1.58h-0.91v3.17h0.9C223.82,21.32,224.4,20.61,224.4,19.73z"/>
				<path fill="#989FA1" d="M226.35,22.03v-4.59h1.71c1.44,0,2.4,0.95,2.4,2.29c0,1.36-0.96,2.3-2.39,2.3H226.35z M229.63,19.73
					c0-0.88-0.55-1.58-1.57-1.58h-0.91v3.17h0.9C229.06,21.32,229.63,20.61,229.63,19.73z"/>
				<path fill="#989FA1" d="M234.2,22.03l-1.01-1.71h-0.8v1.71h-0.81v-4.59h2.02c0.91,0,1.51,0.58,1.51,1.44
					c0,0.81-0.54,1.26-1.09,1.35l1.13,1.8H234.2z M234.28,18.87c0-0.44-0.33-0.72-0.79-0.72h-1.11v1.46h1.11
					C233.95,19.61,234.28,19.32,234.28,18.87z"/>
				<path fill="#989FA1" d="M236.26,22.03v-4.59h3.15v0.71h-2.34v1.18h2.29v0.71h-2.29v1.28h2.34v0.71H236.26z"/>
				<path fill="#989FA1" d="M240.28,21.38l0.45-0.63c0.31,0.34,0.81,0.64,1.45,0.64c0.66,0,0.92-0.32,0.92-0.63
					c0-0.96-2.67-0.36-2.67-2.05c0-0.76,0.66-1.35,1.67-1.35c0.71,0,1.29,0.23,1.71,0.65l-0.45,0.6c-0.36-0.37-0.85-0.53-1.33-0.53
					c-0.47,0-0.77,0.23-0.77,0.57c0,0.86,2.67,0.33,2.67,2.04c0,0.76-0.54,1.42-1.78,1.42C241.3,22.11,240.69,21.81,240.28,21.38z"
					/>
				<path fill="#989FA1" d="M244.71,21.38l0.45-0.63c0.31,0.34,0.81,0.64,1.45,0.64c0.66,0,0.92-0.32,0.92-0.63
					c0-0.96-2.67-0.36-2.67-2.05c0-0.76,0.66-1.35,1.67-1.35c0.71,0,1.29,0.23,1.71,0.65l-0.45,0.6c-0.36-0.37-0.85-0.53-1.33-0.53
					c-0.47,0-0.77,0.23-0.77,0.57c0,0.86,2.67,0.33,2.67,2.04c0,0.76-0.54,1.42-1.78,1.42C245.73,22.11,245.12,21.81,244.71,21.38z"
					/>
			</g>
			<g>
				<path fill="#989FA1" d="M215.94,45.25c0-1.42,1.05-2.37,2.41-2.37c0.92,0,1.5,0.47,1.84,1.03l-0.68,0.36
					c-0.22-0.39-0.67-0.67-1.16-0.67c-0.91,0-1.58,0.69-1.58,1.66c0,0.96,0.67,1.66,1.58,1.66c0.49,0,0.94-0.29,1.16-0.67l0.69,0.34
					c-0.35,0.55-0.92,1.04-1.84,1.04C217,47.62,215.94,46.66,215.94,45.25z"/>
				<path fill="#989FA1" d="M220.98,45.25c0-1.37,0.97-2.37,2.35-2.37c1.37,0,2.35,1,2.35,2.37c0,1.37-0.98,2.38-2.35,2.38
					C221.95,47.62,220.98,46.62,220.98,45.25z M224.85,45.25c0-0.95-0.6-1.66-1.52-1.66c-0.93,0-1.52,0.71-1.52,1.66
					c0,0.94,0.59,1.66,1.52,1.66C224.25,46.91,224.85,46.19,224.85,45.25z"/>
				<path fill="#989FA1" d="M226.79,45.72v-2.77h0.82v2.75c0,0.73,0.41,1.21,1.17,1.21s1.17-0.48,1.17-1.21v-2.75h0.82v2.77
					c0,1.13-0.65,1.9-1.99,1.9C227.45,47.62,226.79,46.86,226.79,45.72z"/>
				<path fill="#989FA1" d="M235.29,47.54l-2.39-3.28v3.28h-0.81v-4.59h0.83l2.35,3.18v-3.18h0.8v4.59H235.29z"/>
				<path fill="#989FA1" d="M238.49,47.54v-3.88h-1.39v-0.71h3.59v0.71h-1.39v3.88H238.49z"/>
				<path fill="#989FA1" d="M244.33,47.54l-1.01-1.71h-0.8v1.71h-0.81v-4.59h2.02c0.91,0,1.51,0.58,1.51,1.44
					c0,0.81-0.54,1.26-1.09,1.35l1.13,1.8H244.33z M244.4,44.38c0-0.44-0.33-0.72-0.79-0.72h-1.11v1.46h1.11
					C244.07,45.12,244.4,44.83,244.4,44.38z"/>
				<path fill="#989FA1" d="M247.57,47.54v-1.91l-1.78-2.68h0.92l1.26,1.96l1.26-1.96h0.92l-1.78,2.68v1.91H247.57z"/>
			</g>
			<g>
				<path fill="#989FA1" d="M215.94,71.61c0-1.42,1.05-2.37,2.41-2.37c0.92,0,1.5,0.47,1.84,1.03l-0.68,0.36
					c-0.22-0.39-0.67-0.67-1.16-0.67c-0.91,0-1.58,0.69-1.58,1.66c0,0.96,0.67,1.66,1.58,1.66c0.49,0,0.94-0.29,1.16-0.67l0.69,0.34
					c-0.35,0.55-0.92,1.04-1.84,1.04C217,73.98,215.94,73.02,215.94,71.61z"/>
				<path fill="#989FA1" d="M221.18,73.9v-4.59h0.81v4.59H221.18z"/>
				<path fill="#989FA1" d="M224.4,73.9v-3.88h-1.39v-0.71h3.59v0.71h-1.39v3.88H224.4z"/>
				<path fill="#989FA1" d="M228.93,73.9v-1.91l-1.78-2.68h0.92l1.26,1.96l1.26-1.96h0.92l-1.78,2.68v1.91H228.93z"/>
			</g>
		</g>
		<g>
			<path fill="#FFFFFF" d="M71.81,26.57v75.22c0,2.74-2.24,4.98-4.98,4.98H6.92c-2.74,0-4.98-2.24-4.98-4.98V14.69
				c0-2.74,2.24-4.98,4.98-4.98h47.45L71.81,26.57z"/>
			<path fill="#989FA1" d="M66.83,107.14H6.92c-2.95,0-5.36-2.4-5.36-5.36V14.69c0-2.95,2.4-5.36,5.36-5.36h47.6l17.67,17.07v75.38
				C72.18,104.74,69.78,107.14,66.83,107.14z M6.92,10.09c-2.54,0-4.61,2.07-4.61,4.61v87.09c0,2.54,2.07,4.61,4.61,4.61h59.91
				c2.54,0,4.61-2.07,4.61-4.61V26.73L54.21,10.09H6.92z"/>
		</g>
		<rect x="12.62" y="61.63" fill="#989FA1" width="48.22" height="0.75"/>
		<rect x="12.62" y="72.08" fill="#989FA1" width="48.22" height="0.75"/>
		<rect x="12.62" y="82.5" fill="#989FA1" width="48.22" height="0.75"/>
		<rect x="12.62" y="92.92" fill="#989FA1" width="25.26" height="0.75"/>
		<rect x="12.62" y="25.83" fill="#989FA1" width="26.2" height="0.75"/>
		<rect x="12.62" y="36.29" fill="#989FA1" width="17.17" height="0.75"/>
		<g>
			<g>
				<path fill="#FFFFFF" d="M75.73,7.01c6.55,6.55,6.55,17.17,0,23.72c-6.55,6.55-17.17,6.55-23.72,0c-6.55-6.55-6.55-17.17,0-23.72
					C58.55,0.46,69.18,0.46,75.73,7.01z"/>
				<path fill="#989FA1" d="M63.86,36.02c-4.58,0-8.89-1.78-12.13-5.02c-3.24-3.24-5.02-7.54-5.02-12.12
					c0-4.58,1.78-8.89,5.02-12.12c3.24-3.24,7.54-5.02,12.13-5.02s8.89,1.78,12.13,5.02l0,0l0,0c3.24,3.24,5.02,7.54,5.02,12.12
					c0,4.58-1.78,8.89-5.02,12.13C72.75,34.24,68.45,36.02,63.86,36.02z M63.86,2.48c-4.38,0-8.5,1.71-11.59,4.8
					c-3.1,3.1-4.8,7.21-4.8,11.59c0,4.38,1.71,8.5,4.8,11.59c3.1,3.1,7.21,4.8,11.59,4.8c4.38,0,8.5-1.71,11.6-4.8
					c3.1-3.1,4.8-7.21,4.8-11.59c0-4.38-1.71-8.5-4.8-11.59l0,0C72.36,4.18,68.25,2.48,63.86,2.48z"/>
			</g>
			<path fill="#ECEFEF" d="M74.12,8.62c5.66,5.66,5.66,14.84,0,20.5c-5.66,5.66-14.84,5.66-20.51,0c-5.66-5.66-5.66-14.84,0-20.5
				C59.27,2.96,68.46,2.96,74.12,8.62z"/>
			<g>
				<g>
					<path fill="#FFFFFF" d="M69.1,23.69V25H58.63v-1.31c0-2,1.27-3.7,3.05-4.34c0.61,0.45,1.36,0.72,2.18,0.72s1.57-0.27,2.18-0.72
						C67.82,19.99,69.1,21.69,69.1,23.69z"/>
					<path fill="#989FA1" d="M69.47,25.38H58.26v-1.69c0-2.1,1.33-3.99,3.3-4.7l0.19-0.07l0.16,0.12c1.13,0.84,2.77,0.84,3.91,0
						l0.16-0.12L66.17,19c1.98,0.71,3.3,2.59,3.3,4.7V25.38z M59.01,24.63h9.72v-0.94c0-1.72-1.05-3.27-2.63-3.92
						c-1.32,0.88-3.14,0.88-4.46,0c-1.58,0.65-2.63,2.2-2.63,3.92V24.63z"/>
				</g>
				<g>
					<path fill="#FFFFFF" d="M67.52,16.41c0,1.21-0.58,2.27-1.48,2.94c-0.61,0.45-1.36,0.72-2.18,0.72s-1.57-0.27-2.18-0.72
						c-0.9-0.67-1.48-1.73-1.48-2.94c0-2.02,1.64-3.66,3.66-3.66C65.89,12.75,67.52,14.39,67.52,16.41z"/>
					<path fill="#989FA1" d="M63.86,20.44c-0.87,0-1.7-0.27-2.4-0.79c-1.02-0.76-1.63-1.97-1.63-3.24c0-2.23,1.81-4.04,4.03-4.04
						c2.22,0,4.04,1.81,4.04,4.04c0,1.27-0.61,2.49-1.63,3.24C65.57,20.17,64.74,20.44,63.86,20.44z M63.86,13.12
						c-1.81,0-3.28,1.47-3.28,3.29c0,1.05,0.49,2.01,1.33,2.64c1.14,0.85,2.77,0.84,3.91,0c0.85-0.63,1.33-1.59,1.33-2.64
						C67.15,14.6,65.68,13.12,63.86,13.12z"/>
				</g>
			</g>
		</g>
		<rect x="68.51" y="41.59" fill="#FFFFFF" width="6.62" height="28.38"/>
		<g>
			<rect x="71.38" y="53.94" fill="#989FA1" width="34.89" height="0.75"/>
			<polygon fill="#989FA1" points="102.18,59.1 101.66,58.57 105.93,54.37 101.73,50.1 102.27,49.57 106.99,54.38 			"/>
		</g>
	</g>
</g>
<g id="Layer_2">
</g>
<g id="Layer_3">
</g>
<g id="Layer_4">
</g>
<g id="Layer_5">
</g>
<g id="Layer_6">
</g>
</svg>
