<?xml version="1.0" encoding="utf-8"?>
<!-- Generator: Adobe Illustrator 22.0.1, SVG Export Plug-In . SVG Version: 6.00 Build 0)  -->
<svg version="1.1" xmlns="http://www.w3.org/2000/svg" xmlns:xlink="http://www.w3.org/1999/xlink" x="0px" y="0px" width="300px"
	 height="124.83px" viewBox="0 0 300 124.83" enable-background="new 0 0 300 124.83" xml:space="preserve">
<g id="Layer_1">
	<g>
		<g>
			<g>
				<g>
					<g>
						<path fill="#FFFFFF" d="M265.29,47.55l-12.63-9.03l1.64,49.19c0,0-10.27,6.2-25.38,6.29c-0.93,0.01-1.85,0.01-2.75,0
							c-15.11-0.09-24.8-6.29-24.8-6.29l0.97-49.19l-23.66-7.26c0,0,24.67-19.35,37.74-19.19c1.78,1.87,3.55,3.26,5.27,4.28
							c3.64,2.17,7.98,2.17,11.62,0c1.72-1.02,3.49-2.41,5.27-4.28c13.06-0.16,37.74,19.19,37.74,19.19L265.29,47.55z"/>
						<path fill="#989FA1" d="M227.53,94.38c-0.46,0-0.91,0-1.36,0c-15.05-0.09-24.9-6.29-25-6.35l-0.18-0.11l0-0.21l0.96-48.9
							l-24.07-7.38l0.56-0.44c1.01-0.79,24.72-19.27,37.8-19.27c0.06,0,0.11,0,0.17,0l0.16,0l0.11,0.11
							c1.65,1.73,3.4,3.15,5.19,4.22c3.52,2.09,7.72,2.1,11.24,0c1.8-1.07,3.54-2.49,5.19-4.22l0.11-0.11l0.16,0
							c0.06,0,0.11,0,0.17,0c13.08,0,36.8,18.48,37.8,19.27l0.28,0.22l-11.44,16.9l-12.32-8.81l1.62,48.65l-0.19,0.11
							c-0.1,0.06-10.53,6.25-25.57,6.34C228.46,94.38,227.99,94.38,227.53,94.38z M201.75,87.5c1.38,0.82,10.7,6.04,24.42,6.12
							c0.9,0.01,1.81,0.01,2.74,0c13.72-0.08,23.54-5.3,25-6.13l-1.66-49.72l12.93,9.25l10.62-15.68
							c-2.74-2.1-24.98-18.9-37.07-18.9c0,0,0,0,0,0c-1.66,1.73-3.42,3.15-5.24,4.23c-3.76,2.24-8.25,2.24-12,0
							c-1.82-1.08-3.58-2.5-5.24-4.23c0,0,0,0,0,0c-11.72,0-33.01,15.81-36.77,18.67l23.23,7.13l-0.01,0.28L201.75,87.5z"/>
					</g>
					<path fill="#ECEFEF" d="M227.53,90.78c-0.45,0-0.9,0-1.34,0c-10.86-0.07-18.74-3.43-21.88-5.03l1.05-53.21l-22.53-0.5
						c7.81-5.77,23.4-16.01,32.5-16.69c1.59,1.54,3.26,2.84,4.99,3.87c2.21,1.31,4.69,2.01,7.18,2.01c2.49,0,4.97-0.69,7.18-2.01
						c1.72-1.03,3.39-2.32,4.99-3.87c9.1,0.68,24.69,10.92,32.5,16.69l-7.58,11.19l-15.04-10.75l1.78,53.24
						c-3.32,1.61-11.6,5-22.43,5.07C228.44,90.78,227.99,90.78,227.53,90.78z"/>
				</g>
				<g>
					<g>
						<path fill="#C1C7C9" d="M226.2,56.47l-4.65-6.49l-4.65,6.49h-3.48l6.19-8.51l-5.82-8.08h3.48l4.28,6.07l4.25-6.07h3.51
							l-5.84,8.06l6.22,8.53H226.2z"/>
						<path fill="#C1C7C9" d="M232.57,56.47V39.88h2.91v14.03h7.31v2.56H232.57z"/>
					</g>
				</g>
				<circle fill="#EEE679" cx="253.83" cy="84.99" r="13.68"/>
				<g>
					<g>
						<g>
							<path fill="#FFFFFF" d="M250,92.81v-6.33l-1.21,1.29l-0.57-0.58l1.9-1.95h0.83v7.57H250z"/>
							<path fill="#FFFFFF" d="M252.98,89.03c0-2.04,0.95-3.91,3.09-3.91c0.96,0,1.62,0.36,2.09,0.91l-0.48,0.7
								c-0.39-0.45-0.83-0.77-1.61-0.77c-1.48,0-2.13,1.49-2.13,2.97c0,0.1,0,0.19,0,0.29c0.33-0.52,1.17-1.18,2.15-1.18
								c1.36,0,2.47,0.81,2.47,2.42c0,1.31-1,2.48-2.65,2.48C253.78,92.95,252.98,91.1,252.98,89.03z M257.6,90.51
								c0-1.11-0.77-1.63-1.74-1.63c-0.76,0-1.49,0.47-1.9,1.12c0.08,0.94,0.58,2.11,1.9,2.11C257.03,92.11,257.6,91.22,257.6,90.51
								z"/>
						</g>
					</g>
					<g>
						<path fill="#FFFFFF" d="M249.06,79.06c0-0.96,0.68-1.67,1.65-1.67c0.96,0,1.65,0.71,1.65,1.67c0,0.46-0.16,0.87-0.43,1.16
							l0.27,0.3l-0.39,0.33l-0.28-0.31c-0.24,0.13-0.51,0.19-0.81,0.19C249.74,80.72,249.06,80.02,249.06,79.06z M251.16,80.13
							l-0.4-0.45l0.4-0.33l0.4,0.45c0.14-0.2,0.22-0.45,0.22-0.74c0-0.67-0.42-1.17-1.07-1.17c-0.65,0-1.07,0.5-1.07,1.17
							c0,0.66,0.42,1.17,1.07,1.17C250.88,80.22,251.03,80.19,251.16,80.13z"/>
						<path fill="#FFFFFF" d="M253.79,80.67v-2.73h-0.98v-0.5h2.52v0.5h-0.98v2.73H253.79z"/>
						<path fill="#FFFFFF" d="M256.98,80.67v-1.34l-1.25-1.89h0.65l0.88,1.38l0.88-1.38h0.65l-1.25,1.89v1.34H256.98z"/>
					</g>
				</g>
			</g>
			<g>
				<g>
					<g>
						<path fill="#FFFFFF" d="M34.71,47.55l12.63-9.03L45.7,87.71c0,0,10.27,6.2,25.38,6.29c0.93,0.01,1.85,0.01,2.75,0
							c15.11-0.09,24.8-6.29,24.8-6.29l-0.97-49.19l23.66-7.26c0,0-24.67-19.35-37.74-19.19c-1.78,1.87-3.55,3.26-5.27,4.28
							c-3.64,2.17-7.98,2.17-11.62,0c-1.72-1.02-3.49-2.41-5.27-4.28c-13.06-0.16-37.74,19.19-37.74,19.19L34.71,47.55z"/>
						<path fill="#989FA1" d="M72.47,94.38c-0.46,0-0.92,0-1.39,0c-15.04-0.09-25.47-6.28-25.57-6.34l-0.19-0.11l0.01-0.22
							l1.62-48.43l-12.32,8.81l-11.44-16.9l0.28-0.22c1.01-0.79,24.72-19.27,37.8-19.27c0.06,0,0.11,0,0.17,0l0.16,0l0.11,0.11
							c1.65,1.73,3.4,3.15,5.19,4.22c3.52,2.09,7.72,2.1,11.24,0c1.8-1.07,3.54-2.49,5.19-4.22l0.11-0.11l0.16,0
							c0.06,0,0.11,0,0.17,0c13.08,0,36.8,18.48,37.8,19.27l0.56,0.44L98.04,38.8l0.97,49.11l-0.18,0.11
							c-0.1,0.06-9.96,6.25-25,6.35C73.38,94.38,72.93,94.38,72.47,94.38z M46.08,87.5c1.46,0.82,11.28,6.04,25,6.13
							c0.93,0.01,1.85,0.01,2.74,0c13.72-0.08,23.04-5.3,24.43-6.12l-0.97-49.25l23.23-7.13c-3.76-2.86-25.05-18.67-36.77-18.67
							c0,0,0,0,0,0c-1.66,1.73-3.42,3.15-5.24,4.23c-3.76,2.24-8.25,2.24-12,0c-1.82-1.08-3.58-2.5-5.24-4.23c0,0,0,0,0,0
							c-12.08,0-34.33,16.8-37.07,18.9l10.62,15.68l12.93-9.25L46.08,87.5z"/>
					</g>
					<path fill="#ECEFEF" d="M72.47,90.78c0.45,0,0.9,0,1.34,0c10.86-0.07,18.74-3.43,21.88-5.03l-1.05-53.21l22.53-0.5
						c-7.81-5.77-23.4-16.01-32.5-16.69c-1.59,1.54-3.26,2.84-4.99,3.87c-2.21,1.31-4.69,2.01-7.18,2.01
						c-2.49,0-4.97-0.69-7.18-2.01c-1.72-1.03-3.39-2.32-4.99-3.87c-9.1,0.68-24.69,10.92-32.5,16.69l7.58,11.19l15.04-10.75
						L48.67,85.7c3.32,1.61,11.6,5,22.43,5.07C71.56,90.78,72.01,90.78,72.47,90.78z"/>
				</g>
				<g>
					<g>
						<path fill="#C1C7C9" d="M66.76,54.13l1.64-2.26c1.12,1.22,2.93,2.31,5.25,2.31c2.39,0,3.31-1.17,3.31-2.29
							c0-3.48-9.65-1.32-9.65-7.41c0-2.76,2.39-4.88,6.04-4.88c2.56,0,4.68,0.85,6.19,2.34l-1.64,2.16
							c-1.32-1.32-3.08-1.92-4.83-1.92c-1.69,0-2.79,0.85-2.79,2.06c0,3.11,9.65,1.19,9.65,7.36c0,2.76-1.96,5.15-6.42,5.15
							C70.46,56.77,68.25,55.67,66.76,54.13z"/>
					</g>
				</g>
			</g>
			<g>
				<g>
					<g>
						<g>
							<path fill="#FFFFFF" d="M148.17,116.17c-19.59-0.12-32.81-7.67-34.48-8.67l1.37-69.65l-18.04,12.9L81.94,28.47
								c3.3-2.54,35.08-26.68,52.29-26.68h0.07c2.34,2.44,4.82,4.45,7.38,5.97c2.57,1.53,5.46,2.34,8.36,2.34s5.79-0.81,8.36-2.34
								c2.55-1.52,5.03-3.53,7.38-5.97h0.07c17.21,0,48.99,24.13,52.29,26.68l-15.09,22.28l-18.05-12.91l2.33,69.66
								c-1.77,1-15.7,8.55-35.29,8.67c-0.65,0-1.3,0.01-1.95,0.01S148.8,116.18,148.17,116.17z"/>
							<path fill="#989FA1" d="M165.92,2.17c16.7,0.08,47.21,22.95,51.69,26.38l-14.67,21.67l-17.12-12.24l-1.24-0.88l0.05,1.52
								l2.29,68.67c-2.4,1.33-15.99,8.4-34.91,8.52c-0.65,0-1.3,0.01-1.94,0.01c-0.64,0-1.28,0-1.91-0.01
								c-18.89-0.12-31.83-7.18-34.1-8.51l1.35-68.69l0.03-1.49l-1.22,0.87L97.12,50.22L82.44,28.55
								c4.48-3.43,34.99-26.3,51.69-26.38c2.33,2.41,4.8,4.4,7.34,5.92c2.62,1.56,5.58,2.39,8.55,2.39s5.92-0.83,8.55-2.39
								C161.12,6.57,163.59,4.58,165.92,2.17 M165.83,1.42c-0.08,0-0.15,0-0.23,0c-2.5,2.63-5,4.58-7.41,6.02
								c-2.56,1.52-5.36,2.28-8.16,2.28s-5.61-0.76-8.16-2.28c-2.41-1.44-4.9-3.39-7.41-6.02c-0.08,0-0.15,0-0.23,0
								c-18.41,0-52.8,26.97-52.8,26.97l15.5,22.89l17.75-12.69l-1.36,69.12c0,0,13.62,8.71,34.85,8.84c0.63,0,1.27,0.01,1.91,0.01
								s1.29,0,1.95-0.01c21.24-0.13,35.67-8.84,35.67-8.84l-2.31-69.12l17.75,12.69l15.5-22.89
								C218.63,28.39,184.24,1.41,165.83,1.42L165.83,1.42z"/>
						</g>
						<path fill="#FFFFFF" d="M165.83,1.42c18.41,0,52.8,26.97,52.8,26.97l-15.5,22.89l-17.75-12.69l2.31,69.12
							c0,0-14.43,8.71-35.67,8.84c-0.65,0-1.3,0.01-1.95,0.01s-1.28,0-1.91-0.01c-21.24-0.13-34.85-8.84-34.85-8.84l1.36-69.12
							L96.93,51.28l-15.5-22.89c0,0,34.39-26.97,52.8-26.97c0.08,0,0.15,0,0.23,0c2.5,2.63,5,4.58,7.41,6.02
							c2.56,1.52,5.36,2.28,8.16,2.28c2.8,0,5.61-0.76,8.16-2.28c2.41-1.44,4.9-3.39,7.41-6.02C165.68,1.42,165.76,1.42,165.83,1.42
							 M165.83-0.58L165.83-0.58l-0.26,0l-0.84,0.01l-0.58,0.61c-2.22,2.33-4.57,4.25-6.98,5.68c-2.2,1.31-4.67,2-7.14,2
							c-2.47,0-4.94-0.69-7.14-2c-2.41-1.43-4.76-3.35-6.98-5.68l-0.58-0.61l-0.84-0.01l-0.25,0c-18.89,0-52.61,26.28-54.04,27.4
							l-1.47,1.15l1.05,1.54l15.5,22.89l1.15,1.7l1.67-1.19l14.5-10.37l-1.28,65.14l-0.02,1.12l0.94,0.6
							c0.58,0.37,14.35,9.02,35.92,9.15c0.63,0,1.28,0.01,1.92,0.01c0.65,0,1.3,0,1.96-0.01c21.54-0.13,36.08-8.76,36.69-9.13
							l1-0.61l-0.04-1.17l-2.17-65.07l14.45,10.33l1.67,1.19l1.15-1.7l15.5-22.89l1.05-1.54l-1.47-1.15
							C218.44,25.69,184.72-0.58,165.83-0.58L165.83-0.58z"/>
					</g>
					<path fill="#ECEFEF" d="M150.08,112.02c-0.63,0-1.26,0-1.89-0.01c-15.27-0.09-26.34-4.83-30.75-7.07l1.47-74.78L97.91,45.19
						L87.26,29.45C98.23,21.35,120.14,6.96,132.93,6c2.24,2.17,4.59,3.99,7.01,5.43c3.1,1.85,6.59,2.82,10.09,2.82
						c3.5,0,6.99-0.98,10.09-2.82c2.42-1.44,4.77-3.26,7.01-5.43c12.79,0.96,34.7,15.35,45.68,23.45l-10.65,15.73l-21.13-15.11
						l2.5,74.82c-4.67,2.26-16.3,7.03-31.52,7.13C151.35,112.02,150.71,112.02,150.08,112.02z"/>
				</g>
				<g>
					<g>
						<path fill="#C1C7C9" d="M144.73,63.8V40.49h4.09V60.2h10.28v3.6H144.73z"/>
					</g>
				</g>
				<circle fill="#EEE679" cx="187.03" cy="103.89" r="19.53"/>
				<g>
					<g>
						<g>
							<path fill="#FFFFFF" d="M177.52,114.27v-1.07c3.83-3,5.92-4.77,5.92-6.61c0-1.37-1.13-1.95-2.23-1.95
								c-1.28,0-2.27,0.54-2.89,1.34l-0.81-0.85c0.81-1.08,2.2-1.68,3.7-1.68c1.77,0,3.58,1.01,3.58,3.13c0,2.17-2.2,4.15-5.17,6.5
								h5.22v1.18H177.52z"/>
							<path fill="#FFFFFF" d="M187.66,108.96c0-2.6,1.15-5.49,4.07-5.49c2.91,0,4.07,2.89,4.07,5.49c0,2.58-1.17,5.51-4.07,5.51
								C188.8,114.47,187.66,111.54,187.66,108.96z M194.44,108.96c0-2.12-0.69-4.31-2.71-4.31c-2.03,0-2.71,2.19-2.71,4.31
								c0,2.12,0.69,4.33,2.71,4.33C193.75,113.28,194.44,111.08,194.44,108.96z"/>
						</g>
					</g>
					<g>
						<path fill="#FFFFFF" d="M180.47,94.94c0-1.35,0.96-2.35,2.32-2.35c1.35,0,2.32,0.99,2.32,2.35c0,0.65-0.22,1.22-0.61,1.63
							l0.37,0.42l-0.55,0.46l-0.39-0.44c-0.33,0.18-0.72,0.27-1.14,0.27C181.43,97.29,180.47,96.29,180.47,94.94z M183.43,96.44
							l-0.56-0.64l0.56-0.46l0.57,0.64c0.2-0.28,0.31-0.64,0.31-1.04c0-0.94-0.59-1.64-1.5-1.64c-0.92,0-1.5,0.7-1.5,1.64
							c0,0.93,0.58,1.64,1.5,1.64C183.03,96.58,183.24,96.53,183.43,96.44z"/>
						<path fill="#FFFFFF" d="M186.85,97.21v-3.84h-1.38v-0.7h3.55v0.7h-1.38v3.84H186.85z"/>
						<path fill="#FFFFFF" d="M191.33,97.21v-1.88l-1.76-2.65h0.91l1.25,1.94l1.25-1.94h0.91l-1.76,2.65v1.88H191.33z"/>
					</g>
				</g>
			</g>
		</g>
		<circle fill="#EEE679" cx="98.83" cy="84.99" r="13.68"/>
		<g>
			<g>
				<g>
					<path fill="#FFFFFF" d="M95,92.81v-6.33l-1.21,1.29l-0.57-0.58l1.9-1.95h0.83v7.57H95z"/>
					<path fill="#FFFFFF" d="M97.98,89.03c0-2.04,0.95-3.91,3.09-3.91c0.96,0,1.62,0.36,2.09,0.91l-0.48,0.7
						c-0.39-0.45-0.83-0.77-1.61-0.77c-1.48,0-2.13,1.49-2.13,2.97c0,0.1,0,0.19,0,0.29c0.33-0.52,1.17-1.18,2.15-1.18
						c1.36,0,2.47,0.81,2.47,2.42c0,1.31-1,2.48-2.65,2.48C98.78,92.95,97.98,91.1,97.98,89.03z M102.6,90.51
						c0-1.11-0.77-1.63-1.74-1.63c-0.76,0-1.49,0.47-1.9,1.12c0.08,0.94,0.58,2.11,1.9,2.11C102.03,92.11,102.6,91.22,102.6,90.51z"
						/>
				</g>
			</g>
			<g>
				<path fill="#FFFFFF" d="M94.06,79.06c0-0.96,0.68-1.67,1.65-1.67c0.96,0,1.65,0.71,1.65,1.67c0,0.46-0.16,0.87-0.43,1.16
					l0.27,0.3l-0.39,0.33l-0.28-0.31c-0.24,0.13-0.51,0.19-0.81,0.19C94.74,80.72,94.06,80.02,94.06,79.06z M96.16,80.13l-0.4-0.45
					l0.4-0.33l0.4,0.45c0.14-0.2,0.22-0.45,0.22-0.74c0-0.67-0.42-1.17-1.07-1.17c-0.65,0-1.07,0.5-1.07,1.17
					c0,0.66,0.42,1.17,1.07,1.17C95.88,80.22,96.03,80.19,96.16,80.13z"/>
				<path fill="#FFFFFF" d="M98.79,80.67v-2.73h-0.98v-0.5h2.52v0.5h-0.98v2.73H98.79z"/>
				<path fill="#FFFFFF" d="M101.98,80.67v-1.34l-1.25-1.89h0.65l0.88,1.38l0.88-1.38h0.65l-1.25,1.89v1.34H101.98z"/>
			</g>
		</g>
	</g>
</g>
<g id="Layer_2">
</g>
<g id="Layer_3">
</g>
<g id="Layer_4">
</g>
<g id="Layer_5">
</g>
<g id="Layer_6">
</g>
</svg>
