<svg xmlns="http://www.w3.org/2000/svg" preserveAspectRatio="xMidYMid" width="59" height="72" viewBox="0 0 59 72"><defs><style>.cls-1 { fill: #98a2a4; fill-rule: evenodd; }</style></defs><path d="M55.11 52.257H44.87V63.66c0 .235-.066.455-.18.643-.552 3.506-2.42 5.735-5.698 6.805-2.887.942-6.51.914-10.704.88-.76-.005-1.534-.01-2.32-.01H18.9c-.786 0-1.56.005-2.32.01-.752.007-1.485.013-2.2.013-3.268 0-6.132-.12-8.502-.89-3.278-1.07-5.146-3.3-5.7-6.8-.115-.186-.18-.406-.18-.642v-37.42c0-.686.555-1.242 1.24-1.242h42.39c.685 0 1.24.556 1.24 1.242v4.324h10.24c1.034 0 2.006.39 2.738 1.1.743.724 1.152 1.687 1.152 2.714V48.44c0 2.105-1.745 3.817-3.89 3.817zM2.48 27.487v35.677c.047.108.08.225.093.347.695 5.83 5.275 6.07 13.99 6 .765-.002 1.546-.01 2.34-.01h7.064c.794 0 1.575.008 2.34.01 8.716.07 13.297-.17 13.99-5.99.014-.124.046-.24.093-.35V27.49H2.48zm54.04 6.898c0-.35-.14-.68-.398-.928-.267-.26-.626-.402-1.01-.402H44.87v16.718h10.24c.778 0 1.41-.598 1.41-1.334V34.38zm-26.5 21.863l-.008.007c-.138.14-.302.21-.487.21-.186 0-.35-.07-.48-.2l-.734-.88-.01-.015c-.13-.136-.19-.296-.19-.475 0-.18.066-.337.194-.473l5.586-6.883-5.57-6.87-.017-.02c-.13-.137-.195-.296-.195-.475 0-.18.065-.34.195-.474l.747-.896c.137-.133.3-.2.48-.2.184 0 .35.07.477.2l.028.03 6.738 8.206.017.016c.13.137.195.296.195.475 0 .18-.067.34-.196.475l-6.77 8.235zm-8.858-.1c-.055.18-.165.32-.325.41-.103.058-.21.088-.317.088-.063 0-.127-.01-.202-.034l-.893-.246c-.18-.055-.318-.165-.41-.327-.09-.17-.11-.34-.055-.53l4.392-16.64c.056-.18.165-.32.327-.41.1-.06.2-.087.31-.087.06 0 .13.01.2.032l.9.246c.18.056.31.165.402.326.09.162.11.337.054.527l-4.39 16.64zm-4.588-1.726c.128.136.194.295.194.473 0 .18-.066.34-.196.474l-.747.89c-.137.13-.298.2-.48.2-.185 0-.35-.07-.478-.2l-6.765-8.24-.014-.016c-.13-.136-.195-.295-.195-.474 0-.18.066-.34.195-.474l6.762-8.235.007-.006c.14-.14.303-.21.49-.21.184 0 .348.07.477.2l.735.88.01.015c.13.134.19.294.19.473 0 .18-.065.337-.194.473l-5.58 6.886 5.57 6.866.013.018zM27.897 13.77c.43.452.91.96 1.214 1.735.61 1.334.46 2.86-.45 4.413-.8 1.38-1.87 2.264-1.99 2.36-.23.184-.5.273-.773.273-.364 0-.724-.16-.97-.46-.427-.532-.34-1.314.194-1.743.508-.41 2.413-2.37 1.733-3.822l-.04-.09c-.12-.315-.333-.55-.702-.94l-.01-.013c-.56-.593-1.325-1.406-1.7-2.773-.833-3.024 1.653-5.13 2.59-5.926l.21-.18c.44-.5 1.202-.556 1.717-.126.528.44.6 1.223.16 1.75-.122.147-.266.27-.483.454-1.95 1.655-2.006 2.63-1.803 3.37.214.77.63 1.216 1.115 1.73zm-8.178-2.725l.01.013c.63.668 1.34 1.425 1.78 2.56.77 1.82.51 3.786-.76 5.686-.99 1.475-2.36 2.576-2.88 2.99-.23.183-.503.272-.775.272-.363 0-.723-.16-.968-.466-.43-.535-.343-1.317.192-1.745 2.653-2.13 3.627-4.074 2.892-5.78l-.02-.053c-.26-.684-.707-1.158-1.274-1.758l.89-.866-.9.854c-.808-.854-1.813-1.918-2.31-3.723-1.096-3.98 2.34-7.12 3.63-8.3.126-.113.28-.253.326-.3.44-.52 1.214-.59 1.74-.154.526.44.6 1.222.16 1.75-.127.152-.296.307-.55.54-1.08.983-3.605 3.285-2.91 5.792.33 1.21 1.004 1.92 1.72 2.677z" class="cls-1"/></svg>