<?xml version="1.0" encoding="utf-8"?>
<!-- Generator: Adobe Illustrator 22.1.0, SVG Export Plug-In . SVG Version: 6.00 Build 0)  -->
<svg version="1.1" id="Layer_1" xmlns="http://www.w3.org/2000/svg" xmlns:xlink="http://www.w3.org/1999/xlink" x="0px" y="0px"
	 viewBox="0 0 283 134" style="enable-background:new 0 0 283 134;" xml:space="preserve">
<style type="text/css">
	.st0{fill:#EEE679;}
	.st1{fill:#989FA1;}
	.st2{fill:#FFFFFF;}
	.st3{fill:#ECEFEF;}
</style>
<title>HtmlShoppingCart-02</title>
<path class="st0" d="M33.9,98.1h-2v1.9h2c0.5,0,1-0.3,1-0.8c0-0.1,0-0.1,0-0.2C34.8,98.5,34.4,98.1,33.9,98.1z"/>
<path class="st0" d="M34.8,96.1c0-0.5-0.4-0.9-0.8-0.9c-0.1,0-0.1,0-0.2,0h-2V97h2c0.5,0.1,0.9-0.2,1-0.7
	C34.8,96.2,34.8,96.2,34.8,96.1z"/>
<path class="st0" d="M69.9,90.3H12.2c-0.4,0-0.7,0.3-0.7,0.7l0,0v12.8c0,0.4,0.3,0.7,0.7,0.7l0,0h57.7c0.4,0,0.7-0.3,0.7-0.7l0,0V91
	C70.6,90.6,70.3,90.3,69.9,90.3z M34.1,101.1h-3.5v-6.9H34c1-0.1,1.9,0.5,2,1.5c0,0.1,0,0.2,0,0.3c0,0.4-0.1,0.8-0.4,1.1
	c-0.1,0.2-0.3,0.3-0.5,0.4c-0.1,0-0.2,0.1-0.2,0.1c0.2,0,0.4,0.1,0.6,0.3c0.4,0.3,0.7,0.9,0.7,1.4c0.1,1-0.7,1.9-1.7,1.9
	C34.3,101.1,34.2,101.1,34.1,101.1z M43.9,98.3c0.1,1.5-1,2.8-2.4,2.9c-0.2,0-0.4,0-0.6,0c-1.5,0.2-2.8-0.9-3-2.3c0-0.2,0-0.4,0-0.5
	v-4.2h1.2v4.1c0,1,0.8,1.8,1.8,1.8c1,0,1.8-0.8,1.8-1.8v-4.1h1.2L43.9,98.3L43.9,98.3z M49.8,97l-0.2,0.4l-0.2,0.4l-0.3,0.4v2.9
	h-1.2v-2.8l-0.3-0.4l-0.2-0.4L47.1,97l-1.9-2.9h1.4l1.8,2.9h0.1l1.8-2.9h1.4L49.8,97z"/>
<polygon class="st1" points="81.2,82.6 80.8,82.6 80.8,97 73.2,97 73.2,97.4 73.2,97.8 81.6,97.8 81.6,82.6 "/>
<polygon class="st1" points="55.8,52 55.8,52.4 55.8,52.8 80.8,52.8 80.8,67 81.2,67 81.6,67 81.6,52 "/>
<polygon class="st1" points="1.7,52 1.7,97.8 10,97.8 10,97.4 10,97 2.4,97 2.4,52.8 28.4,52.8 28.4,52.4 28.4,52 "/>
<path class="st2" d="M36,97.8c-0.2-0.1-0.4-0.2-0.6-0.3c0.1,0,0.2-0.1,0.2-0.1c0.2-0.1,0.4-0.2,0.5-0.4c0.3-0.3,0.4-0.7,0.4-1.1
	c0-1-0.8-1.8-1.8-1.8c-0.1,0-0.2,0-0.2,0h-3.4v6.9h3.5c1,0.1,1.9-0.6,2-1.6c0-0.1,0-0.2,0-0.3C36.7,98.6,36.4,98.1,36,97.8z
	 M32.4,95.2h2c0.5-0.1,0.9,0.3,1,0.8c0,0,0,0.1,0,0.1c0,0.5-0.4,0.9-0.8,0.9c-0.1,0-0.1,0-0.2,0h-2L32.4,95.2z M34.4,100h-2v-1.9h2
	c0.6,0,1,0.4,1,1C35.4,99.6,35,100,34.4,100C34.4,100,34.4,100,34.4,100L34.4,100z"/>
<path class="st2" d="M43.2,98.3c0,1-0.8,1.8-1.8,1.8c-1,0-1.8-0.8-1.8-1.8v-4.1h-1.2v4.2c-0.1,1.5,1,2.8,2.5,2.9c0.2,0,0.4,0,0.5,0
	c1.5,0.2,2.8-0.8,3-2.3c0-0.2,0-0.4,0-0.5v-4.2h-1.2V98.3z"/>
<polygon class="st2" points="50.9,94.2 49,97 48.9,97 47.1,94.2 45.7,94.2 48.4,98.2 48.4,101.1 49.6,101.1 49.6,98.2 52.3,94.2 "/>
<polygon class="st1" points="19,75.2 23.5,77.3 23.5,76.5 19.8,74.8 23.5,73.2 23.5,72.4 19,74.4 "/>
<polygon class="st1" points="32.7,74.2 29.2,74.2 29.2,71.5 28.1,71.5 28.1,78.2 29.2,78.2 29.2,75.3 32.7,75.3 32.7,78.2 
	33.9,78.2 33.9,71.5 32.7,71.5 "/>
<polygon class="st1" points="35.4,72.5 37.4,72.5 37.4,78.2 38.6,78.2 38.6,72.5 40.6,72.5 40.6,71.5 35.4,71.5 "/>
<polygon class="st1" points="45.6,76.1 43.8,71.5 42.1,71.5 42.1,78.2 43.3,78.2 43.3,73 45.3,78.2 45.9,78.2 47.9,73 47.9,78.2 
	49.1,78.2 49.1,71.5 47.4,71.5 "/>
<polygon class="st1" points="52.1,71.5 50.9,71.5 50.9,78.2 55,78.2 55,77.2 52.1,77.2 "/>
<polygon class="st1" points="59.2,72.4 59.2,73.2 62.9,74.8 59.2,76.5 59.2,77.3 63.7,75.2 63.7,74.4 "/>
<path class="st1" d="M63.8,33.1c0,0-11-8.6-16.8-8.6l0,0c-0.7,0.7-1.5,1.4-2.4,1.9c-0.8,0.5-1.7,0.7-2.6,0.7c-0.9,0-1.8-0.3-2.6-0.7
	c-0.9-0.5-1.7-1.2-2.4-1.9l0,0c-5.9,0-16.8,8.6-16.8,8.6l4.9,7.3l5.7-4L30.4,52v0.8l-0.1,5.6c3.4,1.9,7.2,2.9,11.1,2.8h1.2
	c4,0,7.9-1,11.4-2.8l-0.2-5.6v-0.4V52l-0.5-15.7l5.6,4L63.8,33.1z M53.7,35.7l-1.2-0.9v1.5L53,52v0.4v0.4l0.2,5.2
	c-3.3,1.6-6.9,2.5-10.6,2.5h-1.2c-3.6,0-7.1-0.9-10.3-2.5l0.1-5.2V52l0.3-15.7v-1.5l-1.2,0.9l-5,3.6l-4.1-6.1
	c2.2-1.7,10.7-7.8,15.6-8c0.7,0.7,1.5,1.3,2.3,1.8c1.8,1.1,4.2,1.1,6,0c0.8-0.5,1.6-1.1,2.3-1.8c4.8,0.2,13.3,6.3,15.6,8l-4.1,6.1
	L53.7,35.7z"/>
<path class="st3" d="M47.7,26.7c-0.7,0.6-1.4,1.1-2.1,1.6c-2.2,1.3-5,1.3-7.2,0c-0.8-0.5-1.5-1-2.1-1.6c-3.4,0.4-9.1,3.8-13.3,6.9
	l2.6,3.8l7.3-5.2L32.4,57c2.8,1.3,5.9,2,9,2h1.2c3.2,0,6.4-0.7,9.3-2L51,32.1l7.3,5.2l2.6-3.8C56.8,30.6,51.1,27.2,47.7,26.7z"/>
<polygon class="st1" points="97.3,19.6 97.3,18.9 89.8,18.9 89.8,74.5 83.1,74.5 81.6,74.5 81.2,74.5 80.8,74.5 79.3,74.5 
	76.1,74.5 76.1,75.3 79.3,75.3 80.8,75.3 81.2,75.3 81.6,75.3 83.1,75.3 89.8,75.3 89.8,115.1 97.3,115.1 97.3,114.4 90.6,114.4 
	90.6,19.6 "/>
<path class="st1" d="M97.6,28.7v-0.6l3.6-1.6v0.6l-2.9,1.3l2.9,1.3v0.6L97.6,28.7z"/>
<path class="st1" d="M104.8,31.1v-5.3h0.8v2c0.3-0.4,0.7-0.6,1.2-0.6c1,0,1.7,0.8,1.7,2s-0.7,2-1.7,2c-0.5,0-0.9-0.2-1.2-0.6V31
	L104.8,31.1z M106.6,30.5c0.7,0,1.1-0.5,1.1-1.3c0.1-0.6-0.4-1.2-1-1.3c0,0-0.1,0-0.1,0c-0.4,0-0.8,0.2-1,0.5v1.5
	C105.8,30.3,106.2,30.4,106.6,30.5z"/>
<path class="st1" d="M112.4,31.1v-0.5c-0.3,0.4-0.8,0.6-1.4,0.6c-0.6,0.1-1.2-0.3-1.2-1c0-0.1,0-0.2,0-0.2v-2.8h0.9v2.4
	c0,0.6,0.3,0.8,0.8,0.8c0.4,0,0.8-0.2,1-0.5v-2.7h0.8v3.9H112.4z"/>
<path class="st1" d="M114.9,30.2V28h-0.6v-0.7h0.6v-1.1h0.8v1h0.8V28h-0.8v2c0,0.3,0.1,0.5,0.4,0.5c0.1,0,0.3-0.1,0.4-0.1l0.2,0.6
	c-0.2,0.2-0.5,0.3-0.8,0.2c-0.5,0.1-0.9-0.3-1-0.8C114.9,30.4,114.9,30.3,114.9,30.2z"/>
<path class="st1" d="M117.9,30.2V28h-0.6v-0.7h0.6v-1.1h0.8v1h0.8V28h-0.8v2c0,0.3,0.1,0.5,0.4,0.5c0.1,0,0.3-0.1,0.4-0.1l0.2,0.6
	c-0.2,0.2-0.5,0.3-0.8,0.2c-0.5,0-0.9-0.3-1-0.8C117.8,30.3,117.8,30.3,117.9,30.2z"/>
<path class="st1" d="M120.4,29.2c0-1.1,0.9-2,2-2s2,0.9,2,2s-0.9,2-2,2c-1.1,0-2-0.8-2-1.8C120.4,29.3,120.4,29.2,120.4,29.2z
	 M123.5,29.2c-0.1-0.6-0.7-1-1.3-1c-0.6,0.1-1,0.7-1,1.3c0.1,0.6,0.6,1,1.1,1c0.6,0,1.1-0.5,1.1-1.2
	C123.5,29.2,123.5,29.2,123.5,29.2z"/>
<path class="st1" d="M128.2,31.1v-2.4c0-0.6-0.3-0.8-0.8-0.8c-0.4,0-0.8,0.2-1,0.5v2.7h-0.8v-3.9h0.8v0.5c0.3-0.4,0.8-0.6,1.4-0.6
	c0.6-0.1,1.2,0.3,1.2,1c0,0.1,0,0.2,0,0.3v2.7H128.2z"/>
<path class="st1" d="M114.8,37.8c-0.1-0.9,0.7-1.7,1.6-1.8c0.1,0,0.1,0,0.2,0c0.5,0,1,0.2,1.3,0.6l-0.5,0.4
	c-0.2-0.3-0.5-0.4-0.8-0.4c-0.6,0.1-1.1,0.6-1,1.2c0.1,0.5,0.5,1,1,1c0.3,0,0.6-0.1,0.8-0.4l0.5,0.5c-0.3,0.4-0.8,0.6-1.3,0.6
	C115.6,39.6,114.9,38.8,114.8,37.8C114.8,37.9,114.8,37.8,114.8,37.8z"/>
<path class="st1" d="M118.9,39.5v-4.7h0.7v4.7L118.9,39.5z"/>
<path class="st1" d="M123,39.5v-0.4c-0.3,0.3-0.7,0.5-1.1,0.5c-0.6,0-1.2-0.4-1.2-1c0,0,0,0,0-0.1c0-0.6,0.5-1.1,1.1-1.1
	c0,0,0.1,0,0.1,0c0.4,0,0.8,0.1,1.1,0.4v-0.5c0-0.4-0.3-0.6-0.8-0.6c-0.4,0-0.7,0.2-1,0.4l-0.3-0.5c0.4-0.4,0.9-0.6,1.4-0.5
	c0.8,0,1.4,0.3,1.4,1.2v2.2H123z M123,38.7v-0.5c-0.2-0.2-0.5-0.4-0.8-0.3c-0.4,0-0.7,0.2-0.7,0.6s0.3,0.6,0.7,0.6
	C122.5,39.1,122.8,39,123,38.7z"/>
<path class="st1" d="M124.7,39l0.3-0.5c0.3,0.3,0.7,0.5,1.1,0.5c0.4,0,0.7-0.2,0.7-0.5c0-0.7-2-0.2-2-1.5c0-0.5,0.5-1,1.3-1
	c0.5,0,0.9,0.2,1.3,0.5l-0.3,0.5c-0.3-0.3-0.6-0.4-1-0.4c-0.4,0-0.6,0.2-0.6,0.4c0,0.6,2,0.2,2,1.5c0,0.6-0.5,1.1-1.4,1.1
	C125.6,39.6,125.1,39.4,124.7,39z"/>
<path class="st1" d="M128.4,39l0.3-0.5c0.3,0.3,0.7,0.5,1.1,0.5c0.4,0,0.7-0.2,0.7-0.5c0-0.7-2.1-0.2-2.1-1.5c0-0.5,0.5-1,1.3-1
	c0.5,0,0.9,0.2,1.3,0.5l-0.3,0.5c-0.3-0.3-0.6-0.4-1-0.4c-0.4,0-0.6,0.2-0.6,0.4c0,0.6,2,0.2,2,1.5c0,0.6-0.5,1.1-1.4,1.1
	C129.3,39.6,128.8,39.4,128.4,39z"/>
<path class="st1" d="M132.1,36.7v-0.5h3.1v0.5H132.1z M132.1,38.1v-0.5h3.1v0.5H132.1z"/>
<path class="st1" d="M136.5,36.6l-0.3-0.3c0.2-0.1,0.4-0.4,0.5-0.7h-0.1c-0.2,0-0.4-0.2-0.4-0.4c0,0,0,0,0,0c0-0.3,0.2-0.5,0.5-0.5
	c0.3,0,0.6,0.3,0.5,0.6c0,0,0,0,0,0C137.1,35.9,136.9,36.3,136.5,36.6z M137.8,36.6l-0.3-0.3c0.2-0.1,0.4-0.4,0.5-0.7h-0.1
	c-0.2,0-0.4-0.2-0.4-0.4c0,0,0,0,0,0c0-0.3,0.2-0.5,0.5-0.5c0.3,0,0.6,0.3,0.5,0.6c0,0,0,0,0,0C138.4,35.9,138.2,36.3,137.8,36.6z"
	/>
<path class="st1" d="M139.1,39l0.3-0.5c0.3,0.3,0.7,0.5,1.1,0.5c0.4,0,0.7-0.2,0.7-0.5c0-0.7-2-0.2-2-1.5c0-0.5,0.5-1,1.3-1
	c0.5,0,0.9,0.2,1.3,0.5l-0.3,0.5c-0.3-0.3-0.6-0.4-1-0.4c-0.4,0-0.6,0.2-0.6,0.4c0,0.6,2,0.2,2,1.5c0,0.6-0.5,1.1-1.4,1.1
	C140,39.6,139.5,39.4,139.1,39z"/>
<path class="st1" d="M145.3,39.5v-2.1c0-0.5-0.3-0.7-0.7-0.7c-0.3,0-0.7,0.2-0.9,0.5v2.4H143v-3.4h0.7v0.5c0.3-0.3,0.7-0.5,1.2-0.5
	c0.5-0.1,1,0.4,1.1,0.9c0,0.1,0,0.1,0,0.2v2.4H145.3z"/>
<path class="st1" d="M147.2,35.2c0-0.2,0.2-0.5,0.4-0.5c0.3,0,0.5,0.1,0.5,0.4s-0.1,0.5-0.4,0.5c0,0-0.1,0-0.1,0
	C147.5,35.7,147.2,35.5,147.2,35.2C147.2,35.2,147.2,35.2,147.2,35.2z M147.3,39.5v-3.4h0.7v3.4H147.3z"/>
<path class="st1" d="M150.1,39v1.8h-0.7v-4.6h0.7v0.5c0.3-0.3,0.7-0.5,1.1-0.5c0.9,0,1.5,0.7,1.5,1.8s-0.6,1.8-1.5,1.8
	C150.8,39.6,150.3,39.4,150.1,39z M151.9,37.8c0.1-0.5-0.3-1-0.9-1.1c0,0-0.1,0-0.1,0c-0.3,0-0.7,0.2-0.9,0.5v1.3
	c0.2,0.3,0.5,0.5,0.9,0.5c0.6,0,1-0.4,1-1C151.9,37.9,151.9,37.8,151.9,37.8L151.9,37.8z"/>
<path class="st1" d="M153.6,37.8c-0.1-0.9,0.6-1.7,1.6-1.8c0.1,0,0.1,0,0.2,0c0.5,0,1,0.2,1.3,0.6l-0.5,0.4
	c-0.2-0.3-0.5-0.4-0.8-0.4c-0.6,0.1-1.1,0.6-1,1.2c0.1,0.5,0.5,1,1,1c0.3,0,0.6-0.1,0.8-0.4l0.5,0.5c-0.3,0.4-0.8,0.6-1.3,0.6
	C154.4,39.6,153.6,38.8,153.6,37.8C153.6,37.9,153.6,37.8,153.6,37.8z"/>
<path class="st1" d="M159.7,39.5v-0.4c-0.3,0.3-0.7,0.5-1.1,0.5c-0.6,0-1.1-0.5-1.2-1.1c0,0,0,0,0,0c0-0.6,0.5-1.1,1.1-1.1
	c0,0,0.1,0,0.1,0c0.4,0,0.8,0.1,1.1,0.4v-0.5c0-0.4-0.3-0.6-0.8-0.6c-0.4,0-0.7,0.2-1,0.4l-0.3-0.5c0.4-0.4,0.9-0.6,1.4-0.5
	c0.8,0,1.4,0.3,1.4,1.2v2.2L159.7,39.5z M159.7,38.7v-0.5c-0.2-0.2-0.5-0.4-0.8-0.3c-0.3,0-0.6,0.2-0.7,0.5c0,0.3,0.2,0.6,0.5,0.7
	c0.1,0,0.1,0,0.2,0C159.2,39.1,159.5,39,159.7,38.7z"/>
<path class="st1" d="M161.7,39.5v-3.4h0.7v0.5c0.3-0.3,0.7-0.5,1.1-0.6v0.7c-0.1,0-0.1,0-0.2,0c-0.3,0-0.7,0.2-0.9,0.5v2.3
	L161.7,39.5z"/>
<path class="st1" d="M164.7,38.7v-2h-0.6v-0.6h0.6v-0.9h0.7v0.9h0.7v0.6h-0.7v1.8c0,0.2,0.1,0.4,0.3,0.4c0.1,0,0.2,0,0.3-0.1
	l0.2,0.6c-0.2,0.2-0.4,0.2-0.7,0.2c-0.4,0.1-0.8-0.3-0.9-0.7C164.7,38.8,164.7,38.7,164.7,38.7z"/>
<path class="st1" d="M166.8,38.1v-0.6h1.7v0.6H166.8z"/>
<path class="st1" d="M171.6,39.5v-0.4c-0.3,0.3-0.7,0.5-1.1,0.5c-0.6,0-1.1-0.5-1.2-1.1c0,0,0,0,0,0c0-0.6,0.5-1.1,1.1-1.1
	c0,0,0.1,0,0.1,0c0.4,0,0.8,0.1,1.1,0.4v-0.5c0-0.4-0.3-0.6-0.8-0.6c-0.4,0-0.7,0.2-1,0.4l-0.3-0.5c0.4-0.4,0.9-0.6,1.4-0.5
	c0.8,0,1.4,0.3,1.4,1.2v2.2L171.6,39.5z M171.6,38.7v-0.5c-0.2-0.2-0.5-0.4-0.8-0.3c-0.3,0-0.6,0.2-0.7,0.5c0,0.3,0.2,0.6,0.5,0.7
	c0.1,0,0.1,0,0.2,0C171.1,39.1,171.4,39,171.6,38.7z"/>
<path class="st1" d="M176,39.5V39c-0.3,0.3-0.7,0.5-1.1,0.5c-0.9,0-1.5-0.7-1.5-1.8c-0.1-0.9,0.5-1.6,1.3-1.8c0.1,0,0.1,0,0.2,0
	c0.4,0,0.8,0.2,1.1,0.5v-1.7h0.7v4.7L176,39.5z M176,38.5v-1.4c-0.2-0.3-0.5-0.4-0.9-0.5c-0.6,0.1-1,0.7-0.9,1.3
	c0.1,0.5,0.5,0.9,0.9,0.9C175.5,38.9,175.8,38.8,176,38.5L176,38.5z"/>
<path class="st1" d="M180.4,39.5V39c-0.3,0.3-0.7,0.5-1.1,0.5c-0.9,0-1.5-0.7-1.5-1.8c-0.1-0.9,0.5-1.6,1.3-1.8c0.1,0,0.1,0,0.2,0
	c0.4,0,0.8,0.2,1.1,0.5v-1.7h0.7v4.7L180.4,39.5z M180.4,38.5v-1.4c-0.2-0.3-0.5-0.4-0.9-0.5c-0.6,0.1-1,0.7-0.9,1.3
	c0.1,0.5,0.5,0.9,0.9,0.9C179.9,38.9,180.2,38.8,180.4,38.5L180.4,38.5z"/>
<path class="st1" d="M182.2,38.1v-0.6h1.7v0.6H182.2z"/>
<path class="st1" d="M184.8,35.2c0-0.2,0.2-0.5,0.4-0.5c0.3,0,0.5,0.1,0.5,0.4s-0.1,0.5-0.4,0.5c0,0-0.1,0-0.1,0
	C185,35.7,184.8,35.5,184.8,35.2C184.8,35.2,184.8,35.2,184.8,35.2z M184.9,39.5v-3.4h0.8v3.4H184.9z"/>
<path class="st1" d="M187.1,38.7v-2h-0.6v-0.6h0.6v-0.9h0.7v0.9h0.7v0.6h-0.7v1.8c0,0.2,0.1,0.4,0.3,0.4c0.1,0,0.2,0,0.3-0.1
	l0.2,0.6c-0.2,0.2-0.4,0.2-0.7,0.2c-0.4,0.1-0.8-0.3-0.9-0.7C187.1,38.8,187.1,38.7,187.1,38.7z"/>
<path class="st1" d="M189.3,37.8c-0.1-0.9,0.7-1.7,1.6-1.8c0,0,0.1,0,0.1,0c0.9,0,1.7,0.8,1.6,1.7c0,0.1,0,0.1,0,0.2V38h-2.6
	c0,0.6,0.5,1,1.1,0.9c0,0,0,0,0,0c0.4,0,0.7-0.1,1-0.4l0.3,0.5c-0.4,0.3-0.9,0.5-1.4,0.5c-0.9,0-1.7-0.7-1.8-1.6
	C189.3,37.9,189.3,37.8,189.3,37.8z M191.1,36.6c-0.5,0-1,0.3-1,0.8c0,0,0,0,0,0.1h1.9C191.9,37,191.5,36.6,191.1,36.6L191.1,36.6z"
	/>
<path class="st1" d="M197.9,39.5v-2.2c0-0.4-0.2-0.6-0.6-0.6c-0.3,0-0.6,0.2-0.8,0.5v2.4h-0.7v-2.2c0-0.4-0.1-0.6-0.6-0.6
	c-0.3,0-0.6,0.2-0.8,0.5v2.4h-0.7v-3.4h0.7v0.5c0.3-0.4,0.7-0.6,1.2-0.6c0.4,0,0.8,0.2,0.9,0.6c0.2-0.4,0.6-0.6,1.1-0.6
	c0.5-0.1,0.9,0.3,1,0.8c0,0.1,0,0.2,0,0.2v2.4L197.9,39.5z"/>
<path class="st1" d="M200.2,36.6l-0.3-0.3c0.2-0.1,0.4-0.4,0.5-0.7h-0.1c-0.2,0-0.4-0.2-0.4-0.4c0,0,0,0,0,0c0-0.3,0.2-0.5,0.5-0.5
	c0.3,0,0.6,0.3,0.5,0.6c0,0,0,0,0,0C200.8,35.9,200.6,36.3,200.2,36.6z M201.5,36.6l-0.3-0.3c0.2-0.1,0.4-0.4,0.5-0.7h-0.1
	c-0.2,0-0.4-0.2-0.4-0.4c0,0,0,0,0,0c0-0.3,0.2-0.5,0.5-0.5c0.3,0,0.6,0.3,0.5,0.6c0,0,0,0,0,0C202.1,35.9,201.9,36.3,201.5,36.6z"
	/>
<path class="st1" d="M117.4,47.9v-0.5c-0.3,0.3-0.7,0.5-1.1,0.5c-0.9,0-1.5-0.7-1.5-1.8c-0.1-0.9,0.5-1.6,1.3-1.8c0.1,0,0.1,0,0.2,0
	c0.4,0,0.8,0.2,1.1,0.5v-1.8h0.7v4.7H117.4z M117.4,46.9v-1.4c-0.2-0.3-0.5-0.4-0.9-0.5c-0.6,0.1-1,0.7-0.9,1.3
	c0.1,0.5,0.5,0.9,0.9,0.9C116.9,47.3,117.2,47.2,117.4,46.9L117.4,46.9z"/>
<path class="st1" d="M121.5,47.9v-0.4c-0.3,0.3-0.7,0.5-1.1,0.5c-0.6,0-1.1-0.5-1.2-1.1c0,0,0,0,0,0c0-0.6,0.4-1.1,1-1.1
	c0,0,0.1,0,0.1,0c0.4,0,0.8,0.1,1.1,0.4v-0.5c0-0.4-0.3-0.6-0.8-0.6c-0.4,0-0.7,0.2-1,0.4l-0.3-0.5c0.4-0.4,0.9-0.6,1.4-0.5
	c0.8,0,1.4,0.3,1.4,1.2v2.2L121.5,47.9z M121.5,47.1v-0.5c-0.2-0.2-0.5-0.4-0.8-0.3c-0.4,0-0.7,0.2-0.7,0.6c0,0,0,0,0,0
	c0,0.4,0.3,0.6,0.7,0.6c0,0,0,0,0,0C121,47.5,121.3,47.4,121.5,47.1z"/>
<path class="st1" d="M123.7,47.1v-2h-0.6v-0.6h0.6v-0.9h0.7v0.9h0.7v0.6h-0.7v1.8c0,0.2,0.1,0.4,0.3,0.4c0.1,0,0.2,0,0.3-0.1
	l0.2,0.6c-0.2,0.2-0.4,0.2-0.7,0.2c-0.4,0.1-0.8-0.3-0.9-0.7C123.7,47.2,123.7,47.1,123.7,47.1z"/>
<path class="st1" d="M128.2,47.9v-0.4c-0.3,0.3-0.7,0.5-1.1,0.5c-0.6,0-1.1-0.5-1.2-1.1c0,0,0,0,0,0c0-0.6,0.5-1.1,1.1-1.1
	c0,0,0.1,0,0.1,0c0.4,0,0.8,0.1,1.1,0.4v-0.5c0-0.4-0.3-0.6-0.8-0.6c-0.4,0-0.7,0.2-1,0.4l-0.3-0.5c0.4-0.4,0.9-0.6,1.4-0.5
	c0.8,0,1.4,0.3,1.4,1.2v2.2L128.2,47.9z M128.2,47.1v-0.5c-0.2-0.2-0.5-0.4-0.8-0.3c-0.4,0-0.7,0.2-0.7,0.6c0,0,0,0,0,0
	c0,0.4,0.3,0.6,0.7,0.6c0,0,0,0,0.1,0C127.7,47.5,128,47.4,128.2,47.1z"/>
<path class="st1" d="M130,46.5v-0.6h1.7v0.6H130z"/>
<path class="st1" d="M132.7,43.6c0-0.3,0.3-0.4,0.5-0.4c0.2,0,0.4,0.2,0.4,0.4c0,0.3-0.1,0.5-0.4,0.5s-0.5-0.1-0.5-0.4
	C132.7,43.7,132.7,43.7,132.7,43.6z M132.8,47.9v-3.4h0.7v3.4H132.8z"/>
<path class="st1" d="M134.9,47.1v-2h-0.6v-0.6h0.6v-0.9h0.8v0.9h0.7v0.6h-0.7v1.8c0,0.2,0.1,0.4,0.3,0.4c0.1,0,0.2,0,0.3-0.1
	l0.2,0.6c-0.2,0.2-0.4,0.2-0.7,0.2c-0.4,0.1-0.8-0.2-0.9-0.6C134.9,47.2,134.9,47.2,134.9,47.1z"/>
<path class="st1" d="M137.1,46.2c0-0.9,0.7-1.7,1.6-1.8c0,0,0,0,0.1,0c0.9,0,1.7,0.7,1.7,1.7c0,0.1,0,0.1,0,0.2v0.2h-2.6
	c0,0.6,0.5,1,1.1,0.9c0,0,0,0,0,0c0.4,0,0.7-0.1,1-0.4l0.3,0.5c-0.4,0.3-0.9,0.5-1.4,0.5c-0.9,0.1-1.7-0.7-1.8-1.6
	C137.1,46.3,137.1,46.3,137.1,46.2z M138.8,45c-0.5,0-0.9,0.4-0.9,0.9h1.9C139.8,45.4,139.4,45,138.8,45C138.9,45,138.9,45,138.8,45
	z"/>
<path class="st1" d="M145.7,47.9v-2.2c0-0.4-0.2-0.6-0.6-0.6c-0.3,0-0.6,0.2-0.8,0.5v2.4h-0.7v-2.2c0-0.4-0.2-0.6-0.6-0.6
	c-0.3,0-0.6,0.2-0.8,0.5v2.4h-0.7v-3.4h0.7V45c0.3-0.3,0.7-0.5,1.1-0.5c0.4,0,0.8,0.2,0.9,0.6c0.3-0.4,0.7-0.6,1.1-0.6
	c0.5-0.1,0.9,0.3,1,0.8c0,0.1,0,0.2,0,0.2v2.4L145.7,47.9z"/>
<path class="st1" d="M147.5,46.5v-0.6h1.7v0.6H147.5z"/>
<path class="st1" d="M150.1,43.6c0-0.2,0.2-0.5,0.4-0.5c0.3,0,0.5,0.2,0.5,0.5c0,0.3-0.2,0.5-0.5,0.5
	C150.3,44.1,150.1,43.9,150.1,43.6z M150.2,47.9v-3.4h0.7v3.4H150.2z"/>
<path class="st1" d="M154.7,47.9v-0.5c-0.3,0.3-0.7,0.5-1.1,0.5c-0.9,0-1.5-0.7-1.5-1.8s0.6-1.8,1.5-1.8c0.4,0,0.8,0.2,1.1,0.6v-1.8
	h0.7v4.7H154.7z M154.7,46.9v-1.4c-0.2-0.3-0.5-0.4-0.9-0.5c-0.6,0.1-1,0.7-0.9,1.3c0.1,0.5,0.5,0.9,0.9,0.9
	C154.2,47.3,154.5,47.2,154.7,46.9L154.7,46.9z"/>
<path class="st1" d="M156.4,45.1v-0.5h3.1v0.5H156.4z M156.4,46.5V46h3.1v0.5L156.4,46.5z"/>
<path class="st1" d="M160.8,45l-0.3-0.3c0.2-0.1,0.4-0.4,0.5-0.7h-0.1c-0.2,0-0.4-0.2-0.4-0.4c0,0,0,0,0,0c0-0.3,0.2-0.5,0.5-0.5
	c0.3,0,0.6,0.3,0.5,0.6c0,0,0,0,0,0C161.4,44.3,161.2,44.7,160.8,45z M162.1,45l-0.3-0.3c0.2-0.1,0.4-0.4,0.5-0.7h-0.1
	c-0.2,0-0.4-0.2-0.4-0.4c0,0,0,0,0,0c0-0.3,0.2-0.5,0.5-0.5c0.3,0,0.6,0.3,0.5,0.6c0,0,0,0,0,0C162.7,44.3,162.5,44.7,162.1,45
	L162.1,45z"/>
<path class="st1" d="M163.8,47.9v-0.7c1.8-1.4,2.5-2,2.5-2.7c0-0.4-0.4-0.7-0.8-0.7c0,0,0,0-0.1,0c-0.5,0-0.9,0.2-1.3,0.5l-0.5-0.5
	c0.4-0.5,1.1-0.8,1.7-0.8c0.8-0.1,1.6,0.5,1.7,1.3c0,0,0,0.1,0,0.1c0,0.9-0.8,1.6-2,2.6h2.1v0.7H163.8z"/>
<path class="st1" d="M168.7,45l-0.3-0.3c0.2-0.1,0.4-0.4,0.5-0.7h-0.2c-0.2,0-0.4-0.2-0.4-0.4c0,0,0,0,0,0c0-0.3,0.2-0.5,0.5-0.5
	c0.3,0,0.6,0.3,0.6,0.6c0,0,0,0,0,0.1C169.3,44.3,169.1,44.7,168.7,45z M170,45l-0.3-0.3c0.2-0.1,0.4-0.4,0.5-0.7H170
	c-0.2,0-0.4-0.2-0.4-0.4c0,0,0,0,0,0c0-0.3,0.2-0.5,0.5-0.5c0.3,0,0.6,0.3,0.5,0.6c0,0,0,0,0,0C170.6,44.3,170.4,44.7,170,45L170,45
	z"/>
<path class="st1" d="M117.4,56.3v-0.5c-0.3,0.3-0.7,0.5-1.1,0.5c-0.9,0-1.5-0.7-1.5-1.8c-0.1-0.9,0.5-1.6,1.3-1.8c0.1,0,0.1,0,0.2,0
	c0.4,0,0.8,0.2,1.1,0.5v-1.8h0.7v4.7H117.4z M117.4,55.3v-1.4c-0.2-0.3-0.5-0.4-0.9-0.5c-0.6,0.1-1,0.7-0.9,1.3
	c0.1,0.5,0.5,0.9,0.9,0.9C116.9,55.7,117.2,55.6,117.4,55.3L117.4,55.3z"/>
<path class="st1" d="M121.5,56.3v-0.4c-0.3,0.3-0.7,0.5-1.1,0.5c-0.6,0-1.1-0.5-1.2-1.1c0,0,0,0,0,0c0-0.6,0.4-1.1,1-1.1
	c0,0,0.1,0,0.1,0c0.4,0,0.8,0.1,1.1,0.4v-0.5c0-0.4-0.3-0.6-0.8-0.6c-0.4,0-0.7,0.2-1,0.4l-0.3-0.5c0.4-0.4,0.9-0.6,1.4-0.5
	c0.8,0,1.4,0.3,1.4,1.2v2.2L121.5,56.3z M121.5,55.5V55c-0.2-0.2-0.5-0.4-0.8-0.3c-0.3-0.1-0.7,0.1-0.7,0.5
	c-0.1,0.3,0.1,0.7,0.5,0.7c0.1,0,0.2,0,0.3,0C121,55.9,121.3,55.8,121.5,55.5z"/>
<path class="st1" d="M123.7,55.5v-2h-0.6v-0.6h0.6V52h0.7v0.9h0.7v0.6h-0.7v1.8c0,0.2,0.1,0.4,0.3,0.4c0.1,0,0.2,0,0.3-0.1l0.2,0.6
	c-0.2,0.2-0.4,0.2-0.7,0.2c-0.4,0.1-0.8-0.2-0.9-0.7C123.7,55.6,123.7,55.6,123.7,55.5z"/>
<path class="st1" d="M128.2,56.3v-0.4c-0.3,0.3-0.7,0.5-1.1,0.5c-0.6,0-1.1-0.5-1.2-1.1c0,0,0,0,0,0c0-0.6,0.5-1.1,1.1-1.1
	c0,0,0.1,0,0.1,0c0.4,0,0.8,0.1,1.1,0.4v-0.5c0-0.4-0.3-0.6-0.8-0.6c-0.4,0-0.7,0.2-1,0.4l-0.3-0.5c0.4-0.4,0.9-0.6,1.4-0.5
	c0.8,0,1.4,0.3,1.4,1.2v2.2L128.2,56.3z M128.2,55.5V55c-0.2-0.2-0.5-0.4-0.8-0.3c-0.3,0-0.6,0.2-0.7,0.5c0,0.3,0.2,0.6,0.5,0.7
	c0.1,0,0.1,0,0.2,0C127.7,55.9,128,55.8,128.2,55.5z"/>
<path class="st1" d="M130,54.9v-0.6h1.7v0.6H130z"/>
<path class="st1" d="M132.7,52c0-0.3,0.3-0.4,0.5-0.4c0.2,0,0.4,0.2,0.4,0.4c0,0.3-0.1,0.5-0.4,0.5s-0.5-0.1-0.5-0.4
	C132.7,52.1,132.7,52,132.7,52z M132.8,56.2v-3.3h0.7v3.4L132.8,56.2z"/>
<path class="st1" d="M134.9,55.5v-2h-0.6v-0.6h0.6V52h0.8v0.9h0.7v0.6h-0.7v1.8c0,0.2,0.1,0.4,0.3,0.4c0.1,0,0.2,0,0.3-0.1l0.2,0.6
	c-0.2,0.2-0.4,0.2-0.7,0.2c-0.4,0.1-0.8-0.2-0.9-0.6C134.9,55.7,134.9,55.6,134.9,55.5z"/>
<path class="st1" d="M137.1,54.6c0-0.9,0.7-1.7,1.6-1.8c0,0,0,0,0.1,0c0.9,0,1.7,0.7,1.7,1.7c0,0.1,0,0.1,0,0.2v0.2h-2.6
	c0,0.6,0.5,1,1.1,0.9c0,0,0,0,0,0c0.4,0,0.7-0.1,1-0.4l0.3,0.5c-0.4,0.3-0.9,0.5-1.4,0.5c-0.9,0.1-1.7-0.7-1.8-1.6
	C137.1,54.7,137.1,54.7,137.1,54.6z M138.8,53.4c-0.5,0-0.9,0.4-0.9,0.9h1.9C139.8,53.8,139.4,53.4,138.8,53.4
	C138.9,53.4,138.9,53.4,138.8,53.4z"/>
<path class="st1" d="M145.7,56.3v-2.2c0-0.4-0.2-0.6-0.6-0.6c-0.3,0-0.6,0.2-0.8,0.5v2.4h-0.7v-2.2c0-0.4-0.2-0.6-0.6-0.6
	c-0.3,0-0.6,0.2-0.8,0.5v2.4h-0.7v-3.4h0.7v0.5c0.3-0.3,0.7-0.5,1.1-0.5c0.4,0,0.8,0.2,0.9,0.6c0.3-0.4,0.7-0.6,1.1-0.6
	c0.5-0.1,0.9,0.3,1,0.8c0,0.1,0,0.2,0,0.2v2.4L145.7,56.3z"/>
<path class="st1" d="M147.5,54.9v-0.6h1.7v0.6H147.5z"/>
<path class="st1" d="M152.5,56.3v-2.1c0-0.5-0.3-0.7-0.7-0.7c-0.3,0-0.7,0.2-0.9,0.5v2.4h-0.7v-3.4h0.7v0.5c0.3-0.3,0.7-0.5,1.2-0.5
	c0.5-0.1,1,0.3,1.1,0.9c0,0.1,0,0.1,0,0.2v2.4H152.5z"/>
<path class="st1" d="M156.6,56.3v-0.4c-0.3,0.3-0.7,0.5-1.1,0.5c-0.6,0-1.1-0.5-1.2-1.1c0,0,0,0,0,0c0-0.6,0.5-1.1,1.1-1.1
	c0,0,0.1,0,0.1,0c0.4,0,0.8,0.1,1.1,0.4v-0.5c0-0.4-0.3-0.6-0.8-0.6c-0.4,0-0.7,0.2-1,0.4l-0.3-0.5c0.4-0.4,0.9-0.6,1.4-0.5
	c0.8,0,1.4,0.3,1.4,1.2v2.2L156.6,56.3z M156.6,55.5V55c-0.2-0.2-0.5-0.4-0.8-0.3c-0.4,0-0.7,0.2-0.7,0.6s0.3,0.6,0.7,0.6
	C156.1,55.9,156.4,55.8,156.6,55.5z"/>
<path class="st1" d="M162.8,56.3v-2.2c0-0.4-0.2-0.6-0.6-0.6c-0.3,0-0.6,0.2-0.8,0.5v2.4h-0.7v-2.2c0-0.4-0.1-0.6-0.6-0.6
	c-0.3,0-0.6,0.2-0.8,0.5v2.4h-0.7v-3.4h0.7v0.5c0.3-0.3,0.7-0.5,1.1-0.5c0.4,0,0.8,0.2,0.9,0.6c0.3-0.4,0.7-0.6,1.1-0.6
	c0.5-0.1,0.9,0.3,1,0.8c0,0.1,0,0.2,0,0.2v2.4L162.8,56.3z"/>
<path class="st1" d="M164.7,54.6c0-0.9,0.7-1.7,1.6-1.8c0,0,0,0,0.1,0c0.9,0,1.7,0.7,1.7,1.7c0,0.1,0,0.1,0,0.2v0.2h-2.6
	c0,0.6,0.5,1,1.1,0.9c0,0,0,0,0,0c0.4,0,0.7-0.1,1-0.4l0.3,0.5c-0.4,0.3-0.9,0.5-1.4,0.5c-0.9,0.1-1.7-0.7-1.8-1.6
	C164.7,54.7,164.7,54.7,164.7,54.6z M166.4,53.4c-0.5,0-0.9,0.4-0.9,0.9h1.9C167.3,53.8,166.9,53.4,166.4,53.4
	C166.4,53.4,166.4,53.4,166.4,53.4L166.4,53.4z"/>
<path class="st1" d="M168.8,53.5V53h3.1v0.5H168.8z M168.8,54.9v-0.5h3.1v0.5H168.8z"/>
<path class="st1" d="M175.6,51.5l0.3,0.3c-0.2,0.1-0.4,0.4-0.5,0.7h0.1c0.2,0,0.4,0.2,0.4,0.4c0,0,0,0,0,0c0,0.3-0.2,0.5-0.5,0.5
	c-0.3,0-0.6-0.3-0.6-0.6c0,0,0,0,0-0.1C175,52.3,175.2,51.8,175.6,51.5z M176.9,51.5l0.3,0.3c-0.2,0.2-0.4,0.4-0.5,0.7h0.1
	c0.2,0,0.4,0.2,0.4,0.4c0,0,0,0,0,0c0,0.3-0.2,0.5-0.5,0.5c-0.3,0-0.6-0.3-0.6-0.6c0,0,0,0,0-0.1C176.3,52.3,176.5,51.8,176.9,51.5z
	"/>
<path class="st1" d="M178.2,55.6l0.5-0.6c0.4,0.4,0.9,0.6,1.5,0.7c0.7,0,0.9-0.3,0.9-0.7c0-1-2.7-0.4-2.7-2.1c0-0.8,0.7-1.4,1.7-1.4
	c0.6,0,1.3,0.2,1.7,0.7l-0.5,0.6c-0.4-0.4-0.9-0.5-1.4-0.5c-0.5,0-0.8,0.2-0.8,0.6c0,0.9,2.7,0.3,2.7,2.1c0,0.8-0.6,1.5-1.8,1.5
	C179.4,56.4,178.7,56.1,178.2,55.6z"/>
<path class="st1" d="M185.3,56.3v-2.1c0-0.5-0.3-0.7-0.7-0.7c-0.3,0-0.7,0.2-0.9,0.5v2.4H183v-4.7h0.7v1.8c0.3-0.3,0.7-0.5,1.2-0.5
	c0.5-0.1,1,0.3,1.1,0.9c0,0.1,0,0.1,0,0.2v2.4L185.3,56.3z"/>
<path class="st1" d="M187.2,52c0-0.3,0.2-0.5,0.5-0.5c0.2,0,0.4,0.2,0.4,0.5c0,0.3-0.2,0.5-0.4,0.5C187.4,52.5,187.2,52.3,187.2,52z
	 M187.3,56.2v-3.3h0.7v3.4L187.3,56.2z"/>
<path class="st1" d="M189.3,56.3v-3.4h0.7v0.5c0.3-0.3,0.7-0.6,1.1-0.6v0.7c-0.1,0-0.2,0-0.2,0c-0.3,0-0.7,0.2-0.9,0.5v2.3
	L189.3,56.3z"/>
<path class="st1" d="M192.3,55.5v-2h-0.6v-0.6h0.6V52h0.7v0.9h0.7v0.6H193v1.8c0,0.2,0.1,0.4,0.3,0.4c0.1,0,0.2,0,0.3-0.1l0.2,0.6
	c-0.2,0.2-0.4,0.2-0.7,0.2c-0.4,0-0.8-0.3-0.9-0.7C192.3,55.6,192.3,55.6,192.3,55.5z"/>
<path class="st1" d="M195,53.4l-0.3-0.3c0.2-0.1,0.4-0.4,0.5-0.7H195c-0.2,0-0.4-0.2-0.4-0.4c0,0,0,0,0,0c0-0.3,0.2-0.5,0.5-0.5
	c0.3,0,0.6,0.3,0.5,0.6c0,0,0,0,0,0C195.6,52.7,195.4,53.1,195,53.4z M196.3,53.4l-0.3-0.3c0.2-0.1,0.4-0.4,0.5-0.7h-0.1
	c-0.2,0-0.4-0.2-0.4-0.4c0,0,0,0,0,0c0-0.3,0.2-0.5,0.5-0.5c0.3,0,0.6,0.3,0.5,0.6c0,0,0,0,0,0C196.9,52.7,196.7,53.1,196.3,53.4z"
	/>
<path class="st1" d="M117.4,64.7v-0.5c-0.3,0.3-0.7,0.5-1.1,0.6c-0.9,0-1.5-0.7-1.5-1.8c-0.1-0.9,0.5-1.6,1.3-1.8c0.1,0,0.1,0,0.2,0
	c0.4,0,0.8,0.2,1.1,0.5V60h0.7v4.7L117.4,64.7z M117.4,63.7v-1.4c-0.2-0.3-0.5-0.4-0.9-0.5c-0.6,0.1-1,0.7-0.9,1.3
	c0.1,0.5,0.5,0.9,0.9,0.9C116.9,64.1,117.2,64,117.4,63.7L117.4,63.7z"/>
<path class="st1" d="M121.5,64.7v-0.4c-0.3,0.3-0.7,0.5-1.1,0.5c-0.6,0-1.1-0.5-1.2-1.1c0,0,0,0,0,0c0-0.6,0.4-1.1,1-1.1
	c0,0,0.1,0,0.1,0c0.4,0,0.8,0.1,1.1,0.4v-0.5c0-0.4-0.3-0.6-0.8-0.6c-0.4,0-0.7,0.2-1,0.4l-0.3-0.5c0.4-0.4,0.9-0.6,1.4-0.5
	c0.8,0,1.4,0.3,1.4,1.2v2.2H121.5z M121.5,63.9v-0.5c-0.2-0.2-0.5-0.4-0.8-0.3c-0.4,0-0.7,0.2-0.7,0.6c0,0,0,0,0,0
	c0,0.4,0.3,0.6,0.7,0.6c0,0,0,0,0,0C121,64.3,121.3,64.2,121.5,63.9z"/>
<path class="st1" d="M123.7,63.9V62h-0.6v-0.6h0.6v-0.9h0.7v0.9h0.7V62h-0.7v1.8c0,0.2,0.1,0.4,0.3,0.4c0.1,0,0.2,0,0.3-0.1l0.2,0.6
	c-0.2,0.2-0.4,0.2-0.7,0.2c-0.4,0.1-0.8-0.2-0.9-0.7C123.7,64.1,123.7,64,123.7,63.9z"/>
<path class="st1" d="M128.2,64.7v-0.4c-0.3,0.3-0.7,0.5-1.1,0.5c-0.6,0-1.1-0.5-1.2-1.1c0,0,0,0,0,0c0-0.6,0.5-1.1,1.1-1.1
	c0,0,0.1,0,0.1,0c0.4,0,0.8,0.1,1.1,0.4v-0.5c0-0.4-0.3-0.6-0.8-0.6c-0.4,0-0.7,0.2-1,0.4l-0.3-0.5c0.4-0.4,0.9-0.6,1.4-0.5
	c0.8,0,1.4,0.3,1.4,1.2v2.2H128.2z M128.2,63.9v-0.5c-0.2-0.2-0.5-0.4-0.8-0.3c-0.4,0-0.7,0.2-0.7,0.6c0,0,0,0,0,0
	c0,0.4,0.3,0.6,0.7,0.6c0,0,0,0,0.1,0C127.7,64.3,128,64.2,128.2,63.9z"/>
<path class="st1" d="M130,63.3v-0.6h1.7v0.6H130z"/>
<path class="st1" d="M132.7,60.4c0-0.3,0.3-0.4,0.5-0.4c0.2,0,0.4,0.2,0.4,0.4c0,0.3-0.1,0.5-0.4,0.5s-0.5-0.1-0.5-0.4
	C132.7,60.5,132.7,60.5,132.7,60.4z M132.8,64.7v-3.4h0.7v3.4H132.8z"/>
<path class="st1" d="M134.9,63.9V62h-0.6v-0.6h0.6v-0.9h0.8v0.9h0.7V62h-0.7v1.8c0,0.2,0.1,0.4,0.3,0.4c0.1,0,0.2,0,0.3-0.1l0.2,0.6
	c-0.2,0.2-0.4,0.2-0.7,0.2c-0.4,0.1-0.8-0.2-0.9-0.6C134.9,64.1,134.9,64,134.9,63.9z"/>
<path class="st1" d="M137.1,63c0-0.9,0.7-1.7,1.6-1.8c0,0,0,0,0.1,0c0.9,0,1.7,0.7,1.7,1.7c0,0.1,0,0.1,0,0.2v0.2h-2.6
	c0,0.6,0.5,1,1.1,0.9c0,0,0,0,0,0c0.4,0,0.7-0.1,1-0.4l0.3,0.5c-0.4,0.3-0.9,0.5-1.4,0.5c-0.9,0.1-1.7-0.7-1.8-1.6
	C137.1,63.1,137.1,63.1,137.1,63z M138.8,61.8c-0.5,0-0.9,0.4-0.9,0.9h1.9C139.8,62.2,139.4,61.8,138.8,61.8
	C138.9,61.8,138.9,61.8,138.8,61.8z"/>
<path class="st1" d="M145.7,64.7v-2.2c0-0.4-0.2-0.6-0.6-0.6c-0.3,0-0.6,0.2-0.8,0.5v2.4h-0.7v-2.2c0-0.4-0.2-0.6-0.6-0.6
	c-0.3,0-0.6,0.2-0.8,0.5v2.4h-0.7v-3.4h0.7v0.5c0.3-0.3,0.7-0.5,1.1-0.5c0.4,0,0.8,0.2,0.9,0.6c0.3-0.4,0.7-0.6,1.1-0.6
	c0.5-0.1,0.9,0.3,1,0.8c0,0.1,0,0.2,0,0.2v2.4L145.7,64.7z"/>
<path class="st1" d="M147.5,63.3v-0.6h1.7v0.6H147.5z"/>
<path class="st1" d="M151,64.2V66h-0.7v-4.7h0.7v0.5c0.3-0.3,0.7-0.5,1.1-0.5c0.9,0,1.5,0.7,1.5,1.8c0,1.1-0.6,1.8-1.5,1.8
	C151.6,64.8,151.2,64.6,151,64.2z M152.8,63c0-0.7-0.4-1.1-0.9-1.1c-0.3,0-0.7,0.2-0.9,0.5v1.3c0.2,0.3,0.5,0.5,0.9,0.5
	C152.4,64.1,152.8,63.7,152.8,63z"/>
<path class="st1" d="M154.6,64.7v-3.4h0.7v0.5c0.3-0.3,0.7-0.5,1.1-0.6V62c-0.1,0-0.1,0-0.2,0c-0.3,0-0.7,0.2-0.9,0.5v2.3
	L154.6,64.7z"/>
<path class="st1" d="M157.3,60.4c0-0.3,0.3-0.4,0.5-0.4c0.2,0,0.4,0.2,0.4,0.4c0,0.3-0.1,0.5-0.4,0.5s-0.5-0.1-0.5-0.4
	C157.3,60.5,157.3,60.5,157.3,60.4z M157.4,64.7v-3.4h0.7v3.4H157.4z"/>
<path class="st1" d="M159.2,63c0-0.9,0.7-1.7,1.6-1.8c0,0,0.1,0,0.1,0c0.5,0,1,0.2,1.3,0.6l-0.5,0.4c-0.2-0.3-0.5-0.4-0.8-0.4
	c-0.6,0.1-1.1,0.6-1,1.2c0.1,0.5,0.5,1,1,1c0.3,0,0.6-0.1,0.8-0.4l0.5,0.5c-0.3,0.4-0.8,0.6-1.3,0.6c-0.9,0-1.7-0.7-1.7-1.7
	C159.2,63.1,159.2,63,159.2,63z"/>
<path class="st1" d="M163.1,63c0-0.9,0.7-1.7,1.6-1.8c0,0,0,0,0.1,0c0.9,0,1.7,0.7,1.7,1.7c0,0.1,0,0.1,0,0.2v0.2h-2.6
	c0,0.6,0.5,1,1.1,0.9c0,0,0,0,0,0c0.4,0,0.7-0.1,1-0.4l0.3,0.5c-0.4,0.3-0.9,0.5-1.4,0.5c-0.9,0.1-1.7-0.7-1.8-1.6
	C163.1,63.1,163.1,63.1,163.1,63z M164.8,61.8c-0.5,0-0.9,0.4-0.9,0.9h1.9C165.7,62.2,165.3,61.8,164.8,61.8
	C164.8,61.8,164.8,61.8,164.8,61.8z"/>
<path class="st1" d="M167.2,61.9v-0.5h3.1v0.5H167.2z M167.2,63.3v-0.5h3.1v0.5H167.2z"/>
<path class="st1" d="M171.7,61.8l-0.3-0.3c0.2-0.1,0.4-0.4,0.5-0.7h-0.2c-0.2,0-0.4-0.2-0.4-0.4c0,0,0,0,0,0c0-0.3,0.2-0.5,0.5-0.5
	c0.3,0,0.6,0.3,0.5,0.6c0,0,0,0,0,0C172.3,61.1,172.1,61.5,171.7,61.8z M173,61.8l-0.3-0.3c0.2-0.1,0.4-0.4,0.5-0.7H173
	c-0.2,0-0.4-0.2-0.4-0.4c0,0,0,0,0,0c0-0.3,0.2-0.5,0.5-0.5c0.3,0,0.6,0.3,0.5,0.6c0,0,0,0,0,0C173.6,61.1,173.4,61.5,173,61.8
	L173,61.8z"/>
<path class="st1" d="M175.6,64.7v-3.6l-0.8,0.8l-0.5-0.5l1.3-1.4h0.7v4.7L175.6,64.7z"/>
<path class="st1" d="M177.7,64.1l0.5-0.6c0.3,0.4,0.8,0.6,1.3,0.6c0.5,0.1,0.9-0.2,1-0.7c0,0,0-0.1,0-0.1c0-0.5-0.4-0.8-0.8-0.8
	c0,0-0.1,0-0.1,0c-0.4,0-0.7,0.1-1,0.4l-0.6-0.2V60h3.1v0.7h-2.3v1.3c0.3-0.3,0.7-0.4,1.1-0.4c0.8,0,1.5,0.6,1.5,1.4
	c0,0,0,0.1,0,0.1c0,0.9-0.7,1.6-1.6,1.6c-0.1,0-0.1,0-0.2,0C178.8,64.8,178.1,64.6,177.7,64.1z"/>
<path class="st1" d="M182.6,61.8l-0.3-0.3c0.2-0.1,0.4-0.4,0.5-0.7h-0.1c-0.2,0-0.4-0.2-0.4-0.4c0,0,0,0,0,0c0-0.2,0.2-0.4,0.5-0.4
	c0.3,0,0.6,0.3,0.5,0.6c0,0,0,0,0,0C183.2,61.1,183,61.5,182.6,61.8z M183.9,61.8l-0.3-0.3c0.2-0.1,0.4-0.4,0.5-0.7h-0.1
	c-0.2,0-0.4-0.2-0.4-0.4c0,0,0,0,0,0c0-0.3,0.2-0.5,0.5-0.5c0.3,0,0.6,0.3,0.5,0.6c0,0,0,0,0,0C184.5,61.1,184.3,61.5,183.9,61.8z"
	/>
<path class="st1" d="M117.4,73.1v-0.5c-0.3,0.3-0.7,0.5-1.1,0.6c-0.9,0-1.5-0.7-1.5-1.8c-0.1-0.9,0.5-1.6,1.3-1.8c0.1,0,0.1,0,0.2,0
	c0.4,0,0.8,0.2,1.1,0.6v-1.8h0.7v4.7H117.4z M117.4,72.1v-1.4c-0.2-0.3-0.5-0.4-0.9-0.4c-0.6,0.1-1,0.7-0.9,1.3
	c0.1,0.5,0.5,0.9,0.9,0.9C116.9,72.5,117.2,72.4,117.4,72.1L117.4,72.1z"/>
<path class="st1" d="M121.5,73.1v-0.4c-0.3,0.3-0.7,0.5-1.1,0.5c-0.6,0-1.1-0.5-1.2-1.1c0,0,0,0,0,0c0-0.6,0.5-1.1,1.1-1.1
	c0,0,0,0,0.1,0c0.4,0,0.8,0.1,1.1,0.4v-0.5c0-0.4-0.3-0.6-0.8-0.6c-0.4,0-0.7,0.2-1,0.4l-0.3-0.5c0.4-0.4,0.9-0.6,1.4-0.5
	c0.8,0,1.4,0.3,1.4,1.2v2.2L121.5,73.1z M121.5,72.3v-0.5c-0.2-0.2-0.5-0.4-0.8-0.3c-0.3-0.1-0.7,0.1-0.7,0.5
	c-0.1,0.3,0.1,0.7,0.5,0.7c0.1,0,0.2,0,0.3,0C121,72.7,121.3,72.6,121.5,72.3z"/>
<path class="st1" d="M123.7,72.3v-2h-0.6v-0.6h0.6v-0.9h0.7v0.9h0.7v0.6h-0.7v1.8c0,0.2,0.1,0.4,0.3,0.4c0.1,0,0.2,0,0.3-0.1
	l0.2,0.6c-0.2,0.2-0.4,0.2-0.7,0.2c-0.4,0.1-0.8-0.3-0.9-0.7C123.7,72.4,123.7,72.3,123.7,72.3z"/>
<path class="st1" d="M128.2,73.1v-0.4c-0.3,0.3-0.7,0.5-1.1,0.5c-0.6,0-1.1-0.5-1.2-1.1c0,0,0,0,0,0c0-0.6,0.5-1.1,1.1-1.1
	c0,0,0,0,0.1,0c0.4,0,0.8,0.1,1.1,0.4v-0.5c0-0.4-0.3-0.6-0.8-0.6c-0.4,0-0.7,0.2-1,0.4l-0.3-0.5c0.4-0.4,0.9-0.6,1.4-0.5
	c0.8,0,1.4,0.3,1.4,1.2v2.2L128.2,73.1z M128.2,72.3v-0.5c-0.2-0.2-0.5-0.4-0.8-0.3c-0.3,0-0.6,0.2-0.7,0.5c0,0.3,0.2,0.6,0.5,0.7
	c0.1,0,0.1,0,0.2,0C127.7,72.7,128,72.6,128.2,72.3z"/>
<path class="st1" d="M130,71.7v-0.6h1.7v0.6H130z"/>
<path class="st1" d="M132.7,68.8c0-0.3,0.3-0.4,0.5-0.4c0.2,0,0.4,0.2,0.4,0.4c0,0.3-0.1,0.5-0.4,0.5s-0.5-0.1-0.5-0.4
	C132.7,68.9,132.7,68.9,132.7,68.8z M132.8,73.1v-3.4h0.7v3.4H132.8z"/>
<path class="st1" d="M134.9,72.3v-2h-0.6v-0.6h0.6v-0.9h0.8v0.9h0.7v0.6h-0.7v1.8c0,0.2,0.1,0.4,0.3,0.4c0.1,0,0.2,0,0.3-0.1
	l0.2,0.6c-0.2,0.2-0.4,0.2-0.7,0.2c-0.4,0.1-0.8-0.2-0.9-0.6C134.9,72.4,134.9,72.4,134.9,72.3z"/>
<path class="st1" d="M137.1,71.4c0-0.9,0.7-1.7,1.6-1.8c0,0,0,0,0.1,0c0.9,0,1.7,0.8,1.7,1.7c0,0.1,0,0.1,0,0.2v0.2h-2.6
	c0,0.6,0.5,1,1.1,0.9c0,0,0,0,0,0c0.4,0,0.7-0.1,1-0.4l0.3,0.5c-0.4,0.3-0.9,0.5-1.4,0.5c-0.9,0.1-1.7-0.7-1.8-1.6
	C137.1,71.5,137.1,71.5,137.1,71.4z M138.8,70.2c-0.5,0-0.9,0.4-0.9,0.9h1.9C139.8,70.6,139.4,70.2,138.8,70.2
	C138.9,70.2,138.9,70.2,138.8,70.2z"/>
<path class="st1" d="M145.7,73.1v-2.2c0-0.4-0.2-0.6-0.6-0.6c-0.3,0-0.6,0.2-0.8,0.4v2.4h-0.7v-2.2c0-0.4-0.2-0.6-0.6-0.6
	c-0.3,0-0.6,0.2-0.8,0.4v2.4h-0.7v-3.4h0.7v0.5c0.3-0.3,0.7-0.5,1.1-0.5c0.4,0,0.8,0.2,0.9,0.6c0.3-0.4,0.7-0.6,1.1-0.6
	c0.5-0.1,0.9,0.3,1,0.8c0,0.1,0,0.2,0,0.2v2.4L145.7,73.1z"/>
<path class="st1" d="M147.5,71.7v-0.6h1.7v0.6H147.5z"/>
<path class="st1" d="M153.2,73.1l-0.8-2.5l-0.8,2.5h-0.8l-1.1-3.4h0.8l0.7,2.5l0.8-2.5h0.6l0.8,2.5l0.7-2.5h0.8l-1,3.4H153.2z"/>
<path class="st1" d="M155.7,71.4c0-0.9,0.7-1.7,1.6-1.8c0,0,0,0,0.1,0c0.9,0,1.7,0.8,1.7,1.7c0,0.1,0,0.1,0,0.2v0.2h-2.6
	c0,0.6,0.5,1,1.1,0.9c0,0,0,0,0,0c0.4,0,0.7-0.1,1-0.4l0.3,0.5c-0.4,0.3-0.9,0.5-1.4,0.5c-0.9,0.1-1.7-0.7-1.8-1.6
	C155.7,71.5,155.7,71.5,155.7,71.4z M157.4,70.2c-0.5,0-0.9,0.4-0.9,0.9h1.9C158.3,70.6,157.9,70.2,157.4,70.2
	C157.4,70.2,157.4,70.2,157.4,70.2L157.4,70.2z"/>
<path class="st1" d="M160,68.8c0-0.3,0.3-0.4,0.5-0.4c0.2,0,0.4,0.2,0.4,0.4c0,0.3-0.1,0.5-0.4,0.5s-0.5-0.1-0.5-0.4
	C160,68.9,160,68.9,160,68.8z M160.1,73.1v-3.4h0.7v3.4H160.1z"/>
<path class="st1" d="M162.1,74l0.3-0.5c0.3,0.3,0.7,0.5,1.1,0.4c0.5,0.1,0.9-0.3,1-0.8c0-0.1,0-0.1,0-0.2v-0.4
	c-0.2,0.4-0.6,0.6-1.1,0.6c-0.9,0-1.5-0.6-1.5-1.7s0.6-1.7,1.5-1.7c0.4,0,0.8,0.2,1.1,0.6v-0.5h0.7V73c0,1.2-0.9,1.6-1.7,1.6
	C163,74.5,162.5,74.4,162.1,74z M164.5,72v-1.3c-0.2-0.3-0.5-0.4-0.9-0.4c-0.6,0.1-1,0.6-0.9,1.2c0.1,0.5,0.4,0.9,0.9,0.9
	C164,72.4,164.3,72.3,164.5,72z"/>
<path class="st1" d="M168.8,73.1V71c0-0.5-0.3-0.7-0.7-0.7c-0.3,0-0.7,0.2-0.9,0.4v2.4h-0.7v-4.7h0.7v1.8c0.3-0.3,0.7-0.5,1.2-0.5
	c0.5-0.1,1,0.4,1.1,0.9c0,0.1,0,0.1,0,0.2v2.4H168.8z"/>
<path class="st1" d="M171,72.3v-2h-0.6v-0.6h0.6v-0.9h0.7v0.9h0.7v0.6h-0.7v1.8c0,0.2,0.1,0.4,0.3,0.4c0.1,0,0.2,0,0.3-0.1l0.2,0.6
	c-0.2,0.2-0.4,0.2-0.7,0.2c-0.4,0.1-0.8-0.3-0.9-0.7C171,72.4,171,72.3,171,72.3z"/>
<path class="st1" d="M173.2,70.3v-0.5h3.1v0.5H173.2z M173.2,71.7v-0.5h3.1v0.5H173.2z"/>
<path class="st1" d="M177.6,70.2l-0.3-0.3c0.2-0.1,0.4-0.4,0.5-0.7h-0.1c-0.2,0-0.4-0.2-0.4-0.4c0,0,0,0,0,0c0-0.3,0.2-0.5,0.5-0.5
	c0.3,0,0.6,0.3,0.5,0.6c0,0,0,0,0,0C178.3,69.5,178,69.9,177.6,70.2z M178.9,70.2l-0.3-0.3c0.2-0.1,0.4-0.4,0.5-0.7h-0.1
	c-0.2,0-0.4-0.2-0.4-0.4c0,0,0,0,0,0c0-0.3,0.2-0.5,0.5-0.5c0.3,0,0.6,0.3,0.5,0.6c0,0,0,0,0,0C179.5,69.5,179.3,69.9,178.9,70.2z"
	/>
<path class="st1" d="M180.6,72.5l0.5-0.6c0.3,0.4,0.8,0.6,1.3,0.6c0.5,0.1,0.9-0.3,1-0.7c0,0,0-0.1,0-0.1c0-0.5-0.4-0.8-0.8-0.8
	c0,0-0.1,0-0.1,0c-0.4,0-0.7,0.1-1,0.4l-0.6-0.2v-2.6h3.1v0.7h-2.3v1.3c0.3-0.3,0.6-0.4,1-0.4c0.8,0,1.5,0.6,1.5,1.4
	c0,0,0,0.1,0,0.1c0,0.9-0.7,1.6-1.6,1.6c-0.1,0-0.1,0-0.2,0C181.7,73.2,181,72.9,180.6,72.5z"/>
<path class="st1" d="M185.5,70.2l-0.3-0.3c0.2-0.1,0.4-0.4,0.5-0.7h-0.1c-0.2,0-0.4-0.2-0.4-0.4c0,0,0,0,0,0c0-0.3,0.2-0.5,0.5-0.5
	c0.3,0,0.6,0.3,0.5,0.6c0,0,0,0,0,0C186.1,69.5,185.9,69.9,185.5,70.2z M186.8,70.2l-0.3-0.3c0.2-0.1,0.4-0.4,0.5-0.7h-0.1
	c-0.2,0-0.4-0.2-0.4-0.4c0,0,0,0,0,0c0-0.3,0.2-0.5,0.5-0.5c0.3,0,0.6,0.3,0.5,0.6c0,0,0,0,0,0C187.4,69.5,187.2,69.9,186.8,70.2
	L186.8,70.2z"/>
<path class="st1" d="M117.4,81.5V81c-0.3,0.3-0.7,0.5-1.1,0.6c-0.9,0-1.5-0.7-1.5-1.8c-0.1-0.9,0.5-1.6,1.3-1.8c0.1,0,0.1,0,0.2,0
	c0.4,0,0.8,0.2,1.1,0.6v-1.7h0.7v4.7H117.4z M117.4,80.5v-1.4c-0.2-0.3-0.5-0.4-0.9-0.4c-0.6,0.1-1,0.7-0.9,1.3
	c0.1,0.5,0.5,0.9,0.9,0.9C116.9,80.9,117.2,80.8,117.4,80.5L117.4,80.5z"/>
<path class="st1" d="M121.5,81.5v-0.4c-0.3,0.3-0.7,0.5-1.1,0.5c-0.6,0-1.1-0.5-1.2-1.1c0,0,0,0,0,0c0-0.6,0.4-1.1,1-1.1
	c0,0,0.1,0,0.1,0c0.4,0,0.8,0.1,1.1,0.4v-0.5c0-0.4-0.3-0.6-0.8-0.6c-0.4,0-0.7,0.2-1,0.4l-0.3-0.5c0.4-0.4,0.9-0.6,1.4-0.5
	c0.8,0,1.4,0.3,1.4,1.2v2.2L121.5,81.5z M121.5,80.7v-0.5c-0.2-0.2-0.5-0.4-0.8-0.3c-0.3-0.1-0.7,0.1-0.7,0.5
	c-0.1,0.3,0.1,0.7,0.5,0.7c0.1,0,0.2,0,0.3,0C121,81.1,121.3,81,121.5,80.7z"/>
<path class="st1" d="M123.7,80.7v-2h-0.6v-0.6h0.6v-0.9h0.7v0.9h0.7v0.6h-0.7v1.8c0,0.2,0.1,0.4,0.3,0.4c0.1,0,0.2,0,0.3-0.1
	l0.2,0.6c-0.2,0.2-0.4,0.2-0.7,0.2c-0.4,0.1-0.8-0.3-0.9-0.7C123.7,80.8,123.7,80.7,123.7,80.7z"/>
<path class="st1" d="M128.2,81.5v-0.4c-0.3,0.3-0.7,0.5-1.1,0.5c-0.6,0-1.1-0.5-1.2-1.1c0,0,0,0,0,0c0-0.6,0.5-1.1,1.1-1.1
	c0,0,0.1,0,0.1,0c0.4,0,0.8,0.1,1.1,0.4v-0.5c0-0.4-0.3-0.6-0.8-0.6c-0.4,0-0.7,0.2-1,0.4l-0.3-0.5c0.4-0.4,0.9-0.6,1.4-0.5
	c0.8,0,1.4,0.3,1.4,1.2v2.2L128.2,81.5z M128.2,80.7v-0.5c-0.2-0.2-0.5-0.4-0.8-0.3c-0.3,0-0.6,0.2-0.7,0.5c0,0.3,0.2,0.6,0.5,0.7
	c0.1,0,0.1,0,0.2,0C127.7,81.1,128,81,128.2,80.7z"/>
<path class="st1" d="M130,80.1v-0.6h1.7v0.6H130z"/>
<path class="st1" d="M132.7,77.2c0-0.3,0.2-0.5,0.5-0.5c0.3,0,0.5,0.2,0.5,0.5c0,0.3-0.2,0.5-0.5,0.5
	C132.9,77.7,132.7,77.5,132.7,77.2C132.7,77.3,132.7,77.2,132.7,77.2z M132.8,81.5v-3.4h0.7v3.4H132.8z"/>
<path class="st1" d="M134.9,80.7v-2h-0.6v-0.6h0.6v-0.9h0.8v0.9h0.7v0.6h-0.7v1.8c0,0.2,0.1,0.4,0.3,0.4c0.1,0,0.2,0,0.3-0.1
	l0.2,0.6c-0.2,0.2-0.4,0.2-0.7,0.2c-0.4,0.1-0.8-0.2-0.9-0.6C134.9,80.8,134.9,80.8,134.9,80.7z"/>
<path class="st1" d="M137.1,79.8c0-0.9,0.7-1.7,1.6-1.8c0,0,0.1,0,0.1,0c0.9,0,1.7,0.8,1.7,1.7c0,0.1,0,0.1,0,0.2V80h-2.6
	c0,0.6,0.5,1,1.1,0.9c0,0,0,0,0,0c0.4,0,0.7-0.1,1-0.4l0.3,0.5c-0.4,0.3-0.9,0.5-1.4,0.5c-0.9,0.1-1.7-0.7-1.8-1.6
	C137.1,79.9,137.1,79.8,137.1,79.8z M138.8,78.6c-0.5,0-0.9,0.4-0.9,0.9h1.9C139.8,79,139.4,78.6,138.8,78.6
	C138.9,78.6,138.9,78.6,138.8,78.6z"/>
<path class="st1" d="M145.7,81.5v-2.2c0-0.4-0.2-0.6-0.6-0.6c-0.3,0-0.6,0.2-0.8,0.4v2.4h-0.7v-2.2c0-0.4-0.2-0.6-0.6-0.6
	c-0.3,0-0.6,0.2-0.8,0.4v2.4h-0.7v-3.4h0.7v0.5c0.3-0.3,0.7-0.5,1.1-0.5c0.4,0,0.8,0.2,0.9,0.6c0.3-0.4,0.7-0.6,1.1-0.6
	c0.5-0.1,0.9,0.3,1,0.8c0,0.1,0,0.2,0,0.2v2.4L145.7,81.5z"/>
<path class="st1" d="M147.5,80.1v-0.6h1.7v0.6H147.5z"/>
<path class="st1" d="M152.5,81.5V81c-0.3,0.3-0.7,0.5-1.2,0.5c-0.5,0.1-1-0.4-1.1-0.9c0-0.1,0-0.1,0-0.2v-2.4h0.7v2.1
	c0,0.5,0.3,0.7,0.7,0.7c0.3,0,0.7-0.2,0.9-0.4v-2.4h0.7v3.4H152.5z"/>
<path class="st1" d="M154.5,81.5v-3.4h0.7v0.5c0.3-0.3,0.7-0.6,1.1-0.6v0.7c-0.1,0-0.2,0-0.2,0c-0.3,0-0.7,0.2-0.9,0.5v2.3
	L154.5,81.5z"/>
<path class="st1" d="M157.3,81.5v-4.7h0.7v4.7H157.3z"/>
<path class="st1" d="M159.1,78.7v-0.5h3.1v0.5H159.1z M159.1,80.1v-0.5h3.1v0.5H159.1z"/>
<path class="st1" d="M163.5,78.6l-0.3-0.3c0.2-0.1,0.4-0.4,0.5-0.7h-0.1c-0.2,0-0.4-0.2-0.4-0.4c0,0,0,0,0,0c0-0.3,0.2-0.5,0.5-0.5
	c0.3,0,0.6,0.3,0.5,0.6c0,0,0,0,0,0C164.1,77.9,163.9,78.3,163.5,78.6z M164.8,78.6l-0.3-0.3c0.2-0.1,0.4-0.4,0.5-0.7h-0.1
	c-0.2,0-0.4-0.2-0.4-0.4c0,0,0,0,0,0c0-0.3,0.2-0.5,0.5-0.5c0.3,0,0.6,0.3,0.5,0.6c0,0,0,0,0,0C165.4,77.9,165.2,78.3,164.8,78.6z"
	/>
<path class="st1" d="M168.9,81.5v-2.1c0-0.5-0.3-0.7-0.7-0.7c-0.3,0-0.7,0.2-0.9,0.4v2.4h-0.7v-4.7h0.7v1.8c0.3-0.3,0.7-0.5,1.2-0.5
	c0.5-0.1,1,0.3,1.1,0.9c0,0.1,0,0.1,0,0.2v2.4H168.9z"/>
<path class="st1" d="M171.1,80.7v-2h-0.6v-0.6h0.6v-0.9h0.7v0.9h0.7v0.6h-0.7v1.8c0,0.2,0.1,0.4,0.3,0.4c0.1,0,0.2,0,0.3-0.1
	l0.2,0.6c-0.2,0.2-0.4,0.2-0.7,0.2c-0.4,0.1-0.8-0.3-0.9-0.7C171.1,80.8,171.1,80.7,171.1,80.7z"/>
<path class="st1" d="M173.7,80.7v-2h-0.6v-0.6h0.6v-0.9h0.7v0.9h0.7v0.6h-0.7v1.8c0,0.2,0.1,0.4,0.3,0.4c0.1,0,0.2,0,0.3-0.1
	l0.2,0.6c-0.2,0.2-0.4,0.2-0.7,0.2c-0.4,0.1-0.8-0.3-0.9-0.7C173.7,80.8,173.7,80.7,173.7,80.7z"/>
<path class="st1" d="M176.8,81v1.8h-0.7v-4.7h0.7v0.5c0.3-0.3,0.7-0.5,1.1-0.5c0.9,0,1.5,0.7,1.5,1.8s-0.6,1.8-1.5,1.8
	C177.5,81.6,177.1,81.4,176.8,81z M178.7,79.8c0.1-0.5-0.3-1-0.9-1.1c0,0-0.1,0-0.1,0c-0.3,0-0.7,0.2-0.9,0.4v1.3
	c0.2,0.3,0.5,0.5,0.9,0.5c0.6,0,1-0.4,1-1C178.7,79.9,178.7,79.8,178.7,79.8z"/>
<path class="st1" d="M180.2,81.1l0.3-0.5c0.3,0.3,0.7,0.5,1.2,0.5c0.4,0,0.7-0.2,0.7-0.4c0-0.7-2-0.2-2-1.5c0-0.6,0.5-1,1.3-1
	c0.5,0,0.9,0.2,1.3,0.5l-0.3,0.5c-0.3-0.3-0.6-0.4-1-0.4c-0.4,0-0.6,0.2-0.6,0.4c0,0.6,2.1,0.2,2.1,1.5c0,0.6-0.5,1.1-1.4,1.1
	C181.1,81.6,180.6,81.4,180.2,81.1z"/>
<path class="st1" d="M184,78.6c0-0.3,0.2-0.5,0.5-0.5c0.3,0,0.5,0.2,0.5,0.5s-0.2,0.5-0.5,0.5C184.2,79.1,184,78.8,184,78.6
	C184,78.6,184,78.6,184,78.6z M184,81.1c0-0.3,0.2-0.5,0.5-0.5c0.3,0,0.5,0.2,0.5,0.5c0,0.3-0.2,0.5-0.5,0.5
	C184.2,81.6,184,81.3,184,81.1z"/>
<path class="st1" d="M185.7,81.6l1.7-4.9h0.6l-1.7,4.9H185.7z"/>
<path class="st1" d="M188.2,81.6l1.7-4.9h0.5l-1.7,4.9H188.2z"/>
<path class="st1" d="M195.4,81.5v-2.2c0-0.4-0.2-0.6-0.6-0.6c-0.3,0-0.6,0.2-0.8,0.4v2.4h-0.7v-2.2c0-0.4-0.1-0.6-0.6-0.6
	c-0.3,0-0.6,0.2-0.8,0.4v2.4h-0.7v-3.4h0.7v0.5c0.3-0.3,0.7-0.5,1.1-0.5c0.4,0,0.8,0.2,0.9,0.6c0.3-0.4,0.7-0.6,1.1-0.6
	c0.5-0.1,0.9,0.3,1,0.8c0,0.1,0,0.2,0,0.2v2.4L195.4,81.5z"/>
<path class="st1" d="M197.4,82.2c0.1,0,0.2,0.1,0.3,0.1c0.2,0,0.4-0.1,0.5-0.3l0.2-0.4l-1.4-3.4h0.8l1,2.5l1-2.5h0.8l-1.6,4
	c-0.2,0.5-0.6,0.8-1.1,0.8c-0.1,0-0.3,0-0.4-0.1L197.4,82.2z"/>
<path class="st1" d="M203.4,81.5v-0.4c-0.3,0.3-0.7,0.5-1.1,0.5c-0.6,0-1.1-0.5-1.2-1.1c0,0,0,0,0,0c0-0.6,0.5-1.1,1.1-1.1
	c0,0,0.1,0,0.1,0c0.4,0,0.8,0.1,1.1,0.4v-0.5c0-0.4-0.3-0.6-0.8-0.6c-0.4,0-0.7,0.2-1,0.4l-0.3-0.5c0.4-0.4,0.9-0.6,1.4-0.6
	c0.8,0,1.4,0.3,1.4,1.2v2.2L203.4,81.5z M203.4,80.7v-0.5c-0.2-0.2-0.5-0.4-0.8-0.3c-0.3,0-0.6,0.2-0.7,0.5c0,0.3,0.2,0.6,0.5,0.7
	c0.1,0,0.1,0,0.2,0C202.9,81.1,203.2,81,203.4,80.7z"/>
<path class="st1" d="M206.1,81v1.8h-0.7v-4.7h0.7v0.5c0.3-0.3,0.7-0.5,1.1-0.5c0.9,0,1.5,0.7,1.5,1.8s-0.6,1.8-1.5,1.8
	C206.8,81.6,206.4,81.4,206.1,81z M208,79.8c0.1-0.5-0.3-1-0.9-1.1c0,0-0.1,0-0.1,0c-0.3,0-0.7,0.2-0.9,0.4v1.3
	c0.2,0.3,0.5,0.5,0.9,0.5c0.6,0,1-0.4,1-1C208,79.9,208,79.8,208,79.8L208,79.8z"/>
<path class="st1" d="M210.5,81v1.8h-0.7v-4.7h0.7v0.5c0.3-0.4,0.7-0.6,1.1-0.6c0.9,0,1.5,0.7,1.5,1.8s-0.6,1.8-1.5,1.8
	C211.2,81.6,210.8,81.4,210.5,81z M212.4,79.8c0.1-0.5-0.3-1-0.9-1.1c0,0-0.1,0-0.1,0c-0.3,0-0.7,0.2-0.9,0.4v1.3
	c0.2,0.3,0.5,0.5,0.9,0.5c0.6,0,1-0.4,1-1C212.4,79.9,212.4,79.8,212.4,79.8L212.4,79.8z"/>
<path class="st1" d="M214.1,81.1c0-0.3,0.2-0.5,0.5-0.5c0.3,0,0.5,0.2,0.5,0.5c0,0.3-0.2,0.5-0.5,0.5
	C214.3,81.6,214.1,81.3,214.1,81.1z"/>
<path class="st1" d="M216,79.8c-0.1-0.9,0.6-1.7,1.6-1.8c0.1,0,0.1,0,0.2,0c0.5,0,1,0.2,1.3,0.6l-0.5,0.4c-0.2-0.3-0.5-0.4-0.8-0.4
	c-0.6,0.1-1.1,0.6-1,1.2c0.1,0.5,0.5,1,1,1c0.3,0,0.6-0.1,0.8-0.4l0.5,0.5c-0.3,0.4-0.8,0.6-1.3,0.6C216.8,81.6,216,80.8,216,79.8
	C216,79.9,216,79.8,216,79.8z"/>
<path class="st1" d="M219.9,79.8c0-1,0.8-1.7,1.8-1.7c1,0,1.7,0.8,1.7,1.8c0,0.9-0.8,1.7-1.7,1.7c-0.9,0-1.7-0.7-1.7-1.6
	C219.9,79.9,219.9,79.9,219.9,79.8z M222.6,79.8c-0.1-0.5-0.6-0.9-1.1-0.9c-0.5,0.1-0.9,0.6-0.9,1.1c0.1,0.5,0.5,0.9,1,0.9
	c0.6,0,1-0.4,1-1C222.6,79.9,222.6,79.8,222.6,79.8z"/>
<path class="st1" d="M228.6,81.5v-2.2c0-0.4-0.2-0.6-0.6-0.6c-0.3,0-0.6,0.2-0.8,0.4v2.4h-0.7v-2.2c0-0.4-0.1-0.6-0.6-0.6
	c-0.3,0-0.6,0.2-0.8,0.4v2.4h-0.7v-3.4h0.7v0.5c0.3-0.3,0.7-0.5,1.1-0.5c0.4,0,0.8,0.2,0.9,0.6c0.3-0.4,0.7-0.6,1.1-0.6
	c0.5-0.1,0.9,0.3,1,0.8c0,0.1,0,0.2,0,0.2v2.4L228.6,81.5z"/>
<path class="st1" d="M230.1,81.6l1.7-4.9h0.6l-1.7,4.9H230.1z"/>
<path class="st1" d="M233.9,81v1.8h-0.7v-4.7h0.7v0.5c0.3-0.3,0.7-0.5,1.1-0.5c0.9,0,1.5,0.7,1.5,1.8s-0.6,1.8-1.5,1.8
	C234.6,81.6,234.2,81.4,233.9,81z M235.7,79.8c0.1-0.5-0.3-1-0.9-1.1c0,0-0.1,0-0.1,0c-0.3,0-0.7,0.2-0.9,0.4v1.3
	c0.2,0.3,0.5,0.5,0.9,0.5c0.6,0,1-0.4,1-1C235.7,79.9,235.7,79.8,235.7,79.8L235.7,79.8z"/>
<path class="st1" d="M237.6,81.5v-3.4h0.7v0.5c0.3-0.3,0.7-0.6,1.1-0.6v0.7c-0.1,0-0.2,0-0.2,0c-0.3,0-0.7,0.2-0.9,0.5v2.3
	L237.6,81.5z"/>
<path class="st1" d="M240.1,79.8c0-1,0.8-1.7,1.8-1.7c1,0,1.7,0.8,1.7,1.8c0,0.9-0.8,1.7-1.7,1.7c-0.9,0-1.7-0.7-1.7-1.6
	C240.1,79.9,240.1,79.8,240.1,79.8z M242.9,79.8c0-0.6-0.4-1-1-1s-1,0.4-1,1s0.4,1,1,1S242.9,80.4,242.9,79.8z"/>
<path class="st1" d="M247.1,81.5V81c-0.3,0.3-0.7,0.5-1.1,0.6c-0.9,0-1.5-0.7-1.5-1.8c-0.1-0.9,0.5-1.6,1.3-1.8c0.1,0,0.1,0,0.2,0
	c0.4,0,0.8,0.2,1.1,0.6v-1.7h0.7v4.7H247.1z M247.1,80.5v-1.4c-0.2-0.3-0.5-0.4-0.9-0.4c-0.6,0.1-1,0.7-0.9,1.3
	c0.1,0.5,0.5,0.9,0.9,0.9C246.6,80.9,246.9,80.8,247.1,80.5L247.1,80.5z"/>
<path class="st1" d="M251.4,81.5V81c-0.3,0.3-0.7,0.5-1.2,0.5c-0.5,0.1-1-0.4-1.1-0.9c0-0.1,0-0.1,0-0.2v-2.4h0.7v2.1
	c0,0.5,0.3,0.7,0.7,0.7c0.3,0,0.7-0.2,0.9-0.4v-2.4h0.7v3.4H251.4z"/>
<path class="st1" d="M253.2,79.8c-0.1-0.9,0.7-1.7,1.6-1.8c0.1,0,0.1,0,0.2,0c0.5,0,1,0.2,1.3,0.6l-0.5,0.4
	c-0.2-0.3-0.5-0.4-0.8-0.4c-0.6,0.1-1.1,0.6-1,1.2c0.1,0.5,0.5,1,1,1c0.3,0,0.6-0.1,0.8-0.4l0.5,0.5c-0.3,0.4-0.8,0.6-1.3,0.6
	c-0.9,0-1.7-0.7-1.8-1.6C253.2,79.9,253.2,79.8,253.2,79.8z"/>
<path class="st1" d="M257.4,80.7v-2h-0.6v-0.6h0.6v-0.9h0.7v0.9h0.7v0.6h-0.7v1.8c0,0.2,0.1,0.4,0.3,0.4c0.1,0,0.2,0,0.3-0.1
	l0.2,0.6c-0.2,0.2-0.4,0.2-0.7,0.2c-0.4,0-0.8-0.3-0.9-0.7C257.4,80.8,257.4,80.7,257.4,80.7z"/>
<path class="st1" d="M259.4,81.6l1.7-4.9h0.5l-1.7,4.9H259.4z"/>
<path class="st1" d="M262.1,81.1l0.3-0.5c0.3,0.3,0.7,0.5,1.1,0.5c0.4,0,0.7-0.2,0.7-0.4c0-0.7-2-0.2-2-1.5c0-0.6,0.5-1,1.3-1
	c0.5,0,0.9,0.2,1.3,0.5l-0.3,0.5c-0.3-0.3-0.6-0.4-1-0.4c-0.4,0-0.6,0.2-0.6,0.4c0,0.6,2,0.2,2,1.5c0,0.6-0.5,1.1-1.4,1.1
	C263.1,81.6,262.5,81.4,262.1,81.1z"/>
<path class="st1" d="M268.4,81.5v-2.1c0-0.5-0.3-0.7-0.7-0.7c-0.3,0-0.7,0.2-0.9,0.4v2.4h-0.7v-4.7h0.7v1.8c0.3-0.3,0.7-0.5,1.2-0.5
	c0.5-0.1,1,0.4,1.1,0.9c0,0.1,0,0.1,0,0.2v2.4H268.4z"/>
<path class="st1" d="M270.3,77.2c0-0.2,0.2-0.4,0.5-0.4l0,0c0.3,0,0.5,0.1,0.5,0.4c0,0.3-0.1,0.5-0.4,0.5c0,0-0.1,0-0.1,0
	C270.5,77.7,270.3,77.5,270.3,77.2C270.3,77.2,270.3,77.2,270.3,77.2z M270.4,81.5v-3.4h0.7v3.4H270.4z"/>
<path class="st1" d="M272.4,81.5v-3.4h0.7v0.5c0.3-0.3,0.7-0.5,1.1-0.6v0.7c-0.1,0-0.1,0-0.2,0c-0.3,0-0.7,0.2-0.9,0.5v2.3
	L272.4,81.5z"/>
<path class="st1" d="M275.4,80.7v-2h-0.6v-0.6h0.6v-0.9h0.7v0.9h0.7v0.6h-0.7v1.8c0,0.2,0.1,0.4,0.3,0.4c0.1,0,0.2,0,0.3-0.1
	l0.2,0.6c-0.2,0.2-0.4,0.2-0.7,0.2c-0.4,0.1-0.8-0.3-0.9-0.7C275.4,80.8,275.4,80.7,275.4,80.7z"/>
<path class="st1" d="M278.1,78.6l-0.3-0.3c0.2-0.1,0.4-0.4,0.5-0.7h-0.1c-0.2,0-0.4-0.2-0.4-0.4c0,0,0,0,0,0c0-0.3,0.2-0.5,0.5-0.5
	l0,0c0.3,0,0.6,0.3,0.5,0.6c0,0,0,0,0,0C278.7,77.9,278.5,78.3,278.1,78.6z M279.4,78.6l-0.3-0.3c0.2-0.1,0.4-0.4,0.5-0.7h-0.1
	c-0.2,0-0.4-0.2-0.4-0.4c0,0,0,0,0,0c0-0.3,0.2-0.5,0.5-0.5l0,0c0.3,0,0.6,0.3,0.5,0.6c0,0,0,0,0,0C280,77.9,279.8,78.3,279.4,78.6
	L279.4,78.6z"/>
<path class="st1" d="M117.4,89.9v-0.5c-0.3,0.3-0.7,0.5-1.1,0.6c-0.9,0-1.5-0.7-1.5-1.8c-0.1-0.9,0.5-1.6,1.3-1.8c0.1,0,0.1,0,0.2,0
	c0.4,0,0.8,0.2,1.1,0.6v-1.8h0.7v4.7H117.4z M117.4,88.9v-1.4c-0.2-0.3-0.5-0.4-0.9-0.4c-0.6,0.1-1,0.7-0.9,1.3
	c0.1,0.5,0.5,0.9,0.9,0.9C116.9,89.3,117.2,89.2,117.4,88.9L117.4,88.9z"/>
<path class="st1" d="M121.5,89.9v-0.4c-0.3,0.3-0.7,0.5-1.1,0.5c-0.6,0-1.1-0.5-1.2-1.1c0,0,0,0,0,0c0-0.6,0.4-1.1,1-1.1
	c0,0,0.1,0,0.1,0c0.4,0,0.8,0.1,1.1,0.4v-0.5c0-0.4-0.3-0.6-0.8-0.6c-0.4,0-0.7,0.2-1,0.4l-0.3-0.5c0.4-0.4,0.9-0.6,1.4-0.5
	c0.8,0,1.4,0.3,1.4,1.2v2.2L121.5,89.9z M121.5,89.1v-0.5c-0.2-0.2-0.5-0.4-0.8-0.3c-0.4,0-0.7,0.2-0.7,0.6c0,0,0,0,0,0
	c0,0.4,0.3,0.6,0.7,0.6c0,0,0,0,0,0C121,89.5,121.3,89.4,121.5,89.1z"/>
<path class="st1" d="M123.7,89.1v-1.9h-0.6v-0.6h0.6v-0.9h0.7v0.9h0.7v0.6h-0.7v1.8c0,0.2,0.1,0.4,0.3,0.4c0.1,0,0.2,0,0.3-0.1
	l0.2,0.6c-0.2,0.2-0.4,0.2-0.7,0.2c-0.4,0.1-0.8-0.2-0.9-0.7C123.7,89.2,123.7,89.2,123.7,89.1z"/>
<path class="st1" d="M128.2,89.9v-0.4c-0.3,0.3-0.7,0.5-1.1,0.5c-0.6,0-1.1-0.5-1.2-1.1c0,0,0,0,0,0c0-0.6,0.5-1.1,1.1-1.1
	c0,0,0.1,0,0.1,0c0.4,0,0.8,0.1,1.1,0.4v-0.5c0-0.4-0.3-0.6-0.8-0.6c-0.4,0-0.7,0.2-1,0.4l-0.3-0.5c0.4-0.4,0.9-0.6,1.4-0.5
	c0.8,0,1.4,0.3,1.4,1.2v2.2L128.2,89.9z M128.2,89.1v-0.5c-0.2-0.2-0.5-0.4-0.8-0.3c-0.4,0-0.7,0.2-0.7,0.6c0,0,0,0,0,0
	c0,0.4,0.3,0.6,0.7,0.6c0,0,0,0,0.1,0C127.7,89.5,128,89.4,128.2,89.1z"/>
<path class="st1" d="M130,88.5v-0.6h1.7v0.6H130z"/>
<path class="st1" d="M132.7,85.6c0-0.3,0.3-0.4,0.5-0.4c0.2,0,0.4,0.2,0.4,0.4c0,0.3-0.1,0.5-0.4,0.5s-0.5-0.1-0.5-0.4
	C132.7,85.7,132.7,85.7,132.7,85.6z M132.8,89.9v-3.4h0.7v3.4H132.8z"/>
<path class="st1" d="M134.9,89.1v-1.9h-0.6v-0.6h0.6v-0.9h0.8v0.9h0.7v0.6h-0.7v1.8c0,0.2,0.1,0.4,0.3,0.4c0.1,0,0.2,0,0.3-0.1
	l0.2,0.6c-0.2,0.2-0.4,0.2-0.7,0.2c-0.4,0.1-0.8-0.2-0.9-0.6C134.9,89.3,134.9,89.2,134.9,89.1z"/>
<path class="st1" d="M137.1,88.2c0-0.9,0.7-1.7,1.6-1.8c0,0,0,0,0.1,0c0.9,0,1.7,0.8,1.7,1.7c0,0.1,0,0.1,0,0.2v0.2h-2.6
	c0,0.6,0.5,1,1.1,0.9c0,0,0,0,0,0c0.4,0,0.7-0.1,1-0.4l0.3,0.5c-0.4,0.3-0.9,0.5-1.4,0.5c-0.9,0.1-1.7-0.7-1.8-1.6
	C137.1,88.3,137.1,88.3,137.1,88.2z M138.8,87c-0.5,0-0.9,0.4-0.9,0.9h1.9C139.8,87.4,139.4,87,138.8,87C138.9,87,138.9,87,138.8,87
	z"/>
<path class="st1" d="M145.7,89.9v-2.2c0-0.4-0.2-0.6-0.6-0.6c-0.3,0-0.6,0.2-0.8,0.4v2.4h-0.7v-2.2c0-0.4-0.2-0.6-0.6-0.6
	c-0.3,0-0.6,0.2-0.8,0.4v2.4h-0.7v-3.4h0.7V87c0.3-0.3,0.7-0.5,1.1-0.5c0.4,0,0.8,0.2,0.9,0.6c0.3-0.4,0.7-0.6,1.1-0.6
	c0.5-0.1,0.9,0.3,1,0.8c0,0.1,0,0.2,0,0.2v2.4L145.7,89.9z"/>
<path class="st1" d="M147.5,88.5v-0.6h1.7v0.6H147.5z"/>
<path class="st1" d="M152.6,89.9v-0.5c-0.3,0.3-0.7,0.5-1.1,0.6c-0.9,0-1.5-0.7-1.5-1.8c-0.1-0.9,0.5-1.6,1.3-1.8c0.1,0,0.1,0,0.2,0
	c0.4,0,0.8,0.2,1.1,0.6v-1.8h0.7v4.7H152.6z M152.6,88.9v-1.4c-0.2-0.3-0.5-0.4-0.9-0.4c-0.6,0.1-1,0.7-0.9,1.3
	c0.1,0.5,0.5,0.9,0.9,0.9C152.1,89.3,152.4,89.2,152.6,88.9L152.6,88.9z"/>
<path class="st1" d="M154.3,89.4l0.3-0.5c0.3,0.3,0.7,0.5,1.1,0.5c0.4,0,0.7-0.2,0.7-0.4c0-0.7-2-0.2-2-1.5c0-0.6,0.5-1,1.3-1
	c0.5,0,0.9,0.2,1.3,0.5l-0.3,0.5c-0.3-0.3-0.6-0.4-1-0.4c-0.4,0-0.6,0.2-0.6,0.4c0,0.6,2.1,0.2,2.1,1.5c0,0.6-0.5,1.1-1.4,1.1
	C155.3,90,154.8,89.8,154.3,89.4z"/>
<path class="st1" d="M158.1,88.2c0-0.9,0.7-1.7,1.6-1.8c0,0,0.1,0,0.1,0c0.5,0,1,0.2,1.3,0.6l-0.5,0.4c-0.2-0.3-0.5-0.4-0.8-0.4
	c-0.6,0.1-1.1,0.6-1,1.2c0.1,0.5,0.5,1,1,1c0.3,0,0.6-0.1,0.8-0.4l0.5,0.5c-0.3,0.4-0.8,0.6-1.3,0.6c-0.9,0-1.7-0.7-1.7-1.7
	C158.1,88.3,158.1,88.2,158.1,88.2z"/>
<path class="st1" d="M162.1,89.9v-3.4h0.7V87c0.3-0.3,0.7-0.5,1.1-0.6v0.7c-0.1,0-0.1,0-0.2,0c-0.3,0-0.7,0.2-0.9,0.5v2.3
	L162.1,89.9z"/>
<path class="st1" d="M164.8,85.6c0-0.3,0.2-0.5,0.5-0.4c0.2,0,0.4,0.2,0.4,0.4c0,0.3-0.2,0.5-0.4,0.5
	C165,86.1,164.8,85.9,164.8,85.6z M164.9,89.9v-3.4h0.8v3.4H164.9z"/>
<path class="st1" d="M167.7,89.4v1.8h-0.7v-4.7h0.7V87c0.3-0.3,0.7-0.5,1.1-0.5c0.9,0,1.5,0.7,1.5,1.8s-0.6,1.8-1.5,1.8
	C168.3,90,167.9,89.8,167.7,89.4z M169.5,88.2c0.1-0.5-0.3-1-0.9-1.1c0,0-0.1,0-0.1,0c-0.3,0-0.7,0.2-0.9,0.4v1.3
	c0.2,0.3,0.5,0.5,0.9,0.5c0.6,0,1-0.4,1-1C169.5,88.3,169.5,88.2,169.5,88.2z"/>
<path class="st1" d="M171.5,89.1v-1.9h-0.6v-0.6h0.6v-0.9h0.7v0.9h0.7v0.6h-0.7v1.8c0,0.2,0.1,0.4,0.3,0.4c0.1,0,0.2,0,0.3-0.1
	l0.2,0.6c-0.2,0.2-0.4,0.2-0.7,0.2c-0.4,0.1-0.8-0.2-0.9-0.7C171.5,89.2,171.5,89.2,171.5,89.1z"/>
<path class="st1" d="M173.8,85.6c0-0.2,0.2-0.4,0.4-0.4c0.3,0,0.5,0.2,0.5,0.4c0,0.3-0.2,0.5-0.5,0.5
	C174,86.1,173.8,85.9,173.8,85.6z M173.9,89.9v-3.4h0.8v3.4H173.9z"/>
<path class="st1" d="M175.8,88.2c0-1,0.8-1.7,1.8-1.7c1,0,1.7,0.8,1.7,1.8c0,0.9-0.8,1.7-1.7,1.7c-0.9,0-1.7-0.7-1.7-1.6
	C175.8,88.3,175.8,88.3,175.8,88.2z M178.5,88.2c0.1-0.5-0.2-1.1-0.7-1.2c-0.5-0.1-1.1,0.2-1.2,0.7c0,0.2,0,0.3,0,0.5
	c-0.1,0.5,0.2,1.1,0.7,1.2c0.5,0.1,1.1-0.2,1.2-0.7C178.5,88.5,178.5,88.4,178.5,88.2z"/>
<path class="st1" d="M182.6,89.9v-2.1c0-0.5-0.3-0.7-0.7-0.7c-0.3,0-0.7,0.2-0.9,0.4v2.4h-0.7v-3.4h0.7V87c0.3-0.3,0.7-0.5,1.2-0.5
	c0.5-0.1,1,0.4,1.1,0.9c0,0.1,0,0.1,0,0.2v2.4L182.6,89.9z"/>
<path class="st1" d="M184.4,87.1v-0.5h3.1v0.5H184.4z M184.4,88.5V88h3.1v0.5L184.4,88.5z"/>
<path class="st1" d="M188.8,87l-0.3-0.3c0.2-0.1,0.4-0.4,0.5-0.7h-0.1c-0.2,0-0.4-0.2-0.4-0.4c0,0,0,0,0,0c0-0.3,0.2-0.5,0.5-0.5
	c0.3,0,0.6,0.3,0.5,0.6c0,0,0,0,0,0C189.4,86.3,189.2,86.7,188.8,87z M190.1,87l-0.3-0.3c0.2-0.1,0.4-0.4,0.5-0.7h-0.1
	c-0.2,0-0.4-0.2-0.4-0.4c0,0,0,0,0,0c0-0.3,0.2-0.5,0.5-0.5c0.3,0,0.6,0.3,0.5,0.6c0,0,0,0,0,0C190.7,86.3,190.5,86.7,190.1,87
	L190.1,87z"/>
<path class="st1" d="M195.9,89.9v-3.6l-1.4,3.6h-0.4l-1.4-3.6v3.6h-0.8v-4.7h1.1l1.3,3.2l1.3-3.2h1.2v4.7H195.9z"/>
<path class="st1" d="M198,90.6c0.1,0,0.2,0.1,0.3,0.1c0.2,0,0.4-0.1,0.5-0.3l0.2-0.4l-1.4-3.4h0.8l1,2.5l1-2.5h0.8l-1.6,4
	c-0.2,0.5-0.6,0.8-1.2,0.8c-0.1,0-0.3,0-0.4,0L198,90.6z"/>
<path class="st1" d="M206.2,89.9v-0.4c-0.3,0.3-0.7,0.5-1.1,0.5c-0.6,0-1.1-0.5-1.2-1.1c0,0,0,0,0,0c0-0.6,0.5-1.1,1.1-1.1
	c0,0,0.1,0,0.1,0c0.4,0,0.8,0.1,1.1,0.4v-0.5c0-0.4-0.3-0.6-0.8-0.6c-0.4,0-0.7,0.2-1,0.4l-0.3-0.5c0.4-0.4,0.9-0.6,1.4-0.5
	c0.8,0,1.4,0.3,1.4,1.2v2.2L206.2,89.9z M206.2,89.1v-0.5c-0.2-0.2-0.5-0.4-0.8-0.3c-0.4,0-0.7,0.2-0.7,0.6c0,0,0,0,0,0
	c0,0.4,0.3,0.6,0.7,0.6c0,0,0,0,0.1,0C205.7,89.5,206,89.4,206.2,89.1z"/>
<path class="st1" d="M211.2,89.9l-0.8-2.5l-0.8,2.5h-0.8l-1.1-3.4h0.8l0.7,2.5l0.8-2.5h0.6l0.8,2.5l0.7-2.5h0.8l-1.1,3.4H211.2z"/>
<path class="st1" d="M213.7,88.2c0-0.9,0.7-1.7,1.6-1.8c0,0,0.1,0,0.1,0c0.9,0,1.7,0.7,1.7,1.7c0,0.1,0,0.1,0,0.2v0.2h-2.6
	c0,0.6,0.5,1,1.1,0.9c0,0,0,0,0,0c0.4,0,0.7-0.1,1-0.4l0.3,0.5c-0.4,0.3-0.9,0.5-1.4,0.5c-0.9,0.1-1.7-0.7-1.8-1.6
	C213.7,88.3,213.7,88.3,213.7,88.2z M215.4,87c-0.5,0-1,0.3-1,0.8c0,0,0,0,0,0.1h1.9C216.3,87.4,215.9,87,215.4,87z"/>
<path class="st1" d="M217.8,89.4l0.3-0.5c0.3,0.3,0.7,0.5,1.1,0.5c0.4,0,0.7-0.2,0.7-0.4c0-0.7-2-0.2-2-1.5c0-0.6,0.5-1,1.3-1
	c0.5,0,0.9,0.2,1.3,0.5l-0.3,0.5c-0.3-0.3-0.6-0.4-1-0.4c-0.4,0-0.6,0.2-0.6,0.4c0,0.6,2.1,0.2,2.1,1.5c0,0.6-0.5,1.1-1.4,1.1
	C218.7,90,218.2,89.8,217.8,89.4z"/>
<path class="st1" d="M221.5,88.2c0-1,0.8-1.7,1.8-1.7c1,0,1.7,0.8,1.7,1.8c0,0.9-0.8,1.7-1.7,1.7c-0.9,0-1.7-0.7-1.7-1.6
	C221.5,88.3,221.5,88.3,221.5,88.2z M224.3,88.2c0-0.6-0.4-1-1-1s-1,0.4-1,1s0.4,1,1,1S224.3,88.8,224.3,88.2z"/>
<path class="st1" d="M230.3,89.9v-2.2c0-0.4-0.2-0.6-0.6-0.6c-0.3,0-0.6,0.2-0.8,0.4v2.4h-0.7v-2.2c0-0.4-0.1-0.6-0.6-0.6
	c-0.3,0-0.6,0.2-0.8,0.4v2.4h-0.7v-3.4h0.7V87c0.3-0.3,0.7-0.5,1.1-0.5c0.4,0,0.8,0.2,0.9,0.6c0.3-0.4,0.7-0.6,1.1-0.6
	c0.5-0.1,0.9,0.3,1,0.8c0,0.1,0,0.2,0,0.2v2.4L230.3,89.9z"/>
<path class="st1" d="M232.1,88.2c0-0.9,0.7-1.7,1.6-1.8c0,0,0.1,0,0.1,0c0.9,0,1.7,0.7,1.7,1.7c0,0.1,0,0.1,0,0.2v0.2h-2.6
	c0,0.6,0.5,1,1.1,0.9c0,0,0,0,0,0c0.4,0,0.7-0.1,1-0.4l0.3,0.5c-0.4,0.3-0.9,0.5-1.4,0.5c-0.9,0.1-1.7-0.6-1.8-1.6
	C232.1,88.3,232.1,88.3,232.1,88.2z M233.8,87c-0.5,0-0.9,0.4-0.9,0.9c0,0,0,0,0,0h1.9C234.8,87.4,234.4,87,233.8,87
	C233.8,87,233.8,87,233.8,87z"/>
<path class="st1" d="M238.4,89.4l0.3-0.5c0.3,0.3,0.7,0.5,1.1,0.5c0.4,0,0.7-0.2,0.7-0.4c0-0.7-2.1-0.2-2.1-1.5c0-0.6,0.5-1,1.3-1
	c0.5,0,0.9,0.2,1.3,0.5l-0.3,0.5c-0.3-0.3-0.6-0.4-1-0.4c-0.4,0-0.6,0.2-0.6,0.4c0,0.6,2,0.2,2,1.5c0,0.6-0.5,1.1-1.4,1.1
	C239.3,90,238.8,89.8,238.4,89.4z"/>
<path class="st1" d="M244.7,89.9v-2.1c0-0.5-0.3-0.7-0.7-0.7c-0.3,0-0.7,0.2-0.9,0.4v2.4h-0.7v-4.7h0.7V87c0.3-0.3,0.7-0.5,1.2-0.5
	c0.5-0.1,1,0.4,1.1,0.9c0,0.1,0,0.1,0,0.2v2.4L244.7,89.9z"/>
<path class="st1" d="M246.6,85.6c0-0.3,0.3-0.4,0.5-0.4c0.2,0,0.4,0.2,0.4,0.4c0,0.3-0.1,0.5-0.4,0.5c-0.3,0-0.5-0.1-0.5-0.4
	C246.6,85.7,246.6,85.7,246.6,85.6z M246.7,89.9v-3.4h0.7v3.4H246.7z"/>
<path class="st1" d="M248.7,89.9v-3.4h0.7V87c0.3-0.3,0.7-0.6,1.1-0.6v0.7c-0.1,0-0.2,0-0.2,0c-0.3,0-0.7,0.2-0.9,0.5v2.3
	L248.7,89.9z"/>
<path class="st1" d="M251.7,89.1v-1.9h-0.6v-0.6h0.6v-0.9h0.7v0.9h0.7v0.6h-0.7v1.8c0,0.2,0.1,0.4,0.3,0.4c0.1,0,0.2,0,0.3-0.1
	l0.2,0.6c-0.2,0.2-0.4,0.2-0.7,0.2c-0.4,0.1-0.8-0.2-0.9-0.7C251.7,89.2,251.7,89.2,251.7,89.1z"/>
<path class="st1" d="M254.4,87l-0.3-0.3c0.2-0.1,0.4-0.4,0.5-0.7h-0.1c-0.2,0-0.4-0.2-0.4-0.4c0,0,0,0,0,0c0-0.3,0.2-0.5,0.5-0.5
	c0.3,0,0.6,0.3,0.5,0.6c0,0,0,0,0,0C255,86.3,254.8,86.7,254.4,87z M255.6,87l-0.3-0.3c0.2-0.1,0.4-0.4,0.5-0.7h-0.1
	c-0.2,0-0.4-0.2-0.4-0.4c0,0,0,0,0,0c0-0.3,0.2-0.5,0.5-0.5l0,0c0.3,0,0.6,0.3,0.5,0.6c0,0,0,0,0,0C256.3,86.3,256.1,86.7,255.6,87
	L255.6,87z"/>
<path class="st1" d="M257.2,89.3v-0.6l2.6-1.2l-2.6-1.2v-0.6l3.1,1.4v0.5L257.2,89.3z"/>
<path class="st1" d="M115.1,98.3v-4.7h2.3c0.7-0.1,1.2,0.4,1.3,1.1c0,0,0,0.1,0,0.1c0,0.5-0.3,1-0.8,1.1c0.5,0.1,0.9,0.6,0.9,1.2
	c0,0.7-0.5,1.2-1.2,1.3c-0.1,0-0.1,0-0.2,0H115.1z M117.9,95c0-0.3-0.3-0.6-0.6-0.6c0,0,0,0-0.1,0h-1.3v1.2h1.3
	C117.5,95.6,117.8,95.4,117.9,95C117.9,95.1,117.9,95,117.9,95z M117.9,97c0-0.4-0.3-0.7-0.6-0.7c0,0,0,0-0.1,0h-1.3v1.3h1.3
	c0.3,0,0.7-0.2,0.7-0.5C118,97.1,118,97,117.9,97L117.9,97z"/>
<path class="st1" d="M122.2,98.3v-0.4c-0.3,0.3-0.7,0.5-1.2,0.5c-0.5,0.1-1-0.4-1.1-0.9c0-0.1,0-0.1,0-0.2v-2.4h0.7V97
	c0,0.5,0.3,0.7,0.7,0.7c0.3,0,0.7-0.2,0.9-0.4v-2.3h0.7v3.4H122.2z"/>
<path class="st1" d="M124.2,99c0.1,0,0.2,0.1,0.3,0.1c0.2,0,0.4-0.1,0.5-0.3l0.2-0.4l-1.4-3.4h0.8l1,2.5l1-2.5h0.8l-1.6,4
	c-0.2,0.5-0.6,0.8-1.2,0.8c-0.1,0-0.3,0-0.4,0L124.2,99z"/>
<path class="st1" d="M130,97.6l0.5-0.6c0.4,0.4,0.9,0.7,1.5,0.7c0.7,0,0.9-0.3,0.9-0.7c0-1-2.7-0.4-2.7-2.1c0-0.8,0.7-1.4,1.7-1.4
	c0.6,0,1.3,0.2,1.8,0.7l-0.5,0.6c-0.4-0.4-0.9-0.5-1.4-0.5c-0.5,0-0.8,0.2-0.8,0.6c0,0.9,2.7,0.3,2.7,2.1c0,0.8-0.6,1.4-1.8,1.4
	C131.2,98.4,130.5,98.1,130,97.6z"/>
<path class="st1" d="M137.1,98.3v-2.1c0-0.5-0.3-0.7-0.7-0.7c-0.3,0-0.7,0.2-0.9,0.4v2.4h-0.7v-4.7h0.7v1.8c0.3-0.3,0.7-0.5,1.2-0.5
	c0.5-0.1,1,0.4,1.1,0.9c0,0.1,0,0.1,0,0.2v2.4H137.1z"/>
<path class="st1" d="M139,94c0-0.2,0.2-0.4,0.4-0.4c0.3,0,0.5,0.2,0.5,0.4c0,0.3-0.2,0.5-0.5,0.5C139.2,94.5,139,94.3,139,94z
	 M139.1,98.2v-3.3h0.7v3.4L139.1,98.2z"/>
<path class="st1" d="M141.2,98.3v-3.4h0.7v0.5c0.3-0.3,0.7-0.5,1.1-0.6v0.7c-0.1,0-0.1,0-0.2,0c-0.3,0-0.7,0.2-0.9,0.5v2.3
	L141.2,98.3z"/>
<path class="st1" d="M144.1,97.5v-2h-0.6v-0.6h0.6V94h0.7v0.9h0.7v0.6h-0.7v1.8c0,0.2,0.1,0.4,0.3,0.4c0.1,0,0.2,0,0.3-0.1l0.2,0.6
	c-0.2,0.2-0.4,0.2-0.7,0.2c-0.4,0.1-0.8-0.2-0.9-0.7C144.1,97.6,144.1,97.6,144.1,97.5z"/>
<path class="st1" d="M97.6,105.5v-0.6l3.6-1.7v0.6l-2.9,1.3l2.9,1.3v0.6L97.6,105.5z"/>
<path class="st1" d="M101.7,108.1l1.9-5.7h0.6l-1.9,5.7H101.7z"/>
<path class="st1" d="M105.2,107.9v-5.3h0.8v2c0.3-0.4,0.7-0.6,1.2-0.6c1,0,1.8,0.8,1.7,1.8c0,0.1,0,0.1,0,0.2c0,1.3-0.7,2-1.7,2
	c-0.5,0-0.9-0.2-1.2-0.6v0.5L105.2,107.9z M107,107.2c0.7,0,1.1-0.5,1.1-1.3c0.1-0.6-0.4-1.2-1-1.3c0,0-0.1,0-0.1,0
	c-0.4,0-0.8,0.2-1,0.5v1.5C106.3,107.1,106.6,107.2,107,107.2z"/>
<path class="st1" d="M112.9,107.9v-0.5c-0.3,0.4-0.8,0.6-1.4,0.6c-0.6,0.1-1.2-0.3-1.2-1c0-0.1,0-0.2,0-0.3V104h0.8v2.4
	c0,0.6,0.3,0.8,0.8,0.8c0.4,0,0.8-0.2,1-0.5V104h0.8v3.9L112.9,107.9z"/>
<path class="st1" d="M115.4,107v-2.2h-0.7V104h0.6v-1h0.8v1h0.8v0.7h-0.8v2c0,0.3,0.1,0.5,0.4,0.5c0.1,0,0.3-0.1,0.4-0.2l0.2,0.6
	c-0.2,0.2-0.5,0.3-0.8,0.2c-0.5,0-0.9-0.3-0.9-0.8C115.4,107.1,115.4,107,115.4,107z"/>
<path class="st1" d="M118.3,107v-2.2h-0.6V104h0.6v-1h0.8v1h0.8v0.7h-0.8v2c0,0.3,0.1,0.5,0.4,0.5c0.1,0,0.3-0.1,0.4-0.2l0.2,0.6
	c-0.2,0.2-0.5,0.3-0.8,0.2c-0.5,0.1-0.9-0.3-1-0.8C118.3,107.1,118.3,107.1,118.3,107z"/>
<path class="st1" d="M120.9,106c0-1.1,0.9-2,2-2s2,0.9,2,2s-0.9,2-2,2c-1.1,0-2-0.8-2-1.8C120.9,106.1,120.9,106.1,120.9,106z
	 M123.9,106c-0.1-0.6-0.7-1-1.3-0.9c-0.6,0.1-1,0.7-0.9,1.3c0.1,0.5,0.6,0.9,1.1,0.9c0.6,0,1.1-0.5,1.1-1.2
	C124,106.1,124,106,123.9,106L123.9,106z"/>
<path class="st1" d="M128.7,107.9v-2.4c0-0.6-0.3-0.8-0.8-0.8c-0.4,0-0.8,0.2-1,0.5v2.7h-0.8V104h0.8v0.5c0.4-0.4,0.8-0.6,1.4-0.6
	c0.6-0.1,1.2,0.3,1.2,1c0,0.1,0,0.2,0,0.3v2.7L128.7,107.9z"/>
<path class="st1" d="M130.7,107.2v-0.6l2.9-1.3l-2.9-1.3v-0.6l3.6,1.7v0.6L130.7,107.2z"/>
</svg>
