<?xml version="1.0" encoding="utf-8"?>
<!-- Generator: Adobe Illustrator 22.0.1, SVG Export Plug-In . SVG Version: 6.00 Build 0)  -->
<svg version="1.1" xmlns="http://www.w3.org/2000/svg" xmlns:xlink="http://www.w3.org/1999/xlink" x="0px" y="0px" width="300px"
	 height="160.83px" viewBox="0 0 300 160.83" enable-background="new 0 0 300 160.83" xml:space="preserve">
<g id="Layer_1">
	<g>
		<g>
			<path opacity="0.5" fill="#989FA1" d="M151.72,146.05c-0.29,0-0.57,0-0.85-0.01c0,0-0.01,0-0.01,0c-0.53,0-1.07-0.02-1.6-0.04
				c-1.28-0.04-2.53-0.13-3.73-0.25c-31.86-3.15-55.89-29.71-55.89-61.78c0-32.04,24-58.59,55.84-61.77
				c1.25-0.13,2.5-0.21,3.72-0.26c0.55-0.03,1.12-0.04,1.69-0.04c0.54-0.02,1.13-0.02,1.7,0c0.59,0.02,1.12,0.02,1.68,0.04
				c1.21,0.04,2.46,0.13,3.71,0.26c31.83,3.18,55.84,29.73,55.84,61.77c0,32.07-24.03,58.63-55.9,61.78
				c-1.19,0.12-2.45,0.21-3.73,0.25c-0.53,0.03-1.08,0.04-1.62,0.04C152.29,146.05,152.01,146.05,151.72,146.05z M151.7,22.64
				c-0.27,0-0.54,0-0.81,0.01c-0.57,0-1.12,0.02-1.67,0.04c-1.21,0.04-2.44,0.13-3.67,0.25c-31.45,3.14-55.16,29.37-55.16,61.02
				c0,31.68,23.74,57.92,55.22,61.03c1.18,0.12,2.42,0.2,3.68,0.25c0.53,0.03,1.06,0.04,1.59,0.04c0.29,0.01,0.55-0.03,0.85,0.01
				c0.27,0,0.54,0,0.81-0.01c0.55,0,1.08-0.02,1.6-0.04c1.27-0.04,2.51-0.13,3.69-0.25c31.48-3.11,55.22-29.35,55.22-61.03
				c0-31.65-23.72-57.88-55.17-61.02c-1.24-0.13-2.47-0.21-3.67-0.25c-0.55-0.03-1.1-0.04-1.66-0.04c-0.29-0.01-0.56-0.01-0.84-0.01
				C151.71,22.64,151.71,22.64,151.7,22.64z"/>
			<circle fill="#ECEFEF" cx="151.17" cy="83.9" r="53.29"/>
			<path opacity="0.11" fill="#989FA1" d="M153.33,145.85l-0.66-0.36c3.75-6.85,15.99-31.55,15.99-61.59
				c0-30.08-12.23-54.64-15.98-61.45l0.66-0.36c3.77,6.85,16.07,31.55,16.07,61.81C169.41,114.12,157.1,138.96,153.33,145.85z"/>
			<path opacity="0.11" fill="#989FA1" d="M155.67,145.94l-0.41-0.63c9.91-6.39,42.26-29.71,42.26-61.41
				c0-32.28-32.26-55.06-42.14-61.27l0.4-0.63c9.97,6.26,42.5,29.24,42.5,61.9C198.27,115.98,165.67,139.5,155.67,145.94z"/>
			<path opacity="0.11" fill="#989FA1" d="M150.11,145.85c-3.77-6.89-16.08-31.74-16.08-61.95c0-30.25,12.3-54.96,16.07-61.81
				l0.66,0.36c-3.75,6.81-15.98,31.38-15.98,61.45c0,30.03,12.24,54.73,15.99,61.59L150.11,145.85z"/>
			<path opacity="0.11" fill="#989FA1" d="M147.76,145.94c-9.99-6.44-42.59-29.96-42.59-62.04c0-32.67,32.52-55.64,42.49-61.9
				l0.4,0.63c-9.88,6.21-42.13,28.98-42.13,61.27c0,31.7,32.34,55.02,42.25,61.41L147.76,145.94z"/>
			<path opacity="0.11" fill="#989FA1" d="M195.42,127.64c-12.08-8.06-26.81-12.15-43.77-12.15c-16.93,0-31.63,4.08-43.67,12.12
				l-0.42-0.62c12.17-8.12,27-12.24,44.08-12.24c17.11,0,31.98,4.13,44.19,12.28L195.42,127.64z"/>
			<path opacity="0.11" fill="#989FA1" d="M151.79,53.21c-17.11,0-31.98-4.13-44.18-12.28l0.42-0.62
				c12.08,8.06,26.8,12.15,43.76,12.15c16.94,0,31.63-4.08,43.67-12.12l0.42,0.62C183.71,49.09,168.88,53.21,151.79,53.21z"/>
			<rect x="90.01" y="83.6" opacity="0.11" fill="#989FA1" width="123.42" height="0.75"/>
		</g>
		<path fill="#989FA1" d="M81.84,108.16c-2.24,0-4.15-0.15-5.72-0.42c-3.75-0.66-5.68-1.77-5.88-3.4c-0.51-4.12,11-9.41,12.32-10
			l0.31,0.68c-3.43,1.54-12.26,6.2-11.88,9.23c0.15,1.23,1.98,2.18,5.27,2.76c31.56,5.52,141.68-41.47,146.68-58.11
			c0.54-1.79-0.23-3.11-2.35-4.03c-5.02-2.18-19.17,1.99-19.31,2.03l-0.21-0.72c0.59-0.18,14.56-4.29,19.82-2
			c3.11,1.35,3.23,3.43,2.77,4.94c-2.01,6.67-22.52,20.97-63.83,37.86C121.41,102.68,95.46,108.16,81.84,108.16z"/>
		<polygon fill="#989FA1" points="82.15,102.03 81.41,101.92 82.46,94.78 75.32,93.73 75.42,92.98 83.31,94.14 		"/>
		<g>
			<path fill="#EEE679" d="M174.8,74.29v20.12c0,1.75-1.25,3.91-2.77,4.79l-17.42,10.06c-1.52,0.87-4.02,0.87-5.54,0l-17.42-10.06
				c-1.52-0.88-2.77-3.04-2.77-4.79V74.29c0-1.75,1.25-3.91,2.77-4.79l17.42-10.06c1.52-0.87,4.02-0.87,5.54,0l17.42,10.06
				C173.55,70.38,174.8,72.54,174.8,74.29z"/>
		</g>
		<path fill="#EEE679" d="M221.06,114.65c-29.08,0-122.28-36.52-141.58-57.49c-2.2-2.39-2.92-4.12-2.19-5.28
			c2.24-3.56,18.35,1.24,20.18,1.8l-0.22,0.72c-4.82-1.47-17.69-4.72-19.32-2.12c-0.51,0.81,0.22,2.32,2.11,4.37
			c11.9,12.94,48.84,29.78,76.86,40.28c36.09,13.52,64.56,19.82,70.85,15.69c1.41-0.93,1.65-2.37,0.74-4.4
			c-2.23-5-9.7-9.08-9.77-9.12l0.36-0.66c0.32,0.17,7.76,4.24,10.1,9.48c1.33,2.98,0.18,4.55-1.02,5.33
			C226.71,114.21,224.27,114.65,221.06,114.65z"/>
		<path fill="#EEE679" d="M131.42,160.03c-0.27,0-0.52-0.05-0.76-0.15c-3.89-1.65-2.28-16.82-2.08-18.55l0.75,0.09
			c-0.52,4.53-1.23,16.56,1.63,17.77c0.94,0.4,2.36-0.52,4.1-2.65c11.15-13.62,22.78-52.52,29.35-81.7
			c8.47-37.6,10.83-66.65,5.88-72.29c-1.11-1.26-2.56-1.3-4.45-0.13c-4.65,2.9-7.67,10.85-7.7,10.93l-0.7-0.26
			c0.13-0.34,3.14-8.27,8.01-11.3c2.77-1.72,4.47-0.8,5.41,0.27c11.53,13.13-15.13,130.44-35.22,154.96
			C133.97,159.03,132.58,160.03,131.42,160.03z"/>
		<polygon fill="#EEE679" points="218.64,106.16 218.19,98.2 226.14,97.75 226.19,98.5 218.98,98.91 219.39,106.12 		"/>
		<polygon fill="#EEE679" points="157.35,14.14 155.26,6.45 155.99,6.25 157.88,13.22 164.85,11.33 165.04,12.05 		"/>
		<g>
			<g>
				<path fill="#FFFFFF" d="M152.84,93.37v2.32h-1.57v-2.29c-2.63-0.15-4.61-1.23-5.89-2.7l1.29-1.62c1,1.13,2.57,2.19,4.61,2.39
					v-6.25c-2.63-0.7-5.35-1.6-5.35-4.76c0-2.68,2.26-4.56,5.35-4.76v-2.34h1.57v2.39c2.14,0.18,3.83,1.03,5.07,2.34l-1.29,1.57
					c-1-1.13-2.34-1.75-3.78-1.96v5.58c2.65,0.75,5.46,1.72,5.46,5.1C158.3,90.69,156.83,93.09,152.84,93.37z M151.27,82.87v-5.25
					c-1.85,0.1-3.14,1.18-3.14,2.7C148.13,81.79,149.55,82.38,151.27,82.87z M156.11,88.56c0-1.75-1.49-2.39-3.27-2.93v5.82
					C155.31,91.23,156.11,89.74,156.11,88.56z"/>
			</g>
		</g>
	</g>
</g>
<g id="Layer_2">
</g>
<g id="Layer_3">
</g>
<g id="Layer_4">
</g>
<g id="Layer_5">
</g>
<g id="Layer_6">
</g>
</svg>
