<svg xmlns="http://www.w3.org/2000/svg" preserveAspectRatio="xMidYMid" width="58" height="52" viewBox="0 0 58 52"><defs><style>.cls-1 { fill: #b6bcbd; fill-rule: evenodd; }</style></defs><path d="M51.747 19.736c-3.07 0-5.63 2.228-6.155 5.155H35.155c-.26-1.46-1.03-2.74-2.116-3.67l5.27-9.04c.645.23 1.337.35 2.056.35 3.45 0 6.254-2.81 6.254-6.26 0-3.46-2.803-6.27-6.25-6.27-3.45 0-6.253 2.81-6.253 6.268 0 1.94.885 3.675 2.27 4.825l-5.266 9.02c-.66-.24-1.376-.373-2.122-.373-.752 0-1.474.132-2.143.38l-5.25-9.026c1.388-1.144 2.273-2.88 2.273-4.82 0-3.46-2.805-6.27-6.253-6.27S11.37 2.814 11.37 6.27c0 3.453 2.807 6.263 6.255 6.263.72 0 1.41-.126 2.053-.35l5.266 9.05c-1.078.923-1.84 2.204-2.1 3.658h-10.44c-.523-2.925-3.083-5.153-6.154-5.153C2.805 19.737 0 22.547 0 26s2.805 6.265 6.253 6.265c3.07 0 5.63-2.23 6.155-5.156h10.437c.262 1.46 1.032 2.75 2.12 3.67l-5.22 9.06c-.662-.24-1.375-.37-2.118-.37-3.448 0-6.254 2.81-6.254 6.26 0 3.453 2.806 6.263 6.254 6.263 3.448 0 6.253-2.81 6.253-6.266 0-1.915-.863-3.63-2.22-4.78l5.22-9.06c.663.24 1.377.37 2.12.37.744 0 1.457-.13 2.12-.37l5.22 9.06c-1.357 1.15-2.22 2.865-2.22 4.78 0 3.455 2.805 6.265 6.253 6.265s6.254-2.81 6.254-6.266c0-3.454-2.806-6.264-6.254-6.264-.743 0-1.456.132-2.118.37l-5.22-9.058c1.088-.925 1.858-2.21 2.12-3.676h10.437c.524 2.924 3.084 5.153 6.155 5.153C55.195 32.264 58 29.454 58 26s-2.805-6.264-6.253-6.264zM40.373 2.216c2.228 0 4.04 1.817 4.04 4.05 0 2.23-1.812 4.046-4.04 4.046-2.227 0-4.04-1.816-4.04-4.047 0-2.232 1.813-4.048 4.04-4.048zm-26.786 4.05c0-2.233 1.812-4.05 4.04-4.05 2.227 0 4.04 1.817 4.04 4.05 0 2.23-1.813 4.046-4.04 4.046-2.228 0-4.04-1.816-4.04-4.047zm-7.334 23.78c-2.227 0-4.04-1.814-4.04-4.046s1.813-4.047 4.04-4.047c2.228 0 4.04 1.815 4.04 4.047 0 2.232-1.812 4.047-4.04 4.047zm11.374 19.736c-2.228 0-4.04-1.815-4.04-4.047 0-2.23 1.812-4.046 4.04-4.046 2.227 0 4.04 1.81 4.04 4.04s-1.813 4.045-4.04 4.045zm26.786-4.047c0 2.232-1.812 4.047-4.04 4.047-2.227 0-4.04-1.815-4.04-4.047 0-2.23 1.813-4.046 4.04-4.046 2.228 0 4.04 1.81 4.04 4.04zM29 30.047c-2.227 0-4.04-1.815-4.04-4.047 0-2.232 1.813-4.047 4.04-4.047 2.227 0 4.04 1.815 4.04 4.047 0 2.232-1.813 4.047-4.04 4.047zm22.747 0c-2.228 0-4.04-1.815-4.04-4.047 0-2.232 1.812-4.047 4.04-4.047 2.227 0 4.04 1.815 4.04 4.047 0 2.232-1.813 4.047-4.04 4.047z" class="cls-1"/></svg>