<?xml version="1.0" encoding="utf-8"?>
<!-- Generator: Adobe Illustrator 22.0.1, SVG Export Plug-In . SVG Version: 6.00 Build 0)  -->
<svg version="1.1" xmlns="http://www.w3.org/2000/svg" xmlns:xlink="http://www.w3.org/1999/xlink" x="0px" y="0px" width="300px"
	 height="141.63px" viewBox="0 0 300 141.63" enable-background="new 0 0 300 141.63" xml:space="preserve">
<g id="Layer_1">
	<g>
		<g>
			<path fill="#FFFFFF" d="M85.47,38.41v37.52h129.08V38.41H85.47z M92.37,75.51V45.29h115.28v30.21H92.37z"/>
			<path fill="#AEB4B5" d="M85.04,37.97v38.39h129.93V37.97H85.04z M214.12,75.51H85.89V38.83h128.22V75.51z"/>
		</g>
		<g>
			<path fill="#FFFFFF" d="M91.94,44.87v31.07h116.15V44.87H91.94z M92.37,75.51V45.29h115.28v30.21H92.37z"/>
			<path fill="#AEB4B5" d="M91.52,44.44v31.92h116.99V44.44H91.52z M207.65,75.51H92.37V45.29h115.28V75.51z"/>
		</g>
		<g>
			<g>
				<polygon fill="#F4F7F7" points="151.84,9.35 150.01,9.35 148.18,9.35 144.99,18.67 147.37,27.99 147.37,53.45 152.65,53.45 
					152.65,27.99 155.03,18.67 				"/>
				<path fill="#989FA1" d="M153.08,53.88h-6.14V27.99l-2.4-9.34l3.34-9.73h4.26l3.34,9.73l-2.41,9.45L153.08,53.88z M147.79,53.02
					h4.43V27.99l2.36-9.31l-3.06-8.92h-3.04l-3.06,8.91l2.35,9.2L147.79,53.02z"/>
			</g>
			<g>
				<polygon fill="#EEE679" points="157.41,76.37 157.41,61.9 156.55,61.9 155.32,53.45 144.7,53.45 143.47,61.9 142.61,61.9 
					142.61,76.37 				"/>
				<polygon fill="#989FA1" points="157.84,76.37 156.98,76.37 156.98,62.33 156.18,62.33 154.95,53.88 145.07,53.88 143.84,62.33 
					143.03,62.33 143.03,76.37 142.18,76.37 142.18,61.48 143.1,61.48 144.33,53.02 155.69,53.02 156.92,61.48 157.84,61.48 				"/>
			</g>
		</g>
		<g>
			<path fill="#F4F7F7" d="M119.7,90.93l-1.36-37.94c-0.11-0.49-0.3-0.93-0.55-1.3c-1.22-1.86-1.88-4.04-1.86-6.27l0.23-22.15
				c0-0.18,0.15-0.33,0.33-0.33c0.73,0,1.33-0.59,1.33-1.32l0-5.22c0-0.92,0.26-1.83,0.8-2.57c5.62-7.68,16.67-4.64,18.66-3.05
				c0.38,0.31,0.93,0.26,1.26-0.1c0.33-0.36,0.33-0.91,0-1.27l-0.61-0.71c-6.25-7.25-23.77-8.15-33.35-7.39
				c-1.11,0.09-2.16,0.55-2.97,1.31l-1.29,1.21c-0.84,0.84-1.75,1.02-2.65,0.84c-1.05-0.2-1.89-0.97-2.35-1.93
				c-0.27-0.58-0.65-1.15-1.06-1.15l-4.91,0c-0.83,0-1.51,0.67-1.51,1.51v10.73c0,0.83,0.67,1.51,1.51,1.51h4.91
				c0.83,0,1.51-0.68,1.51-1.5c0-0.64,0.31-1.24,0.85-1.58c0.61-0.38,1.28-0.66,2-0.66c2.56,0,4.43,0.56,5.79,1.39
				c1.34,0.81,2.13,2.27,2.13,3.84l0,4.81c0,0.73,0.59,1.32,1.32,1.32h0.28c0.18,0,0.33,0.15,0.33,0.33l0.33,22.13
				c0.03,2.25-0.64,4.43-1.86,6.32c-0.24,0.37-0.42,0.8-0.53,1.27l-1.36,37.94c0,2.39,1.36,4.33,3.04,4.33h8.57
				C118.34,95.25,119.7,93.31,119.7,90.93z"/>
			<path fill="#989FA1" d="M116.66,95.68h-8.57c-1.91,0-3.46-2.13-3.46-4.75l1.36-37.96c0.13-0.59,0.32-1.07,0.59-1.49
				c1.2-1.87,1.82-3.97,1.79-6.09l-0.33-22.03h-0.19c-0.97,0-1.75-0.79-1.75-1.75V16.8c0-1.42-0.74-2.75-1.92-3.47
				c-1.46-0.88-3.33-1.33-5.57-1.33c-0.56,0-1.15,0.19-1.78,0.59c-0.4,0.25-0.65,0.72-0.65,1.22c0,0.51-0.2,0.99-0.56,1.36
				c-0.37,0.37-0.85,0.57-1.37,0.57h-4.91c-1.07,0-1.93-0.87-1.93-1.93V3.09c0-1.07,0.87-1.93,1.93-1.93h4.91
				c0.53,0,1.01,0.46,1.45,1.4c0.43,0.9,1.19,1.53,2.04,1.7c0.89,0.17,1.61-0.06,2.27-0.73l1.3-1.22c0.88-0.82,2.02-1.33,3.23-1.42
				c9.46-0.75,27.2-0.01,33.7,7.53l0.61,0.71c0.47,0.51,0.47,1.32-0.01,1.84s-1.29,0.58-1.84,0.14c-1.16-0.93-5.44-2.3-9.83-1.72
				c-3.51,0.47-6.28,2.04-8.21,4.69c-0.47,0.64-0.72,1.46-0.72,2.32v5.22c0,0.47-0.18,0.91-0.52,1.24
				c-0.31,0.31-0.71,0.48-1.14,0.51l-0.23,22.06c-0.02,2.14,0.6,4.22,1.79,6.03c0.28,0.43,0.49,0.92,0.61,1.44l1.37,38.03
				C120.12,93.55,118.57,95.68,116.66,95.68z M98.61,11.15c2.4,0,4.42,0.49,6.01,1.45c1.44,0.87,2.34,2.48,2.34,4.2v4.81
				c0,0.49,0.4,0.89,0.89,0.89h0.28c0.41,0,0.76,0.34,0.76,0.75l0.33,22.13c0.03,2.28-0.64,4.55-1.93,6.56
				c-0.22,0.34-0.38,0.72-0.47,1.14l-1.35,37.86c0,2.13,1.17,3.88,2.61,3.88h8.57c1.44,0,2.61-1.74,2.61-3.89L117.91,53
				c-0.09-0.35-0.25-0.74-0.48-1.08c-1.28-1.95-1.95-4.21-1.93-6.51l0.23-22.15c0-0.42,0.34-0.75,0.75-0.75c0,0,0.01,0,0.01,0
				c0.24,0,0.46-0.09,0.63-0.26c0.17-0.17,0.26-0.39,0.26-0.63v-5.22c0-1.06,0.31-2.03,0.89-2.82c2.05-2.8,5.09-4.54,8.79-5.03
				c4.86-0.64,9.29,0.95,10.48,1.9c0.21,0.17,0.5,0.14,0.68-0.05c0.18-0.19,0.18-0.49,0-0.69l-0.62-0.72
				c-6.29-7.3-24.33-7.93-32.99-7.24c-1.01,0.08-1.98,0.5-2.72,1.19l-1.29,1.21c-0.85,0.85-1.87,1.17-3.03,0.95
				c-1.12-0.21-2.11-1.02-2.65-2.17c-0.35-0.74-0.61-0.91-0.68-0.91h-4.91c-0.59,0-1.08,0.48-1.08,1.08v10.73
				c0,0.59,0.48,1.08,1.08,1.08h4.91c0.29,0,0.56-0.11,0.76-0.32c0.2-0.2,0.31-0.47,0.31-0.75c0-0.79,0.4-1.54,1.04-1.94
				C97.15,11.39,97.88,11.15,98.61,11.15z"/>
		</g>
		<g>
			<path fill="#F4F7F7" d="M197.51,18.92c-2.74-4.8-8.65-7.31-14.51-6.11l5.66,9.95l-3.15,5.58h-6.04l-5.83-10.07
				c-3.84,4.49-4.56,10.7-1.82,15.47c1.41,2.4,3.67,4.39,6.21,5.49c2.42,1.18,3.3,2.97,3.26,5.4v46.49c0,3.27,2.65,5.92,5.92,5.92
				c3.27,0,5.92-2.65,5.92-5.92V39.57c0.04-1.58,0.21-2.8,1.3-3.76C199.33,31.24,200.57,24.24,197.51,18.92z"/>
			<path fill="#989FA1" d="M187.2,97.48c-3.5,0-6.35-2.85-6.35-6.35V44.64c0.03-2.44-0.9-3.99-3.02-5.02
				c-2.61-1.13-4.95-3.19-6.39-5.66c-2.84-4.93-2.09-11.35,1.86-15.97l0.39-0.46l6.01,10.38h5.54l2.91-5.15l-5.83-10.25l0.58-0.12
				c5.99-1.23,12.15,1.37,14.97,6.31l0,0c3.19,5.55,1.89,12.71-3.17,17.41c-0.94,0.82-1.13,1.85-1.17,3.46v51.55
				C193.55,94.63,190.7,97.48,187.2,97.48z M173.57,19.02c-3.38,4.3-3.95,10.06-1.39,14.51c1.35,2.31,3.54,4.25,6.01,5.31
				c2.44,1.19,3.56,3.03,3.52,5.8v46.49c0,3.03,2.46,5.49,5.49,5.49c3.03,0,5.49-2.46,5.49-5.49V39.57
				c0.03-1.52,0.17-2.97,1.45-4.09c4.75-4.42,5.99-11.14,3-16.35l0,0c-2.55-4.47-8.03-6.89-13.47-6.01l5.48,9.64l-3.4,6h-6.54
				L173.57,19.02z"/>
		</g>
		<g>
			<rect x="76.97" y="75.94" fill="#FFFFFF" width="146.05" height="64.28"/>
			<path fill="#AEB4B5" d="M223.45,140.65H76.55V75.51h146.91V140.65z M77.4,139.79h145.2V76.36H77.4V139.79z"/>
		</g>
		
			<rect x="122.42" y="39.61" transform="matrix(-1.836970e-16 1 -1 -1.836970e-16 258.0776 -41.9224)" fill="#ECEFEF" width="55.16" height="136.93"/>
		<path fill="#AEB4B5" d="M128.6,87.5h-13.54V75.51h13.54V87.5z M115.92,86.65h11.82V76.37h-11.82V86.65z"/>
		<path fill="#AEB4B5" d="M184.96,87.5h-13.54V75.51h13.54V87.5z M172.28,86.65h11.82V76.37h-11.82V86.65z"/>
		<g>
			<path fill="#989FA1" d="M114.65,114.28v-8.81l-3.49,8.81h-0.86l-3.51-8.81v8.81h-2v-11.41h2.82l3.11,7.83l3.1-7.83h2.82v11.41
				H114.65z"/>
			<path fill="#989FA1" d="M123.18,114.28v-4.74l-4.43-6.67h2.29l3.13,4.87l3.13-4.87h2.29l-4.41,6.67v4.74H123.18z"/>
			<path fill="#989FA1" d="M139.67,114.28v-9.65h-3.46v-1.76h8.91v1.76h-3.46v9.65H139.67z"/>
			<path fill="#989FA1" d="M146.76,108.58c0-3.4,2.41-5.9,5.83-5.9c3.4,0,5.83,2.5,5.83,5.9c0,3.4-2.43,5.9-5.83,5.9
				C149.17,114.48,146.76,111.99,146.76,108.58z M156.37,108.58c0-2.36-1.49-4.12-3.78-4.12c-2.31,0-3.78,1.76-3.78,4.12
				c0,2.34,1.47,4.12,3.78,4.12C154.88,112.7,156.37,110.93,156.37,108.58z"/>
			<path fill="#989FA1" d="M160.7,108.58c0-3.4,2.41-5.9,5.83-5.9c3.4,0,5.83,2.5,5.83,5.9c0,3.4-2.43,5.9-5.83,5.9
				C163.11,114.48,160.7,111.99,160.7,108.58z M170.31,108.58c0-2.36-1.49-4.12-3.78-4.12c-2.31,0-3.78,1.76-3.78,4.12
				c0,2.34,1.47,4.12,3.78,4.12C168.83,112.7,170.31,110.93,170.31,108.58z"/>
			<path fill="#989FA1" d="M175,114.28v-11.41h2v9.65h5.03v1.76H175z"/>
			<path fill="#989FA1" d="M183.91,112.67l1.13-1.56c0.77,0.84,2.02,1.59,3.61,1.59c1.64,0,2.28-0.8,2.28-1.57
				c0-2.4-6.64-0.91-6.64-5.1c0-1.9,1.64-3.35,4.16-3.35c1.76,0,3.22,0.58,4.26,1.61l-1.13,1.49c-0.91-0.91-2.12-1.32-3.32-1.32
				c-1.16,0-1.92,0.58-1.92,1.42c0,2.14,6.64,0.82,6.64,5.06c0,1.9-1.35,3.54-4.41,3.54C186.46,114.48,184.94,113.73,183.91,112.67z
				"/>
		</g>
	</g>
</g>
<g id="Layer_2">
</g>
<g id="Layer_3">
</g>
<g id="Layer_4">
</g>
<g id="Layer_5">
</g>
<g id="Layer_6">
</g>
</svg>
