<?xml version="1.0" encoding="utf-8"?>
<!-- Generator: Adobe Illustrator 22.0.1, SVG Export Plug-In . SVG Version: 6.00 Build 0)  -->
<svg version="1.1" xmlns="http://www.w3.org/2000/svg" xmlns:xlink="http://www.w3.org/1999/xlink" x="0px" y="0px" width="300px"
	 height="143.37px" viewBox="0 0 300 143.37" enable-background="new 0 0 300 143.37" xml:space="preserve">
<g id="Layer_1">
	<g>
		<g>
			<rect id="Screen_10_" x="71.72" y="41.8" fill="#EEE679" width="138.32" height="86.45"/>
			<path fill="#989FA1" d="M209.08,141.43H72.69c-16.04,0-23.42-3.62-23.73-3.77l-0.24-0.12v-1.93h184.32v1.93l-0.24,0.12
				C232.5,137.81,225.12,141.43,209.08,141.43z M49.58,137c1.38,0.61,8.85,3.57,23.11,3.57h136.4c14.25,0,21.72-2.96,23.11-3.57
				v-0.54H49.58V137z"/>
			<path fill="#989FA1" d="M140.88,39.64c-0.73,0-1.32-0.59-1.32-1.32s0.59-1.32,1.32-1.32s1.32,0.59,1.32,1.32
				S141.61,39.64,140.88,39.64z M140.88,37.85c-0.26,0-0.47,0.21-0.47,0.47c0,0.26,0.21,0.47,0.47,0.47s0.47-0.21,0.47-0.47
				C141.35,38.06,141.14,37.85,140.88,37.85z"/>
			<path fill="#989FA1" d="M210.47,128.67H71.3v-87.3h139.17V128.67z M72.15,127.82h137.46V42.23H72.15V127.82z"/>
			<path fill="#989FA1" d="M156.95,138.26h-32.13c-1.17,0-2.12-0.95-2.12-2.12v-0.43l0.43-0.1h35.95v0.43
				C159.07,137.31,158.12,138.26,156.95,138.26z M123.61,136.47c0.16,0.56,0.64,0.93,1.21,0.93h32.13c0.58,0,1.08-0.4,1.22-0.93
				H123.61z"/>
			<path fill="#989FA1" d="M218.13,136.46H63.55V39.39c0-3.11,2.53-5.65,5.65-5.65h143.28c3.11,0,5.65,2.53,5.65,5.65V136.46z
				 M64.4,135.6h152.87V39.39c0-2.64-2.15-4.79-4.79-4.79H69.2c-2.64,0-4.79,2.15-4.79,4.79V135.6z"/>
		</g>
		<path fill="#FFFFFF" d="M140.88,112.44c-1.14,0-2.28-0.25-3.15-0.76l-18.04-10.42c-1.77-1.01-3.16-3.4-3.16-5.45V74.97
			c0-2.05,1.39-4.45,3.16-5.47l18.04-10.42c1.74-0.99,4.57-1,6.31,0l18.06,10.43c1.77,1.02,3.15,3.42,3.15,5.47v20.84
			c0,2.01-1.41,4.46-3.15,5.46l-18.05,10.42C143.17,112.19,142.03,112.44,140.88,112.44z M140.88,59.47c-0.94,0-1.88,0.2-2.59,0.6
			l-18.04,10.42c-1.4,0.81-2.59,2.86-2.59,4.48v20.84c0,1.62,1.18,3.67,2.59,4.47l18.05,10.43c1.4,0.81,3.77,0.81,5.17,0
			l18.06-10.43c1.4-0.8,2.58-2.85,2.58-4.47V74.97c0-1.62-1.18-3.67-2.58-4.48l-18.05-10.42C142.77,59.67,141.83,59.47,140.88,59.47
			z"/>
		<path fill="#FFFFFF" d="M155.07,81.22v-3.17c0-2.44-1.87-3.18-5.5-3.18h-0.16c-8.67,0-7.9-3.25-8.14-4.43h-0.13
			c-0.25,1.17,0.58,4.43-8.09,4.43h-0.23c-3.62,0-5.49,0.74-5.49,3.18v2.45l29.59,8.55v0.48h0.01v3.06c0,3.49-1.69,5.42-7.37,5.42
			h-0.29c-4.43,0-7.15,0.94-7.15,4.44h-1.87c0-3.5-2.73-4.44-7.15-4.44h-0.29c-5.68,0-7.36-1.93-7.36-5.42v-3.06h1.87v3.18
			c0,2.43,1.87,3.18,5.49,3.18h0.16c8.67,0,7.9,3.24,8.15,4.43h0.13c0.24-1.19-0.58-4.43,8.09-4.43h0.22c3.63,0,5.5-0.75,5.5-3.18
			v-1.84l-29.6-8.55v-4.16c0-3.49,1.68-5.42,7.36-5.42h0.29c4.43,0,7.15-0.94,7.15-4.43h1.87c0,3.49,2.73,4.43,7.15,4.43h0.29
			c5.68,0,7.37,1.93,7.37,5.42v3.06H155.07z"/>
		<g>
			<g>
				<g>
					<path fill="#FFFFFF" d="M248.17,99.99h-92.5c-1.47,0-2.68-1.21-2.68-2.68V54.15c0-1.47,1.21-2.68,2.68-2.68h92.5
						c1.47,0,2.68,1.21,2.68,2.68v43.16C250.85,98.79,249.64,99.99,248.17,99.99z"/>
					<path fill="#9D9D9D" d="M248.17,100.42h-92.5c-1.71,0-3.11-1.4-3.11-3.11V54.15c0-1.71,1.39-3.11,3.11-3.11h92.5
						c1.71,0,3.11,1.4,3.11,3.11v43.16C251.28,99.03,249.88,100.42,248.17,100.42z M155.67,51.9c-1.24,0-2.25,1.01-2.25,2.25v43.16
						c0,1.24,1.01,2.25,2.25,2.25h92.5c1.24,0,2.25-1.01,2.25-2.25V54.15c0-1.24-1.01-2.25-2.25-2.25H155.67z"/>
				</g>
				
					<rect x="180.87" y="30.02" transform="matrix(-1.836970e-16 1 -1 -1.836970e-16 277.65 -126.1841)" fill="#ECEFEF" width="42.09" height="91.43"/>
				<path fill="#9D9D9D" d="M201.92,16.15c-4.06,0-7.36-3.3-7.36-7.36s3.3-7.36,7.36-7.36s7.36,3.3,7.36,7.36
					S205.97,16.15,201.92,16.15z M201.92,2.29c-3.59,0-6.5,2.92-6.5,6.5s2.92,6.5,6.5,6.5s6.5-2.92,6.5-6.5S205.5,2.29,201.92,2.29z
					"/>
				
					<rect x="158.37" y="31.68" transform="matrix(0.5858 -0.8104 0.8104 0.5858 49.4573 161.0002)" fill="#9D9D9D" width="47.76" height="0.86"/>
				
					<rect x="221.15" y="8.23" transform="matrix(0.8108 -0.5854 0.5854 0.8108 23.1349 135.7851)" fill="#9D9D9D" width="0.86" height="47.76"/>
			</g>
			<g>
				<g>
					<g>
						<path fill="#989FA1" d="M180.18,69.31c3.8,0,6.38,2.85,6.38,6.65c0,3.8-2.58,6.65-6.38,6.65c-3.82,0-6.38-2.85-6.38-6.65
							C173.8,72.17,176.36,69.31,180.18,69.31z M180.18,70.74c-2.89,0-4.72,2.22-4.72,5.23c0,2.99,1.83,5.22,4.72,5.22
							c2.87,0,4.72-2.24,4.72-5.22C184.9,72.96,183.05,70.74,180.18,70.74z"/>
						<path fill="#989FA1" d="M191.57,69.52h5.17c2.58,0,4.03,1.77,4.03,3.88c0,2.1-1.48,3.88-4.03,3.88h-3.57v5.11h-1.6V69.52z
							 M196.55,70.95h-3.37v4.9h3.37c1.52,0,2.56-1,2.56-2.45C199.11,71.95,198.07,70.95,196.55,70.95z"/>
						<path fill="#989FA1" d="M205.4,69.52h8.43v1.43H207v4.15h6.69v1.43H207v4.43h6.83v1.43h-8.43V69.52z"/>
						<path fill="#989FA1" d="M220.47,72.01v10.37h-1.6V69.52h1.64l7.4,10.16V69.52h1.6v12.86h-1.54L220.47,72.01z"/>
					</g>
				</g>
			</g>
		</g>
	</g>
</g>
<g id="Layer_2">
</g>
<g id="Layer_3">
</g>
<g id="Layer_4">
</g>
<g id="Layer_5">
</g>
<g id="Layer_6">
</g>
</svg>
