<svg xmlns="http://www.w3.org/2000/svg" preserveAspectRatio="xMidYMid" width="65" height="51" viewBox="0 0 65 51"><defs><style>.cls-1 { fill: #b6bcbd; fill-rule: evenodd; }</style></defs><path d="M60.63 51H16.947c-2.412 0-4.368-1.962-4.368-4.383v-.777l-.72.17c-2.347.564-4.704-.888-5.265-3.242L.125 15.602c-.56-2.355.886-4.72 3.23-5.283L45.846.12c2.347-.564 4.704.89 5.265 3.243l2.6 10.937h6.914c2.412 0 4.37 1.964 4.37 4.385v27.932C65 49.037 63.04 51 60.63 51zM8.725 42.258c.28 1.177 1.458 1.903 2.632 1.622l1.21-.29v-.067l.012-.002V26.14L5.3 27.88l3.425 14.38zM4.79 25.748l7.788-1.868v-4.506l-8.805 2.112L4.79 25.75zM48.984 3.88c-.28-1.178-1.46-1.903-2.633-1.622L3.87 12.45c-1.173.282-1.897 1.464-1.616 2.642l1.015 4.263 9.63-2.31c.646-1.61 2.213-2.744 4.05-2.744h7.38L50 8.14l-1.014-4.26zm1.524 6.394l-16.793 4.03H51.47l-.96-4.03zm12.305 8.413c0-1.21-.977-2.192-2.184-2.192H16.94c-1.207 0-2.184.98-2.184 2.192v4.383H62.81v-4.383zm0 6.574h-48.05v4.39h48.052v-4.39zm0 6.58h-48.05v14.78c0 1.21.976 2.19 2.183 2.19H60.63c1.208 0 2.185-.98 2.185-2.19V31.835zm-5.46 11.25H50.8c-.603 0-1.092-.49-1.092-1.095s.49-1.096 1.092-1.096h6.553c.602 0 1.092.49 1.092 1.095 0 .603-.49 1.094-1.092 1.094zm0-4.674h-10.39c-.603 0-1.093-.49-1.093-1.096 0-.605.49-1.097 1.093-1.097h10.39c.602 0 1.092.493 1.092 1.097s-.49 1.095-1.092 1.095z" class="cls-1"/></svg>