<svg xmlns="http://www.w3.org/2000/svg" viewBox="0 0 240.96 112.97"><defs><style>.cls-1{fill:#ecefef;}.cls-2{fill:#fff;}.cls-3{fill:#989fa1;}.cls-4{fill:#eee679;}.cls-5,.cls-6{fill:#b7b7b7;}.cls-5{fill-rule:evenodd;}.cls-7{fill:none;}</style></defs><title>Javascript E-commerce-01</title><g id="Layer_2" data-name="Layer 2"><g id="Layer_6" data-name="Layer 6"><rect class="cls-1" x="0.38" y="7.96" width="162.46" height="91.85"/><path class="cls-2" d="M2.55.38H160.67a2.18,2.18,0,0,1,2.18,2.18V8a0,0,0,0,1,0,0H.38a0,0,0,0,1,0,0V2.55A2.18,2.18,0,0,1,2.55.38Z"/><path class="cls-3" d="M163.22,8.33H0V2.55A2.56,2.56,0,0,1,2.55,0H160.67a2.55,2.55,0,0,1,2.55,2.55ZM.75,7.58H162.47v-5a1.81,1.81,0,0,0-1.8-1.8H2.55a1.81,1.81,0,0,0-1.8,1.8Z"/><path class="cls-3" d="M157.73,5.42A1.26,1.26,0,1,1,159,4.17,1.26,1.26,0,0,1,157.73,5.42Zm0-1.76a.51.51,0,0,0-.51.51.5.5,0,0,0,.51.5.5.5,0,0,0,.5-.5A.5.5,0,0,0,157.73,3.66Z"/><path class="cls-3" d="M153.74,5.42A1.26,1.26,0,1,1,155,4.17,1.25,1.25,0,0,1,153.74,5.42Zm0-1.76a.51.51,0,0,0-.51.51.5.5,0,0,0,.51.5.5.5,0,0,0,.5-.5A.5.5,0,0,0,153.74,3.66Z"/><path class="cls-3" d="M149.75,5.42A1.26,1.26,0,1,1,151,4.17,1.25,1.25,0,0,1,149.75,5.42Zm0-1.76a.51.51,0,0,0-.51.51.5.5,0,0,0,.51.5.5.5,0,0,0,.5-.5A.5.5,0,0,0,149.75,3.66Z"/><polygon class="cls-3" points="162.89 84.87 162.47 84.87 162.47 99.43 0.76 99.43 0.76 8.34 162.47 8.34 162.47 65.91 162.89 65.91 162.99 65.91 163.22 65.91 163.22 7.58 0.01 7.58 0.01 100.18 163.22 100.18 163.22 84.87 162.99 84.87 162.89 84.87"/><path class="cls-2" d="M17.46,22.13h128.3a3,3,0,0,1,3,3V90.25a0,0,0,0,1,0,0H14.49a0,0,0,0,1,0,0V25.1A3,3,0,0,1,17.46,22.13Z"/><path class="cls-3" d="M148.64,84.87h-.28v5H14.87V25.11a2.6,2.6,0,0,1,2.6-2.6h128.3a2.61,2.61,0,0,1,2.6,2.6V65.91h.75V25.1a3.35,3.35,0,0,0-3.35-3.35H17.46a3.36,3.36,0,0,0-3.35,3.35V90.62h135V84.87h-.47Z"/><rect class="cls-4" x="98.58" y="68.1" width="38.86" height="13.48"/><path class="cls-2" d="M117.4,78.18A3.63,3.63,0,0,1,115,77.1l.68-.94a3,3,0,0,0,1.73.93v-2c-1.07-.27-2.19-.65-2.19-2a2.13,2.13,0,0,1,2.19-2v-.95h.83v1a3.52,3.52,0,0,1,2.08.94l-.68.91a2.66,2.66,0,0,0-1.4-.74V74c1.08.28,2.25.69,2.25,2.07a2.15,2.15,0,0,1-2.25,2.13v.93h-.83Zm0-4.42V72.14c-.58.07-.94.39-.94.85S116.85,73.6,117.4,73.76Zm.83,1.54v1.8c.72-.1,1-.53,1-.93S118.8,75.47,118.23,75.3Z"/><rect class="cls-3" x="76.19" y="40.6" width="34.98" height="0.75"/><rect class="cls-3" x="76.19" y="48.79" width="25.63" height="0.75"/><path class="cls-3" d="M124.08,46.3a3.22,3.22,0,0,1-2.13-.95l.6-.84a2.6,2.6,0,0,0,1.53.83V43.56c-.94-.24-1.93-.58-1.93-1.77A1.88,1.88,0,0,1,124.08,40v-.84h.74V40a3.08,3.08,0,0,1,1.84.83l-.6.8a2.41,2.41,0,0,0-1.24-.65v1.59c1,.24,2,.6,2,1.83a1.9,1.9,0,0,1-2,1.88v.83h-.74Zm0-3.91V41c-.51.07-.83.35-.83.76S123.6,42.25,124.08,42.39Zm.74,1.36v1.6c.63-.1.89-.47.89-.83S125.32,43.91,124.82,43.75Z"/><path class="cls-3" d="M129.38,46.21V41.48l-1,1-.62-.65,1.76-1.78h.93v6.12Z"/><path class="cls-3" d="M131.94,43.16c0-1.55.73-3.16,2.45-3.16s2.44,1.61,2.44,3.16-.72,3.16-2.44,3.16S131.94,44.69,131.94,43.16Zm3.8,0c0-1.18-.35-2.21-1.35-2.21S133,42,133,43.16s.35,2.21,1.35,2.21S135.74,44.32,135.74,43.16Z"/><path class="cls-5" d="M214.05,87.22c0-1.66-.8-3-2.34-3s-2.48,1.31-2.48,2.95c0,2,1.1,3,2.68,3a3.68,3.68,0,0,0,1.8-.42V88.43a3.49,3.49,0,0,1-1.59.36c-.64,0-1.19-.22-1.26-1H214C214,87.72,214.05,87.38,214.05,87.22Zm-3.21-.61c0-.73.45-1,.86-1s.82.3.82,1Z"/><path class="cls-5" d="M206.73,84.26a1.79,1.79,0,0,0-1.27.5l-.09-.4H204v7.56l1.62-.34V89.75a1.82,1.82,0,0,0,1.15.41c1.15,0,2.21-.94,2.21-3C208.93,85.28,207.86,84.26,206.73,84.26Zm-.39,4.46a1,1,0,0,1-.77-.3V86a1,1,0,0,1,.78-.32c.59,0,1,.66,1,1.51S206.94,88.72,206.34,88.72Z"/><polygon class="cls-5" points="201.71 83.87 203.34 83.53 203.34 82.21 201.71 82.55 201.71 83.87"/><rect class="cls-6" x="201.71" y="84.36" width="1.63" height="5.68"/><path class="cls-5" d="M200,84.84l-.1-.48h-1.4V90h1.62V86.19a1.16,1.16,0,0,1,1.23-.34V84.36A1.12,1.12,0,0,0,200,84.84Z"/><path class="cls-5" d="M196.73,83l-1.59.33v5.2a1.63,1.63,0,0,0,1.68,1.67,2.5,2.5,0,0,0,1.14-.22V88.62c-.21.09-1.23.38-1.23-.57V85.74H198V84.36h-1.23Z"/><path class="cls-5" d="M192.34,86c0-.25.21-.35.55-.35a3.58,3.58,0,0,1,1.61.42V84.55a4.32,4.32,0,0,0-1.61-.29c-1.31,0-2.19.68-2.19,1.83,0,1.79,2.46,1.5,2.46,2.27,0,.3-.25.4-.62.4a4.07,4.07,0,0,1-1.77-.52v1.55a4.46,4.46,0,0,0,1.77.37c1.35,0,2.28-.67,2.28-1.84C194.82,86.39,192.34,86.74,192.34,86Z"/><path class="cls-6" d="M194.55,51.75c-.12.83-.76.83-1.38.83h-.35l.25-1.56a.19.19,0,0,1,.19-.16h.16c.42,0,.82,0,1,.24A.77.77,0,0,1,194.55,51.75Zm-.26-2.18H192a.31.31,0,0,0-.31.27l-.94,6a.19.19,0,0,0,.19.22H192a.31.31,0,0,0,.31-.27l.26-1.61a.32.32,0,0,1,.32-.27h.73a2.38,2.38,0,0,0,2.64-2.21,1.78,1.78,0,0,0-.29-1.5A2.19,2.19,0,0,0,194.29,49.57Z"/><path class="cls-6" d="M199.68,53.88A1.24,1.24,0,0,1,198.42,55a.94.94,0,0,1-.74-.3,1,1,0,0,1-.18-.79,1.24,1.24,0,0,1,1.25-1.07.89.89,0,0,1,.93,1.09Zm1.55-2.16h-1.11a.2.2,0,0,0-.2.16l0,.31-.07-.11a1.59,1.59,0,0,0-1.32-.47A2.57,2.57,0,0,0,196,53.85a2.1,2.1,0,0,0,.42,1.71,1.72,1.72,0,0,0,1.4.56,2.1,2.1,0,0,0,1.53-.63l0,.31a.19.19,0,0,0,.19.22h1a.32.32,0,0,0,.32-.27l.6-3.81A.19.19,0,0,0,201.23,51.72Z"/><path class="cls-6" d="M207.15,51.72H206a.35.35,0,0,0-.27.14l-1.54,2.27L203.57,52a.32.32,0,0,0-.31-.23h-1.1A.2.2,0,0,0,202,52l1.23,3.61-1.16,1.63a.2.2,0,0,0,.16.31h1.12a.34.34,0,0,0,.26-.14L207.31,52A.19.19,0,0,0,207.15,51.72Z"/><path class="cls-6" d="M211.12,51.75c-.13.83-.77.83-1.38.83h-.35l.24-1.56a.2.2,0,0,1,.19-.16H210c.42,0,.82,0,1,.24A.77.77,0,0,1,211.12,51.75Zm-.27-2.18h-2.32a.32.32,0,0,0-.32.27l-.94,6a.19.19,0,0,0,.19.22h1.19a.22.22,0,0,0,.22-.19l.27-1.69a.33.33,0,0,1,.32-.27h.73a2.39,2.39,0,0,0,2.65-2.21,1.81,1.81,0,0,0-.3-1.5A2.17,2.17,0,0,0,210.85,49.57Z"/><path class="cls-6" d="M216.24,53.88A1.24,1.24,0,0,1,215,55a.94.94,0,0,1-.74-.3,1,1,0,0,1-.18-.79,1.25,1.25,0,0,1,1.25-1.07.93.93,0,0,1,.74.31A1,1,0,0,1,216.24,53.88Zm1.55-2.16h-1.11a.19.19,0,0,0-.19.16l-.05.31-.08-.11a1.58,1.58,0,0,0-1.31-.47,2.58,2.58,0,0,0-2.49,2.24,2.13,2.13,0,0,0,.42,1.71,1.73,1.73,0,0,0,1.4.56,2.14,2.14,0,0,0,1.54-.63l0,.31a.19.19,0,0,0,.19.22h1a.31.31,0,0,0,.32-.27l.6-3.81A.19.19,0,0,0,217.79,51.72Z"/><path class="cls-6" d="M219.1,49.73l-.95,6.07a.19.19,0,0,0,.19.22h1a.32.32,0,0,0,.32-.27l.94-6a.21.21,0,0,0-.2-.22h-1.07A.2.2,0,0,0,219.1,49.73Z"/><path class="cls-6" d="M194.63,70a1.32,1.32,0,0,0,.88-1.28c0-1-.77-1.6-2-1.6H190.7V68h.69v4.2h-.69v.88h2.91c1.39,0,2.23-.61,2.23-1.7A1.46,1.46,0,0,0,194.63,70Zm-2.29-2h1c.77,0,1.18.27,1.18.81s-.4.81-1.17.81h-1Zm1.18,4.2h-1.18V70.47h1.11c1,0,1.43.31,1.43.87S194.43,72.21,193.52,72.21Z"/><path class="cls-6" d="M200.2,68.57a1.76,1.76,0,0,0-1.6.88v-.74h-1.66v.88h.76v2.62h-1v.88h3.41v-.88h-1.53V71.08a1.55,1.55,0,0,1,1.55-1.65.71.71,0,0,1,.7.56l.87-.25A1.46,1.46,0,0,0,200.2,68.57Z"/><path class="cls-6" d="M206.43,70.26c0-1.1-.85-1.69-2-1.69a2.68,2.68,0,0,0-1.89.73l.6.65a1.9,1.9,0,0,1,1.29-.53c.54,0,1,.26,1,.87v.25a4.39,4.39,0,0,0-1.16-.17c-1,0-2,.41-2,1.48s.79,1.38,1.7,1.38a1.82,1.82,0,0,0,1.5-.61v.47h1.57v-.88h-.64Zm-.93,1.18c0,.62-.75,1-1.42,1-.49,0-.84-.19-.84-.58s.56-.7,1.14-.7a3.7,3.7,0,0,1,1.12.18Z"/><polygon class="cls-6" points="210.89 68.71 208.58 68.71 208.58 69.59 209.98 69.59 209.98 72.21 208.15 72.21 208.15 73.09 212.58 73.09 212.58 72.21 212.58 72.21 210.89 72.21 210.89 68.71"/><rect class="cls-6" x="209.87" y="66.51" width="1.02" height="1.33"/><path class="cls-6" d="M218.44,70.18a1.57,1.57,0,0,0-1.69-1.61,1.71,1.71,0,0,0-1.5.71v-.57h-1.53v.88h.63v2.62h-.67v.88H216v-.88h-.7V70.76a1.35,1.35,0,0,1,1.38-1.31.85.85,0,0,1,.89,1v1.78h-.7v.88h2.28v-.88h-.67Z"/><path class="cls-6" d="M222.28,72.38a.92.92,0,0,1-1-1V69.59h2.14v-.88h-2.14V67.13h-.91v1.58h-1.14v.88h1.15v1.86a1.73,1.73,0,0,0,1.93,1.78,2.52,2.52,0,0,0,1.87-.83l-.61-.63A1.83,1.83,0,0,1,222.28,72.38Z"/><path class="cls-6" d="M228.46,68.57a1.76,1.76,0,0,0-1.6.88v-.74H225.2v.88H226v2.62h-1v.88h3.41v-.88h-1.53V71.08a1.55,1.55,0,0,1,1.55-1.65.72.72,0,0,1,.7.56l.86-.25A1.45,1.45,0,0,0,228.46,68.57Z"/><path class="cls-6" d="M233,68.57a2.29,2.29,0,0,0-2.4,2.33,2.34,2.34,0,0,0,2.51,2.33,3.08,3.08,0,0,0,2.16-.81l-.61-.64a2.12,2.12,0,0,1-1.54.61,1.5,1.5,0,0,1-1.56-1.17h3.79v-.16A2.34,2.34,0,0,0,233,68.57Zm-1.4,1.88a1.39,1.39,0,0,1,1.4-1,1.33,1.33,0,0,1,1.31,1Z"/><path class="cls-6" d="M241,71.06a2.34,2.34,0,0,0-2.36-2.49,2.29,2.29,0,0,0-2.39,2.33,2.34,2.34,0,0,0,2.51,2.33,3.05,3.05,0,0,0,2.15-.81l-.61-.64a2.1,2.1,0,0,1-1.53.61,1.48,1.48,0,0,1-1.56-1.17H241Zm-3.75-.61a1.38,1.38,0,0,1,1.39-1,1.33,1.33,0,0,1,1.31,1Z"/><path class="cls-6" d="M193,38.85a2.42,2.42,0,0,1-1.71-.69,2,2,0,0,1-.62-1.44h.66a1.37,1.37,0,0,0,.42,1,1.78,1.78,0,0,0,1.25.5h0a1.57,1.57,0,0,0,1.67-1.44c0-.59-.33-1.06-1.93-1.43a2.86,2.86,0,0,1-1.38-.63,1.63,1.63,0,0,1-.46-1.23A2,2,0,0,1,193,31.59a2.19,2.19,0,0,1,1.45.53,1.75,1.75,0,0,1,.62,1.33h-.65a1.43,1.43,0,0,0-2.82,0c0,.6.2,1,1.33,1.22s2.43.74,2.44,2.07a2,2,0,0,1-.69,1.5,2.45,2.45,0,0,1-1.64.6Z"/><path class="cls-6" d="M198.84,34.17a2,2,0,0,0-2,2.06,2,2,0,0,0,2,2,2,2,0,0,0,0-4.08m2,6.55V37.84h0a2.28,2.28,0,0,1-1.94,1,2.62,2.62,0,1,1,0-5.23,2.27,2.27,0,0,1,1.94,1h0v-.87h.64v7Z"/><path class="cls-6" d="M210.59,34.17a2,2,0,0,0-2,2.06,2,2,0,0,0,2,2,2,2,0,0,0,0-4.08m2,4.54v-.87h0a2.31,2.31,0,0,1-1.94,1,2.62,2.62,0,1,1,0-5.23,2.24,2.24,0,0,1,1.94,1h0v-.87h.64v5Z"/><path class="cls-6" d="M215.1,35.79v2.92h-.64v-5h.64v.72h0a1.41,1.41,0,0,1,1.41-.85v.67a1.43,1.43,0,0,0-1.42,1.52"/><path class="cls-6" d="M219.37,34.17a2,2,0,0,0-1.94,1.71h3.89a2,2,0,0,0-1.95-1.71m2.6,2.28h-4.54a2,2,0,0,0,1.93,1.8,1.87,1.87,0,0,0,1.79-1.17h.67a2.6,2.6,0,1,1-2.46-3.48A2.66,2.66,0,0,1,222,36.27c0,.06,0,.12,0,.18"/><path class="cls-6" d="M206.39,38.72v-.78h0a1.71,1.71,0,0,1-1.6.9,2.16,2.16,0,0,1-1.72-.75,2.57,2.57,0,0,1-.44-1.62V33.71h.64v2.75c0,1,.37,1.8,1.52,1.8a1.44,1.44,0,0,0,1.06-.4,1.88,1.88,0,0,0,.52-1.5V33.71H207v5Z"/><polygon class="cls-3" points="190.7 22.36 190.7 21.61 183.27 21.61 183.27 74.94 141.34 74.94 141.34 75.69 183.27 75.69 183.27 100.08 190.7 100.08 190.7 99.33 184.02 99.33 184.02 22.36 190.7 22.36"/><rect class="cls-2" x="6.1" y="60.85" width="79.14" height="45.02"/><path class="cls-7" d="M16.82,96.78H74.53a2.72,2.72,0,0,1,2.72,2.71v6h7.62V61.22H6.48V105.5H14.1v-6A2.72,2.72,0,0,1,16.82,96.78Z"/><polygon class="cls-3" points="5.73 60.48 5.73 106.25 14.1 106.25 14.1 105.5 6.48 105.5 6.48 61.23 84.87 61.23 84.87 105.5 77.25 105.5 77.25 106.25 85.62 106.25 85.62 60.48 5.73 60.48"/><path class="cls-4" d="M74.53,98.78H16.82a.71.71,0,0,0-.72.71v12.76a.72.72,0,0,0,.72.72H74.53a.73.73,0,0,0,.72-.72V99.49A.72.72,0,0,0,74.53,98.78Z"/><path class="cls-2" d="M35.23,109.54v-6.91h3.4a1.76,1.76,0,0,1,2,1.76A1.55,1.55,0,0,1,39.4,106a1.69,1.69,0,0,1,1.33,1.69,1.81,1.81,0,0,1-2,1.88Zm4.13-5a.89.89,0,0,0-1-.9H36.45v1.79h1.94A.87.87,0,0,0,39.36,104.59Zm.13,2.92a1,1,0,0,0-1-1h-2v1.93h2A.92.92,0,0,0,39.49,107.51Z"/><path class="cls-2" d="M42.48,106.8v-4.17h1.23v4.14a1.77,1.77,0,1,0,3.53,0v-4.14h1.23v4.17a2.67,2.67,0,0,1-3,2.86A2.67,2.67,0,0,1,42.48,106.8Z"/><path class="cls-2" d="M52.43,109.54v-2.87l-2.68-4h1.39l1.89,3,1.9-3h1.39l-2.68,4v2.87Z"/><path class="cls-3" d="M23.08,83.68v-.76l4.46-2.08v.8l-3.65,1.67L27.54,85v.81Z"/><path class="cls-3" d="M36.79,86.66V83.73H33.31v2.93H32.14V80h1.17V82.7h3.48V80H38v6.69Z"/><path class="cls-3" d="M41.49,86.66V81h-2V80h5.23v1h-2v5.66Z"/><path class="cls-3" d="M52,86.66V81.49l-2,5.17h-.5l-2.06-5.17v5.17H46.18V80h1.66l1.83,4.6L51.48,80h1.66v6.69Z"/><path class="cls-3" d="M55,86.66V80h1.18v5.66h3v1Z"/><path class="cls-3" d="M63.31,85.76V85L67,83.31l-3.66-1.67v-.8l4.46,2.08v.76Z"/><path class="cls-2" d="M45.45,70.65a23.31,23.31,0,0,1-11.63-3l-.47-.3.4-20.59-4.86,3.48-6-8.91.73-.58C24,40.41,34.88,32,41,32h.43l.37.31A10.08,10.08,0,0,0,44,34a4,4,0,0,0,4.17,0,10.08,10.08,0,0,0,2.15-1.75l.29-.31H51c6.23,0,17.07,8.44,17.53,8.8l.73.58-6,8.91L58.39,46.8l.68,20.58-.5.31a25,25,0,0,1-11.87,3H45.45Z"/><path class="cls-2" d="M51.09,33c5.87,0,16.82,8.59,16.82,8.59L63,48.85l-5.65-4,.73,22a24.15,24.15,0,0,1-11.36,2.82H45.46a22.49,22.49,0,0,1-11.1-2.82l.43-22-5.65,4L24.2,41.56S35.16,33,41,33h.07a11.79,11.79,0,0,0,2.36,1.92,5.07,5.07,0,0,0,5.21,0A11.79,11.79,0,0,0,51,33h.07m0-2h-.94l-.58.61a9.83,9.83,0,0,1-1.94,1.58,3,3,0,0,1-3.15,0,9.83,9.83,0,0,1-1.94-1.58L42,31H41C34.65,31,24.14,39.06,23,40L21.5,41.14l1,1.54L27.48,50l1.15,1.7,1.67-1.19,2.41-1.73-.35,18,0,1.12.94.61a24.52,24.52,0,0,0,12.17,3.13H46.7a26,26,0,0,0,12.39-3.11l1-.6,0-1.18-.6-18,2.36,1.69,1.67,1.19L64.63,50l4.94-7.29,1-1.54L69.15,40c-1.18-.93-11.69-9-18.06-9Z"/><path class="cls-3" d="M51.33,33.72c4.85.2,13.32,6.32,15.56,8l-4.11,6.06-5-3.59-1.24-.89,0,1.52.72,21.56a24.13,24.13,0,0,1-10.6,2.51H45.47a22.67,22.67,0,0,1-10.35-2.5l.42-21.58,0-1.49-1.22.87-5,3.59-4.11-6.06c2.24-1.69,10.71-7.81,15.56-8a11.81,11.81,0,0,0,2.29,1.81,5.78,5.78,0,0,0,6,0,11.81,11.81,0,0,0,2.29-1.81M51.09,33H51a11.79,11.79,0,0,1-2.36,1.92,5.07,5.07,0,0,1-5.21,0A11.79,11.79,0,0,1,41.09,33H41c-5.86,0-16.82,8.59-16.82,8.59l4.94,7.29,5.65-4-.43,22a22.49,22.49,0,0,0,11.1,2.82h1.23a24.15,24.15,0,0,0,11.36-2.82l-.73-22,5.65,4,4.94-7.29S57,33,51.09,33Z"/><path class="cls-1" d="M45.47,67.83a22.18,22.18,0,0,1-9.42-2.11l.48-24.34-7,5-3-4.39c2.09-1.53,9.52-6.73,13.9-7.17a12.71,12.71,0,0,0,2.18,1.66,6.58,6.58,0,0,0,6.81,0,13.24,13.24,0,0,0,2.18-1.66c4.38.44,11.81,5.64,13.9,7.17l-3,4.39-7-5,.81,24.35a23.91,23.91,0,0,1-9.66,2.13H45.47Z"/><path class="cls-2" d="M40.34,35.21a12.89,12.89,0,0,0,2.12,1.59,6.9,6.9,0,0,0,7.19,0,12.89,12.89,0,0,0,2.12-1.59c3.38.44,9.07,3.84,13.26,6.87l-2.56,3.77-6.11-4.36-1.23-.89,0,1.52L56,65.46a23.38,23.38,0,0,1-9.28,2H45.47a21.66,21.66,0,0,1-9-2l.46-23.34,0-1.5-1.21.87-6.07,4.34-2.56-3.77c4.19-3,9.88-6.43,13.26-6.87m11.16-.78a12.19,12.19,0,0,1-2.23,1.73,6.19,6.19,0,0,1-6.43,0,12.19,12.19,0,0,1-2.23-1.73c-4.08.3-11.06,4.89-14.55,7.47l3.39,5,6.69-4.79L35.67,66a22.44,22.44,0,0,0,9.8,2.25h1.21a23.93,23.93,0,0,0,10-2.27L55.93,42.1l6.73,4.81,3.39-5c-3.49-2.58-10.47-7.17-14.55-7.47Z"/></g></g></svg>