<?xml version="1.0" encoding="utf-8"?>
<!-- Generator: Adobe Illustrator 22.0.1, SVG Export Plug-In . SVG Version: 6.00 Build 0)  -->
<svg version="1.1" xmlns="http://www.w3.org/2000/svg" xmlns:xlink="http://www.w3.org/1999/xlink" x="0px" y="0px" width="300px"
	 height="125.5px" viewBox="0 0 300 125.5" enable-background="new 0 0 300 125.5" xml:space="preserve">
<g id="Layer_1">
	<g>
		<path fill="#FFFFFF" d="M244.79,114.77h-59.09c-3.07,0-5.58-2.51-5.58-5.58V22.6c0-3.07,2.51-5.58,5.58-5.58h59.09
			c3.07,0,5.58,2.51,5.58,5.58v86.59C250.37,112.26,247.86,114.77,244.79,114.77z"/>
		<path fill="#989FA1" d="M244.79,16.65H185.7c-3.28,0-5.95,2.67-5.95,5.95v86.6c0,3.28,2.67,5.95,5.95,5.95h45.85
			c-0.11-0.25-0.2-0.5-0.28-0.75H185.7c-2.87,0-5.2-2.33-5.2-5.2V22.6c0-2.87,2.33-5.2,5.2-5.2h59.09c2.87,0,5.21,2.33,5.21,5.2
			v66.05c0.25,0,0.5,0.01,0.75,0.04V22.6C250.75,19.32,248.07,16.65,244.79,16.65z"/>
		<rect x="189.93" y="75.44" fill="#989FA1" width="50.62" height="0.75"/>
		<rect x="189.93" y="87.28" fill="#989FA1" width="50.62" height="0.75"/>
		<rect x="189.93" y="63.59" fill="#989FA1" width="50.62" height="0.75"/>
		<rect x="189.93" y="51.74" fill="#989FA1" width="50.62" height="0.75"/>
		<rect x="189.93" y="39.9" fill="#989FA1" width="50.62" height="0.75"/>
		<rect x="189.93" y="99.13" fill="#989FA1" width="37.76" height="0.75"/>
		<path fill="#FFFFFF" d="M232.3,11.28v14h-34.12v-14h7.3c0-5.39,4.37-9.75,9.76-9.75c5.38,0,9.75,4.36,9.75,9.75H232.3z"/>
		<path fill="#989FA1" d="M232.68,25.65h-34.87V10.9h7.31c0.2-5.41,4.67-9.75,10.13-9.75c5.46,0,9.92,4.34,10.12,9.75h7.32V25.65z
			 M198.56,24.9h33.37V11.65h-7.31v-0.38c0-5.17-4.21-9.38-9.38-9.38c-5.17,0-9.38,4.21-9.38,9.38v0.38h-7.3V24.9z"/>
		<path fill="#ECEFEF" d="M200.18,23.28v-10h7.3v-2c0-4.27,3.48-7.75,7.76-7.75c4.27,0,7.75,3.48,7.75,7.75v2h7.31v10H200.18z"/>
		<circle fill="#FFFFFF" cx="249.52" cy="107.99" r="16.35"/>
		<path fill="#FFFFFF" d="M249.52,123.77c-8.7,0-15.77-7.08-15.77-15.77c0-8.7,7.08-15.77,15.77-15.77c8.7,0,15.77,7.08,15.77,15.77
			C265.3,116.69,258.22,123.77,249.52,123.77z"/>
		<path fill="#989FA1" d="M249.52,124.14c-8.9,0-16.15-7.24-16.15-16.15c0-8.9,7.24-16.15,16.15-16.15
			c8.91,0,16.15,7.24,16.15,16.15C265.67,116.9,258.43,124.14,249.52,124.14z M249.52,92.6c-8.49,0-15.4,6.91-15.4,15.4
			c0,8.49,6.91,15.4,15.4,15.4c8.49,0,15.4-6.91,15.4-15.4C264.92,99.5,258.01,92.6,249.52,92.6z"/>
		<path fill="#ECEFEF" d="M249.52,121.77c-7.59,0-13.77-6.18-13.77-13.77c0-7.59,6.18-13.77,13.77-13.77
			c7.6,0,13.77,6.18,13.77,13.77C263.3,115.59,257.12,121.77,249.52,121.77z"/>
		<polygon fill="#989FA1" points="246.4,115.09 240.58,109.27 242,107.86 246.4,112.26 257.05,101.61 258.46,103.02 		"/>
		<path fill="#EEE679" d="M92.85,44.59L69.13,30.9c-2.07-1.2-5.46-1.2-7.53,0L37.89,44.59c-2.07,1.2-3.77,4.13-3.77,6.52V78.5
			c0,2.39,1.69,5.33,3.77,6.52L61.6,98.71c2.07,1.19,5.46,1.19,7.53,0l23.72-13.69c2.07-1.19,3.77-4.13,3.77-6.52V51.12
			C96.62,48.73,94.92,45.79,92.85,44.59z M86.45,59.34H84v-4.18c0-3.19-2.46-4.18-7.21-4.18h-0.22c-11.39,0-10.38-4.26-10.7-5.82
			H65.7c-0.33,1.56,0.77,5.82-10.62,5.82h-0.3c-4.75,0-7.21,0.98-7.21,4.18v3.22l38.87,11.24v0.63h0.01v4.01
			c0,4.59-2.21,7.13-9.67,7.13h-0.38c-5.82,0-9.39,1.23-9.39,5.82h-2.46c0-4.59-3.58-5.82-9.39-5.82h-0.38
			c-7.46,0-9.67-2.54-9.67-7.13v-4.01h2.46v4.18c0,3.19,2.46,4.18,7.21,4.18H55c11.39,0,10.38,4.26,10.7,5.82h0.16
			c0.33-1.56-0.76-5.82,10.62-5.82h0.3c4.75,0,7.21-0.98,7.21-4.18v-2.4L45.12,60.79v-1.45h-0.01v-4.01c0-4.59,2.21-7.13,9.67-7.13
			h0.38c5.82,0,9.39-1.23,9.39-5.82h2.46c0,4.59,3.58,5.82,9.39,5.82h0.38c7.45,0,9.67,2.54,9.67,7.13V59.34z"/>
		<polygon fill="#989FA1" points="159.51,65.41 154.79,60.6 155.33,60.08 159.52,64.35 163.8,60.15 164.32,60.69 		"/>
		<path fill="#989FA1" d="M159.95,64.71h-0.75v-6.36c0-2.94-2.39-5.33-5.33-5.33h-31.5v-0.75h31.5c3.35,0,6.08,2.73,6.08,6.08V64.71
			z"/>
		<polygon fill="#989FA1" points="122.14,65.83 117.94,61.56 113.67,65.76 113.14,65.22 117.95,60.5 122.67,65.31 		"/>
		<path fill="#989FA1" d="M155.08,73.7h-31.5c-3.35,0-6.08-2.73-6.08-6.08v-6.36h0.75v6.36c0,2.94,2.39,5.33,5.33,5.33h31.5V73.7z"
			/>
	</g>
</g>
<g id="Layer_2">
</g>
<g id="Layer_3">
</g>
<g id="Layer_4">
</g>
<g id="Layer_5">
</g>
<g id="Layer_6">
</g>
</svg>
