<?xml version="1.0" encoding="utf-8"?>
<!-- Generator: Adobe Illustrator 22.1.0, SVG Export Plug-In . SVG Version: 6.00 Build 0)  -->
<svg version="1.1" id="Layer_1" xmlns="http://www.w3.org/2000/svg" xmlns:xlink="http://www.w3.org/1999/xlink" x="0px" y="0px"
	 viewBox="0 0 230 124.7" style="enable-background:new 0 0 230 124.7;" xml:space="preserve">
<style type="text/css">
	.st0{fill:#ECEFEF;}
	.st1{fill:#989FA1;}
	.st2{fill:#9D9D9D;}
	.st3{fill:#EEE679;}
	.st4{fill:#D8CD64;}
	.st5{fill:#F7ED94;}
	.st6{opacity:0.5;}
	.st7{fill:#FFFFFF;}
	.st8{fill:#D6D6D6;}
	.st9{fill:#F4F4F4;}
</style>
<g>
	<title>HtmlShoppingCart-01</title>
	<path class="st0" d="M190,29.8c-0.2,6.8-5.9,12.1-12.6,11.8c-6.5-0.2-11.6-5.4-11.8-11.8c-0.2,6.8-5.9,12.1-12.6,11.8
		c-6.5-0.2-11.6-5.4-11.8-11.8c-0.2,6.8-5.9,12.1-12.6,11.8c-6.5-0.2-11.6-5.4-11.8-11.8c0,6.8-5.5,12.2-12.2,12.2
		c-6.8,0-12.2-5.5-12.2-12.2c0,5.9-4.2,11-10.1,12v64.6h12.2V51h30.1v55.4h75.8V41.8C194.3,40.8,190,35.7,190,29.8z M192.5,99.3
		h-59.3V51h26.2c0.3-1.9,2.1-3.3,4-3c1.5,0.2,2.8,1.4,3,3h26.2L192.5,99.3z"/>
	<path class="st0" d="M162.9,48.9c-1.3,0-2.3,0.9-2.6,2.1h5.1C165.2,49.8,164.1,48.9,162.9,48.9z"/>
	<path class="st1" d="M205.6,41.6v70.4h-81.3V51H94.3V112H76.6V41.6l-0.9-0.3v71.6h131V41.3L205.6,41.6z M123.4,111.9H95.1V52h28.3
		L123.4,111.9L123.4,111.9z"/>
	<path class="st2" d="M166.4,51c-0.3-1.9-2.1-3.3-4-3c-1.5,0.2-2.8,1.4-3,3h-26.2v48.3h59.3V51H166.4z M162.9,48.9
		c1.3,0,2.3,0.9,2.6,2.1h-5.1C160.5,49.8,161.6,48.9,162.9,48.9L162.9,48.9z M165.5,51.9c-0.2,1.4-1.6,2.4-3,2.1
		c-1.1-0.2-1.9-1-2.1-2.1H165.5z M181.7,70.9c1.4,0,2.5,1.1,2.5,2.5v15.7c0,1.4-1.1,2.5-2.5,2.5H144c-1.4,0-2.5-1.1-2.5-2.5V73.4
		c0-1.4,1.1-2.5,2.5-2.5L181.7,70.9z M148.9,70l11.5-16c1.4,1.3,3.6,1.3,4.9,0l11.5,16H148.9z M191.6,98.4h-57.5V51.9h25.3
		c0,0.5,0.2,0.9,0.4,1.3L147.7,70H144c-1.9,0-3.4,1.5-3.4,3.4c0,0,0,0,0,0v15.8c0,1.9,1.5,3.4,3.4,3.4l0,0h37.7
		c1.9,0,3.4-1.5,3.4-3.4l0,0V73.4c0-1.9-1.5-3.4-3.3-3.4c0,0,0,0,0,0H178l-12.1-16.8c0.2-0.4,0.4-0.8,0.4-1.3h25.3L191.6,98.4z"/>
	<path class="st1" d="M153.2,78.4c-1.6-0.1-3,1.2-3.1,2.8s1.2,3,2.8,3.1c1.6,0.1,3-1.2,3.1-2.8c0,0,0-0.1,0-0.1
		c0.1-1.5-1.1-2.8-2.6-2.9C153.4,78.4,153.3,78.4,153.2,78.4z M153.2,83.7c-1.3,0.1-2.4-0.8-2.6-2.1c-0.1-1.3,0.8-2.4,2.1-2.6
		c1.3-0.1,2.4,0.8,2.6,2.1c0,0.1,0,0.2,0,0.2c0.1,1.2-0.7,2.2-1.9,2.3C153.4,83.7,153.3,83.7,153.2,83.7z"/>
	<path class="st1" d="M160.6,78.5h-2.3v5.7h0.7v-2.3h1.6c1,0.1,1.8-0.6,1.9-1.6c0.1-1-0.6-1.8-1.6-1.9
		C160.8,78.4,160.7,78.4,160.6,78.5L160.6,78.5z M160.5,81.3H159v-2.2h1.5c0.6,0,1.1,0.5,1.1,1.1C161.6,80.8,161.1,81.3,160.5,81.3z
		"/>
	<polygon class="st1" points="164.4,84.2 168.2,84.2 168.2,83.6 165.1,83.6 165.1,81.6 168.1,81.6 168.1,81 165.1,81 165.1,79.1 
		168.2,79.1 168.2,78.5 164.4,78.5 	"/>
	<polygon class="st1" points="174.4,78.5 174.4,83 171.1,78.5 170.4,78.5 170.4,84.2 171.1,84.2 171.1,79.6 174.5,84.2 175.1,84.2 
		175.1,78.5 	"/>
	<path class="st3" d="M200.5,2.7H81.7l-14,24.3v2.9c0,5.1,3.2,9.7,8,11.5l0.9,0.3c1.1,0.3,2.2,0.5,3.3,0.5c0.7,0,1.5-0.1,2.2-0.2
		c5.8-1.1,10.1-6.1,10.1-12c0,6.8,5.5,12.2,12.2,12.2c6.7,0,12.2-5.5,12.2-12.2c0.2,6.8,5.9,12.1,12.6,11.8
		c6.5-0.2,11.6-5.4,11.8-11.8c0.2,6.8,5.9,12.1,12.6,11.8c6.5-0.2,11.6-5.4,11.8-11.8c0.2,6.8,5.9,12.1,12.6,11.8
		c6.5-0.2,11.6-5.4,11.8-11.8c0,5.9,4.2,11,10,12c0.7,0.1,1.5,0.2,2.2,0.2c1.1,0,2.3-0.2,3.4-0.5l0.9-0.3c4.8-1.8,7.9-6.4,7.9-11.5
		v-2.9L200.5,2.7z"/>
	<g>
		<polygon class="st3" points="82.9,87.7 82.8,119.6 51.8,122.9 51.9,91 		"/>
		<polygon class="st4" points="51.8,122.9 36.7,112.1 36.8,80.2 51.9,91 		"/>
		<polygon class="st5" points="51.9,91 36.8,80.2 67.7,76.9 82.9,87.7 		"/>
	</g>
	<path d="M57.5,108.4v-2l6.5-3.7v2l-4.8,2.5l4.8,1.2v2L57.5,108.4z"/>
	<path d="M65.2,112.1l3.4-11.6l1.8-0.2L67,111.8L65.2,112.1z"/>
	<path d="M71.6,109.6v-2l4.8-2.5l-4.8-1.3v-2l6.5,2v2L71.6,109.6z"/>
	<g class="st6">
		<polygon class="st7" points="70.8,89 64.5,89.6 49.4,78.9 55.6,78.2 		"/>
	</g>
	<g class="st6">
		<polygon class="st7" points="70.8,96.1 69.2,95.1 67.6,96.2 66.1,95.8 64.6,96.9 64.6,89.6 70.8,89 		"/>
	</g>
	<g>
		<polygon class="st0" points="41.7,98.4 41.7,121.6 18.1,123.1 18.1,99.9 		"/>
		<polygon class="st8" points="18.1,123.1 11.8,115.5 11.8,92.3 18.1,99.9 		"/>
		<polygon class="st9" points="18.1,99.9 11.8,92.3 35.4,90.8 41.7,98.4 		"/>
	</g>
	<path class="st1" d="M28.4,118.5l1.2-0.9c0.2,0.4,0.5,0.8,1,0.7c0.5-0.1,0.9-0.3,0.9-1.1v-5.3l1.6-0.2v5.4c0.1,1.4-1,2.5-2.3,2.6
		c0,0,0,0,0,0C29.7,119.9,28.8,119.4,28.4,118.5"/>
	<path class="st1" d="M34,117.8l1.2-0.9c0.3,0.6,0.9,0.9,1.6,0.8c0.6-0.1,1.1-0.4,1.1-0.9c0-0.5-0.4-0.7-1.1-0.9l-0.4-0.1
		c-1.1-0.4-1.9-0.9-1.9-2.2c0-1.3,1-2.3,2.3-2.3c0.9-0.2,1.8,0.2,2.2,1l-1.2,0.9c-0.2-0.4-0.6-0.6-1-0.6c-0.4,0-0.7,0.3-0.8,0.8
		c0,0.5,0.3,0.6,1,0.9l0.4,0.1c1.3,0.4,2.1,0.9,2.1,2.2c-0.1,1.4-1.2,2.5-2.6,2.5C35.6,119.3,34.5,118.8,34,117.8"/>
	<g class="st6">
		<polygon class="st8" points="32,99 27.9,99.2 21.5,91.7 25.7,91.4 		"/>
	</g>
	<g class="st6">
		<polygon class="st8" points="32,105 30.9,104.1 29.9,105 28.7,104.6 27.9,105.3 27.9,99.2 32,99 		"/>
	</g>
</g>
</svg>
