<svg xmlns="http://www.w3.org/2000/svg" preserveAspectRatio="xMidYMid" width="79" height="40" viewBox="0 0 79 40"><defs><style>.cls-1 { fill: #b6bcbd; fill-rule: evenodd; }</style></defs><path d="M62.83 40v-2.574h13.682v-.383c0-4.098-7.698-7.59-10.035-8.085l-.205-.044-.078-.194c-.09-.224-.167-.63-.197-1.034l-.012-.163.107-.122c.487-.56 1.667-2.07 2.112-4.036l.04-.18.165-.083c.374-.19.696-.6.904-1.152.324-.862.382-2.085-.222-2.88l-.093-.12.016-.156c.128-1.22.46-4.38-1.348-6.38-1.04-1.148-2.605-1.73-4.653-1.73-2.05 0-3.613.58-4.65 1.73-1.808 2-1.477 5.16-1.353 6.35l.016.153-.09.157c-.598.79-.534 2.045-.22 2.877.208.55.53.96.906 1.152l.164.083.04.18c.447 1.964 1.627 3.478 2.113 4.038l.11.125-.01.163c-.03.403-.108.81-.198 1.033l-.078.195-.556.128-.166-.15c-.723-.708-1.554-1.403-2.472-2.068l-.073-.054-.044-.08c-.367-.694-.636-1.32-.824-1.912-.547-.51-.986-1.2-1.27-1.994-.314-.88-.435-1.867-.34-2.78.06-.597.214-1.158.45-1.67-.077-.96-.075-1.83.01-2.657.2-1.995.87-3.655 1.985-4.933.754-.862 1.693-1.524 2.79-1.968 1.096-.444 2.362-.67 3.762-.67s2.665.226 3.762.67c1.097.443 2.036 1.105 2.79 1.967 1.115 1.278 1.784 2.938 1.985 4.935.083.827.086 1.696.008 2.657.237.51.388 1.07.45 1.67.095.91-.026 1.9-.34 2.78-.284.792-.722 1.48-1.268 1.992-.258.813-.623 1.625-1.084 2.414 1.39.563 2.91 1.346 4.17 2.15 1.46.93 2.648 1.92 3.536 2.945C78.336 33.807 79 35.408 79 37.05V40H62.83zM52.65 27.363c1.837 1.17 3.33 2.412 4.436 3.69 1.595 1.84 2.404 3.775 2.404 5.746V40h-40.1v-3.2c0-1.972.81-3.906 2.405-5.748 1.107-1.276 2.6-2.518 4.435-3.69 1.602-1.02 3.535-2.017 5.305-2.733l.655-.268-.357-.608c-.576-.98-1.03-1.994-1.352-3.01l-.045-.152-.118-.11c-.635-.594-1.148-1.402-1.48-2.336-.377-1.052-.522-2.232-.41-3.322.075-.705.253-1.367.53-1.966l.068-.146-.013-.16c-.096-1.206-.093-2.294.01-3.326.247-2.45 1.06-4.48 2.42-6.035.91-1.04 2.044-1.84 3.37-2.375C36.152.275 37.71 0 39.44 0s3.29.275 4.632.82c1.33.536 2.463 1.335 3.372 2.375C48.8 4.75 49.614 6.78 49.862 9.23c.104 1.03.107 2.12.01 3.326l-.014.16.067.145c.278.6.457 1.26.53 1.968.113 1.09-.032 2.27-.407 3.322-.336.936-.848 1.743-1.483 2.336l-.116.11-.05.152c-.32 1.014-.777 2.026-1.354 3.008l-.356.61.656.264c1.768.714 3.7 1.71 5.304 2.733zm-9.146-2.958c.635-.73 2.175-2.706 2.757-5.273l.04-.18.168-.083c.512-.26.948-.814 1.227-1.555.43-1.144.505-2.772-.302-3.833l-.093-.123.015-.153c.167-1.596.6-5.72-1.772-8.344-1.364-1.508-3.416-2.273-6.1-2.273-2.683 0-4.735.767-6.1 2.275-2.37 2.622-1.938 6.748-1.776 8.3l.016.154-.09.165c-.8 1.057-.718 2.727-.302 3.832.28.74.717 1.292 1.23 1.552l.164.08.04.18c.583 2.568 2.123 4.544 2.758 5.274l.108.123-.012.162c-.037.51-.134 1.02-.246 1.3l-.078.196-.206.044c-3.044.648-13.07 5.206-13.07 10.57v.61H57.01v-.61c0-5.364-10.024-9.92-13.068-10.568l-.205-.043-.078-.197c-.113-.28-.21-.79-.248-1.302l-.01-.16.106-.124zm-18.85-1.623c-.285.795-.723 1.484-1.27 1.994-.17.536-.415 1.115-.75 1.77l-.043.085-.075.06c-1.016.72-1.907 1.455-2.65 2.18l-.156.15-.41-.098-.125-.2c-.09-.225-.167-.63-.197-1.033l-.01-.164.106-.122c.486-.56 1.666-2.072 2.11-4.038l.042-.18.164-.083c.376-.19.7-.6.906-1.152.324-.86.382-2.084-.222-2.88l-.094-.12.016-.156c.128-1.22.46-4.38-1.348-6.38-1.038-1.148-2.603-1.73-4.65-1.73-2.05 0-3.614.58-4.65 1.73-1.81 2-1.478 5.16-1.354 6.35l.016.153-.09.157c-.6.79-.535 2.045-.22 2.877.207.553.528.96.905 1.154l.164.083.04.18c.444 1.966 1.624 3.478 2.11 4.038l.11.124-.014.163c-.03.402-.107.808-.197 1.032l-.077.194-.206.043C10.2 29.46 2.502 32.95 2.502 37.048v.383H16.05V40H.01v-2.957c0-1.642.666-3.243 1.977-4.758.89-1.024 2.078-2.015 3.534-2.945 1.26-.803 2.78-1.586 4.174-2.15-.46-.784-.824-1.596-1.083-2.413-.546-.51-.985-1.2-1.27-1.994-.313-.88-.434-1.867-.34-2.78.063-.597.214-1.158.45-1.67-.076-.962-.073-1.83.01-2.657.2-1.996.87-3.656 1.986-4.934.754-.862 1.693-1.524 2.79-1.968 1.096-.443 2.362-.668 3.762-.668s2.665.225 3.762.668c1.096.444 2.034 1.106 2.79 1.968 1.115 1.278 1.783 2.938 1.984 4.935.083.827.086 1.696.01 2.657.235.51.386 1.072.448 1.668.095.912-.026 1.9-.34 2.78z" class="cls-1"/></svg>